<?xml version="1.0" encoding="UTF-8"?>
<svg version="1.1" xmlns="http://www.w3.org/2000/svg" width="512" height="512">
<path d="M0 0 C3.875 0.5625 3.875 0.5625 5.875 2 C8.29546909 8.20245204 6.76160066 15.71750402 5.86523438 22.17163086 C5.7579451 22.97927887 5.65065582 23.78692688 5.54011536 24.61904907 C5.18849007 27.25591732 4.82864311 29.89159241 4.46875 32.52734375 C4.2215751 34.3704959 3.97496125 36.21372337 3.72888184 38.05702209 C3.08297164 42.88523005 2.43024467 47.71249074 1.77581787 52.53955078 C0.851728 59.364898 -0.06319863 66.19148043 -0.97888184 73.01795959 C-1.46603427 76.64968183 -1.95589767 80.28102264 -2.44787598 83.91209412 C-2.6703447 85.56110422 -2.89279833 87.21011635 -3.11523438 88.85913086 C-3.2180925 89.6139122 -3.32095062 90.36869354 -3.42692566 91.14634705 C-3.94280384 94.84140353 -3.94280384 94.84140353 -4.125 98.5625 C-3.54728348 98.84176331 -2.96956696 99.12102661 -2.37434387 99.40875244 C3.64779641 102.32134666 9.66557096 105.24281585 15.6809082 108.16943359 C17.92524675 109.25992514 20.17068186 110.3481629 22.41723633 111.43408203 C25.64957205 112.99698535 28.87785402 114.56799983 32.10546875 116.140625 C33.10772995 116.62307678 34.10999115 117.10552856 35.1426239 117.6026001 C44.52001552 122.19036685 44.52001552 122.19036685 47.875 125.5625 C48.58985522 129.76896096 48.29953598 131.83513474 46.14453125 135.52734375 C45.33371094 136.50832031 44.52289063 137.48929688 43.6875 138.5 C43.2433374 139.04793213 42.7991748 139.59586426 42.34155273 140.16040039 C41.37635849 141.34734863 40.40346652 142.52806982 39.42382812 143.703125 C37.83372682 145.61204864 36.26604426 147.53752376 34.703125 149.46875 C32.50761806 152.18100229 30.30504508 154.88725509 28.09765625 157.58984375 C24.71699031 161.74162684 21.35815651 165.9157103 18.14736748 170.20094109 C15.80080554 173.29316117 13.42854698 176.04853577 10.54275513 178.64993286 C2.03264526 186.76778053 -0.31451783 194.11238372 -0.64501953 205.79638672 C-0.72265923 210.70688001 -0.65057825 215.6102577 -0.54625559 220.51977301 C-0.48112072 224.28525289 -0.49351111 228.05051001 -0.49777222 231.81643677 C-0.49490993 238.93416783 -0.42887558 246.04971787 -0.33700454 253.16680157 C-0.20470451 263.60376252 -0.15877787 274.0411921 -0.12461662 284.47888374 C-0.12080425 285.63284875 -0.12080425 285.63284875 -0.11691487 286.81012619 C-0.11189055 288.34502536 -0.10705584 289.87992517 -0.10241592 291.41482556 C-0.08664978 295.87824142 -0.04915075 300.34078622 0.00794482 304.80386043 C0.0334239 306.91230393 0.05230758 309.02069437 0.06867981 311.12922668 C0.08951962 313.68688891 0.12149152 316.24449745 0.16731262 318.80183411 C0.23510327 331.20544718 -2.7023133 340.502642 -11.09375 349.7265625 C-20.44636878 358.77420458 -30.73945996 361.317862 -43.45265198 361.19068909 C-45.38586828 361.20133067 -45.38586828 361.20133067 -47.35813946 361.21218723 C-50.90152518 361.23096539 -54.44421261 361.2189589 -57.9875797 361.2014643 C-61.82200641 361.18801532 -65.65633594 361.20355413 -69.49075317 361.21528625 C-76.98865984 361.23361089 -84.48630492 361.22518555 -91.98420329 361.20719803 C-98.08033266 361.19314107 -104.17639129 361.18928587 -110.27253532 361.1926403 C-111.14197228 361.19311775 -112.01140924 361.19359519 -112.90719278 361.1940871 C-114.67372634 361.19511348 -116.44025989 361.19616885 -118.20679342 361.19725286 C-133.80742942 361.20580932 -149.40793956 361.18917868 -165.00854492 361.15942383 C-180.12969243 361.13058404 -195.25065869 361.12350661 -210.37182617 361.13891602 C-226.85880858 361.15569439 -243.34570504 361.15969609 -259.8326897 361.14220566 C-261.59221994 361.14036137 -263.35175019 361.13852664 -265.11128044 361.13670158 C-265.97688749 361.13578949 -266.84249454 361.1348774 -267.7343321 361.13393768 C-273.82024847 361.12834283 -279.90612274 361.13162958 -285.99203682 361.13824654 C-293.41280499 361.14599492 -300.83339506 361.13917295 -308.25412745 361.1140715 C-312.03683515 361.10161181 -315.81926605 361.09538673 -319.60198402 361.10661316 C-323.70968796 361.11857352 -327.81667012 361.09932711 -331.92433167 361.0771637 C-333.10975369 361.08540446 -334.29517571 361.09364523 -335.51651961 361.10213572 C-347.11054225 360.98692568 -356.77426271 357.81870064 -365.125 349.5625 C-373.97339642 339.16477347 -376.34125539 329.06710126 -375.37939453 315.61914062 C-374.0431878 304.81664013 -367.37413375 296.77591046 -359.125 290.25 C-352.65615114 285.64548089 -346.09178262 283.44088021 -338.1262207 283.43652344 C-337.15783768 283.43271667 -336.18945465 283.42890991 -335.19172668 283.42498779 C-333.63695869 283.42344696 -333.63695869 283.42344696 -332.05078125 283.421875 C-329.83397413 283.40354342 -327.61717697 283.38397279 -325.40039062 283.36328125 C-321.9224363 283.33436976 -318.44512317 283.31250107 -314.96704102 283.31201172 C-311.59854909 283.30865879 -308.2315176 283.27399855 -304.86328125 283.234375 C-303.32369499 283.24497955 -303.32369499 283.24497955 -301.75300598 283.25579834 C-293.84780147 283.12394044 -287.11973939 281.2250517 -281.17866516 275.77801514 C-274.97877767 269.18167242 -274.7683168 261.85189663 -274.5 253.1875 C-274.44199219 251.65416016 -274.44199219 251.65416016 -274.3828125 250.08984375 C-274.28902036 247.58090403 -274.20332121 245.07196236 -274.125 242.5625 C-274.9149876 242.56618717 -275.7049752 242.56987434 -276.51890182 242.57367325 C-295.73091861 242.66196674 -314.94289496 242.72818155 -334.15507126 242.76974869 C-343.44590282 242.79038396 -352.73659905 242.81852295 -362.02734375 242.86425781 C-370.12408705 242.90409609 -378.22073235 242.92992579 -386.31757092 242.93885398 C-390.60580655 242.94407386 -394.89376179 242.95636229 -399.18190765 242.98542023 C-403.21695868 243.01254194 -407.25161346 243.02095167 -411.28674698 243.01493073 C-412.76864143 243.01603243 -414.25054894 243.02400592 -415.73236465 243.0393219 C-417.75399471 243.05919486 -419.77583671 243.05206096 -421.79754639 243.04351807 C-423.49548906 243.04904882 -423.49548906 243.04904882 -425.22773361 243.05469131 C-428.803784 242.44718731 -429.99834578 241.46351518 -432.125 238.5625 C-432.62420087 229.57572606 -427.74871835 221.94293773 -423.7578125 214.1796875 C-422.99958762 212.67888758 -422.24268578 211.1774186 -421.48703003 209.67532349 C-419.49449697 205.72254674 -417.48570643 201.7782682 -415.47283936 197.83581543 C-412.29184997 191.59704344 -409.13838158 185.34425174 -405.97875786 179.09464073 C-404.82064105 176.80533696 -403.66066508 174.5169821 -402.50050354 172.22871399 C-397.88096492 163.10726616 -393.3751898 153.94183557 -389.0025177 144.69892883 C-383.65935435 133.41921665 -378.03693981 122.27904349 -372.4375 111.125 C-370.81451281 107.88655182 -369.19209843 104.64781721 -367.5697937 101.4090271 C-366.52786225 99.33037154 -365.48485864 97.252253 -364.44070435 95.17471313 C-362.16744449 90.65061307 -359.9031922 86.12323837 -357.68115234 81.57373047 C-357.31523483 80.82840561 -356.94931732 80.08308075 -356.5723114 79.31517029 C-355.91174115 77.96730694 -355.25588872 76.61711529 -354.60603333 75.26405334 C-351.79169672 69.53760293 -351.79169672 69.53760293 -349.125 67.5625 C-346.19295692 67.17938995 -346.19295692 67.17938995 -342.53384399 67.16809082 C-341.86102241 67.16199972 -341.18820082 67.15590861 -340.49499071 67.14963293 C-338.23558501 67.13295507 -335.97673993 67.13778533 -333.71728516 67.14257812 C-332.09935417 67.13524048 -330.48142843 67.12665514 -328.86351013 67.11691284 C-324.46468585 67.09465439 -320.06604864 67.09176836 -315.66717577 67.09366035 C-311.99664972 67.09377987 -308.32616357 67.08522329 -304.65564859 67.07688284 C-295.9963169 67.05763266 -287.33708161 67.0547706 -278.67773438 67.06152344 C-269.74181205 67.06816373 -260.80630255 67.04530414 -251.87046397 67.00820971 C-244.20157476 66.97752864 -236.53281844 66.96615099 -228.86386907 66.97004652 C-224.28221359 66.97211592 -219.7008792 66.96660586 -215.11928177 66.94215393 C-210.80993043 66.91991588 -206.50125065 66.92173969 -202.19189644 66.94208145 C-200.61045754 66.94549692 -199.0289737 66.94037924 -197.4475956 66.92609787 C-195.28765296 66.90793796 -193.12999649 66.92062549 -190.97012329 66.94104004 C-189.76186197 66.94032753 -188.55360065 66.93961502 -187.30872536 66.93888092 C-183.21008952 67.74171007 -181.7517033 69.39323751 -179.125 72.5625 C-177.73803711 74.8605957 -177.73803711 74.8605957 -176.65234375 77.23828125 C-176.23412354 78.13603271 -175.81590332 79.03378418 -175.38500977 79.95874023 C-174.94858154 80.92110596 -174.51215332 81.88347168 -174.0625 82.875 C-173.09309846 84.9566396 -172.12167963 87.03734074 -171.1484375 89.1171875 C-170.65053711 90.18549805 -170.15263672 91.25380859 -169.63964844 92.35449219 C-167.23673162 97.44384212 -164.71691884 102.47261452 -162.1875 107.5 C-161.68992187 108.49161133 -161.19234375 109.48322266 -160.6796875 110.50488281 C-159.163275 113.5250059 -157.64452609 116.5439424 -156.125 119.5625 C-150.21717064 131.29847702 -144.33842889 143.04039261 -138.703125 154.91015625 C-134.76792999 163.19661997 -130.72849702 171.4244911 -126.609375 179.62109375 C-126.05745483 180.71942535 -125.50553467 181.81775696 -124.93688965 182.94937134 C-122.68023214 187.43524718 -120.42052559 191.91957091 -118.15722656 196.40209961 C-114.43985518 203.76951405 -110.75433677 211.15129146 -107.125 218.5625 C-106.70758545 219.40999817 -106.2901709 220.25749634 -105.86010742 221.13067627 C-104.78391279 223.33855292 -103.73715117 225.55728572 -102.703125 227.78515625 C-102.1452832 228.96988525 -101.58744141 230.15461426 -101.01269531 231.37524414 C-99.93734621 235.23626795 -100.42165474 236.9847636 -102.125 240.5625 C-104.125 242.5625 -104.125 242.5625 -106.7917881 242.80859566 C-108.50355767 242.80583028 -108.50355767 242.80583028 -110.24990845 242.80300903 C-111.55685165 242.80575836 -112.86379486 242.80850769 -114.21034241 242.81134033 C-115.66708465 242.80426153 -117.12382597 242.79699191 -118.58056641 242.78955078 C-120.10793551 242.7889869 -121.63530516 242.78930278 -123.16267395 242.79043579 C-127.31742886 242.79101121 -131.47206903 242.77922645 -135.6267972 242.76528788 C-139.96565963 242.75281189 -144.3045245 242.7516125 -148.6434021 242.74923706 C-156.86340696 242.74301306 -165.08335882 242.72658983 -173.30334032 242.70653808 C-182.65991224 242.68420766 -192.01648666 242.67319285 -201.37307858 242.66314721 C-220.62374914 242.64222437 -239.87437031 242.60703057 -259.125 242.5625 C-259.10405273 243.26221924 -259.08310547 243.96193848 -259.06152344 244.68286133 C-258.97737066 247.91342264 -258.92602929 251.14375226 -258.875 254.375 C-258.84148437 255.47521484 -258.80796875 256.57542969 -258.7734375 257.70898438 C-258.63298172 269.61261203 -261.87728197 278.88845857 -270.125 287.5625 C-283.16512731 300.44951427 -299.81226931 299.11005639 -316.875 299.0625 C-321.24522486 299.05039764 -325.6142543 299.0642421 -329.984375 299.09375 C-330.96895691 299.08243042 -331.95353882 299.07111084 -332.96795654 299.05944824 C-340.78730048 299.11617705 -346.7887426 300.89349408 -352.9375 305.8125 C-357.77722643 311.89672751 -359.8423338 316.9382257 -359.50390625 324.8203125 C-358.51422859 331.98272195 -355.56766597 336.84005045 -350.00390625 341.37109375 C-345.971212 343.92820757 -342.43982332 344.81261661 -337.69072247 344.81976891 C-336.60584819 344.8262178 -335.52097391 344.83266669 -334.40322465 344.839311 C-333.21705184 344.8362138 -332.03087903 344.8331166 -330.8087616 344.82992554 C-328.91196835 344.83672221 -328.91196835 344.83672221 -326.97685605 344.84365618 C-323.46908356 344.85589002 -319.96140641 344.85562528 -316.45361745 344.85326743 C-312.66958927 344.85285936 -308.88559169 344.86389749 -305.10157776 344.87338257 C-297.68869392 344.8899957 -290.27584189 344.89549226 -282.86294099 344.89660732 C-276.83718934 344.89755766 -270.81144818 344.90166725 -264.78569984 344.90800858 C-247.70112676 344.92562194 -230.6165788 344.93484731 -213.53199657 344.93334763 C-212.61095675 344.93326772 -211.68991692 344.9331878 -210.7409668 344.93310547 C-209.81880221 344.93302371 -208.89663762 344.93294195 -207.94652865 344.93285771 C-193.00159857 344.93204481 -178.05676927 344.95118317 -163.11186834 344.9793822 C-147.76609583 345.00810911 -132.42037247 345.0219226 -117.07457238 345.02019465 C-108.45925504 345.01953067 -99.84404335 345.02502623 -91.22875023 345.04655075 C-83.89338983 345.06476003 -76.55818297 345.06911202 -69.22280975 345.0555319 C-65.48100906 345.04900088 -61.73950295 345.04888958 -57.99773026 345.0662384 C-53.93899357 345.0848631 -49.88093922 345.07241824 -45.82218933 345.05697632 C-44.05296837 345.07240701 -44.05296837 345.07240701 -42.24800557 345.08814943 C-34.00262825 345.0187454 -28.92879539 343.58824633 -22.375 338.375 C-16.56944593 331.11805742 -15.54438164 324.16918994 -15.67089844 315.07592773 C-15.67031433 313.96270645 -15.66973022 312.84948517 -15.66912842 311.70252991 C-15.67189866 308.05005913 -15.7029419 304.39842067 -15.734375 300.74609375 C-15.74184112 298.20305324 -15.7475323 295.66000695 -15.75152588 293.11695862 C-15.76519938 287.1247119 -15.79667305 281.13281839 -15.83692384 275.1407128 C-15.88177901 268.31358998 -15.90366294 261.48645238 -15.92370558 254.65921867 C-15.96541041 240.62681628 -16.03567607 226.59467436 -16.125 212.5625 C-16.87768661 213.5219603 -17.63037323 214.48142059 -18.40586853 215.46995544 C-19.40459537 216.74227194 -20.40334 218.01457446 -21.40209961 219.28686523 C-21.89686546 219.91764732 -22.39163132 220.54842941 -22.90139008 221.19832611 C-26.44772903 225.71488726 -30.04203544 230.18801072 -33.6875 234.625 C-38.66752947 240.70854599 -43.48341148 246.893278 -48.19921875 253.18359375 C-50.52195026 256.05285032 -51.30873111 256.45366415 -54.9375 256.9375 C-58.125 256.5625 -58.125 256.5625 -61.0625 254.5625 C-63.40887311 251.14959366 -63.23875305 249.83085297 -62.61489868 245.86456299 C-61.7086957 241.60626137 -60.33855137 237.5198681 -58.94921875 233.3984375 C-58.62758255 232.42383072 -58.30594635 231.44922394 -57.9745636 230.44508362 C-57.28445144 228.35613426 -56.59109315 226.26825499 -55.89477539 224.18136597 C-54.06509034 218.69731531 -52.25871476 213.20558175 -50.44921875 207.71484375 C-50.08448456 206.6103035 -49.71975037 205.50576324 -49.34396362 204.36775208 C-45.85049472 193.77245869 -42.46855863 183.14341214 -39.125 172.5 C-38.86625092 171.67723572 -38.60750183 170.85447144 -38.34091187 170.0067749 C-36.93216923 165.52642242 -35.5267308 161.04505099 -34.125 156.5625 C-36.68709961 154.85443359 -38.65816695 153.88617089 -41.5012207 152.83837891 C-42.3825618 152.51108795 -43.26390289 152.183797 -44.17195129 151.84658813 C-45.59697212 151.32311295 -45.59697212 151.32311295 -47.05078125 150.7890625 C-49.06453237 150.0392753 -51.07820169 149.28926838 -53.09179688 148.5390625 C-56.2637961 147.36223042 -59.43664542 146.18781504 -62.61108398 145.01757812 C-65.67686969 143.88565444 -68.73897754 142.74420561 -71.80078125 141.6015625 C-72.74472244 141.2566275 -73.68866364 140.9116925 -74.66120911 140.55630493 C-79.92411858 138.58539506 -85.07086345 136.61663655 -89.125 132.5625 C-89.67111678 126.79600532 -88.58102667 123.89781566 -85.33203125 119.171875 C-84.92332794 118.56738022 -84.51462463 117.96288544 -84.09353638 117.34007263 C-82.72293569 115.32038323 -81.33016502 113.3170246 -79.9375 111.3125 C-78.94635058 109.85960233 -77.95689263 108.40554954 -76.96899414 106.95043945 C-74.83064388 103.80539688 -72.68365667 100.66650622 -70.53027344 97.53173828 C-65.26696538 89.86263347 -60.07292818 82.14667018 -54.87338257 74.43426514 C-53.05620133 71.7406635 -51.23596 69.04914997 -49.4152832 66.35791016 C-42.87908005 56.68608835 -36.40307984 46.97794061 -30.00390625 37.21484375 C-29.34019516 36.20300522 -28.67648407 35.19116669 -27.99266052 34.14866638 C-24.78693773 29.25871473 -21.58899434 24.36391235 -18.40209961 19.46166992 C-17.24739927 17.6956921 -16.09254114 15.92981744 -14.9375 14.1640625 C-14.42107437 13.36399277 -13.90464874 12.56392303 -13.37257385 11.73960876 C-5.54893783 -0.18496459 -5.54893783 -0.18496459 0 0 Z M-13.125 39.5625 C-13.63957764 40.33698486 -14.15415527 41.11146973 -14.68432617 41.90942383 C-17.2252485 45.7324825 -19.76860007 49.55392217 -22.3125 53.375 C-22.78864746 54.09035919 -23.26479492 54.80571838 -23.75537109 55.54275513 C-30.08131687 65.04305986 -36.43843941 74.52163787 -42.83203125 83.9765625 C-43.47955856 84.93453232 -44.12708588 85.89250214 -44.79423523 86.87950134 C-47.9923483 91.60997969 -51.19357693 96.33830807 -54.39916992 101.0637207 C-55.58912029 102.82236726 -56.77898427 104.58107228 -57.96875 106.33984375 C-58.50236649 107.12416779 -59.03598297 107.90849182 -59.58576965 108.71658325 C-63.3012628 114.2163453 -66.75994983 119.84207399 -70.125 125.5625 C-68.89982666 126.02624023 -67.67465332 126.48998047 -66.41235352 126.96777344 C-61.83226742 128.70216255 -57.25347453 130.43994397 -52.67504883 132.17871094 C-50.6998098 132.92832359 -48.72422925 133.67703705 -46.74829102 134.42480469 C-43.8950749 135.50475023 -41.04313528 136.58800964 -38.19140625 137.671875 C-37.31915909 138.00121033 -36.44691193 138.33054565 -35.54823303 138.66986084 C-31.38050879 140.25735122 -27.23200481 141.88906191 -23.12084961 143.61816406 C-22.39957382 143.91950256 -21.67829803 144.22084106 -20.93516541 144.53131104 C-19.125 145.5625 -19.125 145.5625 -17.125 148.5625 C-17.41965581 155.4567652 -19.5870028 161.66884969 -21.7578125 168.17578125 C-22.48833024 170.41469756 -23.21879751 172.65363033 -23.94921875 174.89257812 C-25.10342151 178.400338 -26.26060752 181.90709494 -27.41943359 185.41333008 C-28.53958125 188.81095343 -29.64911044 192.21190917 -30.7578125 195.61328125 C-31.1098172 196.66638992 -31.4618219 197.7194986 -31.82449341 198.80451965 C-32.14167328 199.77950912 -32.45885315 200.7544986 -32.78564453 201.7590332 C-33.06908722 202.61648636 -33.35252991 203.47393951 -33.64456177 204.3573761 C-34.35614406 206.72062552 -34.35614406 206.72062552 -33.125 209.5625 C-26.06398819 201.05327451 -19.03806536 192.52628431 -12.2409668 183.80419922 C-8.7582261 179.34390281 -5.20343683 174.94628174 -1.625 170.5625 C2.87441883 165.04927637 7.30759949 159.49137592 11.68676758 153.88232422 C17.31395614 146.69345941 23.09967632 139.63245109 28.875 132.5625 C25.43817917 129.73036024 21.65102218 127.8738452 17.65234375 125.98046875 C16.95162247 125.64380692 16.25090118 125.30714508 15.52894592 124.96028137 C13.29208488 123.88605099 11.05256291 122.81753564 8.8125 121.75 C-0.63327887 117.24082299 -9.99393779 112.69070174 -19.125 107.5625 C-19.32382275 98.88690874 -18.82216688 90.60283476 -17.55859375 82.0234375 C-17.40084976 80.8947525 -17.24310577 79.7660675 -17.08058167 78.60317993 C-16.58294789 75.04670666 -16.07391164 71.49201622 -15.5625 67.9375 C-15.04825942 64.34719203 -14.53670886 60.75660394 -14.03370667 57.16470337 C-13.72220094 54.9412346 -13.40418084 52.71866662 -13.07896423 50.49716187 C-12.93874344 49.49826935 -12.79852264 48.49937683 -12.65405273 47.47021484 C-12.52747787 46.59231293 -12.40090302 45.71441101 -12.27049255 44.80990601 C-11.97225471 42.39264463 -11.97225471 42.39264463 -13.125 39.5625 Z M-341.125 82.5625 C-343.6 87.491875 -346.075 92.42125 -348.625 97.5 C-349.40810547 99.05710693 -350.19121094 100.61421387 -350.99804688 102.21850586 C-351.61343973 103.44637241 -352.22868442 104.67431323 -352.84375 105.90234375 C-353.16762695 106.54498169 -353.49150391 107.18761963 -353.82519531 107.84973145 C-355.43188328 110.57878467 -355.43188328 110.57878467 -356.125 113.5625 C-341.605 113.5625 -327.085 113.5625 -312.125 113.5625 C-310.84952051 109.09832178 -309.78584626 105.13771858 -309.0546875 100.62890625 C-308.81854736 99.19333374 -308.81854736 99.19333374 -308.57763672 97.72875977 C-308.3870166 96.53951904 -308.19639648 95.35027832 -308 94.125 C-307.38125 90.309375 -306.7625 86.49375 -306.125 82.5625 C-317.675 82.5625 -329.225 82.5625 -341.125 82.5625 Z M-291.125 82.5625 C-291.96597414 86.79018438 -292.79644025 91.01986656 -293.625 95.25 C-293.86347656 96.44818359 -294.10195313 97.64636719 -294.34765625 98.88085938 C-294.57324219 100.03779297 -294.79882812 101.19472656 -295.03125 102.38671875 C-295.24072266 103.44979248 -295.45019531 104.51286621 -295.66601562 105.6081543 C-296.25293119 108.88765715 -296.25293119 108.88765715 -296.125 113.5625 C-277.315 113.5625 -258.505 113.5625 -239.125 113.5625 C-239.929375 108.633125 -240.73375 103.70375 -241.5625 98.625 C-241.81443115 97.06789307 -242.0663623 95.51078613 -242.32592773 93.90649414 C-242.52645752 92.69082764 -242.7269873 91.47516113 -242.93359375 90.22265625 C-243.13782959 88.97105713 -243.34206543 87.71945801 -243.55249023 86.42993164 C-243.82654948 83.67595963 -243.82654948 83.67595963 -245.125 82.5625 C-246.56789787 82.46954185 -248.01529785 82.44503487 -249.46118164 82.44897461 C-250.3820607 82.44905014 -251.30293976 82.44912567 -252.25172424 82.44920349 C-253.75327309 82.45694542 -253.75327309 82.45694542 -255.28515625 82.46484375 C-256.81456093 82.46696617 -256.81456093 82.46696617 -258.37486267 82.46913147 C-261.64577107 82.47474903 -264.91661213 82.4873045 -268.1875 82.5 C-270.39908756 82.50501274 -272.61067618 82.50957604 -274.82226562 82.51367188 C-280.25653357 82.52472416 -285.69076197 82.54147937 -291.125 82.5625 Z M-229.125 82.5625 C-228.08350662 92.97743385 -226.08347979 103.28048111 -224.125 113.5625 C-208.615 113.5625 -193.105 113.5625 -177.125 113.5625 C-178.54790178 109.29379465 -179.92112089 105.72296956 -181.91015625 101.76171875 C-182.44060547 100.70275391 -182.97105469 99.64378906 -183.51757812 98.55273438 C-184.06865234 97.46283203 -184.61972656 96.37292969 -185.1875 95.25 C-185.74244141 94.14076172 -186.29738281 93.03152344 -186.86914062 91.88867188 C-189.04271908 86.91983168 -189.04271908 86.91983168 -192.125 82.5625 C-194.86394085 82.47391354 -197.5775327 82.44726521 -200.31640625 82.46484375 C-201.13624496 82.4662587 -201.95608368 82.46767365 -202.80076599 82.46913147 C-205.42971382 82.47474711 -208.05857773 82.48730221 -210.6875 82.5 C-212.46549357 82.50501299 -214.24348846 82.50957624 -216.02148438 82.51367188 C-220.38935545 82.52472161 -224.75716348 82.54199669 -229.125 82.5625 Z M-364.125 128.5625 C-367.26 134.95625 -370.395 141.35 -373.625 147.9375 C-374.61693359 149.95536621 -375.60886719 151.97323242 -376.63085938 154.05224609 C-377.41046851 155.64665725 -378.18978562 157.24121124 -378.96875 158.8359375 C-379.37899414 159.66778564 -379.78923828 160.49963379 -380.21191406 161.35668945 C-380.59766602 162.14825439 -380.98341797 162.93981934 -381.38085938 163.75537109 C-381.71839233 164.44376068 -382.05592529 165.13215027 -382.40368652 165.84140015 C-383.25384234 167.55890272 -383.25384234 167.55890272 -383.125 169.5625 C-362.665 169.5625 -342.205 169.5625 -321.125 169.5625 C-318.815 156.0325 -316.505 142.5025 -314.125 128.5625 C-330.625 128.5625 -347.125 128.5625 -364.125 128.5625 Z M-299.125 128.5625 C-303.92433028 148.78649688 -303.92433028 148.78649688 -306.125 169.5625 C-280.715 169.5625 -255.305 169.5625 -229.125 169.5625 C-231.435 156.0325 -233.745 142.5025 -236.125 128.5625 C-256.915 128.5625 -277.705 128.5625 -299.125 128.5625 Z M-221.125 128.5625 C-220.56473664 133.96861906 -219.8918091 139.32098364 -218.96875 144.6796875 C-218.64197266 146.57847656 -218.64197266 146.57847656 -218.30859375 148.515625 C-218.08300781 149.80984375 -217.85742188 151.1040625 -217.625 152.4375 C-217.39694546 153.76819663 -217.16907956 155.09892559 -216.94140625 156.4296875 C-215.86306196 163.07646483 -215.86306196 163.07646483 -214.125 169.5625 C-192.675 169.5625 -171.225 169.5625 -149.125 169.5625 C-153.58 160.1575 -153.58 160.1575 -158.125 150.5625 C-159.1253125 148.44585937 -160.125625 146.32921875 -161.15625 144.1484375 C-161.97905472 142.4114053 -162.80196555 140.67442336 -163.625 138.9375 C-164.05296875 138.03 -164.4809375 137.1225 -164.921875 136.1875 C-165.32921875 135.32898438 -165.7365625 134.47046875 -166.15625 133.5859375 C-166.51267578 132.83231934 -166.86910156 132.07870117 -167.23632812 131.30224609 C-168.00198885 129.58282753 -168.00198885 129.58282753 -169.125 128.5625 C-170.75174778 128.46909566 -172.38254051 128.44504829 -174.01196289 128.44897461 C-175.57346825 128.44908791 -175.57346825 128.44908791 -177.16651917 128.44920349 C-178.86493202 128.45694542 -178.86493202 128.45694542 -180.59765625 128.46484375 C-181.75043564 128.4662587 -182.90321503 128.46767365 -184.09092712 128.46913147 C-187.78981064 128.47474995 -191.48863464 128.48730558 -195.1875 128.5 C-197.68815017 128.50501262 -200.18880129 128.50957594 -202.68945312 128.51367188 C-208.83465588 128.52472538 -214.97982369 128.54148148 -221.125 128.5625 Z M-391.125 184.5625 C-399.42126513 200.26974745 -399.42126513 200.26974745 -407.25 216.1875 C-407.96929687 217.69183594 -407.96929687 217.69183594 -408.703125 219.2265625 C-410.99015095 223.23191668 -410.99015095 223.23191668 -412.125 227.5625 C-385.725 227.5625 -359.325 227.5625 -332.125 227.5625 C-330.50170723 222.01628876 -330.50170723 222.01628876 -329.34716797 216.46313477 C-329.22559326 215.73308228 -329.10401855 215.00302979 -328.97875977 214.25085449 C-328.85944092 213.50936157 -328.74012207 212.76786865 -328.6171875 212.00390625 C-328.50125244 211.3032605 -328.38531738 210.60261475 -328.26586914 209.8807373 C-327.83943396 207.29622654 -327.4201209 204.71054468 -327 202.125 C-325.576875 193.4315625 -325.576875 193.4315625 -324.125 184.5625 C-346.235 184.5625 -368.345 184.5625 -391.125 184.5625 Z M-309.125 184.5625 C-313.94042166 205.94235349 -313.94042166 205.94235349 -316.125 227.5625 C-284.115 227.5625 -252.105 227.5625 -219.125 227.5625 C-222.32079103 205.88120676 -222.32079103 205.88120676 -227.125 184.5625 C-254.185 184.5625 -281.245 184.5625 -309.125 184.5625 Z M-211.125 184.5625 C-209.68000561 199.01244395 -206.72277683 213.27472745 -204.125 227.5625 C-176.735 227.5625 -149.345 227.5625 -121.125 227.5625 C-122.84957333 222.38209866 -122.84957333 222.38209866 -125.00439453 217.48486328 C-125.55220581 216.35914917 -125.55220581 216.35914917 -126.11108398 215.21069336 C-126.48950439 214.44249268 -126.8679248 213.67429199 -127.2578125 212.8828125 C-127.609646 212.16150146 -127.96147949 211.44019043 -128.32397461 210.69702148 C-129.6285648 208.02518255 -130.93966025 205.35652391 -132.25 202.6875 C-135.17875 196.70625 -138.1075 190.725 -141.125 184.5625 C-164.225 184.5625 -187.325 184.5625 -211.125 184.5625 Z " fill="#1AE01A" transform="translate(448.125,143.4375)"/>
<path d="M0 0 C9.59257407 7.60689664 17.18703864 18.24176786 19.31640625 30.5078125 C20.9385085 46.90625246 17.84495293 61.33552059 7.31640625 74.22265625 C-1.06680251 83.30897284 -13.44506969 89.49542963 -25.81640625 90.23828125 C-41.5681738 90.4355894 -54.50716338 86.58055154 -66.109375 75.54296875 C-75.88092065 64.99955311 -80.09466824 52.56742074 -79.90429688 38.34667969 C-79.32490278 24.69393577 -73.55352415 12.01645613 -63.5 2.66015625 C-44.69158619 -12.13058127 -19.9430607 -13.6727534 0 0 Z M-57.43359375 19.03515625 C-64.06691859 27.47473856 -65.43905044 36.47786104 -64.43359375 47.03515625 C-62.12241358 56.38493058 -56.5736964 64.2302084 -48.69140625 69.71484375 C-40.10570817 74.73554608 -31.32660767 76.71361928 -21.578125 74.33984375 C-11.95489869 71.18077084 -4.58043656 65.836562 0.56640625 57.03515625 C5.0928692 47.78542762 6.17307435 39.19202336 2.94140625 29.34765625 C-1.12087142 19.32069622 -7.81511111 12.57915176 -17.50390625 7.83203125 C-32.46219845 1.65492273 -47.15207763 7.78858807 -57.43359375 19.03515625 Z " fill="#1AE01A" transform="translate(354.43359375,62.96484375)"/>
<path d="M0 0 C3.15378834 2.07486075 3.86353403 3.4751309 4.8125 7.125 C3.52633616 13.25901217 -0.63976595 16.68708632 -5 21 C-5.73863281 21.73992187 -6.47726562 22.47984375 -7.23828125 23.2421875 C-8.57940305 24.58078365 -9.92544424 25.91447705 -11.27734375 27.2421875 C-13.35751708 29.36481335 -15.16221055 31.66742108 -17 34 C-20.12860495 35.56430248 -22.55602925 35.35627284 -26 35 C-28.5 32.9375 -28.5 32.9375 -30 30 C-30.20011656 26.39790188 -29.91792001 24.13390119 -27.60546875 21.27734375 C-26.41546843 20.09808835 -25.19863941 18.9454935 -23.9609375 17.81640625 C-21.97944072 15.98095604 -20.25035831 14.05528498 -18.5 12 C-7.49057958 -0.74905796 -7.49057958 -0.74905796 0 0 Z " fill="#1AE01A" transform="translate(286,140)"/>
<path d="M0 0 C4.76991055 1.66946869 7.08446384 4.25192372 10.484375 7.90625 C12.53915186 10.08856473 14.64487412 12.0123943 16.9375 13.9375 C24.71055864 20.71161134 24.71055864 20.71161134 26.75 24.3125 C26.81095524 27.96981428 26.45402816 30.10000707 24.625 33.25 C21.39048218 35.08289343 19.41028566 34.91254683 15.75 34.3125 C12.72690389 32.33609705 10.28084274 29.87614996 7.75 27.3125 C6.99203125 26.55582031 6.2340625 25.79914062 5.453125 25.01953125 C3.9192423 23.48307492 2.39045242 21.94151483 0.8671875 20.39453125 C-0.94430663 18.61311728 -2.77865563 16.97376971 -4.75 15.375 C-7.9394897 12.743671 -8.16700211 12.05948105 -8.625 7.9375 C-8.25 4.3125 -8.25 4.3125 -6.1875 1.8125 C-3.25 0.3125 -3.25 0.3125 0 0 Z " fill="#1AE01A" transform="translate(261.25,34.6875)"/>
<path d="M0 0 C3.96600697 1.03461051 5.52482791 2.4027852 7.875 5.75 C7.77229596 11.56989561 5.88701416 14.60561994 1.875 18.5625 C0.87562339 19.59569812 -0.12306329 20.62956399 -1.12109375 21.6640625 C-1.62366699 22.17614258 -2.12624023 22.68822266 -2.64404297 23.21582031 C-4.90206387 25.55499 -7.03848593 27.99845639 -9.1875 30.4375 C-13.73698428 35.59577603 -13.73698428 35.59577603 -18.5 36.125 C-22.125 35.75 -22.125 35.75 -24.625 33.6875 C-26.125 30.75 -26.125 30.75 -26.375 27.4375 C-24.85613518 22.95684877 -22.73216748 20.95022327 -19.30859375 17.7890625 C-17.23399507 15.85178073 -15.40108384 13.84710641 -13.5625 11.6875 C-12.41795594 10.37387556 -11.2721244 9.06137176 -10.125 7.75 C-9.5371875 7.07066406 -8.949375 6.39132813 -8.34375 5.69140625 C-4.00341237 0.96081897 -4.00341237 0.96081897 0 0 Z " fill="#1AE01A" transform="translate(384.125,30.25)"/>
<path d="M0 0 C2.18554688 1.55078125 2.18554688 1.55078125 4 4 C4.3982295 6.70194958 4.56200004 8.98914572 4.53125 11.6875 C4.5350769 12.42701904 4.53890381 13.16653809 4.54284668 13.9284668 C4.54556271 15.4884579 4.53822292 17.04849478 4.52148438 18.60839844 C4.50006673 20.99257186 4.52129263 23.37373249 4.546875 25.7578125 C4.54423166 27.2760483 4.53910656 28.79428223 4.53125 30.3125 C4.53934692 31.02301514 4.54744385 31.73353027 4.55578613 32.46557617 C4.49201807 35.84141257 4.21766407 37.70618866 2.18554688 40.44921875 C-1.01568092 42.72068869 -3.17358544 42.54663065 -7 42 C-9.18554688 40.44921875 -9.18554688 40.44921875 -11 38 C-11.3982295 35.29805042 -11.56200004 33.01085428 -11.53125 30.3125 C-11.5350769 29.57298096 -11.53890381 28.83346191 -11.54284668 28.0715332 C-11.54556271 26.5115421 -11.53822292 24.95150522 -11.52148438 23.39160156 C-11.50006673 21.00742814 -11.52129263 18.62626751 -11.546875 16.2421875 C-11.54423166 14.7239517 -11.53910656 13.20571777 -11.53125 11.6875 C-11.53934692 10.97698486 -11.54744385 10.26646973 -11.55578613 9.53442383 C-11.49201807 6.15858743 -11.21766407 4.29381134 -9.18554688 1.55078125 C-5.98431908 -0.72068869 -3.82641456 -0.54663065 0 0 Z " fill="#1AE01A" transform="translate(328,157)"/>
<path d="M0 0 C1.10927856 -0.00574036 1.10927856 -0.00574036 2.2409668 -0.01159668 C3.8009579 -0.01431271 5.36099478 -0.00697292 6.92089844 0.00976562 C9.30507186 0.03118327 11.68623249 0.00995737 14.0703125 -0.015625 C15.5885483 -0.01298166 17.10678223 -0.00785656 18.625 0 C19.33551514 -0.00809692 20.04603027 -0.01619385 20.77807617 -0.02453613 C24.15391257 0.03923193 26.01868866 0.31358593 28.76171875 2.34570312 C31.03318869 5.54693092 30.85913065 7.70483544 30.3125 11.53125 C28.76171875 13.71679688 28.76171875 13.71679688 26.3125 15.53125 C23.61055042 15.9294795 21.32335428 16.09325004 18.625 16.0625 C17.88548096 16.0663269 17.14596191 16.07015381 16.3840332 16.07409668 C14.8240421 16.07681271 13.26400522 16.06947292 11.70410156 16.05273438 C9.31992814 16.03131673 6.93876751 16.05254263 4.5546875 16.078125 C3.0364517 16.07548166 1.51821777 16.07035656 0 16.0625 C-1.06577271 16.07464539 -1.06577271 16.07464539 -2.15307617 16.08703613 C-5.52891257 16.02326807 -7.39368866 15.74891407 -10.13671875 13.71679688 C-12.40818869 10.51556908 -12.23413065 8.35766456 -11.6875 4.53125 C-8.50914254 0.05192759 -5.13993817 -0.05857396 0 0 Z " fill="#1AE01A" transform="translate(389.6875,95.46875)"/>
<path d="M0 0 C1.10927856 -0.00574036 1.10927856 -0.00574036 2.2409668 -0.01159668 C3.8009579 -0.01431271 5.36099478 -0.00697292 6.92089844 0.00976562 C9.30507186 0.03118327 11.68623249 0.00995737 14.0703125 -0.015625 C15.5885483 -0.01298166 17.10678223 -0.00785656 18.625 0 C19.33551514 -0.00809692 20.04603027 -0.01619385 20.77807617 -0.02453613 C24.1528995 0.03921279 26.01704296 0.3120171 28.7578125 2.34570312 C31.05280866 5.57196029 30.93204596 7.67629734 30.3125 11.53125 C27.51772152 14.49311302 25.83590127 15.45458236 21.77905273 16.04882812 C20.43498024 16.07500518 19.09032681 16.07842461 17.74609375 16.0625 C17.0301857 16.0663269 16.31427765 16.07015381 15.57667542 16.07409668 C14.06973863 16.07680816 12.56275416 16.06950039 11.0559082 16.05273438 C8.75300134 16.03127796 6.45320219 16.05257369 4.15039062 16.078125 C2.68228481 16.0754822 1.21418092 16.0703582 -0.25390625 16.0625 C-0.93941055 16.07059692 -1.62491486 16.07869385 -2.33119202 16.08703613 C-5.65090092 16.0220654 -7.43077884 15.72267687 -10.12084961 13.71679688 C-12.41343711 10.51853549 -12.23536461 8.3663023 -11.6875 4.53125 C-8.50914254 0.05192759 -5.13993817 -0.05857396 0 0 Z " fill="#1AE01A" transform="translate(240.6875,95.46875)"/>
<path d="M0 0 C2.18554688 1.55078125 2.18554688 1.55078125 4 4 C4.3982295 6.70194958 4.56200004 8.98914572 4.53125 11.6875 C4.5350769 12.42701904 4.53890381 13.16653809 4.54284668 13.9284668 C4.54556271 15.4884579 4.53822292 17.04849478 4.52148438 18.60839844 C4.50006673 20.99257186 4.52129263 23.37373249 4.546875 25.7578125 C4.54423166 27.2760483 4.53910656 28.79428223 4.53125 30.3125 C4.53934692 31.02301514 4.54744385 31.73353027 4.55578613 32.46557617 C4.49201807 35.84141257 4.21766407 37.70618866 2.18554688 40.44921875 C-1.01568092 42.72068869 -3.17358544 42.54663065 -7 42 C-9.18554688 40.44921875 -9.18554688 40.44921875 -11 38 C-11.3982295 35.29805042 -11.56200004 33.01085428 -11.53125 30.3125 C-11.5350769 29.57298096 -11.53890381 28.83346191 -11.54284668 28.0715332 C-11.54556271 26.5115421 -11.53822292 24.95150522 -11.52148438 23.39160156 C-11.50006673 21.00742814 -11.52129263 18.62626751 -11.546875 16.2421875 C-11.54423166 14.7239517 -11.53910656 13.20571777 -11.53125 11.6875 C-11.53934692 10.97698486 -11.54744385 10.26646973 -11.55578613 9.53442383 C-11.49201807 6.15858743 -11.21766407 4.29381134 -9.18554688 1.55078125 C-5.98431908 -0.72068869 -3.82641456 -0.54663065 0 0 Z " fill="#1AE01A" transform="translate(328,8)"/>
<path d="M0 0 C2.90600586 1.984375 2.90600586 1.984375 5.71484375 4.75 C6.21544815 5.24153564 6.71605255 5.73307129 7.23182678 6.23950195 C8.28148323 7.28004686 9.32235523 8.3295201 10.35473633 9.38720703 C11.93206692 10.99446384 13.5453146 12.55772131 15.16601562 14.12109375 C16.18470968 15.14081931 17.20106918 16.16288353 18.21484375 17.1875 C19.13386475 18.10917969 20.05288574 19.03085938 20.99975586 19.98046875 C23.69677785 24.05184285 23.46212193 26.19218449 23 31 C22 33 22 33 20 34 C13.01370631 34.67151486 13.01370631 34.67151486 8.98046875 31.99975586 C8.05878906 31.08073486 7.13710938 30.16171387 6.1875 29.21484375 C5.68831055 28.72093643 5.18912109 28.22702911 4.67480469 27.71815491 C3.63002336 26.67443043 2.59510952 25.62074366 1.56982422 24.55786133 C0.00185375 22.93941343 -1.60232913 21.36494981 -3.21484375 19.79101562 C-4.22897159 18.76800756 -5.24077494 17.74268885 -6.25 16.71484375 C-7.16265625 15.78792725 -8.0753125 14.86101074 -9.015625 13.90600586 C-11.46987992 10.31188722 -11.51121464 8.26971781 -11 4 C-8.06925946 -0.57195525 -5.16515766 -0.55004249 0 0 Z " fill="#1AE01A" transform="translate(371,139)"/>
</svg>
