<?xml version="1.0" encoding="UTF-8"?>
<svg version="1.1" xmlns="http://www.w3.org/2000/svg" width="512" height="512">
<path d="M0 0 C0.8751828 0.00182281 1.7503656 0.00364563 2.65206909 0.00552368 C16.43279239 0.05370419 29.8073812 0.74461008 43.375 3.3125 C44.26719238 3.4681543 45.15938477 3.62380859 46.07861328 3.78417969 C90.86032416 11.69658919 133.41255417 32.98408995 166.375 64.3125 C167.78511447 65.54917793 169.201336 66.77894473 170.625 68 C177.10488547 73.66497086 182.67673673 79.73258169 188.06640625 86.44921875 C189.52909348 88.2633469 191.0137174 90.06018189 192.52734375 91.83203125 C221.91467865 126.42724828 239.8557011 171.49478023 245.375 216.3125 C245.4692627 217.00174561 245.56352539 217.69099121 245.66064453 218.40112305 C246.74847255 227.38883986 246.61886344 236.46053642 246.625 245.5 C246.62567474 246.39233337 246.62634949 247.28466675 246.62704468 248.20404053 C246.61036511 262.10420232 246.06980255 275.63695841 243.375 289.3125 C243.10163818 290.705896 243.10163818 290.705896 242.82275391 292.12744141 C233.77473397 336.89888844 214.00348075 379.03433231 182.375 412.3125 C181.13832207 413.72261447 179.90855527 415.138836 178.6875 416.5625 C173.02252914 423.04238547 166.95491831 428.61423673 160.23828125 434.00390625 C158.4241531 435.46659348 156.62731811 436.9512174 154.85546875 438.46484375 C112.49107238 474.45180411 56.26492873 492.52265733 1.1875 492.5625 C0.34662842 492.56317474 -0.49424316 492.56384949 -1.3605957 492.56454468 C-15.30251186 492.54683761 -28.88463616 491.84620196 -42.625 489.3125 C-43.51396973 489.15152832 -44.40293945 488.99055664 -45.31884766 488.82470703 C-90.06067901 480.4037621 -132.57276956 459.7262438 -165.625 428.3125 C-167.03511447 427.07582207 -168.451336 425.84605527 -169.875 424.625 C-176.35488547 418.96002914 -181.92673673 412.89241831 -187.31640625 406.17578125 C-188.77909348 404.3616531 -190.2637174 402.56481811 -191.77734375 400.79296875 C-227.82206365 358.36057696 -246.17769203 301.92640324 -245.9375 246.6875 C-245.93567719 245.81264954 -245.93385437 244.93779907 -245.93197632 244.03643799 C-245.88381454 230.26719063 -245.25194228 216.86199176 -242.625 203.3125 C-242.46402832 202.44206055 -242.30305664 201.57162109 -242.13720703 200.67480469 C-233.95389876 157.48643232 -214.55845028 116.53279598 -185.04101562 83.87988281 C-183.6448066 82.33442386 -182.26680167 80.77423459 -180.890625 79.2109375 C-135.56687675 28.19921434 -67.84116726 -0.29495808 0 0 Z M-122.625 70.3125 C-123.676875 71.08078125 -124.72875 71.8490625 -125.8125 72.640625 C-135.43983973 79.80423063 -144.15459412 87.81503212 -152.625 96.3125 C-153.38039062 97.03308594 -154.13578125 97.75367187 -154.9140625 98.49609375 C-193.29961901 135.53366249 -213.18158774 190.13501795 -214.55859375 242.73046875 C-214.94921365 266.78854299 -211.23486703 290.48289892 -203.625 313.3125 C-203.34172852 314.16231445 -203.05845703 315.01212891 -202.76660156 315.88769531 C-193.11647044 344.15564848 -177.86691928 369.04746194 -157.703125 390.98828125 C-156.27876139 392.5813195 -154.90787219 394.22333474 -153.5859375 395.90234375 C-151.8318457 398.05826933 -150.11774156 399.77819009 -148 401.5625 C-145.78093566 403.44890753 -143.59728836 405.33869734 -141.48046875 407.33984375 C-101.64453676 444.86841341 -44.50459081 462.78451441 9.50024414 461.22729492 C29.24541467 460.32949498 48.62753027 456.4751887 67.375 450.3125 C68.17599121 450.05098145 68.97698242 449.78946289 69.80224609 449.52001953 C100.64275037 439.26079291 127.98736351 421.70013649 150.92578125 398.76171875 C152.45851254 397.22898746 154.01170361 395.71615084 155.59375 394.234375 C193.76473843 357.89350245 213.88035927 302.67947312 215.30859375 250.73828125 C215.71929533 226.37719282 212.0824037 202.43471109 204.375 179.3125 C204.09172852 178.46268555 203.80845703 177.61287109 203.51660156 176.73730469 C197.08361068 157.89326178 188.23982604 139.36628829 176.375 123.3125 C175.60800781 122.26320313 174.84101563 121.21390625 174.05078125 120.1328125 C166.8885931 110.50085532 158.87438547 101.78481736 150.375 93.3125 C149.65441406 92.55710938 148.93382812 91.80171875 148.19140625 91.0234375 C111.15383751 52.63788099 56.55248205 32.75591226 3.95703125 31.37890625 C-40.55632709 30.65616329 -86.51839575 43.84800029 -122.625 70.3125 Z " fill="#E80808" transform="translate(255.625,9.6875)"/>
<path d="M0 0 C0.84175781 0.73992187 1.68351563 1.47984375 2.55078125 2.2421875 C3.40285156 2.96148437 4.25492188 3.68078125 5.1328125 4.421875 C11.37342538 9.80931654 16.5452617 15.70344575 21.55078125 22.2421875 C22.27652344 23.18707031 23.00226563 24.13195312 23.75 25.10546875 C34.41290104 39.3555195 34.41290104 39.3555195 34 49.62109375 C33.28923241 53.7682681 31.60927384 56.40215867 28.55078125 59.2421875 C24.43956567 62.13872575 20.87485348 62.60340097 15.9921875 62.73828125 C10.77373053 61.67789079 6.97620813 59.25136097 3.99609375 54.921875 C3.20979609 53.66157869 2.43672868 52.39294994 1.67578125 51.1171875 C-2.47593815 44.53978907 -7.01097575 38.82901638 -12.44921875 33.2421875 C-13.10535156 32.53578125 -13.76148438 31.829375 -14.4375 31.1015625 C-31.34521488 13.34676772 -57.09164747 2.6803376 -81.453125 1.90625 C-83.97251187 1.87629867 -86.4921561 1.86382488 -89.01171875 1.8671875 C-89.66985565 1.86739899 -90.32799255 1.86761047 -91.006073 1.86782837 C-116.98660682 1.95092638 -142.14123114 10.51036214 -161.44921875 28.2421875 C-161.93487305 28.68014648 -162.42052734 29.11810547 -162.92089844 29.56933594 C-169.72518998 35.76180935 -175.20862122 42.25051806 -180.06469727 50.07861328 C-183.43266275 55.48801239 -186.9891326 60.58960732 -193.44921875 62.2421875 C-199.42943392 62.9284417 -202.82473017 62.13769905 -207.75 58.64453125 C-210.95520798 55.99931363 -212.16969322 53.99426506 -212.828125 49.8671875 C-213.77886485 35.62631823 -202.49425701 24.2505054 -193.74609375 14.06640625 C-146.04608971 -40.21939717 -55.12282843 -47.20147383 0 0 Z " fill="#E80808" transform="translate(345.44921875,301.7578125)"/>
<path d="M0 0 C5.57776535 5.17512412 9.63431663 11.92428736 10.203125 19.6171875 C10.39125242 29.35030597 9.23517029 36.39285536 3.83984375 44.64453125 C-3.36534649 51.53645234 -11.03355812 54.9105314 -20.91015625 55.70703125 C-31.29981715 55.36070922 -38.55311265 50.77471023 -45.78515625 43.70703125 C-50.74013576 37.25715962 -52.77612312 29.18074206 -52.41015625 21.15234375 C-51.1321077 11.7533617 -47.16248995 4.63745128 -40.03515625 -1.60546875 C-27.450408 -10.19041329 -11.86072319 -9.35653979 0 0 Z " fill="#E80808" transform="translate(200.03515625,170.60546875)"/>
<path d="M0 0 C5.70624407 5.27343514 9.22452329 12.55993232 9.98828125 20.28515625 C10.2524345 29.72515936 8.1637484 37.36659102 2.125 44.75 C-4.26876364 51.41863572 -11.82164015 54.5069756 -20.9375 55.125 C-29.66463723 54.96095607 -37.72891107 51.63550303 -44.25 45.875 C-51.93184448 36.69626505 -53.2320681 27.63495476 -52.25 15.875 C-50.23790912 7.56157063 -44.3460309 0.74918838 -37.375 -4 C-25.01945719 -11.0196558 -10.86335536 -8.60946294 0 0 Z " fill="#E80808" transform="translate(354.25,171.125)"/>
</svg>
