<?xml version="1.0" encoding="UTF-8"?>
<svg version="1.1" xmlns="http://www.w3.org/2000/svg" width="512" height="512">
<path d="M0 0 C168.96 0 337.92 0 512 0 C512 168.96 512 337.92 512 512 C343.04 512 174.08 512 0 512 C0 343.04 0 174.08 0 0 Z " fill="#000000" transform="translate(0,0)"/>
<path d="M0 0 C2.64 0 5.28 0 8 0 C8 168.96 8 337.92 8 512 C5.36 512 2.72 512 0 512 C1.26953125 510.50260417 2.5390625 509.00520833 3.80859375 507.5078125 C6.62273999 503.94630283 6.14115427 500.35906044 6.13142776 496.02165508 C6.1334804 495.18341203 6.13553303 494.34516897 6.13764787 493.48152462 C6.14335134 490.64202149 6.14185652 487.80256636 6.14044189 484.96305847 C6.14302361 482.91899427 6.14603623 480.87493058 6.1494453 478.83086759 C6.15754123 473.18985623 6.1593063 467.54885757 6.16004276 461.90784109 C6.16188882 455.83341908 6.16943385 449.75900374 6.17617798 443.68458557 C6.19048974 429.69784824 6.19629016 415.71111401 6.20086992 401.7243712 C6.20320423 394.81589747 6.20680668 387.90742457 6.2105653 380.99895149 C6.22340193 357.36053187 6.23412123 333.72211272 6.2375679 310.08368969 C6.23778954 308.59923804 6.23801132 307.1147864 6.23823325 305.63033475 C6.2384539 304.14225323 6.23867438 302.65417171 6.2388947 301.16609019 C6.23933726 298.18063239 6.23978437 295.19517459 6.24023438 292.2097168 C6.24034377 291.46949439 6.24045316 290.72927198 6.24056586 289.96661859 C6.24419752 265.9580222 6.2601211 241.94945598 6.28342474 217.94087114 C6.30800536 192.57039495 6.32173991 167.19993602 6.32293582 141.82944757 C6.32310728 139.04589323 6.32332271 136.2623389 6.32357025 133.47878456 C6.32362602 132.79337204 6.32368179 132.10795952 6.32373925 131.40177692 C6.32489122 120.35830259 6.33592557 109.31485917 6.35045731 98.27139529 C6.36480392 87.17701073 6.36781661 76.08265754 6.36001733 64.98826405 C6.35609835 58.97457546 6.35710104 52.96099112 6.37107468 46.94731522 C6.38373899 41.44699842 6.38268224 35.94686501 6.37048396 30.44654874 C6.36851394 28.4519146 6.37166501 26.45726781 6.38032833 24.46265151 C6.39132721 21.76016477 6.38399981 19.05833597 6.3719368 16.35586834 C6.37953199 15.57381976 6.38712718 14.79177119 6.39495254 13.98602417 C6.34083892 8.40540741 5.07414992 5.22779066 1.3125 1.1875 C0.879375 0.795625 0.44625 0.40375 0 0 Z " fill="#FFFFFF" transform="translate(504,0)"/>
<path d="M0 0 C2.64 0 5.28 0 8 0 C7.195625 0.763125 6.39125 1.52625 5.5625 2.3125 C1.47488947 6.59950616 1.85519347 10.4894629 1.86577892 16.09859943 C1.86342669 16.93769674 1.86107446 17.77679404 1.85865095 18.64131853 C1.85194752 21.47771413 1.85241958 24.31406405 1.85282898 27.15046692 C1.8495312 29.19468162 1.84580582 31.23889567 1.8416875 33.28310889 C1.83164979 38.91992875 1.82794787 44.55673796 1.82529819 50.19356549 C1.82140045 56.26526349 1.81182184 62.33695302 1.80308533 68.40864563 C1.78424223 82.38658668 1.7740633 96.36452693 1.76562465 110.34247701 C1.76141957 117.24753037 1.75619743 124.15258285 1.75094012 131.05763548 C1.7330503 154.68729816 1.71805313 178.31696108 1.71061993 201.94662952 C1.71014517 203.43028654 1.70966928 204.91394356 1.70919226 206.39760057 C1.70895589 207.13337052 1.70871951 207.86914047 1.70847597 208.62720648 C1.70727476 212.35506799 1.70605931 216.08292951 1.70483398 219.81079102 C1.70459383 220.55059978 1.70435368 221.29040854 1.70410626 222.05263575 C1.69621054 246.04756906 1.6727729 270.04245298 1.64027804 294.03736471 C1.60599722 319.39728968 1.58627046 344.75718575 1.58297569 370.11713427 C1.58255813 372.89984843 1.58207857 375.68256258 1.58155251 378.46527672 C1.58142931 379.15047532 1.58130612 379.83567392 1.5811792 380.54163611 C1.57884512 391.57836127 1.56317375 402.61502915 1.54271066 413.65173389 C1.52247699 424.7404169 1.51729774 435.82904583 1.52648129 446.91774777 C1.53104097 452.92754826 1.52904308 458.93716237 1.50971985 464.94693756 C1.49219453 470.44484521 1.49299901 475.94242906 1.50861714 481.44033965 C1.51100944 483.43294502 1.50658648 485.4255722 1.49478849 487.41814408 C1.47977483 490.12045272 1.48926873 492.82159832 1.50501537 495.52387714 C1.49479317 496.30301286 1.48457096 497.08214857 1.47403899 497.88489446 C1.55376357 504.1253917 3.6684615 507.6684615 8 512 C5.36 512 2.72 512 0 512 C0 343.04 0 174.08 0 0 Z " fill="#FFFFFF" transform="translate(0,0)"/>
</svg>
