<?xml version="1.0" encoding="UTF-8"?>
<svg version="1.1" xmlns="http://www.w3.org/2000/svg" width="512" height="512">
<path d="M0 0 C1.01790619 0.00215515 2.03581238 0.0043103 3.08456421 0.00653076 C17.69363523 0.05620146 32.02575853 0.30709809 46.375 3.3125 C47.34985352 3.51117676 48.32470703 3.70985352 49.32910156 3.91455078 C88.38660539 12.08468046 124.82400319 27.71035417 156.375 52.3125 C157.25929688 52.98539063 158.14359375 53.65828125 159.0546875 54.3515625 C174.64162389 66.45260257 189.26666068 80.75087979 201.375 96.3125 C202.15101563 97.2715625 202.92703125 98.230625 203.7265625 99.21875 C238.25804162 142.62975232 256.81395322 197.76040062 256.69067383 253.03979492 C256.6875221 255.97938487 256.71104926 258.9179558 256.73632812 261.85742188 C256.78098737 275.23056192 255.57551542 288.12666711 253.375 301.3125 C253.09281616 303.01805054 253.09281616 303.01805054 252.80493164 304.75805664 C245.77946967 343.86954746 228.79665906 381.05202178 204.375 412.3125 C203.61574219 413.28445313 202.85648437 414.25640625 202.07421875 415.2578125 C189.73986402 430.63741644 175.93895499 445.19015196 160.375 457.3125 C159.43914062 458.07691406 158.50328125 458.84132813 157.5390625 459.62890625 C125.58628299 485.2157721 86.41988322 501.72551276 46.375 509.3125 C45.56562988 509.47621094 44.75625977 509.63992188 43.92236328 509.80859375 C13.88110013 515.67977137 -20.7615176 514.58512909 -50.625 508.3125 C-52.14794678 507.99901611 -52.14794678 507.99901611 -53.70166016 507.67919922 C-90.84546555 499.78695344 -125.70945445 483.68345578 -155.625 460.3125 C-156.59695312 459.55324219 -157.56890625 458.79398437 -158.5703125 458.01171875 C-173.94991644 445.67736402 -188.50265196 431.87645499 -200.625 416.3125 C-201.77162109 414.90871094 -201.77162109 414.90871094 -202.94140625 413.4765625 C-228.5282721 381.52378299 -245.03801276 342.35738322 -252.625 302.3125 C-252.78871094 301.50312988 -252.95242187 300.69375977 -253.12109375 299.85986328 C-258.59069558 271.87335724 -258.46977511 238.21828161 -252.625 210.3125 C-252.42632324 209.33764648 -252.22764648 208.36279297 -252.02294922 207.35839844 C-241.93598313 159.13741149 -219.89911449 114.53770064 -185.40722656 79.14160156 C-183.63301167 77.32072238 -181.87518486 75.48496071 -180.1171875 73.6484375 C-173.01832106 66.31138736 -165.60682072 59.74213624 -157.41796875 53.64794922 C-155.58092428 52.27967127 -153.75911069 50.89264471 -151.9375 49.50390625 C-143.51077324 43.13790222 -134.81596417 37.50688619 -125.625 32.3125 C-124.99464844 31.94946777 -124.36429688 31.58643555 -123.71484375 31.21240234 C-85.96656579 9.60246645 -43.19754839 -0.16448837 0 0 Z M-170.625 105.3125 C-180.91206938 116.92099781 -189.9104699 129.87105738 -197.625 143.3125 C-198.19686035 144.3025 -198.19686035 144.3025 -198.78027344 145.3125 C-214.14549302 172.25425489 -222.9347245 201.61411257 -226.625 232.3125 C-226.75648438 233.323125 -226.88796875 234.33375 -227.0234375 235.375 C-233.12141346 292.06969546 -214.7917102 350.53274997 -180.24609375 395.40234375 C-178.08469263 398.08248114 -175.87803273 400.70908606 -173.625 403.3125 C-172.94308594 404.10527344 -172.26117188 404.89804687 -171.55859375 405.71484375 C-160.89965952 417.82637676 -149.57221137 428.69423546 -136.625 438.3125 C-135.67882812 439.03050781 -134.73265625 439.74851562 -133.7578125 440.48828125 C-86.44632879 475.80047561 -26.24402296 490.09803641 31.984375 482.28515625 C90.69005228 473.69949534 145.7851277 442.37722839 181.60107422 394.6796875 C187.65969042 386.51767629 193.3123117 378.13349537 198.375 369.3125 C198.75624023 368.6525 199.13748047 367.9925 199.53027344 367.3125 C214.89549302 340.37074511 223.6847245 311.01088743 227.375 280.3125 C227.57222656 278.7965625 227.57222656 278.7965625 227.7734375 277.25 C233.97240712 219.61633649 214.97629262 159.5443245 178.875 114.5625 C148.82868969 78.85915791 112.07458925 52.49374942 67.375 38.3125 C66.63991211 38.07547363 65.90482422 37.83844727 65.14746094 37.59423828 C-20.15283533 10.51999382 -110.91560125 41.52861209 -170.625 105.3125 Z " fill="#036C03" transform="translate(255.625,-0.3125)"/>
<path d="M0 0 C1.7265625 2.0546875 1.7265625 2.0546875 3.625 4.875 C23.76438232 33.52501382 54.510272 51.31010747 88.6796875 57.4765625 C122.63930505 62.83019633 158.15505183 54.18370879 186 34 C190.53495092 30.55064052 194.79488828 26.84142638 199 23 C199.80953125 22.27296875 200.6190625 21.5459375 201.453125 20.796875 C207.99643741 14.61962203 212.95638753 7.40221204 218 0 C221.95129034 0.56886281 224.54911511 1.7390894 227.86328125 3.94140625 C229.19262695 4.81635742 229.19262695 4.81635742 230.54882812 5.70898438 C231.46083984 6.32064453 232.37285156 6.93230469 233.3125 7.5625 C234.24384766 8.17802734 235.17519531 8.79355469 236.13476562 9.42773438 C238.42798356 10.94478624 240.71606762 12.46901934 243 14 C240.72264043 24.59577431 229.29682268 34.33385961 222 42 C221.40703125 42.64582031 220.8140625 43.29164063 220.203125 43.95703125 C194.557892 71.06226513 154.17664548 87.19337235 117.37109375 88.27734375 C70.7309165 89.22509947 30.51711613 74.10573946 -3.91015625 42.3125 C-11.74895194 34.72727998 -20.06870083 25.82927876 -25 16 C-23.88003173 12.6400952 -23.45791755 12.37192759 -20.578125 10.625 C-19.53398438 9.98304688 -19.53398438 9.98304688 -18.46875 9.328125 C-17.7365625 8.88984375 -17.004375 8.4515625 -16.25 8 C-15.53328125 7.56171875 -14.8165625 7.1234375 -14.078125 6.671875 C-12.68388761 5.82098012 -11.28619144 4.97572155 -9.88476562 4.13671875 C-8.29783842 3.17962897 -6.73214778 2.18745383 -5.171875 1.1875 C-3 0 -3 0 0 0 Z " fill="#036C03" transform="translate(147,310)"/>
<path d="M0 0 C5.76461816 4.35438969 9.03057656 10.3124342 10.66796875 17.30078125 C11.86686997 26.16162587 10.11255127 33.39615384 4.91015625 40.671875 C-0.18588029 46.42790778 -6.98810636 50.29560173 -14.6484375 51 C-23.88790504 51.37331182 -30.0724054 49.27015613 -37.2421875 43.5 C-43.42267525 37.76273448 -45.61987196 31.31977926 -46.1796875 23.0625 C-45.95562228 13.87582587 -42.85252952 7.45660632 -36.44140625 0.890625 C-25.70701906 -8.25781074 -11.36496154 -7.36191841 0 0 Z " fill="#036C03" transform="translate(189.9296875,176.25)"/>
<path d="M0 0 C7.29871679 4.35610033 11.55616154 10.78225721 13.96875 18.82421875 C14.93840177 28.52073642 13.44231213 36.54476609 7.21875 44.32421875 C1.10302892 50.6895611 -4.83484635 53.41157341 -13.65625 53.76171875 C-21.91709036 53.52212313 -29.17487216 50.84648708 -35.24609375 45.1484375 C-40.98590631 38.32784598 -43.26032513 30.63204125 -42.59375 21.85546875 C-41.35249778 13.47701623 -37.40507926 7.12741124 -30.78125 1.88671875 C-21.90693826 -4.60262171 -9.74239494 -4.50743922 0 0 Z " fill="#036C03" transform="translate(357.78125,173.67578125)"/>
</svg>
