<?xml version="1.0" standalone="no"?>
<!DOCTYPE svg PUBLIC "-//W3C//DTD SVG 20010904//EN"
 "http://www.w3.org/TR/2001/REC-SVG-20010904/DTD/svg10.dtd">
<svg version="1.0" xmlns="http://www.w3.org/2000/svg"
 width="920.000000pt" height="512.000000pt" viewBox="0 0 920.000000 512.000000"
 preserveAspectRatio="xMidYMid meet">

<g transform="translate(0.000000,512.000000) scale(0.100000,-0.100000)"
fill="#000000" stroke="none">
<path d="M3361 4056 c-201 -39 -404 -144 -560 -291 l-67 -64 -210 -3 c-202 -3
-211 -4 -266 -30 -111 -52 -186 -146 -207 -262 -15 -79 -15 -1711 -1 -1787 22
-113 96 -210 200 -258 53 -25 65 -26 275 -31 l220 -5 98 -67 c251 -171 386
-202 902 -202 345 -1 439 8 765 71 101 19 169 26 270 27 129 1 138 2 200 32
113 54 181 128 219 242 22 65 28 173 12 229 l-9 31 61 11 c162 29 292 155 338
331 16 62 4 167 -26 235 -13 30 -24 59 -23 63 0 4 18 12 39 18 93 28 194 116
243 212 38 76 53 177 37 254 -7 34 -24 83 -37 110 l-24 48 472 0 c260 0 499 4
531 10 177 29 310 163 338 341 28 181 -65 354 -230 433 l-66 31 -1329 3 -1330
2 -78 79 c-94 95 -199 152 -323 176 -113 23 -341 28 -434 11z m387 -187 c91
-15 165 -55 229 -123 165 -176 684 -869 756 -1009 39 -76 42 -88 42 -160 0
-76 -1 -80 -32 -107 -35 -31 -88 -50 -143 -50 -69 0 -205 78 -448 259 -312
231 -574 488 -687 673 -29 46 -66 63 -110 48 -133 -44 -33 -218 318 -555 l152
-147 -34 -69 c-29 -59 -35 -84 -39 -154 -3 -60 0 -97 12 -131 9 -26 16 -49 16
-50 0 -1 -22 -10 -49 -19 -106 -35 -197 -115 -245 -215 -29 -60 -31 -73 -31
-170 0 -100 2 -109 34 -175 46 -92 113 -158 204 -199 40 -18 201 -77 359 -131
158 -54 286 -100 284 -102 -1 -2 -68 -13 -147 -24 -123 -18 -188 -21 -442 -20
-485 1 -588 23 -801 168 -166 112 -133 103 -370 103 -242 0 -275 8 -324 83
l-27 41 -3 853 c-2 581 1 867 8 894 11 41 57 101 94 122 14 8 98 14 253 17
l232 5 58 56 c182 175 369 275 557 298 71 9 248 3 324 -10z m3118 -291 c56
-36 81 -71 100 -135 13 -43 13 -63 5 -104 -17 -77 -50 -119 -126 -162 l-40
-22 -1065 -2 -1065 -3 -173 230 -173 230 1248 -2 1248 -3 41 -27z m-1296 -610
c58 -30 105 -93 120 -161 22 -99 -30 -212 -119 -256 -57 -29 -109 -32 -235
-16 -64 9 -126 15 -139 13 -12 -1 -69 13 -126 32 -75 25 -106 40 -111 55 -4
11 -18 53 -30 93 -13 39 -45 108 -72 153 -26 44 -48 84 -48 89 0 5 100 9 222
10 122 0 224 2 226 4 2 2 63 5 135 5 119 1 136 -1 177 -21z m-1516 -452 c177
-134 350 -235 448 -262 140 -37 295 7 426 122 l52 46 162 -61 c178 -68 218
-92 250 -154 61 -116 -10 -284 -134 -318 -54 -14 -108 -5 -224 37 -52 19 -104
34 -114 34 -29 0 -843 285 -890 311 -73 41 -124 149 -106 226 11 45 28 83 38
83 5 0 46 -29 92 -64z m332 -570 c275 -95 513 -180 530 -189 39 -20 90 -75
103 -110 29 -77 5 -183 -55 -243 -52 -52 -99 -68 -179 -61 -81 8 -1002 324
-1060 364 -75 52 -111 160 -85 253 21 78 129 160 210 160 20 0 249 -74 536
-174z"/>
</g>
</svg>
