<?xml version="1.0" encoding="UTF-8"?>
<svg version="1.1" xmlns="http://www.w3.org/2000/svg" width="512" height="512">
<path d="M0 0 C73.92127744 -1.44166314 156.41013443 8.88624753 212.25244141 61.84521484 C232.82473882 81.98019696 245.76919431 108.32319956 252.13330078 136.19140625 C252.34962158 137.1146167 252.56594238 138.03782715 252.78881836 138.98901367 C254.54963831 147.40350452 254.87217759 156.46159892 250.48876953 164.15234375 C245.41690566 170.99866138 239.4562628 175.30093378 231.07080078 177.06640625 C225.13641836 177.5082288 219.21700873 177.47186926 213.26904297 177.44735718 C211.4445251 177.45081603 209.62000932 177.45558213 207.79549789 177.46153891 C202.79365483 177.47404719 197.79198378 177.46787925 192.79014015 177.45858026 C187.39129097 177.45178944 181.99247125 177.46227117 176.59362793 177.47052002 C166.02194265 177.48385916 155.45032128 177.48097879 144.8786335 177.4722821 C136.28671876 177.46550669 127.69482192 177.46458822 119.10290527 177.46785355 C117.88001352 177.46831325 116.65712177 177.46877294 115.39717269 177.46924657 C112.91288407 177.47020575 110.42859546 177.47117839 107.94430685 177.47216435 C84.64966496 177.48071877 61.3550585 177.47088327 38.06042242 177.45476325 C18.07297295 177.44136003 -1.91440604 177.4436881 -21.90185547 177.45751953 C-45.11320227 177.4735744 -68.32451802 177.47989479 -91.5358696 177.47068274 C-94.0110143 177.46972709 -96.486159 177.46878398 -98.96130371 177.46785355 C-100.17911915 177.46739072 -101.39693459 177.46692789 -102.65165353 177.46645104 C-111.23314932 177.46386088 -119.81462542 177.46823273 -128.39611816 177.47529221 C-138.85422164 177.48370635 -149.31225757 177.48142882 -159.77035332 177.46544997 C-165.10612074 177.45756616 -170.44177553 177.45447763 -175.77754211 177.46439743 C-180.6628493 177.47334241 -185.54793954 177.46841457 -190.43322706 177.45246477 C-192.19959152 177.44911616 -193.96597435 177.45081285 -195.73232698 177.45809214 C-208.02498401 177.50486164 -217.59923657 177.159883 -226.97998047 168.25390625 C-232.31676982 162.26472381 -234.28793633 155.58920764 -233.86669922 147.62890625 C-231.32225674 119.76569046 -218.12765591 92.05911417 -199.92919922 71.06640625 C-199.23310547 70.24914062 -198.53701172 69.431875 -197.81982422 68.58984375 C-154.68683823 19.18574986 -85.1977658 5.2507175 -22.77539062 0.84375 C-15.18648576 0.37171886 -7.6003761 0.17230391 0 0 Z " fill="#202428" transform="translate(245.92919921875,304.93359375)"/>
<path d="M0 0 C9.3708923 8.03361906 17.70457382 17.13177193 24.25 27.625 C24.59772461 28.18106934 24.94544922 28.73713867 25.30371094 29.31005859 C34.32028536 43.93755422 40.44840893 59.64304799 43.25 76.625 C43.52457031 78.13707031 43.52457031 78.13707031 43.8046875 79.6796875 C47.65293673 113.77382541 40.08689842 148.54674201 18.62890625 175.7890625 C-3.97680936 202.7377481 -33.54324813 221.72889519 -69.11767578 225.4140625 C-105.05188482 228.29359845 -138.9237843 218.94768896 -166.75 195.625 C-168.25626953 194.39136719 -168.25626953 194.39136719 -169.79296875 193.1328125 C-193.54560729 172.69683293 -208.43093812 141.57055178 -211.5078125 110.58203125 C-213.64247507 75.70439932 -205.0876532 42.68098407 -182.29296875 15.71875 C-180.15523118 13.30803433 -177.97837465 10.95181691 -175.75 8.625 C-174.5434375 7.3565625 -174.5434375 7.3565625 -173.3125 6.0625 C-172.466875 5.258125 -171.62125 4.45375 -170.75 3.625 C-170.10289062 2.98304687 -169.45578125 2.34109375 -168.7890625 1.6796875 C-122.56188233 -42.39739127 -47.6026167 -39.58488576 0 0 Z " fill="#202428" transform="translate(339.75,60.375)"/>
</svg>
