<?xml version="1.0" encoding="UTF-8"?>
<svg version="1.1" xmlns="http://www.w3.org/2000/svg" width="512" height="512">
<path d="M0 0 C0.91541565 -0.00860046 1.8308313 -0.01720093 2.77398682 -0.02606201 C4.26947807 -0.03245193 4.26947807 -0.03245193 5.79518127 -0.03897095 C6.85087311 -0.04714844 7.90656494 -0.05532593 8.99424744 -0.06375122 C12.48721247 -0.08856234 15.98013709 -0.10510702 19.47315979 -0.11953735 C21.26212016 -0.12752287 21.26212016 -0.12752287 23.08722115 -0.13566971 C29.39530418 -0.16237785 35.70336755 -0.18176352 42.01148987 -0.19619751 C48.53310828 -0.21287372 55.05422416 -0.25768366 61.57565212 -0.30856895 C66.58647257 -0.3421753 71.59717247 -0.35376748 76.60809517 -0.35942459 C79.01270976 -0.36615125 81.41731604 -0.38140971 83.82182121 -0.4053154 C87.18315463 -0.43683743 90.54311464 -0.43702306 93.90455627 -0.42959595 C94.89952621 -0.44600128 95.89449615 -0.46240662 96.9196167 -0.47930908 C101.58950534 -0.43700361 103.72983417 -0.35559525 107.57144165 2.50286865 C109.41456604 5.15390015 109.41456604 5.15390015 109.41456604 8.15390015 C115.68456604 8.15390015 121.95456604 8.15390015 128.41456604 8.15390015 C128.74456604 6.50390015 129.07456604 4.85390015 129.41456604 3.15390015 C131.53289713 0.96783484 132.85840509 0.23905323 135.87064767 -0.22214735 C136.79738534 -0.2226344 137.72412301 -0.22312146 138.67894363 -0.22362328 C140.2875932 -0.23535814 140.2875932 -0.23535814 141.92874074 -0.24733007 C143.10615354 -0.2406379 144.28356635 -0.23394574 145.49665833 -0.22705078 C147.37379395 -0.23407074 147.37379395 -0.23407074 149.2888515 -0.24123251 C152.76473418 -0.25377748 156.24037033 -0.24755633 159.716254 -0.23827386 C163.46417346 -0.23149767 167.21204996 -0.24195767 170.95996094 -0.25021362 C178.30415808 -0.26357003 185.64826337 -0.2606643 192.99246415 -0.2519757 C198.96246476 -0.24520499 204.93243959 -0.24427979 210.90244293 -0.24754715 C212.17621917 -0.2482367 212.17621917 -0.2482367 213.47572826 -0.24894018 C215.20079528 -0.24989935 216.9258623 -0.25087199 218.6509293 -0.25185795 C234.83743459 -0.26041796 251.02388895 -0.25056922 267.21038589 -0.23445685 C281.09569154 -0.22106278 294.98092192 -0.22337306 308.8662262 -0.23721313 C324.9879708 -0.25327484 341.1096707 -0.25958374 357.23142219 -0.25037634 C358.95142348 -0.2494207 360.67142478 -0.24847759 362.39142609 -0.24754715 C363.66084039 -0.24685291 363.66084039 -0.24685291 364.95589943 -0.24614464 C370.91588998 -0.24355581 376.87585216 -0.24792368 382.83583832 -0.25498581 C390.10350621 -0.26340799 397.37107693 -0.261106 404.63873371 -0.24514358 C408.34604479 -0.237269 412.05319396 -0.23415515 415.76050377 -0.24409103 C419.78198933 -0.25470565 423.80306752 -0.24201533 427.82453918 -0.22705078 C428.9930291 -0.23374295 430.16151902 -0.24043511 431.36541772 -0.24733007 C438.97588666 -0.1923476 444.5008238 0.78745135 451.10206604 4.77890015 C457.56115983 11.41256404 458.93663292 17.63703622 458.8916626 26.73245239 C458.85352362 29.06110967 458.79096463 31.38832134 458.72706604 33.71640015 C458.7019437 35.31337032 458.67913749 36.91037869 458.65870667 38.50741577 C458.60403951 42.39053283 458.51799143 46.27178828 458.41456604 50.15390015 C459.29539856 50.43241821 460.17623108 50.71093628 461.08375549 50.99789429 C466.14471407 52.75437298 470.82000006 55.19254821 475.60206604 57.59140015 C476.59915588 58.08188843 477.59624573 58.57237671 478.62355042 59.07772827 C479.57939026 59.55532593 480.5352301 60.03292358 481.52003479 60.5249939 C482.38781555 60.9573938 483.25559631 61.3897937 484.14967346 61.83529663 C486.34839215 63.1153742 487.8622693 64.14364018 489.41456604 66.15390015 C490.16928302 72.94635298 490.16928302 72.94635298 487.85206604 76.65390015 C484.62080904 78.64236599 482.06865697 78.78086655 478.41456604 78.15390015 C474.79067946 76.75460987 471.40258618 74.97887128 467.97706604 73.15390015 C467.05474182 72.67694702 466.1324176 72.1999939 465.18214417 71.70858765 C462.9196906 70.53633191 460.66619467 69.34681598 458.41456604 68.15390015 C458.41456604 72.44390015 458.41456604 76.73390015 458.41456604 81.15390015 C460.39456604 81.81390015 462.37456604 82.47390015 464.41456604 83.15390015 C468.20053115 84.85091276 471.89389549 86.73125181 475.60206604 88.59140015 C476.59915588 89.08188843 477.59624573 89.57237671 478.62355042 90.07772827 C479.57939026 90.55532593 480.5352301 91.03292358 481.52003479 91.5249939 C482.38781555 91.9573938 483.25559631 92.3897937 484.14967346 92.83529663 C486.34839215 94.1153742 487.8622693 95.14364018 489.41456604 97.15390015 C490.16928302 103.94635298 490.16928302 103.94635298 487.85206604 107.65390015 C485.41456604 109.15390015 485.41456604 109.15390015 478.41456604 109.15390015 C471.81456604 105.85390015 465.21456604 102.55390015 458.41456604 99.15390015 C458.74456604 118.62390015 459.07456604 138.09390015 459.41456604 158.15390015 C467.33456604 162.11390015 475.25456604 166.07390015 483.41456604 170.15390015 C489.53197925 176.27131335 489.53197925 176.27131335 489.56846619 181.56802368 C489.57706665 182.49607315 489.58566711 183.42412262 489.5945282 184.3802948 C489.60091812 185.91226753 489.60091812 185.91226753 489.60743713 187.47518921 C489.61561462 188.54848984 489.62379211 189.62179047 489.63221741 190.72761536 C489.65709901 194.29157955 489.67359457 197.85550385 489.68800354 201.41952515 C489.69598906 203.2424622 489.69598906 203.2424622 489.70413589 205.10222626 C489.7308795 211.5346463 489.75025056 217.96704685 489.7646637 224.39950562 C489.78131427 231.0488708 489.82609271 237.69772854 489.87703514 244.34692764 C489.91066646 249.45472798 489.9222367 254.56241017 489.92789078 259.67031097 C489.93461459 262.12154679 489.94986571 264.57277453 489.97378159 267.02390289 C490.00534595 270.4546919 490.00548226 273.8841373 489.99806213 277.31503296 C490.01446747 278.32825119 490.0308728 279.34146942 490.04777527 280.38539124 C490.00779857 284.8995876 489.93388203 288.13502111 487.04460144 291.74588013 C481.3888966 296.92415662 475.29524389 296.41345623 468.03956604 296.27890015 C467.1127301 296.26987671 466.18589417 296.26085327 465.23097229 296.2515564 C462.95856527 296.22812952 460.68670424 296.19532763 458.41456604 296.15390015 C458.46097229 297.07171265 458.50737854 297.98952515 458.55519104 298.93515015 C458.81291183 307.69765717 458.6276469 313.55698112 452.61378479 320.1187439 C444.39795993 327.91978925 436.33104739 327.4257424 425.47706604 327.27890015 C419.01112854 327.21702515 419.01112854 327.21702515 412.41456604 327.15390015 C412.41456604 342.33390015 412.41456604 357.51390015 412.41456604 373.15390015 C417.03456604 373.15390015 421.65456604 373.15390015 426.41456604 373.15390015 C433.08391531 375.40832807 437.52905775 379.25212809 441.41456604 385.15390015 C443.68723223 390.3032634 443.74855877 395.12597024 443.72706604 400.65390015 C443.75123596 401.89720093 443.75123596 401.89720093 443.77589417 403.1656189 C443.77993683 408.25128696 443.22318503 411.74621342 440.41456604 416.15390015 C435.69465177 420.43132245 430.99665197 420.31096773 424.90748596 420.3309021 C424.03886429 420.3374733 423.17024261 420.34404449 422.27529907 420.35081482 C419.39854344 420.37053795 416.52183997 420.38220776 413.64503479 420.3921814 C412.6623443 420.39625692 411.67965382 420.40033245 410.66718483 420.40453148 C405.46668839 420.42538724 400.2662183 420.43969155 395.06568909 420.44906616 C389.69545474 420.4601342 384.32563434 420.49454019 378.95554638 420.53423786 C374.82482127 420.56038521 370.69419513 420.56875629 366.56339455 420.57234764 C364.58386245 420.57721785 362.6043349 420.58884417 360.62488365 420.60738564 C357.85286524 420.63173867 355.08192239 420.63081917 352.30982971 420.62387085 C351.0869072 420.64308594 351.0869072 420.64308594 349.83927917 420.66268921 C344.56183045 420.61454641 341.63082325 419.60067213 337.41456604 416.15390015 C332.2470593 410.7034109 333.83203647 402.58827526 334.01222229 395.55233765 C334.34196344 389.54303636 335.23892385 384.69431108 339.41456604 380.15390015 C348.26701819 372.69675569 352.85323432 373.15390015 365.41456604 373.15390015 C365.41456604 357.97390015 365.41456604 342.79390015 365.41456604 327.15390015 C268.06456604 327.15390015 170.71456604 327.15390015 70.41456604 327.15390015 C70.41456604 342.33390015 70.41456604 357.51390015 70.41456604 373.15390015 C75.03456604 373.15390015 79.65456604 373.15390015 84.41456604 373.15390015 C92.5318523 376.01339872 96.52864776 379.49677704 100.41456604 387.15390015 C101.88866802 391.57620609 101.63952433 395.89618431 101.66456604 400.52890015 C101.68519104 401.47507202 101.70581604 402.4212439 101.72706604 403.39608765 C101.77754391 412.38114767 101.77754391 412.38114767 98.41456604 416.15390015 C93.37994647 420.27671721 89.79615129 420.72990774 83.56690979 420.65560913 C82.69785004 420.66101212 81.82879028 420.6664151 80.93339539 420.67198181 C78.07260139 420.68444653 75.21281822 420.66799315 72.35206604 420.6499939 C70.35719246 420.65014894 68.36231857 420.65163875 66.3674469 420.65440369 C62.19128567 420.65578667 58.01546829 420.64324629 53.83937073 420.62045288 C48.49277414 420.59206873 43.14674871 420.59480701 37.80010986 420.60754299 C33.68221682 420.61450595 29.56445523 420.6067038 25.44657898 420.59428596 C23.47545374 420.58977748 21.50431436 420.58942939 19.53318787 420.59335136 C16.77590627 420.59626961 14.01940513 420.57972726 11.26222229 420.55795288 C10.04636948 420.56470535 10.04636948 420.56470535 8.80595398 420.57159424 C3.9467126 420.50800311 0.64470866 419.79700818 -3.58543396 417.15390015 C-9.41920205 410.71663881 -8.081008 401.51253109 -7.75584412 393.36581421 C-7.23919868 386.65978609 -4.45526424 382.69657752 0.35206604 378.21640015 C7.78589181 371.96489259 13.02102204 373.15390015 23.41456604 373.15390015 C23.41456604 357.97390015 23.41456604 342.79390015 23.41456604 327.15390015 C14.88887795 327.27196288 14.88887795 327.27196288 6.36378479 327.42416382 C-2.30411263 327.48450173 -9.19020632 326.88252131 -15.89793396 320.84140015 C-16.53344177 320.28839233 -17.16894958 319.73538452 -17.82371521 319.1656189 C-23.20714559 313.01824275 -23.0125996 307.05112566 -22.96638489 299.27340698 C-22.97106486 298.06786588 -22.97574483 296.86232478 -22.98056662 295.62025213 C-22.9904536 292.28174828 -22.98690722 288.94375163 -22.97760797 285.60527873 C-22.97081717 282.00194613 -22.98129884 278.39865768 -22.98954773 274.79533386 C-23.00288695 267.7395055 -23.0000065 260.68377288 -22.99130981 253.62794077 C-22.98453441 247.89347779 -22.98361592 242.15904164 -22.98688126 236.42457581 C-22.98734096 235.60838952 -22.98780065 234.79220323 -22.98827428 233.95128402 C-22.98923346 232.2932126 -22.9902061 230.6351412 -22.99119206 228.9770698 C-22.9997465 213.42965207 -22.98991096 197.88228741 -22.97379096 182.33487839 C-22.96038772 168.99474057 -22.9627158 155.65468108 -22.97654724 142.31454468 C-22.99260209 126.82272696 -22.99892253 111.33095575 -22.98971045 95.83913088 C-22.9887548 94.18716209 -22.98781169 92.53519329 -22.98688126 90.88322449 C-22.98641843 90.07042616 -22.9859556 89.25762783 -22.98547875 88.42019925 C-22.98288858 82.69268352 -22.98726045 76.96519731 -22.99431992 71.23768616 C-23.00273405 64.25766678 -23.00045662 57.2777486 -22.98447768 50.29774082 C-22.97659377 46.73648055 -22.97350532 43.17538903 -22.98342514 39.61413002 C-22.9940145 35.75412237 -22.9813696 31.894391 -22.96638489 28.03439331 C-22.97307705 26.90813333 -22.97976922 25.78187335 -22.98666418 24.62148428 C-22.92560813 16.53726911 -21.26289647 11.14677725 -15.58543396 5.15390015 C-10.56004116 1.6549117 -6.07523227 0.04265634 0 0 Z " fill="#C6EDFC" transform="translate(22.585433959960938,45.846099853515625)"/>
<path d="M0 0 C1.12559326 0.33064453 1.12559326 0.33064453 2.27392578 0.66796875 C24.9945021 7.51812057 43.74359205 18.77292165 61 35 C61.59039062 35.5259375 62.18078125 36.051875 62.7890625 36.59375 C83.25753321 55.60711616 97.85475683 86.9183006 99.17700195 114.72192383 C99.71431302 149.66426881 99.71431302 149.66426881 95 164 C94.58319292 165.39188504 94.16652981 166.78381321 93.75 168.17578125 C83.49654351 200.83036357 60.33059149 228.81401956 30.16357422 244.984375 C-2.2152447 261.62124116 -39.28463011 265.06027631 -74 254 C-93.67323389 247.29487728 -123.14478862 232.71042276 -133 213 C-133.2350937 207.59284497 -133.2350937 207.59284497 -132.28125 205.1875 C-131.70622183 200.71505867 -135.19064647 197.14379519 -137.609375 193.6171875 C-140.15486525 190.83045798 -140.98258687 190.30972901 -144.625 190 C-146.90234375 189.75 -146.90234375 189.75 -149 189 C-151.88014442 185.38152757 -153.37717021 181.30049894 -155 177 C-155.25910156 176.32807617 -155.51820313 175.65615234 -155.78515625 174.96386719 C-165.64610412 149.01337757 -167.36524536 120.87073902 -160 94 C-159.81808105 93.32582031 -159.63616211 92.65164062 -159.44873047 91.95703125 C-154.09440004 72.77905418 -143.76329749 56.08830045 -131 41 C-130.14546643 39.91695606 -129.29122346 38.83368264 -128.4375 37.75 C-125.22629051 34.12709699 -121.73726948 31.06989993 -118 28 C-117.0615625 27.22398438 -116.123125 26.44796875 -115.15625 25.6484375 C-84.05244926 0.51062511 -39.11244147 -11.58887155 0 0 Z " fill="#000102" transform="translate(195,81)"/>
<path d="M0 0 C0.91541565 -0.00860046 1.8308313 -0.01720093 2.77398682 -0.02606201 C4.26947807 -0.03245193 4.26947807 -0.03245193 5.79518127 -0.03897095 C6.85087311 -0.04714844 7.90656494 -0.05532593 8.99424744 -0.06375122 C12.48721247 -0.08856234 15.98013709 -0.10510702 19.47315979 -0.11953735 C21.26212016 -0.12752287 21.26212016 -0.12752287 23.08722115 -0.13566971 C29.39530418 -0.16237785 35.70336755 -0.18176352 42.01148987 -0.19619751 C48.53310828 -0.21287372 55.05422416 -0.25768366 61.57565212 -0.30856895 C66.58647257 -0.3421753 71.59717247 -0.35376748 76.60809517 -0.35942459 C79.01270976 -0.36615125 81.41731604 -0.38140971 83.82182121 -0.4053154 C87.18315463 -0.43683743 90.54311464 -0.43702306 93.90455627 -0.42959595 C94.89952621 -0.44600128 95.89449615 -0.46240662 96.9196167 -0.47930908 C101.56277207 -0.4372458 103.73038508 -0.3488101 107.56362915 2.4677124 C109.41456604 5.15390015 109.41456604 5.15390015 109.53956604 8.71640015 C108.157295 12.94000611 107.22765953 13.90242462 103.41456604 16.15390015 C99.96639106 16.73392614 96.56203694 16.68696419 93.07228088 16.65219116 C92.03273758 16.65770996 90.99319427 16.66322876 89.92214966 16.66891479 C87.66866824 16.67823044 85.41513418 16.6783436 83.1616478 16.67032051 C79.59803133 16.65770917 76.03519143 16.66896263 72.47160339 16.68635559 C66.19601377 16.71307151 59.9206141 16.71865044 53.64497375 16.71725464 C43.59253356 16.71502667 33.54032774 16.7290226 23.48797989 16.7728405 C19.97187846 16.7827113 16.45614236 16.77394583 12.94004822 16.7641449 C10.79271705 16.77028634 8.64538789 16.77719714 6.49806213 16.78500366 C5.02523018 16.77342476 5.02523018 16.77342476 3.52264404 16.76161194 C2.62543137 16.76836945 1.72821869 16.77512695 0.80381775 16.78208923 C0.02402243 16.78150292 -0.7557729 16.78091661 -1.55919838 16.78031254 C-4.19213242 17.2657603 -4.9411757 18.06092407 -6.58543396 20.15390015 C-7.03486101 22.41432629 -7.03486101 22.41432629 -6.96295738 24.97843838 C-6.97078062 25.97819586 -6.97860387 26.97795335 -6.98666418 28.00800651 C-6.97997201 29.10935072 -6.97327985 30.21069493 -6.96638489 31.34541321 C-6.97340485 33.09686869 -6.97340485 33.09686869 -6.98056662 34.88370711 C-6.99048455 38.13017097 -6.98688495 41.37630019 -6.97760797 44.62275589 C-6.97083704 48.12180829 -6.981289 51.62081448 -6.98954773 55.11985779 C-7.00290867 61.97690343 -6.99999674 68.83385072 -6.99130981 75.69090026 C-6.98454238 81.26288565 -6.98361246 86.83484342 -6.98688126 92.40683174 C-6.98734096 93.19902369 -6.98780065 93.99121565 -6.98827428 94.80741342 C-6.98923343 96.4166079 -6.99020607 98.02580237 -6.99119206 99.63499684 C-6.99975301 114.73549255 -6.98990107 129.83593369 -6.97379096 144.93642045 C-6.96038972 157.89915913 -6.96271289 170.86181722 -6.97654724 183.82455444 C-6.99259509 198.86842713 -6.99892624 213.91225194 -6.98971045 228.95613199 C-6.98875478 230.55980558 -6.98781167 232.16347918 -6.98688126 233.76715279 C-6.98618702 234.95078437 -6.98618702 234.95078437 -6.98547875 236.15832771 C-6.98288628 241.72444407 -6.98726545 247.29053011 -6.99431992 252.85664177 C-7.00272641 259.63879807 -7.00047288 266.42085018 -6.98447768 273.20299452 C-6.97658302 276.66474975 -6.97352349 280.12633116 -6.98342514 283.58808517 C-6.99157977 287.33736662 -6.9813921 291.08615379 -6.96638489 294.83540344 C-6.97307705 295.93451693 -6.97976922 297.03363042 -6.98666418 298.16605037 C-6.97884093 299.16841561 -6.97101769 300.17078084 -6.96295738 301.20352077 C-6.96247033 302.06917579 -6.96198327 302.93483081 -6.96148145 303.82671779 C-6.47428441 306.84175281 -5.87760256 308.10891023 -3.58543396 310.15390015 C-1.0245 310.55489943 1.11235243 310.69154887 3.67541409 310.65726471 C4.79820056 310.66598535 4.79820056 310.66598535 5.94366959 310.67488217 C8.47224804 310.68957433 10.99986971 310.67555474 13.52844238 310.66183472 C15.35134762 310.66644001 17.17424915 310.67279042 18.99714285 310.68074369 C24.0222382 310.69751135 29.04703145 310.68915701 34.07212818 310.67679882 C39.48531175 310.66778088 44.89844189 310.68170186 50.31161499 310.69271851 C60.92256629 310.71054359 71.53340468 310.70664591 82.14436048 310.69506794 C90.76554668 310.68604908 99.38670114 310.68480291 108.0078907 310.68916321 C109.23303901 310.68977614 110.45818731 310.69038907 111.72046133 310.69102058 C114.20902781 310.69229943 116.69759429 310.69359628 119.18616075 310.69491094 C142.54453887 310.70632855 165.90285429 310.69318478 189.26122213 310.67170948 C209.31912249 310.65362427 229.37693099 310.65693938 249.43482971 310.67538452 C272.70578762 310.69677424 295.97669051 310.70522745 319.24765688 310.69293547 C321.72757978 310.69166122 324.20750269 310.69040374 326.68742561 310.68916321 C327.90771454 310.68854611 329.12800347 310.687929 330.38527085 310.6872932 C338.99910852 310.68383444 347.61291141 310.68968002 356.2267437 310.69908142 C366.71992292 310.7102818 377.2129824 310.7073028 387.70614784 310.68595845 C393.06356123 310.67542126 398.42077474 310.6713715 403.7781868 310.68455505 C408.67771989 310.69642979 413.57686687 310.68999803 418.47636468 310.66864485 C420.25358489 310.6641578 422.03083739 310.66649182 423.80803704 310.676148 C426.21512082 310.68822842 428.62086429 310.67592366 431.02787685 310.65726471 C432.07450949 310.67131171 432.07450949 310.67131171 433.14228621 310.68564248 C436.38009892 310.63512183 438.17753237 310.32185173 440.84494841 308.43183857 C442.68438789 305.76231589 442.91473835 304.4209446 442.91513729 301.20352077 C442.92495158 300.20115554 442.93476587 299.19879031 442.94487756 298.16605037 C442.93527256 297.06693689 442.92566755 295.9678234 442.91577148 294.83540344 C442.92130588 293.66620647 442.92684028 292.49700949 442.93254238 291.2923823 C442.94381322 288.04614925 442.93710246 284.80052287 442.92280567 281.55431974 C442.91171311 278.05393466 442.92363269 274.55361842 442.93264771 271.05323792 C442.94659353 264.19596375 442.93901438 257.33887351 442.92397212 250.48160809 C442.90712901 242.50024439 442.91032009 234.51892673 442.9140662 226.53755075 C442.91994714 212.29984809 442.90576355 198.06223382 442.88111877 183.82455444 C442.85719279 170.00062751 442.85011596 156.17681867 442.86061096 142.35287476 C442.87201273 127.30753455 442.87395977 112.262249 442.85951287 97.21690947 C442.85798699 95.61355023 442.85646663 94.01019099 442.85495186 92.40683174 C442.85419404 91.61789829 442.85343623 90.82896484 442.85265545 90.01612432 C442.84790724 84.44902904 442.84976783 78.88195812 442.85401726 73.3148632 C442.858937 66.53379339 442.8529905 59.75283537 442.83312296 52.9717912 C442.82323167 49.51015751 442.81816548 46.04869426 442.82601547 42.58705139 C442.83193325 38.83965396 442.81953015 35.09276471 442.80224609 31.34541321 C442.80825614 30.244069 442.81426618 29.14272479 442.82045835 28.00800651 C442.81201841 27.00824903 442.80357847 26.00849154 442.79488277 24.97843838 C442.79385364 24.11294571 442.79282452 23.24745305 442.7917642 22.35573334 C442.56286418 20.10944908 442.56286418 20.10944908 441.21070093 18.37571573 C438.79633698 16.73335161 437.20834216 16.77946131 434.29609108 16.78031254 C433.23076578 16.77332279 432.16544048 16.76633305 431.06783259 16.75913149 C429.30594743 16.77049557 429.30594743 16.77049557 427.50846863 16.78208923 C426.26394971 16.77826467 425.0194308 16.77444011 423.73719919 16.77049965 C420.27597556 16.76280146 416.81523602 16.76854695 413.35405254 16.77979648 C409.62390089 16.78863034 405.89378592 16.7801527 402.16363525 16.77359009 C395.69754858 16.76442282 389.23153284 16.76577052 382.76544571 16.7737751 C373.41106684 16.78499114 364.05678936 16.77597951 354.70241933 16.7612133 C339.51923039 16.73742625 324.33605395 16.72407353 309.15284729 16.72006226 C308.24371784 16.71981739 307.33458839 16.71957252 306.39790957 16.71932023 C296.25508502 16.71677436 286.11226143 16.71620744 275.96943665 16.71725464 C272.29196676 16.71758766 268.61449687 16.71787306 264.93702698 16.71810913 C264.02960851 16.71817192 263.12219005 16.71823471 262.18727405 16.7182994 C247.06417174 16.71890391 231.94112711 16.70403508 216.81804883 16.67727607 C207.48596405 16.66145352 198.15406525 16.65923116 188.82197843 16.6744101 C182.42852614 16.68386226 176.0351861 16.67913979 169.64174701 16.66319627 C165.95096679 16.65448462 162.26048458 16.65240268 158.56971931 16.6677227 C154.57112184 16.68418831 150.57322453 16.66995182 146.57463074 16.6526947 C145.40450207 16.66250148 144.23437341 16.67230826 143.0287863 16.68241221 C135.21975211 16.61240353 135.21975211 16.61240353 131.2248745 14.33756924 C128.64723553 11.22831428 128.27365839 9.16976814 128.41456604 5.15390015 C130.15973186 2.47008514 130.15973186 2.47008514 133.41456604 0.15390015 C137.47665751 -0.59681865 141.4961948 -0.51147852 145.61691284 -0.46755981 C147.4953301 -0.47714305 147.4953301 -0.47714305 149.41169518 -0.48691988 C152.88548933 -0.50392117 156.35856331 -0.48972414 159.83231962 -0.4704051 C163.57955109 -0.45498677 167.32669381 -0.46837787 171.07392883 -0.47814941 C178.41471819 -0.49268445 185.7552312 -0.4804327 193.09599439 -0.45903617 C201.64556578 -0.43503099 210.19507376 -0.43674034 218.74467137 -0.43934208 C234.00212529 -0.44303348 249.25944903 -0.4221982 264.51686096 -0.38809204 C279.31832674 -0.3550174 294.11965584 -0.34083069 308.92115784 -0.34707642 C325.03815797 -0.35384379 341.15510083 -0.35136899 357.27209252 -0.33171701 C358.55117465 -0.33015779 358.55117465 -0.33015779 359.85609683 -0.32856706 C361.5687126 -0.32647617 363.28132834 -0.32436519 364.99394405 -0.32223389 C370.9514354 -0.31534315 376.90890908 -0.31466821 382.86640358 -0.31611633 C390.13040078 -0.31755761 397.39428663 -0.30783696 404.65824691 -0.28416997 C408.36353095 -0.27232674 412.06865997 -0.26517357 415.77396202 -0.27100754 C419.79322308 -0.2771487 423.81204979 -0.2599858 427.83126831 -0.24050903 C429.58298001 -0.24850092 429.58298001 -0.24850092 431.37007982 -0.25665426 C438.9748922 -0.19301442 444.50562286 0.79035311 451.10206604 4.77890015 C457.56115983 11.41256404 458.93663292 17.63703622 458.8916626 26.73245239 C458.85352362 29.06110967 458.79096463 31.38832134 458.72706604 33.71640015 C458.7019437 35.31337032 458.67913749 36.91037869 458.65870667 38.50741577 C458.60403951 42.39053283 458.51799143 46.27178828 458.41456604 50.15390015 C459.29539856 50.43241821 460.17623108 50.71093628 461.08375549 50.99789429 C466.14471407 52.75437298 470.82000006 55.19254821 475.60206604 57.59140015 C476.59915588 58.08188843 477.59624573 58.57237671 478.62355042 59.07772827 C479.57939026 59.55532593 480.5352301 60.03292358 481.52003479 60.5249939 C482.38781555 60.9573938 483.25559631 61.3897937 484.14967346 61.83529663 C486.34839215 63.1153742 487.8622693 64.14364018 489.41456604 66.15390015 C490.16928302 72.94635298 490.16928302 72.94635298 487.85206604 76.65390015 C484.62080904 78.64236599 482.06865697 78.78086655 478.41456604 78.15390015 C474.79067946 76.75460987 471.40258618 74.97887128 467.97706604 73.15390015 C467.05474182 72.67694702 466.1324176 72.1999939 465.18214417 71.70858765 C462.9196906 70.53633191 460.66619467 69.34681598 458.41456604 68.15390015 C458.41456604 72.44390015 458.41456604 76.73390015 458.41456604 81.15390015 C460.39456604 81.81390015 462.37456604 82.47390015 464.41456604 83.15390015 C468.20053115 84.85091276 471.89389549 86.73125181 475.60206604 88.59140015 C476.59915588 89.08188843 477.59624573 89.57237671 478.62355042 90.07772827 C479.57939026 90.55532593 480.5352301 91.03292358 481.52003479 91.5249939 C482.38781555 91.9573938 483.25559631 92.3897937 484.14967346 92.83529663 C486.34839215 94.1153742 487.8622693 95.14364018 489.41456604 97.15390015 C490.16928302 103.94635298 490.16928302 103.94635298 487.85206604 107.65390015 C485.41456604 109.15390015 485.41456604 109.15390015 478.41456604 109.15390015 C471.81456604 105.85390015 465.21456604 102.55390015 458.41456604 99.15390015 C458.74456604 118.62390015 459.07456604 138.09390015 459.41456604 158.15390015 C467.33456604 162.11390015 475.25456604 166.07390015 483.41456604 170.15390015 C489.53197925 176.27131335 489.53197925 176.27131335 489.56846619 181.56802368 C489.57706665 182.49607315 489.58566711 183.42412262 489.5945282 184.3802948 C489.60091812 185.91226753 489.60091812 185.91226753 489.60743713 187.47518921 C489.61561462 188.54848984 489.62379211 189.62179047 489.63221741 190.72761536 C489.65709901 194.29157955 489.67359457 197.85550385 489.68800354 201.41952515 C489.69598906 203.2424622 489.69598906 203.2424622 489.70413589 205.10222626 C489.7308795 211.5346463 489.75025056 217.96704685 489.7646637 224.39950562 C489.78131427 231.0488708 489.82609271 237.69772854 489.87703514 244.34692764 C489.91066646 249.45472798 489.9222367 254.56241017 489.92789078 259.67031097 C489.93461459 262.12154679 489.94986571 264.57277453 489.97378159 267.02390289 C490.00534595 270.4546919 490.00548226 273.8841373 489.99806213 277.31503296 C490.01446747 278.32825119 490.0308728 279.34146942 490.04777527 280.38539124 C490.00779857 284.8995876 489.93388203 288.13502111 487.04460144 291.74588013 C481.3888966 296.92415662 475.29524389 296.41345623 468.03956604 296.27890015 C467.1127301 296.26987671 466.18589417 296.26085327 465.23097229 296.2515564 C462.95856527 296.22812952 460.68670424 296.19532763 458.41456604 296.15390015 C458.46097229 297.07171265 458.50737854 297.98952515 458.55519104 298.93515015 C458.81291183 307.69765717 458.6276469 313.55698112 452.61378479 320.1187439 C444.39795993 327.91978925 436.33104739 327.4257424 425.47706604 327.27890015 C419.01112854 327.21702515 419.01112854 327.21702515 412.41456604 327.15390015 C412.41456604 342.33390015 412.41456604 357.51390015 412.41456604 373.15390015 C417.03456604 373.15390015 421.65456604 373.15390015 426.41456604 373.15390015 C433.08391531 375.40832807 437.52905775 379.25212809 441.41456604 385.15390015 C443.68723223 390.3032634 443.74855877 395.12597024 443.72706604 400.65390015 C443.75123596 401.89720093 443.75123596 401.89720093 443.77589417 403.1656189 C443.77993683 408.25128696 443.22318503 411.74621342 440.41456604 416.15390015 C435.69465177 420.43132245 430.99665197 420.31096773 424.90748596 420.3309021 C424.03886429 420.3374733 423.17024261 420.34404449 422.27529907 420.35081482 C419.39854344 420.37053795 416.52183997 420.38220776 413.64503479 420.3921814 C412.6623443 420.39625692 411.67965382 420.40033245 410.66718483 420.40453148 C405.46668839 420.42538724 400.2662183 420.43969155 395.06568909 420.44906616 C389.69545474 420.4601342 384.32563434 420.49454019 378.95554638 420.53423786 C374.82482127 420.56038521 370.69419513 420.56875629 366.56339455 420.57234764 C364.58386245 420.57721785 362.6043349 420.58884417 360.62488365 420.60738564 C357.85286524 420.63173867 355.08192239 420.63081917 352.30982971 420.62387085 C351.0869072 420.64308594 351.0869072 420.64308594 349.83927917 420.66268921 C344.56183045 420.61454641 341.63082325 419.60067213 337.41456604 416.15390015 C332.2470593 410.7034109 333.83203647 402.58827526 334.01222229 395.55233765 C334.34196344 389.54303636 335.23892385 384.69431108 339.41456604 380.15390015 C348.26701819 372.69675569 352.85323432 373.15390015 365.41456604 373.15390015 C365.41456604 357.97390015 365.41456604 342.79390015 365.41456604 327.15390015 C268.06456604 327.15390015 170.71456604 327.15390015 70.41456604 327.15390015 C70.41456604 342.33390015 70.41456604 357.51390015 70.41456604 373.15390015 C75.03456604 373.15390015 79.65456604 373.15390015 84.41456604 373.15390015 C92.5318523 376.01339872 96.52864776 379.49677704 100.41456604 387.15390015 C101.88866802 391.57620609 101.63952433 395.89618431 101.66456604 400.52890015 C101.68519104 401.47507202 101.70581604 402.4212439 101.72706604 403.39608765 C101.77754391 412.38114767 101.77754391 412.38114767 98.41456604 416.15390015 C93.37994647 420.27671721 89.79615129 420.72990774 83.56690979 420.65560913 C82.69785004 420.66101212 81.82879028 420.6664151 80.93339539 420.67198181 C78.07260139 420.68444653 75.21281822 420.66799315 72.35206604 420.6499939 C70.35719246 420.65014894 68.36231857 420.65163875 66.3674469 420.65440369 C62.19128567 420.65578667 58.01546829 420.64324629 53.83937073 420.62045288 C48.49277414 420.59206873 43.14674871 420.59480701 37.80010986 420.60754299 C33.68221682 420.61450595 29.56445523 420.6067038 25.44657898 420.59428596 C23.47545374 420.58977748 21.50431436 420.58942939 19.53318787 420.59335136 C16.77590627 420.59626961 14.01940513 420.57972726 11.26222229 420.55795288 C10.04636948 420.56470535 10.04636948 420.56470535 8.80595398 420.57159424 C3.9467126 420.50800311 0.64470866 419.79700818 -3.58543396 417.15390015 C-9.41920205 410.71663881 -8.081008 401.51253109 -7.75584412 393.36581421 C-7.23919868 386.65978609 -4.45526424 382.69657752 0.35206604 378.21640015 C7.78589181 371.96489259 13.02102204 373.15390015 23.41456604 373.15390015 C23.41456604 357.97390015 23.41456604 342.79390015 23.41456604 327.15390015 C14.88887795 327.27196288 14.88887795 327.27196288 6.36378479 327.42416382 C-2.30411263 327.48450173 -9.19020632 326.88252131 -15.89793396 320.84140015 C-16.53344177 320.28839233 -17.16894958 319.73538452 -17.82371521 319.1656189 C-23.20714559 313.01824275 -23.0125996 307.05112566 -22.96638489 299.27340698 C-22.97106486 298.06786588 -22.97574483 296.86232478 -22.98056662 295.62025213 C-22.9904536 292.28174828 -22.98690722 288.94375163 -22.97760797 285.60527873 C-22.97081717 282.00194613 -22.98129884 278.39865768 -22.98954773 274.79533386 C-23.00288695 267.7395055 -23.0000065 260.68377288 -22.99130981 253.62794077 C-22.98453441 247.89347779 -22.98361592 242.15904164 -22.98688126 236.42457581 C-22.98734096 235.60838952 -22.98780065 234.79220323 -22.98827428 233.95128402 C-22.98923346 232.2932126 -22.9902061 230.6351412 -22.99119206 228.9770698 C-22.9997465 213.42965207 -22.98991096 197.88228741 -22.97379096 182.33487839 C-22.96038772 168.99474057 -22.9627158 155.65468108 -22.97654724 142.31454468 C-22.99260209 126.82272696 -22.99892253 111.33095575 -22.98971045 95.83913088 C-22.9887548 94.18716209 -22.98781169 92.53519329 -22.98688126 90.88322449 C-22.98641843 90.07042616 -22.9859556 89.25762783 -22.98547875 88.42019925 C-22.98288858 82.69268352 -22.98726045 76.96519731 -22.99431992 71.23768616 C-23.00273405 64.25766678 -23.00045662 57.2777486 -22.98447768 50.29774082 C-22.97659377 46.73648055 -22.97350532 43.17538903 -22.98342514 39.61413002 C-22.9940145 35.75412237 -22.9813696 31.894391 -22.96638489 28.03439331 C-22.97307705 26.90813333 -22.97976922 25.78187335 -22.98666418 24.62148428 C-22.92560813 16.53726911 -21.26289647 11.14677725 -15.58543396 5.15390015 C-10.56004116 1.6549117 -6.07523227 0.04265634 0 0 Z " fill="#010102" transform="translate(22.585433959960938,45.846099853515625)"/>
<path d="M0 0 C1.41493551 -0.10884119 2.83232943 -0.18597617 4.25 -0.25 C5.03890625 -0.29640625 5.8278125 -0.3428125 6.640625 -0.390625 C9.9156216 0.15159298 11.02003816 1.38240827 13 4 C13.50254732 6.32488102 13.50254732 6.32488102 13.50615788 8.94479275 C13.52272941 10.4464905 13.52272941 10.4464905 13.53963572 11.97852558 C13.52727457 13.62514945 13.52727457 13.62514945 13.5146637 15.30503845 C13.52160922 16.4728243 13.52855475 17.64061014 13.53571075 18.84378344 C13.55085895 22.08613862 13.54802117 25.32790663 13.53755772 28.57026231 C13.5305758 32.0666119 13.54655596 35.56286692 13.55955505 39.05918884 C13.58121757 45.90909643 13.58106241 52.75883804 13.57292951 59.60876863 C13.56663409 65.17548553 13.56776232 70.74215395 13.57420158 76.30887032 C13.57510324 77.10063806 13.57600489 77.8924058 13.57693387 78.7081665 C13.57878504 80.31655372 13.5806476 81.92494093 13.58252143 83.53332812 C13.59910785 98.62242496 13.59037368 113.71142836 13.57353585 128.80051959 C13.55883925 142.60946985 13.57346518 156.41820251 13.60230602 170.22712474 C13.63168905 184.40104484 13.64267543 198.57486447 13.63312382 212.74881369 C13.63210125 214.35164708 13.63110664 215.95448049 13.6301403 217.55731392 C13.62966391 218.34596594 13.62918752 219.13461797 13.6286967 219.94716854 C13.62653105 225.50734331 13.63634464 231.06742312 13.65091133 236.62757683 C13.66841526 243.40351609 13.66834552 250.17917793 13.64555968 256.95510619 C13.6343993 260.41305338 13.6312946 263.87051146 13.64986038 267.32843781 C13.66570166 271.07542276 13.65092154 274.8210577 13.62818909 278.56797791 C13.64002482 279.66349643 13.65186054 280.75901496 13.66405493 281.88773102 C13.64542187 283.39334039 13.64542187 283.39334039 13.62641239 284.92936611 C13.62600786 286.22646595 13.62600786 286.22646595 13.62559515 287.54976982 C12.68186415 291.24602318 11.01154391 292.71576394 8 295 C5.28633757 295.49290632 3.19936315 295.67479817 0.4930563 295.6292057 C-0.63319171 295.64010651 -0.63319171 295.64010651 -1.7821922 295.65122753 C-4.30676341 295.66952507 -6.8298244 295.65210133 -9.35438538 295.63491821 C-11.17901956 295.64067754 -13.00364796 295.64861739 -14.82826418 295.65855443 C-19.8488978 295.67947671 -24.86905779 295.66908815 -29.88969338 295.65362334 C-35.30149024 295.64233585 -40.71320421 295.65975955 -46.12498474 295.67352295 C-56.72899802 295.69578725 -67.33283462 295.69094006 -77.93685491 295.67645974 C-86.55227777 295.66518066 -95.16765102 295.66363084 -103.78307915 295.66907883 C-105.00795647 295.66984499 -106.2328338 295.67061116 -107.49482862 295.67140054 C-109.98291204 295.67299912 -112.47099545 295.67462018 -114.95907884 295.6762635 C-138.30412652 295.6905302 -161.64907612 295.67411349 -184.99410772 295.64726166 C-205.03949888 295.62491929 -225.08473769 295.62880425 -245.13012695 295.65185547 C-268.39158607 295.67859237 -291.65295918 295.68915976 -314.91443151 295.67379415 C-317.39319987 295.67220135 -319.87196824 295.6706295 -322.35073662 295.66907883 C-323.57043557 295.66830745 -324.79013452 295.66753607 -326.04679405 295.66674132 C-334.65565303 295.6624182 -343.26445762 295.66972399 -351.87330818 295.68147659 C-362.35914444 295.69547656 -372.84479348 295.69175427 -383.3306082 295.66507287 C-388.68402275 295.65190144 -394.03712478 295.64683894 -399.39053726 295.66331863 C-404.28636887 295.67816221 -409.18159676 295.67012285 -414.0773732 295.64343087 C-415.85318555 295.63782211 -417.62904837 295.64073961 -419.40482856 295.65280981 C-421.8102538 295.66791204 -424.21358357 295.65253157 -426.61889744 295.6292057 C-427.66467253 295.64676445 -427.66467253 295.64676445 -428.73157439 295.66467792 C-432.21130843 295.59675439 -433.78795589 295.18107353 -436.46131891 292.89817464 C-438.33232409 289.37405271 -438.30863572 286.93510539 -438 283 C-437.12105814 282.99864347 -436.24211627 282.99728694 -435.3365398 282.99588931 C-383.25419743 282.91525572 -331.17188178 282.82430789 -279.08958125 282.71994839 C-272.83730888 282.70742938 -266.58503633 282.69499662 -260.33276367 282.68261719 C-259.08803811 282.68015119 -257.84331254 282.6776852 -256.56086802 282.67514448 C-236.40109267 282.6354106 -216.24131171 282.60266603 -196.08152003 282.57250018 C-175.39884273 282.54139651 -154.71618927 282.50279173 -134.03353876 282.45720994 C-121.26917724 282.42931584 -108.50483318 282.40728676 -95.74044936 282.39273749 C-86.98984966 282.38220303 -78.23928373 282.36438865 -69.48870946 282.34083296 C-64.43859543 282.32745405 -59.38852878 282.31730086 -54.33839607 282.31578636 C-49.71366855 282.31432859 -45.08905514 282.30371587 -40.46436267 282.28586559 C-38.79261844 282.28102121 -37.12086043 282.27951742 -35.44911063 282.28172119 C-27.40157688 282.29058716 -19.80799741 282.22836859 -12 280 C-12 279.34 -12 278.68 -12 278 C-11.05125 277.38125 -10.1025 276.7625 -9.125 276.125 C-6.17758128 274.12075527 -5.16146167 273.25209269 -4 270 C-3.34 270 -2.68 270 -2 270 C-0.82284751 264.40739241 -0.84728982 258.94232275 -0.84178162 253.25601196 C-0.83437465 251.6312354 -0.83437465 251.6312354 -0.82681805 249.97363508 C-0.81145937 246.3439158 -0.80308679 242.71421419 -0.79467773 239.08447266 C-0.78509794 236.48263392 -0.77508779 233.88079673 -0.76467896 231.27896118 C-0.74294848 225.67728025 -0.7247915 220.07559693 -0.70907402 214.47389603 C-0.6863441 206.37481634 -0.65820564 198.27576252 -0.62875474 190.17670481 C-0.58111707 177.03594615 -0.53784254 163.8951769 -0.49731445 150.75439453 C-0.45794005 137.99071428 -0.41650917 125.22704342 -0.37231445 112.46337891 C-0.36822804 111.28289317 -0.36822804 111.28289317 -0.36405908 110.07855923 C-0.35037928 106.13038811 -0.33665907 102.18221713 -0.32291877 98.23404622 C-0.20901409 65.48938356 -0.10219147 32.74470134 0 0 Z " fill="#99E5FB" transform="translate(453,62)"/>
<path d="M0 0 C35.97 0 71.94 0 109 0 C109 25.74 109 51.48 109 78 C73.03 78 37.06 78 0 78 C0 52.26 0 26.52 0 0 Z " fill="#DEF5FC" transform="translate(326,248)"/>
<path d="M0 0 C1.03183914 -0.00708481 2.06367828 -0.01416962 3.12678528 -0.02146912 C4.25828506 -0.0189917 5.38978485 -0.01651428 6.55557251 -0.01396179 C7.7476683 -0.01907272 8.9397641 -0.02418365 10.16798401 -0.02944946 C13.43874622 -0.04097997 16.70935154 -0.04341697 19.98012877 -0.04088616 C22.71119322 -0.03981686 25.44223427 -0.04469889 28.17329371 -0.04949158 C34.61763229 -0.06059062 41.06191259 -0.0610223 47.5062561 -0.05497742 C54.15176945 -0.04893957 60.79707096 -0.06124275 67.44254816 -0.08254749 C73.14965965 -0.10017037 78.85670377 -0.10616368 84.56384146 -0.10290974 C87.97171067 -0.10109744 91.37942886 -0.10372734 94.78727341 -0.11762428 C98.58911269 -0.12993806 102.39046005 -0.12322661 106.19229126 -0.11161804 C107.88346825 -0.12308365 107.88346825 -0.12308365 109.60881042 -0.13478088 C110.64628922 -0.12776657 111.68376801 -0.12075226 112.75268555 -0.11352539 C114.10049386 -0.113777 114.10049386 -0.113777 115.47553062 -0.1140337 C119.84007566 0.53298314 122.4093605 2.58936732 125.28262329 5.83686829 C127.56186249 10.37206275 127.580085 14.03532257 127.53457642 19.04194641 C127.53840332 19.97365662 127.54223022 20.90536682 127.5461731 21.86531067 C127.54888638 23.82865992 127.54156617 25.79204569 127.52481079 27.75532532 C127.50339266 30.75142922 127.52463215 33.74513537 127.55020142 36.74116516 C127.54755804 38.65393084 127.54243285 40.56669504 127.53457642 42.47944641 C127.54267334 43.37022888 127.55077026 44.26101135 127.55911255 45.17878723 C127.47680127 50.66944929 126.78263269 53.98914117 123.00332642 58.26069641 C118.13092889 62.4170652 112.48522807 61.68222225 106.42349243 61.64888 C105.25221802 61.65413696 104.0809436 61.65939392 102.87417603 61.66481018 C99.00172598 61.67801566 95.12968691 61.66926915 91.25723267 61.65913391 C88.56589933 61.65980196 85.87457332 61.66406148 83.1832428 61.66783142 C77.54176381 61.67328556 71.90040273 61.6661072 66.25894165 61.65180969 C59.74517753 61.63549164 53.23169527 61.64076673 46.71793801 61.65728891 C41.1177653 61.67092305 35.51767723 61.67281382 29.91749328 61.6649729 C26.57611482 61.66030587 23.23497471 61.66082944 19.89358711 61.66958237 C16.16638276 61.67720243 12.43971904 61.66558341 8.71255493 61.64888 C7.61054245 61.6549527 6.50852997 61.66102539 5.37312317 61.6672821 C-0.15420184 61.62140176 -4.25672249 61.4486394 -8.99667358 58.26069641 C-13.01598049 53.82559913 -12.44749733 48.54777494 -12.43026733 42.88569641 C-12.43550919 41.88361145 -12.44075104 40.88152649 -12.44615173 39.84907532 C-12.45256371 37.73433863 -12.45124564 35.61956625 -12.44271851 33.50483704 C-12.43420275 30.27176917 -12.46299166 27.04046511 -12.49472046 23.80757141 C-12.49633247 21.75028027 -12.49575494 19.69298601 -12.49276733 17.63569641 C-12.50400131 16.67099426 -12.51523529 15.70629211 -12.52680969 14.71235657 C-12.4824657 10.43705277 -12.41587698 7.94820996 -10.15316772 4.23725891 C-6.6604689 1.03598079 -4.66259602 0.01066147 0 0 Z " fill="#030404" transform="translate(322.9966735839844,77.73930358886719)"/>
<path d="M0 0 C1.17127441 -0.00525696 2.34254883 -0.01051392 3.54931641 -0.01593018 C7.42176645 -0.02913565 11.29380552 -0.02038914 15.16625977 -0.01025391 C17.8575931 -0.01092196 20.54891911 -0.01518148 23.24024963 -0.01895142 C28.88172862 -0.02440556 34.5230897 -0.01722719 40.16455078 -0.00292969 C46.6783149 0.01338837 53.19179716 0.00811327 59.70555443 -0.0084089 C65.30572713 -0.02204304 70.9058152 -0.02393381 76.50599915 -0.0160929 C79.84737761 -0.01142587 83.18851772 -0.01194943 86.52990532 -0.02070236 C90.25710967 -0.02832243 93.98377339 -0.01670341 97.7109375 0 C98.81294998 -0.00607269 99.91496246 -0.01214539 101.05036926 -0.0184021 C110.89625866 0.0633251 110.89625866 0.0633251 115.42016602 3.38818359 C119.69877737 8.19986564 119.99898056 12.10557176 119.93774414 18.23583984 C119.94475342 19.1048996 119.9517627 19.97395935 119.95898438 20.86935425 C119.97652951 23.73012641 119.96495405 26.5899021 119.95141602 29.45068359 C119.95411193 31.44555856 119.95799518 33.44043225 119.9630127 35.43530273 C119.96890303 39.61145568 119.96035966 43.78726587 119.94165039 47.96337891 C119.91886125 53.31007675 119.93198681 58.65597138 119.95594025 64.00263977 C119.97041071 68.1205447 119.96578648 72.23825994 119.95542908 76.35617065 C119.95276525 78.327302 119.95601943 80.29845069 119.96534729 82.26956177 C119.97553336 85.02701275 119.95998319 87.78317228 119.93774414 90.54052734 C119.94584106 91.35109589 119.95393799 92.16166443 119.96228027 92.99679565 C119.88429403 98.22974245 118.96363913 101.294001 115.42016602 105.38818359 C111.91021505 107.87216673 109.51339774 108.76412666 105.22767639 108.77586365 C104.20294724 108.78576828 103.17821808 108.79567291 102.12243652 108.80587769 C101.00904907 108.80137604 99.89566162 108.79687439 98.74853516 108.79223633 C96.97699318 108.8025312 96.97699318 108.8025312 95.16966248 108.81303406 C91.93813987 108.82818227 88.70697951 108.82980068 85.47543645 108.82409167 C82.7741795 108.820997 80.07297456 108.82709538 77.37172502 108.83313042 C70.99728423 108.84716809 64.62297749 108.84562085 58.24853516 108.83422852 C51.68018164 108.82274876 45.1122365 108.83682187 38.54393679 108.86362499 C32.89705062 108.8858023 27.25029245 108.89241481 21.60336584 108.88654858 C18.2340186 108.8831825 14.8649331 108.88557037 11.49562263 108.90279961 C7.73716943 108.91766836 3.97961635 108.9070612 0.22119141 108.88989258 C-0.89017181 108.89956055 -2.00153503 108.90922852 -3.14657593 108.91918945 C-9.23201868 108.86094885 -13.03588534 108.61087315 -17.57983398 104.38818359 C-20.50362536 100.7303148 -19.86770651 96.0381018 -19.85449219 91.56811523 C-19.85960312 90.6782341 -19.86471405 89.78835297 -19.86997986 88.87150574 C-19.88387802 85.93038199 -19.88291894 82.98949252 -19.88061523 80.04833984 C-19.88450198 78.00337131 -19.8888366 75.95840357 -19.89360046 73.91343689 C-19.90106311 69.62707909 -19.90077101 65.34080366 -19.89550781 61.05444336 C-19.88971249 55.56200569 -19.90664558 50.06990516 -19.92985249 44.57752323 C-19.94458515 40.35418222 -19.94546217 36.1309225 -19.94234276 31.90756035 C-19.94285618 29.88256602 -19.94809788 27.85756716 -19.95815468 25.83259773 C-19.97049288 23.0007245 -19.96374309 20.16950921 -19.95214844 17.33764648 C-19.95979218 16.5016391 -19.96743591 15.66563171 -19.97531128 14.80429077 C-19.93363593 10.19849103 -19.66436625 7.05700901 -16.57983398 3.38818359 C-11.90701457 -0.86697696 -5.95005155 -0.03272793 0 0 Z M-4.57983398 15.38818359 C-4.57983398 41.12818359 -4.57983398 66.86818359 -4.57983398 93.38818359 C31.39016602 93.38818359 67.36016602 93.38818359 104.42016602 93.38818359 C104.42016602 67.64818359 104.42016602 41.90818359 104.42016602 15.38818359 C68.45016602 15.38818359 32.48016602 15.38818359 -4.57983398 15.38818359 Z " fill="#020202" transform="translate(330.579833984375,232.61181640625)"/>
<path d="M0 0 C1.00508102 -0.00852997 2.01016205 -0.01705994 3.04570007 -0.02584839 C4.14241028 -0.02494202 5.23912048 -0.02403564 6.36906433 -0.02310181 C7.52883286 -0.02981903 8.68860138 -0.03653625 9.8835144 -0.04345703 C13.72403732 -0.06248129 17.56438587 -0.06636358 21.404953 -0.06851196 C23.39864843 -0.07331333 25.39234388 -0.07811807 27.38603801 -0.08343279 C33.65643468 -0.0997115 39.92677395 -0.10460231 46.19718933 -0.10317993 C52.65585658 -0.10197927 59.11418924 -0.12306677 65.57277185 -0.15466726 C71.12537349 -0.18086241 76.67786609 -0.19154585 82.23052901 -0.19026911 C85.54351019 -0.18976032 88.85612791 -0.19724762 92.16906166 -0.21662521 C95.86752147 -0.2362308 99.56512179 -0.23046723 103.26359558 -0.21841431 C104.35423309 -0.22965332 105.44487061 -0.24089233 106.56855774 -0.25247192 C112.94292181 -0.19971193 116.81891244 0.48371289 122.01042175 4.26742554 C125.92607756 8.63544592 125.46182709 13.6010377 125.4440155 19.16976929 C125.44925735 20.12509048 125.45449921 21.08041168 125.4598999 22.06468201 C125.46631098 24.08106517 125.46499496 26.09748577 125.45646667 28.11386108 C125.44795992 31.19112065 125.4767259 34.26652122 125.50846863 37.34359741 C125.51008093 39.30648748 125.50950256 41.26938083 125.5065155 43.23226929 C125.51774948 44.14806259 125.52898346 45.0638559 125.54055786 46.00740051 C125.48020681 51.5678934 124.85821035 54.94942029 121.01042175 59.26742554 C116.71899832 62.87222122 112.52306752 62.73484621 107.16667175 62.73617554 C106.31995911 62.74378906 105.47324646 62.75140259 104.60087585 62.75924683 C102.81570883 62.77002314 101.03047889 62.77291098 99.24528503 62.7684021 C96.518792 62.76742853 93.79510344 62.80910038 91.0690155 62.85336304 C89.3307401 62.85856961 87.59245495 62.86125824 85.85417175 62.86117554 C85.04258606 62.8775708 84.23100037 62.89396606 83.39482117 62.91085815 C79.12364366 62.85885573 77.48088066 62.63313502 73.99284363 59.92172241 C72.01042175 57.26742554 72.01042175 57.26742554 71.44792175 54.20492554 C72.15642218 50.50497887 73.00771571 49.51975379 76.01042175 47.26742554 C78.76128366 46.91802625 81.09877735 46.79857374 83.83854675 46.87680054 C84.96205536 46.88529022 84.96205536 46.88529022 86.10826111 46.89395142 C88.49297375 46.91628496 90.87616583 46.96647168 93.26042175 47.01742554 C94.88019167 47.03749463 96.49998521 47.05574469 98.11979675 47.07211304 C102.08439081 47.11273388 106.04571118 47.19101784 110.01042175 47.26742554 C110.01042175 36.70742554 110.01042175 26.14742554 110.01042175 15.26742554 C73.71042175 15.26742554 37.41042175 15.26742554 0.01042175 15.26742554 C0.01042175 25.82742554 0.01042175 36.38742554 0.01042175 47.26742554 C3.34522644 47.22101929 6.68003113 47.17461304 10.1158905 47.12680054 C13.34935484 47.09559646 16.58280234 47.07131343 19.81632996 47.04769897 C22.06184916 47.02759614 24.30731611 47.00030949 26.55265808 46.96566772 C29.78220016 46.91709244 33.0110495 46.89444317 36.2408905 46.87680054 C37.7442823 46.84583282 37.7442823 46.84583282 39.27804565 46.8142395 C43.68251618 46.81282477 46.28573928 46.84177267 50.14445496 49.10824585 C52.01042175 51.26742554 52.01042175 51.26742554 52.63542175 54.20492554 C51.7617446 58.48594358 50.54603197 59.66898127 47.01042175 62.26742554 C43.0701278 63.03205015 39.178551 62.9918028 35.17448425 62.96664429 C34.02177032 62.97379959 32.8690564 62.9809549 31.68141174 62.98832703 C29.2455167 62.99610381 26.80955197 62.99109254 24.373703 62.97421265 C20.65490898 62.95502608 16.93987108 62.99433702 13.22135925 63.03890991 C10.85156537 63.03920036 8.48176807 63.03605825 6.11198425 63.02914429 C5.00448822 63.04442673 3.89699219 63.05970917 2.75593567 63.07545471 C-3.56764467 62.98048729 -7.23351918 62.28306945 -11.78611755 57.74845886 C-13.94307107 55.09401401 -14.12832461 53.25730754 -14.18244934 49.91293335 C-14.19851227 49.01149597 -14.2145752 48.11005859 -14.23112488 47.18130493 C-14.27560441 43.05181624 -14.3166503 38.92248851 -14.3396759 34.79281616 C-14.35622385 32.61627501 -14.38349835 30.43978795 -14.42170715 28.26351929 C-14.47654541 25.12390982 -14.49836209 21.98557481 -14.51301575 18.84555054 C-14.53568512 17.87659851 -14.55835449 16.90764648 -14.58171082 15.90933228 C-14.56796266 11.50010815 -14.50279069 8.27918188 -11.7068634 4.73129272 C-7.81490015 1.20229963 -5.24721882 0.02016533 0 0 Z " fill="#030303" transform="translate(324.9895782470703,154.73257446289063)"/>
<path d="M0 0 C36.3 0 72.6 0 110 0 C110 10.56 110 21.12 110 32 C106.37064453 32.05607422 106.37064453 32.05607422 102.66796875 32.11328125 C100.32469642 32.15949252 97.9815841 32.21072743 95.63842773 32.26245117 C94.00994591 32.29570536 92.38134869 32.32373584 90.75268555 32.34643555 C88.41144639 32.37997357 86.07126514 32.43228585 83.73046875 32.48828125 C83.00224411 32.49467117 82.27401947 32.5010611 81.52372742 32.50764465 C77.55865175 32.6160859 77.55865175 32.6160859 74.0793457 34.34448242 C72.81631483 36.12902197 72.81631483 36.12902197 72 39 C68.72963272 39.14510162 65.46008993 39.23399373 62.1875 39.3125 C61.25873047 39.35439453 60.32996094 39.39628906 59.37304688 39.43945312 C56.82304076 39.48548212 54.50522229 39.48415402 52 39 C49.98828125 36.54296875 49.98828125 36.54296875 49 34 C46.62617015 32.81308507 45.10821107 32.84427133 42.45849609 32.79467773 C41.51767181 32.77473251 40.57684753 32.75478729 39.60751343 32.73423767 C38.58976837 32.71752518 37.57202332 32.70081268 36.5234375 32.68359375 C35.48305328 32.66281265 34.44266907 32.64203156 33.37075806 32.62062073 C30.03890751 32.55510128 26.7069765 32.49622908 23.375 32.4375 C21.11978326 32.39431706 18.86457473 32.35070285 16.609375 32.30664062 C11.07299802 32.19860381 5.53656224 32.09954798 0 32 C0 21.44 0 10.88 0 0 Z " fill="#DAF1F8" transform="translate(325,170)"/>
<path d="M0 0 C35.97 0 71.94 0 109 0 C109 10.23 109 20.46 109 31 C73.03 31 37.06 31 0 31 C0 20.77 0 10.54 0 0 Z " fill="#DEF5FC" transform="translate(326,93)"/>
<path d="M0 0 C5.20895377 3.93418871 9.69496811 8.84440262 10.8515625 15.3984375 C11.58237717 22.82258657 11.04300801 29.07428589 6.8515625 35.3984375 C2.4037821 40.42971385 -2.98717836 43.89309718 -9.75390625 44.71484375 C-16.08311374 44.98547193 -21.02925593 44.26217496 -26.1484375 40.3984375 C-32.19645043 34.78851002 -36.17428168 28.88701766 -36.5859375 20.4609375 C-36.36760768 13.93089105 -33.98415361 9.52400352 -29.7734375 4.6484375 C-21.2424896 -2.66380355 -10.4178839 -6.04494498 0 0 Z " fill="#DCF2F9" transform="translate(175.1484375,188.6015625)"/>
<path d="M0 0 C0.03738281 1.258125 0.07476562 2.51625 0.11328125 3.8125 C1.04071703 29.95539895 6.92814275 55.52403847 25.625 74.9375 C28.96790757 78.56675225 28.96790757 78.56675225 29.25 82.375 C28.8375 83.57125 28.425 84.7675 28 86 C27.51080078 87.42505859 27.51080078 87.42505859 27.01171875 88.87890625 C26.05387822 91.60613947 25.0473522 94.30611271 24 97 C22.95541681 96.12848385 21.91453593 95.25253033 20.875 94.375 C20.23046875 93.83359375 19.5859375 93.2921875 18.921875 92.734375 C17.14142462 91.1276271 15.67214316 89.45028126 14.125 87.625 C12.72614494 86.037388 12.72614494 86.037388 11 85 C8.86872664 84.96824932 8.86872664 84.96824932 6.625 85.3125 C4.3125 85.50390625 4.3125 85.50390625 2 85 C-1.25458834 81.69455872 -3.57212531 77.93293728 -6 74 C-6.98425407 72.65500123 -7.97806828 71.31659915 -9 70 C-7.02 69.505 -7.02 69.505 -5 69 C-4.64508206 62.11322691 -5.61358947 57.37718772 -8.25 51.0625 C-14.5389148 34.87168646 -16.65202177 20.35102378 -16 3 C-10.47239641 0.89424625 -5.93002267 -0.37851209 0 0 Z " fill="#0053A0" transform="translate(62,200)"/>
<path d="M0 0 C6 2 6 2 16 7 C16 39.01 16 71.02 16 104 C10.72 104 5.44 104 0 104 C0 69.68 0 35.36 0 0 Z " fill="#61DAFA" transform="translate(481,222)"/>
<path d="M0 0 C15.43439467 6.95395804 26.9114218 29.32109225 32.93457031 44.32861328 C37.76293788 57.20869634 40.35535616 69.37499041 40.125 83.1875 C40.11597656 84.23486328 40.10695313 85.28222656 40.09765625 86.36132812 C40.07440075 88.90780514 40.04172569 91.45377031 40 94 C36.41278829 95.56079778 33.041614 96.47490848 29.1875 97.125 C28.21167969 97.29257813 27.23585938 97.46015625 26.23046875 97.6328125 C25.12638672 97.81457031 25.12638672 97.81457031 24 98 C23.97494385 97.35039307 23.9498877 96.70078613 23.92407227 96.03149414 C23.80686149 93.04168912 23.68471081 90.05210465 23.5625 87.0625 C23.52318359 86.04091797 23.48386719 85.01933594 23.44335938 83.96679688 C23.05846701 74.69977313 22.44366595 66.19060371 19.4375 57.375 C19.17428955 56.6001123 18.9110791 55.82522461 18.63989258 55.02685547 C14.11076761 42.2067954 7.10512555 28.03078844 -3.328125 18.98046875 C-5 17 -5 17 -4.87890625 14.64453125 C-4.44384766 13.33548828 -4.44384766 13.33548828 -4 12 C-3.67902344 10.97261719 -3.35804688 9.94523438 -3.02734375 8.88671875 C-2.48787109 7.30310547 -2.48787109 7.30310547 -1.9375 5.6875 C-1.57527344 4.61886719 -1.21304688 3.55023438 -0.83984375 2.44921875 C-0.56269531 1.64097656 -0.28554687 0.83273438 0 0 Z " fill="#00539F" transform="translate(239,122)"/>
<path d="M0 0 C-2.21551394 19.35391487 -11.7499 37.16777107 -24 52 C-24.80953125 52.98613281 -25.6190625 53.97226562 -26.453125 54.98828125 C-33.65848538 63.30464779 -41.94790228 69.78442134 -51 76 C-51.6904541 76.49258301 -52.3809082 76.98516602 -53.09228516 77.49267578 C-58.19075044 80.96135277 -58.19075044 80.96135277 -61.69921875 81.12890625 C-64.82302789 79.59617137 -66.56827078 77.58368072 -68.8125 74.9375 C-69.99779297 73.55884766 -69.99779297 73.55884766 -71.20703125 72.15234375 C-71.79871094 71.44207031 -72.39039063 70.73179687 -73 70 C-69.80177752 67.48766138 -66.43730133 65.44171136 -62.9375 63.375 C-56.47244589 59.46723802 -50.67075087 55.00198703 -45 50 C-44.37738281 49.46117187 -43.75476563 48.92234375 -43.11328125 48.3671875 C-31.61953318 37.70398999 -23.20356033 22.87402006 -19.4375 7.75 C-18.5625 5.12109375 -18.5625 5.12109375 -17 3 C-11.50861343 0.73612308 -5.91568591 0 0 0 Z " fill="#00539F" transform="translate(277,232)"/>
<path d="M0 0 C3.42561368 1.27632707 6.36927937 2.77187509 9.4375 4.75 C25.63617203 14.57975795 42.65692087 18.17524995 61.375 18.1875 C62.84066406 18.20586914 62.84066406 18.20586914 64.3359375 18.22460938 C70.04117806 18.23598951 75.19798793 17.74757668 80.73291016 16.33325195 C83.45344132 15.93334618 85.37221886 16.20692237 88 17 C90.45703125 19.50390625 90.45703125 19.50390625 92.8125 22.5625 C93.60269531 23.57441406 94.39289063 24.58632813 95.20703125 25.62890625 C95.79871094 26.41136719 96.39039063 27.19382812 97 28 C94.24140355 30.75859645 91.11960942 31.17812121 87.4375 32.0625 C86.75880859 32.23587891 86.08011719 32.40925781 85.38085938 32.58789062 C56.08359055 39.79485308 26.45975597 33.80226186 0.37109375 19.578125 C-2 18 -2 18 -4 15 C-3.49325541 12.33522242 -2.90164146 9.89567703 -2.125 7.3125 C-1.92519531 6.61060547 -1.72539063 5.90871094 -1.51953125 5.18554688 C-1.02470374 3.45365057 -0.51386825 1.72634252 0 0 Z " fill="#0053A0" transform="translate(103,291)"/>
<path d="M0 0 C2.96423728 1.22185751 4.65541685 3.12832357 6.86328125 5.43359375 C7.6625 6.25988281 8.46171875 7.08617188 9.28515625 7.9375 C9.8884375 8.57558594 10.49171875 9.21367188 11.11328125 9.87109375 C10.11328125 12.87109375 10.11328125 12.87109375 7.99609375 14.1953125 C7.08601563 14.64519531 6.1759375 15.09507813 5.23828125 15.55859375 C-16.51714818 26.9583259 -31.79594016 45.12737463 -40.88671875 67.87109375 C-41.16386719 68.80695313 -41.44101563 69.7428125 -41.7265625 70.70703125 C-42.56114561 73.39154283 -43.29313326 75.55189873 -44.88671875 77.87109375 C-49.81653612 80.19551541 -55.51806048 80.15365471 -60.88671875 79.87109375 C-60.0841853 57.40015719 -44.67093689 36.54655909 -29.88671875 20.87109375 C-29.2628125 20.18273437 -28.63890625 19.494375 -27.99609375 18.78515625 C-22.35254769 12.78592451 -15.75019591 8.33585568 -8.88671875 3.87109375 C-8.14421875 3.37867187 -7.40171875 2.88625 -6.63671875 2.37890625 C-2.55154238 -0.17432898 -2.55154238 -0.17432898 0 0 Z " fill="#0053A0" transform="translate(109.88671875,106.12890625)"/>
<path d="M0 0 C1.10730469 0.26683594 2.21460938 0.53367187 3.35546875 0.80859375 C14.22270568 3.78682555 24.43585087 9.09597717 34 15 C33.45018084 21.04801071 32.09570426 26.30601106 30 32 C29.18660156 31.50371094 28.37320313 31.00742188 27.53515625 30.49609375 C4.43659764 16.68553671 -20.017978 9.9182009 -46.99633789 15.23095703 C-50.10995768 15.84328582 -52.82209603 16.2007496 -56 16 C-60.86892475 12.70002304 -64.13906426 8.58280721 -66 3 C-49.01749465 -8.32167023 -18.7718277 -4.65767153 0 0 Z " fill="#0053A0" transform="translate(192,96)"/>
<path d="M0 0 C0.65594147 -0.0071553 1.31188293 -0.01431061 1.98770142 -0.02168274 C4.14486442 -0.03852104 6.29993446 -0.01920018 8.45703125 0.00219727 C9.96248547 0.0013681 11.46793959 -0.0010931 12.97338867 -0.00511169 C16.12413883 -0.00796631 19.2741768 0.00669721 22.42480469 0.03417969 C26.45681984 0.06826309 30.48756196 0.06224174 34.51963806 0.04351711 C37.62701974 0.03293177 40.73410687 0.04189862 43.84146118 0.05690193 C45.32776006 0.06207302 46.81408983 0.06161496 48.30038452 0.05535698 C50.38061297 0.04988569 52.45903961 0.07033585 54.5390625 0.09765625 C55.72089111 0.10385483 56.90271973 0.11005341 58.12036133 0.11643982 C62.21802053 0.78611357 63.71611025 1.29506587 66.26953125 4.63110352 C66.26953125 8.59110352 66.26953125 12.55110352 66.26953125 16.63110352 C40.52953125 16.63110352 14.78953125 16.63110352 -11.73046875 16.63110352 C-11.73046875 5.63110352 -11.73046875 5.63110352 -9.65112305 2.48304749 C-6.13921362 0.25619732 -4.14246548 0.0033711 0 0 Z " fill="#00539F" transform="translate(383.73046875,433.368896484375)"/>
<path d="M0 0 C0.6461879 -0.00700928 1.29237579 -0.01401855 1.95814514 -0.02124023 C4.08256704 -0.03876735 6.20564399 -0.02721823 8.33007812 -0.01367188 C9.81311294 -0.01636836 11.29614602 -0.02025208 12.7791748 -0.02526855 C15.8827401 -0.03115637 18.98584395 -0.02262444 22.08935547 -0.00390625 C26.06080609 0.01888368 30.03117539 0.00575664 34.00258636 -0.01819611 C37.06361997 -0.03267395 40.12439864 -0.02803917 43.18544006 -0.01768494 C44.64942046 -0.0150231 46.11342426 -0.01826832 47.57737732 -0.02760315 C49.62642413 -0.03780252 51.67373802 -0.02222486 53.72265625 0 C54.88671997 0.00318237 56.05078369 0.00636475 57.25012207 0.00964355 C61.32938115 0.67562217 62.81521495 1.19903017 65.36132812 4.51757812 C65.36132812 8.47757812 65.36132812 12.43757813 65.36132812 16.51757812 C39.95132813 16.51757812 14.54132812 16.51757812 -11.63867188 16.51757812 C-11.63867188 4.51757812 -11.63867188 4.51757812 -9.55358887 1.79992676 C-6.1415273 0.29887116 -3.7283668 0.01019279 0 0 Z " fill="#00539F" transform="translate(42.638671875,433.482421875)"/>
<path d="M0 0 C3.77030899 1.36487888 6.82057762 3.11615604 10.125 5.375 C19.43108676 11.38335937 30.21337449 15.22809939 41.3828125 14.91796875 C53.6764315 14.72023305 53.6764315 14.72023305 57.71484375 18.625 C60.12986034 22.73398529 62 26.17909898 62 31 C39.54161764 35.97579434 17.24470981 29.62966735 -2 18 C-5.1875 15.625 -5.1875 15.625 -7 14 C-5.23570801 9.02790438 -2.6060834 4.56561939 0 0 Z " fill="#00539F" transform="translate(117,263)"/>
<path d="M0 0 C12.06238006 11.41431458 20.36094287 29.64733469 21.15478516 46.23413086 C21.19573868 49.70013155 21.17522953 53.15916226 21.125 56.625 C21.11597656 57.81996094 21.10695312 59.01492187 21.09765625 60.24609375 C21.07431179 63.16415069 21.03844959 66.082103 21 69 C15.72 69 10.44 69 5 69 C4.98582031 67.3809375 4.97164062 65.761875 4.95703125 64.09375 C4.64640684 46.85144019 3.15254829 33.1858821 -6.7421875 18.55078125 C-8 16 -8 16 -7.91796875 13.53125 C-6.79432118 10.43285159 -5.25733945 7.93380317 -3.4375 5.1875 C-2.79683594 4.21167969 -2.15617188 3.23585937 -1.49609375 2.23046875 C-0.75552734 1.12638672 -0.75552734 1.12638672 0 0 Z " fill="#00539F" transform="translate(227,153)"/>
<path d="M0 0 C5.28 0 10.56 0 16 0 C15.96519531 1.37671875 15.93039063 2.7534375 15.89453125 4.171875 C15.60187495 20.51457515 17.29637669 35.55693226 26.9375 49.375 C29.04094015 52.62335061 29.04094015 52.62335061 28.6875 55.875 C26.27377866 60.34485433 23.70287077 64.69920564 21 69 C10.69943154 59.94798529 4.68224138 45.97990087 1 33 C0.79375 32.31421875 0.5875 31.6284375 0.375 30.921875 C-1.88908996 21.92840656 -2.96339101 8.89017302 0 0 Z " fill="#00539F" transform="translate(78,197)"/>
<path d="M0 0 C5.94 0 11.88 0 18 0 C8.95596537 24.00147652 -6.56182954 41.26999358 -30 52 C-30.66 52 -31.32 52 -32 52 C-33.7265625 49.48046875 -33.7265625 49.48046875 -35.625 46.1875 C-36.25664062 45.10855469 -36.88828125 44.02960938 -37.5390625 42.91796875 C-39 40 -39 40 -39 37 C-37.98421875 36.55011719 -36.9684375 36.10023438 -35.921875 35.63671875 C-18.71384727 27.71779464 -8.52371055 17.0474211 0 0 Z " fill="#0053A0" transform="translate(226,237)"/>
<path d="M0 0 C1.82421875 2.5546875 1.82421875 2.5546875 3.6875 5.875 C4.31011719 6.96554688 4.93273437 8.05609375 5.57421875 9.1796875 C7 12 7 12 7 14 C6.04480469 14.47308594 5.08960938 14.94617188 4.10546875 15.43359375 C-12.86033665 24.02443263 -24.19252986 34.95328361 -33 52 C-38.61 52 -44.22 52 -50 52 C-46.63140607 35.15703037 -33.29307194 19.08135615 -19.328125 9.34765625 C-5.23853049 0 -5.23853049 0 0 0 Z " fill="#0053A0" transform="translate(132,130)"/>
<path d="M0 0 C1.65 1.65 3.3 3.3 5 5 C2.36 9.29 -0.28 13.58 -3 18 C-3.928125 17.46375 -4.85625 16.9275 -5.8125 16.375 C-22.79825992 6.2271562 -22.79825992 6.2271562 -41.97265625 3.04296875 C-55.03472406 3.4885534 -55.03472406 3.4885534 -58.69287109 0.71777344 C-61.90004048 -2.99841647 -65 -7.99981179 -65 -13 C-42.33863835 -16.82276681 -19.24483142 -12.92515906 0 0 Z " fill="#0053A0" transform="translate(211,138)"/>
<path d="M0 0 C5.61 0 11.22 0 17 0 C17 15.51 17 31.02 17 47 C11.39 47 5.78 47 0 47 C0 31.49 0 15.98 0 0 Z " fill="#EE622D" transform="translate(61,372)"/>
<path d="M0 0 C5.28 0 10.56 0 16 0 C16 15.51 16 31.02 16 47 C10.72 47 5.44 47 0 47 C0 31.49 0 15.98 0 0 Z " fill="#F7662E" transform="translate(403,372)"/>
<path d="M0 0 C3.58374889 0.69802235 6.46669608 2.18249911 9.6875 3.875 C13.50905281 5.87676576 16.7799231 7.24367911 21 8.0625 C23.15234375 8.6875 23.15234375 8.6875 25 10 C27.22667401 14.63437842 29 19.80537609 29 25 C15.48556467 25.81086612 3.56921867 21.63980999 -7.1875 13.625 C-7.785625 13.08875 -8.38375 12.5525 -9 12 C-7.55575365 8.76138697 -5.74227753 6.38030837 -3.375 3.75 C-2.74335938 3.04359375 -2.11171875 2.3371875 -1.4609375 1.609375 C-0.97882813 1.07828125 -0.49671875 0.5471875 0 0 Z " fill="#00529E" transform="translate(136,239)"/>
<path d="M0 0 C0.79955001 1.51670364 1.58921388 3.03861998 2.375 4.5625 C2.81585938 5.40941406 3.25671875 6.25632813 3.7109375 7.12890625 C6.94775095 14.33817257 7.25641332 20.66895081 7.125 28.4375 C7.11597656 29.45521484 7.10695312 30.47292969 7.09765625 31.52148438 C7.07424698 34.01457156 7.041457 36.50715859 7 39 C2.66760549 39.1272674 -0.86274183 39.00452609 -4.9375 37.5 C-5.70964844 37.2215625 -6.48179687 36.943125 -7.27734375 36.65625 C-7.84582031 36.4396875 -8.41429687 36.223125 -9 36 C-9.04898438 34.83082031 -9.09796875 33.66164062 -9.1484375 32.45703125 C-9.22350171 30.90883196 -9.29904795 29.36065599 -9.375 27.8125 C-9.42140625 26.65911133 -9.42140625 26.65911133 -9.46875 25.48242188 C-9.64314581 22.09623661 -9.82600944 19.43250844 -11.1015625 16.26171875 C-12.2695274 13.32149407 -12.07463636 11.96339116 -11 9 C-9.00390625 6.54296875 -9.00390625 6.54296875 -6.5625 4.1875 C-5.75941406 3.39730469 -4.95632812 2.60710937 -4.12890625 1.79296875 C-2 0 -2 0 0 0 Z " fill="#00529E" transform="translate(210,181)"/>
<path d="M0 0 C1.89600369 0.31146472 3.79179587 0.62421717 5.6875 0.9375 C6.74324219 1.11152344 7.79898438 1.28554687 8.88671875 1.46484375 C11.60249604 1.93167121 14.30124235 2.44422616 17 3 C12.47755366 15.51356513 2.09863314 23.32939685 -9.4609375 28.93359375 C-12 30 -12 30 -14 30 C-14.86343731 27.71144298 -15.7159811 25.4198072 -16.5625 23.125 C-16.80935547 22.47402344 -17.05621094 21.82304687 -17.31054688 21.15234375 C-17.93173115 19.45502335 -18.47152252 17.72843224 -19 16 C-17.63818336 13.27636671 -16.13741013 13.03513772 -13.375 11.8125 C-7.8752079 9.16123724 -2.79636681 5.59273361 0 0 Z " fill="#00529F" transform="translate(194,231)"/>
<path d="M0 0 C0.70304222 1.72290605 1.38683491 3.45367466 2.0625 5.1875 C2.44535156 6.15042969 2.82820313 7.11335937 3.22265625 8.10546875 C4.07333675 11.27307807 4.14976247 12.93749906 3 16 C1.3984375 17.15234375 1.3984375 17.15234375 -0.625 17.9375 C-6.84543924 20.69593536 -10.93880033 24.58506711 -15 30 C-19.95 29.01 -24.9 28.02 -30 27 C-30 20.12992687 -24.80097187 15.70347015 -20.25 10.875 C-14.94167824 5.689414 -7.70079308 0 0 0 Z " fill="#00539F" transform="translate(146,158)"/>
<path d="M0 0 C14.19162392 -0.45052774 27.09700847 3.66832195 38 13 C35.11954533 17.65304216 31.96084779 21.21919074 28 25 C24.99695497 23.87385811 22.19454892 22.5767022 19.375 21.0625 C14.45785422 18.54740819 9.34359516 17.33589879 4 16 C2.68 10.72 1.36 5.44 0 0 Z " fill="#00539F" transform="translate(161,155)"/>
<path d="M0 0 C1.54238266 0.11583111 3.08390272 0.24316572 4.625 0.375 C5.91277344 0.47941406 5.91277344 0.47941406 7.2265625 0.5859375 C10.31322502 1.04676317 13.06911399 1.94281824 16 3 C15.96519531 3.88300781 15.93039063 4.76601562 15.89453125 5.67578125 C15.71437058 13.66290428 16.40647489 20.43555175 19 28 C18.44570312 28.54269531 17.89140625 29.08539063 17.3203125 29.64453125 C16.59585938 30.35996094 15.87140625 31.07539063 15.125 31.8125 C14.40570313 32.52019531 13.68640625 33.22789062 12.9453125 33.95703125 C10.84641063 36.04399194 10.84641063 36.04399194 9 39 C6 38 6 38 4.68359375 35.84765625 C-0.25498321 24.8093949 -3.6292394 12.02004091 0 0 Z " fill="#00539F" transform="translate(109,199)"/>
</svg>
