<?xml version="1.0" encoding="UTF-8"?>
<svg version="1.1" xmlns="http://www.w3.org/2000/svg" width="512" height="512">
<path d="M0 0 C9.06242792 6.15880518 13.92125748 13.72862496 18.1875 23.75 C18.37892578 24.81927734 18.37892578 24.81927734 18.57421875 25.91015625 C19.49113768 28.66091304 21.20759887 29.41012487 23.625 30.9375 C44.21040055 44.71004331 58.29625378 65.10167651 63.20703125 89.43359375 C66.5003975 106.41856279 66.401235 123.55609749 65.99560547 140.77758789 C65.4244374 154.1967289 65.4244374 154.1967289 69.24365234 166.86206055 C73.66517524 175.70625003 70.96942026 188.4598215 68.40625 197.5078125 C65.83710028 204.75015696 61.60233798 210.47344135 55.1875 214.75 C54.1975 214.75 53.2075 214.75 52.1875 214.75 C51.8575 215.905 51.5275 217.06 51.1875 218.25 C45.50212627 235.14671818 35.47689183 249.96988592 23.1875 262.75 C22.07375 263.92369141 22.07375 263.92369141 20.9375 265.12109375 C16.67058147 269.51394564 12.25798204 273.34569414 7.35546875 277.0078125 C5.17125502 278.76305453 3.34179164 280.63549601 1.4375 282.6875 C-2.79347434 287.1244447 -7.80245164 289.83302809 -13.15234375 292.6953125 C-16.03424023 294.51387605 -16.03424023 294.51387605 -16.6796875 297.5546875 C-16.74542969 299.13636719 -16.74542969 299.13636719 -16.8125 300.75 C-16.86792969 301.86375 -16.92335938 302.9775 -16.98046875 304.125 C-17.34667045 324.80716609 -17.34667045 324.80716609 -9.56982422 343.21337891 C-7.39688463 345.11341805 -5.13330743 346.37956762 -2.59765625 347.76171875 C-1.00123291 348.63872437 -1.00123291 348.63872437 0.62744141 349.53344727 C1.78163574 350.16178467 2.93583008 350.79012207 4.125 351.4375 C6.59154764 352.79118283 9.05567056 354.14924644 11.51953125 355.5078125 C12.47052704 356.03149162 12.47052704 356.03149162 13.44073486 356.56575012 C20.10595002 360.24281749 26.71137765 364.02195313 33.3125 367.8125 C43.20986409 373.49012695 53.1399449 379.10571859 63.1015625 384.66992188 C71.9191793 389.59543139 80.71511967 394.55841899 89.50390625 399.53515625 C93.32024786 401.69593221 97.14080007 403.84897933 100.96484375 405.99609375 C106.71682102 409.22803717 112.45723884 412.47970921 118.1875 415.75 C119.18362305 416.3181543 120.17974609 416.88630859 121.20605469 417.47167969 C124.1855311 419.17848171 127.15642357 420.89932235 130.125 422.625 C131.01840088 423.13611328 131.91180176 423.64722656 132.83227539 424.17382812 C150.82035926 434.71344068 161.81880268 451.67939926 167.41015625 471.62109375 C170.23110433 482.97576417 170.1875 492.6206987 170.1875 504.75 C23.0075 504.75 -124.1725 504.75 -275.8125 504.75 C-275.8125 482.74525316 -275.8125 482.74525316 -274.125 476.375 C-273.85272583 475.27043457 -273.85272583 475.27043457 -273.57495117 474.14355469 C-268.32228374 453.63250174 -257.80833068 436.33549744 -239.8125 424.75 C-235.8734289 422.44263597 -231.88260659 420.24027414 -227.86657715 418.07098389 C-224.64263372 416.32913517 -221.42954892 414.56741523 -218.21484375 412.80859375 C-217.57559967 412.45951965 -216.93635559 412.11044556 -216.27774048 411.75079346 C-210.83467675 408.7744562 -205.43889076 405.72017841 -200.0625 402.625 C-192.50823888 398.28032133 -184.92125544 393.99854952 -177.3125 389.75 C-169.62320206 385.45538297 -161.95218813 381.13227509 -154.3125 376.75 C-146.6728037 372.36772022 -139.00142199 368.04530022 -131.3125 363.75 C-127.14482538 361.4184631 -122.97819369 359.08507428 -118.8125 356.75 C-117.78801758 356.17588379 -116.76353516 355.60176758 -115.70800781 355.01025391 C-112.78129423 353.36661832 -109.85877307 351.71578155 -106.9375 350.0625 C-106.05771484 349.56943359 -105.17792969 349.07636719 -104.27148438 348.56835938 C-103.46259766 348.10880859 -102.65371094 347.64925781 -101.8203125 347.17578125 C-101.11535645 346.77786377 -100.41040039 346.37994629 -99.68408203 345.9699707 C-93.72129544 342.08319212 -92.55706156 336.37191026 -90.8125 329.75 C-88.43838599 318.13143089 -88.59688419 306.54897646 -88.8125 294.75 C-90.13701172 294.34587891 -90.13701172 294.34587891 -91.48828125 293.93359375 C-102.98703404 289.83944323 -111.99510355 280.86229557 -119.5 271.5 C-121.4131282 269.22492863 -123.09714709 267.65802573 -125.375 265.8125 C-137.4942875 255.38533944 -146.34477645 241.09299163 -152.67578125 226.546875 C-152.97444092 225.86753906 -153.27310059 225.18820313 -153.58081055 224.48828125 C-154.3845235 222.62295257 -155.15068305 220.74156984 -155.9140625 218.859375 C-158.40016498 214.78748698 -160.5859262 213.88224015 -164.8125 211.75 C-172.19443869 205.95216832 -174.92710519 196.04512091 -176.4140625 187.15234375 C-177.26631038 178.20374104 -177.28484052 169.00883748 -172.7265625 161.0546875 C-170.16658977 156.10529007 -170.46345042 151.69742863 -170.875 146.25 C-170.93228271 145.27877197 -170.98956543 144.30754395 -171.04858398 143.30688477 C-171.43409428 137.64292078 -172.19138849 132.23567896 -173.375 126.6875 C-176.32425963 112.52233675 -175.96910005 97.62942974 -171.8125 83.75 C-171.55726563 82.863125 -171.30203125 81.97625 -171.0390625 81.0625 C-169.32183573 76.0211003 -166.9643546 72.60750527 -163.4375 68.625 C-159.65987024 64.25673106 -157.63084359 60.37894407 -155.8125 55 C-149.6799949 37.0915541 -139.00346754 22.80996019 -122.015625 14.0546875 C-115.6599012 11.46589269 -109.63524509 10.3604212 -102.75 10.375 C-102.02192139 10.37516113 -101.29384277 10.37532227 -100.54370117 10.37548828 C-90.79608444 10.57603481 -81.98985927 13.6583858 -72.8125 16.75 C-72.41160156 16.193125 -72.01070312 15.63625 -71.59765625 15.0625 C-54.4028169 -8.01991473 -25.1794174 -14.84940001 0 0 Z " fill="#F8C4B7" transform="translate(308.8125,7.25)"/>
<path d="M0 0 C1.24360758 0.65616462 2.46952324 1.34652913 3.6796875 2.0625 C4.36216553 2.43479736 5.04464355 2.80709473 5.74780273 3.19067383 C8.03542366 4.45061561 10.29440836 5.75421382 12.5546875 7.0625 C14.1879732 7.98454273 15.82211072 8.90507793 17.45703125 9.82421875 C20.98356404 11.81743237 24.49740624 13.83113627 28.00390625 15.859375 C33.62501654 19.11008964 39.27403984 22.30984398 44.9296875 25.5 C46.86458432 26.59244617 48.79948015 27.68489409 50.734375 28.77734375 C51.69569336 29.31987793 52.65701172 29.86241211 53.64746094 30.42138672 C58.45105728 33.13299023 63.25278356 35.84790096 68.0546875 38.5625 C69.97134507 39.64584943 71.88801174 40.72918275 73.8046875 41.8125 C77.63802083 43.97916667 81.47135417 46.14583333 85.3046875 48.3125 C86.25351807 48.84875 87.20234863 49.385 88.17993164 49.9375 C90.09594218 51.02055445 92.01179516 52.10388766 93.92749023 53.1875 C98.72794043 55.90241176 103.53105853 58.61237562 108.33984375 61.3125 C114.08910292 64.54333632 119.8269554 67.79365255 125.5546875 71.0625 C126.55081055 71.6306543 127.54693359 72.19880859 128.57324219 72.78417969 C131.5527186 74.49098171 134.52361107 76.21182235 137.4921875 77.9375 C138.38558838 78.44861328 139.27898926 78.95972656 140.19946289 79.48632812 C158.18754676 90.02594068 169.18599018 106.99189926 174.77734375 126.93359375 C177.59829183 138.28826417 177.5546875 147.9331987 177.5546875 160.0625 C30.3746875 160.0625 -116.8053125 160.0625 -268.4453125 160.0625 C-268.4453125 138.05775316 -268.4453125 138.05775316 -266.7578125 131.6875 C-266.57629639 130.95112305 -266.39478027 130.21474609 -266.20776367 129.45605469 C-260.95509624 108.94500174 -250.44114318 91.64799744 -232.4453125 80.0625 C-228.5062414 77.75513597 -224.51541909 75.55277414 -220.49938965 73.38348389 C-217.27544622 71.64163517 -214.06236142 69.87991523 -210.84765625 68.12109375 C-209.88879013 67.5974826 -209.88879013 67.5974826 -208.91055298 67.06329346 C-203.46748925 64.0869562 -198.07170326 61.03267841 -192.6953125 57.9375 C-185.14105138 53.59282133 -177.55406794 49.31104952 -169.9453125 45.0625 C-162.25601456 40.76788297 -154.58500063 36.44477509 -146.9453125 32.0625 C-138.25948233 27.08013729 -129.53672596 22.16629974 -120.78173828 17.30639648 C-115.62029054 14.4344235 -110.49890663 11.5179942 -105.4375 8.47265625 C-104.48939453 7.90869141 -103.54128906 7.34472656 -102.56445312 6.76367188 C-100.78541227 5.70131224 -99.01517538 4.62401216 -97.25585938 3.52929688 C-93.47410303 1.28474028 -91.2464305 0.06164684 -86.77734375 0.06640625 C-82.10469762 1.46326998 -77.84341783 3.42977859 -73.43359375 5.4921875 C-63.68576972 9.58483442 -54.17947066 10.52175473 -43.6953125 10.375 C-42.52871094 10.37822266 -41.36210937 10.38144531 -40.16015625 10.38476562 C-31.43679551 10.33042986 -24.46084273 9.10136473 -16.3828125 5.6875 C-15.42246094 5.28789062 -14.46210938 4.88828125 -13.47265625 4.4765625 C-10.59508849 3.23531986 -10.59508849 3.23531986 -8.76660156 1.90136719 C-5.37043258 -0.41273566 -4.0379315 -1.09875687 0 0 Z " fill="#4E5DA7" transform="translate(301.4453125,351.9375)"/>
<path d="M0 0 C9.06242792 6.15880518 13.92125748 13.72862496 18.1875 23.75 C18.37892578 24.81927734 18.37892578 24.81927734 18.57421875 25.91015625 C19.49113768 28.66091304 21.20759887 29.41012487 23.625 30.9375 C44.43328364 44.85916195 58.22362415 65.29346738 63.3125 89.78515625 C66.12899605 105.01743651 66.37608933 120.30551845 66.375 135.75 C66.37590637 136.60122437 66.37681274 137.45244873 66.37774658 138.32946777 C66.37745105 140.78223143 66.36849631 143.2347737 66.35546875 145.6875 C66.35426529 146.42631409 66.35306183 147.16512817 66.3518219 147.92633057 C66.31799833 151.65510158 66.07678593 155.12366496 65.1875 158.75 C64.5275 158.42 63.8675 158.09 63.1875 157.75 C63.1875 157.09 63.1875 156.43 63.1875 155.75 C60.2175 154.76 60.2175 154.76 57.1875 153.75 C57.1875 154.41 57.1875 155.07 57.1875 155.75 C56.0428125 156.3378125 56.0428125 156.3378125 54.875 156.9375 C51.38744375 159.28957282 50.34796702 161.83804148 49.1875 165.75 C48.31394772 170.81297287 47.8731616 175.92264832 47.37109375 181.03320312 C46.28009299 191.07166418 46.28009299 191.07166418 43.1875 195.75 C42.5275 196.08 41.8675 196.41 41.1875 196.75 C41.14262451 195.76829834 41.09774902 194.78659668 41.05151367 193.77514648 C40.87843796 190.05627215 40.69016724 186.33828356 40.49780273 182.62036133 C40.41729977 181.02550639 40.34066366 179.43045052 40.26831055 177.83520508 C39.29784944 156.58545328 36.5161914 139.86667803 20.109375 124.84765625 C18.79650691 123.70794202 17.47884871 122.57372013 16.15625 121.4453125 C0.19668424 107.7023531 -7.09092926 90.40884887 -8.8125 69.75 C-9.73869141 70.25660156 -9.73869141 70.25660156 -10.68359375 70.7734375 C-11.53050781 71.21945313 -12.37742187 71.66546875 -13.25 72.125 C-14.07371094 72.56585938 -14.89742187 73.00671875 -15.74609375 73.4609375 C-22.66384339 76.36903608 -29.83619662 77.03071774 -37.25 77.625 C-47.17304153 78.56064511 -54.98337838 79.96844896 -61.8125 87.75 C-64.02103259 91.07233423 -66.03488575 94.50268115 -68.0625 97.9375 C-75.47283136 110.16564528 -83.13178262 122.00173173 -97.8125 125.75 C-102.11938771 126.53044274 -106.27078906 126.83042584 -110.6484375 126.92578125 C-111.71320313 126.94962891 -112.77796875 126.97347656 -113.875 126.99804688 C-116.07532624 127.04085983 -118.27590708 127.07219484 -120.4765625 127.09179688 C-128.02496749 127.28780014 -134.83480599 127.90725895 -140.49050903 133.37107849 C-144.96065007 138.89833351 -145.71686452 143.24536098 -145.765625 150.2421875 C-145.81236359 151.72116013 -145.81236359 151.72116013 -145.86004639 153.23001099 C-145.95448921 156.36164197 -146.01034642 159.49240508 -146.0625 162.625 C-146.13596836 165.74982192 -146.21771265 168.87417916 -146.30780029 171.99856567 C-146.3613767 173.93503505 -146.40444471 175.87183601 -146.43487549 177.80880737 C-146.57645082 183.97817114 -147.40889939 189.74167732 -148.8125 195.75 C-149.4725 195.75 -150.1325 195.75 -150.8125 195.75 C-151.43993949 192.50046622 -152.06395501 189.25028313 -152.6875 186 C-152.873125 185.03876221 -153.05875 184.07752441 -153.25 183.0871582 C-154.2153783 178.04739057 -155.09124717 173.01905401 -155.8125 167.9375 C-156.63002159 162.88767639 -158.1033494 159.10106006 -160.8125 154.75 C-161.8025 154.42 -162.7925 154.09 -163.8125 153.75 C-165.50764137 154.70093297 -167.17618108 155.70107762 -168.8125 156.75 C-169.4725 156.75 -170.1325 156.75 -170.8125 156.75 C-170.82708252 156.16734375 -170.84166504 155.5846875 -170.85668945 154.984375 C-171.2227888 140.7386317 -171.2227888 140.7386317 -173.375 126.6875 C-176.32425963 112.52233675 -175.96910005 97.62942974 -171.8125 83.75 C-171.55726563 82.863125 -171.30203125 81.97625 -171.0390625 81.0625 C-169.32183573 76.0211003 -166.9643546 72.60750527 -163.4375 68.625 C-159.65987024 64.25673106 -157.63084359 60.37894407 -155.8125 55 C-149.6799949 37.0915541 -139.00346754 22.80996019 -122.015625 14.0546875 C-115.6599012 11.46589269 -109.63524509 10.3604212 -102.75 10.375 C-102.02192139 10.37516113 -101.29384277 10.37532227 -100.54370117 10.37548828 C-90.79608444 10.57603481 -81.98985927 13.6583858 -72.8125 16.75 C-72.41160156 16.193125 -72.01070313 15.63625 -71.59765625 15.0625 C-54.4028169 -8.01991473 -25.1794174 -14.84940001 0 0 Z " fill="#542D6D" transform="translate(308.8125,7.25)"/>
<path d="M0 0 C0.06993164 0.63389648 0.13986328 1.26779297 0.21191406 1.92089844 C1.84946217 17.71220245 1.84946217 17.71220245 6.23046875 32.890625 C7 35 7 35 7 38 C-12.26981082 48.9903864 -33.177621 52.9635855 -55.1875 47.4375 C-63.03531462 44.90977366 -70.52021007 41.44202723 -78 38 C-76.35 33.05 -74.7 28.1 -73 23 C-70.97875 22.79375 -68.9575 22.5875 -66.875 22.375 C-44.99448255 19.6689726 -23.37158267 11.69208566 -3.9296875 1.50390625 C-1 0 -1 0 0 0 Z " fill="#F8C4B7" transform="translate(291,314)"/>
<path d="M0 0 C3.9707917 0.58826544 6.21032509 2.14058321 9 5 C15.35718284 16.01911692 14.81444109 28.97744187 12 41 C9.61558246 49.41699391 5.34949211 56.10033859 -2 61 C-2.99 61 -3.98 61 -5 61 C-5.33 62.155 -5.66 63.31 -6 64.5 C-13.29231347 86.17248303 -28.38967824 107.65911766 -47 121 C-47.66 120.67 -48.32 120.34 -49 120 C-48.3709375 119.175 -47.741875 118.35 -47.09375 117.5 C-40.58473098 108.78722042 -35.52497298 99.87426274 -31 90 C-30.19949219 88.28876953 -30.19949219 88.28876953 -29.3828125 86.54296875 C-23.5438595 73.5490293 -19.2229734 59.91202669 -16.73828125 45.8828125 C-15.94831803 42.79819422 -14.67214473 40.68863272 -13 38 C-12.29514358 35.89402312 -12.29514358 35.89402312 -11.9375 33.6875 C-11.69966797 32.39779297 -11.69966797 32.39779297 -11.45703125 31.08203125 C-11.0084153 28.05674935 -10.67512319 25.02906752 -10.35375977 21.98803711 C-9.5271404 14.35261494 -8.68410039 7.68410039 -3 2 C-2.01 2 -1.02 2 0 2 C0 1.34 0 0.68 0 0 Z " fill="#F4A896" transform="translate(366,161)"/>
<path d="M0 0 C3.93276529 1.66196358 5.33444546 3.65239088 7.12890625 7.5625 C8.80209001 12.24441331 9.30861091 17.09596108 10 22 C10.65770077 25.98509623 11.34970734 29.96445967 12.03540039 33.94482422 C12.55031567 36.99978904 13 39.89580678 13 43 C13.66 43 14.32 43 15 43 C15.1959375 43.94875 15.391875 44.8975 15.59375 45.875 C20.71821443 69.62251807 28.41512274 95.85433952 44 115 C43.67 115.66 43.34 116.32 43 117 C29.02168628 105.86682978 18.28906457 90.26290219 11.203125 73.93359375 C10.90575439 73.25627197 10.60838379 72.5789502 10.30200195 71.88110352 C9.48757198 69.99119357 8.7093384 68.08580293 7.93359375 66.1796875 C5.42196515 62.0494538 3.28034645 61.15218317 -1 59 C-8.38193869 53.20216832 -11.11460519 43.29512091 -12.6015625 34.40234375 C-13.55537724 24.38728896 -13.37705614 14.12981178 -7.44140625 5.625 C-5.23030469 3.13226762 -2.90324827 1.62041764 0 0 Z " fill="#F4A896" transform="translate(145,160)"/>
<path d="M0 0 C0.57935303 0.19698486 1.15870605 0.39396973 1.75561523 0.59692383 C13.06566859 4.41052113 23.24985101 6.27304125 35.1875 6.3125 C36.68325562 6.32059692 36.68325562 6.32059692 38.20922852 6.32885742 C47.10700769 6.24442433 55.69332584 5.21250301 64 1.875 C66.98662834 0.6855579 68.76248505 0 72 0 C72.72528253 4.41898944 72.6524001 7.8058346 71 12 C66.36067048 16.40631851 59.83723151 18.63446454 54 21 C52.8560376 21.47711426 52.8560376 21.47711426 51.68896484 21.96386719 C34.94268414 28.85537036 17.0564399 34.21284383 -1 36 C-0.9278125 35.07703125 -0.855625 34.1540625 -0.78125 33.203125 C0.00717993 22.12130434 0.10241915 11.10678734 0 0 Z " fill="#F5A997" transform="translate(220,302)"/>
<path d="M0 0 C3.35276094 1.30839451 4.58660125 3.03615187 6.5625 6 C8.61284628 12.15103883 8.53952696 18.78538619 5.625 24.625 C3.5625 28 3.5625 28 2.5625 29 C3.38234375 29.31453125 4.2021875 29.6290625 5.046875 29.953125 C6.12453125 30.38109375 7.2021875 30.8090625 8.3125 31.25 C9.91351563 31.87648437 9.91351563 31.87648437 11.546875 32.515625 C14.5928999 34.01496368 16.40203225 35.40436695 18.5625 38 C19.1875 40.4375 19.1875 40.4375 18.5625 43 C13.01011028 49.30271266 5.76841092 50.65614686 -2.35546875 51.3203125 C-11.97191184 51.7100759 -20.97687394 50.65362678 -28.4375 44 C-29 40.5625 -29 40.5625 -28.4375 37 C-22.56354428 30.39179982 -14.07904045 29.63702792 -5.78125 29.11328125 C-5.0078125 29.07589844 -4.234375 29.03851563 -3.4375 29 C-3.89125 28.443125 -4.345 27.88625 -4.8125 27.3125 C-8.88930565 21.51089196 -9.10570556 15.89466643 -8.4375 9 C-5.0625 0 -5.0625 0 0 0 Z " fill="#F5AFA8" transform="translate(216.4375,168)"/>
<path d="M0 0 C3.51806126 0.19016547 4.76098572 0.75434644 7.25 3.3125 C10.75111366 8.68921026 10.64708247 14.74767065 10 21 C8.9546998 24.17698225 7.61720289 27.07603942 6 30 C6.67804688 29.95359375 7.35609375 29.9071875 8.0546875 29.859375 C16.37644791 29.53664745 23.36725769 30.70518721 29.6875 36.4375 C31 39 31 39 31.0625 41.5625 C29.34760973 45.49666002 26.90759303 47.09273014 23.078125 48.9140625 C13.5240445 52.43918875 0.73078062 52.81846741 -8.875 49.3125 C-12.53273871 47.518376 -15.09784626 45.71372873 -17 42 C-17.08291942 38.60030395 -16.38273684 37.40742954 -14.0625 34.9375 C-9.93418774 32.32571061 -5.57655965 30.67066643 -1 29 C-1.474375 28.401875 -1.94875 27.80375 -2.4375 27.1875 C-5.31145939 23.16395685 -5.22181716 19.51278157 -5.3125 14.6875 C-5.34988281 13.39199219 -5.38726562 12.09648437 -5.42578125 10.76171875 C-4.90744645 6.18230212 -3.26223671 3.26223671 0 0 Z " fill="#F5AFA8" transform="translate(292,168)"/>
<path d="M0 0 C0.66 0.33 1.32 0.66 2 1 C2 1.66 2 2.32 2 3 C5.65079826 4.61064629 9.0507432 5.44894091 13 6 C6.40934234 29.06730179 -9.5126667 52.03042849 -29 66 C-29.66 65.67 -30.32 65.34 -31 65 C-30.3709375 64.175 -29.741875 63.35 -29.09375 62.5 C-22.58496503 53.78753371 -17.5233552 44.87485946 -13 35 C-12.47792969 33.88238281 -11.95585937 32.76476562 -11.41796875 31.61328125 C-6.81841125 21.35833115 -3.43079906 10.69025969 0 0 Z " fill="#562F6D" transform="translate(348,216)"/>
<path d="M0 0 C2.27673341 2.27673341 2.66922817 3.65639456 3.59375 6.70703125 C3.89676025 7.67624512 4.19977051 8.64545898 4.51196289 9.64404297 C4.83801514 10.68963379 5.16406738 11.73522461 5.5 12.8125 C10.5123617 28.33156539 16.59327602 44.21558081 27 57 C26.505 57.99 26.505 57.99 26 59 C8.56332011 45.11237885 -2.27368195 25.15234076 -11 5 C-11 4.67 -11 4.34 -11 4 C-10.37351563 3.79503906 -9.74703125 3.59007812 -9.1015625 3.37890625 C-8.28429687 3.10949219 -7.46703125 2.84007812 -6.625 2.5625 C-5.81289062 2.29566406 -5.00078125 2.02882812 -4.1640625 1.75390625 C-1.98968201 1.04820271 -1.98968201 1.04820271 0 0 Z " fill="#58306E" transform="translate(162,218)"/>
<path d="M0 0 C3.35276094 1.30839451 4.58660125 3.03615187 6.5625 6 C8.57368399 12.03355197 8.52265276 18.73339353 5.875 24.5625 C4.32852049 27.27299635 3.65310025 27.95058168 0.8125 29.5 C-0.30125 29.7475 -0.30125 29.7475 -1.4375 30 C-5.68379614 26.08893777 -8.08628747 23.1335456 -8.73828125 17.31640625 C-8.76651636 10.68115575 -7.96150011 6.55654561 -4.0625 1.0625 C-2.4375 0 -2.4375 0 0 0 Z " fill="#32336E" transform="translate(216.4375,168)"/>
<path d="M0 0 C4.88150857 1.00374215 10.50582104 2.63082104 14.125 6.25 C14.3125 9.1875 14.3125 9.1875 14.125 12.25 C13.465 12.91 12.805 13.57 12.125 14.25 C7.6283717 14.0091092 3.81429606 13.19092588 -0.4375 11.75 C-6.14044634 9.9083309 -11.81210364 9.75612458 -17.75 9.55859375 C-20.875 9.25 -20.875 9.25 -22.875 7.25 C-23.22543376 4.5166167 -23.33243031 2.92410782 -21.76171875 0.609375 C-16.43233501 -3.23042944 -6.19170464 -0.96257593 0 0 Z " fill="#58316F" transform="translate(303.875,147.75)"/>
<path d="M0 0 C1.62051426 3.04781335 0.69408124 5.64123075 0.015625 8.91015625 C-0.98855469 8.9359375 -1.99273437 8.96171875 -3.02734375 8.98828125 C-11.25676813 9.2966698 -18.38889422 10.24734482 -26.21484375 13.0703125 C-29.01306215 13.91885546 -31.08309015 14.22584009 -33.984375 13.91015625 C-35.984375 11.91015625 -35.984375 11.91015625 -36.359375 8.97265625 C-35.984375 5.91015625 -35.984375 5.91015625 -34.38671875 4.35546875 C-26.4094986 -0.44383443 -8.71684668 -4.78740202 0 0 Z " fill="#58316F" transform="translate(227.984375,148.08984375)"/>
<path d="M0 0 C3.51806126 0.19016547 4.76098572 0.75434644 7.25 3.3125 C10.76843666 8.71581344 10.52723957 14.71857687 10 21 C8.66792442 24.45128672 7.59003919 26.40996081 5 29 C2.0625 29.375 2.0625 29.375 -1 29 C-5.15404626 24.84595374 -5.20661372 20.32176463 -5.3125 14.6875 C-5.34988281 13.39199219 -5.38726562 12.09648437 -5.42578125 10.76171875 C-4.90744645 6.18230212 -3.26223671 3.26223671 0 0 Z " fill="#2E306C" transform="translate(292,168)"/>
<path d="M0 0 C3.05413865 1.14530199 5.54576647 2.35011434 8.3125 4.125 C15.49955383 7.72531997 25.01009612 7.27694598 32.52734375 4.87109375 C34.52747278 4.00329982 36.5063223 3.08306078 38.44921875 2.09375 C41.18571914 0.92036545 43.05616001 0.78783135 46 1 C45.79296875 3.33203125 45.79296875 3.33203125 45 6 C42.92578125 7.51171875 42.92578125 7.51171875 40.3125 8.6875 C39.46300781 9.08324219 38.61351562 9.47898437 37.73828125 9.88671875 C27.73800466 13.95245174 17.52796221 14.55103907 7.19921875 11 C3.73476631 9.42468948 0.96188557 7.38238622 -2 5 C-1.125 1.125 -1.125 1.125 0 0 Z " fill="#E9857D" transform="translate(233,252)"/>
<path d="M0 0 C0.66 0.66 1.32 1.32 2 2 C2.66 1.34 3.32 0.68 4 0 C6.625 0.375 6.625 0.375 9 1 C8.36934243 4.21852831 7.21979305 6.50801069 5.4375 9.25 C4.98246094 9.95640625 4.52742188 10.6628125 4.05859375 11.390625 C3.70925781 11.92171875 3.35992187 12.4528125 3 13 C4.299375 12.979375 5.59875 12.95875 6.9375 12.9375 C8.29165633 12.91600546 9.64756083 12.92851801 11 13 C12 14 12 14 12 19 C8.37 19 4.74 19 1 19 C1.66 24.28 2.32 29.56 3 35 C0.525 35.495 0.525 35.495 -2 36 C-2.680625 35.0409375 -2.680625 35.0409375 -3.375 34.0625 C-4.83921726 31.90297594 -4.83921726 31.90297594 -7 31 C-6.54625 30.38125 -6.0925 29.7625 -5.625 29.125 C-1.15166365 20.52243009 -1.11095692 9.52586461 0 0 Z " fill="#E5837C" transform="translate(357,173)"/>
<path d="M0 0 C1.65 0.33 3.3 0.66 5 1 C4.40114295 7.37830287 1.41328 11.0472433 -2.28515625 16.09765625 C-4.0882407 19.14934588 -4.74427688 20.54233577 -4 24 C-2.27790727 25.680005 -2.27790727 25.680005 0 26.8125 C0.7425 27.23144531 1.485 27.65039062 2.25 28.08203125 C3.11625 28.53642578 3.11625 28.53642578 4 29 C3.505 31.475 3.505 31.475 3 34 C-2.35739424 33.36971833 -6.03920637 30.89543384 -9.875 27.1875 C-11.53090825 23.9676784 -11.2934801 21.592345 -11 18 C-9.35546875 14.6484375 -9.35546875 14.6484375 -7.1875 11.375 C-6.47980469 10.28960937 -5.77210938 9.20421875 -5.04296875 8.0859375 C-4.36878906 7.06757813 -3.69460937 6.04921875 -3 5 C-1.99047018 3.33908841 -0.98669396 1.6745784 0 0 Z " fill="#E9867D" transform="translate(253,209)"/>
<path d="M0 0 C0.78375 0.185625 1.5675 0.37125 2.375 0.5625 C4.97089775 1.25962266 4.97089775 1.25962266 7 0 C7.12117187 1.02738281 7.24234375 2.05476562 7.3671875 3.11328125 C8.24464374 10.41276381 9.19631096 17.64762351 10.6328125 24.86328125 C11 27 11 27 11 30 C11.66 30 12.32 30 13 30 C13 30.66 13 31.32 13 32 C12.34 32 11.68 32 11 32 C10.67 33.32 10.34 34.64 10 36 C8.35 35.67 6.7 35.34 5 35 C5.66 29.72 6.32 24.44 7 19 C3.37 19 -0.26 19 -4 19 C-4.33 17.68 -4.66 16.36 -5 15 C-2.23776722 12.23776722 0.20706617 12.42143709 4 12 C3.62746094 11.46890625 3.25492188 10.9378125 2.87109375 10.390625 C2.39800781 9.68421875 1.92492187 8.9778125 1.4375 8.25 C0.96183594 7.55390625 0.48617187 6.8578125 -0.00390625 6.140625 C-1 4 -1 4 -0.65234375 1.734375 C-0.43707031 1.16203125 -0.22179687 0.5896875 0 0 Z " fill="#E6837C" transform="translate(147,173)"/>
<path d="M0 0 C0.66 0.33 1.32 0.66 2 1 C-2.95 5.95 -7.9 10.9 -13 16 C-13 10.79628205 -8.49504984 7.5790344 -5 4 C-3.37707762 2.6137538 -1.7331451 1.24569804 0 0 Z " fill="#7A78B1" transform="translate(64,435)"/>
</svg>
