<?xml version="1.0" encoding="UTF-8"?>
<svg version="1.1" xmlns="http://www.w3.org/2000/svg" width="512" height="512">
<path d="M0 0 C6.83765255 5.05658736 11.53480845 11.20598785 14.234375 19.3046875 C24.794375 19.3046875 35.354375 19.3046875 46.234375 19.3046875 C46.894375 17.3246875 47.554375 15.3446875 48.234375 13.3046875 C53.90615433 3.43159014 61.40384786 -1.9433928 72.21484375 -5.3125 C82.37866459 -7.23910434 92.18948447 -5.4213046 100.921875 -0.0078125 C108.06479281 5.0996898 111.7646007 10.20854748 115.234375 18.3046875 C125.794375 18.3046875 136.354375 18.3046875 147.234375 18.3046875 C148.554375 15.6646875 149.874375 13.0246875 151.234375 10.3046875 C156.68216658 2.25681357 164.29558259 -2.93633402 173.74609375 -5.33203125 C184.43921173 -6.8931929 193.08697805 -5.12366849 202.484375 0.1171875 C208.62663399 5.00307533 213.46280701 9.81628951 216.234375 17.3046875 C216.234375 17.9646875 216.234375 18.6246875 216.234375 19.3046875 C227.124375 19.3046875 238.014375 19.3046875 249.234375 19.3046875 C249.564375 17.6546875 249.894375 16.0046875 250.234375 14.3046875 C254.2281283 5.81415089 261.33274761 0.03981186 269.74609375 -3.859375 C279.32371798 -7.15987675 289.98791787 -6.86064942 299.234375 -2.6953125 C309.69030277 3.16869447 315.74049878 10.88802337 319.234375 22.3046875 C319.74551015 25.78364893 319.7766417 29.18441744 319.74230957 32.69639587 C319.75166951 34.19215057 319.75166951 34.19215057 319.76121855 35.71812254 C319.77707436 39.0336006 319.76457302 42.34833587 319.75195312 45.66381836 C319.75737755 48.05136033 319.764502 50.43889896 319.77319336 52.82643127 C319.78950503 58.62277551 319.7871649 64.41888682 319.7755428 70.21523803 C319.76648455 74.9293579 319.76529477 79.64341976 319.76963806 84.35754585 C319.77025099 85.03020314 319.77086393 85.70286044 319.77149543 86.39590128 C319.77277442 87.76269091 319.77407128 89.12948053 319.7753858 90.49627013 C319.78677457 103.29363906 319.77370516 116.09089312 319.75218433 128.88824321 C319.73431894 139.85092734 319.73741608 150.81344198 319.75585938 161.77612305 C319.77730333 174.52823583 319.78567181 187.28024805 319.77341032 200.03237635 C319.77213622 201.39425534 319.77087874 202.75613436 319.76963806 204.11801338 C319.76871241 205.12293117 319.76871241 205.12293117 319.76776806 206.14815034 C319.7643254 210.8519597 319.77012009 215.55570489 319.77955627 220.25950432 C319.79114106 226.60028215 319.78304053 232.94074109 319.75997925 239.2814846 C319.75470604 241.60378745 319.75618203 243.92611729 319.76502991 246.24840927 C319.77602376 249.42796271 319.7621747 252.60650574 319.74230957 255.78599548 C319.7556939 257.15178888 319.7556939 257.15178888 319.76934862 258.54517406 C319.64033123 269.25251586 316.00940894 277.52392097 308.58203125 285.14453125 C301.30360953 291.84164808 293.07078229 295.1693131 283.078125 295.3671875 C276.88771973 294.99201142 271.9693435 293.58144538 266.234375 291.3046875 C266.07001953 293.20541016 266.07001953 293.20541016 265.90234375 295.14453125 C265.7427437 296.84380233 265.58255593 298.54301828 265.421875 300.2421875 C265.31649414 301.48838867 265.31649414 301.48838867 265.20898438 302.75976562 C264.45460587 310.51477666 263.11030527 318.74637508 257.234375 324.3046875 C251.3251657 328.203285 246.07260527 328.90963663 239.109375 328.87109375 C238.16304199 328.87729233 237.21670898 328.88349091 236.24169922 328.88987732 C234.251638 328.89694453 232.26151728 328.893856 230.27148438 328.88110352 C227.2423747 328.86722415 224.21635017 328.90137138 221.1875 328.93945312 C219.24479092 328.94040437 217.30207801 328.93854519 215.359375 328.93359375 C214.46331543 328.94685196 213.56725586 328.96011017 212.64404297 328.97377014 C205.04891582 328.86236933 200.25304871 326.24392243 194.859375 320.9921875 C192.76983761 317.53641413 191.51260939 314.35545291 191.234375 310.3046875 C192.171875 307.3671875 192.171875 307.3671875 194.234375 305.3046875 C197.02659131 304.67884591 199.3762082 304.3046875 202.234375 304.3046875 C200.749375 297.8696875 200.749375 297.8696875 199.234375 291.3046875 C198.161875 291.7790625 197.089375 292.2534375 195.984375 292.7421875 C186.55897375 296.2392445 176.04762017 296.34138511 166.82421875 292.23046875 C157.18087844 287.12706494 150.67443698 280.65228987 147.19140625 270.1640625 C145.92475306 265.33531888 145.234375 261.3355489 145.234375 256.3046875 C135.994375 256.3046875 126.754375 256.3046875 117.234375 256.3046875 C116.904375 259.9346875 116.574375 263.5646875 116.234375 267.3046875 C112.91584005 277.77083618 107.77955166 285.73957988 97.97265625 291.08203125 C89.44391727 294.89015579 82.37665019 295.48925354 73.234375 294.3046875 C73.17491699 294.92923828 73.11545898 295.55378906 73.05419922 296.19726562 C72.76556944 299.06974321 72.43779369 301.93649759 72.109375 304.8046875 C72.0165625 305.78695313 71.92375 306.76921875 71.828125 307.78125 C71.01586252 314.55010401 69.410439 319.64845589 64.234375 324.3046875 C58.50094893 328.37565173 54.14169142 328.89824122 47.20703125 328.8359375 C46.25928329 328.8397644 45.31153534 328.84359131 44.33506775 328.84753418 C42.33900892 328.85024523 40.34291406 328.84294084 38.34692383 328.82617188 C35.30924366 328.80477462 32.27393481 328.82598887 29.23632812 328.8515625 C27.28905733 328.84891862 25.341788 328.84379238 23.39453125 328.8359375 C22.49533463 328.84403442 21.596138 328.85213135 20.66969299 328.86047363 C14.76959352 328.77374057 10.11861244 327.74791035 5.234375 324.3046875 C1.3425596 320.19008381 -0.76177189 315.9262649 -1.765625 310.3046875 C-1.59208479 306.83388335 -1.40290367 304.34445797 0.421875 301.3671875 C3.04080119 299.83195491 5.26352305 300.1066307 8.234375 300.3046875 C7.75451469 294.73578233 6.93522319 289.63401182 5.234375 284.3046875 C4.285625 285.2121875 3.336875 286.1196875 2.359375 287.0546875 C-5.14723982 293.41801028 -14.0323771 295.60075588 -23.765625 295.3046875 C-35.43121583 293.78245231 -43.03426614 288.54116327 -50.94140625 280.13671875 C-55.82064397 272.56188502 -57.36073439 264.67464492 -57.2802887 255.79945374 C-57.28723422 254.80213508 -57.29417975 253.80481642 -57.30133575 252.77727598 C-57.31949251 249.46725021 -57.3093729 246.15795038 -57.29907227 242.84790039 C-57.30613643 240.46183236 -57.31488353 238.0757688 -57.32518005 235.68971252 C-57.34530039 229.90053125 -57.34671576 224.11157473 -57.33855451 218.32236845 C-57.33223413 213.6135232 -57.33341013 208.90473512 -57.33982658 204.19589043 C-57.34072824 203.52365735 -57.34162989 202.85142427 -57.34255887 202.15882049 C-57.34441022 200.79283813 -57.34627279 199.42685578 -57.34814643 198.06087344 C-57.36469451 185.2749207 -57.35603125 172.48907856 -57.33916085 159.7031325 C-57.32446659 148.02682846 -57.33909361 136.35078181 -57.36793102 124.6745109 C-57.39738137 112.65978485 -57.40828091 100.64517735 -57.39874882 88.63041681 C-57.39772635 87.26937801 -57.39673174 85.90833918 -57.3957653 84.54730034 C-57.39528891 83.87779084 -57.39481252 83.20828135 -57.3943217 82.51848369 C-57.39216499 77.82062152 -57.4019218 73.12287257 -57.41653633 68.42503548 C-57.43493318 62.09075769 -57.42888501 55.75695707 -57.40433693 49.4227047 C-57.39934198 47.10404318 -57.40278436 44.78534506 -57.41548538 42.46671295 C-57.48975953 27.73745698 -57.46915343 15.23297565 -46.640625 3.984375 C-33.53558724 -7.75555466 -14.99892377 -9.19425553 0 0 Z " fill="#40507C" transform="translate(124.765625,177.6953125)"/>
<path d="M0 0 C6.72929426 3.06353085 11.04260415 8.54423361 13.86112905 15.27048039 C15.06467 19.14357707 14.91909556 23.03015227 14.88876343 27.05429077 C14.89578339 28.4931893 14.89578339 28.4931893 14.90294516 29.96115649 C14.91488319 33.16614071 14.90544234 36.37069641 14.89599609 39.57568359 C14.90006237 41.87735747 14.90540456 44.1790294 14.91192627 46.48069763 C14.92560047 52.72660469 14.92030028 58.97236304 14.91078901 65.21827269 C14.9031912 71.75771198 14.91023854 78.29713858 14.91494751 84.83657837 C14.92135469 96.52394894 14.9114328 108.21125701 14.8961695 119.89861675 C14.88277308 130.48387697 14.88508974 141.06903845 14.89892578 151.65429688 C14.91500117 163.95845384 14.92094481 176.26254789 14.91208899 188.56671393 C14.90741614 195.07546904 14.90677686 201.58415623 14.91669846 208.09290695 C14.92537787 214.2144426 14.91932812 220.33579222 14.90201569 226.45730782 C14.89805574 228.70143513 14.89917643 230.94557815 14.90580368 233.18969917 C14.91402874 236.25829832 14.90368549 239.32630529 14.88876343 242.39486694 C14.89880168 243.7199406 14.89880168 243.7199406 14.90904272 245.07178342 C14.83111212 253.36168235 13.06185852 260.7156118 7.21875 266.84375 C1.25875781 272.09616321 -4.49235773 273.07012596 -12.37109375 272.796875 C-19.48060886 271.78250113 -23.77775205 267.51055868 -28.265625 262.1953125 C-31.82359003 256.84703385 -31.78279149 251.91888363 -31.76634216 245.69952393 C-31.77157884 244.72154933 -31.77681552 243.74357473 -31.78221089 242.73596454 C-31.79722411 239.45577103 -31.79791634 236.17573333 -31.79858398 232.89550781 C-31.8062046 230.54486833 -31.81463193 228.19423134 -31.82380676 225.84359741 C-31.84576895 219.45505839 -31.85455307 213.06656724 -31.85963321 206.67799473 C-31.86327491 202.68663781 -31.86951402 198.69529347 -31.8766346 194.70394135 C-31.89619769 183.64625484 -31.91260355 172.58857727 -31.91551113 161.53087234 C-31.9156987 160.82358531 -31.91588627 160.11629827 -31.91607952 159.38757829 C-31.91644577 157.9538242 -31.91680947 156.52007011 -31.91717064 155.08631602 C-31.91735345 154.37462861 -31.91753626 153.6629412 -31.91772461 152.9296875 C-31.91790516 152.21712826 -31.91808571 151.50456901 -31.91827173 150.77041706 C-31.92181247 139.22751498 -31.94882981 127.68479956 -31.9862225 116.1419622 C-32.0243332 104.28227032 -32.04366881 92.42267098 -32.04397064 80.56291652 C-32.0445546 73.90763774 -32.05352197 67.25255534 -32.08196831 60.59732819 C-32.10813114 54.33621882 -32.11036359 48.07555021 -32.09431267 41.81441116 C-32.09249676 39.5186708 -32.09920155 37.2229052 -32.11513138 34.92721939 C-32.13558246 31.78813727 -32.12504456 28.65059865 -32.10691833 25.51153564 C-32.1201183 24.60733423 -32.13331827 23.70313281 -32.14691824 22.77153134 C-32.04927915 15.34647349 -29.6298786 9.47229311 -24.32421875 4.1953125 C-23.65777344 3.751875 -22.99132812 3.3084375 -22.3046875 2.8515625 C-21.63050781 2.3875 -20.95632813 1.9234375 -20.26171875 1.4453125 C-14.50432179 -2.11334346 -6.42728235 -1.67230231 0 0 Z " fill="#84D8F8" transform="translate(315.4921875,186.6484375)"/>
<path d="M0 0 C5.73268086 3.62521977 10.02362642 8.39900425 12.19140625 14.90234375 C12.28280236 16.25975872 12.32048047 17.62120596 12.32283401 18.98169231 C12.32667516 19.81526341 12.3305163 20.64883451 12.33447385 21.50766534 C12.33360737 22.4234065 12.33274088 23.33914766 12.33184814 24.28263855 C12.33481927 25.25552631 12.33779039 26.22841407 12.34085155 27.23078328 C12.34955471 30.50567077 12.35104817 33.78052177 12.35253906 37.05541992 C12.35716613 39.39753294 12.36219064 41.73964521 12.36758423 44.08175659 C12.3807219 50.45587947 12.38715598 56.82999181 12.39159489 63.20412612 C12.39452372 67.18507451 12.39862819 71.16602 12.40309906 75.14696693 C12.41529279 86.17112036 12.42559126 97.19527185 12.42897415 108.21943188 C12.4293035 109.27789372 12.4293035 109.27789372 12.4296395 110.35773863 C12.42996692 111.41872552 12.42996692 111.41872552 12.43030095 112.5011465 C12.43074442 113.93443946 12.43119098 115.36773243 12.43164062 116.80102539 C12.43186205 117.51198733 12.43208348 118.22294928 12.43231162 118.95545552 C12.4362578 130.47000643 12.45370581 141.98449398 12.47700015 153.49902042 C12.50072838 165.32360631 12.51317671 177.14816043 12.51434207 188.97277051 C12.51525811 195.61066935 12.52131159 202.24849527 12.53916168 208.88637352 C12.55562901 215.13176903 12.55780425 221.37700798 12.54902267 227.62241745 C12.54825156 229.91373298 12.55260479 232.20505687 12.56248093 234.49635124 C12.57518175 237.62679769 12.56933336 240.75668808 12.55889893 243.88713074 C12.56695533 244.79171829 12.57501173 245.69630584 12.58331227 246.62830514 C12.53247534 253.15942238 11.47843073 258.63103025 7.6484375 264.109375 C1.88732239 269.73364652 -3.18917654 271.96410139 -11.24609375 272.40234375 C-18.00454667 272.17768604 -22.91495626 269.87049552 -27.62890625 265.03515625 C-33.34241569 257.94157206 -34.10678259 251.03510729 -34.08274841 242.2063446 C-34.08798509 241.24778448 -34.09322177 240.28922436 -34.09861714 239.30161697 C-34.11358367 236.09906601 -34.11432156 232.89667529 -34.11499023 229.6940918 C-34.1226139 227.39404024 -34.13104176 225.09399122 -34.14021301 222.79394531 C-34.16214298 216.55214698 -34.1709548 210.31039763 -34.17603946 204.06856513 C-34.17968447 200.16730975 -34.18592526 196.26606717 -34.19304085 192.36481667 C-34.21249028 181.5515329 -34.2290077 170.73826219 -34.23191738 159.92496014 C-34.23210495 159.23383296 -34.23229252 158.54270578 -34.23248577 157.83063536 C-34.23285201 156.42972362 -34.23321571 155.02881188 -34.23357689 153.62790015 C-34.2337597 152.93254124 -34.23394251 152.23718234 -34.23413086 151.52075195 C-34.23431141 150.8245391 -34.23449196 150.12832624 -34.23467798 149.41101602 C-34.23821939 138.13080907 -34.26524378 126.85079303 -34.30262875 115.57065227 C-34.34075295 103.97418174 -34.35963449 92.37781503 -34.36037689 80.78128082 C-34.36116957 74.27632909 -34.36990495 67.77162389 -34.39837456 61.26672935 C-34.42455771 55.14758147 -34.42675851 49.02888447 -34.41071892 42.90970612 C-34.40890473 40.66759826 -34.41559232 38.42546445 -34.43153763 36.18341255 C-34.45202571 33.11484216 -34.44142948 30.04784542 -34.42332458 26.97929382 C-34.43652455 26.09882423 -34.44972452 25.21835463 -34.46332449 24.31120414 C-34.36473694 16.96081159 -32.08056555 10.36872473 -26.96529192 4.94951934 C-19.47557235 -1.79078057 -9.58435844 -3.74576457 0 0 Z " fill="#84D8F8" transform="translate(215.80859375,187.09765625)"/>
<path d="M0 0 C5.88633784 3.50436639 10.58253939 8.96144975 12.625 15.5 C12.92209275 18.68965556 12.90770184 21.86771694 12.89915466 25.06938171 C12.90700968 26.52303461 12.90700968 26.52303461 12.91502339 28.00605422 C12.93003575 31.25627507 12.93072882 34.50633865 12.93139648 37.7565918 C12.93901721 40.0859046 12.94744456 42.41521489 12.95661926 44.74452209 C12.97858159 51.07527891 12.9873657 57.40598741 12.99244571 63.73677802 C12.99608768 67.69263072 13.00232697 71.64847075 13.0094471 75.60431862 C13.02890415 86.56506816 13.04541613 97.52580717 13.04832363 108.48657513 C13.04860499 109.5382255 13.04860499 109.5382255 13.04889202 110.61112135 C13.04925827 112.03232149 13.04962197 113.45352164 13.04998314 114.87472179 C13.05025735 115.93289783 13.05025735 115.93289783 13.05053711 117.01245117 C13.05071766 117.71876688 13.05089821 118.42508258 13.05108423 119.15280179 C13.05462408 130.59156469 13.08163543 142.03013912 13.119035 153.46883669 C13.15715863 165.22344234 13.17648141 176.97795458 13.17678314 188.7326234 C13.17757599 195.32814745 13.18631855 201.92342842 13.21478081 208.5188961 C13.24096326 214.72501776 13.24316511 220.93069484 13.22712517 227.13684654 C13.22531077 229.41120371 13.23200045 231.68558645 13.24794388 233.95988846 C13.26842783 237.07234922 13.25783788 240.18325793 13.23973083 243.29570007 C13.2529308 244.18920675 13.26613077 245.08271344 13.27973074 246.00329608 C13.18190806 253.39881262 10.91252555 259.96179317 5.81099504 265.45232695 C-0.05845471 270.84023674 -5.51442283 271.97247523 -13.37109375 271.80859375 C-20.32933318 271.09376811 -24.63076962 267.80477692 -29.05078125 262.57421875 C-33.10493651 256.22390476 -33.81201035 251.06546001 -33.76268005 243.676651 C-33.76806559 242.70442909 -33.77345113 241.73220718 -33.77899987 240.730524 C-33.79327579 237.48175926 -33.78617649 234.23340217 -33.77905273 230.98461914 C-33.78475646 228.65176567 -33.79172073 226.318915 -33.79985046 223.98606873 C-33.81779621 217.65552924 -33.81661081 211.32512826 -33.81090808 204.99457097 C-33.80742741 199.03974899 -33.81537879 193.08494821 -33.82226873 187.13013082 C-33.83598656 174.61616373 -33.83056109 162.1022592 -33.81908352 149.58829354 C-33.80915128 138.14832904 -33.82209284 126.70852627 -33.84601771 115.2685867 C-33.87041959 103.51166062 -33.88001395 91.75480984 -33.87336498 79.99785894 C-33.86999337 73.40135961 -33.87242433 66.80499391 -33.88961601 60.20851326 C-33.9050762 54.00568554 -33.90113948 47.80316681 -33.88231087 41.60035133 C-33.87862253 39.32516286 -33.88174053 37.04995153 -33.89219666 34.77478409 C-33.90539089 31.66627721 -33.8938721 28.55879558 -33.87620544 25.45033264 C-33.88581045 24.55236452 -33.89541546 23.65439639 -33.90531152 22.72921711 C-33.82007882 15.42846595 -31.75503665 10.33031385 -27.0625 4.75 C-19.11231425 -1.90596947 -10.03780432 -4.38297888 0 0 Z " fill="#84D8F8" transform="translate(114.375,187.5)"/>
<path d="M0 0 C7.23628979 3.41099919 11.80565097 8.83934115 14.546875 16.27734375 C15.08543998 19.59818208 15.09243546 22.84844715 15.0615387 26.20748901 C15.07195699 27.66498682 15.07195699 27.66498682 15.08258575 29.15192902 C15.10081543 32.39302653 15.09060236 35.63338874 15.08032227 38.87451172 C15.08738279 41.20426988 15.09612836 43.53402345 15.10643005 45.86376953 C15.12891963 52.18202281 15.12598501 58.50002553 15.11710858 64.81830359 C15.11134849 70.76486109 15.12104416 76.71138227 15.12939643 82.65793373 C15.14595931 95.15577009 15.13726905 107.65349342 15.12041085 120.15132298 C15.10571957 131.57051003 15.12033677 142.98943382 15.14918102 154.40858696 C15.17861644 166.14974605 15.18953497 177.89078381 15.17999882 189.63197815 C15.1750731 196.21737407 15.17726628 202.80256545 15.19778633 209.38793564 C15.21616272 215.58181876 15.21015997 221.77521345 15.18558693 227.96907043 C15.18058525 230.23858014 15.18405197 232.50812719 15.19673538 234.77760696 C15.21271559 237.88337274 15.19766699 240.98753989 15.17506409 244.0932312 C15.18689982 244.98469152 15.19873554 245.87615185 15.21092993 246.79462612 C15.10222081 254.18095184 12.82781702 260.74597748 7.73292261 266.22974956 C1.86323341 271.61743661 -3.59243412 272.74982135 -11.44921875 272.5859375 C-18.40745818 271.87111186 -22.70889462 268.58212067 -27.12890625 263.3515625 C-31.18306151 257.00124851 -31.89013535 251.84280376 -31.84080505 244.45399475 C-31.84619059 243.48177284 -31.85157613 242.50955093 -31.85712487 241.50786775 C-31.87140079 238.25910301 -31.86430149 235.01074592 -31.85717773 231.76196289 C-31.86288146 229.42910942 -31.86984573 227.09625875 -31.87797546 224.76341248 C-31.89592121 218.43287299 -31.89473581 212.10247201 -31.88903308 205.77191472 C-31.88555241 199.81709274 -31.89350379 193.86229196 -31.90039373 187.90747457 C-31.91411156 175.39350748 -31.90868609 162.87960295 -31.89720852 150.36563729 C-31.88727628 138.92567279 -31.90021784 127.48587002 -31.92414271 116.04593045 C-31.94854459 104.28900437 -31.95813895 92.53215359 -31.95148998 80.77520269 C-31.94811837 74.17870336 -31.95054933 67.58233766 -31.96774101 60.98585701 C-31.9832012 54.78302929 -31.97926448 48.58051056 -31.96043587 42.37769508 C-31.95674753 40.10250661 -31.95986553 37.82729528 -31.97032166 35.55212784 C-31.98351589 32.44362096 -31.9719971 29.33613933 -31.95433044 26.22767639 C-31.96393545 25.32970827 -31.97354046 24.43174014 -31.98343652 23.50656086 C-31.90223479 16.5510886 -30.12064916 11.26788841 -25.453125 6.03515625 C-24.793125 5.49632812 -24.133125 4.9575 -23.453125 4.40234375 C-22.793125 3.84804687 -22.133125 3.29375 -21.453125 2.72265625 C-15.14290582 -1.83746308 -7.45464912 -2.19603517 0 0 Z " fill="#84D9F9" transform="translate(416.453125,186.72265625)"/>
<path d="M0 0 C9.9 0 19.8 0 30 0 C30 69.3 30 138.6 30 210 C20.1 210 10.2 210 0 210 C0 140.7 0 71.4 0 0 Z " fill="#FBFBFC" transform="translate(342,210)"/>
<path d="M0 0 C9.9 0 19.8 0 30 0 C30 69.3 30 138.6 30 210 C20.1 210 10.2 210 0 210 C0 140.7 0 71.4 0 0 Z " fill="#FDFDFD" transform="translate(241,211)"/>
<path d="M0 0 C9.9 0 19.8 0 30 0 C30 69.3 30 138.6 30 210 C20.1 210 10.2 210 0 210 C0 140.7 0 71.4 0 0 Z " fill="#FBFBFC" transform="translate(140,211)"/>
<path d="M0 0 C9.9 0 19.8 0 30 0 C30.66 3.96 31.32 7.92 32 12 C34.63464 21.19060465 39.12446979 28.23232898 47.25390625 33.4453125 C49 35 49 35 49.2421875 36.98828125 C49.06042969 38.13876953 49.06042969 38.13876953 48.875 39.3125 C48.74480469 40.19292969 48.61460937 41.07335937 48.48046875 41.98046875 C48.24263672 43.47513672 48.24263672 43.47513672 48 45 C47.87238281 46.15113281 47.74476563 47.30226563 47.61328125 48.48828125 C45.85620623 63.49595872 45.85620623 63.49595872 40.2890625 68.5546875 C36.24661315 71.57373195 32.85362472 73.10541281 27.74731445 73.19287109 C26.46501701 73.21696548 26.46501701 73.21696548 25.15681458 73.24154663 C21.24265504 73.28623053 17.32866204 73.32707753 13.41430664 73.35009766 C11.35527216 73.36662828 9.29629438 73.39387988 7.23754883 73.43212891 C4.25832554 73.48715351 1.28044562 73.5088125 -1.69921875 73.5234375 C-2.61096359 73.54610687 -3.52270844 73.56877625 -4.46208191 73.59213257 C-12.15394607 73.56695287 -16.91506296 71.00375448 -22.375 65.6875 C-24.46453739 62.23172663 -25.72176561 59.05076541 -26 55 C-25.0625 52.0625 -25.0625 52.0625 -23 50 C-20.20778369 49.37415841 -17.8581668 49 -15 49 C-15.15597656 48.26394531 -15.31195313 47.52789062 -15.47265625 46.76953125 C-15.66730469 45.79371094 -15.86195313 44.81789063 -16.0625 43.8125 C-16.25972656 42.84957031 -16.45695312 41.88664062 -16.66015625 40.89453125 C-17.01585089 37.86499418 -16.97789297 35.88550684 -16 33 C-14.328125 31.296875 -14.328125 31.296875 -12.25 29.75 C-6.31282395 24.87683399 -3.80887452 19.02218629 -1 12 C-0.67 8.04 -0.34 4.08 0 0 Z " fill="#C0D3E9" transform="translate(342,433)"/>
<path d="M0 0 C9.9 0 19.8 0 30 0 C30.66 4.62 31.32 9.24 32 14 C35.89604924 24.15334045 42.30910454 30.69587068 52.17578125 35.30859375 C54.09457233 36.03584433 56.00045507 36.54535733 58 37 C57.71358717 40.33897064 57.36166817 43.6683979 57 47 C56.90074219 48.08152344 56.80148438 49.16304688 56.69921875 50.27734375 C55.8685862 57.46776892 54.60892219 63.09645951 49 68 C43.21711678 72.00255504 38.92165714 72.59368257 31.97265625 72.53125 C31.02490829 72.5350769 30.07716034 72.53890381 29.10069275 72.54284668 C27.10463392 72.54555773 25.10853906 72.53825334 23.11254883 72.52148438 C20.07486866 72.50008712 17.03955981 72.52130137 14.00195312 72.546875 C12.05468233 72.54423112 10.107413 72.53910488 8.16015625 72.53125 C6.81136131 72.54339539 6.81136131 72.54339539 5.43531799 72.55578613 C-0.46478148 72.46905307 -5.11576256 71.44322285 -10 68 C-13.8918154 63.88539631 -15.99614689 59.6215774 -17 54 C-16.82645979 50.52919585 -16.63727867 48.03977047 -14.8125 45.0625 C-12.19357381 43.52726741 -9.97085195 43.8019432 -7 44 C-7.2165625 42.081875 -7.2165625 42.081875 -7.4375 40.125 C-7.56318359 38.89330078 -7.56318359 38.89330078 -7.69140625 37.63671875 C-7.89433328 35.90284852 -8.15093779 34.17428149 -8.46484375 32.45703125 C-9.22068562 27.81400264 -9.42971229 24.98747607 -6.75 21 C-6.2859375 20.36191406 -5.821875 19.72382813 -5.34375 19.06640625 C-1.67559493 13.42555151 -0.93072723 6.51509059 0 0 Z " fill="#C1D4E9" transform="translate(140,434)"/>
<path d="M0 0 C2.0625 1.5625 2.0625 1.5625 3 4 C3.25 7.375 3.25 7.375 2 11 C-0.77066958 13.38312289 -3.86040446 15.14549681 -7 17 C-12.33343783 20.79494615 -15.81087739 24.82387961 -18 31 C-19.84741796 43.06444248 -14.8809244 51.57463834 -8 61 C-7.06710126 62.20178704 -6.13059226 63.40077623 -5.19140625 64.59765625 C6.03965271 78.99572108 13.45315644 92.1493317 12 111 C10.45401748 117.77207559 7.9113393 123.0886607 3 128 C-0.04983996 129.52491998 -2.6423369 129.23562548 -6 129 C-7.9375 127.9375 -7.9375 127.9375 -9 126 C-9.69749032 121.46631289 -9.21630291 118.88071006 -6.5625 115.25 C-6.11003906 114.69828125 -5.65757812 114.1465625 -5.19140625 113.578125 C-2.00424317 109.35644013 -2.53165724 104.00497634 -3 99 C-5.28226833 88.03197668 -12.67853596 79.48998791 -19.44140625 70.8984375 C-29.57856766 57.896799 -34.60714899 45.45825703 -33 29 C-30.43381597 17.59619238 -22.49019867 8.63867848 -12.875 2.3125 C-8.30000922 -0.17312491 -5.14603675 -0.90281347 0 0 Z " fill="#3F4E7B" transform="translate(198,6)"/>
<path d="M0 0 C2 1.0625 2 1.0625 3 3 C3.5 6.4375 3.5 6.4375 3 10 C0.85930868 12.27880044 -1.4484618 13.67353805 -4.125 15.2578125 C-10.88451233 19.43683533 -15.45033688 24.35101065 -18 32 C-19.5652652 45.9847465 -11.94282047 55.39351515 -4 66 C7.03847536 80.77225256 13.65807753 93.06086916 12 112 C10.59808116 118.34468413 7.42403416 125.13275013 2 129 C-1.12117395 129.85876703 -2.68504939 129.59777798 -6 129 C-8.0625 127.4375 -8.0625 127.4375 -9 125 C-8.90196663 119.60816447 -7.52652165 116.96733685 -4 113 C-1.54175264 105.62525792 -2.36346615 97.61667224 -5.5546875 90.609375 C-9.36228926 83.73511021 -14.11862741 77.47400875 -18.85546875 71.22265625 C-28.51701722 58.41805736 -34.34093258 47.50669119 -33 31 C-30.06525784 18.22129414 -22.34428804 8.62734369 -11.5 1.5625 C-7.12523848 -0.39051854 -4.73981787 -0.55297875 0 0 Z " fill="#3F4E7B" transform="translate(335,6)"/>
<path d="M0 0 C2.1595457 1.43969714 2.79150161 2.51884987 3.8125 4.875 C4.07002584 7.79362617 3.33377449 9.40033776 2 12 C-0.13671875 13.51953125 -0.13671875 13.51953125 -2.6875 14.8125 C-9.82979619 18.84810377 -15.08840532 24.11072649 -17.5625 32.07421875 C-19.61145873 41.09329602 -15.6272646 48.59013882 -11 56.125 C-8.344968 60.17922814 -5.47694823 64.02654209 -2.52685547 67.86645508 C7.46205892 80.88273169 14.7697221 93.41848688 12.72265625 110.28515625 C11.46289107 117.27985247 7.94120806 124.80620607 2 129 C-3.86310905 129.72003094 -3.86310905 129.72003094 -6.875 127.8125 C-8.35405406 125.42957957 -8.86591307 123.81582552 -9 121 C-7.75 118.5 -7.75 118.5 -6 116 C-2.49981742 110.48048131 -1.475823 106.60463021 -2 100 C-4.55326081 89.21764862 -11.30385544 80.875134 -17.85546875 72.2265625 C-26.55409935 60.69034026 -34.85437971 48.1595541 -33 33 C-31.2268954 24.79939123 -28.6925071 18.19881182 -23 12 C-22.46375 11.38511719 -21.9275 10.77023438 -21.375 10.13671875 C-15.68858666 3.98960062 -8.77364751 -1.4037836 0 0 Z " fill="#3F4F7B" transform="translate(266,6)"/>
<path d="M0 0 C3.625 0.375 3.625 0.375 6.125 1.8125 C8.45113303 5.78631059 7.72680758 9.02500643 6.625 13.375 C4.56671398 19.57199016 1.36646832 23.27114357 -4.375 26.375 C-7.10726257 27.28575419 -8.8071648 27.51956265 -11.62768555 27.56787109 C-12.48255051 27.58393402 -13.33741547 27.59999695 -14.21818542 27.61654663 C-18.13234496 27.66123053 -22.04633796 27.70207753 -25.96069336 27.72509766 C-28.01972784 27.74162828 -30.07870562 27.76887988 -32.13745117 27.80712891 C-35.11667446 27.86215351 -38.09455438 27.8838125 -41.07421875 27.8984375 C-41.98596359 27.92110687 -42.89770844 27.94377625 -43.83708191 27.96713257 C-51.52894607 27.94195287 -56.29006296 25.37875448 -61.75 20.0625 C-63.83953739 16.60672663 -65.09676561 13.42576541 -65.375 9.375 C-64.4375 6.4375 -64.4375 6.4375 -62.375 4.375 C-58.875 3.375 -58.875 3.375 -55.375 3.375 C-52.11447446 5.35460479 -51.03618154 9.05263692 -49.375 12.375 C-46.24135021 13.94182489 -42.88766593 13.58002344 -39.4453125 13.61328125 C-38.26520096 13.62538887 -38.26520096 13.62538887 -37.06124878 13.63774109 C-35.39518436 13.65157904 -33.72909161 13.6623025 -32.06298828 13.67016602 C-29.516706 13.68738701 -26.97171963 13.73127417 -24.42578125 13.77539062 C-22.80730122 13.78551702 -21.18881015 13.79403329 -19.5703125 13.80078125 C-18.8097757 13.81828934 -18.04923889 13.83579742 -17.26565552 13.85383606 C-13.78536179 13.83957558 -11.77152662 13.66730062 -8.93310547 11.57495117 C-6.88840616 8.68795877 -6.25714437 5.77755685 -5.375 2.375 C-3.375 0.375 -3.375 0.375 0 0 Z " fill="#404F7C" transform="translate(381.375,478.625)"/>
<path d="M0 0 C2.76246812 2.15160294 3.6070005 4.24828172 4.5625 7.5625 C5.60178953 11.15239564 5.60178953 11.15239564 8 14 C10.76160397 14.212112 13.42038052 14.30397075 16.18359375 14.30078125 C17.40055687 14.30720894 17.40055687 14.30720894 18.6421051 14.31376648 C20.35945705 14.319514 22.07683335 14.32000694 23.79418945 14.31567383 C26.4237622 14.3125165 29.05220731 14.33595748 31.68164062 14.36132812 C33.34895691 14.36360132 35.01627623 14.36430452 36.68359375 14.36328125 C37.86495155 14.37709587 37.86495155 14.37709587 39.07017517 14.39118958 C43.24777772 14.40510842 43.24777772 14.40510842 46.91821289 12.64135742 C48.35127851 10.46701751 49.69530767 8.25355948 51 6 C52 5 52 5 55.375 4.75 C59 5 59 5 60.9375 6 C62.70893707 9.33446979 62.78306369 12.39919075 62 16 C59.09114855 21.70423705 54.95644487 25.56783352 49 28 C45.6495945 28.5572941 42.3635126 28.56171479 38.97265625 28.53125 C38.02490829 28.5350769 37.07716034 28.53890381 36.10069275 28.54284668 C34.10463392 28.54555773 32.10853906 28.53825334 30.11254883 28.52148438 C27.07486866 28.50008712 24.03955981 28.52130137 21.00195312 28.546875 C19.05468233 28.54423112 17.107413 28.53910488 15.16015625 28.53125 C13.81136131 28.54339539 13.81136131 28.54339539 12.43531799 28.55578613 C6.53521852 28.46905307 1.88423744 27.44322285 -3 24 C-6.8918154 19.88539631 -8.99614689 15.6215774 -10 10 C-9.82645979 6.52919585 -9.63727867 4.03977047 -7.8125 1.0625 C-5.08912093 -0.5339636 -3.09046979 -0.38630872 0 0 Z " fill="#404F7C" transform="translate(133,478)"/>
</svg>
