<?xml version="1.0" encoding="UTF-8"?>
<svg version="1.1" xmlns="http://www.w3.org/2000/svg" width="512" height="512">
<path d="M0 0 C1.12921875 -0.03996094 2.2584375 -0.07992188 3.421875 -0.12109375 C12.12181389 1.14838713 18.9577104 6.38377344 25.625 11.8125 C27.19397681 13.06157545 28.76434099 14.30890978 30.3359375 15.5546875 C31.1412793 16.1950293 31.94662109 16.83537109 32.77636719 17.49511719 C36.87891708 20.71658254 41.06512378 23.82422172 45.25 26.9375 C52.47921025 32.32973399 59.62743095 37.81395683 66.73120117 43.37011719 C72.29403658 47.71382771 77.91855703 51.9676974 83.57446289 56.18920898 C88.6157513 59.95373018 93.60945093 63.77625518 98.58984375 67.62109375 C103.21140949 71.18390556 107.8568986 74.7153324 112.5 78.25 C119.59792869 83.65398301 126.69185196 89.06304403 133.77392578 94.48779297 C137.75042121 97.53207659 141.73498481 100.56535486 145.7265625 103.58984375 C147.13325195 104.6571875 147.13325195 104.6571875 148.56835938 105.74609375 C150.38861058 107.12679926 152.21014875 108.50581037 154.03320312 109.8828125 C157.8343275 112.76803854 161.62245087 115.67154095 165.32421875 118.68359375 C166.15312622 119.35346313 166.15312622 119.35346313 166.9987793 120.03686523 C168.25 121.4375 168.25 121.4375 168.9375 125.0625 C168.11326227 129.10875795 167.62803716 130.09069304 164.25 132.4375 C160.76376465 132.99835942 157.31974487 132.9019216 153.796875 132.828125 C152.78151672 132.82246521 151.76615845 132.81680542 150.72003174 132.81097412 C147.47953999 132.78859753 144.2401571 132.73839755 141 132.6875 C138.80209931 132.66743671 136.60418128 132.64918565 134.40625 132.6328125 C129.0204555 132.58872871 123.63530697 132.52180373 118.25 132.4375 C118.25138269 133.45517362 118.25138269 133.45517362 118.25279331 134.4934063 C118.27485577 150.98422338 118.29141509 167.4750358 118.30181217 183.96586418 C118.30697347 191.94062708 118.31401301 199.91538014 118.32543945 207.89013672 C118.33539136 214.83908219 118.34185464 221.78802053 118.34408849 228.73697293 C118.34539474 232.41805027 118.34847515 236.09910724 118.35573006 239.78017807 C118.36375398 243.88454857 118.36399081 247.9888834 118.36352539 252.09326172 C118.36712067 253.32036865 118.37071594 254.54747559 118.37442017 255.81176758 C118.3730455 256.92518524 118.37167084 258.03860291 118.37025452 259.1857605 C118.37163721 260.64311521 118.37163721 260.64311521 118.37304783 262.12991142 C118.25 264.4375 118.25 264.4375 117.25 266.4375 C118.13042969 266.39109375 119.01085937 266.3446875 119.91796875 266.296875 C121.07941406 266.26078125 122.24085938 266.2246875 123.4375 266.1875 C124.58605469 266.14109375 125.73460937 266.0946875 126.91796875 266.046875 C131.03568135 266.52960801 132.56735025 267.27296687 135.25 270.4375 C135.76053434 273.3580101 135.91481013 275.5861463 135.8125 278.5 C135.78651733 279.73327026 135.78651733 279.73327026 135.76000977 280.99145508 C134.78599715 307.96392136 128.23879483 334.29064304 116.25 358.4375 C115.77675293 359.40840576 115.77675293 359.40840576 115.29394531 360.39892578 C107.66285288 375.92602422 97.62445641 389.47208264 86.25 402.4375 C85.18610083 403.72801446 84.12331667 405.01945049 83.0625 406.3125 C80.41105045 409.39575705 77.45217781 412.01613414 74.3515625 414.640625 C72.98627689 415.80796957 71.64557229 417.00492193 70.3359375 418.234375 C35.59792429 450.69228695 -13.84671399 466.78422656 -60.93359375 465.33984375 C-109.27914446 463.09789788 -153.27648888 445.27583357 -188.31787109 411.80224609 C-189.69699053 410.48801533 -191.09235213 409.19089339 -192.48828125 407.89453125 C-225.33796153 376.47103101 -243.53850512 331.30667131 -246.75 286.4375 C-246.8020459 285.7244873 -246.8540918 285.01147461 -246.90771484 284.27685547 C-247.03829064 282.22582551 -247.12327808 280.17908211 -247.1875 278.125 C-247.22746094 276.95324219 -247.26742187 275.78148437 -247.30859375 274.57421875 C-246.54673969 270.29611519 -245.1937907 269.06345594 -241.75 266.4375 C-238.61869248 265.83995318 -235.61058384 265.96221354 -232.4375 266.125 C-231.60154297 266.14755859 -230.76558594 266.17011719 -229.90429688 266.19335938 C-227.85208851 266.2519939 -225.80080798 266.34166785 -223.75 266.4375 C-223.75666183 265.14346252 -223.76332367 263.84942505 -223.77018738 262.51617432 C-223.83095201 250.33247839 -223.87595034 238.14881312 -223.90543652 225.96500015 C-223.92110515 219.70088648 -223.94236552 213.43689494 -223.97631836 207.17285156 C-224.00886872 201.12986802 -224.02684399 195.08700211 -224.03463173 189.04393768 C-224.04018299 186.73620501 -224.05102296 184.42847892 -224.06719017 182.1207962 C-224.08890663 178.89321381 -224.0919693 175.66612004 -224.09057617 172.43847656 C-224.101362 171.48038086 -224.11214783 170.52228516 -224.1232605 169.53515625 C-224.11707451 168.21430023 -224.11707451 168.21430023 -224.11076355 166.86676025 C-224.11491162 165.72189337 -224.11491162 165.72189337 -224.11914349 164.55389786 C-223.6352477 161.7795945 -222.72843983 160.42867713 -220.75 158.4375 C-218.78788471 157.94530869 -218.78788471 157.94530869 -216.516922 157.95648193 C-215.22337044 157.94823395 -215.22337044 157.94823395 -213.90368652 157.93981934 C-212.48920227 157.96139099 -212.48920227 157.96139099 -211.04614258 157.98339844 C-209.55318916 157.98252228 -209.55318916 157.98252228 -208.03007507 157.98162842 C-204.73454115 157.98441901 -201.4399075 158.01555784 -198.14453125 158.046875 C-195.86195876 158.0543339 -193.57937988 158.06002849 -191.29679871 158.06402588 C-185.28458015 158.07930973 -179.27274719 158.11861565 -173.26068115 158.1628418 C-167.12761654 158.20373497 -160.99448972 158.22202418 -154.86132812 158.2421875 C-142.82402195 158.285107 -130.78710334 158.35547975 -118.75 158.4375 C-118.75 149.8575 -118.75 141.2775 -118.75 132.4375 C-122.03582031 132.47230469 -125.32164062 132.50710937 -128.70703125 132.54296875 C-131.88418712 132.566355 -135.06133346 132.58457692 -138.23852539 132.60229492 C-140.44918092 132.61739525 -142.65980643 132.63787709 -144.87036133 132.66381836 C-148.04515993 132.70014655 -151.21956297 132.71721384 -154.39453125 132.73046875 C-155.38524124 132.74595261 -156.37595123 132.76143646 -157.39668274 132.77738953 C-158.31741074 132.77761612 -159.23813873 132.77784271 -160.18676758 132.77807617 C-161.40255241 132.78806892 -161.40255241 132.78806892 -162.64289856 132.79826355 C-165.28799839 132.34538758 -166.13565142 131.5464159 -167.75 129.4375 C-168.76205894 126.11216349 -169.12894172 124.28036669 -167.6875 121.07421875 C-165.22142277 117.71816607 -162.22733147 115.51688049 -158.875 113.125 C-157.42238371 112.06228152 -155.97060293 110.99842033 -154.51953125 109.93359375 C-153.74561035 109.36882324 -152.97168945 108.80405273 -152.17431641 108.22216797 C-147.92971644 105.09749267 -143.74912189 101.88919475 -139.5625 98.6875 C-137.76702544 97.31757941 -135.97145149 95.94778908 -134.17578125 94.578125 C-133.27811035 93.89298828 -132.38043945 93.20785156 -131.45556641 92.50195312 C-127.05562378 89.14462459 -122.6526801 85.79123735 -118.25 82.4375 C-116.50519714 81.10808761 -114.76040549 79.7786605 -113.015625 78.44921875 C-109.46385557 75.74307723 -105.91173441 73.03739824 -102.359375 70.33203125 C-94.31772719 64.20728786 -86.27782762 58.080351 -78.25 51.9375 C-71.1210065 46.48243208 -63.98356566 41.03852093 -56.84130859 35.60083008 C-52.31530921 32.15494563 -47.7917143 28.70600623 -43.2734375 25.25 C-38.9078528 21.91193492 -34.5359978 18.5823127 -30.15673828 15.26220703 C-28.59394801 14.07735265 -27.03235318 12.89091926 -25.47216797 11.70263672 C-23.4252901 10.14726823 -21.37054469 8.60304746 -19.3125 7.0625 C-18.72807129 6.61608154 -18.14364258 6.16966309 -17.54150391 5.7097168 C-11.89796776 1.52388698 -6.97466653 0.1341282 0 0 Z " fill="#118DB5" transform="translate(298.75,24.5625)"/>
<path d="M0 0 C3.31208691 1.51453397 6.04167729 3.42230372 8.9375 5.625 C9.69752319 6.20109009 9.69752319 6.20109009 10.47290039 6.78881836 C12.31791076 8.18909961 14.1588695 9.59462156 16 11 C17.57277113 12.19680587 19.14569802 13.39340705 20.71875 14.58984375 C25.22498634 18.01903418 29.72784811 21.45263112 34.22998047 24.88720703 C38.65191888 28.25997761 43.07604218 31.62987895 47.5 35 C49.24479911 36.32941731 50.98959076 37.65884442 52.734375 38.98828125 C56.28614443 41.69442277 59.83826559 44.40010176 63.390625 47.10546875 C64.2787085 47.7819043 65.16679199 48.45833984 66.08178711 49.15527344 C67.84547043 50.49857108 69.60930247 51.8416735 71.37329102 53.18457031 C75.55078894 56.36614768 79.72385716 59.55319563 83.88671875 62.75390625 C84.6559668 63.34469971 85.42521484 63.93549316 86.21777344 64.54418945 C87.64546965 65.64134227 89.07199983 66.74001499 90.49707031 67.84057617 C97.27894993 73.25314616 97.27894993 73.25314616 105 77 C105.07014026 93.56821108 105.1230127 110.13637385 105.15543652 126.70469761 C105.17089289 134.39799023 105.1919588 142.09119049 105.22631836 149.78442383 C105.25625848 156.49133729 105.27558394 163.19818384 105.28226548 169.90516227 C105.28616996 173.45512961 105.29532013 177.00490559 105.31719017 180.55481148 C105.34142988 184.52168437 105.34196702 188.48837156 105.34057617 192.45532227 C105.351362 193.62704987 105.36214783 194.79877747 105.3732605 196.00601196 C105.36913651 197.09264633 105.36501251 198.1792807 105.36076355 199.29884338 C105.36352893 200.23630685 105.36629431 201.17377031 105.36914349 202.13964176 C104.89025189 205.85039808 103.58948914 208.6179337 102 212 C75.71433865 212.1166821 49.42871597 212.20491403 23.14284801 212.25906086 C10.93848717 212.28486784 -1.26571298 212.3200661 -13.4699707 212.37719727 C-24.10434072 212.42695577 -34.73859439 212.45927285 -45.37307757 212.47044247 C-51.00660931 212.47697401 -56.63980814 212.49237684 -62.27323341 212.52865028 C-67.57147522 212.56249033 -72.86924577 212.57307723 -78.16758537 212.56553841 C-80.11593305 212.56691833 -82.06429586 212.57692191 -84.01255035 212.59602737 C-86.66579807 212.62077843 -89.31724902 212.61497165 -91.97053528 212.60127258 C-93.13638483 212.62311889 -93.13638483 212.62311889 -94.32578689 212.64540654 C-96.47614765 212.61523914 -96.47614765 212.61523914 -100 212 C-102.98686614 208.692837 -103.37339252 205.82042 -103.36076355 201.46342468 C-103.36488754 200.36271133 -103.36901154 199.26199799 -103.3732605 198.12792969 C-103.35708176 196.33150024 -103.35708176 196.33150024 -103.34057617 194.4987793 C-103.34101425 193.23008499 -103.34145233 191.96139069 -103.34190369 190.6542511 C-103.34276315 187.18345532 -103.32514566 183.71297165 -103.30418181 180.2422483 C-103.28540667 176.61210199 -103.28366392 172.98194824 -103.28010559 169.35176086 C-103.27078757 162.48116085 -103.24617714 155.61070432 -103.21605712 148.74016744 C-103.18250551 140.91676233 -103.1660252 133.09335031 -103.15097082 125.26989114 C-103.11962731 109.17984348 -103.06687161 93.08994006 -103 77 C-101.26787313 76.02394613 -99.53574626 75.04789225 -97.80361938 74.07183838 C-95.15899563 72.50021564 -92.78998031 70.65271176 -90.375 68.75 C-89.23881147 67.86260196 -88.10205066 66.97593636 -86.96484375 66.08984375 C-86.3394873 65.60112793 -85.71413086 65.11241211 -85.06982422 64.60888672 C-81.0471958 61.48207364 -76.99074568 58.39945072 -72.9375 55.3125 C-71.5928064 54.28745361 -71.5928064 54.28745361 -70.22094727 53.24169922 C-64.10814345 48.5878984 -57.96721895 43.97315982 -51.8125 39.375 C-44.74871699 34.09628851 -37.76339494 28.72785112 -30.8190918 23.29321289 C-22.63836164 16.90663777 -14.32492872 10.69806283 -6.00439453 4.49536133 C-4.00038198 3.00028497 -1.99960474 1.50096487 0 0 Z " fill="#DEF2FA" transform="translate(298,80)"/>
<path d="M0 0 C33 0 66 0 100 0 C100.1875 49.25 100.1875 49.25 100.20776367 64.73925781 C100.23768074 69.36412988 100.23768074 69.36412988 100.27412415 73.98895264 C100.28711096 76.03172116 100.29048654 78.07456581 100.28596497 80.11737061 C100.09835189 96.72933357 100.09835189 96.72933357 106 112 C106.3564006 112.6011261 106.71280121 113.2022522 107.08000183 113.82159424 C111.31874999 119.76697275 119.9261857 124.58523714 127 126 C138.02957229 127.028998 146.6055762 124.58278749 155.25 117.62890625 C160.75907052 112.50104373 164.51838668 105.88414003 165.26409912 98.32171631 C165.35866689 95.22914901 165.36263206 92.14856722 165.3359375 89.0546875 C165.34844232 86.73827841 165.36147908 84.42187213 165.375 82.10546875 C165.37893783 78.48020518 165.3749205 74.85521807 165.36035156 71.22998047 C165.35178584 67.71279869 165.37344596 64.19676786 165.3984375 60.6796875 C165.38509369 59.59831512 165.37174988 58.51694275 165.35800171 57.40280151 C165.44034717 49.012806 165.44034717 49.012806 168.41259766 45.33251953 C171.23382682 42.78920726 172.08700038 42.08115552 175.8125 41.75 C179.41995442 42.0329376 181.12754237 42.84565678 184 45 C186.17283749 48.25925624 186.24701473 49.15761778 186.23950195 52.92358398 C186.24323318 53.92570419 186.24696442 54.9278244 186.25080872 55.96031189 C186.24667465 57.0446199 186.24254059 58.12892792 186.23828125 59.24609375 C186.25371432 61.55143809 186.27001891 63.85677673 186.28710938 66.16210938 C186.30349016 69.78910925 186.31254283 73.41569119 186.30541992 77.04272461 C186.30277877 80.54848995 186.33108858 84.05299743 186.36328125 87.55859375 C186.34797112 89.15772865 186.34797112 89.15772865 186.33235168 90.78916931 C186.44649954 99.70869793 188.85204324 108.08912325 194.1875 115.375 C202.25184778 122.90172459 210.91916666 126.53006601 221.90625 126.3125 C230.68416446 125.42584197 238.61868663 120.84910985 244.5 114.33984375 C250.06862217 107.06417371 251.44639663 99.84231427 251.43237305 90.91210938 C251.44264684 89.91992653 251.45292063 88.92774368 251.46350574 87.90549469 C251.49321272 84.71818315 251.50290739 81.53118041 251.51171875 78.34375 C251.5271969 76.36620011 251.54399592 74.3886601 251.56213379 72.41113281 C251.6199083 65.10753083 251.65217921 57.80374508 251.6875 50.5 C251.790625 34.165 251.89375 17.83 252 1 C285 1 318 1 352 1 C352 33.93970445 341.0489893 68.54647245 321 95 C319.90171875 96.51787109 319.90171875 96.51787109 318.78125 98.06640625 C291.21478905 135.62236524 249.84258671 161.03871079 203.77124023 168.59399414 C158.03722514 175.29434363 109.89584045 164.76782308 72.57348633 137.12792969 C67.21805043 133.02643782 62.16300966 128.59120116 57.20703125 124.01953125 C55.28517848 122.26095093 53.32352511 120.59180225 51.3125 118.9375 C47.4503141 115.63218741 44.21484793 111.92925858 41 108 C40.24847656 107.08605469 39.49695313 106.17210937 38.72265625 105.23046875 C23.56073842 86.18824968 13.08078064 65.20922542 6 42 C5.53980469 40.55947266 5.53980469 40.55947266 5.0703125 39.08984375 C3.34509816 33.336165 2.30118458 27.47896921 1.3125 21.5625 C1.18077393 20.79945557 1.04904785 20.03641113 0.91333008 19.25024414 C-0.12626281 12.62975261 0 6.92012261 0 0 Z " fill="#95D8EF" transform="translate(67,305)"/>
<path d="M0 0 C33 0 66 0 100 0 C100 32.90184658 89.07681194 67.59761717 69 94 C68.17830182 95.10410446 67.3566922 96.20827483 66.53515625 97.3125 C62.35856798 102.86150737 62.35856798 102.86150737 60.32397461 105.3371582 C58.951078 107.01268866 58.951078 107.01268866 57.69360352 108.96557617 C52.72669122 115.76498845 45.97407863 117.76344295 38.25170898 120.13842773 C36.08969286 120.80412713 33.94263965 121.50647947 31.79492188 122.21679688 C22.29883122 125.29612293 12.84227325 127.35200415 3 129 C1.30157959 129.31831787 1.30157959 129.31831787 -0.43115234 129.64306641 C-31.34184601 135.35967338 -66.01777056 129.44676289 -95 118 C-94.35460508 114.80203193 -93.20384362 112.37275303 -91.5625 109.5625 C-88.68431872 104.62233809 -86.7491053 100.55358216 -86.76049805 94.75415039 C-86.7549012 93.22214745 -86.7549012 93.22214745 -86.74919128 91.65919495 C-86.75332535 90.56638718 -86.75745941 89.47357941 -86.76171875 88.34765625 C-86.74630292 86.02147852 -86.72999957 83.69530652 -86.71289062 81.36914062 C-86.69642198 77.71088984 -86.68751822 74.05306029 -86.69458008 70.39477539 C-86.69719886 66.85775268 -86.66909114 63.32200826 -86.63671875 59.78515625 C-86.64692551 58.69437271 -86.65713226 57.60358917 -86.66764832 56.47975159 C-86.55858924 48.00749771 -86.55858924 48.00749771 -83.58520508 44.32592773 C-80.76524586 41.78879 -79.90881948 41.08078395 -76.1875 40.75 C-72.58004558 41.0329376 -70.87245763 41.84565678 -68 44 C-65.82716251 47.25925624 -65.75298527 48.15761778 -65.76049805 51.92358398 C-65.75676682 52.92570419 -65.75303558 53.9278244 -65.74919128 54.96031189 C-65.75332535 56.0446199 -65.75745941 57.12892792 -65.76171875 58.24609375 C-65.74628568 60.55143809 -65.72998109 62.85677673 -65.71289062 65.16210938 C-65.69650984 68.78910925 -65.68745717 72.41569119 -65.69458008 76.04272461 C-65.69722123 79.54848995 -65.66891142 83.05299743 -65.63671875 86.55859375 C-65.64692551 87.62468369 -65.65713226 88.69077362 -65.66764832 89.78916931 C-65.55350046 98.70869793 -63.14795676 107.08912325 -57.8125 114.375 C-49.74815222 121.90172459 -41.08083334 125.53006601 -30.09375 125.3125 C-21.31583554 124.42584197 -13.38131337 119.84910985 -7.5 113.33984375 C-1.93137783 106.06417371 -0.55360337 98.84231427 -0.56762695 89.91210938 C-0.55735316 88.91992653 -0.54707937 87.92774368 -0.53649426 86.90549469 C-0.50678728 83.71818315 -0.49709261 80.53118041 -0.48828125 77.34375 C-0.4728031 75.36620011 -0.45600408 73.3886601 -0.43786621 71.41113281 C-0.3800917 64.10753083 -0.34782079 56.80374508 -0.3125 49.5 C-0.209375 33.165 -0.10625 16.83 0 0 Z " fill="#C6E9F5" transform="translate(319,306)"/>
<path d="M0 0 C40.92 0 81.84 0 124 0 C124.103125 16.005 124.20625 32.01 124.3125 48.5 C124.35802002 53.54345703 124.40354004 58.58691406 124.45043945 63.78320312 C124.47302246 69.96777344 124.47302246 69.96777344 124.47721863 72.86804199 C124.48486927 74.88274667 124.50239833 76.89742922 124.52787781 78.9119873 C124.56464649 81.97362704 124.5695247 85.03387465 124.56762695 88.09570312 C124.58561749 88.98501778 124.60360804 89.87433243 124.62214375 90.79059601 C124.57040656 97.05450918 122.93655182 101.12018034 119 106 C114.69371447 110.09097125 111.0879755 111.79462536 105.1875 112.375 C99.83338912 112.21336646 95.38438827 110.20329549 91.45703125 106.57421875 C87.4531203 102.03019078 85.75312769 97.78463585 85.74462891 91.78588867 C85.73766998 90.77100876 85.73071106 89.75612885 85.72354126 88.710495 C85.72453827 87.62396133 85.72553528 86.53742767 85.7265625 85.41796875 C85.70627141 83.10090665 85.68542059 80.78384939 85.6640625 78.46679688 C85.64148319 74.82637435 85.62499782 71.18614359 85.61914062 67.5456543 C85.60959246 64.02357602 85.57578458 60.50235416 85.5390625 56.98046875 C85.54663071 55.3597773 85.54663071 55.3597773 85.55435181 53.7063446 C85.45505088 46.0372141 84.20254716 40.72117828 79.0703125 34.7578125 C72.87983231 29.56178696 67.81787555 27.42833432 59.65625 27.625 C52.40179216 28.64915875 46.75705933 32.50819878 42.15625 38.05859375 C38.42610477 44.32170921 38.73473967 50.62260514 38.76171875 57.6796875 C38.74630108 59.99349546 38.7299976 62.30729766 38.71289062 64.62109375 C38.69643966 68.25061812 38.68750919 71.87971874 38.69458008 75.50927734 C38.69720546 79.02489646 38.66904352 82.53923923 38.63671875 86.0546875 C38.64692551 87.13201141 38.65713226 88.20933533 38.66764832 89.31930542 C38.57927507 96.16193914 37.45520637 100.71005933 33 106 C28.69371447 110.09097125 25.0879755 111.79462536 19.1875 112.375 C13.83801846 112.21350622 9.34260286 110.21805941 5.45703125 106.5390625 C2.02169755 102.56979131 -0.25406558 99.08557745 -0.24050903 93.79852295 C-0.24326403 92.97015301 -0.24601902 92.14178307 -0.2488575 91.288311 C-0.24166128 90.38460392 -0.23446507 89.48089684 -0.22705078 88.54980469 C-0.22729185 87.57792835 -0.22753292 86.60605202 -0.2277813 85.60472488 C-0.22628912 82.46034831 -0.21106057 79.31620914 -0.1953125 76.171875 C-0.19237177 74.22998163 -0.19033151 72.28808668 -0.18920898 70.34619141 C-0.17872509 63.14743675 -0.15080267 55.94871604 -0.125 48.75 C-0.08375 32.6625 -0.0425 16.575 0 0 Z " fill="#C7E9F5" transform="translate(181,306)"/>
<path d="M0 0 C30.36 0 60.72 0 92 0 C92 31.35 92 62.7 92 95 C61.64 95 31.28 95 0 95 C0 63.65 0 32.3 0 0 Z " fill="#128DB5" transform="translate(89,197)"/>
<path d="M0 0 C5.58483722 2.81270252 10.31248909 6.42466793 15.1875 10.3125 C21.72678251 15.46565031 28.32350095 20.52591403 35 25.5 C42.22880207 30.89279389 49.37741785 36.37644658 56.48120117 41.93261719 C62.04403658 46.27632771 67.66855703 50.5301974 73.32446289 54.75170898 C77.82374492 58.11149346 82.28898494 61.51192347 86.73364258 64.94384766 C91.80662129 68.8583575 96.90221982 72.74286224 102 76.625 C102.88373291 77.29845459 103.76746582 77.97190918 104.67797852 78.66577148 C109.41844301 82.27716905 114.16332837 85.88258987 118.9140625 89.48046875 C119.87054688 90.2060498 120.82703125 90.93163086 121.8125 91.67919922 C123.65221811 93.07463818 125.49331016 94.4682681 127.3359375 95.85986328 C128.16609375 96.49005371 128.99625 97.12024414 129.8515625 97.76953125 C130.58197754 98.32229736 131.31239258 98.87506348 132.06494141 99.44458008 C133.83888307 100.87049256 135.42887007 102.35621845 137 104 C103.37096123 106.55232905 103.37096123 106.55232905 93.91235352 99.60107422 C91.12127765 97.14066993 88.47162 94.59043054 85.90332031 91.8984375 C82.78863199 88.79173966 79.25165541 86.3117367 75.6875 83.75 C74.35985343 82.76327043 73.03427405 81.77375241 71.7109375 80.78125 C71.08155273 80.31074219 70.45216797 79.84023437 69.80371094 79.35546875 C66.06246483 76.54396383 62.36453367 73.67616726 58.66015625 70.81640625 C53.13028627 66.55337351 47.56805927 62.33258239 42.01220703 58.10351562 C37.0963678 54.36096444 32.18449745 50.61343179 27.28173828 46.85375977 C25.21819149 45.27350343 23.15029944 43.69906928 21.08203125 42.125 C18.24560424 39.96365219 15.4360979 37.77158477 12.63671875 35.5625 C11.2162809 34.45815959 9.79571261 33.35398691 8.375 32.25 C7.7358667 31.73598633 7.0967334 31.22197266 6.43823242 30.69238281 C2.39629065 27.57901683 -0.70697835 25.61949308 -6 26 C-9.53373719 27.91374474 -12.53007857 30.38887734 -15.625 32.9375 C-17.5021889 34.42630499 -19.37980496 35.91457154 -21.2578125 37.40234375 C-22.21204102 38.1691748 -23.16626953 38.93600586 -24.14941406 39.72607422 C-28.54055851 43.22891076 -33.02067336 46.61120771 -37.5 50 C-39.25049759 51.33268 -41.00049626 52.66601558 -42.75 54 C-53.25 62 -53.25 62 -55.87597656 64.00073242 C-57.6227363 65.33160473 -59.36948114 66.6624966 -61.11621094 67.9934082 C-65.54066371 71.36455736 -69.96538987 74.73534662 -74.390625 78.10546875 C-79.59476709 82.06897885 -84.79780713 86.03393191 -90 90 C-90.84304687 90.64259766 -91.68609375 91.28519531 -92.5546875 91.94726562 C-94.95378341 93.77648284 -97.35204143 95.60679219 -99.75 97.4375 C-100.47155273 97.98752686 -101.19310547 98.53755371 -101.93652344 99.10424805 C-105.08049818 101.42049773 -105.08049818 101.42049773 -108 104 C-110.59359322 104.08851529 -113.16039691 104.11525945 -115.75390625 104.09765625 C-116.52935287 104.0962413 -117.3047995 104.09482635 -118.10374451 104.09336853 C-120.59003494 104.08775345 -123.0762366 104.07519846 -125.5625 104.0625 C-127.24413933 104.05748694 -128.92578006 104.0529237 -130.60742188 104.04882812 C-134.73831566 104.03777913 -138.86914276 104.02050445 -143 104 C-140.28747111 101.23555252 -137.62528719 98.56408402 -134.53125 96.23046875 C-133.56783691 95.49896606 -133.56783691 95.49896606 -132.58496094 94.75268555 C-131.89692383 94.23617432 -131.20888672 93.71966309 -130.5 93.1875 C-128.97393833 92.0312764 -127.44789761 90.87502515 -125.921875 89.71875 C-125.11943359 89.11289063 -124.31699219 88.50703125 -123.49023438 87.8828125 C-119.23339012 84.66430437 -114.99314859 81.42402762 -110.75 78.1875 C-108.96887677 76.83056275 -107.18762558 75.47379345 -105.40625 74.1171875 C-104.51550781 73.43881836 -103.62476563 72.76044922 -102.70703125 72.06152344 C-100.90234375 70.68717448 -99.09765625 69.31282552 -97.29296875 67.93847656 C-88.35656711 61.13271482 -79.42082746 54.32616973 -70.5 47.5 C-63.37391461 42.04715736 -56.23931166 36.60556445 -49.10009766 31.16992188 C-44.5246343 27.68624489 -39.95142156 24.19969403 -35.3828125 20.70703125 C-7.48118795 -0.61321213 -7.48118795 -0.61321213 0 0 Z " fill="#94D7EF" transform="translate(302,39)"/>
<path d="M0 0 C30.36 0 60.72 0 92 0 C92 31.35 92 62.7 92 95 C61.64 95 31.28 95 0 95 C0 63.65 0 32.3 0 0 Z M15 21 C8.66946452 28.88305581 5.42401412 36.68558388 5.5625 46.8125 C5.57079834 47.60003662 5.57909668 48.38757324 5.58764648 49.19897461 C5.93106854 61.10875367 10.49707629 69.79210497 19.06640625 77.97265625 C24.53266398 82.57839398 30.21002051 84.92961281 37 87 C37.99 87.33 38.98 87.66 40 88 C51.7295263 89.2465176 62.50677361 85.96698364 71.84765625 78.8515625 C79.14167828 72.57685026 85.13466436 63.79656027 86.22265625 53.99389648 C86.86837376 41.64872409 85.7461496 31.84047094 77.75390625 21.9453125 C71.63967965 15.16383177 65.79068169 10.68730684 57 8 C56.39800781 7.81050781 55.79601562 7.62101563 55.17578125 7.42578125 C39.21631102 4.30265332 25.95688565 9.02750285 15 21 Z " fill="#E3F3FB" transform="translate(89,197)"/>
<path d="M0 0 C16.17 0 32.34 0 49 0 C49 26.4 49 52.8 49 80 C26.66878286 60.85895673 7.35943638 31.75990271 0 3 C0 2.01 0 1.02 0 0 Z " fill="#C7E9F5" transform="translate(118,306)"/>
<path d="M0 0 C1.82121349 2.60347969 1.5422465 4.5755598 1.1640625 7.6640625 C0.1640625 9.9140625 0.1640625 9.9140625 -1.8359375 11.6640625 C-4.49702479 12.58783245 -7.05731318 13.11744788 -9.8359375 13.6640625 C-9.40023438 14.17453125 -8.96453125 14.685 -8.515625 15.2109375 C4.0309123 30.52748953 8.73520679 48.17804121 7.1640625 67.6640625 C5.12384308 80.98826468 -0.82585161 96.57626539 -10.9609375 105.8515625 C-13.8359375 107.6640625 -13.8359375 107.6640625 -16.4609375 108.2265625 C-19.71419702 107.45605367 -20.90425046 106.38273315 -22.8359375 103.6640625 C-23.26462629 100.05510105 -23.17760509 98.22192174 -21.26171875 95.09375 C-20.56433594 94.25070313 -19.86695313 93.40765625 -19.1484375 92.5390625 C-9.87765638 80.44602589 -6.71264382 66.71263183 -7.8359375 51.6640625 C-9.12255377 43.05778896 -12.3378452 36.05898447 -16.8359375 28.6640625 C-17.2896875 29.7984375 -17.7434375 30.9328125 -18.2109375 32.1015625 C-19.8359375 35.6640625 -19.8359375 35.6640625 -21.8359375 36.6640625 C-25.31961087 37.04272265 -27.1230255 37.21124219 -29.953125 35.0390625 C-35.47954027 28.06798265 -34.0967966 15.43131511 -34.296875 6.74609375 C-33.8359375 3.6640625 -33.8359375 3.6640625 -32.24609375 1.8125 C-25.44145494 -1.42990488 -6.25116652 -4.54872117 0 0 Z " fill="#148EB6" transform="translate(349.8359375,149.3359375)"/>
<path d="M0 0 C3.77939761 0.85571267 5.14970842 1.54906847 7.3125 4.75 C7.85337183 8.20687647 7.48243815 9.49490766 5.51953125 12.44140625 C4.72933594 13.38886719 3.93914062 14.33632812 3.125 15.3125 C-7.36128047 28.39771537 -9.05798976 42.47472322 -7.6875 58.75 C-6.29171431 66.54234552 -3.22947278 73.3058335 1.3125 79.75 C1.580625 78.63625 1.84875 77.5225 2.125 76.375 C3.3125 72.75 3.3125 72.75 6.3125 70.75 C8.6875 70.25 8.6875 70.25 11.3125 70.75 C16.36182159 75.52432072 17.18437651 79.39765122 17.625 86.1875 C17.69783203 87.00798828 17.77066406 87.82847656 17.84570312 88.67382812 C18.0433045 91.03187116 18.18360936 93.38734732 18.3125 95.75 C18.40917969 97.01972656 18.50585938 98.28945312 18.60546875 99.59765625 C18.3125 102.75 18.3125 102.75 16.9609375 105.078125 C12.8776299 107.6557882 8.67450407 107.94843103 3.9375 108.5 C3.00421875 108.62503906 2.0709375 108.75007813 1.109375 108.87890625 C-11.62301849 110.52005045 -11.62301849 110.52005045 -15.625 107.625 C-17.6875 104.75 -17.6875 104.75 -17.6875 101.625 C-16.1391696 97.17355009 -16.1391696 97.17355009 -13.6875 95.75 C-10.96897142 95.50823362 -8.42797347 95.61522262 -5.6875 95.75 C-6.11160156 95.19054687 -6.53570312 94.63109375 -6.97265625 94.0546875 C-17.1287215 80.17101148 -23.28802931 66.39171729 -23.1875 49.0625 C-23.17891968 47.34329346 -23.17891968 47.34329346 -23.17016602 45.58935547 C-22.82707197 29.25253406 -16.65791815 14.2152825 -5.44921875 2.125 C-3.6875 0.75 -3.6875 0.75 0 0 Z " fill="#148EB6" transform="translate(263.6875,147.25)"/>
<path d="M0 0 C4.4814734 1.90700996 5.76182824 5.03586101 7.9375 9.25 C8.48019531 10.23613281 9.02289063 11.22226562 9.58203125 12.23828125 C14.49662487 21.48047956 14.49662487 21.48047956 13.9375 27.25 C12.3125 29.625 12.3125 29.625 9.9375 31.25 C6.6875 31.5 6.6875 31.5 3.9375 31.25 C5.68318192 44.01692746 10.51189304 55.59541113 15.703125 67.2890625 C19.08918377 75.41131741 18.99208508 84.03181007 15.8515625 92.25 C13.53202074 97.32523667 10.71492983 101.29254344 5.9375 104.25 C2.7708557 104.6933302 0.89660917 104.76152489 -1.9375 103.25 C-3.76410688 100.00269888 -3.81095994 96.81024188 -3.0625 93.25 C-1.61854624 90.93139325 0.03270925 89.24770737 1.9375 87.25 C4.71003861 78.93238418 2.19580601 72.33290016 -1.375 64.6875 C-2.18519358 62.8952536 -2.99381271 61.10229455 -3.80078125 59.30859375 C-4.18830566 58.45120605 -4.57583008 57.59381836 -4.97509766 56.71044922 C-8.6728991 48.34348852 -10.23199654 40.977936 -10.125 31.875 C-10.12048828 31.13894531 -10.11597656 30.40289062 -10.11132812 29.64453125 C-10.09965142 27.84631842 -10.08172011 26.04814803 -10.0625 24.25 C-11.00222656 24.28222656 -11.94195312 24.31445312 -12.91015625 24.34765625 C-16.0625 24.25 -16.0625 24.25 -18.5 22.6875 C-20.19388009 20.04504706 -20.70384598 18.36338983 -20.06640625 15.25 C-17.71210441 10.55971773 -13.10327905 7.44203094 -9.0625 4.25 C-8.47339844 3.75628906 -7.88429688 3.26257813 -7.27734375 2.75390625 C-4.81492145 0.85619946 -3.10681739 0.25361775 0 0 Z " fill="#138DB6" transform="translate(354.0625,309.75)"/>
<path d="M0 0 C4.04623391 1.81418044 7.5483113 4.37382378 11.1875 6.875 C16.61347898 10.5591033 21.85422894 13.62794801 28 16 C25.19244644 18.80755356 23.24901656 18.9788969 19.3125 19.3125 C13.88452072 19.22269887 9.40227642 17.27456046 5.45703125 13.5390625 C1.61492032 9.09979064 -0.32665623 5.87981206 0 0 Z " fill="#91D6ED" transform="translate(181,399)"/>
<path d="M0 0 C0 4.29 0 8.58 0 13 C-7.98211624 9.77645306 -7.98211624 9.77645306 -11 7 C-11 6.34 -11 5.68 -11 5 C-9.54462432 4.16151196 -8.08559627 3.32936066 -6.625 2.5 C-5.81289062 2.0359375 -5.00078125 1.571875 -4.1640625 1.09375 C-2 0 -2 0 0 0 Z " fill="#90D5ED" transform="translate(128,257)"/>
<path d="M0 0 C0 4.29 0 8.58 0 13 C-7.71484375 9.38671875 -7.71484375 9.38671875 -10 8 C-10.33 7.01 -10.66 6.02 -11 5 C-9.73461631 4.15841464 -8.46246221 3.32700252 -7.1875 2.5 C-6.47980469 2.0359375 -5.77210937 1.571875 -5.04296875 1.09375 C-3 0 -3 0 0 0 Z " fill="#90D5ED" transform="translate(128,219)"/>
<path d="M0 0 C4.05281712 1.22527029 7.44360764 2.69880494 11 5 C9.90537324 8.1744176 9.01822665 8.98914157 6.0625 10.75 C3 12 3 12 0 12 C0 8.04 0 4.08 0 0 Z " fill="#90D6ED" transform="translate(142,257)"/>
<path d="M0 0 C4.38396651 1.46132217 7.26562391 2.583639 11 5 C10 8 10 8 7.71484375 9.38671875 C5.14322917 10.59114583 2.57161458 11.79557292 0 13 C0 8.71 0 4.42 0 0 Z " fill="#91D6EE" transform="translate(142,219)"/>
<path d="M0 0 C0 3.96 0 7.92 0 12 C-5.14808788 10.97038242 -7.62920538 9.65675751 -12 7 C-9.20232475 3.70861735 -4.40323273 0 0 0 Z " fill="#90D5ED" transform="translate(161,238)"/>
<path d="M0 0 C4.61513112 1.31860889 8.09897612 3.21355437 12 6 C4.28571429 12 4.28571429 12 0 12 C0 8.04 0 4.08 0 0 Z " fill="#90D5ED" transform="translate(109,238)"/>
</svg>
