<?xml version="1.0" encoding="UTF-8"?>
<svg version="1.1" xmlns="http://www.w3.org/2000/svg" width="512" height="512">
<path d="M0 0 C2.95523526 2.0253552 5.42758277 4.51628681 8 7 C9.81212349 8.62541986 11.62466047 10.25037878 13.4375 11.875 C19.44652744 17.34630029 25.16561587 23.10302283 30.86108398 28.89794922 C34.74587811 32.83106741 38.72525819 36.55508158 42.91113281 40.16455078 C46.89868261 43.66833752 50.70277039 47.35494438 54.5 51.0625 C55.32242187 51.83916016 56.14484375 52.61582031 56.9921875 53.41601562 C57.76820313 54.17720703 58.54421875 54.93839844 59.34375 55.72265625 C60.04693359 56.40078369 60.75011719 57.07891113 61.47460938 57.77758789 C63.44959122 60.65503023 63.07577278 62.57616095 63 66 C66.01900411 69.30652831 67.71409537 70.92581319 72.25 71.1875 C73.1575 71.125625 74.065 71.06375 75 71 C75.66 71.66 76.32 72.32 77 73 C76.9175 74.093125 76.835 75.18625 76.75 76.3125 C76.63395601 80.19575705 76.63395601 80.19575705 79.625 82.9375 C82.75065321 85.27873218 82.75065321 85.27873218 85.875 84.875 C94.39128631 85.21565145 103.25343916 98.20132743 108.93359375 103.97265625 C113.1546141 108.2347238 117.43968391 112.30658559 121.99023438 116.21289062 C126.6434185 120.35056164 130.92548362 124.89008232 135.2890625 129.328125 C139.42656226 133.5082794 143.63899484 137.49953579 148.09814453 141.33398438 C151.16408507 144.01973255 154.05460101 146.87048867 156.9375 149.75 C157.51306641 150.31332031 158.08863281 150.87664062 158.68164062 151.45703125 C162.31637541 155.07892245 163.82543206 157.14957988 164.3125 162.3125 C163.94050629 166.7020258 162.80652364 168.64776343 160 172 C148.65490806 177.67254597 134.68419839 174 122 174 C122 208.98 122 243.96 122 280 C138.5 280 155 280 172 280 C172.99 280.66 173.98 281.32 175 282 C175 282.99 175 283.98 175 285 C178.3 285 181.6 285 185 285 C185.33 283.68 185.66 282.36 186 281 C188.8125 280.375 188.8125 280.375 192 280 C192.99 280.66 193.98 281.32 195 282 C195 282.99 195 283.98 195 285 C198.3 285 201.6 285 205 285 C205.33 283.68 205.66 282.36 206 281 C208.98214526 279.50892737 212.03829801 279.83721464 215.30859375 279.83203125 C216.03111832 279.82870285 216.75364288 279.82537445 217.49806213 279.82194519 C219.0271033 279.81688012 220.55615553 279.81453674 222.08520508 279.81469727 C224.4248272 279.81251184 226.76397703 279.7943552 229.10351562 279.77539062 C230.58854005 279.77245641 232.07356672 279.7704718 233.55859375 279.76953125 C234.2586705 279.76234573 234.95874725 279.75516022 235.68003845 279.74775696 C239.35123268 279.76502738 240.85752656 279.9050177 244 282 C244.3125 285.5 244.3125 285.5 244 289 C243.34 289.66 242.68 290.32 242 291 C241.01 291 240.02 291 239 291 C239 356.67 239 422.34 239 490 C79.28 490 -80.44 490 -245 490 C-245 424.33 -245 358.66 -245 291 C-246.32 290.67 -247.64 290.34 -249 290 C-250 289 -250 289 -250.25 285.5625 C-250.1675 284.386875 -250.085 283.21125 -250 282 C-246.78370865 279.85580576 -245.96932682 279.75143004 -242.27339172 279.75949097 C-241.30164001 279.75674164 -240.32988831 279.75399231 -239.32868958 279.75115967 C-238.26414047 279.75835022 -237.19959137 279.76554077 -236.1027832 279.77294922 C-234.41963516 279.77251114 -234.41963516 279.77251114 -232.70248413 279.77206421 C-228.98517179 279.77346007 -225.26805868 279.78903352 -221.55078125 279.8046875 C-218.97674163 279.80841671 -216.4027006 279.81126412 -213.82865906 279.81326294 C-207.74071632 279.82012489 -201.65285607 279.83589561 -195.56494445 279.85596192 C-187.95411737 279.8805037 -180.34327864 279.89145614 -172.73242188 279.90234375 C-159.154892 279.92182701 -145.57751875 279.96189064 -132 280 C-132 245.02 -132 210.04 -132 174 C-143.22 174 -154.44 174 -166 174 C-173.09090909 169.27272727 -173.09090909 169.27272727 -174 166 C-174.58311853 162.11254313 -174.94690235 159.57039087 -172.890625 156.16015625 C-171.03059539 153.98244832 -169.04902786 152.00215467 -167 150 C-165.97206494 148.95237529 -164.94616984 147.90274664 -163.921875 146.8515625 C-159.45548037 142.30174477 -154.9892843 137.81927844 -150.15234375 133.66015625 C-145.53729061 129.66501088 -141.27754247 125.35053807 -137 121 C-128.57808043 112.43436166 -128.57808043 112.43436166 -124.03125 108.53125 C-119.26833486 104.43797243 -114.90285874 99.97353063 -110.5 95.5 C-105.48072491 90.40015869 -100.43954375 85.44816517 -95.00976562 80.78710938 C-91.1669081 77.36999116 -87.60391313 73.66541335 -84 70 C-79.15359596 65.07089282 -74.27002381 60.31027789 -69.02734375 55.8046875 C-65.18001943 52.37990169 -61.60985315 48.67145474 -58 45 C-49.57808043 36.43436166 -49.57808043 36.43436166 -45.03125 32.53125 C-40.26833486 28.43797243 -35.90285874 23.97353063 -31.5 19.5 C-9.78265165 -2.56594142 -9.78265165 -2.56594142 0 0 Z " fill="#040404" transform="translate(259,9)"/>
<path d="M0 0 C0.80179688 0.00451172 1.60359375 0.00902344 2.4296875 0.01367188 C4.41149006 0.02546832 6.39325433 0.04340395 8.375 0.0625 C8.375 4.6825 8.375 9.3025 8.375 14.0625 C6.18875 14.145 4.0025 14.2275 1.75 14.3125 C-3.99341411 14.72440142 -7.47471621 15.02750187 -11.625 19.0625 C-13.93380063 22.58452828 -13.87604488 25.64977241 -13.88037109 29.79956055 C-13.88399155 30.46843796 -13.887612 31.13731537 -13.89134216 31.82646179 C-13.89822198 33.27564317 -13.90074425 34.72485039 -13.89939499 36.17404747 C-13.89842675 38.4747542 -13.91140877 40.7749975 -13.92837524 43.07563782 C-13.97454319 49.61573656 -13.99922708 56.15578879 -14.00585938 62.69604492 C-14.01089975 66.70145117 -14.03528035 70.70637583 -14.07118607 74.71161842 C-14.08092964 76.23087472 -14.08334596 77.75019775 -14.07801437 79.26947594 C-14.0385921 91.06134043 -15.51395643 99.50780888 -23.69140625 108.3359375 C-29.69722768 113.69871139 -36.28979741 115.18535437 -44.15014648 115.18847656 C-45.11920929 115.19127876 -45.11920929 115.19127876 -46.10784912 115.19413757 C-47.50630229 115.19813087 -48.90476193 115.20021543 -50.30322075 115.20059967 C-53.27955862 115.20402724 -56.25568038 115.22540131 -59.23194218 115.24583054 C-64.76867187 115.28379906 -70.30516608 115.31511295 -75.84204102 115.31298828 C-79.69842079 115.31220077 -83.55400218 115.3355754 -87.41017342 115.3748703 C-88.87690707 115.38532203 -90.34373295 115.38686031 -91.81048393 115.37921906 C-93.86468665 115.36958267 -95.9164743 115.39079738 -97.97045898 115.41894531 C-99.13753891 115.42259094 -100.30461884 115.42623657 -101.50706482 115.42999268 C-105.52643671 116.24536632 -107.00982364 117.98962734 -109.625 121.0625 C-109.955 121.3925 -110.285 121.7225 -110.625 122.0625 C-110.73624569 124.95250688 -110.78240095 127.8188349 -110.78613281 130.7097168 C-110.79109772 131.6170607 -110.79606262 132.5244046 -110.80117798 133.45924377 C-110.81584472 136.47674302 -110.82261031 139.49418964 -110.828125 142.51171875 C-110.83387428 144.60341901 -110.83963204 146.69511924 -110.84539795 148.78681946 C-110.85592183 153.18104295 -110.8617549 157.57524809 -110.86523438 161.96948242 C-110.87071139 167.59752446 -110.8947167 173.22532362 -110.92320633 178.8532896 C-110.94184403 183.17788903 -110.94703899 187.50243022 -110.94857025 191.82706642 C-110.95159651 193.90148046 -110.95962411 195.97589349 -110.97275543 198.05026817 C-110.9898337 200.95646885 -110.98793083 203.86207987 -110.98144531 206.76831055 C-110.9906601 207.62413727 -110.99987488 208.47996399 -111.0093689 209.36172485 C-110.97425217 214.39189484 -110.24327096 217.63143825 -107.625 222.0625 C-107.295 223.0525 -106.965 224.0425 -106.625 225.0625 C-104.2819191 226.18335312 -104.2819191 226.18335312 -101.625 227.0625 C-101.00625 227.43375 -100.3875 227.805 -99.75 228.1875 C-94.91514865 230.17832114 -90.61945773 229.27704533 -85.9375 227.375 C-82.14461697 225.54951378 -79.89196119 223.68963791 -77.625 220.0625 C-77.26841309 219.52318848 -76.91182617 218.98387695 -76.54443359 218.42822266 C-75.17926719 214.91561977 -75.34680875 211.42611418 -75.3515625 207.7109375 C-75.33125702 206.03775393 -75.31040595 204.3645769 -75.2890625 202.69140625 C-75.26657593 200.07172116 -75.25003328 197.45229633 -75.24414062 194.83251953 C-75.19016233 180.57955029 -74.17918164 170.92878553 -63.93359375 160.1953125 C-60.95447542 157.4430306 -58.30576152 155.76131301 -54.625 154.0625 C-53.50931641 153.53269531 -53.50931641 153.53269531 -52.37109375 152.9921875 C-44.57694262 150.35348484 -34.36881925 151.09824835 -26.96875 154.61328125 C-18.19387179 160.03908094 -11.94757636 166.94107756 -9.08137512 176.96340942 C-8.32277238 180.45259143 -8.46792081 183.99894425 -8.44921875 187.5546875 C-8.42602242 189.24610622 -8.40190516 190.93751252 -8.37695312 192.62890625 C-8.34185486 195.28410195 -8.31249323 197.93883884 -8.29907227 200.59423828 C-8.28355155 203.16494627 -8.24332438 205.73433139 -8.19921875 208.3046875 C-8.20208138 209.48621902 -8.20208138 209.48621902 -8.20500183 210.69161987 C-8.08949501 215.92677683 -7.04116578 218.88443289 -3.625 223.0625 C0.30652901 226.60087611 3.31871056 228.86477986 8.625 229.375 C14.96291744 228.84684021 19.48828337 227.4457774 23.8125 222.625 C27.66479194 217.9329714 27.5257397 213.25038079 27.5859375 207.3671875 C27.61402836 205.83071892 27.64269294 204.29426074 27.671875 202.7578125 C27.71290721 200.3554743 27.74982517 197.95332555 27.77636719 195.55078125 C27.94384314 181.57520174 28.88132153 170.86170647 39.00390625 160.375 C44.67222893 155.1143757 50.60362618 152.0625 58.375 152.0625 C58.375 156.6825 58.375 161.3025 58.375 166.0625 C56.8075 166.76375 55.24 167.465 53.625 168.1875 C48.88935845 170.54527345 46.72664158 172.35921683 44.375 177.0625 C43.11684325 180.83697026 43.22009848 184.3836699 43.19921875 188.31640625 C43.17600021 189.99285082 43.15188208 191.66928312 43.12695312 193.34570312 C43.09202049 195.97639942 43.06259431 198.60665014 43.04907227 201.23754883 C42.96197458 215.42375112 41.94651114 225.22942323 31.75390625 235.92578125 C24.2192251 242.69338484 15.97746692 243.53518978 6.20703125 243.3359375 C-2.84170856 242.6902578 -9.5700719 238.71078409 -15.625 232.0625 C-21.03876525 224.94057472 -22.9104636 218.29203248 -22.86328125 209.4453125 C-22.87869996 207.76952314 -22.89500352 206.09374173 -22.91210938 204.41796875 C-22.9285395 201.80239164 -22.93749973 199.18740172 -22.93041992 196.57177734 C-22.92778463 194.02896257 -22.95601961 191.48789276 -22.98828125 188.9453125 C-22.97297112 187.78867599 -22.97297112 187.78867599 -22.95735168 186.6086731 C-23.06326385 180.65907044 -24.9421964 176.71068886 -28.625 172.0625 C-33.74026896 167.31260739 -37.96854373 166.63665402 -44.765625 166.7265625 C-49.21007269 167.24872439 -52.56085089 168.78679494 -55.625 172.0625 C-59.08447722 177.55402091 -60.19289638 182.125893 -60.09375 188.55078125 C-60.10079956 189.33462692 -60.10784912 190.1184726 -60.1151123 190.92607117 C-60.14427102 194.23890104 -60.12807086 197.55112122 -60.11572266 200.86401367 C-60.10258902 214.15131702 -60.7108486 225.05378361 -70.41796875 235.12109375 C-77.70496249 241.53106877 -86.52293729 244.67955617 -96.2109375 244.36328125 C-107.26298221 242.98624655 -114.64454297 237.1261052 -121.546875 228.72265625 C-127.75825453 218.88797199 -126.47713134 206.70795322 -126.40136719 195.48583984 C-126.38151167 192.87989686 -126.38151167 192.87989686 -128.625 191.0625 C-131.16690002 190.8124227 -131.16690002 190.8124227 -133.625 191.0625 C-136.34582419 193.78332419 -134.90984752 201.78368579 -134.9375 205.4375 C-134.96650391 206.67628906 -134.99550781 207.91507813 -135.02539062 209.19140625 C-135.1155967 222.36149279 -131.60933998 231.61994288 -122.66015625 241.15625 C-113.02947264 250.49087282 -103.28159545 252.77540526 -90.21289062 252.58422852 C-77.63132141 252.08346389 -68.95517644 246.93988157 -60.375 237.8125 C-53.16784758 228.89891873 -51.50045332 219.07050208 -51.484375 207.8984375 C-51.46606518 206.34894342 -51.4464966 204.79946379 -51.42578125 203.25 C-51.39673854 200.83600898 -51.37499708 198.42296677 -51.37451172 196.00878906 C-51.37117484 193.65867298 -51.33665061 191.31068314 -51.296875 188.9609375 C-51.3039447 188.24312103 -51.3110144 187.52530457 -51.31829834 186.78573608 C-51.22299188 182.85074883 -50.7366938 181.19904352 -48.21191406 178.11254883 C-44.73373115 175.35619719 -44.73373115 175.35619719 -41.625 175.375 C-40.985625 175.35050781 -40.34625 175.32601562 -39.6875 175.30078125 C-36.3330363 176.53964569 -34.39800512 179.06709272 -32.625 182.0625 C-32.16121003 185.04530243 -31.97064898 187.45824973 -32.0234375 190.42578125 C-32.01543121 191.21720016 -32.00742493 192.00861908 -31.99917603 192.82402039 C-31.97620847 195.34154084 -31.98551599 197.85743808 -32 200.375 C-32.45774324 214.59434227 -32.45774324 214.59434227 -28.625 228.0625 C-28.17640625 228.99320313 -27.7278125 229.92390625 -27.265625 230.8828125 C-20.63260852 241.87573307 -12.95661305 247.95196232 -0.625 252.0625 C12.41272518 253.27267541 24.22442942 252.98594758 35.10546875 245.078125 C43.71697933 237.9039862 49.29675986 229.10954225 51.375 218.0625 C51.92873809 211.18651652 51.7763008 204.2398012 51.73535156 197.34667969 C51.72676365 194.9544688 51.74846324 192.56393755 51.7734375 190.171875 C51.76009369 189.4467572 51.74674988 188.7216394 51.73300171 187.97454834 C51.81588782 182.24895358 53.44184732 179.92228126 57.375 176.0625 C59.4375 175.265625 59.4375 175.265625 61.375 175.3125 C62.3340625 175.28929687 62.3340625 175.28929687 63.3125 175.265625 C66.64134428 176.55176938 68.58969277 179.07541833 70.375 182.0625 C70.82778258 184.94613701 71.00708798 187.23673153 70.94140625 190.1015625 C70.94985817 191.24472427 70.94985817 191.24472427 70.95848083 192.41098022 C70.97485462 194.83711989 70.9594937 197.26142615 70.9375 199.6875 C70.82834039 215.35902365 71.90336343 228.95806013 83.1875 240.99609375 C93.62096704 250.7774691 104.2916952 252.62834698 118.046875 252.39453125 C128.44936638 251.95229797 135.79189455 247.67393674 143.18359375 240.51953125 C154.70602362 227.60044321 154.8292148 214.14385268 154.73535156 197.82885742 C154.72676374 195.36057471 154.74846889 192.89392028 154.7734375 190.42578125 C154.76009369 189.67565262 154.74674988 188.92552399 154.73300171 188.15266418 C154.81444729 182.33646973 156.36320258 179.97148897 160.375 176.0625 C162.4375 175.30078125 162.4375 175.30078125 164.375 175.375 C165.3340625 175.36919922 165.3340625 175.36919922 166.3125 175.36328125 C169.63385579 176.48927119 171.17093671 178.36963685 173.375 181.0625 C173.85995018 183.8729853 174.05189711 186.08967591 174.01171875 188.890625 C174.02209671 189.63906677 174.03247467 190.38750854 174.04316711 191.15863037 C174.07275965 193.54372319 174.06949697 195.92725778 174.0625 198.3125 C174.12097169 213.7964348 174.31878493 228.85615434 185.625 240.9375 C196.39728192 250.70659824 207.10170903 252.74019204 221.15234375 252.4296875 C232.6827978 251.84894307 240.70857092 246.42587717 248.375 238.0625 C255.36374691 229.4927892 257.83400933 220.87079618 257.77905273 209.92797852 C257.78591599 208.95761658 257.79277924 207.98725464 257.79985046 206.98748779 C257.81803228 203.80530839 257.8142933 200.62362605 257.80859375 197.44140625 C257.81315957 195.21377911 257.81846633 192.98615337 257.82447815 190.75852966 C257.83339228 186.09929669 257.83100527 181.44023529 257.82104492 176.78100586 C257.80955572 170.82837971 257.82977521 164.87634682 257.85896206 158.92379856 C257.87736123 154.32623064 257.87702419 149.72880394 257.87132454 145.13120842 C257.87117179 142.93729762 257.87717747 140.74337696 257.88961601 138.54950142 C257.90459485 135.47476744 257.89379809 132.40111749 257.87670898 129.32641602 C257.88637695 128.43208359 257.89604492 127.53775116 257.90600586 126.61631775 C257.78690221 116.31485842 253.67128344 107.31716965 246.375 100.0625 C239.05830589 94.56909783 231.76151742 91.83372578 222.5534668 91.77539062 C221.23908127 91.76197632 219.92469574 91.74856201 218.57048035 91.73474121 C217.87834127 91.73217819 217.1862022 91.72961517 216.47308922 91.72697449 C214.29168468 91.71862548 212.11068686 91.69807178 209.92939758 91.67443848 C204.51948682 91.61828183 199.10947817 91.58272557 193.69940186 91.54681396 C189.11154435 91.51560566 184.52389054 91.47647867 179.93619728 91.42655945 C177.78569979 91.40647398 175.63535874 91.39817243 173.48478699 91.39025879 C172.18616226 91.37684448 170.88753754 91.36343018 169.54956055 91.34960938 C167.82916817 91.33867249 167.82916817 91.33867249 166.07402039 91.32751465 C163.375 91.0625 163.375 91.0625 161.375 89.0625 C161.1796875 86.2421875 161.1796875 86.2421875 161.25 82.9375 C161.26804687 81.84179688 161.28609375 80.74609375 161.3046875 79.6171875 C161.33949219 78.35261719 161.33949219 78.35261719 161.375 77.0625 C162.81200005 77.06036247 162.81200005 77.06036247 164.2780304 77.05818176 C173.2983252 77.04152535 182.31816808 76.9987938 191.33822346 76.93040943 C195.97579247 76.8960917 200.6130304 76.87102207 205.25073242 76.86694336 C209.72493303 76.86267057 214.19838617 76.83429363 218.67235374 76.78906822 C220.38076616 76.77606037 222.08926789 76.77179715 223.79772377 76.77634621 C226.1879956 76.78122927 228.57606331 76.75526687 230.96606445 76.72192383 C231.67528549 76.73054947 232.38450653 76.73917511 233.11521912 76.74806213 C235.32514631 76.75160175 235.32514631 76.75160175 238.375 76.0625 C240.22913623 73.64361477 240.22913623 73.64361477 241.375 71.0625 C243.85546875 70.57421875 243.85546875 70.57421875 246.5625 70.75 C247.46355469 70.79511719 248.36460937 70.84023438 249.29296875 70.88671875 C249.98003906 70.94472656 250.66710937 71.00273437 251.375 71.0625 C251.705 69.7425 252.035 68.4225 252.375 67.0625 C255.1875 66.4375 255.1875 66.4375 258.375 66.0625 C259.365 66.7225 260.355 67.3825 261.375 68.0625 C261.375 69.0525 261.375 70.0425 261.375 71.0625 C264.675 71.0625 267.975 71.0625 271.375 71.0625 C271.705 69.7425 272.035 68.4225 272.375 67.0625 C275.35714526 65.57142737 278.41329801 65.89971464 281.68359375 65.89453125 C282.7673806 65.88953865 282.7673806 65.88953865 283.87306213 65.88444519 C285.4021033 65.87938012 286.93115553 65.87703674 288.46020508 65.87719727 C290.7998272 65.87501184 293.13897703 65.8568552 295.47851562 65.83789062 C296.96354005 65.83495641 298.44856672 65.8329718 299.93359375 65.83203125 C300.6336705 65.82484573 301.33374725 65.81766022 302.05503845 65.81025696 C305.72623268 65.82752738 307.23252656 65.9675177 310.375 68.0625 C310.6875 71.5625 310.6875 71.5625 310.375 75.0625 C309.715 75.7225 309.055 76.3825 308.375 77.0625 C307.385 77.0625 306.395 77.0625 305.375 77.0625 C305.375 142.7325 305.375 208.4025 305.375 276.0625 C145.655 276.0625 -14.065 276.0625 -178.625 276.0625 C-178.625 210.3925 -178.625 144.7225 -178.625 77.0625 C-132.425 77.0625 -86.225 77.0625 -38.625 77.0625 C-38.625 81.0225 -38.625 84.9825 -38.625 89.0625 C-40.625 91.0625 -40.625 91.0625 -43.36630249 91.30059814 C-44.5336795 91.29582458 -45.70105652 91.29105103 -46.90380859 91.28613281 C-47.54806793 91.28654068 -48.19232727 91.28694855 -48.85610962 91.28736877 C-50.25841164 91.28756657 -51.66071912 91.28351664 -53.06299973 91.27576447 C-55.29297123 91.2655354 -57.5223838 91.27092737 -59.75234985 91.28118896 C-66.09394849 91.30913603 -72.43524291 91.32189848 -78.77685547 91.29248047 C-82.65692401 91.2756095 -86.53600257 91.28829473 -90.41597366 91.31893158 C-91.88532738 91.32498247 -93.35477084 91.32031019 -94.82404709 91.30405426 C-104.73272484 91.19914406 -112.12542692 92.71177208 -120.625 98.0625 C-121.54036026 98.63003998 -121.54036026 98.63003998 -122.47421265 99.20904541 C-129.01970156 103.9427652 -133.04161368 112.31570169 -134.625 120.0625 C-134.87460286 123.06606608 -134.85942024 126.04640083 -134.8203125 129.05859375 C-134.81606766 130.30891136 -134.81606766 130.30891136 -134.81173706 131.58448792 C-134.80062289 134.2231436 -134.77553515 136.86144848 -134.75 139.5 C-134.73995885 141.29882319 -134.73083499 143.09765175 -134.72265625 144.89648438 C-134.70071235 149.28528955 -134.66624387 153.67383548 -134.625 158.0625 C-132.315 158.0625 -130.005 158.0625 -127.625 158.0625 C-126.07527301 154.96304602 -126.46806105 151.67621529 -126.44921875 148.2734375 C-126.42600277 146.67576833 -126.40188474 145.07811207 -126.37695312 143.48046875 C-126.34198097 140.96589755 -126.31257677 138.45179538 -126.29907227 135.93701172 C-126.28347314 133.50690753 -126.24317332 131.07817374 -126.19921875 128.6484375 C-126.20112717 127.90854584 -126.20303558 127.16865417 -126.20500183 126.40634155 C-126.04790421 119.60754008 -123.7332498 114.51262814 -119.3125 109.375 C-112.98788398 103.93288854 -108.71265394 100.94587044 -100.13745117 100.9206543 C-99.48340805 100.91717987 -98.82936493 100.91370544 -98.15550232 100.91012573 C-96.73630305 100.90277974 -95.31709238 100.8974282 -93.89787865 100.89383507 C-91.64856583 100.88665683 -89.39946955 100.87097988 -87.15022278 100.85249329 C-80.75537093 100.80009039 -74.36063809 100.7520641 -67.96557617 100.73657227 C-64.05207158 100.72647094 -60.13911292 100.69709312 -56.22582436 100.65525246 C-54.73759408 100.64296825 -53.24928661 100.63781649 -51.76100731 100.64005089 C-49.67365991 100.64241337 -47.58786884 100.62017011 -45.50073242 100.5925293 C-44.31509201 100.58666306 -43.1294516 100.58079681 -41.90788269 100.57475281 C-36.91682818 99.79596114 -33.89938548 97.66023576 -30.77305603 93.74066162 C-29.34107887 90.40017459 -29.25320407 87.84553809 -29.25610352 84.21191406 C-29.25233704 83.54289062 -29.24857056 82.87386719 -29.24468994 82.18457031 C-29.23827686 80.73813525 -29.23856928 79.29165801 -29.24487495 77.84522247 C-29.25402415 75.54852904 -29.24371703 73.25264541 -29.22825623 70.95599365 C-29.18827261 64.42868253 -29.18694566 57.90143672 -29.18920898 51.37402344 C-29.18926035 47.37397831 -29.16995949 43.37436858 -29.13987541 39.37444305 C-29.12912941 37.12484111 -29.14113467 34.87609924 -29.15370178 32.62652588 C-29.12933072 23.11283648 -27.73708286 16.68616597 -22.4375 8.8125 C-18.88166661 5.33568513 -15.05720411 3.24812521 -10.625 1.0625 C-7.31505287 -0.59247356 -3.63377 -0.03834335 0 0 Z " fill="#FDFDFD" transform="translate(192.625,222.9375)"/>
<path d="M0 0 C3.0082144 1.35834836 5.18989535 2.90199012 7.58203125 5.16796875 C8.59825562 6.1261853 8.59825562 6.1261853 9.63500977 7.10375977 C10.35358154 7.79139404 11.07215332 8.47902832 11.8125 9.1875 C12.56007568 9.89640381 13.30765137 10.60530762 14.07788086 11.33569336 C19.75806507 16.74724857 25.33528245 22.25785791 30.82543945 27.86206055 C33.76446439 30.84557165 36.75348205 33.68412196 39.9375 36.40625 C42.7897641 38.86325268 45.40590756 41.4223951 47.96484375 44.18359375 C48.62033203 44.88291016 49.27582031 45.58222656 49.95117188 46.30273438 C51.28729463 47.73870505 52.60748032 49.18965397 53.91210938 50.65429688 C57.52853605 54.6004305 57.52853605 54.6004305 62.39624023 56.38134766 C64.77628938 56.35978046 64.77628938 56.35978046 67.00341797 56.02172852 C69.59424673 55.9935329 70.33474839 56.74717814 72.1875 58.5 C74.77939465 61.32433952 74.77939465 61.32433952 78.25 61.1875 C79.1575 61.125625 80.065 61.06375 81 61 C81.66 61.66 82.32 62.32 83 63 C82.938125 64.093125 82.87625 65.18625 82.8125 66.3125 C82.59478602 70.15335791 82.59478602 70.15335791 85.5 72.5 C88.80274241 75.80274241 88 77.48495646 88 82 C90.21791977 84.50763461 90.21791977 84.50763461 93 87 C94.67364024 88.68443577 96.34679926 90.36934978 98.01953125 92.0546875 C99.45834458 93.50088274 100.89764481 94.94659145 102.3371582 96.39208984 C103.31625767 97.376212 104.29445695 98.36123062 105.27172852 99.34716797 C110.37374967 104.49303126 115.51073647 109.52482036 121.01831055 114.23876953 C125.88867705 118.56731751 130.36507963 123.33081125 134.93359375 127.97265625 C139.23502079 132.3159124 143.59903837 136.48924103 148.23632812 140.47216797 C150.5779649 142.50067889 152.80016544 144.63176122 155 146.8125 C155.763125 147.56144531 156.52625 148.31039062 157.3125 149.08203125 C159 151 159 151 159 153 C157.85934082 153.02505615 156.71868164 153.0501123 155.54345703 153.07592773 C151.32035659 153.16994293 147.09742291 153.27017787 142.87451172 153.37231445 C141.04512425 153.41568565 139.21569573 153.45735911 137.38623047 153.49731445 C134.75996514 153.55496418 132.1339069 153.61867365 129.5078125 153.68359375 C128.68693146 153.70030624 127.86605042 153.71701874 127.02029419 153.73423767 C122.8766304 153.7431387 122.8766304 153.7431387 119 155 C118.67 193.28 118.34 231.56 118 271 C112.39 271 106.78 271 101 271 C100.98018066 269.71947754 100.96036133 268.43895508 100.93994141 267.11962891 C100.86337531 262.32972876 100.77473986 257.54011238 100.68261719 252.75048828 C100.64453683 250.68479042 100.60964902 248.61903097 100.578125 246.55322266 C100.53201612 243.56911328 100.4741012 240.58542036 100.4140625 237.6015625 C100.39673569 236.23531235 100.39673569 236.23531235 100.37905884 234.84146118 C100.10169787 222.5553401 97.66406481 213.01480506 88.99609375 203.890625 C80.97610731 196.97837149 71.42039548 194.98170184 61.0703125 194.3984375 C60.38590088 194.35807373 59.70148926 194.31770996 58.99633789 194.27612305 C57.33119885 194.17868696 55.66563436 194.08856626 54 194 C53.99589111 193.0620459 53.99178223 192.1240918 53.98754883 191.15771484 C53.96047998 187.65695466 53.91130659 184.15792275 53.84741211 180.65771484 C53.82430333 179.14675596 53.80985312 177.63563762 53.80444336 176.12451172 C53.7951003 173.94398465 53.75400369 171.76594036 53.70703125 169.5859375 C53.68346558 167.62213135 53.68346558 167.62213135 53.65942383 165.61865234 C52.74258604 160.58741589 50.62486253 157.82189187 46.34672546 154.85247803 C42.86017676 153.58594464 39.40949908 153.70521823 35.74658203 153.70947266 C34.91682861 153.70275543 34.0870752 153.69603821 33.23217773 153.68911743 C30.49066165 153.67012814 27.74939025 153.66621277 25.0078125 153.6640625 C23.09976094 153.65763522 21.19171037 153.65090691 19.28366089 153.64389038 C15.28397334 153.63191529 11.28437218 153.6282098 7.28466797 153.62939453 C2.16440398 153.62959773 -2.95530506 153.60229538 -8.07543755 153.56785011 C-12.01659683 153.54559126 -15.95762234 153.54155668 -19.89883804 153.54261398 C-21.78625527 153.54025651 -23.67367609 153.53142471 -25.56103134 153.51594925 C-28.20367832 153.49630973 -30.84512586 153.502119 -33.48779297 153.51416016 C-34.26410065 153.50292114 -35.04040833 153.49168213 -35.84024048 153.48010254 C-41.99642899 153.55122941 -45.50349777 155.5779067 -49.84301758 159.78808594 C-51.52639911 163.00636757 -51.43997208 165.77459268 -51.51171875 169.390625 C-51.53864555 170.44754547 -51.53864555 170.44754547 -51.56611633 171.52581787 C-51.62011858 173.76715179 -51.65408088 176.00827405 -51.6875 178.25 C-51.72068218 179.77346689 -51.75517269 181.29690589 -51.79101562 182.8203125 C-51.87583738 186.5466716 -51.94269724 190.27310463 -52 194 C-53.77503906 194.03867187 -53.77503906 194.03867187 -55.5859375 194.078125 C-68.81568813 194.49536129 -79.24655715 196.24655715 -89 206 C-96.84732467 215.7642284 -98.25906878 225.38003064 -98.4140625 237.6015625 C-98.43342865 238.564039 -98.4527948 239.5265155 -98.4727478 240.51815796 C-98.53191573 243.55368545 -98.57867481 246.58925218 -98.625 249.625 C-98.66323772 251.69923412 -98.70229269 253.77345334 -98.7421875 255.84765625 C-98.83756461 260.89831468 -98.92182368 265.94904724 -99 271 C-104.61 271 -110.22 271 -116 271 C-116.33 232.39 -116.66 193.78 -117 154 C-137.295 153.505 -137.295 153.505 -158 153 C-151.17090909 145.03272727 -151.17090909 145.03272727 -147.625 141.5 C-146.93664062 140.8090625 -146.24828125 140.118125 -145.5390625 139.40625 C-143.4906911 137.46502418 -141.41177915 135.61986372 -139.2734375 133.78125 C-134.62309963 129.73974283 -130.31760251 125.39128174 -126 121 C-117.57808043 112.43436166 -117.57808043 112.43436166 -113.03125 108.53125 C-108.26833486 104.43797243 -103.90285874 99.97353063 -99.5 95.5 C-94.48072491 90.40015869 -89.43954375 85.44816517 -84.00976562 80.78710938 C-80.1669081 77.36999116 -76.60391313 73.66541335 -73 70 C-64.57808043 61.43436166 -64.57808043 61.43436166 -60.03125 57.53125 C-55.26833486 53.43797243 -50.90285874 48.97353063 -46.5 44.5 C-41.48072491 39.40015869 -36.43954375 34.44816517 -31.00976562 29.78710938 C-27.1669081 26.36999116 -23.60391313 22.66541335 -20 19 C-15.05891805 13.97459925 -10.09387082 9.07996403 -4.7265625 4.5078125 C-3.07703058 3.06727105 -1.52920426 1.56673075 0 0 Z " fill="#558DCD" transform="translate(253,19)"/>
<path d="M0 0 C43.56 0 87.12 0 132 0 C132.33 5.61 132.66 11.22 133 17 C135.98906769 27.36832854 140.28254123 35.65159921 149.55859375 41.65625 C156.35169581 45.21306447 163.05825172 47.22875148 170.76147461 47.31884766 C172.06229477 47.33871735 173.36311493 47.35858704 174.70335388 47.37905884 C176.10301545 47.39093169 177.50267881 47.40259475 178.90234375 47.4140625 C180.34966612 47.43279492 181.79697781 47.45236985 183.24427795 47.4727478 C187.03351515 47.52385626 190.82278766 47.5635951 194.61218262 47.60089111 C198.48698512 47.64106506 202.36164339 47.69209598 206.23632812 47.7421875 C213.82411943 47.83869436 221.41198113 47.92317892 229 48 C229.13901044 59.64803481 229.24562662 71.29587237 229.31087303 82.94456768 C229.34218808 88.35356122 229.38466479 93.76198734 229.45263672 99.1706543 C229.51782199 104.39023731 229.55370473 109.60927454 229.56926346 114.82923317 C229.58035123 116.82081508 229.60200353 118.81236707 229.63438034 120.80371666 C229.67793304 123.59335271 229.68393467 126.38073305 229.68115234 129.1706543 C229.702724 129.99424438 229.72429565 130.81783447 229.746521 131.66638184 C229.6879324 137.09441119 229.6879324 137.09441119 227.7458992 139.65088844 C224.868605 142.21727015 223.25867205 142.99108027 219.375 143.125 C215.26832767 141.75610922 214.26007522 140.65653953 212 137 C211.63579242 134.13905365 211.48814091 131.65721303 211.53125 128.8046875 C211.52420044 128.01659698 211.51715088 127.22850647 211.5098877 126.41653442 C211.48058688 123.06527397 211.49689882 119.7146045 211.50927734 116.36328125 C211.52365349 101.71111632 209.72066034 89.76399282 199.6875 78.375 C198.800625 77.59125 197.91375 76.8075 197 76 C196.44828125 75.50628906 195.8965625 75.01257813 195.328125 74.50390625 C185.58071972 66.42806014 174.21840386 64.866821 161.9609375 65.77246094 C150.58859082 67.09206093 142.07540406 74.02293211 134.828125 82.42578125 C129.05586946 90.55380775 126.87840888 99.31537226 126.82421875 109.08984375 C126.80102657 110.69467466 126.77690948 112.29949243 126.75195312 113.90429688 C126.71682414 116.42351177 126.68747479 118.94223966 126.67407227 121.46166992 C126.65857273 123.90081931 126.61836498 126.33856638 126.57421875 128.77734375 C126.57612717 129.52644516 126.57803558 130.27554657 126.58000183 131.04734802 C126.49551143 134.67197316 126.09963486 136.83873285 124.17895508 139.94750977 C121.14904139 142.80156964 119.12232985 143.07232158 115 143 C112.19810554 141.23358828 110.48475089 139.96950178 109 137 C108.87946572 134.50441787 108.8143558 132.03198919 108.7890625 129.53515625 C108.76095317 127.9967349 108.73228854 126.45832361 108.703125 124.91992188 C108.66218949 122.50448331 108.62529496 120.08922437 108.59863281 117.67358398 C108.42666705 100.86259884 108.42666705 100.86259884 101.9375 85.5625 C99.03307684 81.07653344 99.03307684 81.07653344 98.06640625 78.83984375 C96.70663346 76.49386212 95.45607785 76.07509635 93 75 C91.61611363 74.03343345 90.24157411 73.0533923 88.875 72.0625 C78.62809441 65.26998074 67.00993886 64.56032934 55.06640625 66.46875 C49.71069547 67.87243083 45.47261465 70.36026281 41.0078125 73.59765625 C39 75 39 75 36.8671875 75.93359375 C34.48465575 77.29432841 34.07704301 78.50792978 33 81 C31.52627891 83.30294577 30.04021258 85.59630163 28.53515625 87.87890625 C23.10682084 98.91514033 23.55566445 110.28179747 23.56420898 122.2734375 C23.56063823 124.59680535 23.53333627 126.91902484 23.50390625 129.2421875 C23.51208878 129.94745575 23.5202713 130.652724 23.52870178 131.37936401 C23.47547925 134.90529697 23.0621964 136.90008121 21.18334961 139.91845703 C18.15603479 142.80461225 16.14163148 143.0726602 12 143 C9.19810554 141.23358828 7.48475089 139.96950178 6 137 C5.89146286 134.44330586 5.83862072 131.90905304 5.82421875 129.3515625 C5.80098408 127.77212262 5.77686537 126.19269556 5.75195312 124.61328125 C5.71713586 122.13419487 5.68766762 119.65556828 5.67407227 117.17626953 C5.56892498 101.12594101 2.89474366 88.59240899 -8.125 76.3125 C-17.85713993 66.97225832 -29.37726764 65.43595181 -42.1484375 65.66015625 C-52.19954337 66.12905221 -60.91934789 70.98973211 -68 78 C-75.42406015 87.06831508 -79.11320728 96.69321501 -79.17578125 108.30859375 C-79.19897336 109.95899722 -79.22309045 111.6093879 -79.24804688 113.25976562 C-79.28317861 115.85140641 -79.31252623 118.44257364 -79.32592773 121.03442383 C-79.34142342 123.54305606 -79.38162946 126.0503234 -79.42578125 128.55859375 C-79.42387283 129.32956894 -79.42196442 130.10054413 -79.41999817 130.8948822 C-79.53264296 135.86408227 -80.38817723 138.5445931 -84 142 C-86.21875 142.62890625 -86.21875 142.62890625 -88.5 142.5625 C-89.2528125 142.56378906 -90.005625 142.56507813 -90.78125 142.56640625 C-93.96961628 141.75247472 -95.01375729 140.63752452 -97 138 C-97.37390367 134.97019893 -97.50671131 132.3102351 -97.45410156 129.28417969 C-97.45468567 128.40577423 -97.45526978 127.52736877 -97.45587158 126.62234497 C-97.45308705 123.72178494 -97.4219777 120.82225528 -97.390625 117.921875 C-97.38316392 115.90977541 -97.37747036 113.89766854 -97.37347412 111.88555908 C-97.35820736 106.59175527 -97.31891633 101.29839099 -97.2746582 96.00476074 C-97.23372812 90.60219265 -97.21546793 85.19955348 -97.1953125 79.796875 C-97.15242328 69.19772364 -97.08415913 58.59889838 -97 48 C-96.22707108 47.99635437 -95.45414215 47.99270874 -94.65779114 47.98895264 C-87.3182114 47.95084156 -79.97912638 47.89373179 -72.63986683 47.81609726 C-68.86804968 47.7768472 -65.09645813 47.74455025 -61.32446289 47.72900391 C-57.67369263 47.71368698 -54.02354358 47.67898291 -50.3730526 47.63169098 C-48.99110042 47.61703003 -47.60905948 47.60896793 -46.2270298 47.60811615 C-33.58092366 47.5925059 -21.50271538 45.97963013 -12 37 C-11.45859375 36.51015625 -10.9171875 36.0203125 -10.359375 35.515625 C-0.80534245 25.76858169 -0.77009761 13.09165943 0 0 Z " fill="#FEFEFE" transform="translate(188,300)"/>
<path d="M0 0 C0.80179688 0.00451172 1.60359375 0.00902344 2.4296875 0.01367188 C4.41149006 0.02546832 6.39325433 0.04340395 8.375 0.0625 C8.375 4.6825 8.375 9.3025 8.375 14.0625 C6.18875 14.145 4.0025 14.2275 1.75 14.3125 C-3.99341411 14.72440142 -7.47471621 15.02750187 -11.625 19.0625 C-13.93380063 22.58452828 -13.87604488 25.64977241 -13.88037109 29.79956055 C-13.88399155 30.46843796 -13.887612 31.13731537 -13.89134216 31.82646179 C-13.89822198 33.27564317 -13.90074425 34.72485039 -13.89939499 36.17404747 C-13.89842675 38.4747542 -13.91140877 40.7749975 -13.92837524 43.07563782 C-13.97454319 49.61573656 -13.99922708 56.15578879 -14.00585938 62.69604492 C-14.01089975 66.70145117 -14.03528035 70.70637583 -14.07118607 74.71161842 C-14.08092964 76.23087472 -14.08334596 77.75019775 -14.07801437 79.26947594 C-14.0385921 91.06134043 -15.51395643 99.50780888 -23.69140625 108.3359375 C-29.69722768 113.69871139 -36.28979741 115.18535437 -44.15014648 115.18847656 C-45.11920929 115.19127876 -45.11920929 115.19127876 -46.10784912 115.19413757 C-47.50630229 115.19813087 -48.90476193 115.20021543 -50.30322075 115.20059967 C-53.27955862 115.20402724 -56.25568038 115.22540131 -59.23194218 115.24583054 C-64.76867187 115.28379906 -70.30516608 115.31511295 -75.84204102 115.31298828 C-79.69842079 115.31220077 -83.55400218 115.3355754 -87.41017342 115.3748703 C-88.87690707 115.38532203 -90.34373295 115.38686031 -91.81048393 115.37921906 C-93.86468665 115.36958267 -95.9164743 115.39079738 -97.97045898 115.41894531 C-99.13753891 115.42259094 -100.30461884 115.42623657 -101.50706482 115.42999268 C-105.52643671 116.24536632 -107.00982364 117.98962734 -109.625 121.0625 C-109.955 121.3925 -110.285 121.7225 -110.625 122.0625 C-110.73624569 124.95250688 -110.78240095 127.8188349 -110.78613281 130.7097168 C-110.79109772 131.6170607 -110.79606262 132.5244046 -110.80117798 133.45924377 C-110.81584472 136.47674302 -110.82261031 139.49418964 -110.828125 142.51171875 C-110.83387428 144.60341901 -110.83963204 146.69511924 -110.84539795 148.78681946 C-110.85592183 153.18104295 -110.8617549 157.57524809 -110.86523438 161.96948242 C-110.87071139 167.59752446 -110.8947167 173.22532362 -110.92320633 178.8532896 C-110.94184403 183.17788903 -110.94703899 187.50243022 -110.94857025 191.82706642 C-110.95159651 193.90148046 -110.95962411 195.97589349 -110.97275543 198.05026817 C-110.9898337 200.95646885 -110.98793083 203.86207987 -110.98144531 206.76831055 C-110.9906601 207.62413727 -110.99987488 208.47996399 -111.0093689 209.36172485 C-110.97425217 214.39189484 -110.24327096 217.63143825 -107.625 222.0625 C-107.295 223.0525 -106.965 224.0425 -106.625 225.0625 C-104.2819191 226.18335312 -104.2819191 226.18335312 -101.625 227.0625 C-100.696875 227.619375 -100.696875 227.619375 -99.75 228.1875 C-94.91514865 230.17832114 -90.61945773 229.27704533 -85.9375 227.375 C-82.14461697 225.54951378 -79.89196119 223.68963791 -77.625 220.0625 C-77.26841309 219.52318848 -76.91182617 218.98387695 -76.54443359 218.42822266 C-75.17926719 214.91561977 -75.34680875 211.42611418 -75.3515625 207.7109375 C-75.33125702 206.03775393 -75.31040595 204.3645769 -75.2890625 202.69140625 C-75.26657593 200.07172116 -75.25003328 197.45229633 -75.24414062 194.83251953 C-75.19016233 180.57955029 -74.17918164 170.92878553 -63.93359375 160.1953125 C-60.95447542 157.4430306 -58.30576152 155.76131301 -54.625 154.0625 C-53.50931641 153.53269531 -53.50931641 153.53269531 -52.37109375 152.9921875 C-44.57694262 150.35348484 -34.36881925 151.09824835 -26.96875 154.61328125 C-18.19387179 160.03908094 -11.94757636 166.94107756 -9.08137512 176.96340942 C-8.32277238 180.45259143 -8.46792081 183.99894425 -8.44921875 187.5546875 C-8.42602242 189.24610622 -8.40190516 190.93751252 -8.37695312 192.62890625 C-8.34185486 195.28410195 -8.31249323 197.93883884 -8.29907227 200.59423828 C-8.28355155 203.16494627 -8.24332438 205.73433139 -8.19921875 208.3046875 C-8.20112717 209.09237518 -8.20303558 209.88006287 -8.20500183 210.69161987 C-8.08949501 215.92677683 -7.04116578 218.88443289 -3.625 223.0625 C0.30652901 226.60087611 3.31871056 228.86477986 8.625 229.375 C14.96291744 228.84684021 19.48828337 227.4457774 23.8125 222.625 C27.66479194 217.9329714 27.5257397 213.25038079 27.5859375 207.3671875 C27.61402836 205.83071892 27.64269294 204.29426074 27.671875 202.7578125 C27.71290721 200.3554743 27.74982517 197.95332555 27.77636719 195.55078125 C27.94384314 181.57520174 28.88132153 170.86170647 39.00390625 160.375 C44.67222893 155.1143757 50.60362618 152.0625 58.375 152.0625 C58.375 156.6825 58.375 161.3025 58.375 166.0625 C56.8075 166.76375 55.24 167.465 53.625 168.1875 C48.88935845 170.54527345 46.72664158 172.35921683 44.375 177.0625 C43.11684325 180.83697026 43.22009848 184.3836699 43.19921875 188.31640625 C43.17600021 189.99285082 43.15188208 191.66928312 43.12695312 193.34570312 C43.09202049 195.97639942 43.06259431 198.60665014 43.04907227 201.23754883 C42.96197458 215.42375112 41.94651114 225.22942323 31.75390625 235.92578125 C24.2192251 242.69338484 15.97746692 243.53518978 6.20703125 243.3359375 C-2.84170856 242.6902578 -9.5700719 238.71078409 -15.625 232.0625 C-21.03876525 224.94057472 -22.9104636 218.29203248 -22.86328125 209.4453125 C-22.87869996 207.76952314 -22.89500352 206.09374173 -22.91210938 204.41796875 C-22.9285395 201.80239164 -22.93749973 199.18740172 -22.93041992 196.57177734 C-22.92778463 194.02896257 -22.95601961 191.48789276 -22.98828125 188.9453125 C-22.97297112 187.78867599 -22.97297112 187.78867599 -22.95735168 186.6086731 C-23.06326385 180.65907044 -24.9421964 176.71068886 -28.625 172.0625 C-33.74026896 167.31260739 -37.96854373 166.63665402 -44.765625 166.7265625 C-49.21007269 167.24872439 -52.56085089 168.78679494 -55.625 172.0625 C-59.08447722 177.55402091 -60.19289638 182.125893 -60.09375 188.55078125 C-60.10079956 189.33462692 -60.10784912 190.1184726 -60.1151123 190.92607117 C-60.14427102 194.23890104 -60.12807086 197.55112122 -60.11572266 200.86401367 C-60.10258902 214.15131702 -60.7108486 225.05378361 -70.41796875 235.12109375 C-77.70496249 241.53106877 -86.52293729 244.67955617 -96.2109375 244.36328125 C-107.26298221 242.98624655 -114.64454297 237.1261052 -121.546875 228.72265625 C-126.75452692 220.47720738 -126.27358902 211.54423136 -126.13696289 202.05102539 C-126.12955056 198.98523907 -126.13878218 196.09029783 -126.625 193.0625 C-129.00424827 190.55171011 -129.00424827 190.55171011 -131.625 189.0625 C-131.89453125 186.703125 -131.89453125 186.703125 -131.4375 184.3125 C-131.23060547 183.11367188 -131.23060547 183.11367188 -131.01953125 181.890625 C-130.88933594 181.28734375 -130.75914062 180.6840625 -130.625 180.0625 C-132.275 179.4025 -133.925 178.7425 -135.625 178.0625 C-135.875 175.25 -135.875 175.25 -135.625 172.0625 C-134.985625 171.629375 -134.34625 171.19625 -133.6875 170.75 C-131.08603314 168.62152711 -131.215745 167.64004906 -130.875 164.375 C-130.77420133 162.93861902 -130.68532073 161.5011494 -130.625 160.0625 C-131.285 159.7325 -131.945 159.4025 -132.625 159.0625 C-131.820625 158.93875 -131.01625 158.815 -130.1875 158.6875 C-129.341875 158.48125 -128.49625 158.275 -127.625 158.0625 C-126.07527301 154.96304602 -126.46806105 151.67621529 -126.44921875 148.2734375 C-126.42600277 146.67576833 -126.40188474 145.07811207 -126.37695312 143.48046875 C-126.34198097 140.96589755 -126.31257677 138.45179538 -126.29907227 135.93701172 C-126.28347314 133.50690753 -126.24317332 131.07817374 -126.19921875 128.6484375 C-126.20112717 127.90854584 -126.20303558 127.16865417 -126.20500183 126.40634155 C-126.04790421 119.60754008 -123.7332498 114.51262814 -119.3125 109.375 C-112.98788398 103.93288854 -108.71265394 100.94587044 -100.13745117 100.9206543 C-99.48340805 100.91717987 -98.82936493 100.91370544 -98.15550232 100.91012573 C-96.73630305 100.90277974 -95.31709238 100.8974282 -93.89787865 100.89383507 C-91.64856583 100.88665683 -89.39946955 100.87097988 -87.15022278 100.85249329 C-80.75537093 100.80009039 -74.36063809 100.7520641 -67.96557617 100.73657227 C-64.05207158 100.72647094 -60.13911292 100.69709312 -56.22582436 100.65525246 C-54.73759408 100.64296825 -53.24928661 100.63781649 -51.76100731 100.64005089 C-49.67365991 100.64241337 -47.58786884 100.62017011 -45.50073242 100.5925293 C-44.31509201 100.58666306 -43.1294516 100.58079681 -41.90788269 100.57475281 C-36.91682818 99.79596114 -33.89938548 97.66023576 -30.77305603 93.74066162 C-29.34107887 90.40017459 -29.25320407 87.84553809 -29.25610352 84.21191406 C-29.25233704 83.54289062 -29.24857056 82.87386719 -29.24468994 82.18457031 C-29.23827686 80.73813525 -29.23856928 79.29165801 -29.24487495 77.84522247 C-29.25402415 75.54852904 -29.24371703 73.25264541 -29.22825623 70.95599365 C-29.18827261 64.42868253 -29.18694566 57.90143672 -29.18920898 51.37402344 C-29.18926035 47.37397831 -29.16995949 43.37436858 -29.13987541 39.37444305 C-29.12912941 37.12484111 -29.14113467 34.87609924 -29.15370178 32.62652588 C-29.12933072 23.11283648 -27.73708286 16.68616597 -22.4375 8.8125 C-18.88166661 5.33568513 -15.05720411 3.24812521 -10.625 1.0625 C-7.31505287 -0.59247356 -3.63377 -0.03834335 0 0 Z " fill="#6EBDE3" transform="translate(192.625,222.9375)"/>
<path d="M0 0 C1.13464188 0.00607269 1.13464188 0.00607269 2.29220581 0.01226807 C3.08907806 0.00876343 3.88595032 0.00525879 4.70697021 0.00164795 C7.34875118 -0.00717566 9.99026573 -0.00131805 12.63204956 0.00543213 C14.46286063 0.00408566 16.29367136 0.00214528 18.1244812 -0.00036621 C21.96460366 -0.00331832 25.80463319 0.00098296 29.64474487 0.01031494 C34.5747365 0.02170953 39.50451039 0.01515052 44.43449402 0.00317001 C48.21592865 -0.00404624 51.99731139 -0.00176174 55.77874756 0.0034256 C57.5968834 0.00476275 59.4150239 0.00311211 61.2331543 -0.00153351 C63.77119482 -0.00659491 66.3088794 0.0011059 68.84689331 0.01226807 C69.60332123 0.0082196 70.35974915 0.00417114 71.13909912 0 C76.34102095 0.04252852 76.34102095 0.04252852 78.56954956 2.27105713 C78.81564522 4.17259407 78.81564522 4.17259407 78.81005859 6.53573608 C78.81280792 7.43038574 78.81555725 8.3250354 78.81838989 9.24679565 C78.80760406 10.72277725 78.80760406 10.72277725 78.79660034 12.22857666 C78.7968924 13.26274719 78.79718445 14.29691772 78.79748535 15.36242676 C78.79608801 18.79299201 78.78050773 22.22334215 78.76486206 25.65386963 C78.76113337 28.02755617 78.75828572 30.40124424 78.75628662 32.77493286 C78.74863884 39.03198472 78.72898052 45.28894419 78.70687866 51.54595947 C78.68285419 59.0482543 78.67364471 66.55057996 78.66197205 74.05290222 C78.64255681 85.45901818 78.60424207 96.86493129 78.56954956 108.27105713 C50.18954956 108.27105713 21.80954956 108.27105713 -7.43045044 108.27105713 C-7.51066806 81.89728672 -7.51066806 81.89728672 -7.52810669 70.68902588 C-7.54008048 63.02932987 -7.55427289 55.36968149 -7.58132935 47.71002197 C-7.60299769 41.53737744 -7.61500635 35.36478396 -7.62020493 29.19210434 C-7.62391151 26.83248973 -7.63114911 24.47287804 -7.64191055 22.11328506 C-7.6563456 18.81831995 -7.65843174 15.5235681 -7.65750122 12.22857666 C-7.66469177 11.24458893 -7.67188232 10.2606012 -7.67929077 9.24679565 C-7.67654144 8.352146 -7.67379211 7.45749634 -7.67095947 6.53573608 C-7.67280306 5.75589922 -7.67464664 4.97606236 -7.6765461 4.17259407 C-7.08652291 -0.38640915 -3.8206387 0.03123579 0 0 Z " fill="#EBEBEB" transform="translate(218.43045043945313,181.72894287109375)"/>
<path d="M0 0 C11.15815182 -0.49287542 18.75955638 -0.20029859 28.25 6.1875 C34.30468719 12.37979372 37.11729452 19.07136958 37.1418457 27.67114258 C37.14532013 28.34469284 37.14879456 29.0182431 37.15237427 29.71220398 C37.15972121 31.17396534 37.16507225 32.63573779 37.16866493 34.0975132 C37.17584167 36.41403323 37.19151749 38.73034283 37.21000671 41.04679871 C37.26241695 47.63281353 37.31043796 54.21871278 37.32592773 60.80493164 C37.33602713 64.83513839 37.36540024 68.86481474 37.40724754 72.89481163 C37.41953449 74.4277005 37.42468301 75.96066436 37.42244911 77.49360085 C37.42008756 79.64319784 37.44232343 81.79128187 37.4699707 83.94067383 C37.47583694 85.16184402 37.48170319 86.38301422 37.48774719 87.64118958 C38.25751169 92.68848843 40.3640013 95.7046974 44.33905029 98.85194397 C47.59313653 100.25590637 50.03277784 100.37185392 53.57519531 100.36889648 C54.88715881 100.37577988 56.19912231 100.38266327 57.55084229 100.38975525 C58.24742195 100.38657728 58.94400162 100.38339931 59.66168976 100.38012505 C61.85758108 100.37097096 64.05262629 100.38128834 66.24847412 100.39674377 C72.48904162 100.43671349 78.72954057 100.438055 84.97021484 100.43579102 C88.79520419 100.43573963 92.61973861 100.45505145 96.44460297 100.48512459 C98.59450302 100.49586337 100.7435016 100.48386984 102.89337158 100.47129822 C111.85904738 100.49518284 118.75607671 101.43124632 125.75 107.3125 C134.09538645 117.28060048 134.09538645 117.28060048 134.16062927 124.03843689 C134.1706749 124.85822021 134.18072052 125.67800354 134.19107056 126.52262878 C134.19690155 127.41871353 134.20273254 128.31479828 134.20874023 129.23803711 C134.21852402 130.18480316 134.2283078 131.13156921 134.23838806 132.10702515 C134.26835038 135.24711709 134.28973634 138.38716616 134.30859375 141.52734375 C134.31516558 142.6018384 134.3217374 143.67633305 134.32850838 144.78338814 C134.36111427 150.47707935 134.38555565 156.17075182 134.4050293 161.86450195 C134.42280092 166.56400043 134.45755355 171.26289419 134.50756836 175.9621582 C134.56798395 181.64561291 134.59853544 187.32850945 134.60820198 193.01226997 C134.61672584 195.17109226 134.6354674 197.32990089 134.6649456 199.48853874 C134.84734041 213.61182614 134.41571734 223.84884104 124.75 234.9375 C116.52789697 242.198578 108.77842992 243.94273582 98.0625 243.41015625 C88.46835513 242.61726997 81.27210921 238.24942011 75 231 C70.34233374 223.59664504 68.87148354 217.46364793 68.82421875 208.796875 C68.80101334 207.16014349 68.77689571 205.52342471 68.75195312 203.88671875 C68.71693318 201.32169142 68.68753743 198.75713122 68.67407227 196.19189453 C68.65848726 193.70548646 68.61821143 191.22042251 68.57421875 188.734375 C68.57612717 187.97888367 68.57803558 187.22339233 68.58000183 186.44500732 C68.45535925 180.94825053 67.13454197 176.56637285 64 172 C57.6531183 166.94840028 51.9088238 166.1841901 44 167 C38.44393549 169.72752258 34.23165474 174.18377233 32 180 C31.81004484 182.81445989 31.72296185 185.53756146 31.7265625 188.3515625 C31.70625702 190.02474607 31.68540595 191.6979231 31.6640625 193.37109375 C31.64157593 195.99077884 31.62503328 198.61020367 31.61914062 201.22998047 C31.56590677 215.28637861 30.62443771 225.17942676 20.5078125 235.796875 C13.38187878 242.05704108 5.17642093 244.47528156 -4.1875 244.3359375 C-13.59809459 243.21189426 -21.93628187 238.16733963 -28 231 C-32.37871732 223.92264875 -34.1323157 217.92567434 -34.17578125 209.640625 C-34.19898668 207.95050848 -34.2231043 206.26040428 -34.24804688 204.5703125 C-34.28308886 201.91300285 -34.31246888 199.25614491 -34.32592773 196.59863281 C-34.34148107 194.02874286 -34.38174068 191.4601647 -34.42578125 188.890625 C-34.42387283 188.10496155 -34.42196442 187.3192981 -34.41999817 186.50982666 C-34.54352753 180.88744904 -35.97584453 177.72587726 -39 173 C-39 172.34 -39 171.68 -39 171 C-39.598125 170.71125 -40.19625 170.4225 -40.8125 170.125 C-43 169 -43 169 -46 167 C-46.29296875 163.7421875 -46.29296875 163.7421875 -46.1875 159.875 C-46.16042969 158.59367188 -46.13335937 157.31234375 -46.10546875 155.9921875 C-46.07066406 155.00476563 -46.03585937 154.01734375 -46 153 C-37.01521471 154.22172718 -31.90003454 158.70306185 -25.859375 165.23046875 C-19.14651219 175.2292497 -19.42958608 185.06646659 -19.4375 196.6875 C-19.43387468 199.18776117 -19.4241945 201.6873353 -19.39674377 204.18745422 C-19.38014189 205.73227848 -19.37693061 207.2773291 -19.38975525 208.82218933 C-19.33490108 214.46398284 -18.32044013 219.3666252 -14.46484375 223.7421875 C-7.95923781 228.56731722 -3.05253606 228.70619074 5 228 C10.03359633 225.6156649 13.49996787 222.00006427 16 217 C16.10871753 214.28617845 16.16140601 211.59349791 16.17578125 208.87890625 C16.199009 207.20376388 16.22312747 205.52863368 16.24804688 203.85351562 C16.28292338 201.22070535 16.31236695 198.58833364 16.32592773 195.95532227 C16.41184168 181.99628819 17.1209831 170.72025381 27.40234375 160.23828125 C35.3795924 153.36465196 43.65485818 150.73805557 54.09375 151.421875 C63.94022756 152.87915368 72.01139734 158.13634076 78 166 C83.99048334 175.99269722 83.63127897 186.01596343 83.5 197.25 C82.74723733 211.64229888 82.74723733 211.64229888 89 224 C92.92834089 227.92834089 96.19898042 228.28632978 101.5625 228.4375 C106.38885656 228.43181525 108.9925445 227.65520338 113 225 C113.66 225 114.32 225 115 225 C115.68620031 223.67661368 116.34786461 222.34050052 117 221 C117.3468837 220.31534668 117.6937674 219.63069336 118.05116272 218.92529297 C119.36342874 214.87953861 119.30310209 211.1113235 119.30639648 206.8828125 C119.31888176 205.51851105 119.31888176 205.51851105 119.33161926 204.12664795 C119.35567636 201.12605488 119.36448482 198.12567921 119.37109375 195.125 C119.38006116 193.03662043 119.38918302 190.94824153 119.39845276 188.85986328 C119.41493209 184.48533568 119.42264134 180.11088454 119.42553711 175.73632812 C119.43092926 170.13052196 119.46864855 164.5254335 119.51428127 158.91983032 C119.54401374 154.60812752 119.55125979 150.29659867 119.55226326 145.98480225 C119.55647073 143.91791485 119.56892607 141.85102718 119.58978081 139.78424072 C119.61662448 136.8946836 119.61189137 134.00680546 119.59936523 131.1171875 C119.61419952 130.26404968 119.62903381 129.41091187 119.64431763 128.53192139 C119.59036363 124.16317816 119.41654507 122.51925665 116.58753967 118.99267578 C112.69666285 115.99629428 110.75235234 115.87307447 105.87304688 115.8581543 C104.58410522 115.85111984 103.29516357 115.84408539 101.96716309 115.83683777 C101.27551559 115.83502188 100.5838681 115.83320599 99.8712616 115.83133507 C97.70073845 115.8241592 95.53044003 115.80848038 93.35998535 115.78999329 C87.18761454 115.73760595 81.01536131 115.68964568 74.84277344 115.67407227 C71.06655828 115.66392076 67.29090126 115.63440874 63.51490784 115.59275246 C62.08301541 115.58052936 60.65104378 115.57530514 59.21910095 115.57755089 C47.54835445 115.59133816 38.39161266 114.092845 29.69140625 105.9375 C24.66957009 100.18500407 22.87959776 93.84005726 22.8581543 86.32885742 C22.85467987 85.65530716 22.85120544 84.9817569 22.84762573 84.28779602 C22.84027879 82.82603466 22.83492775 81.36426221 22.83133507 79.9024868 C22.82415833 77.58596677 22.80848251 75.26965717 22.78999329 72.95320129 C22.73758305 66.36718647 22.68956204 59.78128722 22.67407227 53.19506836 C22.66397287 49.16486161 22.63459976 45.13518526 22.59275246 41.10518837 C22.58046551 39.5722995 22.57531699 38.03933564 22.57755089 36.50639915 C22.57991244 34.35680216 22.55767657 32.20871813 22.5300293 30.05932617 C22.52416306 28.83815598 22.51829681 27.61698578 22.51225281 26.35881042 C21.89884398 22.33672618 20.52287155 20.15611831 18 17 C14.21603891 14.82501732 10.49731293 14.63620078 6.1875 14.375 C4.145625 14.25125 2.10375 14.1275 0 14 C0 9.38 0 4.76 0 0 Z " fill="#F55A3A" transform="translate(307,223)"/>
<path d="M0 0 C2.93268508 0.32379218 4.53992405 0.51157714 6.60083008 2.69946289 C7.04837646 3.4289917 7.49592285 4.15852051 7.95703125 4.91015625 C8.46057129 5.72500488 8.96411133 6.53985352 9.48291016 7.37939453 C11.97693913 11.68755465 14.38027048 16.02633531 16.6875 20.4375 C17.39616211 21.75331055 17.39616211 21.75331055 18.11914062 23.09570312 C22.67391676 31.76447061 26.60988828 41.03107642 25 51 C22.6452925 58.36936237 18.78503789 63.28252713 12 67 C6.12197826 69.30922283 0.44827925 70.22851539 -5.5546875 68.08984375 C-12.56573759 64.85477464 -16.04504857 61.50543016 -19.8125 54.75 C-23.59918689 42.79204141 -18.86582936 32.14327552 -13.359375 21.52734375 C-12.50085938 19.90505859 -12.50085938 19.90505859 -11.625 18.25 C-11.06039062 17.15300781 -10.49578125 16.05601562 -9.9140625 14.92578125 C-7.04125103 9.43950934 -4.23376489 4.53504404 0 0 Z " fill="#060606" transform="translate(252,204)"/>
<path d="M0 0 C1.19625 0.12375 2.3925 0.2475 3.625 0.375 C6.04537688 3.64309341 7.21336833 6.94952674 8.375 10.8125 C10.98385019 18.16471417 15.21041179 21.25620273 22 24.6875 C23.19625 25.244375 24.3925 25.80125 25.625 26.375 C26.625 27.375 26.625 27.375 27.0625 30.1875 C26.625 33.375 26.625 33.375 24 35.5625 C21.89048152 36.69538955 19.74690591 37.76924633 17.5625 38.75 C10.41058911 42.70637624 8.7156318 48.25215758 6.51953125 55.765625 C5.625 58.375 5.625 58.375 3.625 60.375 C0.1875 60.8125 0.1875 60.8125 -3.375 60.375 C-5.78889147 57.10192682 -6.96314675 53.80121009 -8.125 49.9375 C-10.0714938 44.45192657 -12.42127329 41.40890893 -17.375 38.375 C-18.82534104 37.69112033 -20.28373862 37.02404401 -21.75 36.375 C-24.8620577 34.92189913 -25.22717871 34.72977109 -26.625 31.375 C-26.375 28.375 -26.375 28.375 -25.0625 26.3125 C-22.52601941 24.48387446 -20.29282438 23.47310164 -17.4375 22.25 C-11.41709261 19.37259941 -9.6283 15.44511429 -7.375 9.375 C-7.06949219 8.58609375 -6.76398438 7.7971875 -6.44921875 6.984375 C-5.7419016 5.12054402 -5.05627519 3.24850676 -4.375 1.375 C-3.375 0.375 -3.375 0.375 0 0 Z " fill="#000000" transform="translate(87.375,205.625)"/>
<path d="M0 0 C2.50390625 1.06640625 2.50390625 1.06640625 3.50390625 2.06640625 C3.87890625 4.81640625 3.87890625 4.81640625 3.50390625 8.06640625 C0.98046875 10.76953125 0.98046875 10.76953125 -1.49609375 13.06640625 C-0.90594482 13.08622559 -0.3157959 13.10604492 0.29223633 13.12646484 C2.96740721 13.22175284 5.64180123 13.33141564 8.31640625 13.44140625 C9.24517578 13.47234375 10.17394531 13.50328125 11.13085938 13.53515625 C12.02353516 13.57382813 12.91621094 13.6125 13.8359375 13.65234375 C14.65811768 13.68376465 15.48029785 13.71518555 16.32739258 13.74755859 C18.50390625 14.06640625 18.50390625 14.06640625 21.50390625 16.06640625 C21.81640625 19.06640625 21.81640625 19.06640625 21.50390625 22.06640625 C19.50390625 24.06640625 19.50390625 24.06640625 17.25732422 24.29345703 C16.34611816 24.2829834 15.43491211 24.27250977 14.49609375 24.26171875 C13.50996094 24.25527344 12.52382812 24.24882812 11.5078125 24.2421875 C9.95900391 24.21705078 9.95900391 24.21705078 8.37890625 24.19140625 C7.33863281 24.18238281 6.29835937 24.17335937 5.2265625 24.1640625 C2.65211533 24.14044372 0.07812413 24.10750774 -2.49609375 24.06640625 C-2.06151855 24.5260376 -1.62694336 24.98566895 -1.17919922 25.45922852 C-0.62119629 26.07338623 -0.06319336 26.68754395 0.51171875 27.3203125 C1.34920654 28.22632202 1.34920654 28.22632202 2.20361328 29.15063477 C3.50390625 31.06640625 3.50390625 31.06640625 3.37890625 35.00390625 C3.09015625 36.01453125 2.80140625 37.02515625 2.50390625 38.06640625 C0.23828125 38.74609375 0.23828125 38.74609375 -2.49609375 39.06640625 C-4.41796875 37.94921875 -4.41796875 37.94921875 -6.24609375 36.19140625 C-6.92285156 35.54558594 -7.59960938 34.89976562 -8.296875 34.234375 C-9.02261719 33.51894531 -9.74835938 32.80351562 -10.49609375 32.06640625 C-11.31464844 31.32003906 -12.13320312 30.57367188 -12.9765625 29.8046875 C-13.78738281 29.04542969 -14.59820312 28.28617188 -15.43359375 27.50390625 C-16.18511719 26.80136719 -16.93664062 26.09882813 -17.7109375 25.375 C-20.09463516 22.29236255 -20.80575661 21.00756991 -20.49609375 17.06640625 C-18.18747482 13.69705987 -15.36365124 10.95883159 -12.43359375 8.12890625 C-11.66853516 7.33677734 -10.90347656 6.54464844 -10.11523438 5.72851562 C-4.40178631 0.08360935 -4.40178631 0.08360935 0 0 Z " fill="#020405" transform="translate(169.49609375,169.93359375)"/>
<path d="M0 0 C0.66 0 1.32 0 2 0 C15.18103559 23.99460362 15.18103559 23.99460362 14 33 C12.60487738 36.90320824 10.67277749 39.49932838 7.3125 42 C2.93049632 43.32286904 -0.61123024 43.3360646 -5 42 C-8.19972296 39.48106916 -10.76680802 36.92379266 -12 33 C-12.41387679 26.77849731 -11.47123702 22.65151044 -8.8125 17.0625 C-8.49659912 16.37027344 -8.18069824 15.67804688 -7.85522461 14.96484375 C-5.48504589 9.83935477 -2.91648792 4.83841314 0 0 Z " fill="#E8E8E8" transform="translate(253,220)"/>
<path d="M0 0 C2.36206055 0.84033203 2.36206055 0.84033203 4.36206055 2.84033203 C4.14999406 7.71786132 2.8594735 9.59574411 -0.63793945 12.84033203 C-0.04779053 12.85491455 0.5423584 12.86949707 1.15039062 12.88452148 C3.82577284 12.95902047 6.49990947 13.05567199 9.17456055 13.15283203 C10.10333008 13.17539063 11.03209961 13.19794922 11.98901367 13.22119141 C12.88168945 13.25664062 13.77436523 13.29208984 14.6940918 13.32861328 C15.92736206 13.3678894 15.92736206 13.3678894 17.18554688 13.40795898 C19.83241135 13.93376908 20.75150769 14.70456408 22.36206055 16.84033203 C22.67456055 19.40283203 22.67456055 19.40283203 22.36206055 21.84033203 C19.84077699 24.36161559 18.84967041 24.13386273 15.35424805 24.25439453 C14.36811523 24.29306641 13.38198242 24.33173828 12.3659668 24.37158203 C10.8171582 24.41798828 10.8171582 24.41798828 9.23706055 24.46533203 C8.19678711 24.50400391 7.15651367 24.54267578 6.0847168 24.58251953 C3.51067743 24.67697969 0.936649 24.76254417 -1.63793945 24.84033203 C-1.21134033 25.24227783 -0.78474121 25.64422363 -0.34521484 26.05834961 C0.20658447 26.59097412 0.75838379 27.12359863 1.3269043 27.67236328 C1.87725342 28.19805908 2.42760254 28.72375488 2.99462891 29.26538086 C4.36206055 30.84033203 4.36206055 30.84033203 4.92456055 33.52783203 C4.25582585 36.27707467 3.77742729 37.34113888 1.36206055 38.84033203 C-4.80816853 38.27702701 -7.80162575 34.30217508 -11.95043945 30.09033203 C-12.69100586 29.37361328 -13.43157227 28.65689453 -14.19458008 27.91845703 C-14.89389648 27.21720703 -15.59321289 26.51595703 -16.3137207 25.79345703 C-16.95220947 25.15569336 -17.59069824 24.51792969 -18.24853516 23.86083984 C-20.04075413 21.25454847 -20.16731158 19.94610229 -19.63793945 16.84033203 C-17.33423319 13.50571057 -14.33858475 10.79916225 -11.45043945 7.96533203 C-10.68151367 7.16869141 -9.91258789 6.37205078 -9.12036133 5.55126953 C-8.36948242 4.80361328 -7.61860352 4.05595703 -6.8449707 3.28564453 C-6.15894775 2.60002441 -5.4729248 1.9144043 -4.76611328 1.20800781 C-2.63793945 -0.15966797 -2.63793945 -0.15966797 0 0 Z " fill="#020305" transform="translate(336.637939453125,170.15966796875)"/>
<path d="M0 0 C2.3125 0.9375 2.3125 0.9375 4.3125 2.9375 C4.07076456 5.91890373 3.530042 7.64164288 1.75 10.0625 C-0.56098543 14.68447086 -0.7535847 18.89663039 0.3125 23.9375 C2.13040413 27.0966134 4.14850739 29.81434847 6.46484375 32.625 C10.62140783 37.82729584 9.97991716 44.60070407 9.3125 50.9375 C7.61105754 55.56227023 5.12813887 59.75114189 1.3125 62.9375 C-2.02942692 62.69296876 -3.29293557 62.33206443 -5.6875 59.9375 C-6.09417927 56.84673753 -6.01449434 55.42088294 -4.25 52.8125 C-3.4765625 51.884375 -3.4765625 51.884375 -2.6875 50.9375 C-1.44602631 47.21307894 -1.14951271 43.80658665 -1.6875 39.9375 C-3.36689769 36.75170633 -3.36689769 36.75170633 -5.6875 33.9375 C-10.34372235 27.22706191 -12.77008089 22.17046083 -11.6875 13.9375 C-9.9880079 8.27865061 -6.84252023 -0.15912838 0 0 Z " fill="#030507" transform="translate(282.6875,93.0625)"/>
<path d="M0 0 C1.36125 0.37125 1.36125 0.37125 2.75 0.75 C4.10714286 7.16558442 4.10714286 7.16558442 2.375 10 C1.570625 10.86625 1.570625 10.86625 0.75 11.75 C-0.92395632 16.77186897 -0.91447276 20.39644438 1.4375 25.1875 C2.58054642 27.04751102 3.76602814 28.77006923 5.12890625 30.4765625 C9.80674626 36.74033687 9.71333259 43.16707006 8.75 50.75 C7.32536354 55.45057715 4.83625806 59.90200196 0.75 62.75 C-2.64154295 62.58849795 -3.83296757 62.16703243 -6.25 59.75 C-6.03987145 56.52802891 -5.79061589 54.42053134 -3.73828125 51.875 C-1.41104595 48.55212335 -1.60264602 45.66865122 -1.6875 41.70703125 C-2.52767164 37.29029564 -4.75122151 34.40382416 -7.5234375 30.94140625 C-12.2111929 24.99156286 -11.97246367 19.12441577 -11.25 11.75 C-9.55643076 6.18915666 -6.45150528 -0.49626964 0 0 Z " fill="#020406" transform="translate(227.25,93.25)"/>
<path d="M0 0 C2.4375 0.8125 2.4375 0.8125 4.4375 2.8125 C4.22659598 6.04636162 3.9727219 8.1482759 1.9140625 10.703125 C-0.67995811 14.40886873 -0.18991586 18.46885176 0.4375 22.8125 C2.07869086 26.10777096 2.07869086 26.10777096 4.4375 28.8125 C9.69218774 36.31919677 10.43112124 42.6624495 9.4375 51.8125 C7.70435514 56.13532464 4.97801775 59.78174266 1.4375 62.8125 C-1.90442692 62.56796876 -3.16793557 62.20706443 -5.5625 59.8125 C-5.9375 57.5625 -5.9375 57.5625 -5.5625 54.8125 C-4.9025 53.925625 -4.2425 53.03875 -3.5625 52.125 C-0.8313492 47.60153148 -0.37219835 43.97047382 -1.5625 38.8125 C-3.12330384 36.28683561 -4.81864246 34.19065092 -6.8359375 32.015625 C-11.03066721 26.66307397 -11.04268778 20.55370805 -10.953125 14.015625 C-10.30759582 8.72228573 -6.23749689 -0.45640221 0 0 Z " fill="#020405" transform="translate(254.5625,93.1875)"/>
<path d="M0 0 C3.96 0 7.92 0 12 0 C13 1 13 1 13.11352539 4.96899414 C13.1133662 6.74105607 13.10766785 8.5131226 13.09765625 10.28515625 C13.0962413 11.21597519 13.09482635 12.14679413 13.09336853 13.1058197 C13.08775172 16.09141191 13.0751964 19.07693029 13.0625 22.0625 C13.05748716 24.08137913 13.05292388 26.10025943 13.04882812 28.11914062 C13.03777683 33.07945572 13.02050095 38.03971532 13 43 C8.71 43 4.42 43 0 43 C0 28.81 0 14.62 0 0 Z " fill="#558DCD" transform="translate(307,247)"/>
<path d="M0 0 C3.96 0 7.92 0 12 0 C12 14.19 12 28.38 12 43 C7.71 43 3.42 43 -1 43 C-1.02464574 37.03686834 -1.042834 31.07376605 -1.05493164 25.1105957 C-1.05997278 23.08031702 -1.06680557 21.05004198 -1.07543945 19.01977539 C-1.08751467 16.10822653 -1.09323034 13.1967255 -1.09765625 10.28515625 C-1.10281754 9.3716188 -1.10797882 8.45808136 -1.11329651 7.51686096 C-1.11349168 5.34424573 -1.06211805 3.17172704 -1 1 C-0.67 0.67 -0.34 0.34 0 0 Z " fill="#558DCD" transform="translate(189,247)"/>
<path d="M0 0 C0.72110962 -0.00191345 1.44221924 -0.0038269 2.18518066 -0.00579834 C3.70825551 -0.00715801 5.23134202 -0.00347677 6.75439453 0.00488281 C9.08522583 0.01558586 11.41528642 0.00498062 13.74609375 -0.0078125 C15.2265642 -0.00649087 16.70703417 -0.00392839 18.1875 0 C18.8844397 -0.00404846 19.58137939 -0.00809692 20.29943848 -0.01226807 C23.95570961 0.02315171 25.46429428 0.17932118 28.59375 2.265625 C28.90625 5.765625 28.90625 5.765625 28.59375 9.265625 C26.11419219 11.74518281 24.64657061 11.52105415 21.26026917 11.56916809 C20.5362944 11.56825668 19.81231964 11.56734528 19.06640625 11.56640625 C17.94932533 11.57283394 17.94932533 11.57283394 16.80967712 11.57939148 C15.23356137 11.58513782 13.6574191 11.5856328 12.08129883 11.58129883 C9.66897308 11.57814165 7.25787688 11.60158256 4.84570312 11.62695312 C3.31510572 11.62922637 1.784505 11.62992949 0.25390625 11.62890625 C-0.82901955 11.64272087 -0.82901955 11.64272087 -1.93382263 11.65681458 C-4.85742719 11.62979695 -6.90410611 11.6075142 -9.36157227 9.93432617 C-10.99902876 7.31875825 -10.7889409 5.26337038 -10.40625 2.265625 C-6.79888342 -0.13928605 -4.16663725 -0.02420363 0 0 Z " fill="#060606" transform="translate(474.40625,288.734375)"/>
<path d="M0 0 C2.66666667 2.66666667 5.33333333 5.33333333 8 8 C6.33248852 11.94139078 3.77289351 14.7892812 1 18 C-1.66666667 15.33333333 -4.33333333 12.66666667 -7 10 C-5.33248852 6.05860922 -2.77289351 3.2107188 0 0 Z " fill="#4F84BF" transform="translate(87,227)"/>
<path d="M0 0 C2.875 0.6875 2.875 0.6875 3.875 1.6875 C4.33191383 6.94200902 4.33191383 6.94200902 2.6875 9.625 C0.875 10.6875 0.875 10.6875 -1.6875 10.5 C-4.125 9.6875 -4.125 9.6875 -6.125 7.6875 C-6.4375 4.6875 -6.4375 4.6875 -6.125 1.6875 C-3.125 -0.3125 -3.125 -0.3125 0 0 Z " fill="#090909" transform="translate(450.125,289.3125)"/>
<path d="M0 0 C3.0625 0.1875 3.0625 0.1875 5.0625 2.1875 C5.375 5.1875 5.375 5.1875 5.0625 8.1875 C1.83876323 10.33665785 0.79546326 10.57036803 -2.9375 10.1875 C-3.5975 9.5275 -4.2575 8.8675 -4.9375 8.1875 C-4.24305556 0.27083333 -4.24305556 0.27083333 0 0 Z " fill="#000102" transform="translate(330.9375,79.8125)"/>
<path d="M0 0 C3.625 0.375 3.625 0.375 7 1 C7.75 3.25 7.75 3.25 8 6 C6.375 8.375 6.375 8.375 4 10 C-0.3 9.7 -0.3 9.7 -2 8 C-2.1875 5.0625 -2.1875 5.0625 -2 2 C-1.34 1.34 -0.68 0.68 0 0 Z " fill="#0A0D0F" transform="translate(59,393)"/>
</svg>
