<?xml version="1.0" encoding="UTF-8"?>
<svg version="1.1" xmlns="http://www.w3.org/2000/svg" width="512" height="512">
<path d="M0 0 C0.66 -0.0103125 1.32 -0.020625 2 -0.03125 C4.95051332 0.7524801 6.09710434 2.13568545 8 4.5 C8.49219131 7.42850113 8.49219131 7.42850113 8.48101807 10.90338135 C8.48651672 12.22148804 8.49201538 13.53959473 8.49768066 14.89764404 C8.48352482 16.35657103 8.46898559 17.81549433 8.45410156 19.27441406 C8.45297317 20.81193004 8.45360678 22.34944817 8.45587158 23.88696289 C8.45702 28.0603353 8.43349024 32.23324854 8.40557575 36.40651417 C8.38058332 40.76803578 8.37822181 45.12956773 8.37347412 49.4911499 C8.36103798 57.75012187 8.32820778 66.00888223 8.28807616 74.26776099 C8.24337828 83.67030518 8.22137641 93.07285944 8.20129442 102.47548342 C8.15947568 121.81710895 8.08911126 141.15853746 8 160.5 C10.64 160.5 13.28 160.5 16 160.5 C15.99631283 159.69970493 15.99262566 158.89940987 15.98882675 158.07486343 C15.90053461 138.6124901 15.8343191 119.15015667 15.79275131 99.68762589 C15.77211573 90.27572696 15.74397616 80.86396162 15.69824219 71.45214844 C15.65840485 63.24992973 15.63257443 55.04780775 15.62364602 46.84549499 C15.61842599 42.5013696 15.60613653 38.15752098 15.57707977 33.81348419 C15.54995957 29.72590485 15.54154804 25.63871667 15.54756927 21.55105591 C15.5464675 20.04981105 15.53849314 18.54855331 15.5231781 17.04738617 C15.50330745 14.99948048 15.5104385 12.95136561 15.51898193 10.90338135 C15.51529476 9.75667088 15.51160759 8.6099604 15.50780869 7.42850113 C16.10717906 3.86229268 17.18449144 2.69467399 20 0.5 C22 -0.03125 22 -0.03125 24 0 C24.66 -0.0103125 25.32 -0.020625 26 -0.03125 C28.95051332 0.7524801 30.09710434 2.13568545 32 4.5 C32.49219131 7.42850113 32.49219131 7.42850113 32.48101807 10.90338135 C32.48651672 12.22148804 32.49201538 13.53959473 32.49768066 14.89764404 C32.48352482 16.35657103 32.46898559 17.81549433 32.45410156 19.27441406 C32.45297317 20.81193004 32.45360678 22.34944817 32.45587158 23.88696289 C32.45702 28.0603353 32.43349024 32.23324854 32.40557575 36.40651417 C32.38058332 40.76803578 32.37822181 45.12956773 32.37347412 49.4911499 C32.36103798 57.75012187 32.32820778 66.00888223 32.28807616 74.26776099 C32.24337828 83.67030518 32.22137641 93.07285944 32.20129442 102.47548342 C32.15947567 121.81711227 32.08830624 141.15853138 32 160.5 C37.28 160.5 42.56 160.5 48 160.5 C47.99111755 158.55450256 47.98223511 156.60900513 47.9730835 154.60455322 C47.8921102 136.29894505 47.83184846 117.99337299 47.79275131 99.68762589 C47.77211573 90.27572696 47.74397616 80.86396162 47.69824219 71.45214844 C47.65840485 63.24992973 47.63257443 55.04780775 47.62364602 46.84549499 C47.61842599 42.5013696 47.60613653 38.15752098 47.57707977 33.81348419 C47.54995957 29.72590485 47.54154804 25.63871667 47.54756927 21.55105591 C47.5464675 20.04981105 47.53849314 18.54855331 47.5231781 17.04738617 C47.50330745 14.99948048 47.5104385 12.95136561 47.51898193 10.90338135 C47.51529476 9.75667088 47.51160759 8.6099604 47.50780869 7.42850113 C48.10717906 3.86229268 49.18449144 2.69467399 52 0.5 C54 -0.03125 54 -0.03125 56 0 C56.66 -0.0103125 57.32 -0.020625 58 -0.03125 C60.95051332 0.7524801 62.09710434 2.13568545 64 4.5 C64.49219131 7.42850113 64.49219131 7.42850113 64.48101807 10.90338135 C64.48651672 12.22148804 64.49201538 13.53959473 64.49768066 14.89764404 C64.48352482 16.35657103 64.46898559 17.81549433 64.45410156 19.27441406 C64.45297317 20.81193004 64.45360678 22.34944817 64.45587158 23.88696289 C64.45702 28.0603353 64.43349024 32.23324854 64.40557575 36.40651417 C64.38058332 40.76803578 64.37822181 45.12956773 64.37347412 49.4911499 C64.36103798 57.75012187 64.32820778 66.00888223 64.28807616 74.26776099 C64.24337828 83.67030518 64.22137641 93.07285944 64.20129442 102.47548342 C64.15947568 121.81710895 64.08911126 141.15853746 64 160.5 C66.64 160.5 69.28 160.5 72 160.5 C71.99631283 159.69970493 71.99262566 158.89940987 71.98882675 158.07486343 C71.90053461 138.6124901 71.8343191 119.15015667 71.79275131 99.68762589 C71.77211573 90.27572696 71.74397616 80.86396162 71.69824219 71.45214844 C71.65840485 63.24992973 71.63257443 55.04780775 71.62364602 46.84549499 C71.61842599 42.5013696 71.60613653 38.15752098 71.57707977 33.81348419 C71.54995957 29.72590485 71.54154804 25.63871667 71.54756927 21.55105591 C71.5464675 20.04981105 71.53849314 18.54855331 71.5231781 17.04738617 C71.50330745 14.99948048 71.5104385 12.95136561 71.51898193 10.90338135 C71.51529476 9.75667088 71.51160759 8.6099604 71.50780869 7.42850113 C72.10717906 3.86229268 73.18449144 2.69467399 76 0.5 C78 -0.03125 78 -0.03125 80 0 C80.66 -0.0103125 81.32 -0.020625 82 -0.03125 C84.95190073 0.75284863 86.09716438 2.13339008 88 4.5 C88.49219131 7.4441185 88.49219131 7.4441185 88.48101807 10.94134521 C88.48443577 11.58588063 88.48785347 12.23041605 88.49137473 12.89448285 C88.49795856 15.05217939 88.47597178 17.20862922 88.45410156 19.36621094 C88.45297318 20.91357901 88.45360676 22.46094922 88.45587158 24.00831604 C88.45702003 28.20854588 88.43348976 32.40831952 88.40557575 36.60844326 C88.38058384 40.99799224 88.37822185 45.38755149 88.37347412 49.77716064 C88.36103783 58.08925591 88.32820742 66.40114093 88.28807616 74.71314359 C88.24337875 84.17614631 88.22137653 93.63915904 88.20129442 103.10224104 C88.15947533 122.56827992 88.08911061 142.03412306 88 161.5 C89.42276245 161.949198 89.42276245 161.949198 90.87426758 162.4074707 C93.97060567 163.48972587 95.42683778 164.3846809 97.6875 166.6875 C98.52861328 167.51314453 98.52861328 167.51314453 99.38671875 168.35546875 C104.59791479 175.28270029 104.40422328 181.83023211 104.29296875 190.21484375 C104.28872391 191.42572159 104.28447906 192.63659943 104.28010559 193.88417053 C104.26336989 197.73551057 104.22572572 201.58631923 104.1875 205.4375 C104.17244662 208.05533096 104.15875936 210.67317016 104.14648438 213.29101562 C104.11348299 219.69419042 104.06333386 226.09705723 104 232.5 C104.94875 232.603125 105.8975 232.70625 106.875 232.8125 C110 233.5 110 233.5 112 236.5 C112.67065868 243.54191617 112.67065868 243.54191617 110.25 247 C108 248.5 108 248.5 104 248.5 C104 282.82 104 317.14 104 352.5 C114.37808539 351.69112459 114.37808539 351.69112459 118 347.5 C119.1682626 343.99521221 119.12765988 341.24955686 119.13130188 337.5493927 C119.13341759 336.83785229 119.13553331 336.12631188 119.13771313 335.39320964 C119.1437169 333.00276567 119.14271271 330.61237443 119.1418457 328.22192383 C119.14487701 326.51034455 119.14839838 324.79876607 119.15237427 323.08718872 C119.16026678 319.39747337 119.16540955 315.70776771 119.16866493 312.01804543 C119.17457354 306.18092005 119.19111317 300.3438557 119.21000671 294.50675964 C119.21634427 292.50842384 119.2226699 290.510088 119.22898388 288.51175213 C119.23214969 287.51089655 119.2353155 286.51004098 119.23857725 285.47885644 C119.28065029 271.88817754 119.31362206 258.29752679 119.32592773 244.70678711 C119.33431161 235.54160403 119.35681559 226.37657175 119.3952834 217.21146411 C119.41503514 212.36205892 119.4274516 207.51287914 119.42244911 202.66343117 C119.41779798 198.09886112 119.4316335 193.53471794 119.45946121 188.97023392 C119.46636549 187.29815891 119.46650777 185.6260397 119.45926094 183.95396614 C119.39228126 166.75811244 119.39228126 166.75811244 125.96484375 159.2578125 C132.08848042 154.18913898 135.83690365 152.17987857 144 152.5 C143.9175 151.51 143.835 150.52 143.75 149.5 C143.79550464 143.85742456 146.0451289 139.58138677 149.87109375 135.5078125 C157.47774526 128.57698825 163.63503979 128.1269749 173.75512695 128.12939453 C175.79659286 128.12503398 177.8358708 128.08871134 179.87695312 128.05078125 C188.66265239 128.02474955 194.46403122 128.52510053 201.2421875 134.46484375 C206.55046066 140.87794888 208 143.81112733 208 152.5 C234.4 152.5 260.8 152.5 288 152.5 C288 139.3 288 126.1 288 112.5 C281.8125 112.54640625 275.625 112.5928125 269.25 112.640625 C265.32159772 112.66107192 261.39326139 112.68032829 257.46484375 112.6953125 C251.23439852 112.71919027 245.00418925 112.74738674 238.77392578 112.80175781 C233.74887512 112.84533483 228.72407763 112.86916227 223.69885254 112.87950897 C221.78515642 112.88687907 219.87147359 112.90127115 217.95788574 112.92292023 C215.26980032 112.95211199 212.5827506 112.95594945 209.89453125 112.95410156 C209.10977921 112.96848267 208.32502716 112.98286377 207.51649475 112.99768066 C200.89949132 112.94871266 195.74816866 110.90823839 190.7578125 106.53515625 C190.21898437 105.88417969 189.68015625 105.23320312 189.125 104.5625 C188.29355469 103.58990234 188.29355469 103.58990234 187.4453125 102.59765625 C184.0995672 97.74180429 183.73115177 93.46909239 183.875 87.6875 C183.88402344 86.99462891 183.89304687 86.30175781 183.90234375 85.58789062 C183.92573843 83.89177605 183.96160359 82.19584129 184 80.5 C182.9275 80.5309375 181.855 80.561875 180.75 80.59375 C174.984939 80.44962348 171.20119398 78.56739592 167.0078125 74.62890625 C160.7107095 67.71777038 159.68541742 62.39641585 159.6640625 53.23046875 C159.6540773 51.73801384 159.6540773 51.73801384 159.64389038 50.21540833 C159.63378102 48.11326949 159.62907283 46.01109867 159.62939453 43.90893555 C159.62502923 40.70892828 159.58871239 37.51030962 159.55078125 34.31054688 C159.54491101 32.26302552 159.540943 30.21549765 159.5390625 28.16796875 C159.52469147 27.21875046 159.51032043 26.26953217 159.49551392 25.29154968 C159.54470398 18.06314585 161.15960856 12.74132145 165.96484375 7.2578125 C166.94130859 6.44957031 166.94130859 6.44957031 167.9375 5.625 C168.58589844 5.07070313 169.23429688 4.51640625 169.90234375 3.9453125 C176.10881577 -0.33102762 182.46437307 0.12765137 189.75512695 0.12939453 C191.79659286 0.12503398 193.8358708 0.08871134 195.87695312 0.05078125 C204.66265239 0.02474955 210.46403122 0.52510053 217.2421875 6.46484375 C217.78101563 7.11582031 218.31984375 7.76679687 218.875 8.4375 C219.42929687 9.08589844 219.98359375 9.73429687 220.5546875 10.40234375 C224.40081061 15.98441972 224.32063614 21.20188777 224.3359375 27.76953125 C224.3425943 28.76450119 224.3492511 29.75947113 224.35610962 30.78459167 C224.36621898 32.88673051 224.37092717 34.98890133 224.37060547 37.09106445 C224.37497077 40.29107172 224.41128761 43.48969038 224.44921875 46.68945312 C224.45508899 48.73697448 224.459057 50.78450235 224.4609375 52.83203125 C224.47530853 53.78124954 224.48967957 54.73046783 224.50448608 55.70845032 C224.45529602 62.93685415 222.84039144 68.25867855 218.03515625 73.7421875 C211.91151958 78.81086102 208.16309635 80.82012143 200 80.5 C200.25587405 82.27305664 200.53027739 84.04344608 200.8125 85.8125 C200.96332031 86.79863281 201.11414063 87.78476563 201.26953125 88.80078125 C202.04771242 91.67630632 202.64501344 92.73803669 205 94.5 C208.60698305 95.70232768 211.9275757 95.6759955 215.68432617 95.70532227 C216.4650499 95.71522186 217.24577362 95.72512146 218.05015564 95.73532104 C220.63106248 95.76691177 223.21198773 95.79168388 225.79296875 95.81640625 C227.58230569 95.83697787 229.3716378 95.8579744 231.16096497 95.87937927 C235.87092166 95.93457842 240.58092206 95.98399723 245.29095459 96.03222656 C250.09700409 96.08245731 254.90299012 96.13813517 259.70898438 96.19335938 C269.13926869 96.30091458 278.56960812 96.40236544 288 96.5 C287.99111755 95.35629944 287.98223511 94.21259888 287.9730835 93.03424072 C287.89204609 82.26332418 287.83205782 71.49246937 287.79275131 60.72131729 C287.77186414 55.18354857 287.74352557 49.64602567 287.69824219 44.10839844 C287.6548252 38.76565887 287.63087141 33.42315595 287.62049103 28.0802536 C287.61309223 26.0404462 287.59864432 24.00065196 287.57707977 21.96094513 C287.54810113 19.10681527 287.5440417 16.25366703 287.54589844 13.39941406 C287.53151733 12.55352722 287.51713623 11.70764038 287.50231934 10.83612061 C287.54273397 5.10612493 287.54273397 5.10612493 289.90338135 1.97698975 C292.17104191 0.37950734 293.25599689 -0.04287505 296 0 C296.99 -0.01546875 296.99 -0.01546875 298 -0.03125 C300.99694361 0.76481315 302.09714017 2.05989007 304 4.5 C304.38456307 7.17859465 304.52431856 9.44302556 304.48101807 12.1182251 C304.48443577 12.88935064 304.48785347 13.66047618 304.49137473 14.45496917 C304.49796771 17.04099467 304.47595497 19.62598407 304.45410156 22.21191406 C304.45297339 24.06469702 304.45360636 25.91748176 304.45587158 27.77026367 C304.45702083 32.80308035 304.43347739 37.83551691 304.40557575 42.86824512 C304.3805972 48.12664178 304.3782229 53.38504682 304.37347412 58.64349365 C304.36103392 68.60241463 304.32819813 78.5611603 304.28807616 88.52000403 C304.24339098 99.85722032 304.22137959 111.19444491 304.20129442 122.53172731 C304.15946646 145.85458213 304.08909406 169.17728125 304 192.5 C306.64 192.5 309.28 192.5 312 192.5 C311.99631283 191.5347855 311.99262566 190.569571 311.98882675 189.57510757 C311.90009299 166.10703528 311.83432766 142.6389847 311.79275131 119.17078018 C311.77211173 107.82180068 311.74396441 96.47293189 311.69824219 85.12402344 C311.65841722 75.23419807 311.63257735 65.34445287 311.62364602 55.45454955 C311.61842393 50.21618336 311.60612107 44.97804652 311.57707977 39.73975372 C311.54997928 34.81171753 311.54154414 29.88400573 311.54756927 24.9559021 C311.54646663 23.14504993 311.53848087 21.33418719 311.5231781 19.52339935 C311.50333375 17.05460653 311.5080399 14.58704524 311.51898193 12.1182251 C311.50733057 11.39837818 311.4956792 10.67853127 311.48367476 9.93687081 C311.52475534 6.5178233 311.77425886 4.78947649 313.90506363 2.05706406 C316.17731034 0.36821387 317.20523157 -0.04366826 320 0 C320.99 -0.01546875 320.99 -0.01546875 322 -0.03125 C324.99846064 0.76521611 326.09707946 2.05744215 328 4.5 C328.38453841 7.19062445 328.52428062 9.46888599 328.48101807 12.15618896 C328.48443577 12.93139806 328.48785347 13.70660716 328.49137473 14.50530744 C328.49796795 17.10515043 328.47595452 19.70396294 328.45410156 22.30371094 C328.45297339 24.16634598 328.45360635 26.02898281 328.45587158 27.89161682 C328.45702085 32.95129131 328.43347706 38.01058772 328.40557575 43.07017422 C328.38059756 48.3565982 328.37822292 53.64303051 328.37347412 58.92950439 C328.36103382 68.94154888 328.32819788 78.95341899 328.28807616 88.96538663 C328.24339131 100.36306139 328.22137967 111.76074441 328.20129442 123.15848494 C328.15946622 146.60575336 328.08909361 170.05286692 328 193.5 C328.9485083 193.79946533 329.8970166 194.09893066 330.87426758 194.4074707 C333.97060567 195.48972587 335.42683778 196.3846809 337.6875 198.6875 C338.24824219 199.23792969 338.80898438 199.78835937 339.38671875 200.35546875 C344.47176836 207.11501412 344.38401531 213.25631844 344.1875 221.4375 C344.125625 225.088125 344.06375 228.73875 344 232.5 C351.92 232.5 359.84 232.5 368 232.5 C367.99111755 229.65248108 367.98223511 226.80496216 367.9730835 223.87115479 C367.89351769 197.76969922 367.83378688 171.66825336 367.79573868 145.56670369 C367.79073575 142.14700795 367.78555847 138.7273125 367.78027344 135.30761719 C367.7792242 134.62680626 367.77817495 133.94599533 367.77709392 133.24455377 C367.75968011 122.21531768 367.72813709 111.18616484 367.69138882 100.15697816 C367.65400645 88.84327599 367.63206939 77.52963558 367.62364602 66.21586776 C367.61842216 59.85969227 367.60610788 53.5037057 367.57707977 47.14759064 C367.54999607 41.16897643 367.5415408 35.19062956 367.54756927 29.21195984 C367.54646588 27.01409708 367.53847037 24.81622567 367.5231781 22.61841583 C367.50336075 19.62420534 367.5080309 16.63101242 367.51898193 13.63677979 C367.50733057 12.76129494 367.4956792 11.88581009 367.48367476 10.9837954 C367.54198962 5.11014216 367.54198962 5.11014216 369.90506363 1.96215439 C372.17066372 0.38088578 373.26578955 -0.04272204 376 0 C376.99 -0.01546875 376.99 -0.01546875 378 -0.03125 C381.15179926 0.80594668 382.07766698 1.8128022 384 4.5 C384.60114023 8.19536722 384.50430003 11.86654964 384.45410156 15.60253906 C384.45468567 16.73453735 384.45526978 17.86653564 384.45587158 19.03283691 C384.45308313 22.77741068 384.42195352 26.52119015 384.390625 30.265625 C384.38316536 32.86065231 384.37747112 35.45568526 384.37347412 38.05072021 C384.359758 44.18478316 384.3282275 50.31851792 384.28807616 56.45245719 C384.2433525 63.43665722 384.22136998 70.42087095 384.20129442 77.40517855 C384.15949435 91.77027228 384.08914607 106.135126 384 120.5 C384.81984375 120.45359375 385.6396875 120.4071875 386.484375 120.359375 C387.56203125 120.32328125 388.6396875 120.2871875 389.75 120.25 C390.81734375 120.20359375 391.8846875 120.1571875 392.984375 120.109375 C396.66843728 120.58658514 397.7520782 121.61325143 400 124.5 C400.53125 126.5 400.53125 126.5 400.5 128.5 C400.51546875 129.49 400.51546875 129.49 400.53125 130.5 C400 132.5 400 132.5 396 136.5 C392.04 136.5 388.08 136.5 384 136.5 C384 184.35 384 232.2 384 281.5 C385.98 282.16 387.96 282.82 390 283.5 C392.01171875 284.98046875 392.01171875 284.98046875 393.6875 286.6875 C394.52861328 287.51314453 394.52861328 287.51314453 395.38671875 288.35546875 C400.61101897 295.30011965 400.50046679 301.92132867 400.44604492 310.40600586 C400.43753193 312.42990867 400.4663548 314.45098411 400.49804688 316.47460938 C400.49369287 325.23050613 399.92457598 331.03119571 394 337.77734375 C393.34 338.32519531 392.68 338.87304688 392 339.4375 C391.34 340.00339844 390.68 340.56929688 390 341.15234375 C387.94703863 342.53568686 386.38821676 342.97042537 384 343.5 C384.0314209 344.52770508 384.0314209 344.52770508 384.06347656 345.57617188 C384.14725399 348.71729522 384.19885414 351.85818264 384.25 355 C384.30027344 356.61648438 384.30027344 356.61648438 384.3515625 358.265625 C384.44910028 366.26372303 383.35661528 371.66958813 378.03515625 377.7421875 C377.38417969 378.28101563 376.73320312 378.81984375 376.0625 379.375 C375.41410156 379.92929687 374.76570313 380.48359375 374.09765625 381.0546875 C369.99469502 383.88168127 366.42906738 384.7506041 361.48046875 384.6953125 C360.45888672 384.68886719 359.43730469 384.68242187 358.38476562 384.67578125 C357.32966797 384.65902344 356.27457031 384.64226562 355.1875 384.625 C354.11306641 384.61597656 353.03863281 384.60695313 351.93164062 384.59765625 C349.28753146 384.57415306 346.64388128 384.54129575 344 384.5 C344.0314209 386.10439941 344.0314209 386.10439941 344.06347656 387.74121094 C344.13594626 391.71438173 344.18182463 395.68749425 344.21972656 399.66113281 C344.23982628 401.37998279 344.26711089 403.09876452 344.30175781 404.81738281 C344.35035034 407.28988489 344.37298435 409.7614821 344.390625 412.234375 C344.41127014 413.00118591 344.43191528 413.76799683 344.45318604 414.55804443 C344.45465513 418.06125319 344.26892939 420.11858501 342.22558594 423.01660156 C340 424.5 340 424.5 336 424.5 C336.02094727 425.08491211 336.04189453 425.66982422 336.06347656 426.27246094 C336.14680115 428.93146465 336.19870897 431.59019355 336.25 434.25 C336.28351563 435.17039062 336.31703125 436.09078125 336.3515625 437.0390625 C336.36445313 437.92851562 336.37734375 438.81796875 336.390625 439.734375 C336.41157227 440.55131836 336.43251953 441.36826172 336.45410156 442.20996094 C335.79192167 445.54934123 334.81486225 446.57540969 332 448.5 C328.99815441 449.08463093 326.0506519 449.06059442 323 449.03125 C322.12730469 449.0350769 321.25460937 449.03890381 320.35546875 449.04284668 C318.51300908 449.0455649 316.67051076 449.03820994 314.828125 449.02148438 C312.00954066 449.00007248 309.19350515 449.02128801 306.375 449.046875 C304.58332771 449.04423171 302.79165701 449.03910669 301 449.03125 C300.15824219 449.03934692 299.31648438 449.04744385 298.44921875 449.05578613 C294.68917563 448.99559313 292.62202697 448.92529509 289.46191406 446.76464844 C287.77424654 444.15028573 287.5302368 442.82076467 287.609375 439.734375 C287.61936523 438.93225586 287.62935547 438.13013672 287.63964844 437.30371094 C287.67606445 436.29598633 287.71248047 435.28826172 287.75 434.25 C287.8325 431.0325 287.915 427.815 288 424.5 C277.44 424.5 266.88 424.5 256 424.5 C256.15780162 430.90254656 256.15780162 430.90254656 256.36035156 437.30371094 C256.3703418 438.10583008 256.38033203 438.90794922 256.390625 439.734375 C256.41157227 440.55131836 256.43251953 441.36826172 256.45410156 442.20996094 C255.79192167 445.54934123 254.81486225 446.57540969 252 448.5 C248.99815441 449.08463093 246.0506519 449.06059442 243 449.03125 C242.12730469 449.0350769 241.25460937 449.03890381 240.35546875 449.04284668 C238.51300908 449.0455649 236.67051076 449.03820994 234.828125 449.02148438 C232.00954066 449.00007248 229.19350515 449.02128801 226.375 449.046875 C224.58332771 449.04423171 222.79165701 449.03910669 221 449.03125 C220.15824219 449.03934692 219.31648438 449.04744385 218.44921875 449.05578613 C214.68917563 448.99559313 212.62202697 448.92529509 209.46191406 446.76464844 C207.77424654 444.15028573 207.5302368 442.82076467 207.609375 439.734375 C207.62226563 438.84492188 207.63515625 437.95546875 207.6484375 437.0390625 C207.68195313 436.11867188 207.71546875 435.19828125 207.75 434.25 C207.76804687 433.31414062 207.78609375 432.37828125 207.8046875 431.4140625 C207.85174327 429.10832985 207.91746287 426.80469055 208 424.5 C207.05125 424.396875 206.1025 424.29375 205.125 424.1875 C202 423.5 202 423.5 200 420.5 C199.81579243 417.78123789 199.74772012 415.16655035 199.77294922 412.44848633 C199.77265717 411.62874832 199.77236511 410.80901031 199.77206421 409.96443176 C199.77345812 407.25352411 199.78902219 404.54289092 199.8046875 401.83203125 C199.80841741 399.95301972 199.81126449 398.07400624 199.81326294 396.19499207 C199.82090111 391.24820592 199.84055121 386.30153713 199.8626709 381.35479736 C199.88312534 376.30751127 199.8922638 371.26020622 199.90234375 366.21289062 C199.92379692 356.30853388 199.95898059 346.40429506 200 336.5 C194.72 336.5 189.44 336.5 184 336.5 C184.02094727 339.02366211 184.04189453 341.54732422 184.06347656 344.14746094 C184.12972653 352.48139603 184.17392738 360.8153427 184.20724869 369.14947128 C184.22813214 374.2029792 184.25646371 379.25621755 184.30175781 384.30957031 C184.34518839 389.18547468 184.3691314 394.0611196 184.37950897 398.93720245 C184.38690535 400.79838394 184.40134866 402.65955108 184.42292023 404.52062225 C184.45191744 407.12571504 184.45595759 409.72973298 184.45410156 412.33496094 C184.46848267 413.10604187 184.48286377 413.8771228 184.49768066 414.67156982 C184.47207556 417.98841596 184.21977616 420.15122628 182.43603516 422.98193359 C179.157306 425.02514245 176.31366793 425.03143828 172.56933594 424.95410156 C171.45655273 424.95497772 171.45655273 424.95497772 170.32128906 424.95587158 C167.87517098 424.95309025 165.43027953 424.92199786 162.984375 424.890625 C161.28615993 424.88316274 159.58793624 424.87746973 157.88970947 424.87347412 C153.4244399 424.85821651 148.95969247 424.81893389 144.49462891 424.7746582 C139.93659529 424.73370807 135.37847713 424.71546367 130.8203125 424.6953125 C121.87997919 424.65243953 112.94003305 424.58418685 104 424.5 C104.02094727 425.08491211 104.04189453 425.66982422 104.06347656 426.27246094 C104.14680115 428.93146465 104.19870897 431.59019355 104.25 434.25 C104.28351563 435.17039062 104.31703125 436.09078125 104.3515625 437.0390625 C104.36445313 437.92851562 104.37734375 438.81796875 104.390625 439.734375 C104.41157227 440.55131836 104.43251953 441.36826172 104.45410156 442.20996094 C103.82525476 445.38124213 102.46743603 446.46035099 100 448.5 C97.64489746 449.00336456 97.64489746 449.00336456 94.99023438 449.00793457 C93.47610962 449.02485352 93.47610962 449.02485352 91.93139648 449.04211426 C90.82997314 449.03401733 89.7285498 449.02592041 88.59375 449.01757812 C86.8468689 449.02809204 86.8468689 449.02809204 85.06469727 449.03881836 C81.20955667 449.05644432 77.35514826 449.04475841 73.5 449.03125 C70.82486047 449.03394357 68.14974331 449.03781853 65.47460938 449.04284668 C59.8658045 449.05012197 54.25721037 449.04053871 48.6484375 449.02148438 C42.16582093 448.99971557 35.68370758 449.00676705 29.20110321 449.02879 C23.63323411 449.04694759 18.06551641 449.04950066 12.49762726 449.03903532 C9.1730433 449.03280222 5.84874748 449.03353198 2.52416992 449.04518127 C-1.18215157 449.05531748 -4.88750107 449.03988485 -8.59375 449.01757812 C-9.69517334 449.02567505 -10.79659668 449.03377197 -11.93139648 449.04211426 C-12.94081299 449.03083496 -13.95022949 449.01955566 -14.99023438 449.00793457 C-15.86627319 449.00642647 -16.74231201 449.00491837 -17.64489746 449.00336456 C-20.9615317 448.29448836 -22.0615756 447.28112774 -24 444.5 C-24.38439103 441.72502896 -24.52402772 439.35019877 -24.48101807 436.57806396 C-24.48443577 435.77427 -24.48785347 434.97047604 -24.49137473 434.14232469 C-24.49796961 431.44575866 -24.47595152 428.75018543 -24.45410156 426.05371094 C-24.45297343 424.12211124 -24.45360627 422.19050983 -24.45587158 420.25891113 C-24.45702099 415.01123171 -24.43347484 409.76391673 -24.40557575 404.51632214 C-24.38059996 399.03370693 -24.37822311 393.55108372 -24.37347412 388.06842041 C-24.36103311 377.68451128 -24.32819621 367.30077025 -24.28807616 356.91693521 C-24.24339351 345.09605116 -24.22138022 333.27515916 -24.20129442 321.45421171 C-24.15946462 297.13604788 -24.08909064 272.81803335 -24 248.5 C-26.64 248.5 -29.28 248.5 -32 248.5 C-31.99631283 249.21783535 -31.99262566 249.9356707 -31.98882675 250.67525864 C-31.90052273 268.13478375 -31.83431336 285.59425221 -31.79275131 303.05395126 C-31.77211842 311.49731206 -31.74398405 319.94052388 -31.69824219 328.38378906 C-31.65839653 335.74220447 -31.63257247 343.100512 -31.62364602 350.4590323 C-31.61842737 354.35604089 -31.60614694 358.25274083 -31.57707977 362.14965057 C-31.54994629 365.81700451 -31.54155064 369.48392241 -31.54756927 373.15136719 C-31.5459427 375.1402136 -31.52440905 377.12901242 -31.50231934 379.11773682 C-31.50781799 380.30121704 -31.51331665 381.48469727 -31.51898193 382.70404053 C-31.51529476 383.7327615 -31.51160759 384.76148247 -31.50780869 385.8213768 C-32.12951819 389.20486906 -33.3461714 390.38326272 -36 392.5 C-38 393.03125 -38 393.03125 -40 393 C-40.66 393.0103125 -41.32 393.020625 -42 393.03125 C-44.98938581 392.23719439 -46.09660501 390.92748911 -48 388.5 C-48.39317553 385.87972768 -48.54123353 383.67864997 -48.50793457 381.06054688 C-48.51417453 380.3085778 -48.5204145 379.55660873 -48.52684355 378.78185272 C-48.54280672 376.26050013 -48.53015689 373.74010987 -48.51757812 371.21875 C-48.52299779 369.41185949 -48.53011957 367.6049734 -48.53881836 365.7980957 C-48.55707322 360.8890197 -48.54997526 355.98027948 -48.53730202 351.07119751 C-48.52718556 345.93742966 -48.53656393 340.80369084 -48.54284668 335.66992188 C-48.55012703 327.04812449 -48.54052519 318.42646409 -48.52148438 309.8046875 C-48.49971492 299.83211031 -48.50676601 289.85986021 -48.52879 279.88729095 C-48.54693293 271.33007759 -48.54950773 262.77296277 -48.53903532 254.21573639 C-48.53279431 249.1026727 -48.53198146 243.98976283 -48.54518127 238.87670898 C-48.55672305 234.07002425 -48.54874469 229.26376184 -48.52560425 224.4571228 C-48.5203082 222.69144391 -48.52184621 220.92572956 -48.53065491 219.1600647 C-48.54155901 216.75271187 -48.52791046 214.34671889 -48.50793457 211.93945312 C-48.51685746 211.23789848 -48.52578034 210.53634384 -48.53497362 209.81352997 C-48.48066171 206.44764514 -48.19976922 204.7577305 -46.11138153 202.06341553 C-43.58543266 200.19302516 -42.34653784 200.02957595 -39.234375 200.109375 C-38.34492187 200.12226563 -37.45546875 200.13515625 -36.5390625 200.1484375 C-35.15847656 200.19871094 -35.15847656 200.19871094 -33.75 200.25 C-32.81414063 200.26804688 -31.87828125 200.28609375 -30.9140625 200.3046875 C-28.60832985 200.35174327 -26.30469055 200.41746287 -24 200.5 C-24.02094727 199.84515625 -24.04189453 199.1903125 -24.06347656 198.515625 C-24.14730383 195.51057672 -24.19886895 192.50577536 -24.25 189.5 C-24.30027344 187.95505859 -24.30027344 187.95505859 -24.3515625 186.37890625 C-24.45179963 178.51029164 -23.23780812 173.18680105 -18 167.22265625 C-17.34 166.67480469 -16.68 166.12695312 -16 165.5625 C-15.34 164.99660156 -14.68 164.43070313 -14 163.84765625 C-11.94703863 162.46431314 -10.38821676 162.02957463 -8 161.5 C-8.00368717 160.6945512 -8.00737434 159.8891024 -8.01117325 159.05924606 C-8.09946473 139.47169446 -8.16568058 119.88418251 -8.20724869 100.29647446 C-8.22788442 90.82404184 -8.25602428 81.35174196 -8.30175781 71.87939453 C-8.34159469 63.62443811 -8.36742546 55.36957781 -8.37635398 47.11452794 C-8.38157409 42.74245766 -8.39386405 38.37066236 -8.42292023 33.99868011 C-8.45003969 29.88483661 -8.45845211 25.77138176 -8.45243073 21.65745735 C-8.45353253 20.14653729 -8.46150732 18.63560443 -8.4768219 17.12476158 C-8.49669696 15.06314351 -8.49195013 13.00299665 -8.48101807 10.94134521 C-8.48470524 9.7872604 -8.48839241 8.63317558 -8.49219131 7.4441185 C-7.69105662 2.65200736 -4.92081177 -0.07688768 0 0 Z M178 19.5 C174.92349648 25.29615886 175.66518878 31.8382265 175.68432617 38.21948242 C175.68748558 40.42742315 175.66400337 42.63402154 175.63867188 44.84179688 C175.6363984 46.25781082 175.63569561 47.67382834 175.63671875 49.08984375 C175.63373779 50.36722412 175.63075684 51.64460449 175.62768555 52.96069336 C176.03219955 56.80609633 176.98165369 59.22217141 179 62.5 C183.01013822 64.98042417 187.34422209 64.83382441 191.9375 64.8125 C192.97293945 64.83666992 192.97293945 64.83666992 194.02929688 64.86132812 C198.75546453 64.8658079 202.08505143 64.17803486 206 61.5 C209.07650352 55.70384114 208.33481122 49.1617735 208.31567383 42.78051758 C208.31251442 40.57257685 208.33599663 38.36597846 208.36132812 36.15820312 C208.3636016 34.74218918 208.36430439 33.32617166 208.36328125 31.91015625 C208.36626221 30.63277588 208.36924316 29.35539551 208.37231445 28.03930664 C207.96780045 24.19390367 207.01834631 21.77782859 205 18.5 C200.98986178 16.01957583 196.65577791 16.16617559 192.0625 16.1875 C191.37220703 16.17138672 190.68191406 16.15527344 189.97070312 16.13867188 C185.24453547 16.1341921 181.91494857 16.82196514 178 19.5 Z M162 147.5 C159.50448824 151.47013235 159.42763606 155.93003163 160 160.5 C161.54138378 164.91088725 161.54138378 164.91088725 165.1171875 167.64453125 C168.74725566 168.7217466 172.18592804 168.82991677 175.9375 168.8125 C176.97293945 168.83666992 176.97293945 168.83666992 178.02929688 168.86132812 C182.7622259 168.86581431 185.99383616 168.00915557 190 165.5 C192.49551176 161.52986765 192.57236394 157.06996837 192 152.5 C190.45861622 148.08911275 190.45861622 148.08911275 186.8828125 145.35546875 C183.25274434 144.2782534 179.81407196 144.17008323 176.0625 144.1875 C175.37220703 144.17138672 174.68191406 144.15527344 173.97070312 144.13867188 C169.2377741 144.13418569 166.00616384 144.99084443 162 147.5 Z M144 168.5 C139.66232759 170.18823989 139.66232759 170.18823989 136.82040977 173.66383648 C135.82227915 177.11438247 135.74938908 180.09639473 135.7484436 183.69111633 C135.74547346 184.40436559 135.74250333 185.11761485 135.73944318 185.85247773 C135.73181919 188.23677643 135.7382906 190.62082762 135.74462891 193.00512695 C135.74187823 194.71700202 135.73819787 196.42887581 135.73365784 198.14074707 C135.72555041 201.82498715 135.72337625 205.50916656 135.72560501 209.19341469 C135.72843961 215.0223193 135.7140803 220.85110285 135.69662476 226.67997742 C135.64961286 243.25432517 135.62565961 259.8286647 135.61914062 276.40307617 C135.61538756 285.55874154 135.59733824 294.71426991 135.56404626 303.86987656 C135.54385026 309.66073931 135.54145326 315.45124827 135.55232644 321.24213183 C135.55493804 324.85029155 135.54090755 328.45824634 135.52224541 332.06635284 C135.51693385 333.73521108 135.51840247 335.4041073 135.52728081 337.07295036 C135.61081246 354.15682136 135.61081246 354.15682136 129.25390625 361.5234375 C128.41666016 362.19246094 128.41666016 362.19246094 127.5625 362.875 C126.72912109 363.56722656 126.72912109 363.56722656 125.87890625 364.2734375 C118.66495035 368.9827559 113.35813766 367.87612416 104 368.5 C104 381.7 104 394.9 104 408.5 C125.12 408.5 146.24 408.5 168 408.5 C168.03738281 402.47105469 168.07476562 396.44210937 168.11328125 390.23046875 C168.14354947 386.41598676 168.17468976 382.60155209 168.20898438 378.78710938 C168.26336088 372.72976016 168.31446848 366.67250456 168.34643555 360.61499023 C168.37240359 355.73246464 168.41275955 350.85025242 168.46318626 345.9679203 C168.47989908 344.10320235 168.49138578 342.23843014 168.49761391 340.37364769 C168.50720719 337.76593377 168.53520819 335.15902958 168.56762695 332.55151367 C168.56547432 331.38949936 168.56547432 331.38949936 168.5632782 330.20401001 C168.61393662 327.33167725 168.68236052 325.05612631 170.12590027 322.52876282 C172.90205155 321.00483046 175.26424107 321.05963255 178.41796875 320.98828125 C179.67158203 320.95283203 180.92519531 320.91738281 182.21679688 320.88085938 C183.52712891 320.85830078 184.83746094 320.83574219 186.1875 320.8125 C187.52282013 320.77932334 188.85810832 320.74483334 190.19335938 320.70898438 C193.46215504 320.62637943 196.73067812 320.55726771 200 320.5 C200.00146656 319.93531006 200.00293312 319.37062012 200.00444412 318.78881836 C200.04155691 305.02462647 200.10088154 291.26068299 200.18390274 277.49668884 C200.223385 270.84037907 200.25556997 264.1842544 200.27099609 257.52783203 C200.28615739 251.1021195 200.32059467 244.67677108 200.36830902 238.2512207 C200.38312805 235.80170865 200.39104131 233.35214462 200.39188385 230.90258789 C200.39425355 227.46721736 200.42133585 224.032853 200.45410156 220.59765625 C200.44655602 219.0839016 200.44655602 219.0839016 200.43885803 217.53956604 C200.54436886 210.37319278 202.00786637 204.96739423 206.74609375 199.4765625 C207.30425781 199.03054687 207.86242187 198.58453125 208.4375 198.125 C208.99308594 197.66351563 209.54867187 197.20203125 210.12109375 196.7265625 C214.69438519 193.74108742 218.67289186 193.23883241 224.08520508 193.18115234 C225.12505554 193.16608391 225.12505554 193.16608391 226.18591309 193.15071106 C228.46377783 193.11996637 230.74152551 193.10286855 233.01953125 193.0859375 C234.6042328 193.0672188 236.18892446 193.04764486 237.77360535 193.0272522 C241.93441934 192.975999 246.09526562 192.93633695 250.25622559 192.89910889 C254.50618432 192.85902642 258.75600952 192.80795346 263.00585938 192.7578125 C271.33715495 192.66113383 279.66850597 192.57771975 288 192.5 C288 184.58 288 176.66 288 168.5 C277.52532195 168.31922828 267.05168029 168.17247706 256.57579517 168.08550262 C251.71131742 168.04375787 246.84796237 167.98714521 241.98413086 167.89648438 C237.28968479 167.80952893 232.59631802 167.7617205 227.90112877 167.74098206 C226.11041962 167.72620488 224.31976932 167.6973463 222.52952003 167.65415955 C213.15879115 166.98244924 213.15879115 166.98244924 204.87142944 170.2331543 C203.59651015 172.29327553 202.84233626 174.23990635 202 176.5 C196.87997549 182.17774315 191.31164767 183.50801037 184 184.5 C183.99635437 185.07105469 183.99270874 185.64210937 183.98895264 186.23046875 C183.94697912 192.20109016 183.87753048 198.17095345 183.79248047 204.14111328 C183.76434228 206.36597086 183.74309235 208.59092707 183.72900391 210.81591797 C183.70747568 214.02362303 183.66077322 217.23015103 183.609375 220.4375 C183.60814636 221.42427734 183.60691772 222.41105469 183.60565186 223.42773438 C183.45542569 230.59194185 181.9926859 236.03196578 177.25390625 241.5234375 C176.69574219 241.96945312 176.13757813 242.41546875 175.5625 242.875 C174.72912109 243.56722656 174.72912109 243.56722656 173.87890625 244.2734375 C168.50466968 247.78177489 163.61496791 247.83613624 157.375 247.8125 C156.08722656 247.83666992 156.08722656 247.83666992 154.7734375 247.86132812 C153.9484375 247.86197266 153.1234375 247.86261719 152.2734375 247.86328125 C151.52497559 247.86626221 150.77651367 247.86924316 150.00537109 247.87231445 C147.46305429 247.40031139 146.57974664 246.50749248 145 244.5 C144.6015625 242.5625 144.6015625 242.5625 144.625 240.5 C144.61339844 239.4790625 144.61339844 239.4790625 144.6015625 238.4375 C145.13466216 235.84517223 145.82818109 235.0124344 148 233.5 C150.70703125 233.09375 150.70703125 233.09375 153.8125 233 C158.53494533 232.70306269 162.08080743 232.3878261 166 229.5 C168.55869464 224.92414794 168.25717709 220.35076017 168.1953125 215.26171875 C168.19106766 213.94056816 168.19106766 213.94056816 168.18673706 212.59272766 C168.17557833 209.79084455 168.15048171 206.98928584 168.125 204.1875 C168.11496463 202.28320775 168.10583975 200.37891048 168.09765625 198.47460938 C168.07565309 193.81628203 168.04115294 189.15819594 168 184.5 C167.31655518 184.37592773 166.63311035 184.25185547 165.92895508 184.12402344 C165.03072021 183.95418945 164.13248535 183.78435547 163.20703125 183.609375 C162.31733643 183.44405273 161.4276416 183.27873047 160.51098633 183.10839844 C152.69852727 181.21548176 148.48608371 174.6388514 144 168.5 Z M-32 216.5 C-32 221.78 -32 227.06 -32 232.5 C-29.36 232.5 -26.72 232.5 -24 232.5 C-24 227.22 -24 221.94 -24 216.5 C-26.64 216.5 -29.28 216.5 -32 216.5 Z M344 248.5 C344 288.1 344 327.7 344 368.5 C358.73289481 369.69256959 358.73289481 369.69256959 366 365.5 C369.76441736 359.4240983 369.0109123 350.30500027 368 343.5 C366.1743193 341.2234248 364.77450091 340.50465967 362.10546875 339.39453125 C358.04187505 337.66806936 355.80168681 334.13277231 353.88818359 330.2355957 C352.25729859 325.21248783 352.62814201 319.98354233 352.62939453 314.74487305 C352.62503398 312.70340714 352.58871134 310.6641292 352.55078125 308.62304688 C352.52533276 300.03418065 352.94036714 294.11160048 358.78125 287.4765625 C359.3484375 287.03054688 359.915625 286.58453125 360.5 286.125 C361.0671875 285.66351563 361.634375 285.20203125 362.21875 284.7265625 C364 283.5 364 283.5 368 281.5 C368 270.61 368 259.72 368 248.5 C360.08 248.5 352.16 248.5 344 248.5 Z M38 297.5 C32.46826647 304.8789827 32.46826647 304.8789827 30.875 313.5625 C32.29202081 317.26249879 33.319565 318.715797 36.875 320.375 C39.99718803 320.55865812 41.52746583 319.32186728 44 317.5 C46.35233265 313.97150103 46.4442334 312.65639067 46 308.5 C44.55629682 305.4521712 44.55629682 305.4521712 42.5625 302.625 C41.92441406 301.65820312 41.28632812 300.69140625 40.62890625 299.6953125 C40.09136719 298.97085937 39.55382812 298.24640625 39 297.5 C38.67 297.5 38.34 297.5 38 297.5 Z M370.6875 299.3125 C367.56891291 303.35511289 367.78546111 307.42329887 367.75 312.3125 C367.729375 313.01181641 367.70875 313.71113281 367.6875 314.43164062 C367.65171322 319.21364934 368.44809849 322.45535999 371 326.5 C373.84083641 327.92041821 375.85477278 327.81452272 379 327.5 C381.84780619 325.26793569 382.84997666 323.95007001 384 320.5 C384.1484944 317.88135839 384.2310027 315.3067523 384.25 312.6875 C384.270625 311.98818359 384.29125 311.28886719 384.3125 310.56835938 C384.34828678 305.78635066 383.55190151 302.54464001 381 298.5 C377.20468521 296.60234261 374.02678035 296.69522621 370.6875 299.3125 Z M224 424.5 C224 427.14 224 429.78 224 432.5 C229.28 432.5 234.56 432.5 240 432.5 C240 429.86 240 427.22 240 424.5 C234.72 424.5 229.44 424.5 224 424.5 Z M304 424.5 C304 427.14 304 429.78 304 432.5 C309.28 432.5 314.56 432.5 320 432.5 C320 429.86 320 427.22 320 424.5 C314.72 424.5 309.44 424.5 304 424.5 Z " fill="#0199E4" transform="translate(80,31.5)"/>
<path d="M0 0 C0.83150574 -0.0087616 1.66301147 -0.01752319 2.51971436 -0.02655029 C5.2610737 -0.04850973 8.00081252 -0.03400446 10.7421875 -0.01708984 C12.65120757 -0.02045899 14.56022555 -0.02531242 16.46923828 -0.03158569 C20.46733045 -0.03895232 24.46486352 -0.02825829 28.46289062 -0.00488281 C33.58456931 0.02360487 38.70493797 0.00719977 43.8265686 -0.02274513 C47.76775969 -0.04082379 51.70864082 -0.03505748 55.64984131 -0.02210617 C57.53806717 -0.01877373 59.4263213 -0.02285356 61.31451416 -0.03450394 C63.95522455 -0.04722218 66.5938218 -0.02782357 69.234375 0 C70.01270691 -0.01012115 70.79103882 -0.02024231 71.59295654 -0.03067017 C75.21646545 0.0399655 77.33819626 0.45011162 80.31914043 2.55351734 C83.58507266 6.94986568 83.29937623 10.43212022 83.21846008 15.7771759 C83.22273221 16.80641967 83.22700433 17.83566344 83.23140591 18.89609641 C83.23965085 22.34971011 83.21212449 25.80211316 83.18481445 29.25561523 C83.18340432 31.72922741 83.18419528 34.20284168 83.18702698 36.67645264 C83.18816608 42.00439371 83.17397238 47.33195695 83.14583778 52.65979958 C83.10518684 60.3628786 83.09217898 68.06580962 83.08589783 75.76898428 C83.07495711 88.2670533 83.04168905 100.76495907 82.99438477 113.26293945 C82.94848336 125.40290511 82.91309433 137.54282641 82.8918457 149.68286133 C82.89053209 150.4312836 82.88921847 151.17970587 82.88786504 151.95080761 C82.88133981 155.70545604 82.87502128 159.46010479 82.86880553 163.21475375 C82.81697941 194.35897139 82.72480814 225.50288542 82.6171875 256.64697266 C50.9371875 256.64697266 19.2571875 256.64697266 -13.3828125 256.64697266 C-13.49301354 224.75614776 -13.58534422 192.86550744 -13.63813915 160.97454946 C-13.64439278 157.21065308 -13.65086438 153.44675711 -13.6574707 149.68286133 C-13.65878226 148.93352857 -13.66009381 148.18419582 -13.6614451 147.41215601 C-13.68320941 135.2745676 -13.72263653 123.13709745 -13.76857648 110.99957923 C-13.8153127 98.54795582 -13.84310187 86.0963944 -13.85325497 73.64468688 C-13.86012007 65.959512 -13.88181248 58.27467134 -13.92239483 50.58959933 C-13.95191677 44.69945872 -13.9550938 38.80949021 -13.94835091 32.91927338 C-13.94972955 30.5009041 -13.95971618 28.08252249 -13.97883987 25.66422844 C-14.00363301 22.36807406 -13.9977667 19.07336205 -13.98408508 15.7771759 C-13.99864929 14.81511209 -14.0132135 13.85304827 -14.02821904 12.86183101 C-13.97720576 8.33050911 -13.85624477 6.28427099 -11.08476543 2.55351734 C-7.44587674 -0.01414541 -4.29844543 -0.05589547 0 0 Z M32.6171875 121.64697266 C27.08545397 129.02595535 27.08545397 129.02595535 25.4921875 137.70947266 C26.90920831 141.40947145 27.9367525 142.86276966 31.4921875 144.52197266 C34.61437553 144.70563078 36.14465333 143.46883994 38.6171875 141.64697266 C40.96952015 138.11847369 41.0614209 136.80336333 40.6171875 132.64697266 C39.17348432 129.59914386 39.17348432 129.59914386 37.1796875 126.77197266 C36.54160156 125.80517578 35.90351562 124.83837891 35.24609375 123.84228516 C34.70855469 123.11783203 34.17101562 122.39337891 33.6171875 121.64697266 C33.2871875 121.64697266 32.9571875 121.64697266 32.6171875 121.64697266 Z " fill="#B2E4FB" transform="translate(85.3828125,207.35302734375)"/>
<path d="M0 0 C0.85789124 -0.01409912 1.71578247 -0.02819824 2.59967041 -0.04272461 C3.991586 -0.02754288 3.991586 -0.02754288 5.41162109 -0.01205444 C6.39918396 -0.02081604 7.38674683 -0.02957764 8.40423584 -0.03860474 C11.66495852 -0.0605909 14.9243224 -0.04604798 18.18505859 -0.02914429 C20.45280213 -0.03251262 22.7205439 -0.03736539 24.98828125 -0.04364014 C29.73959553 -0.05101045 34.49043962 -0.04030029 39.24169922 -0.01693726 C45.33185246 0.01154993 51.42090402 -0.0048531 57.51101685 -0.03479958 C62.19336243 -0.05286786 66.87544684 -0.04711652 71.55780029 -0.03416061 C73.80328502 -0.03082534 76.04879346 -0.0349179 78.29425049 -0.04655838 C81.43297117 -0.05925872 84.56990826 -0.0398998 87.70849609 -0.01205444 C88.63643982 -0.0221756 89.56438354 -0.03229675 90.52044678 -0.04272461 C91.37833801 -0.02862549 92.23622925 -0.01452637 93.12011719 0 C94.23173721 0.00282769 94.23173721 0.00282769 95.36581421 0.00571251 C98.8860803 1.01515864 100.35991705 2.75285663 102.56005859 5.63491821 C103.04255133 8.50571356 103.21735707 10.77645346 103.16133118 13.6391449 C103.1656033 14.43970973 103.16987543 15.24027457 103.17427701 16.06509894 C103.18250635 18.74494894 103.15502414 21.42323027 103.12768555 24.10293579 C103.12627506 26.02483076 103.12706707 27.94672842 103.12989807 29.86862183 C103.1313336 35.08533733 103.10192139 40.30147889 103.06702828 45.51806092 C103.03578774 50.96996294 103.03283585 56.42187788 103.02690125 61.87385559 C103.01135607 72.19757055 102.97031832 82.52102101 102.9201538 92.84461945 C102.85383578 106.79512502 102.82683127 120.74570283 102.79764271 134.69632626 C102.75061707 156.67605506 102.65100905 178.65522567 102.56005859 200.63491821 C65.60005859 200.63491821 28.64005859 200.63491821 -9.43994141 200.63491821 C-9.64145658 151.93541853 -9.64145658 151.93541853 -9.68408203 131.56265259 C-9.71377588 117.48337726 -9.74872515 103.4042513 -9.81713867 89.32510376 C-9.86693534 79.07233037 -9.89922337 68.8196779 -9.91038388 58.56678694 C-9.91690892 53.13663021 -9.93227075 47.70681943 -9.96859169 42.27677345 C-10.00249195 37.16729928 -10.01300636 32.05831405 -10.00547981 26.9487381 C-10.00685703 25.07218203 -10.01682498 23.19560985 -10.03596878 21.31915092 C-10.06081411 18.75854604 -10.05487859 16.19979179 -10.04121399 13.6391449 C-10.0557782 12.89497419 -10.0703424 12.15080348 -10.08534795 11.38408214 C-10.02972511 7.53322363 -9.54214076 5.76879362 -7.17985821 2.67433643 C-4.41038444 0.61291791 -3.36382419 0.00855675 0 0 Z " fill="#B2E4FB" transform="translate(305.43994140625,239.36508178710938)"/>
<path d="M0 0 C8.08940689 4.80133388 14.03131368 14.25886806 17 23 C17.4054103 25.32189536 17.76072994 27.65515344 18 30 C19.83843644 27.24234533 20.30119707 26.09150967 20.875 23 C21.52346182 20.28643668 21.87573998 19.14201145 23.75 17 C26.81792333 15.63647852 28.67335882 15.45687491 32 16 C38.60817679 20.62572375 41.47408674 29.18521686 44.375 36.4375 C46.16410971 46.63542534 45.86216413 58.14152564 40.67578125 67.3515625 C36.36901408 73.38781884 31.42053327 78.29946113 24 80 C19.84807157 80.59313263 18.54085679 80.39976372 15.125 77.875 C13 75 13 75 12.375 72 C13.22656932 67.91246727 14.73884556 66.56729179 18 64 C19.19625 63.54625 20.3925 63.0925 21.625 62.625 C25.15579575 60.92498723 26.22221289 59.86224543 27.51171875 56.18359375 C28.48273762 51.84119736 28.7674316 47.43483884 29 43 C23.89655874 46.27390572 21.50750989 48.35810274 19 54 C15.48746854 56.34168764 14.13530644 56.49623677 10 56 C4.88917926 53.00830005 1.1363242 47.61811202 -0.63671875 41.97265625 C-1.1879605 38.97935426 -1.05518503 36.03517681 -1 33 C-1 32.01 -1 31.02 -1 30 C-2.14842923 31.28935919 -3.29366227 32.58156579 -4.4375 33.875 C-5.07558594 34.59429687 -5.71367187 35.31359375 -6.37109375 36.0546875 C-8.89910084 39.07374633 -9.11027696 40.95870662 -9.3125 44.8125 C-9.64056625 48.20088575 -10.00080191 50.00151128 -11.625 53.0625 C-14.82715948 55.674788 -16.88489439 56.07219484 -21 56 C-26.35200729 53.26176371 -27.95592831 48.34427681 -30 43 C-32.64450777 48.95014247 -34.34139985 54.46977439 -33 61 C-31.61914886 63.25739143 -30.06392931 65.17453001 -28.35546875 67.19140625 C-27 69 -27 69 -26.3125 72.1875 C-27.26836425 76.09785374 -28.78394248 77.62291401 -32 80 C-36.05537045 80.86284478 -37.55612371 80.28081969 -41.0625 78.0625 C-46.07170185 73.46194356 -49.78027865 66.52399239 -50.203125 59.7421875 C-50.28454002 53.02544857 -50.17069391 47.2526754 -47.68359375 40.921875 C-46.57502609 37.8052162 -46.56236699 35.25098809 -47 32 C-48.31321858 30.3174387 -49.64613064 28.65002828 -51 27 C-51.5625 24 -51.5625 24 -51 21 C-49 18.125 -49 18.125 -46 16 C-39.51355369 15.02703305 -34.6011661 16.69931283 -29 20 C-26.52548597 21.864983 -24.22939813 23.84945518 -22 26 C-17.61987539 24.04292304 -15.06655402 21.31151557 -13 17 C-12.59739228 14.9708571 -12.26777978 12.9262942 -12 10.875 C-11.45411373 6.84150698 -11.12142995 5.17539881 -8.75 1.75 C-5.32954919 -0.42665052 -3.97699894 -0.87493977 0 0 Z " fill="#059BE4" transform="translate(355,280)"/>
<path d="M0 0 C8.40633706 2.84960578 12.90584976 13.62326121 17.0625 21 C17.59488281 21.91910156 18.12726563 22.83820313 18.67578125 23.78515625 C19.18238281 24.67589844 19.68898437 25.56664062 20.2109375 26.484375 C20.66388184 27.28069336 21.11682617 28.07701172 21.58349609 28.89746094 C24.07017859 34.19637127 24.61554922 40.07244016 22.96875 45.7109375 C19.80588467 54.20476134 15.89185901 59.22240557 7.6875 63.25 C1.64811705 65.09502534 -4.85468644 65.27794167 -10.625 62.5625 C-17.14320842 58.84344157 -21.88828435 53.32394075 -24.3125 46.25 C-25.72960019 36.31775793 -23.81249439 29.39376421 -18.45556641 21.04492188 C-17.18361503 19.04761591 -15.97217361 17.01950045 -14.76171875 14.984375 C-13.88483735 13.53002722 -13.00595237 12.07688546 -12.125 10.625 C-11.70943848 9.93744629 -11.29387695 9.24989258 -10.86572266 8.54150391 C-5.80542296 0.43814513 -5.80542296 0.43814513 0 0 Z M-1.3125 25.25 C-6.84423353 32.6289827 -6.84423353 32.6289827 -8.4375 41.3125 C-7.02047919 45.01249879 -5.992935 46.465797 -2.4375 48.125 C0.68468803 48.30865812 2.21496583 47.07186728 4.6875 45.25 C7.03983265 41.72150103 7.1317334 40.40639067 6.6875 36.25 C5.24379682 33.2021712 5.24379682 33.2021712 3.25 30.375 C2.61191406 29.40820312 1.97382812 28.44140625 1.31640625 27.4453125 C0.77886719 26.72085937 0.24132812 25.99640625 -0.3125 25.25 C-0.6425 25.25 -0.9725 25.25 -1.3125 25.25 Z " fill="#039AE4" transform="translate(119.3125,303.75)"/>
<path d="M0 0 C1.73618591 -0.00006042 1.73618591 -0.00006042 3.50744629 -0.00012207 C5.95179684 0.00523347 8.39614694 0.02281732 10.84033203 0.05175781 C14.58028833 0.09359939 18.31844293 0.09282635 22.05859375 0.0859375 C24.43490834 0.09643055 26.81121365 0.10936926 29.1875 0.125 C30.3053186 0.12520142 31.42313721 0.12540283 32.5748291 0.12561035 C34.14170471 0.14947815 34.14170471 0.14947815 35.74023438 0.17382812 C37.11326721 0.18645691 37.11326721 0.18645691 38.51403809 0.19934082 C41.63433226 0.676399 43.54257635 1.76301627 46.09375 3.59375 C47.49832737 6.40290474 47.34270157 8.48185534 47.09375 11.59375 C45.31390595 14.7296657 44.57066793 15.43477736 41.09375 16.59375 C39.38740843 16.70601312 37.67714861 16.76271412 35.96728516 16.78662109 C34.92255035 16.80268402 33.87781555 16.81874695 32.80142212 16.83529663 C28.03363736 16.87977343 23.26599045 16.92079304 18.49804688 16.94384766 C15.98200239 16.96042624 13.46600536 16.98774082 10.95019531 17.02587891 C7.32331909 17.08057216 3.69754524 17.10250922 0.0703125 17.1171875 C-1.61582657 17.15119156 -1.61582657 17.15119156 -3.33602905 17.18588257 C-11.12480853 17.16476223 -11.12480853 17.16476223 -15.11572266 14.24853516 C-16.90625 11.59375 -16.90625 11.59375 -17.53125 8.59375 C-15.57756079 -0.78395819 -7.83903622 -0.11497667 0 0 Z " fill="#039AE4" transform="translate(336.90625,367.40625)"/>
</svg>
