<?xml version="1.0" encoding="UTF-8"?>
<svg version="1.1" xmlns="http://www.w3.org/2000/svg" width="512" height="512">
<path d="M0 0 C0.95958618 -0.0065712 1.91917236 -0.0131424 2.90783691 -0.01991272 C6.09545974 -0.03968122 9.28303526 -0.05131936 12.47070312 -0.0612793 C13.55964371 -0.06535482 14.64858429 -0.06943035 15.77052307 -0.07362938 C21.5397218 -0.0945103 27.30889663 -0.1088004 33.078125 -0.11816406 C39.0252935 -0.12920209 44.9720851 -0.16356631 50.91912079 -0.20333576 C55.50037305 -0.22954835 60.08153641 -0.23786029 64.66285706 -0.24144554 C66.85399404 -0.24630346 69.04512727 -0.25789466 71.2361908 -0.27648354 C74.31400852 -0.30096167 77.39086372 -0.29989333 80.46875 -0.29296875 C81.364729 -0.30577881 82.26070801 -0.31858887 83.18383789 -0.33178711 C91.93494481 -0.26048815 99.76365697 2.4432395 106.22070312 8.47387695 C112.68373385 15.6623499 114.8589535 22.68315049 114.75195312 32.17700195 C115.36118307 32.17331478 115.97041302 32.16962761 116.59810448 32.1658287 C131.45601281 32.07730022 146.31389551 32.01120632 161.17200279 31.96975327 C168.35744097 31.94917145 175.54270255 31.92113537 182.72802734 31.87524414 C188.99439069 31.83524138 195.26062607 31.80953733 201.52711356 31.80064797 C204.84197153 31.79545573 208.1563805 31.78121242 211.47114182 31.75408173 C215.18133751 31.7249297 218.89078191 31.72105106 222.60107422 31.72290039 C223.68721008 31.70851929 224.77334595 31.69413818 225.89239502 31.67932129 C235.23201038 31.72950018 243.27916804 33.99074513 250.22070312 40.47387695 C257.61436603 48.6974408 259.33385379 57.4114583 259.06445312 68.1887207 C258.59012678 76.57441526 254.97725789 83.57993895 248.75195312 89.17700195 C242.25294175 94.0642585 236.13721094 96.43505953 227.92041016 96.40405273 C226.93886208 96.40449081 226.93886208 96.40449081 225.93748474 96.40493774 C223.79477236 96.40355483 221.65241655 96.38804342 219.50976562 96.37231445 C218.01618642 96.36858061 216.52260475 96.36573539 215.02902222 96.36373901 C211.11304874 96.35613173 207.19722549 96.33650848 203.28131104 96.31433105 C199.27935823 96.29380978 195.27738097 96.28472391 191.27539062 96.2746582 C183.43417614 96.2532596 175.59308336 96.21915908 167.75195312 96.17700195 C167.96348526 96.70891144 168.1750174 97.24082092 168.39295959 97.78884888 C168.80474709 98.84940994 168.80474709 98.84940994 169.22485352 99.93139648 C169.49826065 100.62830597 169.77166779 101.32521545 170.05335999 102.04324341 C172.69743691 110.11921985 171.58123409 120.57618592 167.93945312 128.13793945 C164.19715177 134.5638648 159.18926423 138.61055455 152.75195312 142.17700195 C152.09195312 142.17700195 151.43195313 142.17700195 150.75195312 142.17700195 C151.18507813 142.98137695 151.18507813 142.98137695 151.62695312 143.80200195 C155.62374794 152.2396799 156.40114717 161.89771767 154.02148438 170.95825195 C153.08889322 173.18124476 152.03675803 175.13990997 150.75195312 177.17700195 C150.40132813 177.79833008 150.05070312 178.4196582 149.68945312 179.05981445 C146.51122876 184.15821605 142.00607922 187.35897362 136.75195312 190.17700195 C136.09195312 190.17700195 135.43195313 190.17700195 134.75195312 190.17700195 C135.18507813 190.98137695 135.18507813 190.98137695 135.62695312 191.80200195 C139.63018314 200.25326532 140.35646588 209.84007797 138.05664062 218.9230957 C137.12614987 221.17894933 136.07226879 223.12682235 134.75195312 225.17700195 C134.31625 225.8834082 133.88054687 226.58981445 133.43164062 227.31762695 C128.7302111 234.25416231 122.75279485 237.91680525 114.75195312 240.17700195 C111.58625649 240.56980242 108.42205541 240.70545012 105.23583984 240.83251953 C104.28956254 240.87556969 103.34328524 240.91861984 102.36833286 240.96297455 C89.7932187 241.50288017 77.21159185 241.79325675 64.62695312 241.98950195 C63.41031605 242.0098349 62.19367897 242.03016785 60.9401741 242.05111694 C16.10693691 242.72084776 -19.71965656 235.73750519 -59.03248596 214.20202637 C-61.29497063 212.96705794 -61.29497063 212.96705794 -64.24804688 213.17700195 C-66.04648598 215.05111795 -67.56117343 217.07201738 -69.13867188 219.1340332 C-74.41719445 224.24638007 -80.36336154 224.61934034 -87.33276367 224.58105469 C-88.21493561 224.58791794 -89.09710754 224.59478119 -90.00601196 224.60185242 C-92.90326311 224.62005936 -95.79996992 224.6162934 -98.69726562 224.6105957 C-100.71792272 224.61515876 -102.73857827 224.6204647 -104.75923157 224.6264801 C-108.98481573 224.63539792 -113.21021073 224.63300121 -117.43579102 224.62304688 C-122.85324763 224.61152861 -128.2700552 224.63181924 -133.68742657 224.66096401 C-137.85584155 224.67929299 -142.02409979 224.67904067 -146.19254494 224.67332649 C-148.19045742 224.67317303 -150.18838037 224.67923747 -152.1862545 224.69161797 C-154.97509214 224.70647263 -157.76271446 224.69589372 -160.55151367 224.67871094 C-161.37705246 224.68837891 -162.20259125 224.69804687 -163.05314636 224.70800781 C-166.41422334 224.66457782 -168.69455804 224.57856565 -171.4593401 222.57267857 C-173.85775685 219.36039638 -173.75108867 217.33551463 -173.75598145 213.3449707 C-173.76534139 212.31502235 -173.76534139 212.31502235 -173.77489042 211.26426697 C-173.79084256 208.96399575 -173.77820855 206.66478098 -173.765625 204.36450195 C-173.77104517 202.71524436 -173.77816724 201.06599161 -173.78686523 199.41674805 C-173.80511413 194.9373998 -173.79802468 190.4584197 -173.78534889 185.97906494 C-173.77522931 181.29373169 -173.78461167 176.60843018 -173.79089355 171.9230957 C-173.798173 164.05454848 -173.78857447 156.18615139 -173.76953125 148.31762695 C-173.74776192 139.21754424 -173.75481308 130.11781999 -173.77683687 121.01774597 C-173.79498242 113.20786976 -173.79755334 105.39810153 -173.7870822 97.58821106 C-173.7808426 92.92227298 -173.7800244 88.25650345 -173.79322815 83.59057617 C-173.80477376 79.20411378 -173.79678474 74.81811402 -173.77365112 70.43170166 C-173.7683571 68.82082895 -173.76988968 67.20991737 -173.77870178 65.59906006 C-173.78961427 63.40185695 -173.77594828 61.20614122 -173.75598145 59.0090332 C-173.75447334 57.77902588 -173.75296524 56.54901855 -173.75141144 55.28173828 C-173.14851969 51.56312152 -172.2705117 50.3708335 -169.24804688 48.17700195 C-166.23237513 47.78241035 -163.58245907 47.62979543 -160.56738281 47.65942383 C-159.25441978 47.64890991 -159.25441978 47.64890991 -157.91493225 47.63818359 C-155.02043952 47.62057567 -152.12692464 47.63224031 -149.23242188 47.64575195 C-147.21705946 47.64305687 -145.2016983 47.63917432 -143.18634033 47.63415527 C-138.95955035 47.62825562 -134.73309835 47.63683472 -130.50634766 47.65551758 C-125.1014993 47.67824877 -119.69744801 47.66522389 -114.29262924 47.64122772 C-110.12831688 47.62673245 -105.96419153 47.63139385 -101.79987335 47.64173889 C-99.80806635 47.64439892 -97.81624213 47.64116202 -95.82445526 47.63182068 C-93.03128034 47.62160028 -90.23937042 47.63723514 -87.44628906 47.65942383 C-86.63041824 47.6513269 -85.81454742 47.64322998 -84.97395325 47.6348877 C-78.60617414 47.72805624 -73.22698767 49.35529666 -68.52225876 53.81169891 C-67.89152388 54.48752392 -67.89152388 54.48752392 -67.24804688 55.17700195 C-63.39120165 53.59200332 -60.96860641 51.13267262 -58.05224609 48.19238281 C-57.29541031 47.43357567 -57.29541031 47.43357567 -56.52328491 46.65943909 C-54.86178354 44.99146277 -53.20737179 43.31662881 -51.55273438 41.6418457 C-50.39789994 40.48073927 -49.24254779 39.32014755 -48.08670044 38.16004944 C-45.04844204 35.10850034 -42.01580431 32.05143121 -38.98474121 28.99273682 C-34.12725207 24.09209052 -29.26299427 19.19818498 -24.39551163 14.30746651 C-22.69469781 12.59641128 -20.99732674 10.88199421 -19.30026245 9.16722107 C-18.26197603 8.12210878 -17.2235807 7.07710466 -16.18505859 6.03222656 C-14.82415604 4.65894447 -14.82415604 4.65894447 -13.4357605 3.25791931 C-9.34311783 -0.63493535 -5.37650896 0.01584888 0 0 Z M-55.35323238 62.13143063 C-74.44547171 98.19158538 -65.1386949 155.28761271 -61.24804688 194.17700195 C-60.25796379 194.6147419 -60.25796379 194.6147419 -59.24787903 195.06132507 C-54.32923895 197.26285642 -49.48119658 199.53735444 -44.70776367 202.03955078 C-9.05270764 220.59852638 22.92937589 226.55748822 63.12695312 225.92700195 C64.17948399 225.912038 65.23201485 225.89707405 66.31644058 225.88165665 C73.38872678 225.77297656 80.45655754 225.59448832 87.52539062 225.34887695 C88.44442736 225.31783308 89.36346409 225.28678921 90.31035042 225.25480461 C92.90838712 225.15877097 95.50438501 225.04130829 98.10107422 224.91430664 C99.22272712 224.87166797 99.22272712 224.87166797 100.36703968 224.82816792 C106.1468881 224.50093728 112.9152488 223.69485065 117.38612938 219.72651291 C121.42153411 214.96373392 122.10800993 211.78571531 122.02929688 205.71606445 C121.61818869 201.95239793 120.26908952 199.95910008 117.75195312 197.17700195 C112.00587054 192.65349013 107.39466237 192.0774242 100.24414062 191.96606445 C98.39369141 191.92352539 98.39369141 191.92352539 96.50585938 191.88012695 C93.9122576 191.82788925 91.31848246 191.78366503 88.72460938 191.74731445 C87.49355469 191.71637695 86.2625 191.68543945 84.99414062 191.65356445 C83.86862793 191.63374512 82.74311523 191.61392578 81.58349609 191.59350586 C78.75195312 191.17700195 78.75195312 191.17700195 76.88671875 189.76831055 C75.46977949 187.7813032 75.34939271 186.60231822 75.37695312 184.17700195 C75.36921875 183.49637695 75.36148438 182.81575195 75.35351562 182.11450195 C75.87469447 179.58014209 76.75122411 178.79027462 78.75195312 177.17700195 C80.7225647 176.79846191 80.7225647 176.79846191 82.98876953 176.79223633 C83.8404068 176.78212524 84.69204407 176.77201416 85.56948853 176.76159668 C86.48821747 176.76461792 87.40694641 176.76763916 88.35351562 176.77075195 C89.3045517 176.75991577 90.25558777 176.74907959 91.23544312 176.73791504 C94.28268159 176.70360386 97.32954684 176.68806245 100.37695312 176.67700195 C104.36949591 176.6623586 108.36121478 176.62846763 112.35351562 176.58325195 C113.26009918 176.58627319 114.16668274 176.58929443 115.10073853 176.59240723 C121.37267355 176.51956127 128.48401315 176.09237824 133.37930298 171.72521973 C137.42845458 166.97379748 138.10796383 163.78216092 138.02929688 157.71606445 C137.61818869 153.95239793 136.26908952 151.95910008 133.75195312 149.17700195 C127.01687014 143.87491535 120.96129214 144.03076924 112.74414062 143.96606445 C110.76887163 143.9380167 108.7936113 143.9093524 106.81835938 143.88012695 C103.71305394 143.83874259 100.60791429 143.80184129 97.50244141 143.77563477 C94.49933828 143.74811383 91.49696469 143.70226979 88.49414062 143.65356445 C87.56286346 143.65031158 86.6315863 143.64705872 85.67208862 143.64370728 C84.80754059 143.62714081 83.94299255 143.61057434 83.05224609 143.59350586 C81.91237747 143.58137558 81.91237747 143.58137558 80.7494812 143.56900024 C78.22397222 143.07339009 77.32584883 142.17556386 75.75195312 140.17700195 C75.35351562 138.23950195 75.35351562 138.23950195 75.37695312 136.17700195 C75.36921875 135.49637695 75.36148438 134.81575195 75.35351562 134.11450195 C75.88419485 131.53394413 76.66377165 130.77640681 78.75195312 129.17700195 C81.32998657 128.79846191 81.32998657 128.79846191 84.45751953 128.79223633 C85.62948883 128.78212524 86.80145813 128.77201416 88.00894165 128.76159668 C89.27765106 128.76461792 90.54636047 128.76763916 91.85351562 128.77075195 C93.84965981 128.75419168 95.84580402 128.7376148 97.84193993 128.72008514 C101.35356918 128.69328519 104.86524011 128.68575708 108.37695312 128.67700195 C112.54409885 128.66655527 116.71101166 128.65256611 120.87802124 128.61608887 C123.47236614 128.59466002 126.0668595 128.58616928 128.6612854 128.59240723 C139.75702545 128.63016318 139.75702545 128.63016318 149.3656311 123.72521973 C153.43916731 118.99232429 154.10790424 115.7775658 154.02929688 109.71606445 C153.61818869 105.95239793 152.26908952 103.95910008 149.75195312 101.17700195 C144.16278948 96.77702206 139.68424516 96.06252019 132.72412109 96.01928711 C130.93734451 96.00389389 130.93734451 96.00389389 129.11447144 95.9881897 C127.83726227 95.98088837 126.5600531 95.97358704 125.24414062 95.96606445 C123.23134558 95.94518742 121.21855054 95.92429318 119.20576668 95.90236473 C114.25003712 95.8492518 109.29430809 95.8048687 104.33837891 95.77563477 C101.55243911 95.75876301 98.76677897 95.73410583 95.98098755 95.70077515 C93.35795387 95.6697142 90.73475087 95.6503671 88.11154175 95.64370728 C86.92666168 95.62714081 85.74178162 95.61057434 84.52099609 95.59350586 C83.4768454 95.58541901 82.4326947 95.57733215 81.35690308 95.56900024 C78.75195312 95.17700195 78.75195312 95.17700195 76.91629028 93.77206421 C75.46425777 91.782879 75.34915807 90.62296661 75.37695312 88.17700195 C75.36921875 87.49637695 75.36148438 86.81575195 75.35351562 86.11450195 C75.88571333 83.52656019 76.65029619 82.77465447 78.75195312 81.17700195 C81.40732765 80.80062103 81.40732765 80.80062103 84.67080688 80.79846191 C85.90721924 80.79025925 87.14363159 80.78205658 88.41751099 80.77360535 C89.79022328 80.77956421 91.16293447 80.78578331 92.53564453 80.79223633 C93.97959828 80.78813168 95.42354872 80.78267145 96.86749268 80.7759552 C99.97939897 80.7642181 103.09112786 80.76175028 106.20305252 80.76631165 C111.12898055 80.77311721 116.05467511 80.75725832 120.9805603 80.73791504 C131.44601193 80.70002345 141.91144344 80.68726601 152.37695312 80.67700195 C163.65479252 80.66592524 174.9325244 80.65047442 186.21029031 80.60628939 C191.10099607 80.58798256 195.99143534 80.58402356 200.8821671 80.59122467 C203.93531739 80.59275318 206.9883361 80.58192013 210.0414505 80.5678463 C211.45026781 80.56386396 212.85911056 80.56493375 214.26791763 80.57161903 C226.60203391 80.92412055 226.60203391 80.92412055 237.36304665 75.7251358 C241.4412596 70.99587006 242.10789211 67.77663031 242.02929688 61.71606445 C241.61818869 57.95239793 240.26908952 55.95910008 237.75195312 53.17700195 C231.67307462 48.39150185 226.55066908 48.02773833 219.03366089 48.03897095 C218.26379762 48.03614967 217.49393435 48.03332839 216.70074189 48.03042161 C214.12519136 48.02209908 211.54968395 48.02073941 208.97412109 48.01928711 C207.12605672 48.01461738 205.27799349 48.00947355 203.42993164 48.00389099 C199.45267724 47.99262262 195.47543028 47.98418257 191.49816513 47.97777176 C185.21278849 47.96708835 178.92746559 47.94684469 172.64212036 47.9246521 C154.77006478 47.86273243 136.89801301 47.80865103 119.02587891 47.77563477 C109.15355438 47.75731704 99.28132046 47.72842209 89.4090625 47.68763006 C84.18373535 47.66652172 78.95852253 47.65109729 73.73315048 47.64882278 C68.82309016 47.64668282 63.91326839 47.63088056 59.00328064 47.60443306 C57.1984857 47.59721516 55.39366194 47.59515108 53.58885574 47.59853554 C51.13104436 47.60240944 48.67400281 47.58804441 46.21627808 47.56900024 C45.13725434 47.57729479 45.13725434 47.57729479 44.03643215 47.5857569 C41.12374931 47.54661292 39.21216317 47.50964288 36.81033516 45.77359581 C35.4909173 43.78322335 35.34994036 42.55412542 35.37695312 40.17700195 C35.36535156 39.15606445 35.36535156 39.15606445 35.35351562 38.11450195 C35.88451313 35.53239645 36.66241107 34.77805571 38.75195312 33.17700195 C41.35258484 32.77827454 41.35258484 32.77827454 44.50854492 32.74462891 C45.68954269 32.72483475 46.87054047 32.70504059 48.08732605 32.68464661 C49.99992973 32.67506172 49.99992973 32.67506172 51.95117188 32.6652832 C53.25649368 32.647332 54.56181549 32.6293808 55.9066925 32.61088562 C59.37377909 32.56337143 62.84080054 32.53357173 66.30810547 32.50744629 C69.8474616 32.47764759 73.38659326 32.431115 76.92578125 32.38598633 C83.8677107 32.29993751 90.80971487 32.23259942 97.75195312 32.17700195 C97.20687107 27.38482219 96.77679019 24.07343745 93.35295105 20.44398499 C76.62508672 7.20604136 35.13322022 11.1219718 15.37600708 13.05834961 C-14.51653581 16.64250224 -40.33959646 36.2541305 -55.35323238 62.13143063 Z M-157.24804688 64.17700195 C-157.24804688 111.69700195 -157.24804688 159.21700195 -157.24804688 208.17700195 C-116.87458561 212.49507724 -116.87458561 212.49507724 -79.24804688 205.17700195 C-77.2504263 201.7238078 -76.99603612 198.69794735 -76.98735046 194.75672913 C-76.98026566 193.68151505 -76.97318085 192.60630096 -76.96588135 191.49850464 C-76.96835876 190.32901276 -76.97083618 189.15952087 -76.97338867 187.95458984 C-76.96572227 186.09526573 -76.96572227 186.09526573 -76.957901 184.19837952 C-76.94639297 180.80573825 -76.94392973 177.41334152 -76.9464643 174.02069783 C-76.94753553 171.18524388 -76.94264678 168.34981236 -76.93785888 165.51436323 C-76.92677166 158.82352319 -76.9263219 152.1327393 -76.93237305 145.44189453 C-76.93841348 138.54642602 -76.92609838 131.65116153 -76.90480298 124.75572783 C-76.88717318 118.82860518 -76.88118777 112.9015474 -76.88444072 106.97439951 C-76.88625148 103.43742125 -76.88363824 99.90058855 -76.86972618 96.36363411 C-76.854789 92.41861115 -76.86413007 88.47384704 -76.87573242 84.52880859 C-76.86808868 83.36134094 -76.86044495 82.19387329 -76.85256958 80.99102783 C-76.82020136 73.10955305 -76.82020136 73.10955305 -80.24804688 66.17700195 C-104.08698601 56.6414263 -131.57272366 64.17700195 -157.24804688 64.17700195 Z " fill="#558FC0" transform="translate(213.248046875,135.822998046875)"/>
</svg>
