<?xml version="1.0" encoding="UTF-8"?>
<svg version="1.1" xmlns="http://www.w3.org/2000/svg" width="512" height="512">
<path d="M0 0 C12.9782787 9.97298408 21.55285632 23.36425217 23.78125 39.734375 C24.97345222 57.53225098 20.36898479 72.50544748 8.8125 86.1875 C-0.12122809 95.73579664 -11.91794447 102.03095885 -25 103 C-24.76216797 103.97453125 -24.76216797 103.97453125 -24.51953125 104.96875 C-22.03870139 119.44336631 -23.88912124 133.50131799 -32.125 145.8125 C-37.65713182 153.59220503 -43.88592924 159.09591107 -53 162 C-47.9163574 173.59402958 -42.65382252 185.08574314 -37.19232178 196.50646973 C-35.10500245 200.87172921 -33.02578753 205.24085055 -30.9453125 209.609375 C-30.52581329 210.48970398 -30.10631409 211.37003296 -29.67410278 212.27703857 C-25.71485174 220.58906879 -21.78983632 228.91697898 -17.875 237.25 C-16.56912054 240.0286976 -15.26309771 242.80732779 -13.95703125 245.5859375 C-13.63393478 246.27338043 -13.31083832 246.96082336 -12.97795105 247.6690979 C-9.18256473 255.7423404 -5.37288969 263.80883063 -1.5625 271.875 C-1.20992126 272.62140747 -0.85734253 273.36781494 -0.49407959 274.13684082 C1.29010652 277.91388262 3.07445283 281.6908487 4.85888672 285.46777344 C6.99106782 289.98087998 9.12259111 294.49429696 11.25390625 299.0078125 C11.6047377 299.75077072 11.95556915 300.49372894 12.31703186 301.25920105 C13.72876905 304.24888738 15.14047781 307.23858713 16.55215454 310.228302 C20.18164787 317.91500104 23.81146087 325.60154808 27.44329834 333.28713989 C28.97043526 336.51889703 30.49731157 339.75077726 32.02416992 342.98266602 C32.74262796 344.50323488 33.46120953 346.02374539 34.17993164 347.54418945 C36.13738611 351.68519161 38.09151381 355.82773569 40.04260254 359.97174072 C41.03959318 362.08387868 42.04257181 364.19311147 43.04589844 366.30224609 C43.69479404 367.67409094 44.34356209 369.04599613 44.9921875 370.41796875 C45.44756393 371.36969719 45.44756393 371.36969719 45.91213989 372.34065247 C48 376.77319836 48 376.77319836 48 379 C48.58007812 378.94199219 49.16015625 378.88398438 49.7578125 378.82421875 C53.99050621 378.57975624 57.06139701 378.5037123 60.5 381.1875 C64.93416632 386.17593712 64.18259124 392.06102208 64.1875 398.4375 C64.19974609 399.27087891 64.21199219 400.10425781 64.22460938 400.96289062 C64.23840964 406.78200081 64.19693599 411.74385164 59.92187357 416.13413662 C56.22219396 418.49669494 53.19903448 418.55755345 48.94924164 418.50615788 C48.13961615 418.51227123 47.32999066 418.51838459 46.49583107 418.52468321 C43.77146386 418.54033588 41.04798017 418.52739598 38.3236084 418.5146637 C36.35532151 418.5199866 34.38703868 418.52705081 32.41876364 418.53571075 C27.00107589 418.55439867 21.58366035 418.54801194 16.16596103 418.53755772 C10.32674676 418.53058319 4.48758941 418.54655031 -1.35160828 418.55955505 C-12.79413988 418.58122921 -24.23657216 418.58105947 -35.67911756 418.57292951 C-44.97625844 418.56663725 -54.2733703 418.56775943 -63.57051086 418.57420158 C-64.90558788 418.57511291 -66.2406649 418.57602367 -67.57574192 418.57693387 C-69.58749296 418.57831698 -71.599244 418.57970807 -73.61099502 418.58112001 C-92.31760884 418.59410343 -111.02421183 418.59921172 -129.73082733 418.5875864 C-130.4361955 418.58714843 -131.14156368 418.58671046 -131.86830664 418.58625922 C-137.59666639 418.58265227 -143.325026 418.57881756 -149.05338559 418.57496829 C-171.40266043 418.56011812 -193.75181308 418.56890299 -216.10107422 418.59692383 C-241.20213011 418.62833449 -266.30311367 418.64332739 -291.40418959 418.63312382 C-294.07928942 418.63208701 -296.75438927 418.63109978 -299.42948914 418.6301403 C-300.74579123 418.62966391 -302.06209333 418.62918752 -303.41828337 418.6286967 C-312.7074523 418.62652923 -321.99656449 418.63635429 -331.28572083 418.65091133 C-342.60155464 418.66839653 -353.91722234 418.6683721 -365.23304951 418.64555968 C-371.0098656 418.63438313 -376.78638861 418.63133219 -382.56319237 418.64986038 C-387.84702421 418.66658982 -393.13030562 418.66041666 -398.4141013 418.63564359 C-400.32990724 418.63073507 -402.24575695 418.63434405 -404.1615265 418.64713103 C-406.75810281 418.66321719 -409.35275364 418.64875767 -411.94924164 418.62641239 C-412.69995011 418.63840407 -413.45065858 418.65039575 -414.22411579 418.66275081 C-418.18336772 418.59276931 -419.83774585 418.13320286 -422.9406724 415.58584923 C-427.11538067 410.34376626 -426.22095597 405.18247106 -426.25 398.6875 C-426.270625 397.54603516 -426.29125 396.40457031 -426.3125 395.22851562 C-426.31765625 394.12572266 -426.3228125 393.02292969 -426.328125 391.88671875 C-426.3374707 390.87826904 -426.34681641 389.86981934 -426.35644531 388.83081055 C-425.93827383 385.50978431 -424.979169 383.67976237 -423 381 C-420 379 -420 379 -416 379 C-415.96782461 349.88652452 -415.97144799 320.77324709 -416.02472496 291.65979646 C-416.03098995 288.21908024 -416.03695119 284.77836356 -416.04272461 281.33764648 C-416.04445627 280.31021251 -416.04445627 280.31021251 -416.04622292 279.26202229 C-416.06416751 268.18577792 -416.05753089 257.1096787 -416.04173584 246.03343692 C-416.0260665 234.65970048 -416.03750519 223.2862682 -416.07234758 211.91255313 C-416.09105442 205.52755968 -416.09757265 199.143084 -416.07469368 192.75809288 C-416.05353135 186.74389088 -416.06526637 180.73063588 -416.10184479 174.71651649 C-416.10951576 172.51355464 -416.10533807 170.31051342 -416.08818626 168.10760498 C-415.6992791 153.13674731 -415.6992791 153.13674731 -422.31680965 140.09615803 C-428.97130486 131.80899456 -428.6976007 119.03169452 -428 109 C-425.37831909 95.50208858 -418.35068863 83.54318726 -407.3125 75.3125 C-399.78301176 70.24347993 -390.94841549 66.8731434 -381.8225975 66.87695217 C-380.76961464 66.87496112 -379.71663177 66.87297007 -378.63174033 66.87091869 C-377.47610721 66.87383153 -376.32047409 66.87674437 -375.12982178 66.87974548 C-373.28709667 66.87846385 -373.28709667 66.87846385 -371.40714478 66.87715632 C-367.99568869 66.87579243 -364.58428978 66.87892368 -361.1728406 66.88393438 C-357.4946216 66.88824809 -353.81640441 66.8867918 -350.13818359 66.8860321 C-343.76488577 66.88550746 -337.39159817 66.88864811 -331.01830292 66.89426994 C-321.80355936 66.90239291 -312.58882076 66.90500098 -303.37407401 66.90625793 C-288.42418456 66.9084472 -273.47430056 66.91510389 -258.52441406 66.92456055 C-244.00097684 66.93373791 -229.4775411 66.94081716 -214.95410156 66.94506836 C-214.05905378 66.94533108 -213.164006 66.94559381 -212.24183556 66.94586449 C-207.75169674 66.94716952 -203.2615579 66.94843323 -198.77141905 66.94967639 C-161.51427552 66.96004509 -124.25713818 66.97766001 -87 67 C-87.31791 65.77458496 -87.31791 65.77458496 -87.64224243 64.52441406 C-87.91708466 63.44901367 -88.19192688 62.37361328 -88.47509766 61.265625 C-88.74891266 60.20118164 -89.02272766 59.13673828 -89.30484009 58.04003906 C-92.69914528 43.19623092 -88.91763958 27.74757222 -81 15 C-61.74353956 -10.3488999 -27.03600291 -18.79127756 0 0 Z M-371 184 C-371 248.35 -371 312.7 -371 379 C-343.94 379 -316.88 379 -289 379 C-291.4705999 371.55305428 -291.4705999 371.55305428 -294.28515625 364.2890625 C-294.72351807 363.23267578 -295.16187988 362.17628906 -295.61352539 361.08789062 C-296.09168701 359.94513672 -296.56984863 358.80238281 -297.0625 357.625 C-297.58542544 356.36923236 -298.10812232 355.11336953 -298.63061523 353.85742188 C-300.09588924 350.33829902 -301.56576948 346.82111599 -303.03662109 343.30432129 C-304.03055961 340.92690397 -305.02324965 338.54896864 -306.015625 336.17089844 C-314.80834013 315.10253684 -323.65679926 294.05817833 -332.55099487 273.0324707 C-339.78674677 255.92328152 -346.94294957 238.78151003 -354.06396484 221.62426758 C-359.2890256 209.04496172 -364.6057139 196.50768649 -370 184 C-370.33 184 -370.66 184 -371 184 Z " fill="#0F78F0" transform="translate(436,74)"/>
<path d="M0 0 C35.53416493 -0.04578308 71.06832469 -0.08102208 106.60251305 -0.10213066 C110.79815979 -0.10463206 114.99380647 -0.1072207 119.18945312 -0.10986328 C120.02472678 -0.1103879 120.86000043 -0.11091252 121.72058541 -0.11145304 C135.24316326 -0.12015438 148.76572411 -0.13592287 162.28829187 -0.15430559 C176.16488172 -0.17301218 190.04146266 -0.18411833 203.91806459 -0.18817699 C212.47986126 -0.19092047 221.04160984 -0.19958395 229.60339171 -0.21583293 C235.47544332 -0.22640917 241.34747008 -0.22959917 247.21953052 -0.22700275 C250.60681899 -0.22572246 253.99395576 -0.22877301 257.38124084 -0.23841095 C261.05692133 -0.24835718 264.73239583 -0.24596985 268.40808105 -0.24050903 C270.00732524 -0.24924756 270.00732524 -0.24924756 271.63887739 -0.25816262 C283.56660423 -0.21024739 293.85007461 2.8057625 302.75 11.0625 C311.0973939 19.86870455 314.27829472 29.57728591 314.14453125 41.43359375 C313.68592169 52.75009457 309.47926655 62.08417834 301.1875 69.9375 C291.1297752 78.3817667 280.25410032 80.31075063 267.44604492 80.24050903 C266.29989841 80.24221788 265.15375191 80.24392673 263.97287369 80.24568737 C260.14200793 80.24897501 256.3113183 80.23799032 252.48046875 80.22705078 C249.73055409 80.2253718 246.98064285 80.22671553 244.23072815 80.22793579 C238.31529933 80.22898261 232.39991476 80.22272724 226.48449707 80.21146011 C217.93188648 80.19518055 209.3792972 80.1899946 200.82667279 80.18748413 C186.94937782 80.18311088 173.07210641 80.16981182 159.19482422 80.15087891 C145.71728635 80.13251053 132.23975489 80.11835871 118.76220703 80.10986328 C117.93093705 80.10933783 117.09966707 80.10881239 116.2432071 80.10827102 C112.07281633 80.10566087 107.90242552 80.10313347 103.73203468 80.10064721 C69.154673 80.07992623 34.57733867 80.04471078 0 80 C0.95933798 78.8788841 1.91894356 77.75799717 2.87866211 76.63720703 C3.41301376 76.01298859 3.94736542 75.38877014 4.49790955 74.74563599 C5.63574316 73.42331662 6.78576322 72.11147097 7.94140625 70.8046875 C17.02183376 59.99569668 20.08427209 46.85119413 19 33 C16.30294057 19.63799697 9.49942165 9.46659144 0 0 Z " fill="#C7DCF6" transform="translate(88,151)"/>
<path d="M0 0 C154.77 0 309.54 0 469 0 C469 6.27 469 12.54 469 19 C314.23 19 159.46 19 0 19 C0 12.73 0 6.46 0 0 Z " fill="#C8DDF6" transform="translate(20,463)"/>
<path d="M0 0 C9.83676124 7.17195301 17.89029782 17.25709217 20.4609375 29.390625 C21.9670607 46.47525562 18.84706705 59.01418364 7.83984375 72.35546875 C1.02139464 79.82796574 -8.99927129 84.9607396 -19.0390625 86.078125 C-21.3828125 86.02734375 -21.3828125 86.02734375 -23.5390625 85.390625 C-25.39109018 83.37972239 -26.60885317 81.2694897 -27.97265625 78.90234375 C-33.57253586 69.92298567 -43.68416673 64.29240855 -53.78369141 61.84716797 C-58.67487974 60.83182543 -63.59062585 60.06621994 -68.5390625 59.390625 C-73.23397053 46.96169436 -74.73464037 34.86204172 -69.8515625 22.23046875 C-63.72043586 8.96460842 -54.19039216 -0.15857671 -40.5390625 -5.609375 C-27.12990261 -9.49757227 -11.65549977 -7.3877937 0 0 Z " fill="#FDFEFE" transform="translate(428.5390625,81.609375)"/>
<path d="M0 0 C1.60848564 -0.01279495 1.60848564 -0.01279495 3.24946594 -0.02584839 C4.41581573 -0.02494202 5.58216553 -0.02403564 6.78385925 -0.02310181 C8.02019608 -0.02981903 9.2565329 -0.03653625 10.53033447 -0.04345703 C13.91484039 -0.05918697 17.29910089 -0.06581133 20.68362641 -0.0670886 C22.80088169 -0.06851241 24.91811142 -0.07278638 27.03536034 -0.07808304 C34.42973329 -0.0965757 41.82403425 -0.10475474 49.21842957 -0.10317993 C56.0980048 -0.1019792 62.97726596 -0.12306984 69.85676175 -0.15466726 C75.77372639 -0.18086987 81.69058871 -0.19154554 87.60761088 -0.19026911 C91.13688405 -0.18976058 94.66587807 -0.19538269 98.19509315 -0.21662521 C102.1349614 -0.2396928 106.07440334 -0.23046227 110.014328 -0.21841431 C111.1746051 -0.22965332 112.3348822 -0.24089233 113.53031921 -0.25247192 C121.21021366 -0.19286103 126.63476591 0.85156932 132.61662292 6.01351929 C136.81605559 11.26887867 139.04496056 15.15887092 138.84709167 22.15023804 C138.15092703 27.95518018 135.79019661 33.18384709 131.59318542 37.26742554 C124.66355533 41.63076129 118.87323375 41.85057278 110.80241394 41.81674194 C109.53798462 41.82696381 108.2735553 41.83718567 106.97080994 41.84771729 C103.5223231 41.87435701 100.07427649 41.87567081 96.62570691 41.87059069 C93.73816699 41.86844187 90.85071444 41.87824169 87.96319336 41.88780153 C81.14700034 41.90994278 74.33102781 41.91089418 67.51481628 41.89877319 C60.50152768 41.88669289 53.48904149 41.91132699 46.47588974 41.95391333 C40.43652022 41.98922721 34.3974052 42.00113544 28.35793632 41.99463785 C24.75870182 41.99102505 21.16003997 41.99615285 17.56089973 42.02406693 C13.54452616 42.05405555 9.52977031 42.03521479 5.51335144 42.01205444 C4.33333054 42.02734192 3.15330963 42.04262939 1.93753052 42.05838013 C-5.6523396 41.96185322 -10.77318692 40.52196685 -16.40681458 35.26742554 C-20.41947123 30.09556037 -21.80082293 24.90257528 -21.68025208 18.41586304 C-20.8545684 11.92834845 -17.1696864 7.55073903 -12.28572083 3.49398804 C-8.29214161 0.88695296 -4.73610286 0.01708866 0 0 Z " fill="#1078F0" transform="translate(212.4068145751953,169.73257446289063)"/>
<path d="M0 0 C2.475 0.99 2.475 0.99 5 2 C7.13871448 2.70933584 9.28512984 3.39574694 11.4375 4.0625 C12.52933594 4.40410156 13.62117188 4.74570313 14.74609375 5.09765625 C18.42179924 6.17839112 18.42179924 6.17839112 24 7 C24 77.29 24 147.58 24 220 C16.08 220 8.16 220 0 220 C0 147.4 0 74.8 0 0 Z " fill="#C8DDF6" transform="translate(31,233)"/>
<path d="M0 0 C6.7205322 5.12530634 11.56031588 10.26770197 15 18 C15.31710938 18.59941406 15.63421875 19.19882813 15.9609375 19.81640625 C20.03757177 28.47457904 19.05446719 39.10017157 15.9375 47.875 C11.13827048 58.81402595 3.97828484 66.65011146 -7.14453125 71.3203125 C-18.79570408 75.27314219 -28.75370009 75.20417016 -40 70 C-50.60047081 63.92258345 -57.53340194 55.55000616 -61.34375 43.921875 C-63.83077549 32.84869007 -61.74639494 22.67779576 -56.375 12.875 C-50.62790679 3.85800893 -42.2645098 -2.27391952 -32.12890625 -5.6171875 C-21.06808421 -7.60610596 -9.49091122 -6.11982254 0 0 Z " fill="#F9FCFE" transform="translate(80,157)"/>
<path d="M0 0 C7.77822429 15.92648208 15.53743438 31.86011886 23 47.9375 C23.49008545 48.99227539 23.9801709 50.04705078 24.48510742 51.13378906 C28.75728504 60.3804791 32.86185187 69.6891667 37 79 C19.51 79 2.02 79 -16 79 C-25.20007161 60.59985677 -25.20007161 60.59985677 -28.40234375 53.609375 C-28.76676071 52.81937607 -29.13117767 52.02937714 -29.50663757 51.21543884 C-30.65300419 48.72821178 -31.795528 46.23924743 -32.9375 43.75 C-33.73152218 42.02315386 -34.52563084 40.29634749 -35.31982422 38.56958008 C-37.21764216 34.44047047 -39.11147108 30.30954947 -41.00299072 26.17755127 C-41.90135004 24.21545973 -42.80081158 22.25387855 -43.70068359 20.29248047 C-45.01378101 17.42638864 -46.32143103 14.55793524 -47.625 11.6875 C-47.98456787 10.90149414 -48.34413574 10.11548828 -48.71459961 9.30566406 C-51 4.23535432 -51 4.23535432 -51 2 C-46.30879074 1.70892827 -41.61723835 1.4244627 -36.92529297 1.14550781 C-35.33697316 1.05021502 -33.74875127 0.95327236 -32.16064453 0.85449219 C-21.42252125 0.18803488 -10.76024914 -0.13275153 0 0 Z " fill="#FDFEFE" transform="translate(436,374)"/>
<path d="M0 0 C8.59420289 18.07209988 17.13968278 36.16454182 25.4375 54.375 C25.7576004 55.0748703 26.07770081 55.7747406 26.40750122 56.49581909 C27.31543563 58.48266467 28.21902468 60.47142323 29.12109375 62.4609375 C29.6308374 63.58290527 30.14058105 64.70487305 30.66577148 65.86083984 C31.93422822 68.84525279 32.97453898 71.92361693 34 75 C15.85 75 -2.3 75 -21 75 C-29.11732842 57.60572481 -29.11732842 57.60572481 -32.12109375 51.07421875 C-32.64377586 49.93820976 -32.64377586 49.93820976 -33.17701721 48.7792511 C-33.9021812 47.20263251 -34.62711224 45.62590676 -35.35180664 44.04907227 C-36.43197775 41.69951186 -37.51382166 39.35072637 -38.59570312 37.00195312 C-40.74117457 32.33949292 -42.87254994 27.67070518 -45 23 C-45.38069641 22.1674469 -45.76139282 21.3348938 -46.15362549 20.47711182 C-47.2868922 17.99396207 -48.41209226 15.50730934 -49.53515625 13.01953125 C-49.8836412 12.25839523 -50.23212616 11.49725922 -50.59117126 10.71305847 C-53 5.34363543 -53 5.34363543 -53 2 C-35.31520415 0.80275779 -17.73474411 -0.30295413 0 0 Z " fill="#FDFEFE" transform="translate(375,378)"/>
<path d="M0 0 C5.75168599 11.29681422 11.19360873 22.71823193 16.50146484 34.22973633 C17.7602133 36.95965012 19.02238082 39.68796256 20.28515625 42.41601562 C21.10175756 44.18220149 21.91817063 45.94847441 22.734375 47.71484375 C23.10423523 48.51502426 23.47409546 49.31520477 23.85516357 50.13963318 C24.90830198 52.4242322 25.95523353 54.71156171 27 57 C27.38095825 57.82766876 27.7619165 58.65533752 28.15441895 59.50808716 C28.52143921 60.31567474 28.88845947 61.12326233 29.26660156 61.95532227 C29.59936096 62.68364761 29.93212036 63.41197296 30.27496338 64.16236877 C31 66 31 66 31 68 C27.36369185 69.08476192 23.80150512 69.29716582 20.0234375 69.53515625 C19.3443483 69.57822403 18.66525909 69.62129181 17.96559143 69.66566467 C15.76899146 69.80274774 13.57207131 69.93320601 11.375 70.0625 C10.6326712 70.10735535 9.89034241 70.15221069 9.1255188 70.19842529 C-1.92516219 70.8611577 -12.92736345 71.28031991 -24 71 C-26.9604002 65.23038836 -29.59667831 59.39804944 -32.08203125 53.41015625 C-32.45929855 52.50736435 -32.83656586 51.60457245 -33.2252655 50.67442322 C-34.42362613 47.80486542 -35.61808236 44.9337009 -36.8125 42.0625 C-37.60196639 40.17112078 -38.39167805 38.27984391 -39.18164062 36.38867188 C-41.09614024 31.80281678 -43.00376277 27.21414117 -44.90875244 22.62432861 C-45.97985384 20.04844927 -47.05656764 17.4749758 -48.13427734 14.90185547 C-48.78106419 13.34999312 -49.42771897 11.79807572 -50.07421875 10.24609375 C-50.37270218 9.53703384 -50.67118561 8.82797394 -50.97871399 8.09742737 C-53 3.22715346 -53 3.22715346 -53 1 C-16.01000077 -0.15998663 -16.01000077 -0.15998663 0 0 Z " fill="#FDFDFE" transform="translate(153,311)"/>
<path d="M0 0 C5.41068354 10.52600792 10.30235617 21.22980983 15.0625 32.0625 C16.4268193 35.1582446 17.7931921 38.25307875 19.16015625 41.34765625 C19.48625885 42.08722565 19.81236145 42.82679504 20.14834595 43.58877563 C22.68305234 49.32316681 25.30102392 55.01428353 27.96655273 60.68920898 C29 63 29 63 29 64 C9.2 64 -10.6 64 -31 64 C-33.64 57.6475 -36.28 51.295 -39 44.75 C-39.8146875 42.7915918 -40.629375 40.83318359 -41.46875 38.81542969 C-46.41177524 26.91589058 -51.24468442 14.97575049 -56 3 C-51.79372755 1.84549984 -47.61899204 1.66979687 -43.28125 1.46484375 C-42.42752808 1.42186661 -41.57380615 1.37888947 -40.69421387 1.33460999 C-38.88543025 1.24450259 -37.0765473 1.15637046 -35.26757812 1.07006836 C-32.53747452 0.93929505 -29.80781537 0.80121289 -27.078125 0.66210938 C-18.04702674 0.21309547 -9.04550256 -0.15655678 0 0 Z " fill="#FDFEFE" transform="translate(189,389)"/>
<path d="M0 0 C4.11908354 1.70830998 5.01647694 5.41607301 6.69213867 9.36010742 C7.07483917 10.2189151 7.45753967 11.07772278 7.85183716 11.96255493 C9.0966102 14.76717563 10.31437937 17.58266079 11.53198242 20.39916992 C12.37767874 22.31919741 13.22509636 24.23846764 14.07421875 26.15698242 C15.76471586 29.98326291 17.44510859 33.81372319 19.11694336 37.64819336 C21.1750759 42.36313858 23.26799929 47.06131031 25.38354492 51.75073242 C25.95125265 53.01192654 26.51888307 54.27315545 27.08642578 55.53442383 C28.11300871 57.81547098 29.13985311 60.09640049 30.16699219 62.37719727 C30.61099365 63.37444824 31.05499512 64.37169922 31.51245117 65.39916992 C31.89425537 66.2525293 32.27605957 67.10588867 32.66943359 67.98510742 C33.46948242 70.02416992 33.46948242 70.02416992 33.46948242 72.02416992 C16.96948242 72.02416992 0.46948242 72.02416992 -16.53051758 72.02416992 C-25.7515054 53.58219427 -25.7515054 53.58219427 -29.29223633 45.91479492 C-29.89005669 44.62638702 -29.89005669 44.62638702 -30.49995422 43.31195068 C-31.3268314 41.52825573 -32.15253659 39.74401699 -32.97705078 37.95922852 C-34.22374879 35.2617694 -35.4755248 32.56670772 -36.7277832 29.87182617 C-40.84371617 20.99263372 -44.89028254 12.11142121 -48.53051758 3.02416992 C-36.6682769 1.88487741 -24.81105546 0.88905306 -12.90551758 0.33666992 C-11.94121826 0.28841064 -10.97691895 0.24015137 -9.98339844 0.19042969 C-9.07855713 0.15232178 -8.17371582 0.11421387 -7.24145508 0.07495117 C-6.4504541 0.04054932 -5.65945313 0.00614746 -4.84448242 -0.02929688 C-3.23005633 0.00800628 -1.61478335 0.0154234 0 0 Z " fill="#FDFEFE" transform="translate(309.530517578125,380.975830078125)"/>
<path d="M0 0 C5.46212713 10.73825981 10.62475423 21.57411356 15.5625 32.5625 C16.50181874 34.64627045 17.44208772 36.72960713 18.38314819 38.81259155 C19.00037572 40.17918712 19.61662343 41.54622568 20.23184204 42.91372681 C21.79534422 46.37957793 23.38582779 49.82947572 25.02294922 53.26123047 C25.51153664 54.28916969 25.51153664 54.28916969 26.00999451 55.33787537 C26.63143763 56.6408135 27.25771062 57.94146259 27.88954163 59.23939514 C29.22313567 62.03809092 30 63.85450483 30 67 C24.68406762 67.28928151 19.36791196 67.57390317 14.05151367 67.85449219 C12.24871337 67.95026445 10.4459764 68.04723754 8.64331055 68.14550781 C-1.58212108 68.70207116 -11.75599681 69.16910885 -22 69 C-38.18522683 33.90720694 -38.18522683 33.90720694 -45.71279907 17.19735718 C-46.27839018 15.94272931 -46.84526099 14.68867753 -47.41342163 13.43521118 C-48.19732267 11.70459018 -48.97576921 9.97150156 -49.75390625 8.23828125 C-50.19033447 7.26930908 -50.6267627 6.30033691 -51.07641602 5.30200195 C-52 3 -52 3 -52 1 C-34.6567754 0.23524658 -17.35995061 -0.14759932 0 0 Z " fill="#FDFDFE" transform="translate(216,309)"/>
<path d="M0 0 C1.97021118 0.0165564 1.97021118 0.0165564 3.98022461 0.03344727 C5.12112549 0.04303467 6.26202637 0.05262207 7.4375 0.0625 C12.4977991 9.9907874 17.23343352 20.02993896 21.8125 30.1875 C22.46863234 31.63811088 23.12496571 33.08863084 23.78149414 34.5390625 C25.07322951 37.39413042 26.36330413 40.24993901 27.65185547 43.10644531 C29.23341838 46.61208999 30.82091289 50.11501699 32.41015625 53.6171875 C33.23198212 55.43219601 34.05361566 57.24729163 34.875 59.0625 C35.24608887 59.87992676 35.61717773 60.69735352 35.99951172 61.53955078 C38.4375 66.94708285 38.4375 66.94708285 38.4375 68.0625 C20.9475 68.0625 3.4575 68.0625 -14.5625 68.0625 C-23.78488249 49.61773502 -23.78488249 49.61773502 -27.140625 42.3203125 C-27.51934753 41.50102264 -27.89807007 40.68173279 -28.28826904 39.83761597 C-29.07232817 38.13971305 -29.85515448 36.44124027 -30.63671875 34.7421875 C-31.82170818 32.16749286 -33.01217619 29.59538014 -34.203125 27.0234375 C-41.53850777 11.13775636 -41.53850777 11.13775636 -44.5625 3.0625 C-41.48873371 2.18032684 -38.64925162 1.89047512 -35.45703125 1.78125 C-34.47283203 1.74386719 -33.48863281 1.70648438 -32.47460938 1.66796875 C-31.45173828 1.63316406 -30.42886719 1.59835937 -29.375 1.5625 C-21.10014422 1.28800848 -21.10014422 1.28800848 -12.859375 0.53515625 C-8.55697632 0.01303695 -4.32898661 -0.05231264 0 0 Z " fill="#FDFEFE" transform="translate(243.5625,384.9375)"/>
<path d="M0 0 C7.58344444 16.04780203 15.11849789 32.11372053 22.375 48.3125 C22.79511856 49.24864639 22.79511856 49.24864639 23.22372437 50.20370483 C27.81384447 60.44153342 27.81384447 60.44153342 29 64 C22.49536458 64.78958002 16.04115593 65.25944554 9.49609375 65.53515625 C8.05025658 65.59962196 8.05025658 65.59962196 6.57521057 65.66539001 C3.52942263 65.80055606 0.48347382 65.93159665 -2.5625 66.0625 C-4.64128812 66.15402305 -6.72006431 66.2458173 -8.79882812 66.33789062 C-13.86575303 66.5617284 -18.93282633 66.78186927 -24 67 C-29.04968742 57.2334536 -33.51383448 47.24812556 -37.9375 37.1875 C-39.29876837 34.09676457 -40.66233914 31.00705576 -42.02734375 27.91796875 C-42.52202652 26.79538162 -42.52202652 26.79538162 -43.02670288 25.65011597 C-44.66222309 21.95431409 -46.3284402 18.27792485 -48.06298828 14.62744141 C-48.38973038 13.93918777 -48.71647247 13.25093414 -49.05311584 12.54182434 C-49.67044103 11.24908828 -50.29290622 9.95878961 -50.92137146 8.6714325 C-52.24906498 5.89624603 -53 4.12345184 -53 1 C-16.01000077 -0.15998663 -16.01000077 -0.15998663 0 0 Z " fill="#FCFDFE" transform="translate(341,304)"/>
<path d="M0 0 C7.03394094 13.61624745 13.26432365 27.56790796 19.47412109 41.57226562 C20.84097691 44.64277053 22.22229339 47.70599613 23.61328125 50.765625 C23.99097656 51.6004541 24.36867188 52.4352832 24.7578125 53.29541016 C25.43995935 54.8021336 26.12590568 56.30714515 26.81640625 57.81005859 C28.12850156 60.72558616 29 62.76291408 29 66 C24.45122855 66.29127011 19.90209333 66.57571583 15.35253906 66.85449219 C13.81271534 66.94973243 12.2729955 67.04667112 10.73339844 67.14550781 C0.13986286 67.824048 -10.38491124 68.13015776 -21 68 C-39.61941233 27.8708077 -39.61941233 27.8708077 -46.6875 12.5 C-47.13778564 11.52417969 -47.58807129 10.54835938 -48.05200195 9.54296875 C-48.4512085 8.67285156 -48.85041504 7.80273438 -49.26171875 6.90625 C-49.77158325 5.79733398 -49.77158325 5.79733398 -50.29174805 4.66601562 C-51 3 -51 3 -51 2 C-46.30879074 1.70892827 -41.61723835 1.4244627 -36.92529297 1.14550781 C-35.33697316 1.05021502 -33.74875127 0.95327236 -32.16064453 0.85449219 C-21.42252125 0.18803488 -10.76024914 -0.13275153 0 0 Z " fill="#FCFDFE" transform="translate(277,306)"/>
<path d="M0 0 C16.39300912 33.5045999 16.39300912 33.5045999 24.0625 50.125 C24.56813477 51.21925293 25.07376953 52.31350586 25.59472656 53.44091797 C29 60.86566902 29 60.86566902 29 62 C12.00593539 63.80266597 -4.92308623 64.55658425 -22 65 C-38.24548238 30.70848463 -38.24548238 30.70848463 -46.0625 13.875 C-46.82095215 12.25198975 -46.82095215 12.25198975 -47.59472656 10.59619141 C-48.04944336 9.61312012 -48.50416016 8.63004883 -48.97265625 7.6171875 C-49.36718994 6.76753418 -49.76172363 5.91788086 -50.16821289 5.04248047 C-51 3 -51 3 -51 1 C-33.98989199 0.12012648 -17.03141177 -0.12884564 0 0 Z " fill="#FCFDFE" transform="translate(402,302)"/>
<path d="M0 0 C16.83 0 33.66 0 51 0 C53.31 4.95 55.62 9.9 58 15 C59.26182553 17.69326867 60.52456496 20.38610981 61.7890625 23.078125 C62.42711342 24.43748588 63.06513338 25.79686129 63.703125 27.15625 C64.66798432 29.21173441 65.63304518 31.26712324 66.59863281 33.32226562 C68.45870414 37.28169385 70.31386478 41.24334565 72.16223145 45.20825195 C72.96097533 46.91653735 73.76692649 48.62144732 74.57324219 50.32617188 C75.03118164 51.30650391 75.48912109 52.28683594 75.9609375 53.296875 C76.35845215 54.14088867 76.7559668 54.98490234 77.16552734 55.85449219 C78 58 78 58 78 61 C71.73790698 61.28737066 65.47568916 61.57189522 59.21337891 61.85449219 C57.08541981 61.95085016 54.95748953 62.04784662 52.82958984 62.14550781 C49.76146782 62.28620784 46.69324767 62.42457029 43.625 62.5625 C42.68197021 62.60624756 41.73894043 62.64999512 40.76733398 62.69506836 C35.50496476 62.9291084 30.26757394 63.04317684 25 63 C24.63350342 62.10619629 24.26700684 61.21239258 23.8894043 60.29150391 C22.47527131 56.84396113 21.05954752 53.39707368 19.64312744 49.95046997 C19.00745066 48.4035834 18.37199232 46.85660704 17.73675537 45.30953979 C14.40856974 37.2070875 11.06777034 29.11148246 7.62109375 21.05859375 C7.11296143 19.86991699 6.6048291 18.68124023 6.08129883 17.45654297 C5.1263063 15.23084202 4.16666584 13.0071284 3.2019043 10.78564453 C2.7769165 9.7954834 2.35192871 8.80532227 1.9140625 7.78515625 C1.5423291 6.92801025 1.1705957 6.07086426 0.78759766 5.18774414 C0 3 0 3 0 0 Z " fill="#FBFDFE" transform="translate(70,240)"/>
<path d="M0 0 C17.49 0 34.98 0 53 0 C59.8125 15 59.8125 15 62.04248047 19.91235352 C65.15799205 26.77195529 68.28245851 33.62692137 71.4453125 40.46484375 C71.95473389 41.56763672 72.46415527 42.67042969 72.98901367 43.80664062 C73.93909415 45.86021084 74.89227744 47.912349 75.84887695 49.96289062 C76.47862427 51.32510742 76.47862427 51.32510742 77.12109375 52.71484375 C77.66914673 53.89228149 77.66914673 53.89228149 78.22827148 55.09350586 C79 57 79 57 79 59 C67.68852899 60.03628122 56.47284507 60.11933574 45.125 60.0625 C43.3580742 60.05747018 41.591147 60.05290992 39.82421875 60.04882812 C35.54944374 60.0379509 31.27473792 60.02076977 27 60 C21.68717344 49.54251372 16.59530665 39.00474354 11.7253418 28.33374023 C10.6758532 26.03701184 9.61837667 23.74406841 8.56054688 21.45117188 C7.87712157 19.95855421 7.19416165 18.46572334 6.51171875 16.97265625 C6.04761848 15.9692495 6.04761848 15.9692495 5.57414246 14.9455719 C3.32961648 10.00014873 1.74137166 5.22411498 0 0 Z " fill="#FBFCFE" transform="translate(132,240)"/>
<path d="M0 0 C17.16 0 34.32 0 52 0 C61.24223335 18.48446669 61.24223335 18.48446669 64.5 25.76953125 C65.04901978 26.99007454 65.04901978 26.99007454 65.60913086 28.23527527 C66.36341512 29.91525638 67.11595606 31.59602136 67.86669922 33.27758789 C69.02035409 35.85802704 70.1838042 38.43391216 71.34765625 41.00976562 C72.08652604 42.65859056 72.82482969 44.30766933 73.5625 45.95703125 C73.90925781 46.72255814 74.25601563 47.48808502 74.61328125 48.27680969 C77 53.65621179 77 53.65621179 77 57 C60.00513087 58.22643385 43.02727933 58.10250747 26 58 C23.56254576 52.73976294 21.12736016 47.47848325 18.6940918 42.21630859 C17.86948894 40.43380784 17.0443127 38.6515722 16.21850586 36.86962891 C12.06775014 27.91207098 7.93575684 18.9487496 3.97265625 9.90625 C3.53897987 8.91788147 3.53897987 8.91788147 3.09654236 7.9095459 C1.95810076 5.29311414 0.90296392 2.70889176 0 0 Z " fill="#FBFCFE" transform="translate(195,240)"/>
<path d="M0 0 C1.04729279 -0.00571014 2.09458557 -0.01142029 3.1736145 -0.01730347 C4.32741104 -0.01842133 5.48120758 -0.01953918 6.66996765 -0.02069092 C7.88142456 -0.02565582 9.09288147 -0.03062073 10.34104919 -0.03573608 C13.66968884 -0.04785806 16.99826554 -0.05530649 20.32691979 -0.05974674 C22.40643794 -0.06267677 24.48595056 -0.06678147 26.56546593 -0.07125092 C33.071479 -0.08492848 39.57747947 -0.0945935 46.08350593 -0.09845281 C53.59415243 -0.10293243 61.10461684 -0.12047464 68.61520797 -0.1494534 C74.41995311 -0.17107284 80.22464703 -0.18115725 86.029432 -0.18249393 C89.49657352 -0.1835419 92.96354394 -0.18944773 96.43064308 -0.20731354 C100.29954013 -0.22686139 104.16820988 -0.22250418 108.03715515 -0.21600342 C109.184879 -0.2252182 110.33260284 -0.23443298 111.5151062 -0.243927 C112.57085846 -0.23835785 113.62661072 -0.2327887 114.71435547 -0.22705078 C115.62894185 -0.22851734 116.54352823 -0.2299839 117.48582935 -0.2314949 C121.40251718 0.33714698 124.04910777 2.17632906 126.8601532 4.89044189 C128.60011748 8.18721631 128.49172307 10.46100578 128.0476532 14.14044189 C125.92850995 18.15167733 124.27404545 20.49582546 120.0476532 22.14044189 C117.6356678 22.3977108 117.6356678 22.3977108 114.89949036 22.40786743 C113.85930756 22.4163974 112.81912476 22.42492737 111.74742126 22.43371582 C110.61173706 22.43280945 109.47605286 22.43190308 108.30595398 22.43096924 C106.50537033 22.44104507 106.50537033 22.44104507 104.66841125 22.45132446 C101.3790545 22.46706753 98.0898493 22.47367951 94.80045938 22.47495604 C92.74403078 22.47637866 90.68762856 22.48065035 88.63120651 22.48595047 C81.45311048 22.50444834 74.27508868 22.51262141 67.0969696 22.51104736 C60.4122085 22.50984608 53.72777033 22.53094609 47.04309094 22.56253469 C41.29857497 22.58871047 35.5541644 22.59941412 29.80958927 22.59813654 C26.38096629 22.59762728 22.95263035 22.60329037 19.52406693 22.62449265 C15.69848518 22.64406885 11.87373639 22.63834643 8.04814148 22.62628174 C6.91650574 22.63752075 5.78487 22.64875977 4.61894226 22.66033936 C-1.54309366 22.6109111 -5.2810378 22.30582414 -9.9523468 18.14044189 C-12.54341964 14.72493679 -12.45522986 11.30718726 -11.9523468 7.14044189 C-8.82638734 1.93438301 -5.95865527 0.01940433 0 0 Z " fill="#FBFDFE" transform="translate(212.9523468017578,179.85955810546875)"/>
<path d="M0 0 C17.49 0 34.98 0 53 0 C62.23632912 18.47265824 62.23632912 18.47265824 65.5 25.5859375 C65.86601318 26.37980865 66.23202637 27.17367981 66.60913086 27.99160767 C67.36298761 29.62888271 68.11552556 31.26676567 68.86669922 32.90527344 C70.02223474 35.42345467 71.18478008 37.93832651 72.34765625 40.453125 C73.08635538 42.05970376 73.82465272 43.66646734 74.5625 45.2734375 C74.90925781 46.02225189 75.25601563 46.77106628 75.61328125 47.54257202 C78 52.77062626 78 52.77062626 78 55 C73.02368055 55.14536172 68.04728424 55.28761199 63.07080078 55.42724609 C61.38555631 55.47493867 59.70033375 55.5234133 58.01513672 55.57275391 C47.0059128 55.89443069 36.01428348 56.0687915 25 56 C19.91269997 45.11195608 14.83385938 34.21997822 9.78149414 23.31567383 C8.9577283 21.53961949 8.13249445 19.76424541 7.3059082 17.98950195 C6.09749781 15.39438336 4.89394066 12.79706436 3.69140625 10.19921875 C3.3196376 9.40351974 2.94786896 8.60782074 2.56483459 7.78800964 C0 2.22793031 0 2.22793031 0 0 Z " fill="#FBFCFE" transform="translate(258,240)"/>
<path d="M0 0 C16.83 0 33.66 0 51 0 C55.5478125 9.52875 55.5478125 9.52875 60.1875 19.25 C61.13391357 21.2290332 62.08032715 23.20806641 63.05541992 25.24707031 C67.26635787 34.07814642 71.40384477 42.8964626 75 52 C64.2672048 53.1162874 53.52878785 53.32212106 42.75 53.5625 C40.92577351 53.60579498 39.10155465 53.64941233 37.27734375 53.69335938 C32.85164153 53.79928691 28.42585929 53.90086126 24 54 C20.30859375 46.00195312 16.6171875 38.00390625 12.92578125 30.00585938 C12.52715881 29.14233856 12.12853638 28.27881775 11.71783447 27.38912964 C10.92449186 25.66989632 10.13164145 23.95043579 9.33929443 22.23074341 C7.59595525 18.44835696 5.84808368 14.66854118 4.07519531 10.89990234 C3.52702148 9.73023926 2.97884766 8.56057617 2.4140625 7.35546875 C1.94178223 6.35539795 1.46950195 5.35532715 0.98291016 4.32495117 C0 2 0 2 0 0 Z " fill="#FBFDFE" transform="translate(322,240)"/>
<path d="M0 0 C6.97400634 4.06052343 12.38050909 10.17050319 14.5625 18 C15.59403954 26.83183288 14.60474789 33.60285612 9.5625 41 C4.38246952 47.10977954 -1.8718297 51.34056039 -9.91015625 52.29296875 C-18.92813734 52.76225891 -25.63493532 49.80810063 -32.3125 43.8125 C-38.06533949 37.51565678 -40.17699589 30.09758625 -39.8203125 21.66796875 C-38.76817113 14.33518758 -35.00294151 7.8547033 -29.4375 3 C-20.76455036 -3.32069208 -9.84095143 -4.40371343 0 0 Z " fill="#1279F0" transform="translate(70.4375,166)"/>
<path d="M0 0 C2.25 0.9375 2.25 0.9375 4.25 2.9375 C3.90095729 9.33661635 3.90095729 9.33661635 1.625 11.4375 C-0.1300951 13.01300711 -0.1300951 13.01300711 0.25 16.3125 C1.42996676 20.58987951 3.08239539 21.92073371 6.25 24.9375 C8.84760663 29.77442268 9.83645532 33.46391705 9.25 38.9375 C7.84743787 43.30102664 6.12565142 46.18100736 3 49.4375 C0.50873753 52.20211795 0.26359237 52.67018332 0.0625 56.625 C1.47228984 60.55757165 3.02326039 61.40220459 6.25 63.9375 C8.92474193 68.69958955 9.92891364 73.50619088 9.25 78.9375 C7.65913508 83.14861302 5.7962416 87.05508688 2.25 89.9375 C-1.3125 90.3125 -1.3125 90.3125 -4.75 89.9375 C-6.75 86.9375 -6.75 86.9375 -6.5625 83.9375 C-5.75 80.9375 -5.75 80.9375 -4.125 79.5 C-2.3987635 77.8776164 -2.3987635 77.8776164 -2.6875 74.6875 C-3.87410826 70.49947083 -5.44045945 68.72995752 -8.3125 65.609375 C-11.66725943 61.70764392 -11.91277511 57.87394991 -11.625 52.9375 C-10.90577504 47.30216092 -8.82202604 43.67352182 -4.4375 40 C-2.3952216 37.93808623 -2.3952216 37.93808623 -2.6875 34.5 C-3.92534357 30.34958331 -5.53495657 28.76046496 -8.75 25.9375 C-11.82677005 21.32234492 -12.31541198 16.1415012 -11.3515625 10.6796875 C-9.61115346 5.29465718 -6.25880048 -0.14224547 0 0 Z " fill="#0B75F0" transform="translate(279.75,36.0625)"/>
<path d="M0 0 C0.86625 0.433125 1.7325 0.86625 2.625 1.3125 C3.375 4 3.375 4 3.625 7.3125 C2.965 8.116875 2.305 8.92125 1.625 9.75 C-0.70804431 12.22302878 -0.70804431 12.22302878 -0.5 15.75 C0.76835906 19.76647035 2.18038587 21.05331429 5.1875 23.79296875 C8.10865249 26.88081744 8.63141348 30.449384 8.6171875 34.58203125 C8.13106315 40.95448744 6.32774346 44.53235911 1.875 49.1875 C-0.69963938 52.15325133 -0.69963938 52.15325133 -0.5 55.875 C0.81248441 59.88536905 2.48651925 61.55676081 5.625 64.3125 C8.41870984 68.50306476 8.68407143 72.32834793 8.625 77.3125 C7.64225498 82.11976103 5.80577089 86.52531941 1.625 89.3125 C-2 89.75 -2 89.75 -5.375 89.3125 C-7.375 86.3125 -7.375 86.3125 -7 83.125 C-6.79375 82.196875 -6.5875 81.26875 -6.375 80.3125 C-4.89 79.8175 -4.89 79.8175 -3.375 79.3125 C-2.82325456 75.52910272 -2.55394235 73.43525863 -4.86328125 70.27734375 C-6.12901537 68.9172692 -7.40258924 67.56445171 -8.68359375 66.21875 C-11.78438915 62.72408914 -12.27533428 59.40882288 -12.6875 54.875 C-12.16915522 48.96586955 -10.17439716 45.03140681 -6.125 40.8125 C-3.66015093 38.07104692 -3.38957337 37.59425186 -3.1875 33.6875 C-4.57426643 29.74616383 -6.37691354 28.16782043 -9.375 25.3125 C-11.97260663 20.47557732 -12.96145532 16.78608295 -12.375 11.3125 C-10.49298224 5.24822054 -7.2475234 -1.47634736 0 0 Z " fill="#0B75F0" transform="translate(168.375,36.6875)"/>
<path d="M0 0 C0.86625 0.433125 1.7325 0.86625 2.625 1.3125 C3.375 4 3.375 4 3.625 7.3125 C2.965 8.116875 2.305 8.92125 1.625 9.75 C-0.70127546 12.21483604 -0.70127546 12.21483604 -0.5 15.6875 C0.58424294 19.18117169 1.16780216 20.12439415 3.5625 22.625 C7.34963879 26.71401217 8.49783 30.7763662 8.625 36.3125 C7.86445179 41.55088263 6.00536411 45.12901054 2.375 48.9375 C-0.12773594 51.63371428 -0.35969923 52.01668511 -0.5625 55.9375 C0.81726434 59.8589355 2.52917181 61.59421184 5.625 64.3125 C8.63618091 68.82927137 9.17850724 73.42042467 8.15625 78.76171875 C6.84737837 83.06534558 5.54770103 86.80632989 1.625 89.3125 C-2 89.75 -2 89.75 -5.375 89.3125 C-7.375 86.3125 -7.375 86.3125 -7.1875 83.375 C-6.375 80.3125 -6.375 80.3125 -4.75 78.3125 C-3.13344071 76.33851708 -3.13344071 76.33851708 -3.25 73.5625 C-4.64486519 69.53288944 -6.82680303 67.25717641 -9.78125 64.2421875 C-12.94746531 60.40858366 -12.69612351 56.12935271 -12.375 51.3125 C-11.34211741 46.96138042 -10.3217643 44.05638623 -6.75 41.25 C-4.06678899 39.41694496 -4.06678899 39.41694496 -3.25 35.875 C-3.0085607 32.18771888 -3.0085607 32.18771888 -5.625 29.6875 C-6.5325 28.90375 -7.44 28.12 -8.375 27.3125 C-12.03030113 21.96009477 -12.81452752 17.79553097 -12.375 11.3125 C-10.49298224 5.24822054 -7.2475234 -1.47634736 0 0 Z " fill="#0B75F0" transform="translate(112.375,36.6875)"/>
<path d="M0 0 C2.375 0.875 2.375 0.875 4.375 3.875 C4.03657761 9.28975827 4.03657761 9.28975827 1.75 11.3125 C0.01675741 12.94269971 0.01675741 12.94269971 0.3125 16.1875 C1.51497437 20.36079339 2.852908 21.54522748 5.9375 24.35546875 C8.85865249 27.44331744 9.38141348 31.011884 9.3671875 35.14453125 C8.88106315 41.51698744 7.07774346 45.09485911 2.625 49.75 C0.04389023 52.72418623 0.04389023 52.72418623 0.25 56.5 C1.59367174 60.53101523 3.0995996 61.30147111 6.375 63.875 C9.47594429 68.89054247 9.75545355 73.800891 8.9609375 79.5390625 C7.8646592 83.90955865 5.54477648 86.70522352 2.375 89.875 C-1.125 90.1875 -1.125 90.1875 -4.625 89.875 C-6.625 86.875 -6.625 86.875 -6.4375 83.875 C-5.625 80.875 -5.625 80.875 -4 79.4375 C-2.2737635 77.8151164 -2.2737635 77.8151164 -2.5625 74.625 C-3.74910826 70.43697083 -5.31545945 68.66745752 -8.1875 65.546875 C-11.54225943 61.64514392 -11.78777511 57.81144991 -11.5 52.875 C-10.78077504 47.23966092 -8.69702604 43.61102182 -4.3125 39.9375 C-2.2702216 37.87558623 -2.2702216 37.87558623 -2.5625 34.4375 C-3.81040947 30.25333295 -5.50317043 28.84817102 -8.625 25.875 C-12.02107089 20.10167948 -12.18072639 15.24506885 -10.625 8.875 C-8.22478901 4.32287571 -5.59735994 -0.26654095 0 0 Z " fill="#0B75F0" transform="translate(223.625,36.125)"/>
<path d="M0 0 C5.01791684 2.41935276 8.49958655 5.9991731 11 11 C11.72218508 18.13897709 11.44960235 23.26235486 7 29 C1.90808961 32.94882847 -2.23240143 34.43941529 -8.5859375 34.3359375 C-13.57163223 33.64213532 -17.29525039 31.16575233 -20.38671875 27.23828125 C-23.35682391 22.10052039 -23.96748183 16.82443609 -23 11 C-17.91378553 0.82757105 -10.58205009 -0.99726127 0 0 Z " fill="#C6DCF6" transform="translate(64,174)"/>
<path d="M0 0 C5.19275739 0.96162174 8.30881096 4.43185843 11.375 8.625 C12.1953125 11.25 12.1953125 11.25 12.375 13.625 C10.9375 15.9375 10.9375 15.9375 9.375 17.625 C4.57619324 17.52706517 2.02584043 16.77344525 -1.5625 13.5 C-4.15999159 10.67537349 -4.60249272 9.77754935 -5.1875 5.8125 C-4.49471674 1.88672818 -3.89195417 0.92665575 0 0 Z " fill="#0B74F0" transform="translate(334.625,47.375)"/>
<path d="M0 0 C4.59108595 1.58922206 7.36756257 4.25271455 10.25 8.125 C11.3125 11.375 11.3125 11.375 11.25 14.125 C9.25 17.125 9.25 17.125 6.625 17.75 C1.55711584 16.81150293 -1.5191182 14.06790078 -4.75 10.125 C-5.9375 6.375 -5.9375 6.375 -5.75 3.125 C-4.21079799 0.22767857 -3.25032121 0.14774187 0 0 Z " fill="#0B75F0" transform="translate(464.75,176.875)"/>
<path d="M0 0 C2.9375 0.375 2.9375 0.375 4.9375 2.375 C5.18973659 4.90616486 5.30773663 7.28076643 5.3125 9.8125 C5.34923828 10.8344043 5.34923828 10.8344043 5.38671875 11.87695312 C5.40594873 15.14925455 5.35062069 16.9185326 3.11328125 19.390625 C0.9375 20.375 0.9375 20.375 -2.25 19.6875 C-5.0625 18.375 -5.0625 18.375 -6.0625 16.375 C-6.2106544 14.42050156 -6.28374849 12.4598947 -6.3125 10.5 C-6.33828125 9.45070313 -6.3640625 8.40140625 -6.390625 7.3203125 C-5.88171103 2.75220378 -4.66227079 0.5708903 0 0 Z " fill="#0B75F0" transform="translate(403.0625,19.625)"/>
<path d="M0 0 C1.4540625 0.5259375 1.4540625 0.5259375 2.9375 1.0625 C3.96403127 3.90055705 4.40645165 5.14867685 3.9375 8.0625 C1.44981268 11.74519647 -1.38477645 14.56854371 -5.0625 17.0625 C-8.02036741 17.59535111 -9.16851441 17.1477446 -12.0625 16.0625 C-13.0625 15.0625 -13.0625 15.0625 -13.37890625 12.30859375 C-12.88588179 7.25052799 -10.09746783 5.16342684 -6.53125 1.7890625 C-3.95961495 -0.00945442 -3.04111633 -0.46115289 0 0 Z " fill="#0B75F0" transform="translate(472.0625,47.9375)"/>
<path d="M0 0 C0.68964844 -0.01224609 1.37929688 -0.02449219 2.08984375 -0.03710938 C3.89477494 -0.04238695 5.69917842 0.06565542 7.5 0.1875 C9.5 2.1875 9.5 2.1875 9.75 5.1875 C9.5 8.1875 9.5 8.1875 7.5 10.1875 C4.7877875 10.41254349 2.21126815 10.51184995 -0.5 10.5 C-1.23734375 10.51611328 -1.9746875 10.53222656 -2.734375 10.54882812 C-4.875 10.55078125 -4.875 10.55078125 -8.5 10.1875 C-10.5 7.1875 -10.5 7.1875 -10.25 4.0625 C-9.87875 2.639375 -9.87875 2.639375 -9.5 1.1875 C-6.46576019 -0.3296199 -3.32495206 0.00310743 0 0 Z " fill="#0B74F0" transform="translate(494.5,115.8125)"/>
<path d="M0 0 C1.0219043 0.03673828 1.0219043 0.03673828 2.06445312 0.07421875 C2.74958984 0.07550781 3.43472656 0.07679687 4.140625 0.078125 C9.22059386 0.16785948 9.22059386 0.16785948 11.50195312 2.44921875 C11.75195312 5.44921875 11.75195312 5.44921875 11.50195312 8.44921875 C9.50195312 10.44921875 9.50195312 10.44921875 6.09570312 10.6796875 C4.73105046 10.67569729 3.36639653 10.66094718 2.00195312 10.63671875 C1.31230469 10.63607422 0.62265625 10.63542969 -0.08789062 10.63476562 C-5.21693638 10.589774 -5.21693638 10.589774 -7.49804688 9.44921875 C-8.51365441 6.55864345 -8.81058205 5.1091488 -7.48242188 2.3046875 C-5.03366834 0.01500653 -3.28581504 -0.01930939 0 0 Z " fill="#0B74F0" transform="translate(309.498046875,115.55078125)"/>
</svg>
