<?xml version="1.0" encoding="UTF-8"?>
<svg version="1.1" xmlns="http://www.w3.org/2000/svg" width="512" height="512">
<path d="M0 0 C1.19012192 -0.00852997 2.38024384 -0.01705994 3.60643005 -0.02584839 C5.55232025 -0.02448883 5.55232025 -0.02448883 7.53752136 -0.02310181 C8.92427939 -0.02908944 10.31103409 -0.03589553 11.69778442 -0.04345703 C15.45825403 -0.06110158 19.21863257 -0.06581179 22.97913957 -0.0670886 C25.3309074 -0.06851177 27.68265219 -0.07278453 30.03441429 -0.07808304 C38.24575135 -0.09657903 46.45702354 -0.1047543 54.66838074 -0.10317993 C62.31138488 -0.10197902 69.9541064 -0.12307241 77.59703904 -0.15466726 C84.16792461 -0.18085823 90.73871803 -0.19154603 97.30965537 -0.19026911 C101.23015673 -0.18976025 105.15040692 -0.1954008 109.07085609 -0.21662521 C112.76049191 -0.23605513 116.44963821 -0.23610013 120.13929176 -0.22159195 C122.12967436 -0.21851929 124.12005725 -0.23514747 126.11036682 -0.25247192 C134.33505102 -0.19490663 139.94346912 0.65860019 146.30387878 6.23226929 C146.84270691 6.88324585 147.38153503 7.53422241 147.93669128 8.20492554 C148.49098816 8.85332397 149.04528503 9.50172241 149.61637878 10.16976929 C152.9409212 14.99484842 153.32953516 19.33870065 153.18669128 25.07992554 C153.17766785 25.77279663 153.16864441 26.46566772 153.15934753 27.17953491 C153.13595285 28.87564949 153.10008769 30.57158424 153.06169128 32.26742554 C154.02881042 32.24647827 154.99592957 32.22553101 155.99235535 32.20394897 C159.63770789 32.13063705 163.28299775 32.08530088 166.92887878 32.04769897 C168.49604814 32.02778822 170.06314526 32.00064918 171.63005066 31.96566772 C188.23814999 31.60462209 200.34701828 35.01532739 212.81169128 46.57992554 C223.67745049 58.06072772 225.52461014 70.69273469 225.35466003 85.90023804 C225.34905269 87.38809783 225.34478798 88.87596322 225.34179688 90.36383057 C225.33043753 94.246956 225.3010493 98.12973546 225.26768494 102.01272583 C225.23678982 105.98820315 225.22325034 109.96373732 225.20817566 113.93930054 C225.17616921 121.71549855 225.12508347 129.49141325 225.06169128 137.26742554 C226.00534042 137.1057489 226.94898956 136.94407227 227.92123413 136.77749634 C252.27366078 132.82219265 278.15486262 139.60541598 298.27262878 153.48226929 C319.57884394 168.93098799 332.15624491 191.50443916 336.6537323 217.2605896 C340.11769805 242.79153045 335.00456068 267.42626115 320.15544128 288.52914429 C304.72751787 308.70633517 283.29294013 323.87236889 257.82194519 327.96713257 C232.06532342 330.76924161 232.06532342 330.76924161 225.06169128 327.26742554 C225.08263855 328.5071814 225.10358582 329.74693726 225.12516785 331.02426147 C225.19821624 335.67599689 225.24372424 340.32768287 225.28141785 344.97982788 C225.30138689 346.98349568 225.32857192 348.98710632 225.3634491 350.99057007 C225.67229309 369.20328202 223.55096561 382.2192867 210.74919128 396.01742554 C200.93900619 405.30206501 190.25116128 408.52673308 177.06169128 408.26742554 C177.08787537 408.82091675 177.11405945 409.37440796 177.14103699 409.94467163 C178.0369776 431.74211287 178.0369776 431.74211287 170.19450378 440.30648804 C165.12240834 445.10228256 160.20408811 448.26742554 153.06169128 448.26742554 C153.148703 449.3927771 153.148703 449.3927771 153.23747253 450.54086304 C153.62531046 459.3392434 152.18479864 465.69577931 146.19450378 472.33773804 C137.98151334 479.97549958 130.23932032 480.80285175 119.41105652 480.7684021 C117.2639284 480.76743219 115.12041213 480.80906749 112.97380066 480.85336304 C103.68043632 480.93510882 96.00296786 479.8507371 88.93180847 473.2918396 C81.28436855 465.25603698 81.06169128 459.80760726 81.06169128 448.26742554 C70.50169128 448.26742554 59.94169128 448.26742554 49.06169128 448.26742554 C49.06169128 452.22742554 49.06169128 456.18742554 49.06169128 460.26742554 C45.79577723 468.94250974 41.27051524 474.7099597 32.87882996 478.83016968 C27.27903263 481.17824796 21.38113058 480.78739563 15.41105652 480.7684021 C13.2639284 480.76743219 11.12041213 480.80906749 8.97380066 480.85336304 C-0.31956368 480.93510882 -7.99703214 479.8507371 -15.06819153 473.2918396 C-20.66998978 467.40556321 -23.08751559 461.99593483 -23.12580872 453.82992554 C-23.07802137 451.97532136 -23.02047912 450.12082466 -22.93830872 448.26742554 C-23.90768372 448.22617554 -24.87705872 448.18492554 -25.87580872 448.14242554 C-32.77877081 447.12235219 -38.19970815 442.58292822 -42.37580872 437.20492554 C-46.9245639 430.86777087 -47.20295707 425.55501878 -47.06330872 417.95492554 C-47.05428528 417.02357788 -47.04526184 416.09223022 -47.03596497 415.13265991 C-47.01249135 412.84398194 -46.979656 410.55583882 -46.93830872 408.26742554 C-47.59057434 408.28555298 -48.24283997 408.30368042 -48.91487122 408.32235718 C-62.62160111 408.54347423 -72.75476739 403.17116519 -82.68830872 393.95492554 C-92.57223583 383.51153085 -95.40050561 371.76665333 -95.32598877 357.75646973 C-95.33137431 356.53132656 -95.33675985 355.30618339 -95.34230858 354.04391468 C-95.35408112 350.66903061 -95.35254491 347.29464453 -95.34514177 343.91978097 C-95.34039164 340.27004512 -95.3529362 336.62036107 -95.36315918 332.97064209 C-95.38031668 325.83046968 -95.38119352 318.6903854 -95.37594628 311.55019774 C-95.37189755 305.74389387 -95.37335646 299.93761596 -95.37869453 294.13131332 C-95.37944296 293.30352453 -95.38019138 292.47573573 -95.38096248 291.62286242 C-95.38249403 289.94096653 -95.38403238 288.25907065 -95.38557745 286.57717477 C-95.39929152 270.82020517 -95.39387255 255.06328529 -95.38239224 239.30631684 C-95.3724616 224.90758897 -95.38539952 210.50898964 -95.40932643 196.1102816 C-95.43373973 181.30673126 -95.44331978 166.50324073 -95.4366737 151.69967067 C-95.43318636 143.39617924 -95.43538141 135.09278662 -95.45292473 126.78931046 C-95.46767467 119.72060734 -95.46824583 112.65207263 -95.45085382 105.58337273 C-95.44236419 101.98078711 -95.4401438 98.37850195 -95.45550537 94.77593231 C-95.47199039 90.86125209 -95.45715322 86.94703125 -95.43951416 83.03234863 C-95.44911917 81.90683944 -95.45872417 80.78133024 -95.46862024 79.62171471 C-95.33831478 65.51153711 -90.12656396 54.75762636 -80.62580872 44.51742554 C-68.4873184 33.02921149 -55.23027505 31.81635569 -39.31330872 32.07992554 C-37.72087349 32.09500357 -36.12842442 32.10868645 -34.53596497 32.12094116 C-30.66973201 32.15369105 -26.80417662 32.20529893 -22.93830872 32.26742554 C-22.95571106 31.23682007 -22.9731134 30.2062146 -22.99104309 29.14437866 C-23.00511763 27.77914838 -23.01876711 26.41391367 -23.03205872 25.04867554 C-23.04462708 24.37095093 -23.05719543 23.69322632 -23.07014465 22.9949646 C-23.12007918 16.1539341 -21.73530956 12.19872914 -17.06721497 7.30648804 C-11.72392621 2.35712794 -7.40658364 0.02405114 0 0 Z " fill="#21257C" transform="translate(134.9383087158203,15.732574462890625)"/>
<path d="M0 0 C0.9577057 -0.00382555 1.91541139 -0.00765109 2.90213847 -0.01159257 C6.10780897 -0.02190236 9.31329967 -0.01793418 12.51898193 -0.01396179 C14.81888494 -0.01830944 17.11878651 -0.02349277 19.41868591 -0.02944946 C25.66468693 -0.04284666 31.91062746 -0.04341719 38.15664005 -0.04088616 C43.37270748 -0.03981669 48.58876265 -0.04469936 53.80482745 -0.04949158 C66.81718147 -0.06122442 79.82950104 -0.06036033 92.84185728 -0.05393478 C104.12854313 -0.04876915 115.41514258 -0.06001219 126.70181134 -0.07903299 C138.30276631 -0.09843284 149.90367674 -0.10637237 161.50464797 -0.10290974 C168.01289748 -0.10109783 174.52106791 -0.10372385 181.0293045 -0.11762428 C187.15246128 -0.13021251 193.27544546 -0.1282489 199.39859962 -0.11521339 C201.64230979 -0.11285005 203.88603213 -0.11557359 206.12972832 -0.12383652 C209.20020994 -0.13432622 212.27011486 -0.12618509 215.34057617 -0.11352539 C216.22172789 -0.12089968 217.10287961 -0.12827396 218.01073289 -0.13587171 C227.86376164 -0.05081472 236.97183895 2.65012703 244.42425537 9.26069641 C250.50130832 16.39311543 253.68604468 22.7922157 253.65130615 32.27583313 C253.65159821 32.94970566 253.65189026 33.62357819 253.65219116 34.31787109 C253.65080772 36.52551045 253.63529371 38.73280417 253.61956787 40.94038391 C253.61583422 42.47880367 253.61298891 44.01722581 253.61099243 45.5556488 C253.60338366 49.58998771 253.58375909 53.62418089 253.56158447 57.65846252 C253.54106645 61.78106211 253.53197801 65.9036854 253.52191162 70.02632141 C253.50051039 78.10451302 253.46640802 86.18258655 253.42425537 94.26069641 C252.34176514 94.72250305 251.2592749 95.18430969 250.14398193 95.66011047 C248.70084803 96.28194866 247.25781977 96.90403204 245.81488037 97.52632141 C245.10412354 97.8287677 244.3933667 98.13121399 243.66107178 98.44282532 C221.07326079 108.21963903 205.55287651 126.76225656 196.42425537 149.26069641 C194.70411266 154.16664426 193.52055809 159.18308382 192.42425537 164.26069641 C192.1999585 165.16819641 191.97566162 166.07569641 191.74456787 167.01069641 C190.48549832 172.66788563 190.22564392 178.23743734 190.17425537 184.01069641 C190.16023682 185.04577332 190.16023682 185.04577332 190.14593506 186.10176086 C190.17583304 191.14934426 190.74984512 196.07948188 191.44085693 201.07417297 C191.58214523 202.11337387 191.58214523 202.11337387 191.72628784 203.17356873 C191.957131 204.86952567 192.19044271 206.5651463 192.42425537 208.26069641 C191.4739573 208.26216297 190.52365923 208.26362953 189.54456425 208.26514053 C166.40842109 208.30175576 143.27242247 208.36123196 120.13639927 208.44459915 C108.94792507 208.48438736 97.75952118 208.516781 86.57098389 208.5316925 C76.8176358 208.5447101 67.06444243 208.57167767 57.31118149 208.61530948 C52.14816453 208.6379217 46.9853384 208.65360722 41.82226753 208.65258026 C36.9589657 208.65183352 32.09608567 208.66979027 27.23289299 208.70186424 C25.45159199 208.71035724 23.67024366 208.71211725 21.88893127 208.7064991 C9.11313186 208.54939766 9.11313186 208.54939766 -2.57574463 213.26069641 C-3.38527588 213.72991516 -4.19480713 214.19913391 -5.02886963 214.68257141 C-11.72410463 219.63122337 -15.26077104 225.28620478 -17.57574463 233.26069641 C-17.89474827 236.56771006 -17.89474827 236.56771006 -17.88214111 240.08540344 C-17.89046463 240.74000046 -17.89878815 241.39459747 -17.90736389 242.06903076 C-17.93132448 244.21891865 -17.94022092 246.36850192 -17.94683838 248.51850891 C-17.955819 250.02818382 -17.96494107 251.53785789 -17.97419739 253.04753113 C-17.99065477 256.20975395 -17.99838089 259.37187135 -18.00128174 262.53413391 C-18.00664622 266.55537027 -18.04425853 270.57559286 -18.0900259 274.59654427 C-18.12000985 277.71614547 -18.12700995 280.8355095 -18.12800789 283.95524216 C-18.13217213 285.43581127 -18.1444509 286.91638365 -18.16552544 288.39680862 C-18.30685757 299.18828389 -16.90214587 308.81753727 -10.26324463 317.69819641 C-2.88382393 324.73438824 4.64822777 327.56675908 14.84762573 327.53485107 C15.68141373 327.54008775 16.51520172 327.54532443 17.37425601 327.5507198 C20.16066539 327.56568915 22.94689062 327.56642428 25.7333374 327.5670929 C27.73443409 327.57471658 29.73552785 327.58314444 31.73661804 327.59231567 C37.16871908 327.61425029 42.60076383 327.62305851 48.03290415 327.62814212 C51.42979885 327.63178773 54.82667886 327.63802894 58.22356796 327.64514351 C70.08343909 327.669637 81.9432665 327.68268913 93.80316162 327.68623352 C104.8424048 327.68986593 115.88136947 327.71974059 126.92052758 327.7616381 C136.40951457 327.79638412 145.89840948 327.81178273 155.38745964 327.81247956 C161.04966364 327.81327107 166.71158404 327.82195169 172.37372208 327.85047722 C177.70411786 327.87673067 183.03399641 327.8788223 188.36442757 327.86282158 C190.31382313 327.86101273 192.26324893 327.86764648 194.21257973 327.88364029 C206.68598807 327.97968881 215.90874391 326.85350897 226.79925537 320.19819641 C233.40426464 312.80687652 236.5234498 304.06048603 236.74066162 294.31147766 C236.77183327 293.15255257 236.77183327 293.15255257 236.80363464 291.97021484 C236.86896575 289.50463161 236.92793852 287.03894281 236.98675537 284.57319641 C237.02995624 282.9006595 237.07357103 281.22813322 237.11761475 279.55561829 C237.22540861 275.45741759 237.32460372 271.35913557 237.42425537 267.26069641 C242.70425537 269.57069641 247.98425537 271.88069641 253.42425537 274.26069641 C253.5489131 280.30717153 253.63908981 286.35288007 253.69891357 292.40034485 C253.72388167 294.45256093 253.75786857 296.50468971 253.80145264 298.55659485 C254.35099956 325.11587446 254.35099956 325.11587446 244.36175537 335.72944641 C235.59230088 342.66014431 226.75098811 344.41009317 215.96203613 344.40786743 C215.0044793 344.41154412 214.04692246 344.41522081 213.06034875 344.41900891 C209.84928875 344.43002869 206.63826113 344.43388668 203.42718506 344.43769836 C201.12580767 344.44396421 198.8244313 344.45061112 196.52305603 344.45761108 C188.96408796 344.47863627 181.40511971 344.4890108 173.84613037 344.49897766 C171.24326822 344.50302554 168.64040618 344.50714247 166.03754425 344.51132774 C155.21147298 344.52819282 144.38540463 344.54282834 133.55932236 344.55007648 C130.7524185 344.55198625 127.94551466 344.5539066 125.13861084 344.55586243 C124.44100467 344.55634617 123.7433985 344.55682991 123.02465275 344.55732831 C111.72427851 344.56562842 100.42401013 344.59096755 89.12368211 344.6234431 C77.51259891 344.65653886 65.90157494 344.67419482 54.29044461 344.67772073 C47.77490616 344.68007171 41.25953519 344.68903911 34.74404144 344.7141819 C28.61431152 344.73745456 22.48485947 344.74169887 16.35509682 344.73142052 C14.10773355 344.73092489 11.86035663 344.73725327 9.6130352 344.75097656 C6.53982762 344.76869047 3.46761788 344.76159124 0.39440918 344.7484436 C-0.93271084 344.76489747 -0.93271084 344.76489747 -2.28664136 344.78168374 C-11.5505215 344.68630442 -19.9821511 340.78488369 -26.57574463 334.26069641 C-33.20651055 325.23344525 -34.87372279 317.48945033 -34.84317017 306.47631836 C-34.84770128 305.28106106 -34.85223239 304.08580376 -34.85690081 302.85432655 C-34.86736085 299.5445249 -34.86887242 296.2349408 -34.86651206 292.92513812 C-34.86610346 289.35242513 -34.87714718 285.77974441 -34.8866272 282.20704651 C-34.90322864 275.21039555 -34.90873635 268.21377829 -34.90985195 261.21710929 C-34.91080282 255.52891853 -34.91491506 249.84073889 -34.9212532 244.15255165 C-34.93886319 228.01969005 -34.94809244 211.88685504 -34.94659226 195.75398376 C-34.94651234 194.88455098 -34.94643243 194.01511821 -34.9463501 193.11933899 C-34.94626834 192.24884266 -34.94618657 191.37834634 -34.94610234 190.48147134 C-34.94528948 176.37469299 -34.96442769 162.26802144 -34.99262683 148.16127398 C-35.02136393 133.67088394 -35.03516667 119.18054597 -35.03343928 104.69012672 C-35.03277567 96.55713218 -35.03825527 88.42424959 -35.05979538 80.29128075 C-35.07801806 73.36659773 -35.08234564 66.44207742 -35.06877653 59.5173808 C-35.06225232 55.98607054 -35.06210946 52.45507234 -35.07948303 48.92379189 C-35.09814536 45.09105909 -35.08564486 41.25878045 -35.07022095 37.42602539 C-35.08050807 36.31628583 -35.0907952 35.20654627 -35.10139406 34.06317824 C-35.01122264 23.91766709 -31.61489242 15.64170127 -24.57574463 8.26069641 C-16.78588859 1.95329053 -9.88016296 -0.04195191 0 0 Z " fill="#E5F2FE" transform="translate(90.57574462890625,63.73930358886719)"/>
<path d="M0 0 C1.33958216 1.11755197 2.67370002 2.24171665 4 3.375 C5.010625 4.138125 6.02125 4.90125 7.0625 5.6875 C21.61247466 18.99917895 31.17113767 38.56285708 32.203125 58.25 C32.65384309 81.87276246 25.69635044 103.68397261 9.359375 121.03515625 C-6.86357358 137.12380889 -26.41136564 143.67388838 -48.9375 143.9375 C-69.99520757 143.81631057 -87.05486807 137.47921972 -103 123.375 C-103.61230469 122.85679687 -104.22460938 122.33859375 -104.85546875 121.8046875 C-119.54908238 108.42240324 -127.22094306 86.54321853 -128.28125 67.1484375 C-128.93655194 47.06309287 -122.72028577 28.89374864 -110 13.375 C-109.18789063 12.31925781 -109.18789063 12.31925781 -108.359375 11.2421875 C-82.43234177 -20.85195558 -32.02468677 -24.51140751 0 0 Z " fill="#4AA4FE" transform="translate(424,183.625)"/>
<path d="M0 0 C0.7775838 -0.00085442 1.5551676 -0.00170885 2.35631454 -0.00258917 C4.97583715 -0.00424332 7.59529647 0.00127635 10.21481323 0.00672913 C12.0870056 0.00701104 13.95919808 0.00685319 15.83139038 0.00628662 C20.92616041 0.0059988 26.02090706 0.01189303 31.11567163 0.01886058 C36.43549132 0.02509669 41.7553115 0.02569812 47.07513428 0.02688599 C57.15445715 0.02999854 67.23376923 0.03821091 77.31308734 0.04823548 C88.78570722 0.05939896 100.2583276 0.06490766 111.73095155 0.06993091 C135.33609243 0.08039358 158.94122371 0.09799156 182.5463562 0.12025452 C183.07019897 1.06127014 183.59404175 2.00228577 184.13375854 2.97181702 C184.84135633 4.22976864 185.54921539 5.48757331 186.2572937 6.74525452 C186.60010376 7.36271545 186.94291382 7.98017639 187.29611206 8.61634827 C191.33693255 15.76657777 196.23993227 22.43406184 202.64523315 27.63783264 C206.02311281 31.02641608 206.2542242 33.84265689 206.30308533 38.50709534 C206.2707505 39.90889038 206.2707505 39.90889038 206.23776245 41.33900452 C206.23638779 42.31510681 206.23501312 43.29120911 206.2335968 44.29689026 C206.22455976 46.35449711 206.20099107 48.41208527 206.16378784 50.46937561 C206.10903051 53.61025598 206.10225908 56.74847783 206.10299683 59.88978577 C206.08824792 61.89371484 206.07076146 63.89762602 206.05026245 65.90150452 C206.04692398 66.83603455 206.04358551 67.77056458 206.04014587 68.7334137 C205.91169197 74.64695678 205.1976714 79.21347405 201.0463562 83.76478577 C195.80270159 87.84773558 192.04638898 88.26897166 185.5952301 88.26742554 C184.7761062 88.27110223 183.95698229 88.27477891 183.11303645 88.27856702 C180.35862568 88.28961107 177.60425261 88.2934489 174.849823 88.29725647 C172.87884399 88.3035205 170.90786617 88.31016724 168.93688965 88.31716919 C163.57526929 88.33458268 158.21365784 88.34513159 152.85201621 88.35337472 C149.50359997 88.35852343 146.15518651 88.36459917 142.80677223 88.37088585 C132.33415221 88.38993766 121.86153925 88.40416964 111.38890523 88.41249782 C99.29265433 88.42227558 87.19658616 88.4486093 75.10039967 88.48899871 C65.75509823 88.51913425 56.40984925 88.5339642 47.06450015 88.53727883 C41.48072477 88.53963194 35.8971446 88.5486266 30.31342125 88.57374001 C25.06112284 88.5969813 19.80914874 88.60126979 14.55681229 88.59097862 C12.62908793 88.59048222 10.70134783 88.59683339 8.7736721 88.61053467 C6.14153554 88.62819636 3.51057013 88.62117596 0.87843323 88.60800171 C0.11587603 88.61897096 -0.64668117 88.6299402 -1.43234617 88.64124185 C-6.58725407 88.57896354 -9.47342729 87.35092453 -13.4536438 84.12025452 C-17.71359205 79.39977131 -18.5760103 76.17938011 -18.63064575 69.90809631 C-18.64348099 68.62634018 -18.65631622 67.34458405 -18.66954041 66.02398682 C-18.67770825 64.62248624 -18.6851519 63.22098128 -18.69192505 61.81947327 C-18.69600058 61.11259684 -18.7000761 60.40572041 -18.70427513 59.67742348 C-18.72511782 55.93579528 -18.73942719 52.19420356 -18.74880981 48.45252991 C-18.75986969 44.59557576 -18.79426902 40.73919925 -18.83398151 36.88244915 C-18.86017385 33.90979976 -18.86850392 30.93728748 -18.87209129 27.96453285 C-18.87695067 26.54320691 -18.8885463 25.12188682 -18.90712929 23.70067406 C-18.93157126 21.70745709 -18.92813097 19.71395802 -18.9236145 17.72059631 C-18.93241386 16.02207771 -18.93241386 16.02207771 -18.94139099 14.28924561 C-18.16175629 9.22380299 -15.60612253 6.1355334 -11.8286438 2.80775452 C-7.79630626 -0.05732742 -4.81183227 -0.01910971 0 0 Z " fill="#4AA5FE" transform="translate(106.45364379882813,287.87974548339844)"/>
<path d="M0 0 C5.5637643 2.54136053 10.37111731 6.05861731 14.6875 10.375 C15.2491347 13.88521689 15.34500669 16.32823321 13.4140625 19.40234375 C12.33682947 20.77121792 11.25069608 22.13312986 10.15625 23.48828125 C5.7109021 29.19866167 5.96066936 36.46102352 6.6875 43.375 C8.39352469 49.27823317 11.61791042 52.89586989 16.6875 56.375 C23.08781027 59.87705656 28.507756 60.45626896 35.49609375 58.6484375 C39.86212225 57.19111998 43.55000789 55.79569261 46.9375 52.625 C49.6875 50.375 49.6875 50.375 53.25 49.75 C57.53945335 50.52990061 59.20643954 51.9930783 61.6875 55.375 C62.244375 56.13039062 62.80125 56.88578125 63.375 57.6640625 C69.51689548 66.63864254 74.41882987 77.34033412 74.6875 88.375 C74.72617187 89.51839844 74.76484375 90.66179687 74.8046875 91.83984375 C75.16523967 111.89055027 68.75205396 129.36654199 54.96875 144.18359375 C46.87719384 151.95647561 38.02539228 157.15267245 27.6875 161.375 C26.94628906 161.69210938 26.20507812 162.00921875 25.44140625 162.3359375 C16.01056563 166.16899546 6.78509168 166.65988503 -3.3125 166.375 C-0.64839838 164.59893226 0.89311736 163.94831627 3.875 163.125 C12.40684634 160.31336882 17.08420136 155.57859788 21.4609375 147.83984375 C21.86570312 147.02644531 22.27046875 146.21304688 22.6875 145.375 C23.24824219 144.28058594 23.24824219 144.28058594 23.8203125 143.1640625 C26.65986691 134.03144157 26.14612518 121.96102877 21.9375 113.4375 C16.7258244 104.50131886 10.2576555 98.87104665 0.296875 95.8828125 C-10.55596912 93.77073206 -20.28327286 95.2820323 -29.78125 100.8125 C-37.11325818 105.89602567 -40.44219835 112.69924587 -43.6875 120.8125 C-45.78027074 132.74129324 -43.56739602 143.02252511 -37.0625 153.3125 C-31.20623054 160.64193041 -23.21641264 163.47771768 -14.3125 165.375 C-14.3125 165.705 -14.3125 166.035 -14.3125 166.375 C-23.26512783 166.70346983 -31.35695695 165.96422488 -40.0625 163.875 C-41.18922119 163.60800293 -42.31594238 163.34100586 -43.47680664 163.06591797 C-63.57069395 158.03921654 -82.9277966 147.69267427 -94.125 129.625 C-101.08505418 116.77317902 -103.78851059 102.57375104 -100.453125 88.171875 C-97.3497442 77.84144303 -90.89024992 67.75469333 -81.75 61.75 C-77.61630659 60.09652264 -75.54445688 60.01757987 -71.3125 61.375 C-68.65131978 63.83147405 -67.48576921 65.36013747 -66.875 68.9375 C-67.39444816 71.83156833 -68.28284947 73.26728599 -70.3125 75.375 C-70.9725 75.375 -71.6325 75.375 -72.3125 75.375 C-71.83699439 76.85534764 -71.35698784 78.33425021 -70.875 79.8125 C-70.60816406 80.63621094 -70.34132812 81.45992188 -70.06640625 82.30859375 C-69.49094506 84.33719588 -69.49094506 84.33719588 -68.3125 85.375 C-61.86729611 85.93062103 -58.59355323 85.13267249 -53.3125 81.375 C-43.1649492 71.2274492 -43.77610151 53.2450389 -42.86157227 39.9206543 C-41.98329795 27.39801519 -39.23623529 15.693959 -30.3125 6.375 C-21.15174499 -1.56313974 -11.9155918 -4.43370858 0 0 Z " fill="#4BA5FF" transform="translate(213.3125,81.625)"/>
<path d="M0 0 C63.36 0 126.72 0 192 0 C192 16.5 192 16.5 187.5 21.75 C184.0906777 24.59110192 180.26324153 24.13794908 176.04266357 24.16062927 C174.97429461 24.168261 174.97429461 24.168261 173.88434243 24.17604691 C171.49158179 24.19177513 169.09885135 24.2002974 166.70605469 24.20874023 C164.99285185 24.21827834 163.27965094 24.22816948 161.56645203 24.23838806 C155.93494962 24.269776 150.30343241 24.29003908 144.671875 24.30859375 C143.71383878 24.31189107 142.75580256 24.31518839 141.76873493 24.31858563 C132.73410053 24.34936462 123.69946279 24.37607269 114.66479111 24.39300442 C103.10789532 24.41491694 91.55146377 24.45690252 79.9947536 24.52644199 C71.86896351 24.57367726 63.7432987 24.59793728 55.61737561 24.6052013 C50.76392656 24.61015796 45.91100076 24.62524019 41.05770111 24.6649456 C36.49060916 24.70181743 31.92433919 24.71022002 27.35712624 24.69693947 C25.68297092 24.69699341 24.00877913 24.70728593 22.33476067 24.7286911 C8.11444177 24.90076976 8.11444177 24.90076976 3.51177979 21.14393616 C-2.23539146 15.04946173 0 8.89608157 0 0 Z " fill="#49A4FE" transform="translate(104,424)"/>
<path d="M0 0 C4.1638373 0.8674661 5.48563882 2.20267505 8 5.625 C8.64457161 7.89537008 9.0669405 10.14994148 9.48046875 12.47265625 C10.41659508 16.35089392 12.65725886 18.65267021 15.8125 20.9375 C20.20891078 22.3192291 23.87717634 22.0212907 28.1875 20.5 C32.15375052 17.85583298 34.42027686 15.04741455 35.546875 10.33984375 C35.69640625 9.54707031 35.8459375 8.75429688 36 7.9375 C36.56581292 5.04014766 36.80605614 3.85357669 38.75 1.5625 C41.81911398 0.28370251 43.70198894 0.08654922 47 0.625 C51.73343422 3.95991956 52.52258137 7.09237294 53.48046875 12.47265625 C54.41216769 16.33255184 56.65068811 18.61301609 59.75 20.9375 C64.86293181 22.49978472 68.64381879 22.31588477 73.3125 19.9375 C77.50251071 16.33214195 78.92557008 13.33641675 79.9375 8 C80.53046627 5.10266077 80.80610939 3.85351393 82.75 1.5625 C85.81911398 0.28370251 87.70198894 0.08654922 91 0.625 C95.73343422 3.95991956 96.52258137 7.09237294 97.48046875 12.47265625 C98.41216769 16.33255184 100.65068811 18.61301609 103.75 20.9375 C108.86293181 22.49978472 112.64381879 22.31588477 117.3125 19.9375 C121.50251071 16.33214195 122.92557008 13.33641675 123.9375 8 C124.53046627 5.10266077 124.80610939 3.85351393 126.75 1.5625 C129.81911398 0.28370251 131.70198894 0.08654922 135 0.625 C139.73343422 3.95991956 140.52258137 7.09237294 141.48046875 12.47265625 C142.41659508 16.35089392 144.65725886 18.65267021 147.8125 20.9375 C152.20891078 22.3192291 155.87717634 22.0212907 160.1875 20.5 C164.15375052 17.85583298 166.42027686 15.04741455 167.546875 10.33984375 C167.77117187 9.15068359 167.77117187 9.15068359 168 7.9375 C168.56581292 5.04014766 168.80605614 3.85357669 170.75 1.5625 C173.81911398 0.28370251 175.70198894 0.08654922 179 0.625 C181.92412813 2.59560809 183.65008628 4.07929416 184.44921875 7.609375 C184.86010885 15.60047902 181.78912041 22.75709324 176.875 28.9375 C170.93418072 35.2898046 162.66388295 38.71844468 154.0625 39.0625 C146.53343076 39.03723467 141.36919119 36.37844702 135 32.625 C133.67247867 31.94683384 132.34143876 31.27520326 131 30.625 C130.14728516 31.23988281 130.14728516 31.23988281 129.27734375 31.8671875 C121.42785623 37.34479315 114.59299782 39.56520193 105 38.625 C98.66258967 37.30169083 94.04967863 34.60027892 89 30.625 C85.33293667 32.41279732 81.83462232 34.4419257 78.31640625 36.50390625 C71.63174462 39.73914721 63.3160072 39.55650987 56.3125 37.4375 C51.97177403 35.83096797 48.62433933 33.4782033 45 30.625 C42.83899818 31.70299395 40.68119281 32.78667 38.52734375 33.87890625 C37.67269531 34.31074219 36.81804687 34.74257813 35.9375 35.1875 C35.08027344 35.62191406 34.22304687 36.05632812 33.33984375 36.50390625 C27.16490841 39.46251467 20.0972772 39.74185905 13.4921875 37.94140625 C4.86114697 34.31757216 -1.89947846 29.14146782 -6 20.625 C-7.94292749 15.44386003 -8.61632743 11.0839001 -8 5.625 C-5.56226471 2.18349135 -4.14182881 0.862881 0 0 Z " fill="#E3F1FF" transform="translate(112,310.375)"/>
<path d="M0 0 C10.71590568 8.25985139 18.12744638 18.40312689 23 31 C23.35707031 31.92039063 23.71414063 32.84078125 24.08203125 33.7890625 C25.21006605 37.73478422 25.5664644 41.47973533 25.8125 45.5625 C25.90821289 46.6752832 25.90821289 46.6752832 26.00585938 47.81054688 C26.30040383 52.4693275 25.95405952 55.32681382 23 59 C20.19084526 60.40457737 18.11189466 60.24895157 15 60 C12.8984375 58.98828125 12.8984375 58.98828125 11 57 C10.31868109 54.2482939 9.85265292 51.72948632 9.5 48.9375 C7.59936016 36.42253796 2.97087539 23.21392392 -7.41015625 15.12109375 C-17.54670802 8.6868466 -25.53668984 5.67086907 -37.5625 5.5625 C-38.87420166 5.5471521 -38.87420166 5.5471521 -40.21240234 5.53149414 C-53.08408461 5.70406592 -64.87302537 10.87302537 -74 20 C-79.68075123 27.65187396 -83.19866827 34.85849342 -84.69921875 44.234375 C-84.82264648 44.9960498 -84.94607422 45.75772461 -85.07324219 46.54248047 C-85.31259395 48.07516598 -85.53387954 49.61080252 -85.73535156 51.14892578 C-86.22761088 54.43189388 -86.56926458 56.55252844 -88.91015625 58.984375 C-91.80845152 60.39289233 -93.81688816 60.39788898 -97 60 C-100.1359157 58.22015595 -100.84102736 57.47691793 -102 54 C-103.57416837 37.97444983 -97.40186566 23.55912843 -87.76171875 11.109375 C-65.30373133 -14.80070375 -28.12936091 -20.13299136 0 0 Z " fill="#E2F1FF" transform="translate(414,196)"/>
<path d="M0 0 C1.28992355 -0.00554901 2.57984711 -0.01109802 3.90885925 -0.01681519 C7.44006301 -0.03104557 10.97048642 -0.01401989 14.50161552 0.00946999 C18.20017049 0.02960069 21.89869375 0.02369828 25.59729004 0.0213623 C31.80799199 0.02141585 38.01838947 0.0411583 44.22900391 0.07324219 C51.40512854 0.11013413 58.5808544 0.11891753 65.75706148 0.11194468 C72.66570695 0.10563518 79.57421594 0.11640218 86.48283386 0.13591003 C89.42052661 0.14407593 92.35814952 0.14679508 95.29585266 0.1452179 C99.3992621 0.14417419 103.50214772 0.1683704 107.60546875 0.1953125 C109.43219368 0.1909166 109.43219368 0.1909166 111.29582214 0.18643188 C112.41455215 0.19778168 113.53328217 0.20913147 114.68591309 0.2208252 C115.65559776 0.22455391 116.62528244 0.22828262 117.6243515 0.23212433 C120.81111338 0.6879518 122.7085672 1.73792472 125.30273438 3.61523438 C126.30273438 5.61523438 126.30273438 5.61523438 126.30273438 16.61523438 C78.78273437 16.61523438 31.26273437 16.61523438 -17.69726562 16.61523438 C-17.69726562 5.61523438 -17.69726562 5.61523438 -15.99084473 2.46618652 C-10.8079475 -0.44653986 -5.84826336 -0.06369345 0 0 Z " fill="#49A4FE" transform="translate(145.697265625,31.384765625)"/>
<path d="M0 0 C0.66569504 -0.00554901 1.33139008 -0.01109802 2.01725769 -0.01681519 C4.20691044 -0.02857861 6.39447797 -0.00437471 8.58398438 0.02148438 C10.11185614 0.02319649 11.63973084 0.02312877 13.16760254 0.0213623 C16.36543997 0.02301365 19.56257476 0.04167599 22.76025391 0.07324219 C26.85265379 0.1129199 30.94413402 0.11728643 35.03668976 0.10977936 C38.19037249 0.1067051 41.3438497 0.11884625 44.4974823 0.13591003 C46.00610565 0.14292529 47.5147523 0.14606636 49.02339172 0.1452179 C51.13450962 0.14702221 53.24453978 0.16845545 55.35546875 0.1953125 C57.15485901 0.20794128 57.15485901 0.20794128 58.99060059 0.2208252 C62.47938538 0.65256382 64.38053785 1.52169287 67.17773438 3.61523438 C68.58231174 6.42438911 68.42668595 8.50333972 68.17773438 11.61523438 C66.39789033 14.75115008 65.65465231 15.45626173 62.17773438 16.61523438 C59.98138324 16.72994826 57.78173889 16.78461539 55.58251953 16.80810547 C54.91711655 16.81628296 54.25171356 16.82446045 53.56614685 16.83288574 C51.36637258 16.85767791 49.16666249 16.87423814 46.96679688 16.88867188 C46.21454205 16.89399555 45.46228722 16.89931923 44.68723679 16.90480423 C40.70686615 16.93150667 36.72652659 16.95089235 32.74609375 16.96533203 C29.45381955 16.97868118 26.16216371 17.00655447 22.87011719 17.04736328 C18.89194295 17.09667402 14.9143303 17.12145046 10.93586349 17.12855911 C9.42158246 17.13527098 7.90731392 17.15049166 6.39320755 17.17444992 C4.27205411 17.20610378 2.15306628 17.20614005 0.03173828 17.19873047 C-1.77670059 17.21086075 -1.77670059 17.21086075 -3.62167358 17.22323608 C-7.75547101 16.43795765 -9.23531615 14.86445309 -11.82226562 11.61523438 C-12.44726562 8.61523438 -12.44726562 8.61523438 -11.82226562 5.61523438 C-8.14529699 1.00473595 -5.84277586 -0.01000643 0 0 Z " fill="#E4F2FF" transform="translate(347.822265625,287.384765625)"/>
<path d="M0 0 C4.10877321 0.85599442 5.41574826 2.34044396 8 5.625 C8.47525207 8.62587739 8.65757869 11.04196565 8.59375 14.03125 C8.59379028 14.83357056 8.59383057 15.63589111 8.59387207 16.46252441 C8.58852641 18.15364443 8.57098422 19.8447646 8.54199219 21.53564453 C8.50012994 24.11698724 8.50092685 26.69571867 8.5078125 29.27734375 C8.49731904 30.92449721 8.48438008 32.57163728 8.46875 34.21875 C8.46854858 34.98658813 8.46834717 35.75442627 8.46813965 36.54553223 C8.36901692 41.05724744 7.80652434 44.04212988 5 47.625 C2.19084526 49.02957737 0.11189466 48.87395157 -3 48.625 C-6.1359157 46.84515595 -6.84102736 46.10191793 -8 42.625 C-8.27689497 37.37380951 -8.31339221 32.12304115 -8.35009766 26.86523438 C-8.36666642 25.12518955 -8.39396889 23.38521305 -8.43212891 21.64550781 C-8.48696881 19.13050214 -8.5087786 16.61708593 -8.5234375 14.1015625 C-8.54610687 13.32745026 -8.56877625 12.55333801 -8.59213257 11.75576782 C-8.57635093 7.70959063 -8.18164113 5.85663687 -5.65478516 2.63427734 C-3 0.625 -3 0.625 0 0 Z " fill="#E4F2FF" transform="translate(376,207.375)"/>
<path d="M0 0 C13.2 0 26.4 0 40 0 C38.86018237 10.25835866 38.86018237 10.25835866 34 15 C29.91630163 17.04184918 24.73866494 16.31718347 20.25 16.375 C19.16460937 16.41238281 18.07921875 16.44976562 16.9609375 16.48828125 C7.96898434 16.58721472 7.96898434 16.58721472 4.3203125 13.62890625 C0.12163682 8.87182084 0 6.48173852 0 0 Z " fill="#E4F1FE" transform="translate(232,464)"/>
<path d="M0 0 C13.2 0 26.4 0 40 0 C38.86018237 10.25835866 38.86018237 10.25835866 34 15 C29.91630163 17.04184918 24.73866494 16.31718347 20.25 16.375 C19.16460937 16.41238281 18.07921875 16.44976562 16.9609375 16.48828125 C7.96898434 16.58721472 7.96898434 16.58721472 4.3203125 13.62890625 C0.12163682 8.87182084 0 6.48173852 0 0 Z " fill="#E4F1FE" transform="translate(128,464)"/>
</svg>
