<?xml version="1.0" encoding="UTF-8"?>
<svg version="1.1" xmlns="http://www.w3.org/2000/svg" width="512" height="512">
<path d="M0 0 C0.84815535 -0.00453111 1.6963107 -0.00906223 2.57016772 -0.01373065 C5.40504451 -0.02636538 8.23972895 -0.02475487 11.07463074 -0.02310181 C13.11015062 -0.02908763 15.14566823 -0.03589331 17.18118286 -0.04345703 C22.7060612 -0.06111872 28.23087757 -0.06581249 33.75578141 -0.0670886 C37.20893577 -0.06851067 40.66207439 -0.07278132 44.11522484 -0.07808304 C56.16615676 -0.0965839 68.21704446 -0.10475358 80.26799011 -0.10317993 C91.49470438 -0.10197853 102.72122639 -0.12308057 113.94789201 -0.15466726 C123.59224437 -0.18083343 133.23653396 -0.19154708 142.88092154 -0.19026911 C148.63855638 -0.18975958 154.39602034 -0.19543811 160.15361977 -0.21662521 C165.57013433 -0.23601318 170.98631512 -0.23612804 176.40284157 -0.22159195 C178.38735441 -0.21950346 180.37188818 -0.22420709 182.3563652 -0.23631287 C185.07268321 -0.25180582 187.7878561 -0.24243069 190.50415039 -0.22705078 C191.28315934 -0.23733791 192.0621683 -0.24762503 192.86478359 -0.25822389 C199.76979053 -0.17225692 205.69014796 1.9562477 211.00114441 6.41586304 C211.62118347 7.15062866 212.24122253 7.88539429 212.88005066 8.64242554 C213.5181366 9.37203491 214.15622253 10.10164429 214.81364441 10.85336304 C219.17896986 17.32283817 218.73478849 24.07577044 218.70817566 31.59555054 C218.71008911 32.78090393 218.71200256 33.96625732 218.713974 35.18753052 C218.71533203 37.68551853 218.71166235 40.18351368 218.70329285 42.68148804 C218.69255021 46.51758502 218.70322086 50.35321772 218.71598816 54.18930054 C218.71466724 56.61638491 218.71210626 59.04346899 218.70817566 61.47055054 C218.71222412 62.62258972 218.71627258 63.77462891 218.72044373 64.96157837 C218.71098724 66.55398346 218.71098724 66.55398346 218.70133972 68.17855835 C218.69974854 69.1153241 218.69815735 70.05208984 218.69651794 71.01724243 C218.44255066 73.26742554 218.44255066 73.26742554 216.44255066 75.26742554 C215.45255066 75.26742554 214.46255066 75.26742554 213.44255066 75.26742554 C213.44255066 78.23742554 213.44255066 81.20742554 213.44255066 84.26742554 C214.76255066 84.92742554 216.08255066 85.58742554 217.44255066 86.26742554 C218.44255066 87.26742554 218.44255066 87.26742554 218.63005066 90.20492554 C218.44255066 93.26742554 218.44255066 93.26742554 216.44255066 95.26742554 C215.45255066 95.26742554 214.46255066 95.26742554 213.44255066 95.26742554 C213.44255066 98.23742554 213.44255066 101.20742554 213.44255066 104.26742554 C214.76255066 104.59742554 216.08255066 104.92742554 217.44255066 105.26742554 C218.61218594 107.60669611 218.56585655 108.96419202 218.56280518 111.57006836 C218.56486717 112.92466408 218.56486717 112.92466408 218.56697083 114.30662537 C218.56337555 115.29996384 218.55978027 116.29330231 218.55607605 117.31674194 C218.55622208 118.36066605 218.5563681 119.40459015 218.55651855 120.48014832 C218.55581988 123.94311577 218.54802956 127.40602994 218.54020691 130.86898804 C218.53834257 133.26509573 218.53691874 135.6612038 218.53591919 138.05731201 C218.53209527 144.37351529 218.52226604 150.68969568 218.51121521 157.00588989 C218.5009984 163.44723196 218.49642099 169.88857771 218.49137878 176.32992554 C218.48064367 188.97576865 218.46376011 201.62159588 218.44255066 214.26742554 C219.49382141 214.24385986 219.49382141 214.24385986 220.56632996 214.21981812 C223.75415417 214.15730141 226.94184917 214.11838173 230.13005066 214.07992554 C231.23284363 214.05478882 232.3356366 214.0296521 233.47184753 214.00375366 C235.07189636 213.98925171 235.07189636 213.98925171 236.70426941 213.97445679 C238.17319641 213.95089111 238.17319641 213.95089111 239.67179871 213.92684937 C243.82033476 214.43678044 246.46581935 216.15116118 249.19255066 219.26742554 C250.44255066 221.26742554 250.44255066 221.26742554 251.44255066 224.26742554 C252.52583145 224.27329178 253.60911224 224.27915802 254.72521973 224.28520203 C264.9227204 224.34235816 275.12000636 224.41508229 285.3172884 224.50314045 C290.56011742 224.54791181 295.80286752 224.58715292 301.04582214 224.61386108 C306.10340603 224.63982666 311.16068728 224.68018092 316.21808434 224.7306118 C318.14978973 224.74732628 320.08154753 224.75881194 322.0133152 224.76503944 C324.71441678 224.77463088 327.41473603 224.8026299 330.11564636 224.83505249 C331.319739 224.83289986 331.319739 224.83289986 332.54815674 224.83070374 C337.92550033 224.92229027 337.92550033 224.92229027 340.44345093 226.6030426 C341.99922364 229.19477742 341.75578513 231.32302151 341.44255066 234.26742554 C340.78255066 234.92742554 340.12255066 235.58742554 339.44255066 236.26742554 C338.45255066 236.26742554 337.46255066 236.26742554 336.44255066 236.26742554 C336.44255066 248.80742554 336.44255066 261.34742554 336.44255066 274.26742554 C337.76255066 274.92742554 339.08255066 275.58742554 340.44255066 276.26742554 C341.44255066 277.26742554 341.44255066 277.26742554 341.63005066 280.20492554 C341.44255066 283.26742554 341.44255066 283.26742554 339.44255066 285.26742554 C336.64305229 285.48510572 333.93955339 285.57885206 331.13737488 285.58627319 C330.27876862 285.59631882 329.42016235 285.60636444 328.53553772 285.61671448 C325.68944486 285.6476758 322.8434466 285.66461743 319.99723816 285.68148804 C318.02710651 285.70018928 316.05698296 285.7197619 314.08686829 285.74017334 C308.89521548 285.79161083 303.70353667 285.83117424 298.51176453 285.86831665 C293.21649177 285.90828365 287.92132826 285.95940921 282.62614441 286.00961304 C272.23168977 286.10650979 261.83717361 286.19087041 251.44255066 286.26742554 C250.99530136 287.38284225 250.54805206 288.49825897 250.08724976 289.6474762 C248.28331941 293.61789028 247.41941347 294.6664824 243.44255066 296.26742554 C240.58000183 296.60800171 240.58000183 296.60800171 237.48551941 296.56039429 C236.373703 296.55072632 235.2618866 296.54105835 234.11637878 296.53109741 C232.9658905 296.50596069 231.81540222 296.48082397 230.63005066 296.45492554 C229.46022644 296.44139038 228.29040222 296.42785522 227.08512878 296.41390991 C224.20379866 296.37862832 221.32341162 296.32932833 218.44255066 296.26742554 C218.46349792 297.41743042 218.48444519 298.5674353 218.50602722 299.75228882 C218.57864129 304.0348761 218.62442795 308.31740937 218.66227722 312.60043335 C218.68234405 314.4511125 218.70960411 316.30172863 218.74430847 318.15219116 C218.79304499 320.81836531 218.81556853 323.4836984 218.83317566 326.15023804 C218.8538208 326.97234772 218.87446594 327.7944574 218.89573669 328.64147949 C218.89781117 333.99963322 217.99494104 337.00853735 214.44255066 341.26742554 C212.58317566 342.50961304 212.58317566 342.50961304 210.69255066 343.14242554 C209.77216003 343.47887085 209.77216003 343.47887085 208.83317566 343.82211304 C205.34502115 344.47186731 201.9887378 344.33419475 198.44255066 344.26742554 C198.45826111 345.07897095 198.47397156 345.89051636 198.49015808 346.72665405 C198.55277973 350.42767278 198.59162838 354.12857971 198.63005066 357.82992554 C198.65518738 359.10674194 198.6803241 360.38355835 198.70622253 361.69906616 C198.7718317 370.11890852 198.64214646 375.67763513 192.88005066 382.14242554 C188.62260685 385.85404322 185.92687896 385.35588245 180.44255066 385.26742554 C180.45302429 386.16050415 180.46349792 387.05358276 180.47428894 387.97372437 C180.50838658 391.28918031 180.53345703 394.60444975 180.55241394 397.92001343 C180.56246766 399.35461366 180.5761126 400.78919342 180.59342957 402.22372437 C180.61770615 404.28651991 180.62903985 406.34904438 180.63786316 408.41195679 C180.64833679 409.65308228 180.65881042 410.89420776 180.66960144 412.17294312 C180.44255066 415.26742554 180.44255066 415.26742554 178.44255066 418.26742554 C175.55761135 418.55901703 172.89067128 418.66333091 170.00505066 418.63070679 C169.16917419 418.63120529 168.33329773 418.6317038 167.47209167 418.63221741 C165.70343145 418.62987513 163.934768 418.62013751 162.16618347 418.60360718 C159.45331634 418.58001914 156.74143171 418.5830442 154.02848816 418.58969116 C152.31233644 418.58411443 150.59618888 418.57700458 148.88005066 418.56820679 C147.65814026 418.5695739 147.65814026 418.5695739 146.4115448 418.57096863 C140.67357224 418.49844712 140.67357224 418.49844712 138.44255066 416.26742554 C137.79276979 414.13237914 137.23124966 411.97011374 136.71598816 409.79867554 C136.48717453 408.84450745 136.48717453 408.84450745 136.2537384 407.87106323 C135.9327908 406.52692899 135.61527731 405.18197078 135.3009491 403.83627319 C134.81902839 401.77374992 134.3270674 399.71383026 133.83317566 397.65414429 C131.44255066 387.59955201 131.44255066 387.59955201 131.44255066 385.26742554 C123.19255066 385.26742554 114.94255066 385.26742554 106.44255066 385.26742554 C105.78255066 383.61742554 105.12255066 381.96742554 104.44255066 380.26742554 C101.47255066 380.26742554 98.50255066 380.26742554 95.44255066 380.26742554 C95.11255066 381.58742554 94.78255066 382.90742554 94.44255066 384.26742554 C93.44255066 385.26742554 93.44255066 385.26742554 89.88005066 385.32992554 C88.74567566 385.30930054 87.61130066 385.28867554 86.44255066 385.26742554 C85.78255066 383.61742554 85.12255066 381.96742554 84.44255066 380.26742554 C81.47255066 380.26742554 78.50255066 380.26742554 75.44255066 380.26742554 C75.11255066 381.58742554 74.78255066 382.90742554 74.44255066 384.26742554 C73.44255066 385.26742554 73.44255066 385.26742554 70.28239441 385.36508179 C68.35073425 385.34767944 68.35073425 385.34767944 66.38005066 385.32992554 C65.0896991 385.3209021 63.79934753 385.31187866 62.46989441 385.30258179 C60.97135925 385.28517944 60.97135925 385.28517944 59.44255066 385.26742554 C59.18860535 386.49976929 58.93466003 387.73211304 58.67301941 389.00180054 C53.17205368 415.53792251 53.17205368 415.53792251 50.44255066 418.26742554 C47.59731758 418.47957342 44.85187834 418.57139191 42.00505066 418.56820679 C41.16917419 418.57249191 40.33329773 418.57677704 39.47209167 418.58119202 C37.70346483 418.58693927 35.93481435 418.58743267 34.16618347 418.58309937 C31.45321056 418.57993796 28.74132624 418.60339773 26.02848816 418.62875366 C24.31234371 418.6310264 22.59619631 418.63173027 20.88005066 418.63070679 C20.06544373 418.63991653 19.25083679 418.64912628 18.4115448 418.65861511 C16.12614441 418.63973999 16.12614441 418.63973999 12.44255066 418.26742554 C9.9896877 414.58813109 10.21026187 412.79364647 10.24723816 408.41195679 C10.25006805 407.75032028 10.25289795 407.08868378 10.2558136 406.40699768 C10.26699148 404.29778817 10.29209085 402.18900629 10.31755066 400.07992554 C10.32758359 398.64829105 10.3367089 397.2166499 10.34489441 395.78500366 C10.36692271 392.27900577 10.40143581 388.7732574 10.44255066 385.26742554 C9.19087097 385.30223022 7.93919128 385.33703491 6.64958191 385.37289429 C2.18667224 385.49699167 -0.13214682 384.21477887 -3.55744934 381.26742554 C-7.25592092 376.16608542 -7.68329133 371.95266398 -7.65510559 365.75180054 C-7.65188293 364.50140991 -7.64866028 363.25101929 -7.64533997 361.96273804 C-7.63696106 360.66078491 -7.62858215 359.35883179 -7.61994934 358.01742554 C-7.61543762 356.70000366 -7.6109259 355.38258179 -7.60627747 354.02523804 C-7.5944925 350.77258813 -7.57803945 347.52002969 -7.55744934 344.26742554 C-8.45584534 344.29679199 -8.45584534 344.29679199 -9.37239075 344.32675171 C-17.37294503 344.47982974 -17.37294503 344.47982974 -20.93244934 342.57992554 C-21.55893372 342.26668335 -22.18541809 341.95344116 -22.83088684 341.63070679 C-25.65579657 339.40017852 -27.33308453 336.9458006 -27.81886292 333.31190491 C-27.90409765 330.95156975 -27.8946172 328.60936269 -27.85041809 326.24789429 C-27.84617325 325.38932327 -27.84192841 324.53075226 -27.83755493 323.64616394 C-27.82081929 320.9154264 -27.783177 318.18543841 -27.74494934 315.45492554 C-27.72989587 313.59881644 -27.71620862 311.74269572 -27.70393372 309.88656616 C-27.67093257 305.34656569 -27.61918593 300.80712252 -27.55744934 296.26742554 C-28.28335266 296.2883728 -29.00925598 296.30932007 -29.75715637 296.3309021 C-33.06544489 296.41436204 -36.37351145 296.46618092 -39.68244934 296.51742554 C-40.82455872 296.55094116 -41.96666809 296.58445679 -43.14338684 296.61898804 C-52.6562775 296.72960304 -52.6562775 296.72960304 -56.23713684 294.62680054 C-58.88143519 291.93798538 -59.48946772 289.83061721 -60.55744934 286.26742554 C-61.65547882 286.25933868 -62.7535083 286.25125183 -63.8848114 286.24291992 C-74.21502689 286.16555297 -84.54510914 286.07783794 -94.87515068 285.97989845 C-100.18637843 285.92987764 -105.49758573 285.88354826 -110.80891418 285.84555054 C-115.93127306 285.80877064 -121.05346314 285.76243092 -126.17567825 285.70936203 C-128.13333816 285.69077917 -130.0910343 285.67568572 -132.04874802 285.66408157 C-134.7834337 285.64728546 -137.51772951 285.61826714 -140.25227356 285.58627319 C-141.067948 285.58411301 -141.88362244 285.58195282 -142.72401428 285.57972717 C-148.32934502 285.49552986 -148.32934502 285.49552986 -150.55744934 283.26742554 C-151.11488177 278.02756067 -151.11488177 278.02756067 -149.18244934 275.39242554 C-147.55744934 274.26742554 -147.55744934 274.26742554 -145.55744934 274.26742554 C-145.55744934 261.72742554 -145.55744934 249.18742554 -145.55744934 236.26742554 C-146.87744934 235.93742554 -148.19744934 235.60742554 -149.55744934 235.26742554 C-150.55744934 234.26742554 -150.55744934 234.26742554 -150.80744934 231.39242554 C-150.55744934 228.26742554 -150.55744934 228.26742554 -149.56225586 226.59913635 C-146.36770054 224.47712416 -142.94184664 224.82841756 -139.23054504 224.83505249 C-138.38154633 224.82486084 -137.53254761 224.81466919 -136.65782166 224.8041687 C-133.84955822 224.77395699 -131.04163542 224.76476034 -128.23323059 224.75570679 C-126.28694518 224.73886615 -124.34067069 224.72071675 -122.39440918 224.7013092 C-117.27016104 224.65373621 -112.14595716 224.62397409 -107.02156067 224.59786987 C-101.79320025 224.56810115 -96.56499244 224.52155819 -91.33674622 224.47640991 C-81.0770603 224.39029377 -70.81734304 224.32298548 -60.55744934 224.26742554 C-60.09338684 223.31480835 -59.62932434 222.36219116 -59.15119934 221.38070679 C-57.07370938 217.32247272 -55.88257196 215.70913308 -51.55744934 214.26742554 C-49.71134402 214.18503385 -47.8623977 214.15999195 -46.01448059 214.16976929 C-44.94133606 214.17299194 -43.86819153 214.1762146 -42.76252747 214.17953491 C-41.64297668 214.18791382 -40.5234259 214.19629272 -39.36994934 214.20492554 C-37.67322083 214.21169312 -37.67322083 214.21169312 -35.94221497 214.21859741 C-33.14724007 214.23039056 -30.35237114 214.24684904 -27.55744934 214.26742554 C-27.56113651 213.27074388 -27.56482368 212.27406221 -27.56862259 211.24717808 C-27.65746016 186.98455665 -27.72317105 162.72195635 -27.76469803 138.45920658 C-27.78531446 126.72586851 -27.81341763 114.99263796 -27.85920715 103.2593689 C-27.89910289 93.03146127 -27.92488884 82.80363152 -27.93380332 72.57564825 C-27.93901339 67.16106776 -27.95124008 61.74671003 -27.98036957 56.332201 C-28.00758175 51.23261 -28.01588254 46.13333287 -28.00988007 41.03367615 C-28.0109777 39.16526011 -28.01889688 37.29683325 -28.03427124 35.42848015 C-28.18796716 15.7819513 -28.18796716 15.7819513 -21.40901184 7.70883179 C-20.67424622 7.08879272 -19.93948059 6.46875366 -19.18244934 5.82992554 C-18.08803528 4.87279663 -18.08803528 4.87279663 -16.97151184 3.89633179 C-11.62845304 0.29106395 -6.28080645 -0.0247587 0 0 Z " fill="#558ECE" transform="translate(160.5574493408203,83.73257446289063)"/>
<path d="M0 0 C0.84815535 -0.00453111 1.6963107 -0.00906223 2.57016772 -0.01373065 C5.40504451 -0.02636538 8.23972895 -0.02475487 11.07463074 -0.02310181 C13.11015062 -0.02908763 15.14566823 -0.03589331 17.18118286 -0.04345703 C22.7060612 -0.06111872 28.23087757 -0.06581249 33.75578141 -0.0670886 C37.20893577 -0.06851067 40.66207439 -0.07278132 44.11522484 -0.07808304 C56.16615676 -0.0965839 68.21704446 -0.10475358 80.26799011 -0.10317993 C91.49470438 -0.10197853 102.72122639 -0.12308057 113.94789201 -0.15466726 C123.59224437 -0.18083343 133.23653396 -0.19154708 142.88092154 -0.19026911 C148.63855638 -0.18975958 154.39602034 -0.19543811 160.15361977 -0.21662521 C165.57013433 -0.23601318 170.98631512 -0.23612804 176.40284157 -0.22159195 C178.38735441 -0.21950346 180.37188818 -0.22420709 182.3563652 -0.23631287 C185.07268321 -0.25180582 187.7878561 -0.24243069 190.50415039 -0.22705078 C191.28315934 -0.23733791 192.0621683 -0.24762503 192.86478359 -0.25822389 C199.76979053 -0.17225692 205.69014796 1.9562477 211.00114441 6.41586304 C211.62118347 7.15062866 212.24122253 7.88539429 212.88005066 8.64242554 C213.5181366 9.37203491 214.15622253 10.10164429 214.81364441 10.85336304 C219.17896986 17.32283817 218.73478849 24.07577044 218.70817566 31.59555054 C218.71008911 32.78090393 218.71200256 33.96625732 218.713974 35.18753052 C218.71533203 37.68551853 218.71166235 40.18351368 218.70329285 42.68148804 C218.69255021 46.51758502 218.70322086 50.35321772 218.71598816 54.18930054 C218.71466724 56.61638491 218.71210626 59.04346899 218.70817566 61.47055054 C218.71222412 62.62258972 218.71627258 63.77462891 218.72044373 64.96157837 C218.71098724 66.55398346 218.71098724 66.55398346 218.70133972 68.17855835 C218.69974854 69.1153241 218.69815735 70.05208984 218.69651794 71.01724243 C218.44255066 73.26742554 218.44255066 73.26742554 216.44255066 75.26742554 C212.88005066 75.01742554 212.88005066 75.01742554 209.44255066 74.26742554 C208.22807447 71.83847316 208.30520323 70.26020062 208.28483582 67.54574585 C208.2694426 66.07346527 208.2694426 66.07346527 208.2537384 64.57144165 C208.24278641 62.97462555 208.24278641 62.97462555 208.23161316 61.34555054 C208.20353921 59.10075165 208.17487471 56.85596008 208.14567566 54.61117554 C208.10444053 51.06495407 208.06756139 47.51886851 208.04118347 43.97250366 C208.01354527 40.55489681 207.96766544 37.13791576 207.91911316 33.72055054 C207.91423386 32.13587982 207.91423386 32.13587982 207.90925598 30.51919556 C207.81798029 25.04187706 207.58780823 20.96406654 204.44255066 16.26742554 C199.29522592 11.50615016 195.22065605 11.11939944 188.45346069 11.12698364 C187.63025324 11.12401252 186.80704578 11.1210414 185.95889264 11.11798024 C183.19065842 11.10928405 180.4224674 11.10778422 177.65422058 11.10629272 C175.67338976 11.10166521 173.69255984 11.09664064 171.71173096 11.09124756 C166.32324818 11.07811537 160.93477786 11.07167704 155.54628158 11.0672369 C152.18111423 11.06430758 148.81595031 11.06020305 145.45078468 11.05573273 C134.92583678 11.04205583 124.40089668 11.03239003 113.8759405 11.02853084 C101.71916259 11.02404903 89.56249705 11.0064962 77.40575331 10.97753024 C68.01374238 10.95592724 58.62176309 10.9458273 49.22972757 10.94448972 C43.61804501 10.94344073 38.00646807 10.93751289 32.39481163 10.9196701 C27.11628755 10.90321328 21.83794875 10.90102234 16.55940819 10.90980911 C14.62201441 10.91058076 12.68461077 10.90622002 10.74724197 10.89635086 C8.10213704 10.88366664 5.45769176 10.88948892 2.81259155 10.89993286 C1.66291933 10.88784825 1.66291933 10.88784825 0.49002141 10.87551951 C-4.27104753 10.91947755 -7.51459808 11.74850217 -11.55744934 14.26742554 C-15.54250583 18.57559471 -16.68283426 21.6889801 -16.68049717 27.47795391 C-16.68248822 28.56377968 -16.68447927 29.64960546 -16.68653065 30.76833504 C-16.68216139 32.56451822 -16.68216139 32.56451822 -16.67770386 34.39698792 C-16.67855828 35.66545242 -16.67941271 36.93391693 -16.68029302 38.24081975 C-16.68253464 41.76854093 -16.67852123 45.29623189 -16.67351496 48.82394922 C-16.66920589 52.625568 -16.67065721 56.42718501 -16.67141724 60.22880554 C-16.67194218 66.81765842 -16.66879845 73.4065014 -16.6631794 79.99535179 C-16.65506041 89.52178222 -16.65244877 99.04820787 -16.65119141 108.57464138 C-16.64900152 124.02977462 -16.64234313 139.48490259 -16.63288879 154.94003296 C-16.62371305 169.95533217 -16.61664447 184.97062995 -16.61238098 199.9859314 C-16.61211298 200.92055334 -16.61184499 201.85517529 -16.61156887 202.81811911 C-16.60948951 210.12722283 -16.60753256 217.43632658 -16.6056143 224.74543035 C-16.59617664 260.58610025 -16.57605928 296.42675696 -16.55744934 332.26742554 C57.36255066 332.26742554 131.28255066 332.26742554 207.44255066 332.26742554 C207.45673035 316.06004272 207.47091003 299.85265991 207.48551941 283.15414429 C207.5055656 272.9138938 207.52686722 262.67367171 207.55387878 252.43344116 C207.5679849 247.05624474 207.58183685 241.67904784 207.59513855 236.30184937 C207.59681874 235.62788024 207.59849893 234.95391111 207.60023004 234.25951868 C207.62692096 223.3705604 207.63599353 212.48165477 207.63859209 201.59266713 C207.64164865 190.42241589 207.66393417 179.25229505 207.70307523 168.08210593 C207.72445455 161.8058964 207.73698047 155.52994467 207.72870445 149.25369835 C207.72119562 143.35128341 207.73685801 137.4493922 207.77061081 131.54707336 C207.77888239 129.3762345 207.77854936 127.20534392 207.76914787 125.03450966 C207.75761147 122.07906708 207.77651305 119.12536558 207.80331421 116.1700592 C207.79264095 115.30333436 207.78196769 114.43660952 207.770971 113.54362029 C207.81169415 111.15047741 207.81169415 111.15047741 208.44255066 107.26742554 C210.84187794 105.19929218 210.84187794 105.19929218 213.44255066 104.26742554 C215.69255066 104.45492554 215.69255066 104.45492554 217.44255066 105.26742554 C218.61218594 107.60669611 218.56585655 108.96419202 218.56280518 111.57006836 C218.56486717 112.92466408 218.56486717 112.92466408 218.56697083 114.30662537 C218.56337555 115.29996384 218.55978027 116.29330231 218.55607605 117.31674194 C218.55622208 118.36066605 218.5563681 119.40459015 218.55651855 120.48014832 C218.55581988 123.94311577 218.54802956 127.40602994 218.54020691 130.86898804 C218.53834257 133.26509573 218.53691874 135.6612038 218.53591919 138.05731201 C218.53209527 144.37351529 218.52226604 150.68969568 218.51121521 157.00588989 C218.5009984 163.44723196 218.49642099 169.88857771 218.49137878 176.32992554 C218.48064367 188.97576865 218.46376011 201.62159588 218.44255066 214.26742554 C219.49382141 214.24385986 219.49382141 214.24385986 220.56632996 214.21981812 C223.75415417 214.15730141 226.94184917 214.11838173 230.13005066 214.07992554 C231.23284363 214.05478882 232.3356366 214.0296521 233.47184753 214.00375366 C235.07189636 213.98925171 235.07189636 213.98925171 236.70426941 213.97445679 C238.17319641 213.95089111 238.17319641 213.95089111 239.67179871 213.92684937 C243.82033476 214.43678044 246.46581935 216.15116118 249.19255066 219.26742554 C250.44255066 221.26742554 250.44255066 221.26742554 251.44255066 224.26742554 C252.52583145 224.27329178 253.60911224 224.27915802 254.72521973 224.28520203 C264.9227204 224.34235816 275.12000636 224.41508229 285.3172884 224.50314045 C290.56011742 224.54791181 295.80286752 224.58715292 301.04582214 224.61386108 C306.10340603 224.63982666 311.16068728 224.68018092 316.21808434 224.7306118 C318.14978973 224.74732628 320.08154753 224.75881194 322.0133152 224.76503944 C324.71441678 224.77463088 327.41473603 224.8026299 330.11564636 224.83505249 C331.319739 224.83289986 331.319739 224.83289986 332.54815674 224.83070374 C337.92550033 224.92229027 337.92550033 224.92229027 340.44345093 226.6030426 C341.99922364 229.19477742 341.75578513 231.32302151 341.44255066 234.26742554 C340.78255066 234.92742554 340.12255066 235.58742554 339.44255066 236.26742554 C338.45255066 236.26742554 337.46255066 236.26742554 336.44255066 236.26742554 C336.44255066 248.80742554 336.44255066 261.34742554 336.44255066 274.26742554 C337.76255066 274.92742554 339.08255066 275.58742554 340.44255066 276.26742554 C341.44255066 277.26742554 341.44255066 277.26742554 341.63005066 280.20492554 C341.44255066 283.26742554 341.44255066 283.26742554 339.44255066 285.26742554 C336.64305229 285.48510572 333.93955339 285.57885206 331.13737488 285.58627319 C330.27876862 285.59631882 329.42016235 285.60636444 328.53553772 285.61671448 C325.68944486 285.6476758 322.8434466 285.66461743 319.99723816 285.68148804 C318.02710651 285.70018928 316.05698296 285.7197619 314.08686829 285.74017334 C308.89521548 285.79161083 303.70353667 285.83117424 298.51176453 285.86831665 C293.21649177 285.90828365 287.92132826 285.95940921 282.62614441 286.00961304 C272.23168977 286.10650979 261.83717361 286.19087041 251.44255066 286.26742554 C250.99530136 287.38284225 250.54805206 288.49825897 250.08724976 289.6474762 C248.28331941 293.61789028 247.41941347 294.6664824 243.44255066 296.26742554 C240.58000183 296.60800171 240.58000183 296.60800171 237.48551941 296.56039429 C236.373703 296.55072632 235.2618866 296.54105835 234.11637878 296.53109741 C232.9658905 296.50596069 231.81540222 296.48082397 230.63005066 296.45492554 C229.46022644 296.44139038 228.29040222 296.42785522 227.08512878 296.41390991 C224.20379866 296.37862832 221.32341162 296.32932833 218.44255066 296.26742554 C218.46349792 297.41743042 218.48444519 298.5674353 218.50602722 299.75228882 C218.57864129 304.0348761 218.62442795 308.31740937 218.66227722 312.60043335 C218.68234405 314.4511125 218.70960411 316.30172863 218.74430847 318.15219116 C218.79304499 320.81836531 218.81556853 323.4836984 218.83317566 326.15023804 C218.8538208 326.97234772 218.87446594 327.7944574 218.89573669 328.64147949 C218.89781117 333.99963322 217.99494104 337.00853735 214.44255066 341.26742554 C212.58317566 342.50961304 212.58317566 342.50961304 210.69255066 343.14242554 C209.77216003 343.47887085 209.77216003 343.47887085 208.83317566 343.82211304 C205.34502115 344.47186731 201.9887378 344.33419475 198.44255066 344.26742554 C198.45826111 345.07897095 198.47397156 345.89051636 198.49015808 346.72665405 C198.55277973 350.42767278 198.59162838 354.12857971 198.63005066 357.82992554 C198.65518738 359.10674194 198.6803241 360.38355835 198.70622253 361.69906616 C198.7718317 370.11890852 198.64214646 375.67763513 192.88005066 382.14242554 C188.62260685 385.85404322 185.92687896 385.35588245 180.44255066 385.26742554 C180.45302429 386.16050415 180.46349792 387.05358276 180.47428894 387.97372437 C180.50838658 391.28918031 180.53345703 394.60444975 180.55241394 397.92001343 C180.56246766 399.35461366 180.5761126 400.78919342 180.59342957 402.22372437 C180.61770615 404.28651991 180.62903985 406.34904438 180.63786316 408.41195679 C180.64833679 409.65308228 180.65881042 410.89420776 180.66960144 412.17294312 C180.44255066 415.26742554 180.44255066 415.26742554 178.44255066 418.26742554 C175.55761135 418.55901703 172.89067128 418.66333091 170.00505066 418.63070679 C169.16917419 418.63120529 168.33329773 418.6317038 167.47209167 418.63221741 C165.70343145 418.62987513 163.934768 418.62013751 162.16618347 418.60360718 C159.45331634 418.58001914 156.74143171 418.5830442 154.02848816 418.58969116 C152.31233644 418.58411443 150.59618888 418.57700458 148.88005066 418.56820679 C147.65814026 418.5695739 147.65814026 418.5695739 146.4115448 418.57096863 C140.67357224 418.49844712 140.67357224 418.49844712 138.44255066 416.26742554 C137.79276979 414.13237914 137.23124966 411.97011374 136.71598816 409.79867554 C136.48717453 408.84450745 136.48717453 408.84450745 136.2537384 407.87106323 C135.9327908 406.52692899 135.61527731 405.18197078 135.3009491 403.83627319 C134.81902839 401.77374992 134.3270674 399.71383026 133.83317566 397.65414429 C131.44255066 387.59955201 131.44255066 387.59955201 131.44255066 385.26742554 C123.19255066 385.26742554 114.94255066 385.26742554 106.44255066 385.26742554 C105.78255066 383.61742554 105.12255066 381.96742554 104.44255066 380.26742554 C101.47255066 380.26742554 98.50255066 380.26742554 95.44255066 380.26742554 C95.11255066 381.58742554 94.78255066 382.90742554 94.44255066 384.26742554 C93.44255066 385.26742554 93.44255066 385.26742554 89.88005066 385.32992554 C88.74567566 385.30930054 87.61130066 385.28867554 86.44255066 385.26742554 C85.78255066 383.61742554 85.12255066 381.96742554 84.44255066 380.26742554 C81.47255066 380.26742554 78.50255066 380.26742554 75.44255066 380.26742554 C75.11255066 381.58742554 74.78255066 382.90742554 74.44255066 384.26742554 C73.44255066 385.26742554 73.44255066 385.26742554 70.28239441 385.36508179 C68.35073425 385.34767944 68.35073425 385.34767944 66.38005066 385.32992554 C65.0896991 385.3209021 63.79934753 385.31187866 62.46989441 385.30258179 C60.97135925 385.28517944 60.97135925 385.28517944 59.44255066 385.26742554 C59.18860535 386.49976929 58.93466003 387.73211304 58.67301941 389.00180054 C53.17205368 415.53792251 53.17205368 415.53792251 50.44255066 418.26742554 C47.59731758 418.47957342 44.85187834 418.57139191 42.00505066 418.56820679 C41.16917419 418.57249191 40.33329773 418.57677704 39.47209167 418.58119202 C37.70346483 418.58693927 35.93481435 418.58743267 34.16618347 418.58309937 C31.45321056 418.57993796 28.74132624 418.60339773 26.02848816 418.62875366 C24.31234371 418.6310264 22.59619631 418.63173027 20.88005066 418.63070679 C20.06544373 418.63991653 19.25083679 418.64912628 18.4115448 418.65861511 C16.12614441 418.63973999 16.12614441 418.63973999 12.44255066 418.26742554 C9.9896877 414.58813109 10.21026187 412.79364647 10.24723816 408.41195679 C10.25006805 407.75032028 10.25289795 407.08868378 10.2558136 406.40699768 C10.26699148 404.29778817 10.29209085 402.18900629 10.31755066 400.07992554 C10.32758359 398.64829105 10.3367089 397.2166499 10.34489441 395.78500366 C10.36692271 392.27900577 10.40143581 388.7732574 10.44255066 385.26742554 C9.19087097 385.30223022 7.93919128 385.33703491 6.64958191 385.37289429 C2.18667224 385.49699167 -0.13214682 384.21477887 -3.55744934 381.26742554 C-7.25592092 376.16608542 -7.68329133 371.95266398 -7.65510559 365.75180054 C-7.65188293 364.50140991 -7.64866028 363.25101929 -7.64533997 361.96273804 C-7.63696106 360.66078491 -7.62858215 359.35883179 -7.61994934 358.01742554 C-7.61543762 356.70000366 -7.6109259 355.38258179 -7.60627747 354.02523804 C-7.5944925 350.77258813 -7.57803945 347.52002969 -7.55744934 344.26742554 C-8.45584534 344.29679199 -8.45584534 344.29679199 -9.37239075 344.32675171 C-17.37294503 344.47982974 -17.37294503 344.47982974 -20.93244934 342.57992554 C-21.55893372 342.26668335 -22.18541809 341.95344116 -22.83088684 341.63070679 C-25.65579657 339.40017852 -27.33308453 336.9458006 -27.81886292 333.31190491 C-27.90409765 330.95156975 -27.8946172 328.60936269 -27.85041809 326.24789429 C-27.84617325 325.38932327 -27.84192841 324.53075226 -27.83755493 323.64616394 C-27.82081929 320.9154264 -27.783177 318.18543841 -27.74494934 315.45492554 C-27.72989587 313.59881644 -27.71620862 311.74269572 -27.70393372 309.88656616 C-27.67093257 305.34656569 -27.61918593 300.80712252 -27.55744934 296.26742554 C-28.28335266 296.2883728 -29.00925598 296.30932007 -29.75715637 296.3309021 C-33.06544489 296.41436204 -36.37351145 296.46618092 -39.68244934 296.51742554 C-40.82455872 296.55094116 -41.96666809 296.58445679 -43.14338684 296.61898804 C-52.6562775 296.72960304 -52.6562775 296.72960304 -56.23713684 294.62680054 C-58.88143519 291.93798538 -59.48946772 289.83061721 -60.55744934 286.26742554 C-61.65547882 286.25933868 -62.7535083 286.25125183 -63.8848114 286.24291992 C-74.21502689 286.16555297 -84.54510914 286.07783794 -94.87515068 285.97989845 C-100.18637843 285.92987764 -105.49758573 285.88354826 -110.80891418 285.84555054 C-115.93127306 285.80877064 -121.05346314 285.76243092 -126.17567825 285.70936203 C-128.13333816 285.69077917 -130.0910343 285.67568572 -132.04874802 285.66408157 C-134.7834337 285.64728546 -137.51772951 285.61826714 -140.25227356 285.58627319 C-141.067948 285.58411301 -141.88362244 285.58195282 -142.72401428 285.57972717 C-148.32934502 285.49552986 -148.32934502 285.49552986 -150.55744934 283.26742554 C-151.11488177 278.02756067 -151.11488177 278.02756067 -149.18244934 275.39242554 C-147.55744934 274.26742554 -147.55744934 274.26742554 -145.55744934 274.26742554 C-145.55744934 261.72742554 -145.55744934 249.18742554 -145.55744934 236.26742554 C-146.87744934 235.93742554 -148.19744934 235.60742554 -149.55744934 235.26742554 C-150.55744934 234.26742554 -150.55744934 234.26742554 -150.80744934 231.39242554 C-150.55744934 228.26742554 -150.55744934 228.26742554 -149.56225586 226.59913635 C-146.36770054 224.47712416 -142.94184664 224.82841756 -139.23054504 224.83505249 C-138.38154633 224.82486084 -137.53254761 224.81466919 -136.65782166 224.8041687 C-133.84955822 224.77395699 -131.04163542 224.76476034 -128.23323059 224.75570679 C-126.28694518 224.73886615 -124.34067069 224.72071675 -122.39440918 224.7013092 C-117.27016104 224.65373621 -112.14595716 224.62397409 -107.02156067 224.59786987 C-101.79320025 224.56810115 -96.56499244 224.52155819 -91.33674622 224.47640991 C-81.0770603 224.39029377 -70.81734304 224.32298548 -60.55744934 224.26742554 C-60.09338684 223.31480835 -59.62932434 222.36219116 -59.15119934 221.38070679 C-57.07370938 217.32247272 -55.88257196 215.70913308 -51.55744934 214.26742554 C-49.71134402 214.18503385 -47.8623977 214.15999195 -46.01448059 214.16976929 C-44.94133606 214.17299194 -43.86819153 214.1762146 -42.76252747 214.17953491 C-41.64297668 214.18791382 -40.5234259 214.19629272 -39.36994934 214.20492554 C-37.67322083 214.21169312 -37.67322083 214.21169312 -35.94221497 214.21859741 C-33.14724007 214.23039056 -30.35237114 214.24684904 -27.55744934 214.26742554 C-27.56113651 213.27074388 -27.56482368 212.27406221 -27.56862259 211.24717808 C-27.65746016 186.98455665 -27.72317105 162.72195635 -27.76469803 138.45920658 C-27.78531446 126.72586851 -27.81341763 114.99263796 -27.85920715 103.2593689 C-27.89910289 93.03146127 -27.92488884 82.80363152 -27.93380332 72.57564825 C-27.93901339 67.16106776 -27.95124008 61.74671003 -27.98036957 56.332201 C-28.00758175 51.23261 -28.01588254 46.13333287 -28.00988007 41.03367615 C-28.0109777 39.16526011 -28.01889688 37.29683325 -28.03427124 35.42848015 C-28.18796716 15.7819513 -28.18796716 15.7819513 -21.40901184 7.70883179 C-20.67424622 7.08879272 -19.93948059 6.46875366 -19.18244934 5.82992554 C-18.08803528 4.87279663 -18.08803528 4.87279663 -16.97151184 3.89633179 C-11.62845304 0.29106395 -6.28080645 -0.0247587 0 0 Z " fill="#010101" transform="translate(160.5574493408203,83.73257446289063)"/>
<path d="M0 0 C8.87299391 6.5949828 14.25001142 15.854914 16.29263306 26.64205933 C17.02749168 32.42602537 16.91330866 38.23143567 16.8701992 44.05151558 C16.85515606 46.4283113 16.857002 48.80455264 16.86384583 51.18138123 C16.88253454 57.93156868 16.8890979 64.68131231 16.84204102 71.43139648 C16.81433223 75.58007889 16.82086095 79.72754072 16.84905434 83.87620354 C16.85328855 85.44574666 16.84496744 87.01538014 16.8233242 88.58477974 C16.710898 97.08080685 16.76619501 103.53176231 23.0153656 110.01138306 C25.43618468 112.5284517 26.41893053 115.30135534 27.5625 118.5625 C27.95179687 119.64144531 28.34109375 120.72039062 28.7421875 121.83203125 C33.30441512 135.9146099 31.78935233 152.20513805 25.40234375 165.40625 C17.76999949 179.18273768 6.36006983 188.3646385 -8.3125 193.75 C-23.07126293 197.78461933 -38.4781034 195.99725694 -52.125 189.125 C-66.0372202 180.77766788 -75.71342405 168.27085288 -79.890625 152.578125 C-82.26525559 136.65930514 -80.78815373 121.36157421 -71.5625 107.875 C-68.80565068 104.24315068 -68.80565068 104.24315068 -67.3125 102.75 C-67.20412821 100.50802409 -67.16618283 98.26263107 -67.15478516 96.01806641 C-67.14970444 95.31382538 -67.14462372 94.60958435 -67.13938904 93.88400269 C-67.128659 92.3480111 -67.12004923 90.81200363 -67.11326981 89.27598953 C-67.10148951 86.83644716 -67.082033 84.39708254 -67.06015015 81.95761108 C-66.99854802 75.01883984 -66.94472888 68.08008086 -66.91113281 61.14111328 C-66.89004145 56.89930361 -66.85461009 52.65780827 -66.81037521 48.41617966 C-66.79631272 46.80647899 -66.78751507 45.19672258 -66.78432083 43.58696365 C-66.75222601 28.94413967 -65.02960574 14.75675724 -54.3125 3.75 C-37.90849032 -9.73569335 -17.97333322 -11.65333326 0 0 Z " fill="#548CCB" transform="translate(90.3125,91.25)"/>
<path d="M0 0 C8.54050716 6.34785714 14.09753395 15.45515891 16.29263306 25.85571289 C17.07382565 31.58168131 16.91217746 37.3629889 16.8701992 43.13098145 C16.85518583 45.54550041 16.85699329 47.95947241 16.86384583 50.37402344 C16.88255598 57.23260079 16.8891229 64.09074315 16.84204102 70.94921875 C16.81433408 75.16158068 16.82086162 79.37274036 16.84905434 83.58508301 C16.85329002 85.17974563 16.84495982 86.77449708 16.8233242 88.36901855 C16.71199922 96.92121786 16.7076833 103.50325452 23.0153656 110.02030945 C25.44184159 112.53030661 26.41955646 115.30314031 27.5625 118.5625 C27.95179688 119.64144531 28.34109375 120.72039062 28.7421875 121.83203125 C33.3962913 136.19821115 31.64114988 152.44486826 25.1796875 165.88671875 C17.5417815 180.0434887 5.86671805 188.81675413 -9.3125 193.75 C-24.84008248 198.02008518 -39.85054503 195.38233186 -53.984375 187.82421875 C-67.09190696 179.65508791 -75.92166248 167.48855178 -79.890625 152.578125 C-82.26525559 136.65930514 -80.78815373 121.36157421 -71.5625 107.875 C-68.80565068 104.24315068 -68.80565068 104.24315068 -67.3125 102.75 C-67.20416894 100.54394333 -67.16618585 98.33441793 -67.15478516 96.12573242 C-67.14970444 95.43285126 -67.14462372 94.73997009 -67.13938904 94.02609253 C-67.12865855 92.51465827 -67.12004896 91.00320786 -67.11326981 89.49175072 C-67.10148532 87.08973809 -67.08202686 84.68790565 -67.06015015 82.28596497 C-66.99856834 75.45380793 -66.94476813 68.62166266 -66.91113281 61.78930664 C-66.89001553 57.6123291 -66.85456273 53.43566919 -66.81037521 49.25887489 C-66.79633094 47.67512098 -66.7875193 46.09131074 -66.78432083 44.50749779 C-66.7552866 31.48973652 -65.60461736 19.89586292 -58.3125 8.75 C-57.755625 7.88375 -57.19875 7.0175 -56.625 6.125 C-41.005127 -9.91703173 -18.54313787 -12.02277633 0 0 Z " fill="#548CCB" transform="translate(471.3125,91.25)"/>
<path d="M0 0 C60.72 0 121.44 0 184 0 C184 9.57 184 19.14 184 29 C180.79038099 32.20961901 180.03922407 32.35405246 175.74021912 32.4367218 C174.67638756 32.43456917 174.67638756 32.43456917 173.59106445 32.43237305 C172.46386993 32.44766052 172.46386993 32.44766052 171.31390381 32.46325684 C168.83028773 32.49344888 166.34705693 32.502662 163.86328125 32.51171875 C162.14119682 32.52856088 160.41912471 32.54671049 158.69706726 32.56611633 C154.16466118 32.61367326 149.63230506 32.64344568 145.09973145 32.66955566 C140.47459033 32.69933255 135.84962152 32.7458727 131.22460938 32.79101562 C122.14982961 32.87711343 113.07501444 32.94442983 104 33 C103.34 34.32 102.68 35.64 102 37 C98.7 37 95.4 37 92 37 C91.67 38.32 91.34 39.64 91 41 C90 42 90 42 86.4375 42.0625 C85.303125 42.041875 84.16875 42.02125 83 42 C82.01 39.525 82.01 39.525 81 37 C77.7 37 74.4 37 71 37 C70.01 35.02 70.01 35.02 69 33 C67.76971321 32.99120064 67.76971321 32.99120064 66.51457214 32.98222351 C58.78932429 32.92434709 51.06440083 32.85230004 43.33944225 32.76428509 C39.36783561 32.71953547 35.39633262 32.68028979 31.42456055 32.65356445 C27.5923738 32.62757681 23.760585 32.58720747 19.92864418 32.53681374 C18.46585345 32.52011411 17.00299385 32.50861912 15.54012108 32.50238609 C13.49271183 32.49277806 11.44632776 32.4647617 9.39916992 32.43237305 C8.23334885 32.42126999 7.06752777 32.41016693 5.86637878 32.39872742 C3 32 3 32 0 29 C0 19.43 0 9.86 0 0 Z " fill="#ADADAD" transform="translate(164,427)"/>
<path d="M0 0 C5.00230198 2.45567552 8.49851535 5.9970307 11 11 C11.08580639 13.46539605 11.11217245 15.90277339 11.09423828 18.36791992 C11.09145118 19.94256064 11.08878136 21.51720156 11.08621216 23.09184265 C11.08316196 23.92876837 11.08011177 24.76569408 11.07696915 25.62798119 C11.06563965 30.0573694 11.0861268 34.48665419 11.1015625 38.91601562 C11.11984321 44.55398252 11.12858271 50.19140292 11.09960938 55.8293457 C11.07703847 60.38377478 11.08854421 64.93701399 11.12261581 69.4913578 C11.12937584 71.22441575 11.1237302 72.95756953 11.10525894 74.69054222 C10.69799231 83.96842014 10.69799231 83.96842014 13.53045654 92.5206604 C15.317889 94.38058533 15.317889 94.38058533 17.26119995 95.70722961 C20.70762865 98.26959494 22.01274816 101.93415808 23 106 C24.14881267 116.89595518 22.95089267 125.00705179 16.375 133.75 C11.91415379 138.65578995 4.48047804 142.57944971 -2.1640625 143.203125 C-12.09312224 143.39224995 -19.67928127 140.84119567 -27 134 C-33.60346227 126.5585349 -34.63890098 118.59002969 -34.37890625 108.92578125 C-33.82184685 103.15418643 -32.04531961 98.58358646 -27.54841042 94.76850128 C-24.36639884 91.99367991 -23.11628965 90.58421441 -22.26742554 86.31970215 C-22.24472706 84.93400239 -22.25430181 83.5475215 -22.29052734 82.16210938 C-22.28632278 81.4003389 -22.28211823 80.63856842 -22.27778625 79.85371399 C-22.27011078 77.34957198 -22.30360003 74.84766536 -22.3359375 72.34375 C-22.33484298 70.59549482 -22.33053123 68.84723897 -22.32315063 67.09899902 C-22.30976141 62.50448923 -22.32854598 57.91076314 -22.35760498 53.31634521 C-22.40301971 45.96346189 -22.41855309 38.61100092 -22.39805984 31.25801086 C-22.39843185 28.69514199 -22.42416577 26.13337918 -22.45175171 23.57067871 C-22.45243682 21.99308279 -22.4521331 20.41548603 -22.45068359 18.83789062 C-22.46514023 18.13018021 -22.47959686 17.42246979 -22.49449158 16.6933136 C-22.45485133 11.66974077 -21.12245834 8.88084422 -18 5 C-12.09652224 -0.20068279 -7.76521275 -0.7907996 0 0 Z " fill="#030405" transform="translate(71,117)"/>
<path d="M0 0 C5.00230198 2.45567552 8.49851535 5.9970307 11 11 C11.08580639 13.46539605 11.11217245 15.90277339 11.09423828 18.36791992 C11.09145118 19.94256064 11.08878136 21.51720156 11.08621216 23.09184265 C11.08316196 23.92876837 11.08011177 24.76569408 11.07696915 25.62798119 C11.06563965 30.0573694 11.0861268 34.48665419 11.1015625 38.91601562 C11.11984321 44.55398252 11.12858271 50.19140292 11.09960938 55.8293457 C11.07703847 60.38377478 11.08854421 64.93701399 11.12261581 69.4913578 C11.12937584 71.22441575 11.1237302 72.95756953 11.10525894 74.69054222 C10.70415648 83.99807834 10.70415648 83.99807834 13.56135559 92.57765198 C15.28630402 94.29954541 16.9978743 95.62590773 19 97 C23.73045487 104.22016796 23.959693 112.63696103 23 121 C21.11553255 128.17791533 16.89768057 134.65287878 10.49609375 138.5078125 C2.09920713 142.78570234 -5.34698153 144.61330406 -14.625 141.875 C-22.06857137 139.06064616 -28.25546774 134.08268118 -32 127 C-35.55806806 118.02965939 -35.13766237 108.2709034 -31.55859375 99.37890625 C-30 97 -30 97 -28.34332275 95.8605957 C-24.62367425 93.11052382 -23.16827316 90.97125245 -22.36903381 86.35813904 C-22.06657409 81.65551409 -22.16246699 76.95476908 -22.23828125 72.24609375 C-22.23905427 70.49927054 -22.23616317 68.75244222 -22.2297821 67.00563049 C-22.22021122 62.41920396 -22.24877168 57.83391316 -22.28894043 53.24768066 C-22.35050065 45.90479019 -22.37014208 38.56218863 -22.35912132 31.21907234 C-22.36321804 28.66056822 -22.3934913 26.1033069 -22.42610168 23.54502869 C-22.42998383 21.97069506 -22.43293731 20.39635878 -22.43481445 18.82202148 C-22.45084213 18.11588211 -22.46686981 17.40974274 -22.48338318 16.6822052 C-22.45461728 11.66007666 -21.12116607 8.87888623 -18 5 C-12.09652224 -0.20068279 -7.76521275 -0.7907996 0 0 Z " fill="#040202" transform="translate(452,117)"/>
<path d="M0 0 C8.87299391 6.5949828 14.25001142 15.854914 16.29263306 26.64205933 C17.02749168 32.42602537 16.91330866 38.23143567 16.8701992 44.05151558 C16.85515606 46.4283113 16.857002 48.80455264 16.86384583 51.18138123 C16.88253454 57.93156868 16.8890979 64.68131231 16.84204102 71.43139648 C16.81433223 75.58007889 16.82086095 79.72754072 16.84905434 83.87620354 C16.85328855 85.44574666 16.84496744 87.01538014 16.8233242 88.58477974 C16.710898 97.08080685 16.76619501 103.53176231 23.0153656 110.01138306 C25.43618468 112.5284517 26.41893053 115.30135534 27.5625 118.5625 C27.95179687 119.64144531 28.34109375 120.72039062 28.7421875 121.83203125 C33.30441512 135.9146099 31.78935233 152.20513805 25.40234375 165.40625 C17.76999949 179.18273768 6.36006983 188.3646385 -8.3125 193.75 C-23.07126293 197.78461933 -38.4781034 195.99725694 -52.125 189.125 C-66.0372202 180.77766788 -75.71342405 168.27085288 -79.890625 152.578125 C-82.26525559 136.65930514 -80.78815373 121.36157421 -71.5625 107.875 C-68.80565068 104.24315068 -68.80565068 104.24315068 -67.3125 102.75 C-67.20412821 100.50802409 -67.16618283 98.26263107 -67.15478516 96.01806641 C-67.14970444 95.31382538 -67.14462372 94.60958435 -67.13938904 93.88400269 C-67.128659 92.3480111 -67.12004923 90.81200363 -67.11326981 89.27598953 C-67.10148951 86.83644716 -67.082033 84.39708254 -67.06015015 81.95761108 C-66.99854802 75.01883984 -66.94472888 68.08008086 -66.91113281 61.14111328 C-66.89004145 56.89930361 -66.85461009 52.65780827 -66.81037521 48.41617966 C-66.79631272 46.80647899 -66.78751507 45.19672258 -66.78432083 43.58696365 C-66.75222601 28.94413967 -65.02960574 14.75675724 -54.3125 3.75 C-37.90849032 -9.73569335 -17.97333322 -11.65333326 0 0 Z M-50.48046875 16.23828125 C-54.59974492 21.88581767 -55.75460531 26.82705064 -55.61791992 33.72973633 C-55.61393188 34.87760368 -55.61393188 34.87760368 -55.60986328 36.04866028 C-55.60294437 37.69918873 -55.58957602 39.34970046 -55.570364 41.00013161 C-55.54255875 43.62067264 -55.53783739 46.2403291 -55.53987122 48.86100769 C-55.54338929 56.30779998 -55.52050507 63.75399242 -55.4465332 71.20043945 C-55.4028066 75.76709706 -55.39834918 80.33243277 -55.41811562 84.89923668 C-55.41801861 86.62988348 -55.40331257 88.36059834 -55.37315941 90.09098244 C-55.11551241 105.28035097 -55.11551241 105.28035097 -60.2199707 111.62768555 C-61.58123354 113.00467679 -62.94511654 114.37908648 -64.3125 115.75 C-70.74863068 126.1291547 -72.05334517 138.25348865 -69.625 150.10546875 C-65.75705912 162.56346167 -58.96063708 172.53568206 -47.65625 179.3515625 C-35.73410085 185.49218751 -23.35071277 186.77816636 -10.375 183.1875 C0.39477997 179.34690515 9.64630388 172.05088866 15.22265625 161.9765625 C16.49584284 159.26686509 17.62570931 156.54848477 18.6875 153.75 C19.120625 152.656875 19.55375 151.56375 20 150.4375 C22.33917765 137.89100172 20.71588499 125.54231705 13.6875 114.75 C12.09806513 112.53861235 10.5148154 110.57130791 8.6190033 108.60954285 C6.19588623 105.02217797 6.14559536 102.17479568 6.22094727 97.99731445 C6.21864105 97.2323616 6.21633484 96.46740875 6.21395874 95.67927551 C6.21133496 94.02328408 6.21774567 92.36725885 6.23221016 90.71132851 C6.25416387 88.08243254 6.25035711 85.45468327 6.23973083 82.82572937 C6.21809631 76.29377862 6.23533082 69.76208309 6.26123047 63.23016357 C6.28271995 57.71273926 6.2844482 52.19605312 6.25831413 46.67864037 C6.25399317 44.10259968 6.2785175 41.5278736 6.30384827 38.95198059 C6.31220739 28.75917013 4.99486369 21.44156639 -1.26953125 13.1640625 C-8.88066301 5.82532914 -16.04860651 2.40631642 -26.65234375 2.53125 C-36.92456243 3.37595521 -43.75471228 8.84923519 -50.48046875 16.23828125 Z " fill="#010102" transform="translate(90.3125,91.25)"/>
<path d="M0 0 C8.54050716 6.34785714 14.09753395 15.45515891 16.29263306 25.85571289 C17.07382565 31.58168131 16.91217746 37.3629889 16.8701992 43.13098145 C16.85518583 45.54550041 16.85699329 47.95947241 16.86384583 50.37402344 C16.88255598 57.23260079 16.8891229 64.09074315 16.84204102 70.94921875 C16.81433408 75.16158068 16.82086162 79.37274036 16.84905434 83.58508301 C16.85329002 85.17974563 16.84495982 86.77449708 16.8233242 88.36901855 C16.71199922 96.92121786 16.7076833 103.50325452 23.0153656 110.02030945 C25.44184159 112.53030661 26.41955646 115.30314031 27.5625 118.5625 C27.95179688 119.64144531 28.34109375 120.72039062 28.7421875 121.83203125 C33.3962913 136.19821115 31.64114988 152.44486826 25.1796875 165.88671875 C17.5417815 180.0434887 5.86671805 188.81675413 -9.3125 193.75 C-24.84008248 198.02008518 -39.85054503 195.38233186 -53.984375 187.82421875 C-67.09190696 179.65508791 -75.92166248 167.48855178 -79.890625 152.578125 C-82.26525559 136.65930514 -80.78815373 121.36157421 -71.5625 107.875 C-68.80565068 104.24315068 -68.80565068 104.24315068 -67.3125 102.75 C-67.20416894 100.54394333 -67.16618585 98.33441793 -67.15478516 96.12573242 C-67.14970444 95.43285126 -67.14462372 94.73997009 -67.13938904 94.02609253 C-67.12865855 92.51465827 -67.12004896 91.00320786 -67.11326981 89.49175072 C-67.10148532 87.08973809 -67.08202686 84.68790565 -67.06015015 82.28596497 C-66.99856834 75.45380793 -66.94476813 68.62166266 -66.91113281 61.78930664 C-66.89001553 57.6123291 -66.85456273 53.43566919 -66.81037521 49.25887489 C-66.79633094 47.67512098 -66.7875193 46.09131074 -66.78432083 44.50749779 C-66.7552866 31.48973652 -65.60461736 19.89586292 -58.3125 8.75 C-57.755625 7.88375 -57.19875 7.0175 -56.625 6.125 C-41.005127 -9.91703173 -18.54313787 -12.02277633 0 0 Z M-50.48046875 16.23828125 C-54.59974492 21.88581767 -55.75460531 26.82705064 -55.61791992 33.72973633 C-55.61393188 34.87760368 -55.61393188 34.87760368 -55.60986328 36.04866028 C-55.60294437 37.69918873 -55.58957602 39.34970046 -55.570364 41.00013161 C-55.54255875 43.62067264 -55.53783739 46.2403291 -55.53987122 48.86100769 C-55.54338929 56.30779998 -55.52050507 63.75399242 -55.4465332 71.20043945 C-55.4028066 75.76709706 -55.39834918 80.33243277 -55.41811562 84.89923668 C-55.41801861 86.62988348 -55.40331257 88.36059834 -55.37315941 90.09098244 C-55.11551241 105.28035097 -55.11551241 105.28035097 -60.2199707 111.62768555 C-61.58123354 113.00467679 -62.94511654 114.37908648 -64.3125 115.75 C-70.70490745 126.05864491 -71.82014325 137.86903896 -69.8125 149.6953125 C-66.15033154 162.97067318 -57.82421246 173.36291191 -46.01171875 180.30859375 C-34.97904682 186.20013636 -22.37083915 186.48103217 -10.375 183.1875 C2.17867553 178.71075287 11.36495349 170.05554764 17.125 158.125 C21.87653651 147.63795758 22.54773859 134.93075562 18.6875 124.0625 C15.83990868 117.39357205 11.84698419 110.90948419 6.6875 105.75 C6.58905909 103.30813737 6.55448627 100.89376993 6.56152344 98.45141602 C6.5596553 97.68704727 6.55778717 96.92267853 6.55586243 96.13514709 C6.55184768 94.46818442 6.54978261 92.8012162 6.54940033 91.13424873 C6.54599023 87.58234884 6.52462467 84.03063287 6.50416946 80.47879696 C6.46616185 73.86222536 6.43487431 67.24584349 6.43701172 60.62915039 C6.43780242 56.03061912 6.41427424 51.43275208 6.3751297 46.83439445 C6.36471416 45.08709646 6.3631127 43.33972135 6.37078094 41.59240913 C6.41502194 30.38430074 5.71287168 22.39031149 -1.26953125 13.1640625 C-8.88066301 5.82532914 -16.04860651 2.40631642 -26.65234375 2.53125 C-36.92456243 3.37595521 -43.75471228 8.84923519 -50.48046875 16.23828125 Z " fill="#010102" transform="translate(471.3125,91.25)"/>
<path d="M0 0 C7.44730256 6.1245727 12.43419171 13.16689091 13.83984375 22.83203125 C14.28002052 33.87031034 11.71632062 42.84111865 4.2421875 51.08984375 C-4.01028393 58.56737141 -12.9715926 61.11341349 -24.01171875 60.6953125 C-32.6970972 59.41507114 -40.13613139 54.94121495 -46.00390625 48.4609375 C-52.49303125 39.60395626 -54.29677926 29.9508053 -52.6953125 19.15234375 C-49.13220698 8.31247345 -42.6970836 1.40196164 -32.80859375 -3.90234375 C-22.20464082 -8.64570162 -9.33770813 -6.40106659 0 0 Z " fill="#C4BBC4" transform="translate(275.6953125,160.84765625)"/>
<path d="M0 0 C5.45175303 0.67328682 7.21347285 2.89739632 10.640625 6.96875 C15.69283733 13.45967181 20.38077071 20.19643829 25 27 C25.48436523 27.71285156 25.96873047 28.42570312 26.46777344 29.16015625 C39.62035415 48.66009161 52.31365487 68.40207093 48.5625 92.8515625 C45.53585168 104.76899028 37.31218391 114.8692387 27 121.25 C15.56693149 127.73623402 3.0293292 130.23583772 -10.06640625 127.31640625 C-23.34027804 122.76590397 -33.91467863 114.79891805 -40.87109375 102.53515625 C-42.64011634 98.5625069 -43 95.34659366 -43 91 C-41 89 -41 89 -38.5625 88.6875 C-35.43992543 89.06830178 -34.96093283 89.60613394 -33 92 C-32.08292241 93.87584053 -31.21255828 95.77483036 -30.375 97.6875 C-25.74002204 107.09377881 -19.02535635 112.48374508 -9.23828125 116.15234375 C0.7746711 118.77334575 10.72655437 117.44599237 20 113 C28.52553997 107.92933986 34.78402985 100.23164498 37.515625 90.62109375 C41.58508331 68.60007339 28.189441 50.88615067 16.28515625 33.5546875 C11.94680251 27.304432 7.58363925 21.07349227 3 15 C-0.243227 16.08107567 -0.63384189 16.49079183 -2.49609375 19.1484375 C-2.96644043 19.81488281 -3.43678711 20.48132813 -3.92138672 21.16796875 C-4.4217041 21.89628906 -4.92202148 22.62460937 -5.4375 23.375 C-5.96102051 24.12652344 -6.48454102 24.87804687 -7.02392578 25.65234375 C-11.96953335 32.81912093 -16.6170881 40.16705288 -21.2109375 47.5625 C-24.0419282 52.10832019 -27.00516726 56.56087867 -30 61 C-34.75 60.25 -34.75 60.25 -37 58 C-36.77195554 52.52022579 -35.0129322 48.60164556 -32.125 44.0625 C-31.72861328 43.42207764 -31.33222656 42.78165527 -30.92382812 42.12182617 C-21.71302547 27.40774744 -11.72830024 12.82193595 0 0 Z " fill="#020305" transform="translate(254,251)"/>
<path d="M0 0 C8.24215742 5.00711064 14.50729702 11.44226892 19.125 19.8984375 C19.5375 20.63320312 19.95 21.36796875 20.375 22.125 C24.4375127 30.56035624 24.33953704 41.187979 22.4375 50.2734375 C17.51891033 63.85811374 10.42973876 72.32830844 -2.33203125 79.2265625 C-12.07495271 83.47693069 -24.71272407 83.64427654 -34.8125 80.3984375 C-46.54552817 75.23374565 -55.34914602 66.78093759 -60.8125 55.1484375 C-64.48757933 43.90701839 -64.47282569 31.22895647 -59.3515625 20.54296875 C-53.77510068 10.55549613 -45.67718456 2.11902025 -34.875 -2.1015625 C-33.98167969 -2.45476562 -33.08835938 -2.80796875 -32.16796875 -3.171875 C-21.37860078 -6.21798363 -9.96081479 -4.91123507 0 0 Z M-46.875 18.8984375 C-52.96385564 27.36461526 -54.28984895 35.64622435 -52.875 45.8984375 C-50.38696747 55.92165425 -44.90837699 62.88247094 -36.375 68.5625 C-27.91116957 73.0715049 -18.79302597 73.35872962 -9.56640625 71.08203125 C0.02812214 67.57422278 6.75289666 61.47709751 11.1875 52.2734375 C14.59129299 42.91895746 14.78886591 33.48739645 10.5625 24.3984375 C5.24633349 15.16640009 -1.56811953 9.55460905 -11.79296875 6.28515625 C-26.20603877 3.60805694 -37.35545807 8.00494107 -46.875 18.8984375 Z " fill="#030304" transform="translate(275.875,149.1015625)"/>
<path d="M0 0 C4.29 0 8.58 0 13 0 C13.00410889 1.51875732 13.00821777 3.03751465 13.01245117 4.60229492 C13.03423191 10.24017214 13.08851199 15.87735042 13.15258789 21.51489258 C13.17577689 23.95427753 13.19016568 26.39376274 13.19555664 28.83325195 C13.20483906 32.34129375 13.24581782 35.84775672 13.29296875 39.35546875 C13.2890361 40.44522507 13.28510345 41.53498138 13.28105164 42.65776062 C13.34890258 48.871417 13.34890258 48.871417 16.44750977 54.11962891 C17.28983154 54.74015137 18.13215332 55.36067383 19 56 C24.39109536 62.03094758 25.42052645 65.54706262 25.33984375 73.66015625 C24.85211828 78.45332031 23.38151875 81.5848343 20 85 C17.71461656 86.67725565 15.58981031 87.77839136 13 89 C12.01 89.495 12.01 89.495 11 90 C4.50061545 90.82253622 -0.61833894 89.77082374 -6 86 C-11.68230476 80.01862657 -12.45735499 75.22658514 -12.3125 67.1328125 C-11.74950156 61.48875311 -8.95278096 58.72185006 -4.8125 55.25 C-3.884375 54.5075 -2.95625 53.765 -2 53 C-0.76788052 50.53576104 -0.84220092 48.84765337 -0.79467773 46.09130859 C-0.77473251 45.07040131 -0.75478729 44.04949402 -0.73423767 42.99765015 C-0.71752518 41.89240997 -0.70081268 40.7871698 -0.68359375 39.6484375 C-0.6524221 37.95468491 -0.6524221 37.95468491 -0.62062073 36.22671509 C-0.55508665 32.60954028 -0.49622226 28.99229119 -0.4375 25.375 C-0.39431846 22.92707556 -0.35070429 20.47915872 -0.30664062 18.03125 C-0.19940129 12.02091001 -0.0981447 6.0104951 0 0 Z " fill="#F95B3B" transform="translate(440,160)"/>
<path d="M0 0 C60.72 0 121.44 0 184 0 C184 2.97 184 5.94 184 9 C123.28 9 62.56 9 0 9 C0 6.03 0 3.06 0 0 Z " fill="#848484" transform="translate(164,427)"/>
<path d="M0 0 C13.2 0 26.4 0 40 0 C40 13.2 40 26.4 40 40 C26.8 40 13.6 40 0 40 C0 26.8 0 13.6 0 0 Z " fill="#A9A9A9" transform="translate(61,319)"/>
<path d="M0 0 C13.2 0 26.4 0 40 0 C40 12.87 40 25.74 40 39 C26.8 39 13.6 39 0 39 C0 26.13 0 13.26 0 0 Z " fill="#ACACAC" transform="translate(411,320)"/>
<path d="M0 0 C4.29 0 8.58 0 13 0 C13.01417969 2.10761719 13.02835938 4.21523437 13.04296875 6.38671875 C13.07362588 8.43888107 13.11270425 10.4907233 13.15258789 12.54272461 C13.17571503 13.96350702 13.19015126 15.38445958 13.19555664 16.80541992 C13.20488661 18.85442466 13.24595166 20.9007735 13.29296875 22.94921875 C13.3086792 24.17987061 13.32438965 25.41052246 13.34057617 26.6784668 C14.16894437 30.85097671 15.80737041 32.28893683 19 35 C24.39109536 41.03094758 25.42052645 44.54706262 25.33984375 52.66015625 C24.85211828 57.45332031 23.38151875 60.5848343 20 64 C17.71461656 65.67725565 15.58981031 66.77839136 13 68 C12.01 68.495 12.01 68.495 11 69 C4.50061545 69.82253622 -0.61833894 68.77082374 -6 65 C-11.68230476 59.01862657 -12.45735499 54.22658514 -12.3125 46.1328125 C-11.74950156 40.48875311 -8.95278096 37.72185006 -4.8125 34.25 C-3.884375 33.5075 -2.95625 32.765 -2 32 C-0.55037817 29.10075634 -0.77873519 26.47699645 -0.68359375 23.2421875 C-0.66281265 22.57913605 -0.64203156 21.91608459 -0.62062073 21.23294067 C-0.55520769 19.11373306 -0.49627895 16.994401 -0.4375 14.875 C-0.39430691 13.43878919 -0.35069236 12.00259098 -0.30664062 10.56640625 C-0.19874091 7.04439656 -0.09960757 3.52229312 0 0 Z " fill="#70C0E6" transform="translate(59,181)"/>
<path d="M0 0 C11.88 0 23.76 0 36 0 C36 13.2 36 26.4 36 40 C24.12 40 12.24 40 0 40 C0 26.8 0 13.6 0 0 Z " fill="#A8A8A8" transform="translate(461,319)"/>
<path d="M0 0 C11.88 0 23.76 0 36 0 C36 12.87 36 25.74 36 39 C24.12 39 12.24 39 0 39 C0 26.13 0 13.26 0 0 Z " fill="#ACACAC" transform="translate(15,320)"/>
<path d="M0 0 C7.26 0 14.52 0 22 0 C22 20.13 22 40.26 22 61 C14.74 61 7.48 61 0 61 C0 40.87 0 20.74 0 0 Z " fill="#FA5B3B" transform="translate(379,309)"/>
<path d="M0 0 C7.26 0 14.52 0 22 0 C22 20.13 22 40.26 22 61 C14.74 61 7.48 61 0 61 C0 40.87 0 20.74 0 0 Z " fill="#71C1E8" transform="translate(111,309)"/>
<path d="M0 0 C3.3927891 2.61187219 6.30776651 5.70430382 9.3125 8.75 C10.13556641 9.54921875 10.95863281 10.3484375 11.80664062 11.171875 C12.58845703 11.955625 13.37027344 12.739375 14.17578125 13.546875 C14.88645752 14.25682617 15.59713379 14.96677734 16.3293457 15.69824219 C18.35960885 18.49545408 18.7590028 20.57807523 19 24 C18.0234375 25.87890625 18.0234375 25.87890625 16.375 27.5625 C15.41400391 28.55636719 15.41400391 28.55636719 14.43359375 29.5703125 C13.63050781 30.37210937 12.82742188 31.17390625 12 32 C10.94710775 33.12041579 9.89648813 34.24296985 8.84765625 35.3671875 C7.71242325 36.558709 6.57569557 37.74880816 5.4375 38.9375 C4.89593262 39.51765869 4.35436523 40.09781738 3.79638672 40.69555664 C1.13604075 43.40785306 -0.52321565 44.85111351 -4.21484375 46.00390625 C-7 46 -7 46 -10 44 C-10.875 42.1875 -10.875 42.1875 -11 40 C-9.51199281 36.67386627 -7.44162218 34.36040394 -4.87890625 31.8359375 C-4.33951416 31.30274902 -3.80012207 30.76956055 -3.24438477 30.22021484 C-2.83373779 29.81754395 -2.42309082 29.41487305 -2 29 C-2.82725586 28.9906543 -3.65451172 28.98130859 -4.50683594 28.97167969 C-8.25516415 28.91799681 -12.00224162 28.8343429 -15.75 28.75 C-17.05195313 28.73582031 -18.35390625 28.72164063 -19.6953125 28.70703125 C-20.94570313 28.67480469 -22.19609375 28.64257812 -23.484375 28.609375 C-24.63647461 28.58842773 -25.78857422 28.56748047 -26.97558594 28.54589844 C-30.5966515 27.89230604 -31.84496253 26.94570595 -34 24 C-33.6875 18.6875 -33.6875 18.6875 -32 17 C-29.71011219 16.84111908 -27.41556559 16.74861927 -25.12109375 16.68359375 C-24.4344313 16.66281265 -23.74776886 16.64203156 -23.04029846 16.62062073 C-20.83947065 16.55505857 -18.63852025 16.49620985 -16.4375 16.4375 C-14.94855486 16.39432108 -13.45962227 16.350707 -11.97070312 16.30664062 C-8.31393447 16.1993707 -4.65702682 16.09812228 -1 16 C-1.63808594 15.39671875 -2.27617187 14.7934375 -2.93359375 14.171875 C-4.17302734 12.97304688 -4.17302734 12.97304688 -5.4375 11.75 C-6.26121094 10.96109375 -7.08492188 10.1721875 -7.93359375 9.359375 C-9.93079551 7.07901609 -10.72876463 5.97097345 -11 3 C-10.25 0.8125 -10.25 0.8125 -9 -1 C-5.142447 -2.285851 -3.70060296 -1.56448255 0 0 Z " fill="#000000" transform="translate(453,400)"/>
<path d="M0 0 C3.3927891 2.61187219 6.30776651 5.70430382 9.3125 8.75 C10.13556641 9.54921875 10.95863281 10.3484375 11.80664062 11.171875 C12.58845703 11.955625 13.37027344 12.739375 14.17578125 13.546875 C14.88645752 14.25682617 15.59713379 14.96677734 16.3293457 15.69824219 C18.35960885 18.49545408 18.7590028 20.57807523 19 24 C18.0234375 25.87890625 18.0234375 25.87890625 16.375 27.5625 C15.41400391 28.55636719 15.41400391 28.55636719 14.43359375 29.5703125 C13.63050781 30.37210937 12.82742187 31.17390625 12 32 C10.94710775 33.12041579 9.89648813 34.24296985 8.84765625 35.3671875 C7.71242325 36.558709 6.57569557 37.74880816 5.4375 38.9375 C4.89593262 39.51765869 4.35436523 40.09781738 3.79638672 40.69555664 C1.13604075 43.40785306 -0.52321565 44.85111351 -4.21484375 46.00390625 C-7 46 -7 46 -10 44 C-10.875 42.1875 -10.875 42.1875 -11 40 C-9.51199281 36.67386627 -7.44162218 34.36040394 -4.87890625 31.8359375 C-4.33951416 31.30274902 -3.80012207 30.76956055 -3.24438477 30.22021484 C-2.83373779 29.81754395 -2.42309082 29.41487305 -2 29 C-2.82725586 28.9906543 -3.65451172 28.98130859 -4.50683594 28.97167969 C-8.25516415 28.91799681 -12.00224162 28.8343429 -15.75 28.75 C-17.05195312 28.73582031 -18.35390625 28.72164063 -19.6953125 28.70703125 C-20.94570313 28.67480469 -22.19609375 28.64257812 -23.484375 28.609375 C-24.63647461 28.58842773 -25.78857422 28.56748047 -26.97558594 28.54589844 C-30.59734368 27.8921811 -31.84145474 26.94322899 -34 24 C-33.875 20.8125 -33.875 20.8125 -33 18 C-30.10075634 16.55037817 -27.47699645 16.77873519 -24.2421875 16.68359375 C-23.57913605 16.66281265 -22.91608459 16.64203156 -22.23294067 16.62062073 C-20.11373306 16.55520769 -17.994401 16.49627895 -15.875 16.4375 C-14.43878919 16.39430691 -13.00259098 16.35069236 -11.56640625 16.30664062 C-8.04440406 16.19953501 -4.52226175 16.09824425 -1 16 C-1.63808594 15.39671875 -2.27617188 14.7934375 -2.93359375 14.171875 C-4.17302734 12.97304688 -4.17302734 12.97304688 -5.4375 11.75 C-6.26121094 10.96109375 -7.08492187 10.1721875 -7.93359375 9.359375 C-9.93079551 7.07901609 -10.72876463 5.97097345 -11 3 C-10.25 0.8125 -10.25 0.8125 -9 -1 C-5.142447 -2.285851 -3.70060296 -1.56448255 0 0 Z " fill="#000000" transform="translate(74,400)"/>
<path d="M0 0 C1.134375 0.12375 2.26875 0.2475 3.4375 0.375 C5.62129446 3.6506917 5.98025639 4.57570529 5.4375 8.375 C4.798125 9.15875 4.15875 9.9425 3.5 10.75 C0.87411061 14.09204104 0.51045307 16.14372189 0.4375 20.375 C1.82797317 24.79179714 3.87578334 28.08017688 6.5 31.875 C10.85303239 38.30709263 12.01563519 43.82713088 11.1015625 51.51171875 C9.95178235 56.46930024 7.87856924 60.612049 4.4375 64.375 C0.75 65.6875 0.75 65.6875 -2.5625 65.375 C-4.5625 64.375 -4.5625 64.375 -5.5625 62.375 C-5.38755417 57.56398966 -4.44009567 55.09189441 -1.5625 51.375 C-0.23038398 47.09319851 -0.53619532 44.34596537 -2.46875 40.29296875 C-3.73970963 38.06425026 -5.16417455 35.98388772 -6.625 33.875 C-11.06466363 27.31490001 -12.01080972 21.89935913 -11.109375 14.09765625 C-9.82181637 7.68745367 -7.04444707 0.74152074 0 0 Z " fill="#000000" transform="translate(219.5625,9.625)"/>
<path d="M0 0 C2 3 2 3 1.8125 5.9375 C1 9 1 9 -0.5 10.875 C-2.71676701 14.01541993 -3.10988508 17.24193018 -3 21 C-1.2773252 25.76268915 1.81772154 29.80462878 4.6953125 33.94921875 C8.28402133 39.59015329 7.51940579 46.57502154 7 53 C6.09914974 56.05728974 4.86311296 58.4277437 3 61 C2.1028125 62.2684375 2.1028125 62.2684375 1.1875 63.5625 C-1 65 -1 65 -4.6875 64.8125 C-8 64 -8 64 -9 63 C-9.45306636 59.10362932 -9.34390703 57.47287217 -7 54.25 C-4.22689464 49.74370379 -3.84304664 46.16062092 -5 41 C-6.55433489 38.26337846 -8.32207778 35.86257215 -10.2421875 33.37109375 C-14.08592169 28.18632341 -15.58960775 22.80434154 -15.35546875 16.37109375 C-14.52796043 10.85134043 -12.34281705 5.94476952 -9.1875 1.375 C-6.00478278 -0.62556511 -3.66930538 -0.4756507 0 0 Z " fill="#000000" transform="translate(296,10)"/>
<path d="M0 0 C2 2 2 2 2.375 4.6875 C1.97375266 8.23185151 0.75325683 10.15633806 -1.09375 13.14453125 C-2.78889957 16.61520387 -2.486006 19.17270279 -2 23 C-0.35322796 26.09587454 -0.35322796 26.09587454 2 29 C2.91275498 30.36382576 3.80809933 31.73943267 4.6875 33.125 C5.10386719 33.76695313 5.52023437 34.40890625 5.94921875 35.0703125 C8.89568413 40.48129353 8.85813927 47.35921796 7.46875 53.25390625 C6.01861052 57.40729487 4.28308219 60.990508 1 64 C-2.75 64.8125 -2.75 64.8125 -6 65 C-7.5625 63.3125 -7.5625 63.3125 -9 61 C-8.85215373 58.04307466 -8.43459102 56.50702285 -6.5 54.25 C-4.16217769 50.74326653 -3.89040625 47.16456264 -4 43 C-5.68934153 38.23009449 -8.8190138 34.19350997 -11.6953125 30.05078125 C-15.1370747 24.6408257 -14.53254755 18.17171543 -14 12 C-11.84939354 4.89074133 -8.07486715 -1.05324354 0 0 Z " fill="#000000" transform="translate(259,10)"/>
<path d="M0 0 C2.97 0 5.94 0 9 0 C9 19.8 9 39.6 9 60 C13.29 60 17.58 60 22 60 C22 60.33 22 60.66 22 61 C14.74 61 7.48 61 0 61 C0 40.87 0 20.74 0 0 Z " fill="#B14D33" transform="translate(379,309)"/>
<path d="M0 0 C2.97 0 5.94 0 9 0 C9 20.13 9 40.26 9 61 C1.74 61 -5.52 61 -13 61 C-13 60.67 -13 60.34 -13 60 C-8.71 60 -4.42 60 0 60 C0 40.2 0 20.4 0 0 Z " fill="#4BA3C5" transform="translate(124,309)"/>
<path d="M0 0 C8.91 0 17.82 0 27 0 C27 7.59 27 15.18 27 23 C19.74 23 12.48 23 5 23 C4.175 19.761875 3.35 16.52375 2.5 13.1875 C2.23896484 12.17067139 1.97792969 11.15384277 1.70898438 10.10620117 C1.50595703 9.30158447 1.30292969 8.49696777 1.09375 7.66796875 C0.88427734 6.84578857 0.67480469 6.0236084 0.45898438 5.17651367 C0 3 0 3 0 0 Z " fill="#558DCC" transform="translate(303,469)"/>
<path d="M0 0 C8.91 0 17.82 0 27 0 C25.45647444 7.71762782 23.79227561 15.3420951 22 23 C14.74 23 7.48 23 0 23 C0 15.41 0 7.82 0 0 Z " fill="#558DCC" transform="translate(182,469)"/>
<path d="M0 0 C2.01530032 1.51095441 2.88180541 2.38429133 3.36076355 4.87931824 C3.35410172 5.58325211 3.34743988 6.28718597 3.34057617 7.01245117 C3.34034958 7.81305466 3.34012299 8.61365814 3.33988953 9.43852234 C3.32440567 10.29798965 3.30892181 11.15745697 3.29296875 12.04296875 C3.28872391 12.9265657 3.28447906 13.81016266 3.28010559 14.72053528 C3.26331043 17.54316661 3.22565697 20.36508441 3.1875 23.1875 C3.17245423 25.10090115 3.15876564 27.01431349 3.14648438 28.92773438 C3.11340419 33.61876459 3.0616163 38.30926131 3 43 C-1.29 43 -5.58 43 -10 43 C-10.07410727 37.35834639 -10.12858167 31.71697553 -10.16479492 26.07495117 C-10.1798898 24.15530462 -10.20036773 22.2356926 -10.22631836 20.31616211 C-10.26267109 17.55834436 -10.27971912 14.8009822 -10.29296875 12.04296875 C-10.30845261 11.18350143 -10.32393646 10.32403412 -10.33988953 9.43852234 C-10.34011612 8.63791885 -10.34034271 7.83731537 -10.34057617 7.01245117 C-10.34723801 6.3085173 -10.35389984 5.60458344 -10.36076355 4.87931824 C-9.28808558 -0.70856135 -4.82681667 -0.51715893 0 0 Z " fill="#858585" transform="translate(69,127)"/>
<path d="M0 0 C1.70043945 1.23168945 1.70043945 1.23168945 3 3 C3.34057617 5.17651367 3.34057617 5.17651367 3.29296875 7.66796875 C3.28330078 8.56064453 3.27363281 9.45332031 3.26367188 10.37304688 C3.23853516 11.30181641 3.21339844 12.23058594 3.1875 13.1875 C3.17396484 14.12787109 3.16042969 15.06824219 3.14648438 16.03710938 C3.11113603 18.35831735 3.05732915 20.67923088 3 23 C-1.29 23 -5.58 23 -10 23 C-10.08081043 19.72867393 -10.14040709 16.45933579 -10.1875 13.1875 C-10.21263672 12.25873047 -10.23777344 11.32996094 -10.26367188 10.37304688 C-10.27333984 9.48037109 -10.28300781 8.58769531 -10.29296875 7.66796875 C-10.3086792 6.84578857 -10.32438965 6.0236084 -10.34057617 5.17651367 C-10 3 -10 3 -8.70043945 1.23168945 C-5.87119407 -0.81763474 -3.36175846 -0.36018841 0 0 Z " fill="#848484" transform="translate(450,127)"/>
<path d="M0 0 C2.66796875 0.5390625 2.66796875 0.5390625 4.66796875 2.5390625 C5.0546875 4.88671875 5.0546875 4.88671875 4.66796875 7.5390625 C2.875 9.78515625 2.875 9.78515625 0.48046875 11.9765625 C-2.27150653 14.55223936 -4.79226986 16.99855764 -7.01953125 20.0390625 C-9.33203125 22.5390625 -9.33203125 22.5390625 -12.45703125 23.6015625 C-15.33203125 23.5390625 -15.33203125 23.5390625 -17.26953125 22.4765625 C-18.33203125 20.5390625 -18.33203125 20.5390625 -18.31640625 17.87890625 C-16.91725832 13.1317972 -14.12986728 10.56768321 -10.64453125 7.1640625 C-10.03158203 6.52339844 -9.41863281 5.88273438 -8.78710938 5.22265625 C-5.82134373 2.27261576 -4.212187 0.68145581 0 0 Z " fill="#070707" transform="translate(269.33203125,169.4609375)"/>
<path d="M0 0 C8.91 0 17.82 0 27 0 C27 2.97 27 5.94 27 9 C18.75 9 10.5 9 2 9 C1.34 6.03 0.68 3.06 0 0 Z " fill="#ACACAD" transform="translate(303,469)"/>
<path d="M0 0 C8.91 0 17.82 0 27 0 C26.34 2.97 25.68 5.94 25 9 C16.75 9 8.5 9 0 9 C0 6.03 0 3.06 0 0 Z " fill="#ACACAD" transform="translate(182,469)"/>
<path d="M0 0 C2.14376674 0.71458891 3.41224417 1.41224417 5 3 C5.1875 5.9375 5.1875 5.9375 5 9 C4.34 9.66 3.68 10.32 3 11 C-0.625 10.625 -0.625 10.625 -4 10 C-4.33 7.69 -4.66 5.38 -5 3 C-2.75 1.375 -2.75 1.375 0 0 Z " fill="#010304" transform="translate(374,168)"/>
<path d="M0 0 C2.5 0.625 2.5 0.625 4.375 2.875 C5.5 5.625 5.5 5.625 5.25 7.875 C4.5 9.625 4.5 9.625 3.5 10.625 C1.16702567 10.66592937 -1.16705225 10.66741723 -3.5 10.625 C-4.6875 8.4375 -4.6875 8.4375 -5.5 5.625 C-4.22405156 2.24748941 -3.5679768 0.8919942 0 0 Z " fill="#030303" transform="translate(250.5,458.375)"/>
<path d="M0 0 C3.125 0.375 3.125 0.375 6 1 C6.625 4.375 6.625 4.375 7 8 C5 10 5 10 2.5625 10.3125 C0 10 0 10 -1.875 8.8125 C-3 7 -3 7 -2.8125 4.4375 C-2 2 -2 2 0 0 Z " fill="#05090D" transform="translate(212,320)"/>
</svg>
