<?xml version="1.0" encoding="UTF-8"?>
<svg version="1.1" xmlns="http://www.w3.org/2000/svg" width="512" height="512">
<path d="M0 0 C0.70810318 0.00247742 1.41620636 0.00495483 2.14576721 0.00750732 C2.89226532 0.00239639 3.63876343 -0.00271454 4.40788269 -0.00798035 C6.88252212 -0.02191268 9.35688417 -0.02091685 11.83155823 -0.01861572 C13.54787297 -0.02250075 15.26418675 -0.02683501 16.98049927 -0.03160095 C20.58103042 -0.03907106 24.18146352 -0.03876626 27.78199768 -0.0335083 C32.40033247 -0.02771352 37.01826623 -0.04464087 41.63653469 -0.06785297 C45.18211216 -0.08257193 48.72759266 -0.08346452 52.27319527 -0.08034325 C53.97607785 -0.08085742 55.67896572 -0.08611307 57.38181877 -0.09615517 C59.76173463 -0.10846654 62.14086431 -0.10176032 64.52076721 -0.09014893 C65.57988564 -0.10161453 65.57988564 -0.10161453 66.66040039 -0.11331177 C71.44349081 -0.06162655 71.44349081 -0.06162655 73.58333969 1.5570879 C75.94406875 4.65488503 75.20746398 8.63662537 75.10816956 12.3739624 C75.09587311 13.30638763 75.08357666 14.23881287 75.07090759 15.19949341 C75.04382103 17.23097551 75.01073725 19.26238429 74.9724369 21.29368591 C74.89777834 25.65193185 74.87688251 30.00992039 74.85269451 34.36869049 C74.80703228 42.475288 74.74106778 50.58029125 74.57936096 58.68548584 C73.49186128 95.17187391 73.49186128 95.17187391 88.12609863 127.70419312 C91.06687837 131.98287429 93.41291087 136.57261016 95.83546448 141.15716553 C96.81070533 142.93725132 97.78827888 144.71606279 98.76905823 146.49310303 C102.76062392 153.81931328 106.55411221 161.24779543 110.36695862 168.66790771 C114.4220617 176.55482203 118.54918174 184.39266975 122.83546448 192.15716553 C128.05510466 201.61509665 133.00834513 211.19837822 137.93769836 220.80938721 C142.62088475 229.93515793 147.41331355 238.9843938 152.37257385 247.96405029 C157.36466107 257.04404567 162.09789474 266.25564449 166.82398987 275.47601318 C167.42590149 276.64825439 168.02781311 277.82049561 168.64796448 279.02825928 C169.21176819 280.12678223 169.7755719 281.22530518 170.35646057 282.3571167 C171.61257346 284.7406277 172.92244042 287.0538475 174.31202698 289.36029053 C176.54516093 293.47453731 176.36456509 295.69392616 175.89796448 300.28216553 C173.41894522 302.76118479 172.70819191 302.53436232 169.29297161 302.54222775 C167.82859756 302.55282613 167.82859756 302.55282613 166.3346402 302.56363863 C165.25441096 302.56122354 164.17418172 302.55880846 163.06121826 302.55632019 C161.91964258 302.56155687 160.7780669 302.56679355 159.60189801 302.57218891 C156.42359023 302.58463632 153.24541893 302.58803137 150.06709135 302.58759201 C146.64298361 302.5892363 143.21891655 302.60229557 139.79483032 302.61378479 C132.30311704 302.6366647 124.81143204 302.64455868 117.31968856 302.64961123 C112.64376829 302.65286495 107.96785629 302.65938547 103.29194069 302.66661263 C90.35141737 302.68618288 77.41090174 302.70258445 64.47036266 302.70548916 C63.22745802 302.70577051 63.22745802 302.70577051 61.95944418 302.70605755 C60.27957968 302.70642381 58.59971518 302.70678751 56.91985067 302.70714866 C56.08593633 302.70733147 55.25202199 302.70751429 54.39283752 302.70770264 C53.14044315 302.70797346 53.14044315 302.70797346 51.86274789 302.70824976 C38.33174156 302.71179192 24.80089434 302.73881495 11.2699432 302.77620053 C-2.61461518 302.81425677 -16.49909456 302.83364644 -30.38370627 302.83394867 C-38.18243613 302.83453387 -45.98097625 302.84306568 -53.77965736 302.87194633 C-60.42021244 302.89642454 -67.06050861 302.90376747 -73.70109657 302.88869881 C-77.09019032 302.88151491 -80.47877246 302.88244959 -83.8678093 302.90510941 C-87.54043742 302.92541839 -91.21172907 302.91510554 -94.88433838 302.89689636 C-96.49464399 302.91669631 -96.49464399 302.91669631 -98.13748103 302.93689626 C-106.1650398 302.84562509 -106.1650398 302.84562509 -109.30314159 299.86874485 C-111.10203552 297.28216553 -111.10203552 297.28216553 -111.10203552 295.28216553 C-111.65762146 295.01532959 -112.2132074 294.74849365 -112.78562927 294.47357178 C-116.22258289 292.70583003 -119.47151037 290.64590205 -122.76219177 288.62200928 C-128.75530409 285.1902271 -135.40258975 285.54930562 -142.10203552 286.28216553 C-149.82999311 288.94451392 -157.37464604 293.1910813 -161.97703552 300.09466553 C-164.10203552 302.28216553 -164.10203552 302.28216553 -168.03953552 302.96966553 C-171.53629611 302.73868685 -171.94847552 302.44784868 -174.47703552 299.71966553 C-174.85859802 299.17568115 -175.24016052 298.63169678 -175.63328552 298.07122803 C-180.71799667 291.87761711 -189.35615248 286.86426382 -197.22312927 285.89935303 C-207.65543015 285.37373874 -215.43632828 288.43458534 -223.60203552 294.84466553 C-226.18260632 297.19125188 -226.18260632 297.19125188 -227.97703552 300.09466553 C-230.10203552 302.28216553 -230.10203552 302.28216553 -234.03953552 302.96966553 C-237.53629611 302.73868685 -237.94847552 302.44784868 -240.47703552 299.71966553 C-240.85859802 299.17568115 -241.24016052 298.63169678 -241.63328552 298.07122803 C-246.02730283 292.71894099 -253.52724542 288.14502272 -260.10203552 286.28216553 C-272.77729351 285.05453764 -280.4159826 287.72082319 -290.18016052 295.53216553 C-292.29541518 297.33037994 -292.29541518 297.33037994 -294.16453552 300.21966553 C-296.10203552 302.28216553 -296.10203552 302.28216553 -298.04344177 302.65716553 C-300.22703552 302.71966553 -300.22703552 302.71966553 -304.10203552 302.28216553 C-306.10203552 300.28216553 -306.10203552 300.28216553 -306.58641052 296.88372803 C-306.41630165 290.78450167 -303.23275514 285.8816037 -300.35203552 280.65716553 C-299.76003357 279.55179443 -299.16803162 278.44642334 -298.55809021 277.30755615 C-296.75729353 273.95567327 -294.93382499 270.61719502 -293.10203552 267.28216553 C-292.12286604 265.49310457 -291.14369917 263.70404218 -290.16453552 261.91497803 C-288.74744392 259.32748102 -287.329187 256.74068798 -285.90574646 254.15667725 C-280.92278116 245.06429955 -276.2132067 235.83509662 -271.48835754 226.60705566 C-267.15367278 218.14548983 -262.7700809 209.72560845 -258.16453552 201.40716553 C-252.94005836 191.9679841 -248.01263301 182.38689871 -243.10203552 172.78216553 C-237.75462113 162.32305365 -232.33931659 151.92334313 -226.64891052 141.64544678 C-222.13308835 133.44273417 -217.86892867 125.11602513 -213.60203552 116.78216553 C-208.46402121 106.74688026 -203.24762369 96.77664173 -197.78318787 86.91400146 C-192.08891276 76.56394443 -186.76511106 66.01849229 -181.41868591 55.48577881 C-170.46539684 33.96384618 -170.46539684 33.96384618 -167.10203552 32.28216553 C-164.9988568 32.18788379 -162.892598 32.16026368 -160.78730774 32.16191101 C-160.13223051 32.16105659 -159.47715328 32.16020216 -158.80222523 32.15932184 C-156.59728431 32.15766882 -154.39241871 32.16318552 -152.18748474 32.16864014 C-150.61085512 32.16892207 -149.03422537 32.16876415 -147.45759583 32.16819763 C-143.16858342 32.16790991 -138.87959879 32.17380262 -134.59059286 32.18077159 C-130.1115899 32.18700927 -125.63258635 32.18760926 -121.15357971 32.188797 C-112.66797439 32.19190909 -104.1823819 32.20012084 -95.69678223 32.21014649 C-86.03791291 32.22131141 -76.37904299 32.22681903 -66.72016883 32.23184192 C-46.84745055 32.24230354 -26.97474385 32.25990063 -7.10203552 32.28216553 C-7.11250916 31.3838501 -7.12298279 30.48553467 -7.1337738 29.55999756 C-7.16783023 26.23152106 -7.1929217 22.90322931 -7.2118988 19.574646 C-7.22196515 18.13321006 -7.23561933 16.69179458 -7.25291443 15.25042725 C-7.27713564 13.18022619 -7.28851194 11.11029476 -7.29734802 9.03997803 C-7.30782166 7.79361572 -7.31829529 6.54725342 -7.3290863 5.26312256 C-6.9353103 0.09322464 -4.65927297 0.05107515 0 0 Z M5.89796448 13.28216553 C5.89796448 19.55216553 5.89796448 25.82216553 5.89796448 32.28216553 C9.16767151 32.25122803 9.16767151 32.25122803 12.50343323 32.21966553 C14.62515065 32.22689216 16.74632763 32.24777237 18.86793518 32.2699585 C20.33732698 32.27804719 21.8068691 32.27203547 23.27613831 32.25140381 C35.22673165 32.09762035 35.22673165 32.09762035 38.69874573 34.55853271 C40.09737503 36.71475289 40.94833062 38.89065157 41.89796448 41.28216553 C42.85926883 43.15864337 43.86652025 45.00660534 44.87573242 46.85772705 C46.01455514 48.95040599 47.12768613 51.05489826 48.23390198 53.16497803 C48.60998596 53.88201904 48.98606995 54.59906006 49.37355042 55.33782959 C50.14354099 56.80781159 50.91339648 58.27786436 51.68312073 59.74798584 C52.80656682 61.89110208 53.93415276 64.03200231 55.06202698 66.17279053 C55.4027121 66.82700989 55.74339722 67.48122925 56.09440613 68.15527344 C57.83781839 71.46218037 59.63795075 74.26881389 61.89796448 77.28216553 C61.89796448 56.16216553 61.89796448 35.04216553 61.89796448 13.28216553 C43.41796448 13.28216553 24.93796448 13.28216553 5.89796448 13.28216553 Z M-161.10203552 45.28216553 C-163.90703552 50.68591553 -166.71203552 56.08966553 -169.60203552 61.65716553 C-170.48955505 63.36178955 -171.37707458 65.06641357 -172.29148865 66.82269287 C-172.98907723 68.17099588 -173.68636375 69.51945523 -174.38328552 70.86810303 C-174.75034607 71.57040039 -175.11740662 72.27269775 -175.49559021 72.99627686 C-177.43403845 76.45821511 -177.43403845 76.45821511 -178.10203552 80.28216553 C-177.01406677 80.17517334 -175.92609802 80.06818115 -174.80516052 79.95794678 C-159.15869878 78.60406344 -147.45556836 81.17472957 -135.10203552 91.28216553 C-134.44203552 91.28216553 -133.78203552 91.28216553 -133.10203552 91.28216553 C-132.68953552 90.48222168 -132.27703552 89.68227783 -131.85203552 88.85809326 C-130.28418831 85.81885818 -128.71558364 82.78001715 -127.14625549 79.74154663 C-126.45229794 78.39786455 -125.75851023 77.05409474 -125.06489563 75.7102356 C-120.57076215 67.00531085 -116.03498295 58.32972783 -111.32469177 49.73919678 C-109.95353393 47.44114385 -109.95353393 47.44114385 -110.10203552 45.28216553 C-126.93203552 45.28216553 -143.76203552 45.28216553 -161.10203552 45.28216553 Z M-95.10203552 45.28216553 C-97.90703552 50.68591553 -100.71203552 56.08966553 -103.60203552 61.65716553 C-104.48955505 63.36178955 -105.37707458 65.06641357 -106.29148865 66.82269287 C-106.98907723 68.17099588 -107.68636375 69.51945523 -108.38328552 70.86810303 C-108.75034607 71.57040039 -109.11740662 72.27269775 -109.49559021 72.99627686 C-111.43403845 76.45821511 -111.43403845 76.45821511 -112.10203552 80.28216553 C-111.01406677 80.17517334 -109.92609802 80.06818115 -108.80516052 79.95794678 C-93.15869878 78.60406344 -81.45556836 81.17472957 -69.10203552 91.28216553 C-68.44203552 91.28216553 -67.78203552 91.28216553 -67.10203552 91.28216553 C-66.68953552 90.48222168 -66.27703552 89.68227783 -65.85203552 88.85809326 C-64.28418831 85.81885818 -62.71558364 82.78001715 -61.14625549 79.74154663 C-60.45229794 78.39786455 -59.75851023 77.05409474 -59.06489563 75.7102356 C-54.57076215 67.00531085 -50.03498295 58.32972783 -45.32469177 49.73919678 C-43.95353393 47.44114385 -43.95353393 47.44114385 -44.10203552 45.28216553 C-60.93203552 45.28216553 -77.76203552 45.28216553 -95.10203552 45.28216553 Z M-29.10203552 45.28216553 C-31.90703552 50.68591553 -34.71203552 56.08966553 -37.60203552 61.65716553 C-38.48955505 63.36178955 -39.37707458 65.06641357 -40.29148865 66.82269287 C-40.98907723 68.17099588 -41.68636375 69.51945523 -42.38328552 70.86810303 C-42.75034607 71.57040039 -43.11740662 72.27269775 -43.49559021 72.99627686 C-45.43403845 76.45821511 -45.43403845 76.45821511 -46.10203552 80.28216553 C-45.01406677 80.17517334 -43.92609802 80.06818115 -42.80516052 79.95794678 C-27.15869878 78.60406344 -15.45556836 81.17472957 -3.10203552 91.28216553 C-2.44203552 91.28216553 -1.78203552 91.28216553 -1.10203552 91.28216553 C-0.65400574 90.41116211 -0.20597595 89.54015869 0.25563049 88.64276123 C1.95231522 85.34508836 3.65062778 82.04825594 5.34938049 78.75164795 C6.07800015 77.33715559 6.80620484 75.92244939 7.53395081 74.50750732 C8.59294078 72.44872557 9.65327156 70.39064219 10.71437073 68.33294678 C11.06270966 67.65692413 11.41104858 66.98090149 11.76994324 66.28439331 C13.47758836 62.98246979 15.20660043 59.69523402 16.98731995 56.43206787 C17.31433395 55.83258835 17.64134796 55.23310883 17.97827148 54.61546326 C18.86893224 52.99048991 19.76592761 51.36899319 20.66334534 49.7477417 C22.04721273 47.44368128 22.04721273 47.44368128 21.89796448 45.28216553 C5.06796448 45.28216553 -11.76203552 45.28216553 -29.10203552 45.28216553 Z M32.89796448 53.28216553 C32.59729065 53.86369385 32.29661682 54.44522217 31.98683167 55.04437256 C26.47927321 65.68274416 20.93107402 76.29063106 15.14796448 86.78216553 C9.87129299 96.36700551 4.85178439 106.0733607 -0.14094543 115.80773926 C-4.83010598 124.94517266 -9.63030166 134.00498779 -14.59422302 142.99700928 C-18.73114397 150.52375224 -22.67703715 158.14373634 -26.60203552 165.78216553 C-31.45490395 175.22612241 -36.41496254 184.59747224 -41.54344177 193.89544678 C-46.03543599 202.07686557 -50.30597233 210.36770548 -54.57130432 218.66845703 C-58.6263215 226.5551972 -62.75369482 234.39265323 -67.03953552 242.15716553 C-72.08576021 251.30966609 -76.92944565 260.56023036 -81.72703552 269.84466553 C-82.08127594 270.52841248 -82.43551636 271.21215942 -82.80049133 271.91662598 C-83.81259551 273.87171127 -84.8212348 275.82854021 -85.82859802 277.78607178 C-86.41205994 278.91859375 -86.99552185 280.05111572 -87.59666443 281.21795654 C-88.90097166 283.87289654 -90.05228818 286.51860416 -91.10203552 289.28216553 C-88.87718167 289.49893072 -86.64623089 289.65372263 -84.41453552 289.78216553 C-83.17316833 289.87497803 -81.93180115 289.96779053 -80.65281677 290.06341553 C-76.79282439 289.21413227 -76.5167912 289.07999914 -74.52391052 285.97747803 C-73.68945993 284.42668369 -72.88450636 282.85982527 -72.10203552 281.28216553 C-71.63692566 280.40850342 -71.1718158 279.53484131 -70.69261169 278.63470459 C-69.11272136 275.6563787 -67.57399335 272.65913316 -66.03953552 269.65716553 C-61.84573585 261.51734643 -57.58408777 253.42665207 -53.16453552 245.40716553 C-48.05301641 236.12074425 -43.16541971 226.72853831 -38.3110199 217.30560303 C-34.68615273 210.28715835 -30.97796529 203.32478879 -27.16453552 196.40716553 C-22.49760216 187.93893968 -18.0210012 179.38133941 -13.60203552 170.78216553 C-8.72738804 161.2962486 -3.74789308 151.88103468 1.40309143 142.54144287 C5.42181386 135.22646496 9.26311023 127.82630754 13.08546448 120.40716553 C14.82695768 117.04567864 16.57102474 113.68555308 18.31739807 110.32659912 C19.31392272 108.40712703 20.30692932 106.4858205 21.29493713 104.56195068 C22.4769898 102.27051067 23.6823627 99.9934339 24.89796448 97.71966553 C25.22304993 97.077229 25.54813538 96.43479248 25.8830719 95.77288818 C27.58008637 92.66423261 28.72804208 91.36344219 31.96046448 89.81732178 C34.89796448 89.28216553 34.89796448 89.28216553 37.89796448 90.28216553 C39.42506409 92.60101318 39.42506409 92.60101318 41.05030823 95.69622803 C41.65576477 96.83817627 42.26122131 97.98012451 42.88502502 99.15667725 C43.53535961 100.40674217 44.18550143 101.65690739 44.83546448 102.90716553 C45.51017216 104.18771356 46.18571783 105.46782041 46.86207581 106.74749756 C48.88685522 110.58574045 50.89407609 114.43298471 52.89796448 118.28216553 C53.45290588 119.34628662 54.00784729 120.41040771 54.5796051 121.5067749 C56.57338776 125.33132655 58.56621954 129.15635093 60.55250549 132.98480225 C63.87808417 139.37993179 67.29943613 145.71634756 70.77296448 152.03216553 C75.90221823 161.35976786 80.81153914 170.79131536 85.6865387 180.25384521 C89.33361245 187.31509398 93.06366254 194.32095959 96.89796448 201.28216553 C101.98909406 210.52515212 106.85442107 219.87450157 111.68702698 229.25482178 C115.7895717 237.1978544 120.01885703 245.05965542 124.33473206 252.8883667 C129.19787872 261.74725906 133.83001067 270.72281612 138.44288635 279.71380615 C139.00942932 280.81531006 139.57597229 281.91681396 140.15968323 283.05169678 C140.6645929 284.03758789 141.16950256 285.023479 141.68971252 286.03924561 C142.70950419 288.18942984 142.70950419 288.18942984 143.89796448 289.28216553 C146.43074098 289.35536716 148.92900365 289.37444122 151.46046448 289.34466553 C153.93963114 289.32383219 156.41879781 289.30299886 158.89796448 289.28216553 C153.59780463 278.56983307 148.13897768 267.95696497 142.52296448 257.40716553 C141.73890708 255.93071093 140.955058 254.4541457 140.17140198 252.97747803 C138.55143009 249.92529645 136.9305849 246.87358118 135.30909729 243.82220459 C131.86925172 237.34730283 128.44042043 230.86657423 125.01124573 224.38601685 C123.14833177 220.86552822 121.2849114 217.34530773 119.42140198 213.82513428 C119.05134033 213.12606461 118.68127869 212.42699493 118.30000305 211.70674133 C115.99104913 207.34545 113.68057304 202.98496831 111.36906433 198.62503052 C109.41990518 194.9484855 107.47134946 191.27162086 105.52296448 187.59466553 C105.14404053 186.87967896 104.76511658 186.16469238 104.37471008 185.42803955 C99.7223084 176.64742229 95.10083744 167.85194175 90.52296448 159.03216553 C86.79841034 151.85691222 82.98231432 144.74024047 79.08546448 137.65716553 C74.37991863 129.10417138 69.85968405 120.46382757 65.39796448 111.78216553 C60.45688944 102.16797201 55.41913783 92.61813123 50.19728088 83.15252686 C47.66877009 78.56060297 45.1900958 73.94964897 42.78077698 69.29388428 C42.27578674 68.31806396 41.77079651 67.34224365 41.25050354 66.33685303 C40.28631403 64.46582831 39.32709185 62.592233 38.37355042 60.71575928 C37.94590393 59.88560303 37.51825745 59.05544678 37.07765198 58.20013428 C36.51666809 57.09834839 36.51666809 57.09834839 35.9443512 55.9743042 C34.99853913 54.11348727 34.99853913 54.11348727 32.89796448 53.28216553 Z M-190.89109802 104.14935303 C-195.28880282 109.37149865 -198.11809398 115.52896075 -201.16453552 121.59466553 C-201.76330505 122.76706787 -202.36207458 123.93947021 -202.97898865 125.1473999 C-206.39073804 131.84010873 -209.75290452 138.55792634 -213.10203552 145.28216553 C-212.35582947 145.12208008 -211.60962341 144.96199463 -210.84080505 144.79705811 C-196.42180194 142.08626495 -184.38496483 145.06255525 -172.29344177 153.11029053 C-169.92832634 154.59654351 -169.92832634 154.59654351 -166.10203552 154.28216553 C-163.68380571 149.59123317 -161.26688612 144.89962868 -158.85105896 140.2074585 C-158.03303916 138.61906742 -157.21469214 137.03084482 -156.39598083 135.44281006 C-150.88871602 124.75979882 -145.45054358 114.04557691 -140.10203552 103.28216553 C-157.26247446 89.05031832 -174.53909429 87.33930998 -190.89109802 104.14935303 Z M-124.89109802 104.14935303 C-129.28880282 109.37149865 -132.11809398 115.52896075 -135.16453552 121.59466553 C-135.76330505 122.76706787 -136.36207458 123.93947021 -136.97898865 125.1473999 C-140.39073804 131.84010873 -143.75290452 138.55792634 -147.10203552 145.28216553 C-146.35582947 145.12208008 -145.60962341 144.96199463 -144.84080505 144.79705811 C-130.42180194 142.08626495 -118.38496483 145.06255525 -106.29344177 153.11029053 C-103.92832634 154.59654351 -103.92832634 154.59654351 -100.10203552 154.28216553 C-97.68380571 149.59123317 -95.26688612 144.89962868 -92.85105896 140.2074585 C-92.03303916 138.61906742 -91.21469214 137.03084482 -90.39598083 135.44281006 C-84.88871602 124.75979882 -79.45054358 114.04557691 -74.10203552 103.28216553 C-91.26247446 89.05031832 -108.53909429 87.33930998 -124.89109802 104.14935303 Z M-58.89109802 104.14935303 C-63.28880282 109.37149865 -66.11809398 115.52896075 -69.16453552 121.59466553 C-69.76330505 122.76706787 -70.36207458 123.93947021 -70.97898865 125.1473999 C-74.39073804 131.84010873 -77.75290452 138.55792634 -81.10203552 145.28216553 C-80.27059021 145.12361084 -79.4391449 144.96505615 -78.58250427 144.80169678 C-63.76657648 142.59011609 -52.76973552 144.94979296 -40.19578552 153.01263428 C-38.03851619 154.42637667 -38.03851619 154.42637667 -35.10203552 155.28216553 C-34.74077576 154.57946533 -34.37951599 153.87676514 -34.00730896 153.152771 C-32.29162333 149.81948536 -30.57296449 146.48774626 -28.85203552 143.15716553 C-28.53956879 142.55235352 -28.22710205 141.9475415 -27.90516663 141.32440186 C-22.98398109 131.80970063 -17.94130446 122.36991969 -12.74754333 113.00042725 C-12.28058044 112.15496338 -11.81361755 111.30949951 -11.33250427 110.43841553 C-10.92411316 109.70429443 -10.51572205 108.97017334 -10.09495544 108.21380615 C-8.97555589 106.1568275 -8.97555589 106.1568275 -8.10203552 103.28216553 C-25.16486488 88.92195926 -42.62471822 87.42733233 -58.89109802 104.14935303 Z M32.89796448 109.28216553 C32.44582581 110.16662354 31.99368713 111.05108154 31.52784729 111.96234131 C23.91143756 126.85110706 16.29882358 141.73117201 8.21730042 156.37445068 C4.50245999 163.12235801 0.93260551 169.93833229 -2.60203552 176.78216553 C-6.65447694 184.62765368 -10.7810084 192.42159632 -15.03953552 200.15716553 C-20.14980989 209.44241206 -25.03705361 218.83291306 -29.89085388 228.2543335 C-33.99377557 236.19813205 -38.22532255 244.05959945 -42.5388031 251.89056396 C-49.30090139 264.21658604 -55.81459163 276.70727775 -62.10203552 289.28216553 C0.92796448 289.28216553 63.95796448 289.28216553 128.89796448 289.28216553 C123.6967442 278.87972497 118.48125642 268.49154265 113.14796448 258.15716553 C112.80380493 257.48963257 112.45964539 256.82209961 112.10505676 256.13433838 C107.30387551 246.82996309 102.39409439 237.59623277 97.33644104 228.42816162 C93.40278629 221.27400964 89.63671824 214.03980623 85.89796448 206.78216553 C81.6617719 198.5594441 77.36067527 190.38425276 72.89796448 182.28216553 C68.43525147 174.18007426 64.13428349 166.00482543 59.89796448 157.78216553 C54.15448195 146.6367262 48.22684875 135.60617026 42.18165588 124.62200928 C39.38647804 119.52710923 36.642694 114.40437202 33.89796448 109.28216553 C33.56796448 109.28216553 33.23796448 109.28216553 32.89796448 109.28216553 Z M-224.10203552 167.28216553 C-229.4717418 174.90915646 -233.79674115 183.1080587 -238.0388031 191.39227295 C-239.05605123 193.37688706 -240.08339944 195.35604619 -241.11180115 197.3348999 C-241.7640869 198.59956816 -242.41580205 199.86453092 -243.06687927 201.12982178 C-243.65074402 202.26427734 -244.23460876 203.39873291 -244.83616638 204.56756592 C-246.24291107 207.08505979 -246.24291107 207.08505979 -246.10203552 209.28216553 C-244.70984802 209.03466553 -244.70984802 209.03466553 -243.28953552 208.78216553 C-229.93504556 206.95866087 -218.64326753 208.93443802 -207.47703552 216.66107178 C-205.39494998 218.08223214 -203.36253953 219.18499843 -201.10203552 220.28216553 C-200.74077576 219.57946533 -200.37951599 218.87676514 -200.00730896 218.152771 C-198.29162333 214.81948536 -196.57296449 211.48774626 -194.85203552 208.15716553 C-194.53956879 207.55235352 -194.22710205 206.9475415 -193.90516663 206.32440186 C-188.98398109 196.80970063 -183.94130446 187.36991969 -178.74754333 178.00042725 C-178.28058044 177.15496338 -177.81361755 176.30949951 -177.33250427 175.43841553 C-176.92411316 174.70429443 -176.51572205 173.97017334 -176.09495544 173.21380615 C-174.97555589 171.1568275 -174.97555589 171.1568275 -174.10203552 168.28216553 C-181.76102778 160.66017324 -188.5048729 156.25945608 -199.47703552 155.65716553 C-208.81175807 155.95473047 -217.6801992 160.56163914 -224.10203552 167.28216553 Z M-158.10203552 167.28216553 C-163.6263155 174.74727803 -167.81640383 183.14645746 -172.0388031 191.39227295 C-173.05605123 193.37688706 -174.08339944 195.35604619 -175.11180115 197.3348999 C-175.7640869 198.59956816 -176.41580205 199.86453092 -177.06687927 201.12982178 C-177.65074402 202.26427734 -178.23460876 203.39873291 -178.83616638 204.56756592 C-180.24291107 207.08505979 -180.24291107 207.08505979 -180.10203552 209.28216553 C-178.70984802 209.03466553 -178.70984802 209.03466553 -177.28953552 208.78216553 C-163.93504556 206.95866087 -152.64326753 208.93443802 -141.47703552 216.66107178 C-139.39494998 218.08223214 -137.36253953 219.18499843 -135.10203552 220.28216553 C-134.74077576 219.57946533 -134.37951599 218.87676514 -134.00730896 218.152771 C-132.29162333 214.81948536 -130.57296449 211.48774626 -128.85203552 208.15716553 C-128.53956879 207.55235352 -128.22710205 206.9475415 -127.90516663 206.32440186 C-122.98398109 196.80970063 -117.94130446 187.36991969 -112.74754333 178.00042725 C-112.28058044 177.15496338 -111.81361755 176.30949951 -111.33250427 175.43841553 C-110.92411316 174.70429443 -110.51572205 173.97017334 -110.09495544 173.21380615 C-108.97555589 171.1568275 -108.97555589 171.1568275 -108.10203552 168.28216553 C-115.59266953 160.82771815 -122.32208241 156.22385375 -133.10203552 155.78216553 C-143.03827803 156.17656184 -151.05205335 160.38750351 -158.10203552 167.28216553 Z M-92.10203552 167.28216553 C-97.6263155 174.74727803 -101.81640383 183.14645746 -106.0388031 191.39227295 C-107.05605123 193.37688706 -108.08339944 195.35604619 -109.11180115 197.3348999 C-109.7640869 198.59956816 -110.41580205 199.86453092 -111.06687927 201.12982178 C-111.65074402 202.26427734 -112.23460876 203.39873291 -112.83616638 204.56756592 C-114.24291107 207.08505979 -114.24291107 207.08505979 -114.10203552 209.28216553 C-112.70984802 209.03466553 -112.70984802 209.03466553 -111.28953552 208.78216553 C-97.90878396 206.95507495 -86.60418004 208.91011716 -75.47703552 216.75872803 C-73.23175064 218.1989601 -71.66167556 218.72258178 -69.10203552 219.28216553 C-68.59865662 218.33075684 -68.09527771 217.37934814 -67.5766449 216.39910889 C-65.66836391 212.79253249 -63.75975533 209.18612953 -61.85105896 205.57977295 C-61.03261335 204.0332691 -60.21425092 202.48672123 -59.39598083 200.94012451 C-58.60100878 199.43758826 -57.80576132 197.93519768 -57.01023865 196.43295288 C-56.21704964 194.93357412 -55.42538301 193.43338903 -54.63523865 191.93240356 C-52.69287977 188.24939618 -50.72411834 184.58664178 -48.68797302 180.95452881 C-48.30999573 180.2720961 -47.93201843 179.58966339 -47.54258728 178.8865509 C-46.83027154 177.60357988 -46.10835999 176.32587282 -45.37535095 175.05461121 C-44.00765376 172.57519018 -43.0576453 170.85132666 -43.28147888 167.98138428 C-45.65807452 163.0599009 -52.04582762 159.4926249 -56.91453552 157.34466553 C-70.07417619 153.15869633 -82.57951503 157.9694384 -92.10203552 167.28216553 Z M-260.21092224 234.69793701 C-264.12064621 240.04062075 -266.91457036 246.05733862 -269.85203552 251.96966553 C-270.84150413 253.93434317 -271.83424505 255.89733038 -272.82817078 257.85975647 C-273.72278624 259.63020884 -274.60943337 261.40468109 -275.49559021 263.17938232 C-277.10203552 266.28216553 -277.10203552 266.28216553 -278.81004333 269.06658936 C-280.2699511 271.14265509 -280.2699511 271.14265509 -280.10203552 273.28216553 C-279.20448547 273.2428894 -279.20448547 273.2428894 -278.2888031 273.20281982 C-261.36411844 272.56080979 -249.23740566 273.50445639 -236.10203552 285.28216553 C-233.32863449 281.8679266 -231.35701912 278.13696439 -229.37156677 274.23529053 C-229.01745224 273.54642761 -228.66333771 272.8575647 -228.29849243 272.14782715 C-227.16701642 269.94437666 -226.04080122 267.73828288 -224.91453552 265.53216553 C-224.17722811 264.09580187 -223.43960058 262.65960248 -222.7016449 261.22357178 C-217.76829389 251.60969428 -212.91685399 241.95587777 -208.10203552 232.28216553 C-215.83327225 224.92692688 -223.90614072 219.86765822 -234.89891052 220.07122803 C-245.18177515 221.05575762 -253.65340041 227.03459214 -260.21092224 234.69793701 Z M-194.21092224 234.69793701 C-198.12064621 240.04062075 -200.91457036 246.05733862 -203.85203552 251.96966553 C-204.84150413 253.93434317 -205.83424505 255.89733038 -206.82817078 257.85975647 C-207.72278624 259.63020884 -208.60943337 261.40468109 -209.49559021 263.17938232 C-211.10203552 266.28216553 -211.10203552 266.28216553 -212.81004333 269.06658936 C-214.2699511 271.14265509 -214.2699511 271.14265509 -214.10203552 273.28216553 C-213.20448547 273.2428894 -213.20448547 273.2428894 -212.2888031 273.20281982 C-195.36411844 272.56080979 -183.23740566 273.50445639 -170.10203552 285.28216553 C-167.32863449 281.8679266 -165.35701912 278.13696439 -163.37156677 274.23529053 C-163.01745224 273.54642761 -162.66333771 272.8575647 -162.29849243 272.14782715 C-161.16701642 269.94437666 -160.04080122 267.73828288 -158.91453552 265.53216553 C-158.17722811 264.09580187 -157.43960058 262.65960248 -156.7016449 261.22357178 C-151.76829389 251.60969428 -146.91685399 241.95587777 -142.10203552 232.28216553 C-149.83327225 224.92692688 -157.90614072 219.86765822 -168.89891052 220.07122803 C-179.18177515 221.05575762 -187.65340041 227.03459214 -194.21092224 234.69793701 Z M-128.21092224 234.69793701 C-132.12064621 240.04062075 -134.91457036 246.05733862 -137.85203552 251.96966553 C-138.84150413 253.93434317 -139.83424505 255.89733038 -140.82817078 257.85975647 C-141.72278624 259.63020884 -142.60943337 261.40468109 -143.49559021 263.17938232 C-145.10203552 266.28216553 -145.10203552 266.28216553 -146.81004333 269.06658936 C-148.2699511 271.14265509 -148.2699511 271.14265509 -148.10203552 273.28216553 C-147.20448547 273.2428894 -147.20448547 273.2428894 -146.2888031 273.20281982 C-131.03468215 272.62417988 -118.77334963 272.78856445 -106.59031677 283.14544678 C-105.14925256 284.48449402 -105.14925256 284.48449402 -103.10203552 284.28216553 C-102.59865662 283.30046387 -102.09527771 282.31876221 -101.5766449 281.30731201 C-99.66933225 277.58842555 -97.76041216 273.87036601 -95.85105896 270.15252686 C-95.03227584 268.55769225 -94.21390177 266.96264756 -93.39598083 265.36737061 C-92.60130916 263.81756558 -91.80606201 262.2680555 -91.01023865 260.71884155 C-90.21730994 259.175198 -89.42564262 257.63090585 -88.63523865 256.08596802 C-86.7072743 252.3326616 -84.74425862 248.60804973 -82.68797302 244.92327881 C-82.30999573 244.23991959 -81.93201843 243.55656036 -81.54258728 242.85249329 C-80.83070144 241.57211887 -80.10882243 240.29723088 -79.37535095 239.02909851 C-77.5251851 235.69550665 -77.5251851 235.69550665 -77.30174255 231.96746826 C-79.81882905 226.66684347 -86.43679124 223.93585479 -91.60203552 221.90716553 C-105.96066191 217.1802899 -118.76829096 223.6629543 -128.21092224 234.69793701 Z " fill="#558FCF" transform="translate(321.10203552246094,104.71783447265625)"/>
</svg>
