<?xml version="1.0" encoding="UTF-8"?>
<svg version="1.1" xmlns="http://www.w3.org/2000/svg" width="512" height="512">
<path d="M0 0 C0.90147766 -0.00990463 1.80295532 -0.01980927 2.73175049 -0.03001404 C3.71318527 -0.02551239 4.69462006 -0.02101074 5.70579529 -0.01637268 C6.74519257 -0.02323593 7.78458984 -0.03009918 8.85548401 -0.03717041 C12.29327528 -0.05548156 15.73061218 -0.05159534 19.16844177 -0.0459137 C21.55450591 -0.05047274 23.94056874 -0.05577748 26.32662964 -0.0617981 C31.32758418 -0.0707372 36.32837908 -0.06829608 41.32933044 -0.05836487 C47.74798978 -0.04686226 54.16610005 -0.06710298 60.58468723 -0.09628201 C65.51138831 -0.1145968 70.43795659 -0.11436117 75.36468315 -0.10864449 C77.73184417 -0.10849076 80.0990139 -0.11457737 82.46614265 -0.12693596 C85.77033965 -0.14175821 89.07350629 -0.13123361 92.37767029 -0.11402893 C93.3611293 -0.1236969 94.34458832 -0.13336487 95.35784912 -0.14332581 C96.25650696 -0.13349167 97.15516479 -0.12365753 98.08105469 -0.11352539 C99.2526959 -0.11321146 99.2526959 -0.11321146 100.44800663 -0.1128912 C102.47703552 0.38768005 102.47703552 0.38768005 104.22688198 2.29180813 C106.3292753 5.81645289 105.86326212 8.33230081 105.47703552 12.38768005 C104.48703552 13.37768005 103.49703552 14.36768005 102.47703552 15.38768005 C95.54703552 15.38768005 88.61703552 15.38768005 81.47703552 15.38768005 C81.47703552 33.53768005 81.47703552 51.68768005 81.47703552 70.38768005 C89.92764587 70.34054871 98.37825623 70.29341736 107.08494568 70.24485779 C134.11709453 70.1004385 161.14924486 70.00031125 188.18167923 69.92809209 C192.37990444 69.91683559 196.57812847 69.90518671 200.77635193 69.89329529 C201.6121502 69.89093449 202.44794848 69.8885737 203.30907397 69.88614137 C216.84610949 69.8469687 230.38280139 69.776002 243.91963299 69.69330489 C257.80749292 69.60917031 271.69517277 69.55915735 285.58327711 69.5408836 C294.15469484 69.52852803 302.72514137 69.48949337 311.29626016 69.41643185 C317.17213783 69.36889341 323.04751274 69.35447066 328.9235688 69.36616766 C332.31527467 69.3719387 335.70528271 69.36303633 339.09668732 69.31483078 C342.77436376 69.2701693 346.4478562 69.28076522 350.12562561 69.3053894 C351.19761408 69.27917383 352.26960256 69.25295826 353.37407553 69.22594827 C360.44556933 69.35429585 360.44556933 69.35429585 363.44406867 72.3583709 C364.98845038 74.64336522 366.26308096 76.91423732 367.47703552 79.38768005 C368.07765808 80.37631042 368.67828064 81.3649408 369.29710388 82.38352966 C369.79862976 83.26017273 370.30015564 84.1368158 370.81687927 85.0400238 C371.68772156 86.556203 371.68772156 86.556203 372.57615662 88.10301208 C373.18282166 89.16632751 373.78948669 90.22964294 374.41453552 91.32518005 C375.40062886 93.04450334 376.38672781 94.76382342 377.37315369 96.48295593 C378.39318555 98.26141164 379.41192834 100.04060182 380.4306488 101.81980896 C383.08388018 106.45005076 385.75724977 111.06857759 388.43016052 115.68748474 C390.31449909 118.94773516 392.19127225 122.21224428 394.06687927 125.4775238 C396.1561767 129.1121217 398.26874284 132.72991852 400.41844177 136.3290863 C400.84721619 137.05853455 401.2759906 137.78798279 401.71775818 138.53953552 C402.48004134 139.83613222 403.25334777 141.12635576 404.04100037 142.40769958 C406.43715183 146.52832726 407.14953567 149.65794758 406.47703552 154.38768005 C405.15703552 155.70768005 403.83703552 157.02768005 402.47703552 158.38768005 C388.61703552 158.38768005 374.75703552 158.38768005 360.47703552 158.38768005 C360.47703552 257.38768005 360.47703552 356.38768005 360.47703552 458.38768005 C374.33703552 458.38768005 388.19703552 458.38768005 402.47703552 458.38768005 C406.47703552 461.38768005 406.47703552 461.38768005 406.98497009 463.50582886 C406.98815247 464.32205215 406.99133484 465.13827545 406.99461365 465.97923279 C407.00722229 466.90707077 407.01983093 467.83490875 407.03282166 468.79086304 C407.02067627 470.29091637 407.02067627 470.29091637 407.00828552 471.8212738 C407.01211243 472.85075638 407.01593933 473.88023895 407.0198822 474.94091797 C407.02260511 477.11890134 407.01521756 479.29691719 406.9985199 481.47483826 C406.97713826 484.80915837 406.99829842 488.14131827 407.02391052 491.47557068 C407.02126689 493.59080981 407.01614117 495.7060476 407.00828552 497.8212738 C407.01638245 498.81928513 407.02447937 499.81729645 407.03282166 500.84555054 C407.01390869 502.24203575 407.01390869 502.24203575 406.99461365 503.66673279 C406.99143127 504.48375168 406.9882489 505.30077057 406.98497009 506.14254761 C406.25912847 509.35085569 405.08523648 510.38676999 402.47703552 512.38768005 C399.6956032 512.77883695 397.31092137 512.92377511 394.53091431 512.8882513 C393.31522489 512.89652255 393.31522489 512.89652255 392.07497609 512.9049609 C389.34174769 512.91862583 386.60941778 512.90362159 383.87620544 512.8888855 C381.90394533 512.89277586 379.93168802 512.89841416 377.95943737 512.9056564 C372.52614587 512.92046707 367.09314253 512.91019653 361.65986013 512.89591968 C355.8056604 512.88484559 349.95150227 512.89674065 344.0973053 512.90576172 C332.62354618 512.91972054 321.14989685 512.91211851 309.67614293 512.89708614 C300.3541823 512.88533614 291.03225134 512.88172893 281.71028137 512.88400459 C280.71755392 512.88424522 280.71755392 512.88424522 279.70477136 512.8844907 C277.01838076 512.88515426 274.33199017 512.88585667 271.64559959 512.88661604 C246.43408463 512.89364351 221.22262837 512.8781373 196.01112835 512.85199258 C173.60163367 512.82887672 151.1922035 512.82348898 128.78269958 512.83372498 C123.04469811 512.83632689 117.30669663 512.83891187 111.56869507 512.8413229 C110.86232705 512.84162035 110.15595904 512.84191779 109.42818593 512.84222425 C90.71494164 512.84983544 72.00170266 512.8434303 53.28846073 512.83262688 C51.27540705 512.83147905 49.26235337 512.83033587 47.24929968 512.82920005 C45.24796613 512.82806823 43.24663259 512.82691887 41.24529904 512.82576947 C31.93064065 512.82101966 22.61600337 512.822883 13.30134583 512.82713127 C1.95547918 512.8320496 -9.39032065 512.82611085 -20.73617196 512.80623697 C-26.52898966 512.79634125 -32.32170545 512.7912844 -38.11452866 512.79912949 C-43.41180013 512.80615687 -48.70886542 512.79945093 -54.0061096 512.78152586 C-55.92798264 512.77746218 -57.84987431 512.77851311 -59.77174056 512.78504472 C-62.37369167 512.79313446 -64.97493784 512.78295703 -67.57684326 512.76799679 C-68.70968178 512.77810326 -68.70968178 512.77810326 -69.86540592 512.78841391 C-73.03133758 512.75293886 -75.20328131 512.56777334 -77.98785114 510.99908787 C-80.03613228 508.84900803 -80.02935132 507.63190926 -80.0405426 504.6884613 C-80.05315125 503.73737488 -80.06575989 502.78628845 -80.07875061 501.80638123 C-80.07065369 500.78133484 -80.06255676 499.75628845 -80.05421448 498.70018005 C-80.05804138 497.64612976 -80.06186829 496.59207947 -80.06581116 495.50608826 C-80.06853399 493.2768305 -80.06114696 491.047541 -80.04444885 488.81834412 C-80.02304557 485.40062928 -80.04423911 481.98501678 -80.06983948 478.56736755 C-80.06719627 476.4033004 -80.06207144 474.23923456 -80.05421448 472.07518005 C-80.0623114 471.05013367 -80.07040833 470.02508728 -80.07875061 468.96897888 C-80.05983765 467.54234924 -80.05983765 467.54234924 -80.0405426 466.0868988 C-80.03736023 465.24989441 -80.03417786 464.41289001 -80.03089905 463.55052185 C-79.52296448 461.38768005 -79.52296448 461.38768005 -75.52296448 458.38768005 C-61.66296448 458.38768005 -47.80296448 458.38768005 -33.52296448 458.38768005 C-33.52296448 359.38768005 -33.52296448 260.38768005 -33.52296448 158.38768005 C-47.71296448 158.38768005 -61.90296448 158.38768005 -76.52296448 158.38768005 C-80.19647663 153.48966385 -80.19647663 153.48966385 -80.00440979 149.51219177 C-78.88397805 144.56797421 -75.94651397 140.27337921 -73.39796448 135.95018005 C-72.76559875 134.85052917 -72.13323303 133.7508783 -71.48170471 132.61790466 C-69.51048217 129.19885567 -67.5185377 125.79256198 -65.52296448 122.38768005 C-64.34899109 120.36730922 -63.17578204 118.34649401 -62.00343323 116.32518005 C-59.72380762 112.40161241 -57.4334122 108.48459408 -55.13624573 104.5712738 C-52.52646774 100.11853434 -49.94449171 95.65083224 -47.37843323 91.1728363 C-46.86223167 90.2730883 -46.86223167 90.2730883 -46.33560181 89.35516357 C-44.66012877 86.43453186 -42.98768984 83.51228145 -41.32008362 80.58714294 C-40.72187805 79.54421082 -40.12367249 78.50127869 -39.50733948 77.42674255 C-38.97850159 76.50071228 -38.4496637 75.57468201 -37.90480042 74.62059021 C-36.52296448 72.38768005 -36.52296448 72.38768005 -34.52296448 70.38768005 C-32.34629822 70.14717102 -32.34629822 70.14717102 -29.61427307 70.16062927 C-28.57907532 70.16087097 -27.54387756 70.16111267 -26.47731018 70.16136169 C-25.38636047 70.17159363 -24.29541077 70.18182556 -23.17140198 70.19236755 C-22.17084778 70.19438171 -21.17029358 70.19639587 -20.13941956 70.19847107 C-16.39222141 70.20895631 -12.64508847 70.23687876 -8.89796448 70.26268005 C-0.52421448 70.30393005 7.84953552 70.34518005 16.47703552 70.38768005 C16.47703552 52.23768005 16.47703552 34.08768005 16.47703552 15.38768005 C9.54703552 15.38768005 2.61703552 15.38768005 -4.52296448 15.38768005 C-8.52296448 11.38768005 -8.52296448 11.38768005 -9.05421448 9.3525238 C-8.96904179 3.82694567 -8.96904179 3.82694567 -6.77439976 1.66581631 C-4.26089959 0.23890623 -2.8671776 0.00891516 0 0 Z M31.47703552 15.38768005 C31.47703552 33.53768005 31.47703552 51.68768005 31.47703552 70.38768005 C43.35703552 70.38768005 55.23703552 70.38768005 67.47703552 70.38768005 C67.47703552 52.23768005 67.47703552 34.08768005 67.47703552 15.38768005 C55.59703552 15.38768005 43.71703552 15.38768005 31.47703552 15.38768005 Z M-26.52296448 85.38768005 C-31.80296448 94.95768005 -37.08296448 104.52768005 -42.52296448 114.38768005 C-51.27296448 129.38768005 -51.27296448 129.38768005 -55.2646637 136.07713318 C-56.78936984 138.76877098 -56.78936984 138.76877098 -58.52296448 143.38768005 C87.99703552 143.38768005 234.51703552 143.38768005 385.47703552 143.38768005 C381.38244407 135.19849714 377.41547413 127.3237185 372.85203552 119.45018005 C366.32998043 108.13249621 359.90450074 96.75934928 353.47703552 85.38768005 C228.07703552 85.38768005 102.67703552 85.38768005 -26.52296448 85.38768005 Z M-18.52296448 158.38768005 C-18.52296448 257.38768005 -18.52296448 356.38768005 -18.52296448 458.38768005 C17.44703552 458.38768005 53.41703552 458.38768005 90.47703552 458.38768005 C90.64730566 429.4442961 90.64730566 429.4442961 90.77488708 400.50071716 C90.82029724 394.85557556 90.82029724 394.85557556 90.84660339 392.19848633 C90.86105328 390.37418803 90.86798262 388.54981929 90.86857605 386.72546387 C90.88886692 363.68481404 96.13258555 345.42711306 112.49266052 328.2743988 C128.47808556 313.02903974 147.93355548 308.84966798 169.35984802 309.1103363 C185.22261457 309.59920721 199.62137859 315.93314621 211.47703552 326.38768005 C212.2272699 327.04381287 212.97750427 327.69994568 213.75047302 328.3759613 C224.96137784 338.84074789 233.7139571 354.63631805 234.58169746 370.27378273 C234.63984576 372.58848815 234.66616661 374.90164259 234.68235779 377.21702576 C234.69740687 378.55607483 234.69740687 378.55607483 234.71275997 379.92217541 C234.74406134 382.80257793 234.76888159 385.68299425 234.79344177 388.5634613 C234.81185293 390.34548889 234.83069002 392.12751213 234.84996033 393.90953064 C234.91831321 400.50636232 234.97842665 407.10327729 235.03953552 413.70018005 C235.25609802 435.82049255 235.25609802 435.82049255 235.47703552 458.38768005 C271.77703552 458.38768005 308.07703552 458.38768005 345.47703552 458.38768005 C345.47703552 359.38768005 345.47703552 260.38768005 345.47703552 158.38768005 C225.35703552 158.38768005 105.23703552 158.38768005 -18.52296448 158.38768005 Z M123.72703552 338.88768005 C122.98453552 339.71268005 122.24203552 340.53768005 121.47703552 341.38768005 C121.0207074 341.84014099 120.56437927 342.29260193 120.09422302 342.7587738 C105.397702 358.18627362 105.31522592 378.47393643 105.37937927 398.42674255 C105.38085259 399.96539778 105.3818709 401.50405352 105.38243103 403.04270935 C105.38763871 408.69937398 105.40159988 414.35602782 105.41453552 420.01268005 C105.43516052 432.67643005 105.45578552 445.34018005 105.47703552 458.38768005 C143.75703552 458.38768005 182.03703552 458.38768005 221.47703552 458.38768005 C221.53891052 439.51580505 221.53891052 439.51580505 221.60203552 420.26268005 C221.62024353 416.31798767 221.63845154 412.37329529 221.6572113 408.30906677 C221.66390795 404.71411306 221.66390795 404.71411306 221.66792297 401.11915588 C221.67095606 399.54142624 221.67790906 397.96370067 221.68818665 396.38600159 C221.80440487 377.57384913 220.27885685 360.91027264 208.47703552 345.38768005 C207.95367615 344.69932068 207.43031677 344.0109613 206.89109802 343.30174255 C197.44056754 331.72151507 183.14275758 324.52426454 168.41453552 322.63768005 C151.30925039 321.37235759 136.27212361 327.48305452 123.72703552 338.88768005 Z M-64.52296448 473.38768005 C-64.52296448 481.63768005 -64.52296448 489.88768005 -64.52296448 498.38768005 C85.95703552 498.38768005 236.43703552 498.38768005 391.47703552 498.38768005 C391.47703552 490.13768005 391.47703552 481.88768005 391.47703552 473.38768005 C240.99703552 473.38768005 90.51703552 473.38768005 -64.52296448 473.38768005 Z " fill="#558FCF" transform="translate(92.52296447753906,-0.3876800537109375)"/>
<path d="M0 0 C1.15947647 -0.0131424 1.15947647 -0.0131424 2.34237671 -0.02655029 C4.88898408 -0.048497 7.43384478 -0.03400976 9.98046875 -0.01708984 C11.75496757 -0.02045937 13.52946414 -0.02531313 15.30395508 -0.03158569 C19.01959243 -0.03895057 22.73462802 -0.02826427 26.45019531 -0.00488281 C31.20870359 0.02360516 35.96580186 0.00719906 40.72425842 -0.02274513 C44.3875182 -0.04082877 48.05044468 -0.03505528 51.7137146 -0.02210617 C53.46796842 -0.01877508 55.22225268 -0.02284881 56.97647095 -0.03450394 C59.43043954 -0.04723085 61.8821377 -0.02781325 64.3359375 0 C65.05816498 -0.01012115 65.78039246 -0.02024231 66.52450562 -0.03067017 C70.17867019 0.04590839 72.09123243 0.59390481 75.11703491 2.68643188 C77.68289486 6.39027296 77.87441994 9.3084136 77.81494141 13.66259766 C77.823703 14.45508911 77.8324646 15.24758057 77.8414917 16.06408691 C77.86344285 18.6756109 77.84894931 21.2854324 77.83203125 23.89697266 C77.83540064 25.71631189 77.84025429 27.53564893 77.8465271 29.35498047 C77.85389259 33.16476916 77.84320358 36.97397102 77.81982422 40.78369141 C77.79133635 45.66325591 77.8077421 50.5414454 77.83768654 55.42095947 C77.85576843 59.1768629 77.84999746 62.93244119 77.83704758 66.68835449 C77.83371602 68.48726566 77.83779188 70.2862065 77.84944534 72.08508301 C77.86216922 74.60129796 77.84275826 77.11529745 77.81494141 79.63134766 C77.83012314 80.74274109 77.83012314 80.74274109 77.84561157 81.87658691 C77.7698656 85.58143084 77.24153016 87.54078612 75.11703491 90.60751343 C71.46601788 93.13241453 68.62669155 93.3540751 64.3359375 93.29394531 C63.56295319 93.30270691 62.78996887 93.31146851 61.99356079 93.32049561 C59.44695342 93.34244231 56.90209272 93.32795508 54.35546875 93.31103516 C52.58096993 93.31440468 50.80647336 93.31925845 49.03198242 93.32553101 C45.31634507 93.33289588 41.60130948 93.32220958 37.88574219 93.29882812 C33.12723391 93.27034016 28.37013564 93.28674625 23.61167908 93.31669044 C19.9484193 93.33477408 16.28549282 93.3290006 12.6222229 93.31605148 C10.86796908 93.3127204 9.11368482 93.31679412 7.35946655 93.32844925 C4.90549796 93.34117616 2.4537998 93.32175856 0 93.29394531 C-1.08334122 93.30912704 -1.08334122 93.30912704 -2.18856812 93.32461548 C-5.84273269 93.24803692 -7.75529493 92.7000405 -10.78109741 90.60751343 C-13.34695736 86.90367235 -13.53848244 83.98553171 -13.47900391 79.63134766 C-13.4877655 78.8388562 -13.4965271 78.04636475 -13.5055542 77.2298584 C-13.52750535 74.61833441 -13.51301181 72.00851291 -13.49609375 69.39697266 C-13.49946314 67.57763342 -13.50431679 65.75829638 -13.5105896 63.93896484 C-13.51795509 60.12917615 -13.50726608 56.31997429 -13.48388672 52.51025391 C-13.45539885 47.6306894 -13.4718046 42.75249991 -13.50174904 37.87298584 C-13.51983093 34.11708241 -13.51405996 30.36150413 -13.50111008 26.60559082 C-13.49777852 24.80667965 -13.50185438 23.00773881 -13.51350784 21.2088623 C-13.52623172 18.69264735 -13.50682076 16.17864786 -13.47900391 13.66259766 C-13.48912506 12.9216687 -13.49924622 12.18073975 -13.50967407 11.4173584 C-13.4339281 7.71251447 -12.90559266 5.75315919 -10.78109741 2.68643188 C-7.13008038 0.16153079 -4.29075405 -0.06012979 0 0 Z M1.16796875 15.64697266 C1.16796875 36.43697266 1.16796875 57.22697266 1.16796875 78.64697266 C21.29796875 78.64697266 41.42796875 78.64697266 62.16796875 78.64697266 C62.16796875 57.85697266 62.16796875 37.06697266 62.16796875 15.64697266 C42.03796875 15.64697266 21.90796875 15.64697266 1.16796875 15.64697266 Z " fill="#558FCF" transform="translate(337.83203125,192.35302734375)"/>
<path d="M0 0 C1.15947647 -0.0131424 1.15947647 -0.0131424 2.34237671 -0.02655029 C4.88898408 -0.048497 7.43384478 -0.03400976 9.98046875 -0.01708984 C11.75496757 -0.02045937 13.52946414 -0.02531313 15.30395508 -0.03158569 C19.01959243 -0.03895057 22.73462802 -0.02826427 26.45019531 -0.00488281 C31.20870359 0.02360516 35.96580186 0.00719906 40.72425842 -0.02274513 C44.3875182 -0.04082877 48.05044468 -0.03505528 51.7137146 -0.02210617 C53.46796842 -0.01877508 55.22225268 -0.02284881 56.97647095 -0.03450394 C59.43043954 -0.04723085 61.8821377 -0.02781325 64.3359375 0 C65.05816498 -0.01012115 65.78039246 -0.02024231 66.52450562 -0.03067017 C70.17867019 0.04590839 72.09123243 0.59390481 75.11703491 2.68643188 C77.68289486 6.39027296 77.87441994 9.3084136 77.81494141 13.66259766 C77.823703 14.45508911 77.8324646 15.24758057 77.8414917 16.06408691 C77.86344285 18.6756109 77.84894931 21.2854324 77.83203125 23.89697266 C77.83540064 25.71631189 77.84025429 27.53564893 77.8465271 29.35498047 C77.85389259 33.16476916 77.84320358 36.97397102 77.81982422 40.78369141 C77.79133635 45.66325591 77.8077421 50.5414454 77.83768654 55.42095947 C77.85576843 59.1768629 77.84999746 62.93244119 77.83704758 66.68835449 C77.83371602 68.48726566 77.83779188 70.2862065 77.84944534 72.08508301 C77.86216922 74.60129796 77.84275826 77.11529745 77.81494141 79.63134766 C77.83012314 80.74274109 77.83012314 80.74274109 77.84561157 81.87658691 C77.7698656 85.58143084 77.24153016 87.54078612 75.11703491 90.60751343 C71.46601788 93.13241453 68.62669155 93.3540751 64.3359375 93.29394531 C63.56295319 93.30270691 62.78996887 93.31146851 61.99356079 93.32049561 C59.44695342 93.34244231 56.90209272 93.32795508 54.35546875 93.31103516 C52.58096993 93.31440468 50.80647336 93.31925845 49.03198242 93.32553101 C45.31634507 93.33289588 41.60130948 93.32220958 37.88574219 93.29882812 C33.12723391 93.27034016 28.37013564 93.28674625 23.61167908 93.31669044 C19.9484193 93.33477408 16.28549282 93.3290006 12.6222229 93.31605148 C10.86796908 93.3127204 9.11368482 93.31679412 7.35946655 93.32844925 C4.90549796 93.34117616 2.4537998 93.32175856 0 93.29394531 C-1.08334122 93.30912704 -1.08334122 93.30912704 -2.18856812 93.32461548 C-5.84273269 93.24803692 -7.75529493 92.7000405 -10.78109741 90.60751343 C-13.34695736 86.90367235 -13.53848244 83.98553171 -13.47900391 79.63134766 C-13.4877655 78.8388562 -13.4965271 78.04636475 -13.5055542 77.2298584 C-13.52750535 74.61833441 -13.51301181 72.00851291 -13.49609375 69.39697266 C-13.49946314 67.57763342 -13.50431679 65.75829638 -13.5105896 63.93896484 C-13.51795509 60.12917615 -13.50726608 56.31997429 -13.48388672 52.51025391 C-13.45539885 47.6306894 -13.4718046 42.75249991 -13.50174904 37.87298584 C-13.51983093 34.11708241 -13.51405996 30.36150413 -13.50111008 26.60559082 C-13.49777852 24.80667965 -13.50185438 23.00773881 -13.51350784 21.2088623 C-13.52623172 18.69264735 -13.50682076 16.17864786 -13.47900391 13.66259766 C-13.48912506 12.9216687 -13.49924622 12.18073975 -13.50967407 11.4173584 C-13.4339281 7.71251447 -12.90559266 5.75315919 -10.78109741 2.68643188 C-7.13008038 0.16153079 -4.29075405 -0.06012979 0 0 Z M1.16796875 15.64697266 C1.16796875 36.43697266 1.16796875 57.22697266 1.16796875 78.64697266 C21.29796875 78.64697266 41.42796875 78.64697266 62.16796875 78.64697266 C62.16796875 57.85697266 62.16796875 37.06697266 62.16796875 15.64697266 C42.03796875 15.64697266 21.90796875 15.64697266 1.16796875 15.64697266 Z " fill="#558FCE" transform="translate(109.83203125,192.35302734375)"/>
</svg>
