<?xml version="1.0" encoding="UTF-8"?>
<svg version="1.1" xmlns="http://www.w3.org/2000/svg" width="512" height="512">
<path d="M0 0 C1.14816193 -0.00101212 1.14816193 -0.00101212 2.31951904 -0.00204468 C13.36982033 0.01346523 23.89974562 0.33338153 34.625 3.25 C35.2957959 3.43224121 35.9665918 3.61448242 36.65771484 3.80224609 C62.96876523 11.11121043 85.30726228 24.09896031 104.625 43.25 C105.48738281 44.09949219 106.34976563 44.94898438 107.23828125 45.82421875 C132.40594147 72.03551401 144.84674466 107.73880028 144.875 143.625 C144.87567474 144.39044128 144.87634949 145.15588257 144.87704468 145.94451904 C144.86153477 156.99482033 144.54161847 167.52474562 141.625 178.25 C141.35163818 179.25619385 141.35163818 179.25619385 141.07275391 180.28271484 C130.23821149 219.28525726 106.21212344 250.75250533 71.07421875 270.890625 C49.11288002 283.10700263 26.34704107 288.48023961 1.25 288.5 C0.48455872 288.50067474 -0.28088257 288.50134949 -1.06951904 288.50204468 C-12.12308436 288.48653019 -22.64492455 288.15727833 -33.375 285.25 C-34.02452637 285.07839355 -34.67405273 284.90678711 -35.34326172 284.72998047 C-72.98560111 274.58748642 -104.93106756 250.63620153 -124.68945312 217.01318359 C-137.68134975 194.34433303 -143.60443004 171.0002476 -143.625 144.875 C-143.62567474 144.10955872 -143.62634949 143.34411743 -143.62704468 142.55548096 C-143.61153477 131.50517967 -143.29161847 120.97525438 -140.375 110.25 C-140.19275879 109.5792041 -140.01051758 108.9084082 -139.82275391 108.21728516 C-129.0381791 69.39461779 -105.16768807 37.97516233 -70.234375 17.83203125 C-48.35179417 5.58995706 -25.00542297 0.01968826 0 0 Z M-76.375 63.25 C-76.98859375 63.77851563 -77.6021875 64.30703125 -78.234375 64.8515625 C-92.53288139 78.12874701 -102.19695871 96.67573825 -107.375 115.25 C-107.6946875 116.33667969 -108.014375 117.42335938 -108.34375 118.54296875 C-112.60737009 135.69614401 -112.36325785 156.29394609 -107.375 173.25 C-107.0346875 174.47074219 -106.694375 175.69148437 -106.34375 176.94921875 C-97.65615965 205.50673704 -77.28257003 229.02804405 -51.22460938 243.265625 C-25.24823117 257.09043452 4.92978262 259.57937762 33.10131836 251.48535156 C49.72615969 246.28143852 64.57784823 236.61497182 77.625 225.25 C78.23859375 224.72148437 78.8521875 224.19296875 79.484375 223.6484375 C93.78288139 210.37125299 103.44695871 191.82426175 108.625 173.25 C108.9446875 172.16332031 109.264375 171.07664062 109.59375 169.95703125 C113.85737009 152.80385599 113.61325785 132.20605391 108.625 115.25 C108.2846875 114.02925781 107.944375 112.80851562 107.59375 111.55078125 C98.90615965 82.99326296 78.53257003 59.47195595 52.47460938 45.234375 C9.09280627 22.14627704 -40.28539331 31.81345581 -76.375 63.25 Z " fill="#558FCF" transform="translate(143.375,111.75)"/>
<path d="M0 0 C4.35859959 2.3130517 8.52723765 4.93749156 12.71484375 7.54296875 C14.65684753 8.73162061 16.59960259 9.9190456 18.54296875 11.10546875 C22.94667887 13.80117234 27.3411398 16.51143751 31.73046875 19.23046875 C38.69886625 23.54505634 45.70391475 27.79796196 52.71484375 32.04296875 C62.81213954 38.15979434 72.8777325 44.32591838 82.92578125 50.5234375 C90.83506999 55.39732124 98.76921375 60.22869707 106.71484375 65.04296875 C115.73606762 70.50894471 124.73709917 76.00570291 133.71484375 81.54296875 C142.75675173 87.11898423 151.81950706 92.65899772 160.90234375 98.16796875 C161.4867926 98.5225415 162.07124146 98.87711426 162.67340088 99.24243164 C167.76720995 102.33258517 172.86197776 105.42115225 177.95849609 108.50683594 C184.55479433 112.50130083 191.14213236 116.50980328 197.71484375 120.54296875 C198.46588379 121.00203613 199.21692383 121.46110352 199.99072266 121.93408203 C201.96792473 123.14756189 203.9366699 124.37342847 205.90234375 125.60546875 C206.94777344 126.25644531 207.99320313 126.90742188 209.0703125 127.578125 C212.42714175 130.07219459 214.84166396 132.79660918 216.71484375 136.54296875 C217.20387703 141.89828404 217.41948166 146.84543198 215.33984375 151.85546875 C208.53516858 158.82216 199.5451517 163.56415597 191.21484375 168.48046875 C182.40086096 173.72490332 173.62798549 179.02779864 164.90234375 184.41796875 C155.79894339 190.03744497 146.67501759 195.62099669 137.52734375 201.16796875 C136.93917877 201.52468658 136.35101379 201.88140442 135.74502563 202.24893188 C132.8365684 204.01280756 129.92786482 205.77627648 127.01904297 207.53955078 C112.90059481 216.0999162 98.81217285 224.70694449 84.75732422 233.37133789 C76.76287883 238.29476794 68.74451591 243.17733869 60.71484375 248.04296875 C51.55070045 253.5968459 42.40267989 259.17544842 33.27734375 264.79296875 C32.21636475 265.44595947 31.15538574 266.0989502 30.06225586 266.77172852 C24.87569137 269.96749857 19.69637422 273.17437821 14.52734375 276.3984375 C13.55595459 277.00333008 12.58456543 277.60822266 11.58374023 278.23144531 C9.76118722 279.36731046 7.9402862 280.5058322 6.12133789 281.64746094 C5.31817139 282.14793945 4.51500488 282.64841797 3.6875 283.1640625 C2.63961304 283.82039673 2.63961304 283.82039673 1.57055664 284.48999023 C-3.13479371 287.15992525 -8.02885344 287.22722119 -13.28515625 286.54296875 C-17.60632722 284.8609022 -20.48490406 282.59329975 -23.28515625 278.91796875 C-24.96552303 273.24673088 -25.68973354 267.64100802 -23.18359375 262.11328125 C-20.79005709 258.41417914 -17.98604842 255.1772677 -15.03515625 251.91796875 C8.15973736 225.92544543 22.69479634 187.33536716 22.91796875 152.5546875 C22.92502838 151.81821991 22.93208801 151.08175232 22.93936157 150.32296753 C23.22074486 127.75723261 23.22074486 127.75723261 19.71484375 105.54296875 C19.40087646 104.27525635 19.40087646 104.27525635 19.08056641 102.98193359 C11.772277 74.29185478 -0.89826548 49.42339638 -20.25390625 27.06640625 C-24.23591041 22.11953185 -24.73608404 18.58022414 -24.59375 12.30078125 C-24.11041034 7.98131539 -23.01095589 5.96769137 -20.28515625 2.54296875 C-13.79418351 -2.51998998 -7.6086461 -3.37458382 0 0 Z M42.71484375 65.54296875 C44.17983999 70.44763388 45.6521029 75.34880063 47.1796875 80.234375 C59.90919354 121.69680288 59.38354157 165.82077055 46.46044922 207.15185547 C45.17590741 211.27130619 43.94980578 215.40843583 42.71484375 219.54296875 C50.66396112 215.40918275 58.24615435 210.78927682 65.84570312 206.05126953 C73.33076678 201.38799717 80.85847259 196.79771263 88.40234375 192.23046875 C98.592567 186.05818723 108.75225896 179.83866739 118.89160156 173.58300781 C124.64257833 170.03841371 130.40302754 166.510346 136.1796875 163.0078125 C136.80517487 162.62855621 137.43066223 162.24929993 138.07510376 161.85855103 C141.08715286 160.03305342 144.10043314 158.20962044 147.11523438 156.38867188 C154.0413372 152.19709403 160.90573426 147.92214399 167.71484375 143.54296875 C166.51280058 139.93683924 165.75172843 139.69223464 162.54296875 137.86328125 C161.6619751 137.3535376 160.78098145 136.84379395 159.87329102 136.31860352 C158.91350342 135.77389404 157.95371582 135.22918457 156.96484375 134.66796875 C154.9363973 133.49409088 152.90907941 132.31826105 150.8828125 131.140625 C149.84946777 130.54137207 148.81612305 129.94211914 147.75146484 129.32470703 C143.21212434 126.66124771 138.74200125 123.89176711 134.27734375 121.10546875 C127.05173116 116.60614449 119.80347072 112.14767275 112.52734375 107.73046875 C104.34233582 102.75991148 96.17840293 97.75649369 88.02734375 92.73046875 C79.10448244 87.23224342 70.16933439 81.75480336 61.21469116 76.3085022 C59.97463858 75.55413604 58.73490736 74.79924133 57.49551392 74.04379272 C55.77013116 72.99241832 54.04329859 71.9434243 52.31640625 70.89453125 C51.32979004 70.29463379 50.34317383 69.69473633 49.32666016 69.07666016 C47.15491597 67.80138469 44.98471866 66.63054717 42.71484375 65.54296875 Z " fill="#558FCF" transform="translate(295.28515625,113.45703125)"/>
<path d="M0 0 C0.73250977 -0.00700928 1.46501953 -0.01401855 2.21972656 -0.02124023 C4.62604382 -0.03875584 7.03117209 -0.02722142 9.4375 -0.01367188 C11.11849186 -0.01636866 12.79948221 -0.02025264 14.48046875 -0.02526855 C17.99754743 -0.03115485 21.5142188 -0.02262896 25.03125 -0.00390625 C29.53052189 0.01888312 34.02883927 0.00575532 38.52807617 -0.01819611 C41.99746847 -0.03267779 45.46663594 -0.02803731 48.93603516 -0.01768494 C50.59456496 -0.01502418 52.25311544 -0.01826444 53.91162109 -0.02760315 C56.23329421 -0.03780834 58.55344011 -0.02221466 60.875 0 C62.19371094 0.00318237 63.51242188 0.00636475 64.87109375 0.00964355 C70.16529367 0.76365389 73.1949097 3.20958834 76.8125 7.01757812 C79.21053575 12.18257821 79.19131535 16.91780692 78.4375 22.51757812 C76.28305649 27.157918 73.2154191 30.55355861 68.4375 32.51757812 C64.30017946 33.06608908 60.20615786 32.98299799 56.0390625 32.90820312 C54.84896576 32.90254333 53.65886902 32.89688354 52.43270874 32.89105225 C48.64222514 32.86871264 44.85269655 32.81851775 41.0625 32.76757812 C38.48829493 32.74751014 35.914075 32.72925989 33.33984375 32.71289062 C27.0384011 32.67226237 20.73901595 32.59396014 14.4375 32.51757812 C14.4375 43.07757813 14.4375 53.63757813 14.4375 64.51757812 C18.26601562 64.47117188 22.09453125 64.42476562 26.0390625 64.37695312 C29.75242792 64.34574642 33.46577867 64.32146482 37.17919922 64.29785156 C39.75739088 64.2777525 42.33553704 64.25046871 44.91357422 64.21582031 C48.62218461 64.16722966 52.33019156 64.14459155 56.0390625 64.12695312 C57.18927887 64.10630798 58.33949524 64.08566284 59.52456665 64.06439209 C65.82602193 64.06263038 69.67354813 64.23874376 74.4375 68.51757812 C78.06583663 72.33687985 78.74750458 75.40036819 78.9375 80.51757812 C78.74750458 85.63478806 78.06583663 88.6982764 74.4375 92.51757812 C68.81681362 97.56590496 63.33505008 97.03915822 56.0390625 96.90820312 C54.84896576 96.90254333 53.65886902 96.89688354 52.43270874 96.89105225 C48.64222514 96.86871264 44.85269655 96.81851775 41.0625 96.76757812 C38.48829493 96.74751014 35.914075 96.72925989 33.33984375 96.71289062 C27.0384011 96.67226237 20.73901595 96.59396014 14.4375 96.51757812 C14.4375 107.07757813 14.4375 117.63757813 14.4375 128.51757812 C18.26601562 128.47117187 22.09453125 128.42476563 26.0390625 128.37695312 C29.75242792 128.34574642 33.46577867 128.32146482 37.17919922 128.29785156 C39.75739088 128.2777525 42.33553704 128.25046871 44.91357422 128.21582031 C48.62218461 128.16722966 52.33019156 128.14459155 56.0390625 128.12695312 C57.18927887 128.10630798 58.33949524 128.08566284 59.52456665 128.06439209 C65.82602193 128.06263038 69.67354813 128.23874376 74.4375 132.51757812 C78.06583663 136.33687985 78.74750458 139.40036819 78.9375 144.51757812 C78.74750458 149.63478806 78.06583663 152.6982764 74.4375 156.51757812 C69.80618623 160.19368343 66.75511243 161.0209661 60.875 161.03515625 C60.14249023 161.04216553 59.40998047 161.0491748 58.65527344 161.05639648 C56.24895618 161.07391209 53.84382791 161.06237767 51.4375 161.04882812 C49.75650814 161.05152491 48.07551779 161.05540889 46.39453125 161.0604248 C42.87745257 161.0663111 39.3607812 161.05778521 35.84375 161.0390625 C31.34447811 161.01627313 26.84616073 161.02940093 22.34692383 161.05335236 C18.87753153 161.06783404 15.40836406 161.06319356 11.93896484 161.05284119 C10.28043504 161.05018043 8.62188456 161.05342069 6.96337891 161.0627594 C4.64170579 161.07296459 2.32155989 161.05737091 0 161.03515625 C-1.31871094 161.03197388 -2.63742188 161.0287915 -3.99609375 161.0255127 C-9.38378219 160.25818754 -12.18105686 157.93882837 -15.90515137 154.10742188 C-18.47844663 148.53362301 -18.11851451 143.14728982 -18.08007812 137.08007812 C-18.085503 135.70962787 -18.09262771 134.33918344 -18.10131836 132.96875 C-18.11951167 129.25793077 -18.11250102 125.54755772 -18.09980202 121.83673096 C-18.08965349 117.94778264 -18.09907283 114.05887174 -18.10534668 110.16992188 C-18.11261772 103.63990441 -18.10304976 97.11006807 -18.08398438 90.58007812 C-18.06221654 83.03752628 -18.0692683 75.49540697 -18.09129 67.9528656 C-18.10945959 61.46943975 -18.11199474 54.98614389 -18.10153532 48.50270081 C-18.09530891 44.63372714 -18.09444111 40.76495659 -18.10768127 36.89599609 C-18.11926204 33.25801411 -18.11117426 29.62058813 -18.08810425 25.98266602 C-18.08031847 24.01579547 -18.09215409 22.04887774 -18.10461426 20.08203125 C-17.99925167 9.08217742 -17.99925167 9.08217742 -13.5625 4.51757812 C-9.03823413 0.70142191 -5.8581698 0.0141372 0 0 Z " fill="#558ECF" transform="translate(113.5625,175.482421875)"/>
</svg>
