<?xml version="1.0" encoding="UTF-8"?>
<svg version="1.1" xmlns="http://www.w3.org/2000/svg" width="512" height="512">
<path d="M0 0 C31.10801985 28.14573358 46.75319728 64.66392857 49.1875 106.19921875 C50.02783641 143.85679428 35.28861974 181.0832633 9.51879883 208.38549805 C8.0239489 209.93538768 6.51599546 211.47080873 5 213 C4.15050781 213.86238281 3.30101562 214.72476563 2.42578125 215.61328125 C-23.78551401 240.78094147 -59.48880028 253.22174466 -95.375 253.25 C-96.14044128 253.25067474 -96.90588257 253.25134949 -97.69451904 253.25204468 C-108.74808436 253.23653019 -119.26992455 252.90727833 -130 250 C-130.64952637 249.82839355 -131.29905273 249.65678711 -131.96826172 249.47998047 C-169.93631015 239.24972615 -202.08201667 214.9030917 -222 181 C-240.97613323 146.97314987 -246.23665987 106.80976464 -235.64794922 69.18310547 C-228.64629179 45.59274349 -216.89757834 25.87631371 -200 8 C-199.25363281 7.18917969 -198.50726563 6.37835938 -197.73828125 5.54296875 C-145.80371715 -48.96686299 -55.30403039 -48.66754674 0 0 Z M-175 30 C-175.60328125 30.53882813 -176.2065625 31.07765625 -176.828125 31.6328125 C-196.34157126 49.77849383 -206.41275019 77.94587502 -208 104 C-208.06380859 105.03833984 -208.06380859 105.03833984 -208.12890625 106.09765625 C-209.00403521 136.37711811 -196.74639606 164.73244004 -176.37646484 186.66650391 C-162.12483342 201.39138217 -144.56819944 211.26152509 -125 217 C-123.87078125 217.3403125 -122.7415625 217.680625 -121.578125 218.03125 C-104.50212436 222.28057735 -83.87118278 221.96328983 -67 217 C-65.77925781 216.6596875 -64.55851563 216.319375 -63.30078125 215.96875 C-34.94797209 207.34343498 -11.05201006 187.00060074 3 161 C17.29781064 132.75435062 19.33457654 102.58134589 9.90625 72.51171875 C-0.40007853 43.99522191 -20.67590365 21.08934209 -47.88208008 7.69970703 C-91.81340712 -12.86705562 -140.28661875 -2.6784589 -175 30 Z " fill="#558FCF" transform="translate(352,259)"/>
<path d="M0 0 C1.02867187 -0.02578125 2.05734375 -0.0515625 3.1171875 -0.078125 C7.91769557 0.44556679 10.26057705 2.33949311 13.54296875 5.796875 C16.9270518 10.08785545 19.64436752 14.81393495 22.4375 19.5 C23.68680089 21.5746399 24.93682829 23.64884244 26.1875 25.72265625 C26.83460938 26.79789551 27.48171875 27.87313477 28.1484375 28.98095703 C31.37716159 34.32095402 34.65890688 39.62803091 37.9375 44.9375 C43.89917535 54.60633235 49.81066846 64.30433128 55.69692993 74.01913452 C60.80628928 82.4501666 65.94966753 90.85922429 71.125 99.25 C77.02462187 108.81506741 82.87417218 118.4090798 88.69775391 128.02050781 C93.80684001 136.45108178 98.95001688 144.85963587 104.125 153.25 C111.47933129 165.17557428 118.75663932 177.14664516 126.01812744 189.12884521 C128.43091207 193.10889661 130.85053933 197.08469544 133.2734375 201.05859375 C133.9236084 202.12505127 134.5737793 203.19150879 135.24365234 204.2902832 C136.46992239 206.30091414 137.69678169 208.31118585 138.92431641 210.32104492 C139.46491699 211.20767822 140.00551758 212.09431152 140.5625 213.0078125 C141.03558594 213.7827002 141.50867188 214.55758789 141.99609375 215.35595703 C144.85648083 220.15502341 144.68496818 224.75142359 144.125 230.25 C141.66932448 235.25230198 138.1279693 238.74851535 133.125 241.25 C130.98828125 241.48828125 130.98828125 241.48828125 128.4375 241.5625 C127.19419922 241.61857422 127.19419922 241.61857422 125.92578125 241.67578125 C119.55694066 240.70757536 114.99578466 236.44617202 110.375 232.25 C77.74445067 203.79616098 32.87675655 191.19844512 -9.875 193.25 C-47.44725346 196.03151661 -81.77382808 209.05087715 -110.8125 233.125 C-117.22638734 238.40757485 -121.85873522 242.01750255 -130.51171875 241.63671875 C-135.35743368 240.84378358 -138.04487823 238.19230039 -141.1875 234.625 C-144.71062079 229.66653371 -144.82678394 225.20586008 -143.875 219.25 C-142.05826124 215.00738067 -139.68963317 211.18886781 -137.20117188 207.31835938 C-135.79045942 205.11814658 -134.41594234 202.89822607 -133.046875 200.671875 C-130.89301582 197.17194032 -128.72742912 193.67964863 -126.5546875 190.19140625 C-122.50843263 183.67805682 -118.53414105 177.12146821 -114.5625 170.5625 C-109.0346868 161.43669361 -103.47649723 152.33086879 -97.875 143.25 C-92.33761892 134.27232716 -86.84097543 125.27122299 -81.375 116.25 C-75.2573352 106.15320776 -69.09205589 96.0871202 -62.89453125 86.0390625 C-58.02064566 78.12977076 -53.18951729 70.19548341 -48.375 62.25 C-40.84638545 49.82771053 -33.26049216 37.44217737 -25.62304688 25.08642578 C-24.01572759 22.47834821 -22.41984105 19.86371224 -20.828125 17.24609375 C-19.94805124 15.80981337 -19.06785419 14.37360851 -18.1875 12.9375 C-17.81375244 12.31584961 -17.44000488 11.69419922 -17.05493164 11.05371094 C-12.47319376 3.62477271 -8.79708939 0.13162727 0 0 Z M-0.875 48.25 C-2.3308707 50.21846608 -2.3308707 50.21846608 -3.7890625 52.8046875 C-4.37671387 53.79831299 -4.96436523 54.79193848 -5.56982422 55.81567383 C-6.20678223 56.90775146 -6.84374023 57.9998291 -7.5 59.125 C-8.86843104 61.4396232 -10.23818521 63.75342066 -11.609375 66.06640625 C-12.13862076 66.96159218 -12.13862076 66.96159218 -12.67855835 67.87486267 C-16.29481235 73.9832609 -20.01579021 80.02560482 -23.75 86.0625 C-29.33134674 95.10136639 -34.87071283 104.16412383 -40.375 113.25 C-45.96689776 122.47896819 -51.58969004 131.68779843 -57.25 140.875 C-57.90742188 141.94298828 -58.56484375 143.01097656 -59.2421875 144.11132812 C-62.26090212 149.01369633 -65.28498912 153.91258475 -68.3203125 158.8046875 C-69.33861379 160.45308045 -70.35684776 162.10151499 -71.375 163.75 C-72.06988525 164.8630249 -72.06988525 164.8630249 -72.77880859 165.99853516 C-75.07816821 169.37320695 -75.07816821 169.37320695 -75.875 173.25 C-74.41648119 172.85485063 -72.95820674 172.45879943 -71.5 172.0625 C-69.98019531 171.65257812 -69.98019531 171.65257812 -68.4296875 171.234375 C-65.92415028 170.54053392 -63.434813 169.82461278 -60.9453125 169.078125 C-45.12769953 164.40258174 -28.41165933 160.71202541 -11.875 160.25 C-11.08174316 160.22421875 -10.28848633 160.1984375 -9.47119141 160.171875 C18.28703162 159.37835781 45.19599482 163.0293151 71.38671875 172.33203125 C73.95970478 173.35595012 73.95970478 173.35595012 76.125 173.25 C74.7840468 169.66785368 73.18529065 166.48046316 71.2109375 163.20703125 C70.62328613 162.22951904 70.03563477 161.25200684 69.43017578 160.24487305 C68.47473877 158.66959839 68.47473877 158.66959839 67.5 157.0625 C66.83339355 155.95753174 66.16678711 154.85256348 65.47998047 153.71411133 C60.12209441 144.84287674 54.69299442 136.01545349 49.24951172 127.1965332 C44.33788851 119.23633671 39.47126125 111.25005428 34.625 103.25 C28.33386527 92.86520748 21.99674722 82.51016166 15.61279297 72.18212891 C12.76822911 67.57435219 9.93741661 62.96260511 7.1953125 58.29296875 C6.77314453 57.57536377 6.35097656 56.85775879 5.91601562 56.1184082 C5.16573462 54.8357356 4.42171383 53.54936978 3.68554688 52.25854492 C2.88570046 50.88956135 2.01346856 49.56319988 1.125 48.25 C0.465 48.25 -0.195 48.25 -0.875 48.25 Z " fill="#558FCF" transform="translate(255.875,-0.25)"/>
<path d="M0 0 C7.48945943 6.67538776 11.41409364 17.36869765 15.8046875 26.2265625 C16.44594626 27.51282049 17.08756461 28.79889925 17.72952271 30.08480835 C19.40001603 33.4333501 21.06568638 36.78426739 22.73028564 40.13574219 C24.43701558 43.56983769 26.14840389 47.00160994 27.859375 50.43359375 C31.20242151 57.14099295 34.54036472 63.85091441 37.875 70.5625 C37.87864563 69.79908295 37.88229126 69.03566589 37.88604736 68.24911499 C37.92398025 61.03978985 37.98089207 53.83097845 38.05890274 46.62198448 C38.09834168 42.91610366 38.13054734 39.21045916 38.14599609 35.50439453 C38.1611869 31.92496573 38.19567373 28.34618676 38.24330902 24.76704788 C38.25809816 23.40443204 38.26603961 22.0417234 38.26688385 20.67902756 C38.28323314 7.51711277 38.28323314 7.51711277 42.875 2.5625 C43.926875 1.4178125 43.926875 1.4178125 45 0.25 C49.18465092 -2.20620815 53.06136466 -2.61829382 57.875 -2.4375 C63.62312672 -0.83556304 66.5572154 1.63322003 69.875 6.5625 C72.35719951 13.01873351 72.15730531 19.32873856 72.13378906 26.1796875 C72.1372937 27.43742981 72.14079834 28.69517212 72.14440918 29.99102783 C72.15348941 33.42489771 72.15000706 36.85864676 72.14365101 40.29251862 C72.13856832 43.89537366 72.14328875 47.49821874 72.14642334 51.10107422 C72.15005639 57.15008389 72.14528127 63.19904464 72.13574219 69.24804688 C72.12485889 76.22983916 72.12838494 83.21151461 72.139395 90.19330406 C72.14848674 96.20030908 72.14974393 102.20727903 72.14451766 108.21428871 C72.14140832 111.79650409 72.14096001 115.37866466 72.14759064 118.96087646 C72.15446931 122.95575825 72.14492058 126.95044031 72.13378906 130.9453125 C72.13783752 132.12474426 72.14188599 133.30417603 72.14605713 134.51934814 C72.10372529 142.72613009 71.88571526 149.38005002 65.875 155.5625 C61.85029499 159.09936197 57.73344081 159.08094349 52.58984375 158.89453125 C48.44987714 158.3882044 45.93548772 157.38907012 42.875 154.5625 C37.71351233 147.21954908 33.92034623 138.91792476 29.9453125 130.8984375 C29.30405374 129.61217951 28.66243539 128.32610075 28.02047729 127.04019165 C26.34998397 123.6916499 24.68431362 120.34073261 23.01971436 116.98925781 C21.31298442 113.55516231 19.60159611 110.12339006 17.890625 106.69140625 C14.54757849 99.98400705 11.20963528 93.27408559 7.875 86.5625 C7.87135437 87.32591705 7.86770874 88.08933411 7.86395264 88.87588501 C7.82601975 96.08521015 7.76910793 103.29402155 7.69109726 110.50301552 C7.65165832 114.20889634 7.61945266 117.91454084 7.60400391 121.62060547 C7.5888131 125.20003427 7.55432627 128.77881324 7.50669098 132.35795212 C7.49190184 133.72056796 7.48396039 135.0832766 7.48311615 136.44597244 C7.4667092 149.6543037 7.4667092 149.6543037 2.875 154.5625 C-0.94430172 158.19083663 -4.00779006 158.87250458 -9.125 159.0625 C-14.24220994 158.87250458 -17.30569828 158.19083663 -21.125 154.5625 C-25.37250448 149.16702134 -26.24420786 144.81338097 -26.26544189 138.08648682 C-26.27400711 136.45492645 -26.27400711 136.45492645 -26.28274536 134.79040527 C-26.28386322 133.60692505 -26.28498108 132.42344482 -26.28613281 131.20410156 C-26.29109772 129.94986389 -26.29606262 128.69562622 -26.30117798 127.40338135 C-26.31326507 123.96928279 -26.32073917 120.53524496 -26.32518864 117.10113239 C-26.32812601 114.95238549 -26.33223207 112.80364384 -26.33669281 110.6548996 C-26.35035763 103.92249968 -26.36002908 97.19011188 -26.3638947 90.45769906 C-26.36837218 82.70375294 -26.3859098 74.94998339 -26.4148953 67.19609094 C-26.43655973 61.19079999 -26.44660153 55.18555854 -26.44793582 49.18022895 C-26.44898051 45.59898816 -26.4548161 42.01791358 -26.47275543 38.43671417 C-26.4924015 34.43719384 -26.48792826 30.43803995 -26.48144531 26.43847656 C-26.4906601 25.26309326 -26.49987488 24.08770996 -26.5093689 22.87670898 C-26.47468546 16.03246994 -26.39788868 8.51449686 -21.81462479 2.98022842 C-15.09958799 -3.07812893 -7.9258726 -3.6459014 0 0 Z " fill="#558FCF" transform="translate(233.125,289.4375)"/>
</svg>
