<?xml version="1.0" encoding="UTF-8"?>
<svg version="1.1" xmlns="http://www.w3.org/2000/svg" width="512" height="512">
<path d="M0 0 C1.14816193 -0.00101212 1.14816193 -0.00101212 2.31951904 -0.00204468 C13.36982033 0.01346523 23.89974562 0.33338153 34.625 3.25 C35.2957959 3.43224121 35.9665918 3.61448242 36.65771484 3.80224609 C62.96876523 11.11121043 85.30726228 24.09896031 104.625 43.25 C105.48738281 44.09949219 106.34976563 44.94898438 107.23828125 45.82421875 C132.40594147 72.03551401 144.84674466 107.73880028 144.875 143.625 C144.87567474 144.39044128 144.87634949 145.15588257 144.87704468 145.94451904 C144.86153477 156.99482033 144.54161847 167.52474562 141.625 178.25 C141.35163818 179.25619385 141.35163818 179.25619385 141.07275391 180.28271484 C130.23821149 219.28525726 106.21212344 250.75250533 71.07421875 270.890625 C49.11288002 283.10700263 26.34704107 288.48023961 1.25 288.5 C0.48455872 288.50067474 -0.28088257 288.50134949 -1.06951904 288.50204468 C-12.12308436 288.48653019 -22.64492455 288.15727833 -33.375 285.25 C-34.02452637 285.07839355 -34.67405273 284.90678711 -35.34326172 284.72998047 C-72.98560111 274.58748642 -104.93106756 250.63620153 -124.68945312 217.01318359 C-137.68134975 194.34433303 -143.60443004 171.0002476 -143.625 144.875 C-143.62567474 144.10955872 -143.62634949 143.34411743 -143.62704468 142.55548096 C-143.61153477 131.50517967 -143.29161847 120.97525438 -140.375 110.25 C-140.19275879 109.5792041 -140.01051758 108.9084082 -139.82275391 108.21728516 C-129.0381791 69.39461779 -105.16768807 37.97516233 -70.234375 17.83203125 C-48.35179417 5.58995706 -25.00542297 0.01968826 0 0 Z M-76.375 63.25 C-76.98859375 63.77851562 -77.6021875 64.30703125 -78.234375 64.8515625 C-92.53288139 78.12874701 -102.19695871 96.67573825 -107.375 115.25 C-107.6946875 116.33667969 -108.014375 117.42335938 -108.34375 118.54296875 C-112.60737009 135.69614401 -112.36325785 156.29394609 -107.375 173.25 C-107.0346875 174.47074219 -106.694375 175.69148437 -106.34375 176.94921875 C-97.65615965 205.50673704 -77.28257003 229.02804405 -51.22460938 243.265625 C-25.24823117 257.09043452 4.92978262 259.57937762 33.10131836 251.48535156 C49.72615969 246.28143852 64.57784823 236.61497182 77.625 225.25 C78.23859375 224.72148437 78.8521875 224.19296875 79.484375 223.6484375 C93.78288139 210.37125299 103.44695871 191.82426175 108.625 173.25 C108.9446875 172.16332031 109.264375 171.07664063 109.59375 169.95703125 C113.85737009 152.80385599 113.61325785 132.20605391 108.625 115.25 C108.2846875 114.02925781 107.944375 112.80851562 107.59375 111.55078125 C98.90615965 82.99326296 78.53257003 59.47195595 52.47460938 45.234375 C9.09280627 22.14627704 -40.28539331 31.81345581 -76.375 63.25 Z " fill="#558FCF" transform="translate(255.375,-0.24999999999999997)"/>
<path d="M0 0 C3.34585955 2.14743349 6.29781749 4.64740359 9.3046875 7.2421875 C42.16246157 35.54139676 87.37771646 49.52302614 130.5390625 46.73242188 C170.02831307 43.41371576 205.28172193 28.92618603 235.1875 3.03515625 C240.1343744 -0.94684791 243.67368211 -1.44702154 249.953125 -1.3046875 C254.27259086 -0.82134784 256.28621488 0.27810661 259.7109375 3.00390625 C263.17376561 7.44342947 264.68251511 11.3916612 264.38671875 17.0625 C262.78760022 24.02282518 258.44059031 30.0094892 254.7109375 36.00390625 C253.52228564 37.94591003 252.33486065 39.88866509 251.1484375 41.83203125 C248.45273391 46.23574137 245.74246874 50.6302023 243.0234375 55.01953125 C238.70884991 61.98792875 234.45594429 68.99297725 230.2109375 76.00390625 C224.09411191 86.10120204 217.92798787 96.166795 211.73046875 106.21484375 C206.85658501 114.12413249 202.02520918 122.05827625 197.2109375 130.00390625 C191.74496154 139.02513012 186.24820334 148.02616167 180.7109375 157.00390625 C175.13492202 166.04581423 169.59490853 175.10856956 164.0859375 184.19140625 C163.73136475 184.7758551 163.37679199 185.36030396 163.01147461 185.96246338 C159.92132108 191.05627245 156.832754 196.15104026 153.74707031 201.24755859 C149.75260542 207.84385683 145.74410297 214.43119486 141.7109375 221.00390625 C141.25187012 221.75494629 140.79280273 222.50598633 140.31982422 223.27978516 C139.10634436 225.25698723 137.88047778 227.2257324 136.6484375 229.19140625 C135.99746094 230.23683594 135.34648437 231.28226563 134.67578125 232.359375 C132.18171166 235.71620425 129.45729707 238.13072646 125.7109375 240.00390625 C120.35562221 240.49293953 115.40847427 240.70854416 110.3984375 238.62890625 C103.75682501 232.14174987 99.20225978 223.67775293 94.5859375 215.69140625 C90.24074688 208.2566383 85.82540276 200.87648619 81.2734375 193.56640625 C76.77489352 186.34030264 72.31564719 179.09254259 67.8984375 171.81640625 C62.92788109 163.63139973 57.92465546 155.46734546 52.8984375 147.31640625 C46.93741388 137.647168 41.02527214 127.94958009 35.13900757 118.23477173 C30.02964822 109.80373965 24.88626997 101.39468196 19.7109375 93.00390625 C13.81592353 83.44630964 7.96861157 73.86113161 2.15228271 64.2555542 C-1.81099572 57.71076855 -5.7897975 51.17643774 -9.8125 44.66796875 C-10.1802655 44.07256287 -10.54803101 43.47715698 -10.92694092 42.8637085 C-12.68147931 40.02409968 -14.43906 37.18648458 -16.20117188 34.3515625 C-16.82572266 33.34222656 -17.45027344 32.33289063 -18.09375 31.29296875 C-18.64015137 30.41334473 -19.18655273 29.5337207 -19.74951172 28.62744141 C-23.5291175 22.18664791 -25.51041221 17.48179268 -24.2890625 10.00390625 C-22.58465272 5.68461138 -20.34735182 2.81022192 -16.6640625 0.00390625 C-11.07481833 -1.6521661 -5.48487307 -2.38676217 0 0 Z M42.7109375 66.00390625 C46.79825353 73.97323932 51.467682 81.54011305 56.20263672 89.13476562 C60.86590908 96.61982928 65.45619362 104.14753509 70.0234375 111.69140625 C76.19571902 121.8816295 82.41523886 132.04132146 88.67089844 142.18066406 C92.21549254 147.93164083 95.74356025 153.69209004 99.24609375 159.46875 C99.62535004 160.09423737 100.00460632 160.71972473 100.39535522 161.36416626 C102.22085283 164.37621536 104.04428581 167.38949564 105.86523438 170.40429688 C110.05681222 177.3303997 114.33176226 184.19479676 118.7109375 191.00390625 C122.31706701 189.80186308 122.56167161 189.04079093 124.390625 185.83203125 C124.90036865 184.9510376 125.4101123 184.07004395 125.93530273 183.16235352 C126.48001221 182.20256592 127.02472168 181.24277832 127.5859375 180.25390625 C128.75981537 178.2254598 129.9356452 176.19814191 131.11328125 174.171875 C131.71253418 173.13853027 132.31178711 172.10518555 132.92919922 171.04052734 C135.59265854 166.50118684 138.36213914 162.03106375 141.1484375 157.56640625 C145.64776176 150.34079366 150.1062335 143.09253322 154.5234375 135.81640625 C159.4939955 127.63139711 164.4975832 119.46757137 169.5234375 111.31640625 C175.03310853 102.37116553 180.53280744 93.41989294 186.00033569 84.44882202 C186.76101802 83.20161519 187.52274448 81.95504454 188.28555298 80.70913696 C189.34561964 78.97713816 190.40142386 77.24253271 191.45703125 75.5078125 C192.36473267 74.02003296 192.36473267 74.02003296 193.29077148 72.50219727 C194.81993902 70.00009294 194.81993902 70.00009294 195.7109375 67.00390625 C190.65003872 68.01608601 185.74758646 69.27010859 180.81030273 70.78125 C172.49733054 73.31973411 164.25104118 75.34261561 155.66308594 76.6953125 C153.81397183 76.98761868 151.9692725 77.30746442 150.125 77.62890625 C116.20852848 82.66392883 79.21358569 79.25225816 47.23046875 66.921875 C44.84466878 65.88979698 44.84466878 65.88979698 42.7109375 66.00390625 Z " fill="#558FCF" transform="translate(136.2890625,271.99609375)"/>
<path d="M0 0 C1.03703064 -0.00524185 2.07406128 -0.0104837 3.14251709 -0.0158844 C5.31733306 -0.02226477 7.49218373 -0.02101977 9.66699219 -0.01245117 C12.98955279 -0.00389291 16.31041906 -0.03283696 19.6328125 -0.06445312 C21.75520782 -0.06606424 23.87760617 -0.06548932 26 -0.0625 C27.48140472 -0.07935097 27.48140472 -0.07935097 28.99273682 -0.09654236 C34.76113657 -0.03824756 38.18423618 0.53046422 42.734375 4.43359375 C46.36271163 8.25289547 47.04437958 11.31638381 47.234375 16.43359375 C47.04437958 21.55080369 46.36271163 24.61429203 42.734375 28.43359375 C37.76550097 32.47547717 34.28952138 33.00254852 28.15234375 32.9375 C27.33872879 32.94692123 26.52511383 32.95634247 25.68684387 32.96604919 C23.09826251 32.9945861 20.51060043 32.99778305 17.921875 32.99609375 C15.34399538 32.99972082 12.76678371 33.00948377 10.18904114 33.03684998 C8.59072648 33.05341972 6.99219348 33.05668968 5.3938446 33.0438385 C-0.1641944 33.09548689 -5.20525399 34.05047821 -10.265625 36.43359375 C-14.85711389 41.13986986 -15.62061681 44.50274099 -15.546875 50.890625 C-15.13381256 54.62539793 -13.75688168 56.67301203 -11.265625 59.43359375 C-6.82539173 62.80146879 -2.44365814 63.20236741 2.921875 63.87109375 C17.950043 66.02895534 27.96778856 71.37211718 37.9453125 83.0390625 C46.85086986 94.95850936 47.88940112 108.06814099 46.734375 122.43359375 C44.50408591 134.81370143 36.58092436 145.81376786 26.421875 153.08984375 C17.18369423 158.97918399 8.33922801 160.89976697 -2.53125 160.8671875 C-4.08679596 160.87505028 -4.08679596 160.87505028 -5.67376709 160.8830719 C-7.84858306 160.88945227 -10.02343373 160.88820727 -12.19824219 160.87963867 C-15.52080279 160.87108041 -18.84166906 160.90002446 -22.1640625 160.93164062 C-24.28645782 160.93325174 -26.40885617 160.93267682 -28.53125 160.9296875 C-30.01265472 160.94653847 -30.01265472 160.94653847 -31.52398682 160.96372986 C-37.29238657 160.90543506 -40.71548618 160.33672328 -45.265625 156.43359375 C-48.89396163 152.61429203 -49.57562958 149.55080369 -49.765625 144.43359375 C-49.57562958 139.31638381 -48.89396163 136.25289547 -45.265625 132.43359375 C-40.29675097 128.39171033 -36.82077138 127.86463898 -30.68359375 127.9296875 C-29.86997879 127.92026627 -29.05636383 127.91084503 -28.21809387 127.90113831 C-25.62951251 127.8726014 -23.04185043 127.86940445 -20.453125 127.87109375 C-17.87524538 127.86746668 -15.29803371 127.85770373 -12.72029114 127.83033752 C-11.12197648 127.81376778 -9.52344348 127.81049782 -7.9250946 127.823349 C-2.3670556 127.77170061 2.67400399 126.81670929 7.734375 124.43359375 C12.32586389 119.72731764 13.08936681 116.36444651 13.015625 109.9765625 C12.60256256 106.24178957 11.22563168 104.19417547 8.734375 101.43359375 C4.29414173 98.06571871 -0.08759186 97.66482009 -5.453125 96.99609375 C-20.481293 94.83823216 -30.49903856 89.49507032 -40.4765625 77.828125 C-49.38211986 65.90867814 -50.42065112 52.79904651 -49.265625 38.43359375 C-47.03533591 26.05348607 -39.11217436 15.05341964 -28.953125 7.77734375 C-19.71494423 1.88800351 -10.87047801 -0.03257947 0 0 Z " fill="#558FCF" transform="translate(257.265625,63.56640625)"/>
</svg>
