<?xml version="1.0" encoding="UTF-8"?>
<svg version="1.1" xmlns="http://www.w3.org/2000/svg" width="512" height="512">
<path d="M0 0 C1.14816193 -0.00101212 1.14816193 -0.00101212 2.31951904 -0.00204468 C13.36982033 0.01346523 23.89974562 0.33338153 34.625 3.25 C35.2957959 3.43224121 35.9665918 3.61448242 36.65771484 3.80224609 C62.96876523 11.11121043 85.30726228 24.09896031 104.625 43.25 C105.48738281 44.09949219 106.34976563 44.94898438 107.23828125 45.82421875 C132.40594147 72.03551401 144.84674466 107.73880028 144.875 143.625 C144.87567474 144.39044128 144.87634949 145.15588257 144.87704468 145.94451904 C144.86153477 156.99482033 144.54161847 167.52474562 141.625 178.25 C141.35163818 179.25619385 141.35163818 179.25619385 141.07275391 180.28271484 C130.23821149 219.28525726 106.21212344 250.75250533 71.07421875 270.890625 C49.11288002 283.10700263 26.34704107 288.48023961 1.25 288.5 C0.48455872 288.50067474 -0.28088257 288.50134949 -1.06951904 288.50204468 C-12.12308436 288.48653019 -22.64492455 288.15727833 -33.375 285.25 C-34.02452637 285.07839355 -34.67405273 284.90678711 -35.34326172 284.72998047 C-72.98560111 274.58748642 -104.93106756 250.63620153 -124.68945312 217.01318359 C-137.68134975 194.34433303 -143.60443004 171.0002476 -143.625 144.875 C-143.62567474 144.10955872 -143.62634949 143.34411743 -143.62704468 142.55548096 C-143.61153477 131.50517967 -143.29161847 120.97525438 -140.375 110.25 C-140.19275879 109.5792041 -140.01051758 108.9084082 -139.82275391 108.21728516 C-129.0381791 69.39461779 -105.16768807 37.97516233 -70.234375 17.83203125 C-48.35179417 5.58995706 -25.00542297 0.01968826 0 0 Z M-76.375 63.25 C-76.98859375 63.77851563 -77.6021875 64.30703125 -78.234375 64.8515625 C-92.53288139 78.12874701 -102.19695871 96.67573825 -107.375 115.25 C-107.6946875 116.33667969 -108.014375 117.42335938 -108.34375 118.54296875 C-112.60737009 135.69614401 -112.36325785 156.29394609 -107.375 173.25 C-107.0346875 174.47074219 -106.694375 175.69148437 -106.34375 176.94921875 C-97.65615965 205.50673704 -77.28257003 229.02804405 -51.22460938 243.265625 C-25.24823117 257.09043452 4.92978262 259.57937762 33.10131836 251.48535156 C49.72615969 246.28143852 64.57784823 236.61497182 77.625 225.25 C78.23859375 224.72148437 78.8521875 224.19296875 79.484375 223.6484375 C93.78288139 210.37125299 103.44695871 191.82426175 108.625 173.25 C108.9446875 172.16332031 109.264375 171.07664062 109.59375 169.95703125 C113.85737009 152.80385599 113.61325785 132.20605391 108.625 115.25 C108.2846875 114.02925781 107.944375 112.80851562 107.59375 111.55078125 C98.90615965 82.99326296 78.53257003 59.47195595 52.47460938 45.234375 C9.09280627 22.14627704 -40.28539331 31.81345581 -76.375 63.25 Z " fill="#558FCF" transform="translate(367.375,111.75)"/>
<path d="M0 0 C5.25398161 2.18173813 8.47752299 4.84243539 11 10 C12.09378895 16.07095262 11.84095926 21.50830874 8.4375 26.75 C6.33878164 29.49936997 4.06751048 32.05977463 1.75 34.625 C-29.53917163 69.68808487 -38.06823964 116.61082762 -36 162 C-35.55376253 168.47803239 -34.571058 174.7032662 -33 181 C-32.79068848 181.8451416 -32.58137695 182.6902832 -32.36572266 183.56103516 C-25.05743325 212.25111397 -12.38689077 237.11957237 6.96875 259.4765625 C10.95075416 264.4234369 11.45092779 267.96274461 11.30859375 274.2421875 C10.82525409 278.56165336 9.72579964 280.57527738 7 284 C2.43018174 287.56445824 -1.38996807 288.81172411 -7.20581055 288.48852539 C-10.33454773 287.94150896 -12.41274863 286.92733219 -15.16796875 285.359375 C-16.61067139 284.54170654 -16.61067139 284.54170654 -18.08251953 283.70751953 C-22.60568734 281.06023621 -27.09705333 278.36853162 -31.5625 275.625 C-32.54645752 275.02341064 -33.53041504 274.42182129 -34.54418945 273.80200195 C-43.02557519 268.61178076 -51.48890673 263.39207502 -59.95336914 258.17431641 C-68.53619239 252.88819414 -77.14815391 247.65157741 -85.76913452 242.42807007 C-95.27566238 236.66694064 -104.74982644 230.85503406 -114.2109375 225.01953125 C-122.12022624 220.14564751 -130.05437 215.31427168 -138 210.5 C-148.09174113 204.38539568 -158.15350024 198.22433586 -168.19555664 192.02832031 C-175.65467252 187.43059992 -183.13949447 182.87728363 -190.63598633 178.34094238 C-195.76280155 175.23629761 -200.88188458 172.11896102 -206 169 C-206.99402832 168.39542969 -207.98805664 167.79085937 -209.01220703 167.16796875 C-211.68135674 165.53899224 -214.34210765 163.8972621 -217 162.25 C-218.14746704 161.55245605 -218.14746704 161.55245605 -219.31811523 160.84082031 C-223.97978373 157.92600213 -227.48251974 155.03496052 -230 150 C-230.48903328 144.64468471 -230.70463791 139.69753677 -228.625 134.6875 C-222.13784362 128.04588751 -213.67384668 123.49132228 -205.6875 118.875 C-198.25273205 114.52980938 -190.87257994 110.11446526 -183.5625 105.5625 C-176.33639639 101.06395602 -169.08863634 96.60470969 -161.8125 92.1875 C-153.62749348 87.21694359 -145.46343921 82.21371796 -137.3125 77.1875 C-127.64326175 71.22647638 -117.94567384 65.31433464 -108.23086548 59.42807007 C-99.79983288 54.31871041 -91.39081868 49.17526348 -83 44 C-72.21101444 37.34658673 -61.38705717 30.75287363 -50.54667664 24.18371582 C-49.6882592 23.66351868 -49.6882592 23.66351868 -48.8125 23.1328125 C-47.95958122 22.61599915 -47.95958122 22.61599915 -47.08943176 22.08874512 C-43.20057658 19.73116938 -39.31765819 17.36404535 -35.4375 14.9921875 C-34.40262451 14.36006348 -33.36774902 13.72793945 -32.30151367 13.07666016 C-30.38151947 11.90330423 -28.46234045 10.72861279 -26.54418945 9.55224609 C-24.03730477 8.02123493 -21.52249873 6.50512896 -19 5 C-18.18781006 4.51289551 -17.37562012 4.02579102 -16.53881836 3.52392578 C-15.75772705 3.07001465 -14.97663574 2.61610352 -14.171875 2.1484375 C-13.48834961 1.74802246 -12.80482422 1.34760742 -12.10058594 0.93505859 C-8.11429226 -0.83940733 -4.22861292 -0.84980163 0 0 Z M-66.875 72.9375 C-74.99499013 78.13394752 -83.19026911 83.1962647 -91.4375 88.1875 C-92.02793091 88.54511414 -92.61836182 88.90272827 -93.22668457 89.2711792 C-96.2658458 91.11191518 -99.3057223 92.95146425 -102.34619141 94.79003906 C-108.27556552 98.37573788 -114.20102828 101.96788405 -120.125 105.5625 C-120.70258057 105.9129538 -121.28016113 106.26340759 -121.87524414 106.6244812 C-141.65653566 118.63065305 -161.33398317 130.80618228 -181 143 C-179.79795683 146.60612951 -179.03688468 146.85073411 -175.828125 148.6796875 C-174.94753418 149.18918945 -174.06694336 149.69869141 -173.15966797 150.22363281 C-172.19947754 150.76858398 -171.23928711 151.31353516 -170.25 151.875 C-168.21505139 153.0527986 -166.18122195 154.23253267 -164.1484375 155.4140625 C-163.11428711 156.01379883 -162.08013672 156.61353516 -161.01464844 157.23144531 C-156.5871444 159.82885698 -152.22835689 162.53069773 -147.875 165.25 C-139.72255964 170.32926912 -131.52841522 175.33677466 -123.3125 180.3125 C-114.08292947 185.9035337 -104.87325958 191.52464882 -95.6875 197.1875 C-87.15113563 202.44616111 -78.61468651 207.70459668 -70.0625 212.9375 C-68.60493286 213.83408325 -68.60493286 213.83408325 -67.11791992 214.7487793 C-66.22435791 215.29445557 -65.3307959 215.84013184 -64.41015625 216.40234375 C-63.62777588 216.88179443 -62.84539551 217.36124512 -62.03930664 217.85522461 C-59.9101877 219.13473293 -59.9101877 219.13473293 -57 220 C-58.13908182 214.57580086 -59.46714672 209.31103507 -61.10693359 204.01879883 C-73.20123626 164.35671344 -72.61498191 121.12219276 -60.3671875 81.59375 C-58.98482153 77.1072918 -57.96464834 72.59356354 -57 68 C-60.70370828 68 -63.82999609 70.96303224 -66.875 72.9375 Z " fill="#558FCF" transform="translate(230,112)"/>
<path d="M0 0 C4.99368337 2.31849585 7.26406334 5.29926744 10 10 C10.83374023 13.45874023 10.83374023 13.45874023 11.30859375 17.30859375 C11.40046967 18.01639984 11.49234558 18.72420593 11.58700562 19.45346069 C11.88540639 21.77986577 12.16147535 24.10834351 12.4375 26.4375 C12.64198344 28.0642342 12.84798271 29.69077849 13.05541992 31.31713867 C13.49085277 34.74984165 13.91725552 38.18349765 14.33691406 41.61816406 C15.01114453 47.12090064 15.71736015 52.619269 16.4296875 58.1171875 C17.6324568 67.40986806 18.82088035 76.70429079 20 86 C20.58007812 84.81921875 21.16015625 83.6384375 21.7578125 82.421875 C22.54605079 80.86416599 23.33515947 79.3068972 24.125 77.75 C24.50398438 76.97269531 24.88296875 76.19539063 25.2734375 75.39453125 C27.84880165 70.37257117 29.97470962 67.64002025 35 65 C40.64228575 63.38160142 45.7672607 63.75866469 51.2109375 65.8203125 C55.99871525 68.97731879 58.34600192 74.30331087 60.75 79.3125 C61.06582031 79.95767578 61.38164062 80.60285156 61.70703125 81.26757812 C62.47691708 82.84234459 63.23924891 84.4208004 64 86 C64.10609085 85.1304921 64.2121817 84.26098419 64.32148743 83.36512756 C65.32668343 75.14043971 66.34085367 66.91691782 67.36492634 58.69455814 C67.89100404 54.46809898 68.41369508 50.24128005 68.9284668 46.01342773 C69.42608542 41.92751953 69.93283438 37.84283525 70.44573021 33.75881767 C70.63909538 32.20644135 70.82925842 30.65366246 71.01604652 29.10048103 C73.59295967 7.71963533 73.59295967 7.71963533 79.0625 3 C84.58047401 -0.75691847 89.42033063 -0.61146142 96 0 C100.98055688 2.31240141 103.28205718 5.300072 106 10 C108.3345068 23.4972606 104.52117916 39.00384956 102.82421875 52.3984375 C102.49456332 55.0458026 102.16545401 57.69323115 101.83686829 60.34072876 C101.14990235 65.86357764 100.45525057 71.38541915 99.75610352 76.90673828 C98.95084779 83.26695903 98.1589801 89.62874252 97.37393445 95.99148691 C96.69536971 101.48828884 96.00954863 106.98415061 95.31775981 112.47930396 C94.90640787 115.74688059 94.49821087 119.01478881 94.09512901 122.28339767 C93.64487289 125.92368652 93.18274606 129.56228048 92.7175293 133.20068359 C92.58805405 134.26684906 92.4585788 135.33301453 92.32518005 136.43148804 C90.2339389 152.48275763 90.2339389 152.48275763 84.9375 157 C79.41175535 160.76220912 74.58684543 160.59566492 68 160 C58.82206388 155.99508242 54.8973405 144.11274282 50.64135742 135.54345703 C49.67772116 133.60533219 48.70546825 131.67169588 47.73242188 129.73828125 C47.11667343 128.50546496 46.5014204 127.27240108 45.88671875 126.0390625 C45.33201904 124.92740723 44.77731934 123.81575195 44.20581055 122.67041016 C43 120 43 120 43 118 C42.34 118 41.68 118 41 118 C40.73735352 118.84618896 40.47470703 119.69237793 40.20410156 120.56420898 C38.94274184 124.1633808 37.41068739 127.55478256 35.734375 130.97265625 C35.26055389 131.94095619 35.26055389 131.94095619 34.77716064 132.92881775 C34.11041123 134.2854639 33.4413253 135.640964 32.77001953 136.99536133 C31.75421195 139.0539642 30.75803887 141.12136389 29.76171875 143.18945312 C29.10796693 144.51361203 28.45305663 145.83719974 27.796875 147.16015625 C27.50601013 147.77174088 27.21514526 148.3833255 26.91546631 149.01344299 C24.37101969 154.05093901 21.07889021 157.46055489 16 160 C10.46957948 160.50502343 5.58969476 160.73807257 0.5 158.375 C-4.39265536 153.72697741 -6.45770755 149.58979699 -7.2800293 142.91552734 C-7.36944857 142.22708363 -7.45886784 141.53863991 -7.55099678 140.82933426 C-7.84452329 138.5414811 -8.11552311 136.25153623 -8.38671875 133.9609375 C-8.5928869 132.31958568 -8.80058147 130.67842496 -9.00968933 129.03744507 C-9.45498157 125.52474019 -9.8912646 122.01107328 -10.32122803 118.49645996 C-10.99821124 112.98158647 -11.70974546 107.47151528 -12.42822266 101.96191406 C-13.54073304 93.41710631 -14.63416841 84.87006875 -15.71273994 76.32091141 C-16.32796876 71.44547595 -16.94694512 66.5705851 -17.57495117 61.69677734 C-18.19851894 56.85703161 -18.8128159 52.01619093 -19.42069054 47.17444992 C-19.64914893 45.36665156 -19.88069283 43.55923983 -20.11567116 41.75227737 C-21.19844818 33.40880862 -22.20070573 25.08033657 -22.3894043 16.66162109 C-22.42882393 14.94052628 -22.42882393 14.94052628 -22.46903992 13.18466187 C-21.72589086 8.1388686 -19.12610823 5.06980282 -15.5 1.625 C-10.33499991 -0.77303575 -5.5997712 -0.75381535 0 0 Z " fill="#568FCE" transform="translate(326,176)"/>
</svg>
