<?xml version="1.0" encoding="UTF-8"?>
<svg version="1.1" xmlns="http://www.w3.org/2000/svg" width="512" height="512">
<path d="M0 0 C2.00801503 -0.00968068 4.01588859 -0.04087853 6.02368164 -0.07226562 C7.29920898 -0.07742187 8.57473633 -0.08257812 9.88891602 -0.08789062 C11.63555542 -0.10190918 11.63555542 -0.10190918 13.41748047 -0.11621094 C17.76528017 0.35403038 21.1451237 1.77650908 24.35766602 4.77539062 C28.83508204 10.63047312 28.83508204 10.63047312 28.85116577 15.3573761 C28.85661911 16.2195575 28.86207245 17.08173889 28.86769104 17.970047 C28.86873337 18.91812729 28.8697757 19.86620758 28.87084961 20.84301758 C28.87593033 21.83989594 28.88101105 22.83677429 28.88624573 23.86386108 C28.89696479 26.03391446 28.90557892 28.203979 28.91236496 30.37404823 C28.9241289 33.8075455 28.94357545 37.24091555 28.96548462 40.67436218 C29.02718412 50.43838273 29.08116013 60.20239099 29.11450195 69.96655273 C29.13543108 75.93414866 29.1707221 81.90151412 29.21525955 87.8689785 C29.22943564 90.14513628 29.2381456 92.42133484 29.24131393 94.69753456 C29.24621491 97.88169129 29.26935305 101.06523509 29.29663086 104.24926758 C29.29362473 105.19127518 29.29061859 106.13328278 29.28752136 107.10383606 C29.35109239 112.09325249 29.72889699 115.0681165 32.71313477 119.24023438 C33.08544922 122.72265625 33.08544922 122.72265625 33.07641602 126.70898438 C33.07691452 127.42574341 33.07741302 128.14250244 33.07792664 128.88098145 C33.07559231 130.39724499 33.06590158 131.91351287 33.04931641 133.4296875 C33.0259913 135.70544791 33.02872708 137.98001182 33.03540039 140.25585938 C33.01538173 151.98367226 32.82838711 163.84503671 27.21313477 174.42773438 C26.86637695 175.09844971 26.51961914 175.76916504 26.16235352 176.46020508 C19.33779191 188.99249964 8.99175563 196.10334378 -4.25952148 200.44335938 C-10.68807734 202.13552118 -16.97952848 202.39931385 -23.57983398 202.40820312 C-24.44828445 202.41153152 -25.31673492 202.41485992 -26.21150208 202.41828918 C-28.03601556 202.42332574 -29.86053816 202.42569853 -31.68505859 202.42553711 C-34.47630795 202.42773591 -37.26716938 202.44595957 -40.05834961 202.46484375 C-41.83634306 202.4677759 -43.61433837 202.46976189 -45.39233398 202.47070312 C-46.22468063 202.47788864 -47.05702728 202.48507416 -47.91459656 202.49247742 C-55.02810606 202.4643444 -55.02810606 202.4643444 -58.28686523 200.24023438 C-58.28686523 199.58023438 -58.28686523 198.92023438 -58.28686523 198.24023438 C-73.79686523 198.24023438 -89.30686523 198.24023438 -105.28686523 198.24023438 C-105.28686523 205.17023438 -105.28686523 212.10023438 -105.28686523 219.24023438 C-90.43686523 219.24023438 -75.58686523 219.24023438 -60.28686523 219.24023438 C-59.95686523 218.25023437 -59.62686523 217.26023437 -59.28686523 216.24023438 C-56.94046152 215.06703252 -55.51973367 215.10141674 -52.90405273 215.07910156 C-51.99550537 215.06949402 -51.08695801 215.05988647 -50.15087891 215.04998779 C-49.16450439 215.04573792 -48.17812988 215.04148804 -47.16186523 215.03710938 C-46.14519775 215.0314093 -45.12853027 215.02570923 -44.08105469 215.01983643 C-41.92229251 215.01037397 -39.76351581 215.00384752 -37.60473633 215 C-34.3279422 214.99035528 -31.05179166 214.9593689 -27.77514648 214.92773438 C-25.67488978 214.92119814 -23.5746286 214.91595011 -21.47436523 214.91210938 C-20.01909424 214.89358917 -20.01909424 214.89358917 -18.53442383 214.87469482 C-5.72541392 214.91586269 6.61837905 219.74603412 16.09594727 228.49804688 C26.38607923 239.58355136 30.86290081 252.20404214 30.88110352 267.06445312 C30.88443192 268.00706497 30.88776031 268.94967682 30.89118958 269.92085266 C30.8962399 271.90694695 30.89859849 273.89304968 30.8984375 275.87915039 C30.90063451 278.92738591 30.91883884 281.97526545 30.93774414 285.0234375 C30.94067628 286.9537748 30.94266228 288.88411382 30.94360352 290.81445312 C30.95078903 291.72901779 30.95797455 292.64358246 30.96537781 293.58586121 C30.96230118 294.43046402 30.95922455 295.27506683 30.95605469 296.14526367 C30.95747971 296.88963181 30.95890472 297.63399994 30.96037292 298.40092468 C30.71313477 300.24023438 30.71313477 300.24023438 28.71313477 302.24023438 C28.40883811 304.12735628 28.40883811 304.12735628 28.45484924 306.31268311 C28.44460724 307.59116623 28.44460724 307.59116623 28.43415833 308.89547729 C28.43671127 309.8326358 28.43926422 310.76979431 28.44189453 311.73535156 C28.43666779 312.72087006 28.43144104 313.70638855 28.42605591 314.72177124 C28.41579505 316.86726025 28.41003189 319.0127743 28.40817451 321.15828705 C28.40452252 324.55431317 28.38782679 327.95004418 28.36741638 331.3460083 C28.31189891 341.00340283 28.28133677 350.66084172 28.25683594 360.31835938 C28.24095582 366.22110576 28.21072734 372.12364446 28.17207146 378.02628326 C28.16042074 380.27649988 28.1544911 382.52675366 28.15439034 384.77700043 C28.15419817 387.92740011 28.13592128 391.07722819 28.11376953 394.22753906 C28.11834671 395.15660065 28.12292389 396.08566223 28.12763977 397.0428772 C28.06217417 402.90286866 27.35107273 407.41435172 23.17797852 411.88476562 C16.58721218 416.92476341 11.25669683 416.49239039 3.2199707 416.53540039 C0.98529008 416.55256421 -1.24789145 416.5964428 -3.48217773 416.640625 C-4.91185439 416.6507568 -6.34154359 416.65927138 -7.77124023 416.66601562 C-9.71595215 416.6878894 -9.71595215 416.6878894 -11.69995117 416.71020508 C-17.06113034 416.00776362 -20.0856206 413.60380937 -23.59936523 409.61523438 C-25.81566517 406.49599743 -26.41201678 404.90871957 -26.42489624 401.14759827 C-26.43034958 400.2909407 -26.43580292 399.43428314 -26.44142151 398.55166626 C-26.44246384 397.60979462 -26.44350616 396.66792297 -26.44458008 395.69750977 C-26.4496608 394.70717239 -26.45474152 393.71683502 -26.4599762 392.69648743 C-26.47069428 390.54116265 -26.47930879 388.38582665 -26.48609543 386.23048592 C-26.49785501 382.82274112 -26.51729932 379.41512475 -26.53921509 376.00743103 C-26.60093698 366.31692756 -26.65493676 356.62643709 -26.68823242 346.93579102 C-26.70913138 341.01358971 -26.74439541 335.09162197 -26.78899002 329.16955376 C-26.80318775 326.90848978 -26.81188091 324.64738449 -26.8150444 322.38627815 C-26.81993134 319.22805315 -26.84303173 316.0704525 -26.87036133 312.91235352 C-26.86735519 311.9725061 -26.86434906 311.03265869 -26.86125183 310.06433105 C-26.87234482 309.20485367 -26.88343781 308.34537628 -26.89486694 307.45985413 C-26.89983216 306.33962404 -26.89983216 306.33962404 -26.90489769 305.19676304 C-27.39026528 302.71059472 -28.42094184 301.89175088 -30.28686523 300.24023438 C-32.16867162 296.4766216 -31.61936743 291.63165755 -31.71655273 287.44921875 C-31.7657017 283.21052717 -31.7657017 283.21052717 -33.62915039 279.55639648 C-36.45667919 277.31144689 -39.15446518 277.10341418 -42.63061523 276.99414062 C-43.46463867 276.96126953 -44.29866211 276.92839844 -45.15795898 276.89453125 C-46.91043126 276.83333794 -48.6630441 276.77604542 -50.41577148 276.72265625 C-51.24979492 276.68849609 -52.08381836 276.65433594 -52.94311523 276.61914062 C-53.70430664 276.59408447 -54.46549805 276.56902832 -55.24975586 276.54321289 C-57.28686523 276.24023438 -57.28686523 276.24023438 -60.28686523 274.24023438 C-62.40494805 273.91419758 -62.40494805 273.91419758 -64.75830078 273.92138672 C-65.67156128 273.90132568 -66.58482178 273.88126465 -67.52575684 273.8605957 C-68.96018127 273.84355591 -68.96018127 273.84355591 -70.42358398 273.82617188 C-71.30518188 273.80852783 -72.18677979 273.79088379 -73.09509277 273.77270508 C-76.38799812 273.70964373 -79.6812091 273.6634531 -82.97436523 273.61523438 C-90.33749023 273.49148438 -97.70061523 273.36773437 -105.28686523 273.24023438 C-104.95686523 294.69023437 -104.62686523 316.14023437 -104.28686523 338.24023438 C-100.65686523 339.56023437 -97.02686523 340.88023437 -93.28686523 342.24023438 C-82.71254002 348.56316635 -77.20397358 357.36643395 -73.98217773 369.04882812 C-71.60130455 379.97676855 -74.15679478 390.71423076 -80.09936523 400.17773438 C-85.98769955 408.20995101 -94.40881001 414.20770133 -104.28686523 416.24023438 C-105.98918647 416.33264914 -107.69469113 416.37282032 -109.39951324 416.37724876 C-110.43812893 416.38232331 -111.47674462 416.38739785 -112.54683352 416.39262617 C-114.2563322 416.3933728 -114.2563322 416.3933728 -116.00036621 416.39413452 C-117.21221572 416.39851678 -118.42406524 416.40289903 -119.67263746 416.40741408 C-123.03811333 416.41847274 -126.40354277 416.42502467 -129.76903009 416.42959523 C-133.39840793 416.43555692 -137.0277687 416.44716545 -140.65713501 416.45788574 C-149.42385625 416.48239833 -158.19058313 416.49703602 -166.95732808 416.50994581 C-169.43441444 416.51365883 -171.91150024 416.51763198 -174.38858604 416.52169847 C-189.77797512 416.54693811 -205.16736512 416.56898662 -220.55677032 416.58142662 C-224.12077335 416.58435622 -227.68477634 416.58731789 -231.2487793 416.59033203 C-232.13457277 416.59107808 -233.02036624 416.59182413 -233.93300194 416.59259279 C-248.27392379 416.60523932 -262.61472146 416.63845345 -276.9555853 416.68013386 C-291.68661235 416.72259641 -306.41757592 416.74612671 -321.148664 416.75134718 C-329.41652098 416.7547566 -337.68418396 416.7664561 -345.95198059 416.79944992 C-352.99521423 416.82751117 -360.03821409 416.83842328 -367.08149928 416.82725446 C-370.67197304 416.82208306 -374.26195771 416.82485426 -377.85235977 416.84972 C-381.75426744 416.87651615 -385.6555161 416.86410015 -389.55749512 416.84823608 C-390.67931513 416.86211817 -391.80113515 416.87600026 -392.95694971 416.89030302 C-404.50753795 416.77504609 -415.10990515 412.52705765 -423.28686523 404.24023438 C-430.5292203 395.43082003 -433.79952376 385.51517124 -433.22436523 374.11523438 C-431.85448801 363.17063633 -427.802387 353.51031127 -419.07983398 346.45507812 C-413.56364953 342.63039827 -408.12966474 339.24023438 -401.28686523 339.24023438 C-401.28838412 338.63251635 -401.289903 338.02479832 -401.29146791 337.39866459 C-401.38101544 301.36586991 -401.44962926 265.3330944 -401.49112655 229.30021156 C-401.49612927 224.97195075 -401.50130657 220.64369016 -401.5065918 216.31542969 C-401.50764104 215.45376512 -401.50869028 214.59210056 -401.50977132 213.70432495 C-401.52716795 199.75951469 -401.55870155 185.81477051 -401.59547642 171.86999942 C-401.63290648 157.55721819 -401.65510545 143.24447153 -401.66321921 128.93164337 C-401.66870271 120.10261969 -401.6860105 111.2737828 -401.7185311 102.44481663 C-401.7397045 96.38724991 -401.7460589 90.32977951 -401.74087074 84.27217849 C-401.73831333 80.77925197 -401.74218336 77.28665147 -401.76368713 73.79378319 C-401.78362293 70.00037558 -401.77879008 66.20776363 -401.7678833 62.41433716 C-401.77953467 61.31898152 -401.79118603 60.22362587 -401.80319047 59.09507763 C-401.73371895 50.13996085 -399.65375603 41.69092738 -393.34155273 35.01757812 C-365.45373748 10.89408774 -321.43457813 7.64770183 -286.28686523 5.24023438 C-285.44414062 5.1823877 -284.60141602 5.12454102 -283.7331543 5.06494141 C-234.27027291 1.85071252 -155.56976891 -1.72645312 -115.84936523 32.74023438 C-110.28648206 38.00337424 -105.80523596 43.30789243 -105.10824203 51.28443527 C-105.04144152 53.70872617 -105.03947608 56.12515612 -105.05981445 58.55029297 C-105.0595224 59.46800476 -105.05923035 60.38571655 -105.05892944 61.33123779 C-105.06031759 64.35048023 -105.07585457 67.36947279 -105.09155273 70.38867188 C-105.09528469 72.48759832 -105.0981308 74.58652651 -105.10012817 76.68545532 C-105.1077502 82.19936974 -105.12738646 87.71317814 -105.14953613 93.22705078 C-105.17002536 98.85773281 -105.17913647 104.48843203 -105.18920898 110.11914062 C-105.21063365 121.15955168 -105.24475237 132.1998842 -105.28686523 143.24023438 C-98.64801695 143.148013 -92.00953603 143.04071374 -85.37109375 142.92285156 C-83.11203565 142.88453217 -80.85291591 142.84968456 -78.59375 142.81835938 C-75.34930366 142.7727733 -72.10528275 142.714768 -68.86108398 142.65429688 C-67.34220833 142.63697006 -67.34220833 142.63697006 -65.79264832 142.61929321 C-64.38152519 142.58948868 -64.38152519 142.58948868 -62.94189453 142.55908203 C-62.11360641 142.54575836 -61.2853183 142.53243469 -60.43193054 142.51870728 C-57.9909039 142.36284678 -57.9909039 142.36284678 -55.28686523 140.24023438 C-53.18969727 140.00073242 -53.18969727 140.00073242 -50.79467773 140.00195312 C-49.48950195 139.9777832 -49.48950195 139.9777832 -48.15795898 139.953125 C-46.33511279 139.9362708 -44.51212137 139.93096158 -42.68920898 139.9375 C-38.33947158 139.83791222 -35.90912117 139.64407219 -32.19311523 137.23242188 C-29.66916218 133.2706431 -29.61443988 130.28194566 -29.66186523 125.67773438 C-29.66186523 117.6537203 -29.66186523 117.6537203 -27.78892517 115.58856201 C-25.40086241 111.85505336 -25.88108079 108.07303907 -25.91796875 103.73339844 C-25.91420227 102.77030762 -25.91043579 101.8072168 -25.90655518 100.81494141 C-25.90012081 98.72405216 -25.90045451 96.63313366 -25.90674019 94.54224396 C-25.91584408 91.22944091 -25.90563314 87.91720466 -25.89012146 84.60443115 C-25.85000882 75.18584086 -25.84881601 65.7672943 -25.85107422 56.34863281 C-25.8511254 50.58619218 -25.83191545 44.82405606 -25.80174065 39.06169891 C-25.79093275 35.80446054 -25.80303787 32.54780783 -25.81556702 29.29058838 C-25.80665887 27.28193591 -25.79658319 25.27328816 -25.78515625 23.26464844 C-25.79489975 22.36462097 -25.80464325 21.46459351 -25.81468201 20.53729248 C-25.7485663 14.69269174 -24.70608609 10.07574771 -21.28686523 5.24023438 C-14.39454832 -0.24548725 -8.49094933 0.02478205 0 0 Z M-9.28686523 15.24023438 C-11.19750822 17.15087736 -10.40701135 19.97851333 -10.4112854 22.520401 C-10.40769012 23.42382736 -10.40409485 24.32725372 -10.40039062 25.25805664 C-10.40053665 26.20429901 -10.40068268 27.15054138 -10.40083313 28.12545776 C-10.4001336 31.26920829 -10.39233932 34.41290038 -10.38452148 37.55664062 C-10.38265745 39.72997505 -10.38123348 41.9033099 -10.38023376 44.0766449 C-10.37640745 49.80924633 -10.3665762 55.5418226 -10.35552979 61.27441406 C-10.3453181 67.11913716 -10.34073667 72.96386431 -10.33569336 78.80859375 C-10.32495403 90.28582015 -10.30735632 101.76302124 -10.28686523 113.24023438 C-2.36686523 113.24023438 5.55313477 113.24023438 13.71313477 113.24023438 C13.71313477 80.90023437 13.71313477 48.56023437 13.71313477 15.24023438 C6.12313477 15.24023438 -1.46686523 15.24023438 -9.28686523 15.24023438 Z M-361.28686523 34.24023438 C-362.22530273 34.55605469 -363.16374023 34.871875 -364.13061523 35.19726562 C-372.2323796 38.13540548 -380.55103971 42.82763791 -385.28686523 50.24023438 C-388.97769471 61.3127228 -386.28686523 73.56880677 -386.28686523 85.24023438 C-298.50686523 85.24023438 -210.72686523 85.24023438 -120.28686523 85.24023438 C-117.34810641 61.50965243 -117.34810641 61.50965243 -124.90795898 45.43164062 C-175.78746548 -0.19578779 -302.67778172 13.63119917 -361.28686523 34.24023438 Z M-386.28686523 100.24023438 C-386.28686523 178.78023438 -386.28686523 257.32023438 -386.28686523 338.24023438 C-298.50686523 338.24023438 -210.72686523 338.24023438 -120.28686523 338.24023438 C-120.28686523 259.70023437 -120.28686523 181.16023437 -120.28686523 100.24023438 C-208.06686523 100.24023438 -295.84686523 100.24023438 -386.28686523 100.24023438 Z M-14.28686523 128.24023438 C-14.94686523 132.20023438 -15.60686523 136.16023437 -16.28686523 140.24023438 C-19.28853817 146.50843374 -22.61863702 150.82873749 -29.28686523 153.24023438 C-34.58417287 154.33405392 -39.89666926 154.74613308 -45.28686523 155.24023438 C-45.28686523 165.80023438 -45.28686523 176.36023438 -45.28686523 187.24023438 C-40.37811523 187.30210937 -35.46936523 187.36398437 -30.41186523 187.42773438 C-28.12079834 187.46870239 -28.12079834 187.46870239 -25.78344727 187.51049805 C-13.84267201 187.58301288 -3.9486331 185.67735989 5.71313477 178.24023438 C13.32672797 170.64119871 17.41747136 160.99106649 17.82666016 150.26416016 C17.82142334 149.24821777 17.81618652 148.23227539 17.81079102 147.18554688 C17.80829346 146.18539551 17.8057959 145.18524414 17.80322266 144.15478516 C17.79411865 142.9042334 17.78501465 141.65368164 17.77563477 140.36523438 C17.75500977 136.36398438 17.73438477 132.36273438 17.71313477 128.24023438 C7.15313477 128.24023438 -3.40686523 128.24023438 -14.28686523 128.24023438 Z M-105.28686523 158.24023438 C-105.28686523 166.49023438 -105.28686523 174.74023438 -105.28686523 183.24023438 C-90.43686523 183.24023438 -75.58686523 183.24023438 -60.28686523 183.24023438 C-60.28686523 174.99023438 -60.28686523 166.74023438 -60.28686523 158.24023438 C-75.13686523 158.24023438 -89.98686523 158.24023438 -105.28686523 158.24023438 Z M-46.28686523 230.24023438 C-46.28686523 240.80023438 -46.28686523 251.36023438 -46.28686523 262.24023438 C-41.33686523 262.57023437 -36.38686523 262.90023437 -31.28686523 263.24023438 C-24.31554933 266.58646601 -20.76404701 270.28587082 -17.28686523 277.24023438 C-16.95686523 281.20023437 -16.62686523 285.16023438 -16.28686523 289.24023438 C-5.72686523 289.24023438 4.83313477 289.24023438 15.71313477 289.24023438 C15.81625977 284.37273437 15.91938477 279.50523437 16.02563477 274.49023438 C16.07115479 272.98106445 16.1166748 271.47189453 16.16357422 269.91699219 C16.28596478 257.87376051 13.53345754 248.10464032 5.03344727 239.21679688 C-2.70462376 232.62510674 -10.14692583 230.07142527 -20.11499023 230.14257812 C-20.86399597 230.14399307 -21.61300171 230.14540802 -22.38470459 230.14686584 C-24.76879936 230.15244778 -27.15279902 230.16499692 -29.53686523 230.17773438 C-31.15665554 230.18275171 -32.77644733 230.18731421 -34.39624023 230.19140625 C-38.35984771 230.20155893 -42.32325044 230.22113773 -46.28686523 230.24023438 Z M-105.28686523 234.24023438 C-105.28686523 242.16023437 -105.28686523 250.08023438 -105.28686523 258.24023438 C-90.76686523 258.24023438 -76.24686523 258.24023438 -61.28686523 258.24023438 C-61.28686523 250.32023437 -61.28686523 242.40023437 -61.28686523 234.24023438 C-75.80686523 234.24023438 -90.32686523 234.24023438 -105.28686523 234.24023438 Z M-11.28686523 304.24023438 C-11.28686523 336.25023437 -11.28686523 368.26023437 -11.28686523 401.24023438 C-3.36686523 401.24023438 4.55313477 401.24023438 12.71313477 401.24023438 C12.71313477 369.23023438 12.71313477 337.22023438 12.71313477 304.24023438 C4.79313477 304.24023438 -3.12686523 304.24023438 -11.28686523 304.24023438 Z M-414.09936523 363.22851562 C-417.5811265 369.12689409 -418.98765679 375.30958898 -417.85327148 382.08007812 C-415.99918454 389.15118213 -412.48504582 394.28320383 -406.28686523 398.24023438 C-399.99886923 401.63363774 -394.478553 401.6661444 -387.42019653 401.62791443 C-385.63215428 401.63599274 -385.63215428 401.63599274 -383.80798995 401.64423424 C-380.51174552 401.65604224 -377.21600837 401.65445361 -373.91978431 401.64706743 C-370.36003267 401.64233069 -366.80033488 401.65485011 -363.24060059 401.66508484 C-356.2714727 401.68226864 -349.302435 401.68311368 -342.33329143 401.67787194 C-336.66752673 401.673828 -331.00178866 401.67527645 -325.33602524 401.68062019 C-324.52916669 401.68136862 -323.72230815 401.68211704 -322.89099934 401.68288814 C-321.25177765 401.68441964 -319.61255597 401.68595799 -317.9733343 401.68750311 C-302.60561314 401.70122678 -287.23794291 401.69579153 -271.87022291 401.68431789 C-257.81846884 401.67438698 -243.76684646 401.68732395 -229.7151127 401.71125209 C-215.27892551 401.73564924 -200.84279964 401.74524936 -186.40659225 401.73859936 C-178.30491867 401.73510833 -170.20334636 401.73733141 -162.10168839 401.75485039 C-155.20446902 401.76958013 -148.30742222 401.77019785 -141.41020621 401.75277948 C-137.89307172 401.74427311 -134.37624539 401.74211059 -130.85912704 401.75743103 C-127.04162757 401.77061171 -123.2249647 401.75911742 -119.40750122 401.74143982 C-117.74975148 401.75584733 -117.74975148 401.75584733 -116.05851185 401.7705459 C-108.32556867 401.69691694 -102.12999035 400.28216561 -95.98217773 395.41601562 C-90.73451333 389.18930935 -87.85475352 383.45930994 -88.34936523 375.17773438 C-89.56313049 367.01010567 -92.92273816 362.0551628 -99.09155273 356.68554688 C-105.32704916 352.58032681 -111.83409772 352.95045688 -119.02655029 352.96607971 C-120.81225256 352.95822469 -120.81225256 352.95822469 -122.63402963 352.95021099 C-125.93049522 352.93781662 -129.22674734 352.93436711 -132.52322149 352.9348079 C-136.0816425 352.933157 -139.64002491 352.92008542 -143.19842529 352.90861511 C-150.97535238 352.88578752 -158.75225214 352.87784699 -166.52920818 352.87278867 C-171.3874394 352.86952919 -176.24566272 352.86300522 -181.10388947 352.85578728 C-194.56184 352.83622467 -208.0197832 352.81981834 -221.47774887 352.81691074 C-222.76897308 352.81662939 -222.76897308 352.81662939 -224.08628263 352.81634235 C-225.83127101 352.81597611 -227.5762594 352.81561241 -229.32124779 352.81525124 C-230.18743084 352.81506843 -231.0536139 352.81488562 -231.94604492 352.81469727 C-232.81328832 352.81451672 -233.68053172 352.81433617 -234.57405522 352.81415015 C-248.62521545 352.8106088 -262.67622239 352.78358738 -276.72732946 352.74619938 C-291.16235432 352.70809796 -305.59730314 352.68875314 -320.03237939 352.68845123 C-328.13357853 352.68786709 -336.23459477 352.67940314 -344.33574677 352.65045357 C-351.23407365 352.62591516 -358.13215093 352.61867331 -365.03050968 352.63370109 C-368.54783575 352.64085995 -372.06466917 352.64005779 -375.5819397 352.6172905 C-379.4014708 352.59686409 -383.2197306 352.60736438 -387.03924561 352.62550354 C-388.69364926 352.60570359 -388.69364926 352.60570359 -390.38147521 352.58550364 C-399.80685521 352.68755617 -408.20311649 355.50643985 -414.09936523 363.22851562 Z " fill="#558FCF" transform="translate(456.286865234375,88.759765625)"/>
<path d="M0 0 C6.75651289 6.28945266 11.62980029 14.53279298 16.6875 22.1875 C17.12653656 22.84896027 17.56557312 23.51042053 18.01791382 24.19192505 C53.60126138 77.88045784 53.60126138 77.88045784 49.52734375 106.296875 C46.36819934 120.900824 37.35656228 132.68261755 25.44140625 141.46875 C12.51006332 149.57928829 -2.05961717 151.62340801 -16.875 148.875 C-31.74987169 145.36556057 -43.48106767 137.19666034 -52 124.5 C-58.76974043 112.95841815 -62.42026198 99.18257745 -59.53564453 85.85449219 C-56.50272231 74.59504881 -51.54299468 64.20891723 -46 54 C-45.64534668 53.33758301 -45.29069336 52.67516602 -44.92529297 51.99267578 C-39.51742591 41.92864248 -33.50554417 32.38614291 -27 23 C-26.50000488 22.27538574 -26.00000977 21.55077148 -25.48486328 20.80419922 C-23.91305832 18.53153983 -22.33344351 16.26456343 -20.75 14 C-20.26684326 13.30592041 -19.78368652 12.61184082 -19.28588867 11.89672852 C-8.13280113 -3.91000055 -8.13280113 -3.91000055 0 0 Z M-5 19 C-21.73388655 38.4866847 -45.59904519 71.15307287 -45.27734375 97.92578125 C-44.46834675 106.89311422 -40.96207454 114.36270256 -35 121 C-34.47535156 121.61617188 -33.95070312 122.23234375 -33.41015625 122.8671875 C-25.86933626 131.13547483 -16.09708948 134.41827135 -5.1875 135.3125 C6.16639018 134.90700392 16.33841683 130.75673583 24.32421875 122.63671875 C31.93500634 113.59099524 35.53901395 104.53722966 35.39453125 92.7421875 C32.68171735 67.0107448 11.16388133 38.94257346 -4 19 C-4.33 19 -4.66 19 -5 19 Z " fill="#558FCF" transform="translate(208,240)"/>
<path d="M0 0 C2.22804783 1.59146274 2.90136094 2.49969559 3.43359375 5.19921875 C3.44324061 11.34426792 2.56764809 15.91638643 -1 21 C-1.9075 21.886875 -2.815 22.77375 -3.75 23.6875 C-6.20317603 25.75706105 -6.20317603 25.75706105 -6.3515625 28.39453125 C-5.91383532 31.63857605 -4.90314028 32.69396413 -2.625 35 C1.89877698 39.61685881 3.2875502 43.47550232 3.3125 49.9375 C3.14985293 57.76369424 0.40832452 61.5914512 -4.65234375 67.19921875 C-6.6406246 69.85602301 -7.14614992 72.82855686 -8 76 C-9.6875 78 -9.6875 78 -12 79 C-15.68135499 78.93541482 -18.03161886 78.78095253 -20.9375 76.4375 C-22.80012626 72.16441624 -22.7598981 68.2184122 -21.2734375 63.87890625 C-19.6352221 60.3560772 -18.09323061 58.08899286 -15.25 55.375 C-12.80684739 53.174668 -12.80684739 53.174668 -12.25 50.1875 C-13.23509438 46.00084887 -15.41706861 44.02372869 -18.30859375 40.93359375 C-22.08478645 36.61669909 -22.40306404 31.74289616 -22.24609375 26.23046875 C-21.56022312 20.01408573 -18.38458822 16.17612603 -14.3515625 11.765625 C-12.32669321 9.12042003 -11.79828143 6.19312573 -11 3 C-8.68216174 -0.99183256 -4.17791958 -0.85916895 0 0 Z " fill="#558FCF" transform="translate(183,7)"/>
<path d="M0 0 C2.4375 1.4375 2.4375 1.4375 4 4 C4.94671483 9.66953085 4.16073683 14.15353685 1 19 C-0.55988756 20.77422326 -2.13448277 22.50870879 -3.79296875 24.19140625 C-5.44149218 26.66152389 -5.44495176 28.08309402 -5 31 C-3.57273961 33.13323384 -3.57273961 33.13323384 -1.625 35 C2.82380394 39.54034311 4.29586131 43.45542244 4.4375 49.8125 C4.31912522 57.22458262 1.47097445 61.10542993 -3.1875 66.5625 C-5.23934604 69.0149048 -5.23934604 69.0149048 -6 72.625 C-7 76 -7 76 -8.6875 78 C-12.10768008 79.47899679 -14.44454479 78.90502496 -18 78 C-20.03979372 76.43710249 -20.88001418 75.54804334 -21.43359375 73.01953125 C-21.44681992 65.54674341 -19.21743532 60.36017705 -14.25 54.8125 C-11.83089857 52.27508513 -11.83089857 52.27508513 -11.6484375 49.57421875 C-12.08819813 46.35419366 -13.11251715 45.29018672 -15.375 43 C-19.6563557 38.63055056 -21.286173 34.82544572 -21.375 28.6875 C-21.23626972 21.81572692 -19.28255769 17.22821108 -14.375 12.4375 C-11.47515914 9.46134753 -11.02891599 6.96867598 -10 3 C-7.56876718 -0.96674828 -4.32577584 -0.53123563 0 0 Z " fill="#568FCF" transform="translate(241,7)"/>
<path d="M0 0 C2.5 1.875 2.5 1.875 4 5 C4.53148616 12.98557957 1.74715164 17.62492798 -3.1875 23.6875 C-5.1702703 25.95025024 -5.1702703 25.95025024 -6 29 C-4.37139041 31.75610854 -2.56470751 34.24378299 -0.65234375 36.8046875 C-0.21019531 37.40539063 0.23195312 38.00609375 0.6875 38.625 C1.10386719 39.17414062 1.52023438 39.72328125 1.94921875 40.2890625 C4.47524755 44.40207593 4.59519101 49.30460424 4 54 C2.15336369 60.02164016 -0.57355731 63.57355731 -5 68 C-5.87921586 69.98120482 -5.87921586 69.98120482 -6.5625 72.125 C-7.42599997 74.64870987 -7.99508829 75.9942112 -9.75 78.0625 C-13.24225439 79.517606 -15.42679333 79.1044457 -19 78 C-21.30704286 75.2734948 -21.9953026 73.34345562 -22.0078125 69.765625 C-21.12090406 62.97320426 -17.89976515 58.63264255 -13.58203125 53.4453125 C-11.80186639 51.19604819 -11.80186639 51.19604819 -12.046875 48.93359375 C-13.20998646 46.57400287 -14.6789235 44.89350505 -16.4375 42.9375 C-20.43298186 37.91225478 -21.93654424 33.41809719 -22 27 C-21.16510478 20.03223249 -18.3684637 15.84177695 -13.57421875 10.88671875 C-11.25373414 8.10559203 -10.83595609 5.48315036 -10 2 C-6.26744552 -0.48836965 -4.41559065 -0.54226552 0 0 Z " fill="#558FCF" transform="translate(212,7)"/>
</svg>
