<?xml version="1.0" encoding="UTF-8"?>
<svg version="1.1" xmlns="http://www.w3.org/2000/svg" width="512" height="512">
<path d="M0 0 C0.95000885 -0.00700928 1.9000177 -0.01401855 2.8788147 -0.02124023 C6.01976736 -0.0388485 9.15981939 -0.02718715 12.30078125 -0.01367188 C14.48266778 -0.01636597 16.66455313 -0.02024769 18.84643555 -0.02526855 C23.41954986 -0.03116745 27.99235169 -0.02258779 32.56542969 -0.00390625 C38.43026095 0.01888323 44.29436004 0.00576229 50.15916443 -0.01819611 C54.66472907 -0.03264332 59.17011985 -0.02805298 63.6756897 -0.01768494 C65.83826789 -0.01501469 68.00086181 -0.01829785 70.16342163 -0.02760315 C73.18489455 -0.03775075 76.20517826 -0.02229213 79.2265625 0 C80.57012314 -0.01214539 80.57012314 -0.01214539 81.94082642 -0.02453613 C85.72426974 0.02723424 87.94816297 0.08862595 91.17553711 2.17004395 C93.01798268 5.17837055 93.07286426 7.07884469 93.00390625 10.59570312 C92.99101562 11.75585938 92.978125 12.91601562 92.96484375 14.11132812 C92.91457031 15.92117188 92.91457031 15.92117188 92.86328125 17.76757812 C92.84523438 18.98960938 92.8271875 20.21164063 92.80859375 21.47070312 C92.76146225 24.48711891 92.69567538 27.50195304 92.61328125 30.51757812 C93.5387677 30.50647507 94.46425415 30.49537201 95.41778564 30.4839325 C104.18478827 30.38330717 112.951594 30.30739946 121.71904373 30.25851727 C126.22538349 30.2325405 130.73124188 30.19736374 135.23730469 30.14038086 C139.59455779 30.08563127 143.951351 30.0560682 148.30892181 30.04319191 C149.96256489 30.03402837 151.61618581 30.0161361 153.26963043 29.98892784 C166.79229536 29.77546974 177.55709966 31.5965887 187.7109375 41.41992188 C197.18212566 51.86351128 198.08336932 63.62366498 198.046875 77.19335938 C198.05144532 78.69166803 198.0567534 80.18997461 198.0627594 81.6882782 C198.07163913 84.80895582 198.06932256 87.92937673 198.05932617 91.05004883 C198.04778018 95.04261189 198.06815873 99.03429783 198.09724331 103.0267458 C198.11559969 106.11262084 198.11531513 109.19828473 198.10960579 112.28420067 C198.10945284 113.75656563 198.11547557 115.22894513 198.12789726 116.70125771 C198.14281478 118.7568852 198.13213189 120.81087801 198.11499023 122.86645508 C198.11474098 124.61657646 198.11474098 124.61657646 198.11448669 126.40205383 C197.50984892 130.16051995 196.25944449 131.83076075 193.61328125 134.51757812 C191.61328125 135.18164062 191.61328125 135.18164062 189.61328125 135.14257812 C188.95328125 135.15546875 188.29328125 135.16835937 187.61328125 135.18164062 C184.4837772 134.14254748 183.41222604 132.22211476 181.61328125 129.51757812 C181.12794495 126.47798157 181.12794495 126.47798157 181.14672852 123.05004883 C181.14314835 121.76133377 181.13956818 120.47261871 181.13587952 119.14485168 C181.14317644 118.46069498 181.15047337 117.77653828 181.15799141 117.07164955 C181.17999551 114.91314522 181.17612297 112.75603366 181.16551208 110.59745789 C181.14390534 105.23414647 181.16107427 99.87114674 181.18701172 94.50787354 C181.20853968 89.97683494 181.21017622 85.44669536 181.18409538 80.91567039 C181.1797875 78.80485897 181.20425713 76.69566716 181.22962952 74.58503723 C181.1847712 65.89315872 180.26492219 58.4151481 174.05592346 51.87788391 C167.0809674 46.27240331 158.03665427 46.22126456 149.48022461 46.26361084 C148.49883231 46.26049086 147.51744001 46.25737088 146.50630856 46.25415635 C143.23851846 46.24621922 139.97091627 46.25248328 136.703125 46.25878906 C134.35189709 46.2560773 132.00067003 46.25251533 129.64944458 46.24816895 C123.27765437 46.23906475 116.90592905 46.24258111 110.53413773 46.24892712 C104.53690053 46.253483 98.53966922 46.2500021 92.54243219 46.24707273 C79.94068767 46.24137706 67.3389723 46.24791533 54.73723257 46.25867346 C43.93711181 46.26760828 33.13703405 46.26605602 22.33691406 46.25683594 C9.77858682 46.2461198 -2.7797149 46.24192631 -15.33804607 46.24806046 C-21.97977717 46.25121686 -28.62148433 46.25160234 -35.26321411 46.24498749 C-41.50785388 46.23920235 -47.75241258 46.24323242 -53.99704361 46.254776 C-56.28632599 46.25741632 -58.57561522 46.25666824 -60.86489487 46.25225067 C-63.99457548 46.24676905 -67.12399786 46.25366121 -70.25366211 46.26361084 C-71.60587152 46.25691867 -71.60587152 46.25691867 -72.98539829 46.25009131 C-80.06410141 46.29360809 -87.84567274 46.68051785 -93.69921875 51.08007812 C-94.31410156 51.51449219 -94.92898437 51.94890625 -95.5625 52.39648438 C-101.41248926 59.19850615 -101.96783821 66.74649459 -101.90570068 75.38160706 C-101.91319839 76.54622467 -101.92069611 77.71084229 -101.92842102 78.91075134 C-101.94514809 82.12731692 -101.94412009 85.34330241 -101.93550843 88.5598814 C-101.9305322 92.08776689 -101.94882744 95.61554819 -101.96411514 99.14339352 C-101.99030489 105.98344845 -101.99611267 112.82336749 -101.99469639 119.66346636 C-101.99394366 127.57972013 -102.01871528 135.49576016 -102.04345703 143.4119873 C-102.09619531 164.30130747 -102.11434726 185.19070337 -102.13671875 206.08007812 C-102.21921875 252.75445312 -102.30171875 299.42882812 -102.38671875 347.51757812 C-8.66671875 347.51757812 85.05328125 347.51757812 181.61328125 347.51757812 C181.45484734 283.85198346 181.45484734 283.85198346 181.25292969 220.18652344 C181.23486328 207.89013672 181.23486328 207.89013672 181.23150635 202.13885498 C181.22777049 198.11060831 181.21274422 194.0825712 181.190979 190.05438232 C181.16360824 184.92100331 181.15530429 179.78793044 181.16099215 174.65448523 C181.15980223 172.76751034 181.15183134 170.8805251 181.13642073 168.99361277 C181.11660582 166.44987976 181.12128938 163.90734535 181.13226318 161.36358643 C181.12061253 160.6206068 181.10896187 159.87762718 181.09695816 159.11213303 C181.13678626 155.69143724 181.36426932 153.84552427 183.45975113 151.08579636 C186.26908417 149.04001708 188.14271882 148.58840593 191.61328125 148.51757812 C196.17849864 150.64801291 196.17849864 150.64801291 197.61328125 153.51757812 C197.71163634 155.44194876 197.74429784 157.36978729 197.74750233 159.2966671 C197.75196017 160.53478783 197.75641801 161.77290856 197.76101094 163.0485481 C197.76092164 164.43514658 197.76073177 165.82174505 197.76045227 167.20834351 C197.7637499 168.67152397 197.76747526 170.13470353 197.77159375 171.59788191 C197.78163309 175.63320084 197.78533363 179.66850489 197.78798306 183.70383453 C197.79188032 188.05020788 197.80145896 192.39656938 197.81019592 196.74293518 C197.82997536 207.24573048 197.84002781 217.74852677 197.84892371 228.25133604 C197.85330366 233.19295499 197.85867117 238.13457285 197.86391258 243.07619095 C197.88092533 259.49524145 197.89542106 275.91429127 197.90266132 292.33334923 C197.90457132 296.59593074 197.90649164 300.85851225 197.90844727 305.12109375 C197.90893101 306.18058175 197.90941475 307.24006975 197.90991315 308.33166344 C197.91821924 325.50719486 197.94356573 342.68265676 197.97602794 359.8581578 C198.00905839 377.47739519 198.02710639 395.0965972 198.03030556 412.71586573 C198.03247425 422.61436626 198.04127524 432.51276538 198.06676674 442.41123581 C198.08841887 450.83848263 198.09655128 459.26560341 198.08679996 467.69287489 C198.08223943 471.99514897 198.08424259 476.29716271 198.1035614 480.59940147 C198.12108143 484.53491313 198.12028719 488.46997238 198.10466411 492.40548809 C198.10227094 493.8321442 198.10669932 495.25883073 198.11849276 496.68544011 C198.13349326 498.61917385 198.12161164 500.553061 198.10826588 502.48680687 C198.10924269 503.56260958 198.11021949 504.63841229 198.1112259 505.74681509 C197.47787153 509.27105193 196.50288642 510.43868474 193.61328125 512.51757812 C191.14618492 513.01897478 191.14618492 513.01897478 188.32211304 513.02094269 C187.2437298 513.03137368 186.16534657 513.04180467 185.05428505 513.05255175 C183.87025282 513.04362886 182.68622059 513.03470597 181.46630859 513.0255127 C180.20797903 513.03175266 178.94964947 513.03799262 177.65318871 513.04442167 C174.15811915 513.06114863 170.66348542 513.05285373 167.16841412 513.0404768 C163.40010789 513.03144224 159.63187765 513.04538807 155.86358643 513.05639648 C148.48060318 513.07420342 141.09778239 513.0703321 133.71479273 513.05874592 C127.71567099 513.0497204 121.71659484 513.04848377 115.71746826 513.05284119 C114.86435385 513.05345412 114.01123944 513.05406705 113.13227308 513.05469856 C111.39930613 513.05597743 109.66633919 513.05727428 107.93337226 513.05858892 C91.67496212 513.07000109 75.41664212 513.05687105 59.15824676 513.03538746 C45.20115581 513.01751589 31.24419792 513.02061982 17.28710938 513.0390625 C1.08775198 513.06045799 -15.11152637 513.06890239 -31.31089592 513.05661345 C-33.03756585 513.05533922 -34.7642358 513.05408174 -36.49090576 513.05284119 C-37.34050892 513.05222408 -38.19011209 513.05160698 -39.0654608 513.05097118 C-45.05889825 513.04751431 -51.05228564 513.05335387 -57.04571533 513.0627594 C-64.3475614 513.07396611 -71.64923542 513.07096744 -78.95106173 513.04963642 C-82.67817182 513.03910796 -86.40499485 513.0350344 -90.13210297 513.04823303 C-94.16823506 513.06231006 -98.20363934 513.04552745 -102.23974609 513.0255127 C-103.42377832 513.03443558 -104.60781055 513.04335847 -105.82772255 513.05255175 C-106.90610579 513.04212076 -107.98448902 513.03168977 -109.09555054 513.02094269 C-110.02749426 513.02029328 -110.95943798 513.01964387 -111.91962242 513.01897478 C-115.16249522 512.35991435 -116.36122146 511.0846775 -118.38671875 508.51757812 C-118.89465332 505.51989746 -118.89465332 505.51989746 -118.90429688 501.9765625 C-118.91130615 501.32891434 -118.91831543 500.68126617 -118.92553711 500.01399231 C-118.94310101 497.87933101 -118.93150195 495.74600221 -118.91796875 493.61132812 C-118.92066417 492.12446845 -118.92454702 490.63761049 -118.92956543 489.15075684 C-118.93545823 486.03701977 -118.92690522 482.92374218 -118.90820312 479.81005859 C-118.8854129 475.82166724 -118.89853726 471.83435253 -118.92249298 467.84600067 C-118.93695733 464.7764273 -118.93234223 461.70710857 -118.92198181 458.63752747 C-118.91931625 457.16713839 -118.92257836 455.69672608 -118.93190002 454.22636414 C-118.9420771 452.16981911 -118.92655277 450.11500969 -118.90429688 448.05859375 C-118.9011145 446.88929321 -118.89793213 445.71999268 -118.89465332 444.51525879 C-118.2832846 440.90714014 -117.24087095 439.73307152 -114.38671875 437.51757812 C-112.38671875 436.98632812 -112.38671875 436.98632812 -110.38671875 437.01757812 C-109.72671875 437.00726563 -109.06671875 436.99695313 -108.38671875 436.98632812 C-106.38671875 437.51757812 -106.38671875 437.51757812 -102.38671875 441.51757812 C-102.38671875 459.99757813 -102.38671875 478.47757812 -102.38671875 497.51757812 C-8.66671875 497.51757812 85.05328125 497.51757812 181.61328125 497.51757812 C181.61328125 452.96757812 181.61328125 408.41757812 181.61328125 362.51757812 C87.89328125 362.51757812 -5.82671875 362.51757812 -102.38671875 362.51757812 C-102.38671875 380.99757813 -102.38671875 399.47757812 -102.38671875 418.51757812 C-106.38671875 422.51757812 -106.38671875 422.51757812 -108.38671875 423.04882812 C-109.37671875 423.03335938 -109.37671875 423.03335938 -110.38671875 423.01757812 C-111.04671875 423.02789062 -111.70671875 423.03820312 -112.38671875 423.04882812 C-115.32359218 422.26872112 -116.48240443 420.85886617 -118.38671875 418.51757812 C-118.88811541 415.7454977 -118.88811541 415.7454977 -118.89008331 412.48350525 C-118.9005143 411.23936922 -118.91094529 409.99523319 -118.92169237 408.71339607 C-118.91304378 407.33033138 -118.90401713 405.94726902 -118.89465332 404.56420898 C-118.89926082 403.09674904 -118.90561272 401.62929371 -118.9135623 400.16184807 C-118.93030132 396.12356592 -118.92198853 392.0856606 -118.90961742 388.04737687 C-118.90058721 383.69404911 -118.91452699 379.3407873 -118.92553711 374.98747253 C-118.94335225 366.45478644 -118.93946801 357.92224086 -118.92788655 349.3895492 C-118.91885952 342.45180604 -118.91762507 335.51410232 -118.92198181 328.57635498 C-118.92259474 327.58955765 -118.92320768 326.60276032 -118.92383918 325.58606005 C-118.92511808 323.58140595 -118.92641493 321.57675186 -118.92772955 319.57209778 C-118.93914534 300.75778039 -118.92600847 281.94354084 -118.90452808 263.12923622 C-118.88667838 246.99611186 -118.8897417 230.86310271 -118.90820312 214.72998047 C-118.92963049 195.99620892 -118.93802323 177.26250581 -118.92575407 158.52872372 C-118.92447989 156.52892495 -118.92322241 154.52912618 -118.92198181 152.52932739 C-118.92136471 151.54540852 -118.92074761 150.56148965 -118.92011181 149.54775506 C-118.91666285 142.62482737 -118.92247793 135.70194317 -118.93190002 128.77902222 C-118.94314309 120.33226843 -118.94003248 111.88566325 -118.91877705 103.4389264 C-118.9082942 99.1316121 -118.90409705 94.82454514 -118.91737366 90.51723289 C-118.92936246 86.56778962 -118.92262917 82.61882106 -118.90146345 78.66942036 C-118.89702439 77.24672953 -118.89920244 75.82399794 -118.9089666 74.40133369 C-118.99218628 61.25946097 -116.77524311 50.1748946 -107.38671875 40.51757812 C-96.81770151 30.69564319 -85.5427956 29.94702636 -71.78515625 30.12695312 C-70.0955167 30.13442697 -68.40586841 30.14011449 -66.71621704 30.144104 C-62.30034846 30.15927055 -57.88501832 30.19847304 -53.46936035 30.24291992 C-48.9510018 30.28406813 -44.432555 30.30215649 -39.9140625 30.32226562 C-31.0713799 30.36497755 -22.22909435 30.43311787 -13.38671875 30.51757812 C-13.41813965 29.36757324 -13.41813965 29.36757324 -13.45019531 28.19433594 C-13.53337033 24.71888352 -13.5853845 21.2436405 -13.63671875 17.76757812 C-13.67023438 16.56101562 -13.70375 15.35445312 -13.73828125 14.11132812 C-13.75761719 12.37109375 -13.75761719 12.37109375 -13.77734375 10.59570312 C-13.80876465 8.9932373 -13.80876465 8.9932373 -13.84082031 7.35839844 C-13.38671875 4.51757813 -13.38671875 4.51757813 -11.94897461 2.17004395 C-8.06927124 -0.33207823 -4.52718743 -0.04092442 0 0 Z M2.61328125 15.51757812 C2.61328125 20.46757812 2.61328125 25.41757812 2.61328125 30.51757812 C27.03328125 30.51757812 51.45328125 30.51757812 76.61328125 30.51757812 C76.61328125 25.56757813 76.61328125 20.61757813 76.61328125 15.51757812 C52.19328125 15.51757812 27.77328125 15.51757812 2.61328125 15.51757812 Z " fill="#558FCF" transform="translate(216.38671875,-0.517578125)"/>
<path d="M0 0 C1.07672974 -0.0112793 2.15345947 -0.02255859 3.26281738 -0.03417969 C5.02716125 -0.0220343 5.02716125 -0.0220343 6.82714844 -0.00964355 C8.69107239 -0.02015747 8.69107239 -0.02015747 10.59265137 -0.03088379 C13.9978753 -0.04547416 17.40212726 -0.04205291 20.80729675 -0.02936745 C24.37154442 -0.01923659 27.9357507 -0.02863335 31.5 -0.03491211 C37.48542738 -0.04218831 43.47065729 -0.0326017 49.45605469 -0.0135498 C56.37491301 0.00821911 63.29329986 0.0011677 70.21214676 -0.02085543 C76.15368306 -0.03901038 82.09507746 -0.04156736 88.03663254 -0.03110075 C91.58476235 -0.02486625 95.13267058 -0.02402872 98.68078613 -0.0372467 C102.63600985 -0.05095221 106.59070592 -0.03195378 110.54589844 -0.00964355 C111.72212769 -0.01774048 112.89835693 -0.0258374 114.11022949 -0.03417969 C115.7253241 -0.01726074 115.7253241 -0.01726074 117.37304688 0 C118.30808044 0.0015081 119.24311401 0.0030162 120.20648193 0.00457001 C123.48728433 0.67046195 124.67444708 1.87182435 126.68652344 4.50793457 C127.189888 6.50383759 127.189888 6.50383759 127.19445801 8.64453125 C127.2057373 9.46042221 127.2170166 10.27631317 127.2286377 11.1169281 C127.22054077 12.00328445 127.21244385 12.88964081 127.20410156 13.80285645 C127.21111084 14.74311172 127.21812012 15.683367 127.2253418 16.65211487 C127.24294906 19.76060506 127.2312891 22.8681851 127.21777344 25.97668457 C127.22046756 28.13615087 127.22434931 30.29561598 127.22937012 32.45507812 C127.23526888 36.9811152 127.22668981 41.50683653 127.20800781 46.03283691 C127.18521832 51.83713665 127.19833934 57.64069659 127.22229767 63.44496918 C127.23674526 67.90421126 127.23215437 72.36327768 127.2217865 76.82252502 C127.21911635 78.96277453 127.22239905 81.10303993 127.23170471 83.24327087 C127.24185296 86.23361515 127.22639288 89.22275801 127.20410156 92.2130127 C127.21219849 93.09936905 127.22029541 93.9857254 127.2286377 94.89894104 C127.2173584 95.714832 127.2060791 96.53072296 127.19445801 97.37133789 C127.19294991 98.0777668 127.1914418 98.78419571 127.189888 99.51203156 C126.44413888 102.46901947 125.0764041 103.66570897 122.68652344 105.50793457 C120.20648193 106.01129913 120.20648193 106.01129913 117.37304688 106.01586914 C116.29631714 106.02714844 115.2195874 106.03842773 114.11022949 106.05004883 C112.34588562 106.03790344 112.34588562 106.03790344 110.54589844 106.0255127 C108.68197449 106.03602661 108.68197449 106.03602661 106.78039551 106.04675293 C103.37517158 106.0613433 99.97091962 106.05792205 96.56575012 106.04523659 C93.00150246 106.03510573 89.43729618 106.04450249 85.87304688 106.05078125 C79.8876195 106.05805745 73.90238958 106.04847084 67.91699219 106.02941895 C60.99813386 106.00765003 54.07974702 106.01470144 47.16090012 106.03672457 C41.21936382 106.05487952 35.27796941 106.0574365 29.33641434 106.04696989 C25.78828453 106.04073539 22.2403763 106.03989786 18.69226074 106.05311584 C14.73703703 106.06682135 10.78234095 106.04782292 6.82714844 106.0255127 C5.65091919 106.03360962 4.47468994 106.04170654 3.26281738 106.05004883 C1.64772278 106.03312988 1.64772278 106.03312988 0 106.01586914 C-0.93503357 106.01436104 -1.87006714 106.01285294 -2.83343506 106.01129913 C-6.11423746 105.34540719 -7.3014002 104.14404479 -9.31347656 101.50793457 C-9.81684113 99.51203156 -9.81684113 99.51203156 -9.82141113 97.37133789 C-9.83269043 96.55544693 -9.84396973 95.73955597 -9.85559082 94.89894104 C-9.8474939 94.01258469 -9.83939697 93.12622833 -9.83105469 92.2130127 C-9.83806396 91.27275742 -9.84507324 90.33250214 -9.85229492 89.36375427 C-9.86990219 86.25526408 -9.85824223 83.14768404 -9.84472656 80.03918457 C-9.84742068 77.87971827 -9.85130244 75.72025316 -9.85632324 73.56079102 C-9.86222201 69.03475394 -9.85364293 64.50903261 -9.83496094 59.98303223 C-9.81217145 54.17873249 -9.82529247 48.37517255 -9.84925079 42.57089996 C-9.86369839 38.11165788 -9.85910749 33.65259146 -9.84873962 29.19334412 C-9.84606948 27.05309461 -9.84935217 24.91282921 -9.85865784 22.77259827 C-9.86880608 19.78225399 -9.853346 16.79311113 -9.83105469 13.80285645 C-9.83915161 12.91650009 -9.84724854 12.03014374 -9.85559082 11.1169281 C-9.84431152 10.30103714 -9.83303223 9.48514618 -9.82141113 8.64453125 C-9.81990303 7.93810234 -9.81839493 7.23167343 -9.81684113 6.50383759 C-8.51145847 1.32783322 -4.90978669 0.00791893 0 0 Z M6.68652344 15.50793457 C6.68652344 30.35793457 6.68652344 45.20793457 6.68652344 60.50793457 C41.00652344 60.50793457 75.32652344 60.50793457 110.68652344 60.50793457 C110.68652344 45.65793457 110.68652344 30.80793457 110.68652344 15.50793457 C76.36652344 15.50793457 42.04652344 15.50793457 6.68652344 15.50793457 Z M6.68652344 75.50793457 C6.68652344 80.45793457 6.68652344 85.40793457 6.68652344 90.50793457 C41.00652344 90.50793457 75.32652344 90.50793457 110.68652344 90.50793457 C110.68652344 85.55793457 110.68652344 80.60793457 110.68652344 75.50793457 C76.36652344 75.50793457 42.04652344 75.50793457 6.68652344 75.50793457 Z " fill="#558FCF" transform="translate(197.3134765625,376.4920654296875)"/>
<path d="M0 0 C5.15895655 1.54672626 8.47979301 7.25734731 11.59765625 11.37890625 C12.01853516 11.93255859 12.43941406 12.48621094 12.87304688 13.05664062 C13.79177098 14.26520822 14.70903291 15.47488842 15.625 16.68554688 C17.71877641 19.4485542 19.82610692 22.20111364 21.93334961 24.95385742 C23.04469914 26.40625775 24.15488487 27.85954932 25.26391602 29.3137207 C27.80265487 32.64123772 30.34958987 35.96053146 32.9375 39.25 C45.3903239 55.1061371 52.21860335 69.18200076 51.09765625 89.62890625 C48.98082226 103.42420571 41.64722703 115.5817057 30.94140625 124.40625 C17.65330248 133.86680214 3.95175165 135.82808949 -11.90234375 134.62890625 C-16.20131538 133.78650925 -19.94504021 132.48828844 -23.90234375 130.62890625 C-24.68480469 130.27828125 -25.46726563 129.92765625 -26.2734375 129.56640625 C-39.82462741 122.80255409 -48.3425735 111.21606305 -53.17578125 97.13671875 C-57.21227434 83.20430711 -55.27865462 68.87293276 -48.77734375 56.06640625 C-45.83102619 50.8828434 -42.48463955 46.41331807 -38.61328125 41.89453125 C-35.05231391 37.68883567 -31.81354279 33.23739599 -28.52734375 28.81640625 C-23.97541804 22.71241575 -19.40832225 16.62504796 -14.71484375 10.62890625 C-14.28187988 10.07227295 -13.84891602 9.51563965 -13.40283203 8.94213867 C-6.53533143 0.22087601 -6.53533143 0.22087601 0 0 Z M-2.90234375 22.62890625 C-12.54275939 34.16253013 -21.68685407 46.0976106 -30.52734375 58.25390625 C-31.30335938 59.31867188 -32.079375 60.3834375 -32.87890625 61.48046875 C-38.70180203 70.54080466 -40.48161281 80.16067604 -38.25390625 90.6953125 C-34.79471882 102.27028583 -28.07395071 109.90262547 -17.734375 115.8828125 C-9.30731692 119.93401127 0.51081599 120.0304604 9.4765625 117.78125 C19.39587556 114.04408863 27.55427932 107.30362653 32.09765625 97.62890625 C35.95350266 88.27808843 36.47297257 78.75225026 33.18359375 69.140625 C29.21948159 59.97183321 22.63502464 52.37863008 16.375 44.70703125 C14.03390293 41.82415163 11.76884815 38.89559105 9.5390625 35.92578125 C8.95398926 35.14734863 8.36891602 34.36891602 7.76611328 33.56689453 C6.62991723 32.04865456 5.49918704 30.52630559 4.37451172 28.99951172 C3.85904785 28.31260254 3.34358398 27.62569336 2.8125 26.91796875 C2.3599585 26.30646973 1.90741699 25.6949707 1.44116211 25.06494141 C0.04851822 23.34767997 0.04851822 23.34767997 -2.90234375 22.62890625 Z " fill="#558FCF" transform="translate(257.90234375,59.37109375)"/>
<path d="M0 0 C5.44419905 3.54482363 8.96653445 8.96210336 11 15.0625 C11.93302187 23.07315921 10.80691796 29.48461226 6 36.0625 C-0.65238601 42.43015354 -6.32388905 43.49761569 -15.4140625 43.39453125 C-20.58781366 42.91548022 -24.12045766 41.5206986 -28 38.0625 C-33.2649997 31.69318892 -35.44519391 26.30665961 -35.3359375 18.046875 C-34.67043178 12.13470791 -32.29537041 7.25962498 -27.9921875 3.140625 C-20.09090048 -2.98214354 -9.2154464 -4.57627117 0 0 Z M-17.4375 15.625 C-19.33441535 18.08873116 -19.33441535 18.08873116 -18.9375 21.6875 C-18.3249155 25.31766924 -18.3249155 25.31766924 -15 27.0625 C-11.40013378 27.52205739 -9.64337361 27.47491898 -6.5625 25.5 C-4.66558465 23.03626884 -4.66558465 23.03626884 -5.0625 19.4375 C-5.6750845 15.80733076 -5.6750845 15.80733076 -9 14.0625 C-12.59986622 13.60294261 -14.35662639 13.65008102 -17.4375 15.625 Z " fill="#558FCF" transform="translate(373,408.9375)"/>
<path d="M0 0 C5.44419905 3.54482363 8.96653445 8.96210336 11 15.0625 C11.93302187 23.07315921 10.80691796 29.48461226 6 36.0625 C-0.65238601 42.43015354 -6.32388905 43.49761569 -15.4140625 43.39453125 C-20.58781366 42.91548022 -24.12045766 41.5206986 -28 38.0625 C-33.2649997 31.69318892 -35.44519391 26.30665961 -35.3359375 18.046875 C-34.67043178 12.13470791 -32.29537041 7.25962498 -27.9921875 3.140625 C-20.09090048 -2.98214354 -9.2154464 -4.57627117 0 0 Z M-17.4375 15.625 C-19.33441535 18.08873116 -19.33441535 18.08873116 -18.9375 21.6875 C-18.3249155 25.31766924 -18.3249155 25.31766924 -15 27.0625 C-11.40013378 27.52205739 -9.64337361 27.47491898 -6.5625 25.5 C-4.66558465 23.03626884 -4.66558465 23.03626884 -5.0625 19.4375 C-5.6750845 15.80733076 -5.6750845 15.80733076 -9 14.0625 C-12.59986622 13.60294261 -14.35662639 13.65008102 -17.4375 15.625 Z " fill="#558FCF" transform="translate(163,408.9375)"/>
<path d="M0 0 C5.85311295 6.20352104 8.45300084 11.91146481 8.25 20.4375 C7.59453067 27.15606059 5.21005607 31.63809259 0 36 C-7.00023127 41.04016651 -12.498428 41.77679338 -21 41 C-27.47193424 39.05418971 -31.96559046 34.97895682 -35.75 29.4375 C-38.7893164 23.51083301 -39.15260212 16.673246 -37.1640625 10.3359375 C-34.09124934 3.50975524 -29.94728661 -0.89789205 -23.0234375 -3.83984375 C-15.1496713 -6.23961712 -6.63911141 -4.89197683 0 0 Z M-21 14 C-22.24838381 17.40528996 -22.24838381 17.40528996 -22 21 C-20.58333333 23.58333333 -20.58333333 23.58333333 -18 25 C-14.34147708 25.60975382 -12.69487121 25.44543026 -9.5625 23.4375 C-7.68798845 20.98253455 -7.68798845 20.98253455 -7.9375 17.4375 C-8.68382292 13.87732393 -8.68382292 13.87732393 -11.4375 12.0625 C-15.62793679 10.32500182 -17.47983251 11.20191815 -21 14 Z " fill="#558FCF" transform="translate(271,123)"/>
</svg>
