<?xml version="1.0" encoding="UTF-8"?>
<svg version="1.1" xmlns="http://www.w3.org/2000/svg" width="512" height="512">
<path d="M0 0 C3.12592447 2.03228355 5.60258924 4.57858514 8.1875 7.25 C9.68819291 8.73238779 11.18950027 10.21415377 12.69140625 11.6953125 C13.42375488 12.43040039 14.15610352 13.16548828 14.91064453 13.92285156 C17.74301331 16.73867227 20.67156847 19.43745591 23.625 22.125 C24.66997694 23.08516959 25.71424278 24.04611364 26.7578125 25.0078125 C27.28149414 25.49024414 27.80517578 25.97267578 28.34472656 26.46972656 C31.40756074 29.30126707 34.4529559 32.15149072 37.5 35 C42.15256524 39.34880174 46.8159449 43.68513151 51.5 48 C56.18405591 52.31486924 60.84733766 56.65130131 65.5 61 C69.6810319 64.90704133 73.86488228 68.81077996 78.06933594 72.69262695 C79.13822153 73.68007211 80.20531672 74.66945927 81.27050781 75.66088867 C83.94906687 78.14651481 86.65792326 80.57742717 89.44140625 82.9453125 C89.99675049 83.42718018 90.55209473 83.90904785 91.12426758 84.40551758 C92.65057989 85.72645734 94.19199387 87.02989011 95.734375 88.33203125 C98.58556993 91.68955908 99.1771451 93.60581732 99 98 C97.35 99.65 95.7 101.3 94 103 C86.41 103 78.82 103 71 103 C71 129.73 71 156.46 71 184 C80.10190918 183.9685791 80.10190918 183.9685791 89.38769531 183.93652344 C109.39649805 183.87035743 129.40530499 183.82590268 149.41418839 183.79275131 C161.55010802 183.77211046 173.68592414 183.74396072 185.82177734 183.69824219 C196.39719293 183.65842111 206.97253356 183.63257827 217.54802203 183.62364602 C223.14967547 183.61842327 228.75111446 183.6061162 234.35269928 183.57707977 C239.62217267 183.54998547 244.89134271 183.54154291 250.16087914 183.54756927 C252.09750961 183.54646636 254.03414994 183.538477 255.97072029 183.5231781 C258.61027086 183.50334373 261.24866867 183.50803659 263.88824463 183.51898193 C264.65867387 183.50733057 265.42910311 183.4956792 266.22287869 183.48367476 C269.68265375 183.52258633 271.64742525 183.74203673 274.47463608 185.81058121 C276.67658724 188.97113403 276.57360623 191.97068792 276.53125 195.6875 C276.5350769 196.42701904 276.53890381 197.16653809 276.54284668 197.9284668 C276.54556271 199.4884579 276.53822292 201.04849478 276.52148438 202.60839844 C276.50006673 204.99257186 276.52129263 207.37373249 276.546875 209.7578125 C276.54423166 211.2760483 276.53910656 212.79428223 276.53125 214.3125 C276.53934692 215.02301514 276.54744385 215.73353027 276.55578613 216.46557617 C276.49724292 219.56481272 276.2692137 221.60883844 274.49430847 224.18773651 C270.98084795 226.7404746 267.75400565 226.55440449 263.57348633 226.50793457 C262.7153449 226.51417453 261.85720346 226.5204145 260.97305775 226.52684355 C258.09243756 226.54282112 255.21265798 226.53015073 252.33203125 226.51757812 C250.26898707 226.52299712 248.20594677 226.53011853 246.14291382 226.53881836 C240.53552673 226.55708098 234.92843345 226.54997197 229.32104111 226.53730202 C223.45856675 226.52718961 217.5961179 226.5365628 211.73364258 226.54284668 C201.88781203 226.55012821 192.04210141 226.54052208 182.19628906 226.52148438 C170.80590485 226.49971474 159.415807 226.50676575 148.02542973 226.52879 C138.25379258 226.54692955 128.48224176 226.54950937 118.71059322 226.53903532 C112.87094871 226.53279246 107.03143889 226.53198657 101.19180298 226.54518127 C95.70225209 226.55671807 90.21307117 226.54875357 84.72356033 226.52560425 C82.70632161 226.52030557 80.68905187 226.52185065 78.67182541 226.53065491 C75.9229648 226.54154819 73.17529774 226.52792231 70.42651367 226.50793457 C69.62379437 226.51685746 68.82107508 226.52578034 67.99403095 226.53497362 C64.47013039 226.48509947 62.39225435 226.2839273 59.50068665 224.19091034 C57.32447045 221.01376835 57.52194312 218.75616122 58 215 C59.54262813 212.89641619 60.68108317 212.15945841 63 211 C65.60732725 210.90434391 68.18781374 210.86986192 70.7953186 210.87974548 C71.60965437 210.87889106 72.42399014 210.87803663 73.26300275 210.87715632 C76.00690013 210.8755019 78.75073711 210.88102228 81.49462891 210.88647461 C83.4554901 210.88675652 85.41635139 210.88659868 87.37721252 210.8860321 C92.71370994 210.88574426 98.05018505 210.89163886 103.38667727 210.89860606 C108.95874196 210.9048418 114.53080711 210.90544357 120.10287476 210.90663147 C130.66031296 210.90974413 141.21774085 210.91795666 151.7751745 210.92798096 C163.79191952 210.9391441 175.80866503 210.94465306 187.82541394 210.94967639 C212.55028169 210.96013932 237.27514027 210.97773751 262 211 C262 207.04 262 203.08 262 199 C190.06 199 118.12 199 44 199 C41.94796021 224.87938361 41.94796021 224.87938361 47 249 C50.52617644 251.35078429 51.95164881 251.24370599 56.1237793 251.22705078 C58.01540047 251.22682419 58.01540047 251.22682419 59.94523621 251.22659302 C61.32156532 251.21637976 62.69789283 251.20594777 64.07421875 251.1953125 C65.48240458 251.19158172 66.890593 251.18873506 68.29878235 251.18673706 C72.0027281 251.17910564 75.70651668 251.15946148 79.41040039 251.1373291 C83.19089634 251.11686003 86.97141772 251.10773308 90.75195312 251.09765625 C98.16804036 251.07621504 105.58399814 251.04208513 113 251 C112.43047607 250.47253174 111.86095215 249.94506348 111.27416992 249.40161133 C110.16972534 248.34623169 110.16972534 248.34623169 109.04296875 247.26953125 C108.30844482 246.57706299 107.5739209 245.88459473 106.81713867 245.17114258 C104.84033059 242.80922477 104.38136964 241.72300821 104.3125 238.6875 C105 235 105 235 106 233 C109.22900665 231.38549668 112.50618869 231.44585754 116 232 C119.00366211 234.00024414 119.00366211 234.00024414 121.77734375 236.78515625 C122.27416153 237.27906357 122.77097931 237.77297089 123.28285217 238.28184509 C124.32337444 239.32567162 125.35408983 240.37935728 126.37524414 241.44213867 C127.93375004 243.05861057 129.52628317 244.63437355 131.12695312 246.20898438 C139.71980561 254.9079099 139.71980561 254.9079099 140 262 C138.91796875 264.1171875 138.91796875 264.1171875 137.1875 265.875 C136.21876953 266.87273437 136.21876953 266.87273437 135.23046875 267.890625 C132.00386707 270.94205216 128.76221783 273.96065002 125.4140625 276.87890625 C123.93431616 278.17907172 122.48306094 279.51377413 121.0859375 280.90234375 C118.0679916 283.83071591 116.04251008 285.37519047 111.75 285.5625 C108 285 108 285 106 284 C104.34503242 280.69006484 104.1310118 277.53589746 105 274 C106.36743164 272.27856445 106.36743164 272.27856445 108.03515625 270.73828125 C108.58695557 270.21919189 109.13875488 269.70010254 109.70727539 269.1652832 C110.13387451 268.78073975 110.56047363 268.39619629 111 268 C110.24102417 267.99413376 109.48204834 267.98826752 108.70007324 267.98222351 C101.52086972 267.92413728 94.34200696 267.85197066 87.16310883 267.76428509 C83.47301958 267.7197017 79.78303767 267.68041988 76.09277344 267.65356445 C72.52639148 267.6274103 68.9604253 267.58692454 65.39430237 267.53681374 C63.38271527 267.51219561 61.37096691 267.50213164 59.35925293 267.49235535 C51.1627319 267.36158599 43.73897972 266.91807901 37.25 261.3125 C36.71890625 260.87550781 36.1878125 260.43851562 35.640625 259.98828125 C29.88602176 253.01425018 29.44108939 246.78154958 29.609375 238.0625 C29.61340332 237.06798828 29.61743164 236.07347656 29.62158203 235.04882812 C29.64236847 231.36569532 29.6982131 227.68282737 29.75 224 C29.8325 215.75 29.915 207.5 30 199 C7.56 199 -14.88 199 -38 199 C-37.90347424 220.12630092 -37.90347424 220.12630092 -37.77792263 241.2523737 C-37.72803959 248.80714698 -37.68258074 256.3618627 -37.65356445 263.91674805 C-37.62812263 270.53690296 -37.58721311 277.15684522 -37.53681374 283.77686501 C-37.5201116 286.30421904 -37.50861823 288.83161297 -37.50238609 291.35901451 C-37.49278169 294.89543271 -37.46476497 298.43125671 -37.43237305 301.9675293 C-37.43380814 303.01553711 -37.43524323 304.06354492 -37.4367218 305.14331055 C-37.40884293 312.09172631 -37.40884293 312.09172631 -34 318 C-29.35635736 320.25312587 -24.71402438 320.2940719 -19.64453125 320.30859375 C-18.03710537 320.33372963 -16.42968358 320.35912797 -14.82226562 320.38476562 C-12.30738177 320.41360434 -9.79256826 320.43764781 -7.27758789 320.45629883 C-4.83705694 320.47790065 -2.39729671 320.51730322 0.04296875 320.55859375 C0.79611862 320.55870956 1.54926849 320.55882538 2.32524109 320.5589447 C7.52062117 320.65778173 7.52062117 320.65778173 9.97021484 322.40649414 C11.24961088 324.38625182 11.43304998 325.65038708 11.4375 328 C11.45683594 328.680625 11.47617188 329.36125 11.49609375 330.0625 C11 332 11 332 9.53198242 333.59179688 C5.75661865 335.69152672 2.24758032 335.46773545 -2.0078125 335.46875 C-2.88847382 335.47636353 -3.76913513 335.48397705 -4.67648315 335.49182129 C-6.54080375 335.50261903 -8.40518482 335.50547671 -10.26953125 335.50097656 C-13.09480639 335.50001033 -15.91730865 335.54150564 -18.7421875 335.5859375 C-29.06610366 335.65509182 -37.99634023 335.70140549 -45.91064453 328.18554688 C-50.18201264 323.65566585 -52.25378787 319.16855734 -52.24050903 312.88102722 C-52.24325836 311.87286957 -52.24600769 310.86471191 -52.24884033 309.82600403 C-52.2380545 308.18386177 -52.2380545 308.18386177 -52.22705078 306.50854492 C-52.22734283 305.34713989 -52.22763489 304.18573486 -52.22793579 302.98913574 C-52.2265432 299.15283724 -52.21098498 295.3167333 -52.1953125 291.48046875 C-52.19158212 288.81960216 -52.18863687 286.15874633 -52.18673706 283.49787903 C-52.18052675 277.21167787 -52.16412204 270.92554646 -52.14403808 264.63937598 C-52.11946939 256.7784776 -52.10853786 248.91756783 -52.09765625 241.05664062 C-52.0781902 227.03770611 -52.03812368 213.01892376 -52 199 C-74.44 199 -96.88 199 -120 199 C-120 202.96 -120 206.92 -120 211 C-117.76730347 210.96072388 -117.76730347 210.96072388 -115.48950195 210.9206543 C-109.96393888 210.83011298 -104.4384413 210.77273535 -98.91235352 210.7253418 C-96.52129081 210.70020685 -94.13030486 210.66609367 -91.73950195 210.62280273 C-88.30140236 210.56210939 -84.86431904 210.53377928 -81.42578125 210.51171875 C-80.35789871 210.48591232 -79.29001617 210.4601059 -78.18977356 210.43351746 C-70.79319536 210.43072594 -70.79319536 210.43072594 -66.78979492 213.30395508 C-65 216 -65 216 -64.9375 219.625 C-66.12322381 223.39141682 -66.66527926 224.0962608 -70 226 C-72.73193359 226.38768005 -72.73193359 226.38768005 -75.8984375 226.40405273 C-77.68048584 226.42307899 -77.68048584 226.42307899 -79.49853516 226.44248962 C-80.77776855 226.43955399 -82.05700195 226.43661835 -83.375 226.43359375 C-84.69161621 226.4388356 -86.00823242 226.44407745 -87.36474609 226.44947815 C-90.14886061 226.45840329 -92.93268819 226.45599277 -95.71679688 226.44604492 C-99.28145025 226.43454801 -102.84511407 226.45477896 -106.40963745 226.48396206 C-109.81481088 226.50673581 -113.2197522 226.49985751 -116.625 226.49609375 C-117.9042334 226.50732773 -119.1834668 226.51856171 -120.50146484 226.53013611 C-121.68949707 226.52075516 -122.8775293 226.51137421 -124.1015625 226.50170898 C-125.66898193 226.50145973 -125.66898193 226.50145973 -127.26806641 226.50120544 C-130.71770988 225.86832766 -131.89807183 224.76449668 -134 222 C-134.3982295 219.29805042 -134.56200004 217.01085428 -134.53125 214.3125 C-134.5350769 213.57298096 -134.53890381 212.83346191 -134.54284668 212.0715332 C-134.54556271 210.5115421 -134.53822292 208.95150522 -134.52148438 207.39160156 C-134.50006673 205.00742814 -134.52129263 202.62626751 -134.546875 200.2421875 C-134.54423166 198.7239517 -134.53910656 197.20571777 -134.53125 195.6875 C-134.53934692 194.97698486 -134.54744385 194.26646973 -134.55578613 193.53442383 C-134.49458202 190.29432124 -134.30830885 188.39341625 -132.28289795 185.80889893 C-129.56919831 183.65864584 -128.37423706 183.51137134 -124.95605469 183.54589844 C-123.94140137 183.54638184 -122.92674805 183.54686523 -121.88134766 183.54736328 C-120.29265869 183.57805908 -120.29265869 183.57805908 -118.671875 183.609375 C-117.20355225 183.61541748 -117.20355225 183.61541748 -115.70556641 183.62158203 C-112.05351991 183.64248962 -108.40174088 183.6983352 -104.75 183.75 C-96.5825 183.8325 -88.415 183.915 -80 184 C-80 157.27 -80 130.54 -80 103 C-87.59 103 -95.18 103 -103 103 C-107 99 -107 99 -107.6875 96.25 C-105.96286177 88.09716471 -97.30327184 82.39528223 -91.37109375 77.05078125 C-87.7264377 73.76574562 -84.14346038 70.41666623 -80.5625 67.0625 C-75.88973427 62.69215946 -71.20598351 58.33455395 -66.5 54 C-61.81591636 49.68516206 -57.15260381 45.3487603 -52.5 41 C-47.32528145 36.16322225 -42.13368273 31.34568806 -36.92285156 26.54785156 C-33.33624157 23.24237205 -29.768109 19.91783556 -26.20922852 16.58251953 C-24.29441049 14.79153833 -22.37220284 13.00876699 -20.44921875 11.2265625 C-18.36910682 9.29523203 -16.34173132 7.34269511 -14.33203125 5.3359375 C-13.58308594 4.60632813 -12.83414063 3.87671875 -12.0625 3.125 C-11.15177734 2.20074219 -11.15177734 2.20074219 -10.22265625 1.2578125 C-6.78782541 -0.68597578 -3.75271348 -0.9734787 0 0 Z M-8.63671875 20.37890625 C-9.66125835 21.43275648 -10.67789666 22.49433203 -11.6875 23.5625 C-15.60692871 27.65658215 -19.63953571 31.48604289 -23.93139648 35.18969727 C-27.4397249 38.25995045 -30.80606711 41.47895003 -34.1875 44.6875 C-39.81966791 50.0105182 -45.47289745 55.30720732 -51.17749023 60.55249023 C-56.03307353 65.02017235 -60.84787838 69.53085835 -65.6628418 74.04223633 C-69.89048528 77.99304004 -74.17906 81.86184003 -78.55859375 85.64453125 C-79.03425781 86.09183594 -79.50992188 86.53914063 -80 87 C-80 87.33 -80 87.66 -80 88 C-79.15695313 88.10957031 -78.31390625 88.21914062 -77.4453125 88.33203125 C-75.80175781 88.56986328 -75.80175781 88.56986328 -74.125 88.8125 C-72.48917969 89.03873047 -72.48917969 89.03873047 -70.8203125 89.26953125 C-68 90 -68 90 -66 93 C-65.78629236 95.92809907 -65.68868583 98.76419707 -65.68115234 101.6940918 C-65.66608391 103.0261113 -65.66608391 103.0261113 -65.65071106 104.38504028 C-65.6197962 107.32309313 -65.60282085 110.26105451 -65.5859375 113.19921875 C-65.56723253 115.2351816 -65.54765963 117.27113664 -65.5272522 119.30708313 C-65.4758541 124.66805425 -65.43626947 130.02905052 -65.39910889 135.39013672 C-65.35911735 140.85976422 -65.30800291 146.32928639 -65.2578125 151.79882812 C-65.1609623 162.53247817 -65.07658663 173.26618759 -65 184 C-60.71 184 -56.42 184 -52 184 C-51.98541748 182.89487061 -51.97083496 181.78974121 -51.95581055 180.65112305 C-51.89785734 176.55264861 -51.82062481 172.45472533 -51.73754883 168.35668945 C-51.70428536 166.58269188 -51.67625782 164.8085881 -51.65356445 163.03442383 C-51.62004398 160.48472824 -51.56773135 157.93600708 -51.51171875 155.38671875 C-51.50532883 154.59287277 -51.4989389 153.79902679 -51.49235535 152.98112488 C-51.34625671 147.5152667 -51.34625671 147.5152667 -49.65551758 144.99926758 C-47.02891665 143.41385575 -44.98778152 143.62652731 -42 144 C-40.34448242 144.99926758 -40.34448242 144.99926758 -39 147 C-38.66879458 149.8626546 -38.51135908 152.51966604 -38.48828125 155.38671875 C-38.47033005 156.20372757 -38.45237885 157.02073639 -38.43388367 157.86250305 C-38.37972212 160.47078294 -38.34586692 163.07887925 -38.3125 165.6875 C-38.27933201 167.45640579 -38.24484283 169.22528733 -38.20898438 170.99414062 C-38.12399254 175.32929473 -38.05720965 179.66439384 -38 184 C-33.71 184 -29.42 184 -25 184 C-24.98018066 182.28901123 -24.96036133 180.57802246 -24.93994141 178.81518555 C-24.87218147 173.16326771 -24.79540706 167.51152055 -24.71247292 161.85980511 C-24.66251828 158.43302652 -24.61618843 155.00627864 -24.578125 151.5793457 C-24.53421113 147.63995917 -24.47456272 143.70088692 -24.4140625 139.76171875 C-24.40251129 138.53039719 -24.39096008 137.29907562 -24.37905884 136.03044128 C-24.35918915 134.88948502 -24.33931946 133.74852875 -24.31884766 132.57299805 C-24.30552399 131.567061 -24.29220032 130.56112396 -24.2784729 129.52470398 C-24 127 -24 127 -22 124 C-19.33978031 123.69559199 -16.91607671 123.57988713 -14.25390625 123.6015625 C-13.10353127 123.59725723 -13.10353127 123.59725723 -11.92991638 123.59286499 C-10.30670433 123.59082214 -8.68346779 123.5963675 -7.06030273 123.60888672 C-4.57544806 123.62491647 -2.09222528 123.60905805 0.39257812 123.58984375 C1.96875359 123.59182657 3.54492805 123.59567106 5.12109375 123.6015625 C5.86491806 123.59548981 6.60874237 123.58941711 7.37510681 123.5831604 C12.50039367 123.65299338 12.50039367 123.65299338 14.69308472 125.1759491 C16.50225593 127.70099447 16.39823818 129.48037871 16.43237305 132.57299805 C16.45216721 133.71395432 16.47196136 134.85491058 16.49235535 136.03044128 C16.49874527 137.26176285 16.50513519 138.49308441 16.51171875 139.76171875 C16.52966995 141.02264847 16.54762115 142.28357819 16.56611633 143.5827179 C16.61115424 146.93155514 16.64342741 150.2800242 16.66955566 153.62902832 C16.69935766 157.04774286 16.7458891 160.4662251 16.79101562 163.88476562 C16.87611708 170.58975783 16.94285178 177.29471362 17 184 C21.29 184 25.58 184 30 184 C30.01458252 182.85934082 30.02916504 181.71868164 30.04418945 180.54345703 C30.10206727 176.32015283 30.17929977 172.09738775 30.26245117 167.87451172 C30.29575026 166.0451735 30.32376657 164.2157313 30.34643555 162.38623047 C30.37989077 159.75963944 30.43219963 157.13400559 30.48828125 154.5078125 C30.49467117 153.68693146 30.5010611 152.86605042 30.50764465 152.02029419 C30.56762695 149.71533203 30.56762695 149.71533203 31 146 C34.46923881 143.68717413 35.92205575 143.57521414 40 144 C41.65551758 144.99536133 41.65551758 144.99536133 43 147 C43.33120542 149.8626546 43.48864092 152.51966604 43.51171875 155.38671875 C43.52966995 156.20372757 43.54762115 157.02073639 43.56611633 157.86250305 C43.62027788 160.47078294 43.65413308 163.07887925 43.6875 165.6875 C43.72066799 167.45640579 43.75515717 169.22528733 43.79101562 170.99414062 C43.87600746 175.32929473 43.94279035 179.66439384 44 184 C48.29 184 52.58 184 57 184 C57.00142502 182.85407883 57.00285004 181.70815765 57.00431824 180.5275116 C57.02096981 169.7413166 57.06368691 158.95549977 57.13209057 148.16950512 C57.16641775 142.62393445 57.19147946 137.07864094 57.19555664 131.53295898 C57.19982729 126.18349114 57.22818746 120.83464914 57.27343178 115.48537636 C57.28644631 113.44202631 57.29070055 111.39860151 57.28615379 109.35521507 C57.28127586 106.49808093 57.30721453 103.64279586 57.34057617 100.78588867 C57.33195053 99.93640656 57.32332489 99.08692444 57.31443787 98.21170044 C57.36076355 95.85343933 57.36076355 95.85343933 58 92 C61.12353782 89.36117076 63.78177612 88.61330029 67.8125 88.3125 C68.60269531 88.24675781 69.39289063 88.18101562 70.20703125 88.11328125 C71.09455078 88.05720703 71.09455078 88.05720703 72 88 C71.27425781 87.27554688 70.54851562 86.55109375 69.80078125 85.8046875 C68.06369958 84.06518313 66.33104865 82.32122718 64.60546875 80.5703125 C63.80753906 79.76335937 63.00960937 78.95640625 62.1875 78.125 C61.39730469 77.32320312 60.60710937 76.52140625 59.79296875 75.6953125 C56.97695545 72.9777612 54.06328224 70.41984619 51.1081543 67.85644531 C47.59433164 64.76216535 44.20849994 61.53487224 40.8125 58.3125 C35.18184162 52.99090847 29.53062247 47.69507938 23.8269043 42.4519043 C20.90872248 39.76735955 18.0025689 37.07085702 15.109375 34.359375 C14.44631348 33.73820801 13.78325195 33.11704102 13.10009766 32.47705078 C11.82775603 31.28397494 10.55651028 30.0897288 9.28662109 28.89404297 C7.53437774 27.25146513 5.77123135 25.62207502 4 24 C3.06172363 23.1352002 3.06172363 23.1352002 2.10449219 22.25292969 C1.18265137 21.42776855 1.18265137 21.42776855 0.2421875 20.5859375 C-0.30840332 20.08884277 -0.85899414 19.59174805 -1.42626953 19.07958984 C-4.63092469 16.88117453 -5.9337558 17.94023301 -8.63671875 20.37890625 Z M-10 137 C-10 152.51 -10 168.02 -10 184 C-6.04 184 -2.08 184 2 184 C2 168.49 2 152.98 2 137 C-1.96 137 -5.92 137 -10 137 Z " fill="#558FCF" transform="translate(185,91)"/>
<path d="M0 0 C0.67687866 -0.0065712 1.35375732 -0.0131424 2.05114746 -0.01991272 C4.29183065 -0.03962329 6.53244666 -0.05130718 8.77319336 -0.0612793 C9.92531217 -0.06739259 9.92531217 -0.06739259 11.1007061 -0.07362938 C15.17113856 -0.09448692 19.2415374 -0.1087864 23.31201172 -0.11816406 C27.49588615 -0.1291897 31.67922302 -0.16354524 35.86290836 -0.20333576 C39.09650081 -0.22962068 42.32996791 -0.23786666 45.56365776 -0.24144554 C47.10448244 -0.24628592 48.64530249 -0.25782634 50.1860218 -0.27648354 C60.07847694 -0.3887681 68.96700145 -0.13688718 76.95678711 6.32543945 C77.56522461 7.06020508 78.17366211 7.7949707 78.80053711 8.55200195 C79.74413086 9.64641602 79.74413086 9.64641602 80.70678711 10.76293945 C84.60210366 16.66319835 84.60802278 22.49707659 84.60131836 29.32543945 C84.60560349 30.2967984 84.60988861 31.26815735 84.61430359 32.26895142 C84.62003076 34.31804629 84.62055907 36.3671615 84.61621094 38.41625977 C84.61305454 41.5347805 84.63651836 44.65234857 84.66186523 47.77075195 C84.66413889 49.7681466 84.66484141 51.76554378 84.66381836 53.76293945 C84.67302811 54.68714691 84.68223785 55.61135437 84.69172668 56.56356812 C84.63820583 64.13324239 83.27171603 71.03596446 77.89537621 76.80531025 C69.23306477 84.25560461 59.41793256 83.89575416 48.6418457 83.83642578 C46.86698281 83.84488949 45.09212921 83.85553839 43.31729126 83.86819458 C38.52451719 83.89623355 33.73219232 83.89388837 28.9393611 83.88590074 C23.92114695 83.8827668 18.90307366 83.90783597 13.88491821 83.92985535 C4.39374638 83.96724665 -5.09728218 83.97944044 -14.58852041 83.98247975 C-25.39877265 83.98717591 -36.20888185 84.02011713 -47.01907086 84.0553776 C-69.24585196 84.12724648 -91.47257457 84.1638184 -113.69946289 84.17700195 C-113.19705078 84.710271 -112.69463867 85.24354004 -112.17700195 85.79296875 C-111.52957031 86.50106689 -110.88213867 87.20916504 -110.21508789 87.9387207 C-109.24490723 88.98612427 -109.24490723 88.98612427 -108.25512695 90.0546875 C-106.69946289 92.17700195 -106.69946289 92.17700195 -106.44946289 95.98950195 C-107.69946289 99.17700195 -107.69946289 99.17700195 -109.88696289 101.17700195 C-113.52909205 102.47198121 -114.97789025 102.31402767 -118.69946289 101.17700195 C-121.60614059 99.00235135 -124.13330319 96.48833805 -126.69946289 93.92700195 C-128.07303475 92.58699482 -129.44801152 91.24842609 -130.82446289 89.91137695 C-131.47801758 89.27135742 -132.13157227 88.63133789 -132.80493164 87.97192383 C-134.52952109 86.33800867 -136.29409029 84.81523583 -138.13696289 83.31762695 C-141.30620914 80.67014686 -141.60333537 80.01062829 -142.07470703 75.92285156 C-141.61403429 71.32421666 -139.87338435 69.33171785 -136.69555664 66.2434082 C-136.17945328 65.72060776 -135.66334991 65.19780731 -135.13160706 64.65916443 C-134.03968637 63.56249684 -132.93894109 62.47455346 -131.83007812 61.39501953 C-130.14141479 59.743855 -128.49338051 58.05864617 -126.84594727 56.36645508 C-125.77722081 55.30235458 -124.70632476 54.24042774 -123.63305664 53.1809082 C-123.14421494 52.67789688 -122.65537323 52.17488556 -122.15171814 51.65663147 C-119.3814019 49.01367206 -117.82982801 48.19250182 -113.98486328 47.73535156 C-110.69946289 48.17700195 -110.69946289 48.17700195 -108.19946289 50.23950195 C-106.69946289 53.17700195 -106.69946289 53.17700195 -106.44946289 56.48950195 C-107.76514276 60.37075757 -108.89102923 61.63303932 -111.77758789 64.4074707 C-112.87441895 65.47130981 -112.87441895 65.47130981 -113.9934082 66.55664062 C-114.55640625 67.09135986 -115.1194043 67.6260791 -115.69946289 68.17700195 C-92.87281758 68.22372934 -70.04618017 68.25899444 -47.21949673 68.2806263 C-36.62059874 68.29093745 -26.02173047 68.30499474 -15.42285156 68.32788086 C-6.18452833 68.34781962 3.05377338 68.36071956 12.29211754 68.36517894 C17.18342023 68.36778549 22.07466134 68.37390874 26.96594429 68.38846207 C31.57136219 68.40205361 36.17669323 68.40622139 40.78212929 68.40321732 C42.47076642 68.40376677 44.15940651 68.40773484 45.84802628 68.4154129 C48.15782841 68.42539881 50.46730481 68.42295764 52.77711487 68.41751099 C54.71426282 68.42027637 54.71426282 68.42027637 56.69054508 68.42309761 C60.52114522 68.16196295 63.70978733 67.53846714 67.30053711 66.17700195 C68.1984 63.48341327 68.44417133 61.83364583 68.4934082 59.06030273 C68.50947113 58.2357962 68.52553406 57.41128967 68.54208374 56.5617981 C68.5866714 52.80154396 68.62757977 49.04146252 68.65063477 45.28100586 C68.66720739 43.29846468 68.6945146 41.31598357 68.73266602 39.33374023 C68.78744759 36.47128397 68.80930816 33.61022436 68.82397461 30.74731445 C68.85797867 29.42209274 68.85797867 29.42209274 68.89266968 28.07009888 C68.88981964 27.23928802 68.8869696 26.40847717 68.8840332 25.55249023 C68.89616348 24.46352951 68.89616348 24.46352951 68.90853882 23.35256958 C67.93590535 19.87226704 66.11207531 18.37088005 63.30053711 16.17700195 C59.97098149 15.44056131 59.97098149 15.44056131 56.27880859 15.56518555 C55.59200012 15.55952072 54.90519165 15.5538559 54.1975708 15.54801941 C51.93836074 15.53456769 49.68076961 15.55542274 47.42163086 15.57543945 C45.84651086 15.56993736 44.27139804 15.56181101 42.69630432 15.55117798 C38.55652491 15.528315 34.41727404 15.53250459 30.27746582 15.54498291 C23.64827516 15.56330616 17.01939281 15.55334324 10.39027596 15.51912308 C8.07679427 15.51301904 5.76397582 15.52627689 3.45054626 15.54110718 C2.03131947 15.5381592 0.6120939 15.53450453 -0.80712891 15.5300293 C-2.04447281 15.53400726 -3.28181671 15.53798523 -4.55665588 15.54208374 C-7.95159293 15.14771346 -9.32612885 14.59378442 -11.69946289 12.17700195 C-12.88211619 8.5501985 -13.00846357 6.87225349 -11.44946289 3.36450195 C-8.33225488 -0.53200806 -4.68193922 0.03764035 0 0 Z " fill="#558FCF" transform="translate(349.699462890625,342.822998046875)"/>
<path d="M0 0 C5.89574266 1.25646975 8.94158835 5.38860097 12.8125 9.8125 C16.03391262 8.42287103 17.8474867 6.829198 20.125 4.1875 C22.81632768 1.42109237 23.53640418 0.86397549 27.5 0.125 C31.3350357 0.9209508 32.66367511 1.54628616 34.8125 4.8125 C35.5 7.5625 35.5 7.5625 34.8125 10.8125 C32.33207778 14.3661135 29.41517766 17.54704519 26.01171875 20.234375 C23.02564032 22.6574458 21.92162771 23.91880147 21.44140625 27.8515625 C21.43788036 30.86267195 21.55046496 33.8136546 21.8125 36.8125 C22.30878906 36.24660156 22.80507813 35.68070313 23.31640625 35.09765625 C26.5819163 31.57189682 28.91346007 29.13249726 33.5 27.5 C36.8125 27.8125 36.8125 27.8125 39.8125 29.8125 C41.8125 32.8125 41.8125 32.8125 42.125 36.125 C40.27835 41.31320716 36.89216108 44.23466511 32.8125 47.8125 C37.06989496 48.71000488 40.56859305 48.8569359 44.8125 47.8125 C48.03283584 45.43947757 50.63524711 42.50457893 53.18237305 39.43676758 C57.05378983 34.91567188 57.05378983 34.91567188 61.546875 34.3046875 C64.8125 34.8125 64.8125 34.8125 67.25 36.4375 C68.8125 38.8125 68.8125 38.8125 69.5 41.5625 C68.60113644 45.81167319 66.52470917 47.82344616 63.5390625 50.8828125 C61.84379415 52.77752419 60.83128138 54.49708778 59.8125 56.8125 C60.37839844 57.30878906 60.94429688 57.80507812 61.52734375 58.31640625 C65.05310318 61.5819163 67.49250274 63.91346007 69.125 68.5 C68.8125 71.8125 68.8125 71.8125 66.8125 74.8125 C63.8125 76.8125 63.8125 76.8125 60.48046875 76.81640625 C55.93674941 75.57281107 54.0132783 73.23709205 51.125 69.75 C48.03607637 66.30351608 45.97491762 64.08034424 41.37109375 63.01953125 C38.4287633 63.05774333 35.70002329 63.25957001 32.8125 63.8125 C33.37839844 64.32039063 33.94429688 64.82828125 34.52734375 65.3515625 C40.49034666 70.94777261 40.49034666 70.94777261 42 75 C41.76286419 78.5570372 41.23073431 80.16755622 38.8125 82.8125 C35.625 84.0625 35.625 84.0625 31.8125 83.8125 C28.79869506 81.80511007 26.3203783 79.4126221 23.8125 76.8125 C22.8225 75.8225 22.8225 75.8225 21.8125 74.8125 C21.00353717 79.03708369 20.84253485 82.6029468 21.8125 86.8125 C23.94741514 89.81430376 26.6298157 92.19717705 29.45605469 94.53808594 C32.48829775 97.11358946 33.75216082 98.58562468 34.7890625 102.484375 C34.8125 105.8125 34.8125 105.8125 33.25 108.75 C30.8125 110.8125 30.8125 110.8125 28.0625 111.5625 C23.84720509 110.58973964 21.79301215 108.51637331 18.7421875 105.5390625 C16.84747581 103.84379415 15.12791222 102.83128138 12.8125 101.8125 C12.25820313 102.37839844 11.70390625 102.94429688 11.1328125 103.52734375 C10.40835938 104.26082031 9.68390625 104.99429688 8.9375 105.75 C8.21820313 106.48089844 7.49890625 107.21179688 6.7578125 107.96484375 C4.32068638 110.27962418 3.29959029 110.7595554 -0.0625 111.125 C-3.1875 110.8125 -3.1875 110.8125 -5.5625 109.25 C-7.85109261 105.81711108 -7.74125527 103.88473105 -7.1875 99.8125 C-5.32751939 97.39319083 -3.02766414 95.56797892 -0.6875 93.625 C4.21187675 89.24888613 4.21187675 89.24888613 6.67578125 83.3046875 C6.63066924 80.36893701 6.41753147 77.68252106 5.8125 74.8125 C5.31621094 75.37839844 4.81992187 75.94429688 4.30859375 76.52734375 C1.0430837 80.05310318 -1.28846007 82.49250274 -5.875 84.125 C-9.1875 83.8125 -9.1875 83.8125 -12.1875 81.8125 C-14.1875 78.8125 -14.1875 78.8125 -14.5 75.5 C-12.65335 70.31179284 -9.26716108 67.39033489 -5.1875 63.8125 C-9.41208369 63.00353717 -12.9779468 62.84253485 -17.1875 63.8125 C-20.18930376 65.94741514 -22.57217705 68.6298157 -24.91308594 71.45605469 C-27.48924417 74.48906856 -28.95839596 75.7518118 -32.859375 76.78515625 C-36.1875 76.8125 -36.1875 76.8125 -39.125 75.3125 C-41.1875 72.8125 -41.1875 72.8125 -42.0625 69.625 C-40.71521024 63.75466604 -36.6135953 60.68533339 -32.1875 56.8125 C-33.57712897 53.59108738 -35.170802 51.7775133 -37.8125 49.5 C-40.57890763 46.80867232 -41.13602451 46.08859582 -41.875 42.125 C-41.0790492 38.2899643 -40.45371384 36.96132489 -37.1875 34.8125 C-34.4375 34.125 -34.4375 34.125 -31.1875 34.8125 C-27.6338865 37.29292222 -24.45295481 40.20982234 -21.765625 43.61328125 C-19.3425542 46.59935968 -18.08119853 47.70337229 -14.1484375 48.18359375 C-11.13732805 48.18711964 -8.1863454 48.07453504 -5.1875 47.8125 C-5.75339844 47.25820312 -6.31929688 46.70390625 -6.90234375 46.1328125 C-7.63582031 45.40835938 -8.36929688 44.68390625 -9.125 43.9375 C-9.85589844 43.21820313 -10.58679688 42.49890625 -11.33984375 41.7578125 C-13.65462418 39.32068638 -14.1345554 38.29959029 -14.5 34.9375 C-14.1875 31.8125 -14.1875 31.8125 -12.5625 29.4375 C-10.1875 27.8125 -10.1875 27.8125 -7.4375 27.125 C-1.72858942 28.33265416 1.79718373 32.79718373 5.8125 36.8125 C6.71138844 32.1183048 7.47105102 27.25954249 4.65087891 23.09863281 C2.14717895 20.23939254 -0.6137685 17.71777055 -3.46484375 15.2109375 C-6.52470648 12.51544867 -7.06914697 11.90134791 -7.5 7.9375 C-7.1875 4.8125 -7.1875 4.8125 -5.625 2.4375 C-3.1875 0.8125 -3.1875 0.8125 0 0 Z " fill="#558FCF" transform="translate(365.1875,83.1875)"/>
<path d="M0 0 C4.15011143 3.55290027 7.6357336 7.91952617 8.6015625 13.37109375 C8.99316242 19.24509255 8.69794829 24.23437428 5.6015625 29.37109375 C1.19734406 34.22336039 -3.36371351 37.85242968 -10.01171875 38.70703125 C-17.16996646 38.81062384 -22.51839855 37.8948026 -27.9296875 32.98046875 C-32.81825192 27.58031038 -33.88712721 21.95005516 -33.70703125 14.89453125 C-32.99619892 9.0819023 -30.31806937 4.94227076 -26.0859375 0.99609375 C-18.51534176 -4.89036522 -8.09335163 -5.23574643 0 0 Z M-16.6484375 12.49609375 C-18.68151928 14.31749785 -18.68151928 14.31749785 -18.8359375 17.37109375 C-18.60581607 20.29843207 -18.60581607 20.29843207 -17.2734375 22.24609375 C-14.51752866 23.89963906 -12.54768298 23.76474943 -9.3984375 23.37109375 C-7.31510417 22.45442708 -7.31510417 22.45442708 -6.3984375 20.37109375 C-6.39761215 16.79352689 -6.39761215 16.79352689 -7.3984375 13.37109375 C-10.88098057 11.04939837 -12.82127463 10.58251232 -16.6484375 12.49609375 Z " fill="#558FCF" transform="translate(193.3984375,148.62890625)"/>
<path d="M0 0 C5.31384624 3.10974575 9.33135046 7.34950617 11.125 13.3125 C12.3499886 20.00480614 11.64173496 25.41221036 8.0625 31.25 C4.63156612 35.97578152 1.15300313 38.13793633 -4.3125 40.1875 C-10.60311137 40.97382642 -15.71905366 40.40497048 -21.3125 37.4375 C-26.05332369 33.32878613 -29.96865863 29.24230205 -30.55078125 22.80078125 C-30.71195108 16.17585305 -30.58633153 10.75315196 -26.3125 5.4375 C-18.88002885 -1.39678433 -9.69683813 -4.38042495 0 0 Z M-15.3125 15.4375 C-16.40866096 17.74944193 -16.40866096 17.74944193 -16.3125 20.4375 C-14.97134601 23.44729883 -14.97134601 23.44729883 -12.3125 25.4375 C-8.68010187 25.6091367 -8.68010187 25.6091367 -5.3125 24.4375 C-2.97953749 21.61032787 -2.97953749 21.61032787 -3.5625 18.375 C-4.0718244 15.338041 -4.0718244 15.338041 -6.3125 13.4375 C-10.36511287 13.09259678 -11.86004176 13.13586118 -15.3125 15.4375 Z " fill="#558FCF" transform="translate(320.3125,201.5625)"/>
<path d="M0 0 C3.35289725 1.11763242 5.40296009 2.63211067 8 5 C10.26118705 3.95016316 11.97525665 3.02303691 13.8125 1.3125 C16 0 16 0 19.5625 0.0625 C23 1 23 1 25 2.625 C26.47326389 6.12400175 25.97114747 8.37438276 25 12 C22.9375 14.4375 22.9375 14.4375 21 16 C22.10027945 18.28519577 23.21277029 20.29945448 24.6875 22.375 C26.37749525 25.75499049 26.0878158 27.42574807 25 31 C23.875 32.875 23.875 32.875 22 34 C17.39001603 34.7092283 14.77976711 34.15411364 11.0625 31.5 C10.051875 30.675 9.04125 29.85 8 29 C7.319375 29.825 6.63875 30.65 5.9375 31.5 C3 34 3 34 -0.5625 34.5625 C-4 34 -4 34 -6.4375 32.375 C-8.5245904 29.20262259 -8.66101805 27.74576893 -8 24 C-6.53900002 21.48748446 -4.85234328 19.23604296 -3 17 C-3.825 16.154375 -4.65 15.30875 -5.5 14.4375 C-7.64920042 11.84003777 -8.01992941 10.88440941 -8.625 7.375 C-8 4 -8 4 -5.875 1.5 C-3 0 -3 0 0 0 Z " fill="#558FCF" transform="translate(97,67)"/>
<path d="M0 0 C2 2 2 2 2.375 5.9375 C2.29081697 8.8365531 2.24906476 9.69345876 0.375 12 C-2.703451 13.29618989 -4.68876368 13.48288863 -8 13 C-10.375 11.4375 -10.375 11.4375 -12 9 C-12.72592593 3.08888889 -12.72592593 3.08888889 -10.75 0.125 C-6.68296484 -2.4895226 -4.29536585 -2.14768292 0 0 Z " fill="#568FCF" transform="translate(295,99)"/>
</svg>
