<?xml version="1.0" encoding="UTF-8"?>
<svg version="1.1" xmlns="http://www.w3.org/2000/svg" width="512" height="512">
<path d="M0 0 C1.80007207 -0.00461416 3.60014037 -0.01097052 5.40020084 -0.01890898 C10.32530088 -0.03555467 15.25008953 -0.02737759 20.17519045 -0.0149641 C25.49497838 -0.00589643 30.81471358 -0.01989186 36.13449097 -0.03088379 C46.5475035 -0.04865524 56.96040059 -0.04483512 67.37341762 -0.03323323 C75.83750654 -0.02419379 84.30156315 -0.02297712 92.76565552 -0.02732849 C93.97104668 -0.02794142 95.17643784 -0.02855436 96.418356 -0.02918586 C98.86720809 -0.03046478 101.31606018 -0.03176164 103.76491225 -0.03307623 C126.71913303 -0.044478 149.67328988 -0.03137461 172.62750018 -0.00987476 C192.31639606 0.00799584 212.00519761 0.00489162 231.6940918 -0.0135498 C254.56707913 -0.03496359 277.44001045 -0.0433794 300.3130064 -0.03110075 C302.75276883 -0.02982657 305.19253126 -0.02856909 307.6322937 -0.02732849 C308.83265308 -0.02671139 310.03301246 -0.02609429 311.26974636 -0.02545848 C319.72209111 -0.02200712 328.17440027 -0.02782935 336.6267395 -0.0372467 C346.92958281 -0.04847369 357.23230423 -0.04541183 367.5351336 -0.02412373 C372.79018247 -0.01362284 378.04502824 -0.00947524 383.30007553 -0.02272034 C388.11392102 -0.03466977 392.92737581 -0.02803954 397.74118602 -0.00681013 C399.47926094 -0.00235489 401.21736911 -0.00458601 402.95542252 -0.01431328 C417.66999378 -0.0903259 428.96678923 2.36493081 440.19897461 12.50793457 C450.02471042 23.38878295 452.807026 34.26463668 452.70690918 48.66442871 C452.71152678 50.06852138 452.71788543 51.4726092 452.72581816 52.87668705 C452.74241701 56.70726618 452.73430862 60.53744339 452.72187328 64.3680234 C452.71278611 68.50989192 452.72681062 72.65169355 452.73779297 76.79354858 C452.75554379 84.89647881 452.75175357 92.9992605 452.74014241 101.10219646 C452.7310948 107.6898576 452.72988982 114.27747724 452.73423767 120.86514282 C452.7348506 121.8040993 452.73546354 122.74305578 452.73609504 123.71046549 C452.73737399 125.61816558 452.73867085 127.52586567 452.73998541 129.43356574 C452.75138114 147.30602175 452.73829331 165.17839558 452.71678394 183.05083811 C452.69891388 198.37349213 452.70201827 213.69602492 452.72045898 229.01867676 C452.7418835 246.82884815 452.75028259 264.63894758 452.73800993 282.44913006 C452.73673578 284.34966213 452.7354783 286.25019422 452.73423767 288.15072632 C452.73331202 289.55323351 452.73331202 289.55323351 452.73236766 290.98407418 C452.72891951 297.5609031 452.73473158 304.13768623 452.74415588 310.71450806 C452.75539482 318.73366137 452.75229606 326.75265814 452.73103291 334.7717936 C452.72054793 338.86030835 452.71635684 342.94856245 452.72962952 347.03707504 C452.74161255 350.78511675 452.73489466 354.53265801 452.71371931 358.28065479 C452.70718603 360.26725863 452.72013631 362.25389764 452.73394823 364.24046421 C452.6215127 377.16956466 448.70287935 386.77361138 440.19897461 396.50793457 C432.14207115 404.16037501 422.29596811 408.65241336 411.24584961 408.60559082 C410.58562805 408.60417587 409.92540649 408.60276093 409.24517822 408.6013031 C407.14639667 408.59572702 405.04772366 408.58317904 402.94897461 408.57043457 C401.52189282 408.56541647 400.09480935 408.56085411 398.66772461 408.5567627 C395.17810629 408.54576546 391.68855105 408.52851737 388.19897461 408.50793457 C388.23825073 409.59678955 388.23825073 409.59678955 388.27832031 410.7076416 C388.38264271 414.01584998 388.44741333 417.32371177 388.51147461 420.63293457 C388.55336914 421.77504395 388.59526367 422.91715332 388.63842773 424.09387207 C388.77656911 433.5979984 388.77656911 433.5979984 385.80444336 437.25012207 C381.73808216 440.77389535 379.00648771 440.89773928 373.74975586 440.86730957 C369.64028957 440.28833423 367.98547884 438.50878528 365.19897461 435.50793457 C361.17129262 427.45257059 364.19897461 417.51410529 364.19897461 408.50793457 C255.95897461 408.50793457 147.71897461 408.50793457 36.19897461 408.50793457 C36.19897461 416.75793457 36.19897461 425.00793457 36.19897461 433.50793457 C30.50239055 440.34383544 30.50239055 440.34383544 27.02709961 440.78137207 C19.21021092 441.08931011 19.21021092 441.08931011 15.63647461 438.13293457 C12.19538389 434.42714456 12.0763167 432.79419994 12.10131836 427.84387207 C12.10454102 426.7223877 12.10776367 425.60090332 12.11108398 424.44543457 C12.12365234 422.68199707 12.12365234 422.68199707 12.13647461 420.88293457 C12.14098633 419.6995752 12.14549805 418.51621582 12.15014648 417.29699707 C12.16195994 414.36725951 12.17843203 411.43762185 12.19897461 408.50793457 C11.34779053 408.52888184 10.49660645 408.5498291 9.61962891 408.57141113 C6.40840795 408.64029619 3.19756818 408.69007508 -0.01416016 408.72766113 C-1.39417039 408.74756127 -2.77409876 408.77469197 -4.15380859 408.80969238 C-18.65855697 409.16796441 -28.79899267 406.11931036 -39.80102539 396.50793457 C-46.98226824 388.94713343 -51.91700012 379.1968908 -51.93524647 368.73656368 C-51.93970431 367.55102868 -51.94416216 366.36549368 -51.94875509 365.14403337 C-51.94857072 363.84026563 -51.94838636 362.5364979 -51.94819641 361.19322205 C-51.95149619 359.79517628 -51.95522201 358.39713147 -51.95933789 356.99908787 C-51.96935312 353.15282547 -51.97307392 349.30657868 -51.9757272 345.46030509 C-51.9796317 341.31356193 -51.98920998 337.16683111 -51.99794006 333.02009583 C-52.01770097 323.00308632 -52.02777048 312.98607581 -52.03666785 302.96905169 C-52.04105161 298.25098946 -52.04641821 293.53292836 -52.05165672 288.81486702 C-52.06866908 273.12919949 -52.08316283 257.44353266 -52.09040546 241.75785732 C-52.09231534 237.68748918 -52.09423567 233.61712105 -52.09619141 229.54675293 C-52.09667515 228.53509133 -52.09715889 227.52342973 -52.09765729 226.48111171 C-52.105956 210.09611769 -52.13129022 193.71119671 -52.16377208 177.32623457 C-52.196854 160.50129872 -52.21485527 143.67639997 -52.21804971 126.85143143 C-52.22021381 117.40601419 -52.22894794 107.96070344 -52.25451088 98.51531792 C-52.27623338 90.47039913 -52.28426069 82.42561271 -52.2745441 74.38066792 C-52.2700038 70.27800904 -52.27186968 66.17562318 -52.29130554 62.07300186 C-52.30896979 58.31175425 -52.30791347 54.55097816 -52.29240825 50.78972531 C-52.28892002 48.79580871 -52.30503414 46.80188697 -52.32201272 44.80803961 C-52.2306159 31.98623705 -48.42633204 22.05944865 -39.80102539 12.50793457 C-27.73253735 1.60972415 -15.63062374 -0.08747912 0 0 Z M-21.80102539 30.50793457 C-26.71368774 36.72178857 -27.92390957 42.34023914 -27.92965984 50.22143364 C-27.93288429 51.34313292 -27.93610874 52.46483221 -27.93943089 53.62052238 C-27.93788229 54.84269183 -27.93633369 56.06486128 -27.93473816 57.32406616 C-27.93700372 58.63028494 -27.93926927 59.93650372 -27.94160348 61.28230488 C-27.947714 64.90181385 -27.94758877 68.52129969 -27.94640911 72.14081264 C-27.94620491 76.04683077 -27.95172561 79.95284152 -27.95646667 83.8588562 C-27.96476948 91.50889178 -27.96752134 99.15891965 -27.96807905 106.80895935 C-27.96855435 113.02728469 -27.97060978 119.2456075 -27.97377968 125.46393204 C-27.98258493 143.09596822 -27.98719921 160.72799832 -27.9864492 178.36003672 C-27.98640925 179.31038109 -27.98636929 180.26072547 -27.98632812 181.23986816 C-27.98628724 182.1913734 -27.98624636 183.14287863 -27.98620424 184.12321736 C-27.98579772 199.546574 -27.9953692 214.96990623 -28.00946649 230.39325581 C-28.02382896 246.23173994 -28.03073676 262.07021216 -28.02987272 277.90870297 C-28.02954072 286.80007592 -28.03228896 295.69142329 -28.04305077 304.58279037 C-28.05215401 312.15231692 -28.05433242 319.72180627 -28.04754134 327.29133593 C-28.04427537 331.15255282 -28.04422226 335.01369833 -28.05289459 338.87490845 C-28.06220342 343.06260494 -28.05598565 347.25013601 -28.04826355 351.43783569 C-28.05340711 352.6555437 -28.05855068 353.8732517 -28.0638501 355.12785995 C-28.02827438 363.84553526 -27.66941988 371.55852005 -21.80102539 378.50793457 C-15.08050476 383.82116669 -9.07482746 384.63181349 -0.58825874 384.63656902 C0.118631 384.63832206 0.82552075 384.6400751 1.5538314 384.64188126 C3.9224531 384.64653307 6.29101321 384.64407787 8.65963745 384.64164734 C10.3750317 384.64351572 12.09042553 384.64581653 13.80581868 384.64851266 C18.51987723 384.65463365 23.23391806 384.65449672 27.94797969 384.65331829 C33.03192211 384.65311436 38.11585882 384.65863226 43.19979858 384.66337585 C53.15992681 384.67168441 63.12004911 384.67443078 73.08018051 384.67498823 C81.17493611 384.67546326 89.26968975 384.67751734 97.36444473 384.68068886 C120.30888334 384.68949569 143.25331727 384.69410814 166.19775759 384.69335838 C167.43485354 384.69331843 168.67194949 384.69327847 169.9465332 384.6932373 C171.18513746 384.69319642 172.42374171 384.69315554 173.69987942 384.69311342 C193.77913268 384.69270686 213.85836719 384.70227896 233.93761502 384.71637567 C254.54927112 384.73073213 275.16091808 384.73764627 295.77257931 384.7367819 C307.34673487 384.73644969 318.92087077 384.73920705 330.49502182 384.74995995 C340.34824858 384.7590553 350.20144678 384.76124811 360.05467592 384.75445052 C365.08244027 384.75118055 370.11014977 384.75114586 375.13790894 384.75980377 C379.74074038 384.7676485 384.34347332 384.76625811 388.94630231 384.75751964 C390.61112686 384.75598019 392.27595869 384.75781753 393.94077466 384.76337972 C396.20547724 384.77044481 398.46983471 384.76514239 400.73452568 384.75682354 C402.62065427 384.75714959 402.62065427 384.75714959 404.54488647 384.75748223 C411.21920066 384.30167508 416.98302941 382.91251052 422.19897461 378.50793457 C427.11163696 372.29408057 428.32185879 366.67563 428.32760906 358.7944355 C428.33083351 357.67273622 428.33405795 356.55103693 428.33738011 355.39534676 C428.33583151 354.17317731 428.33428291 352.95100786 428.33268738 351.69180298 C428.33495293 350.3855842 428.33721849 349.07936542 428.3395527 347.73356426 C428.34566321 344.11405529 428.34553799 340.49456945 428.34435833 336.87505651 C428.34415413 332.96903837 428.34967483 329.06302762 428.35441589 325.15701294 C428.3627187 317.50697736 428.36547056 309.85694949 428.36602827 302.20690979 C428.36650357 295.98858445 428.368559 289.77026164 428.3717289 283.5519371 C428.38053415 265.91990092 428.38514843 248.28787082 428.38439842 230.65583242 C428.38435847 229.70548805 428.38431851 228.75514367 428.38427734 227.77600098 C428.38423646 226.82449574 428.38419558 225.87299051 428.38415346 224.89265178 C428.38374694 209.46929514 428.39331842 194.04596291 428.40741571 178.62261333 C428.42177818 162.7841292 428.42868598 146.94565698 428.42782193 131.10716617 C428.42748994 122.21579322 428.43023818 113.32444585 428.44099998 104.43307877 C428.45010323 96.86355222 428.45228164 89.29406287 428.44549056 81.72453322 C428.44222459 77.86331632 428.44217148 74.00217081 428.45084381 70.14096069 C428.46015264 65.9532642 428.45393487 61.76573313 428.44621277 57.57803345 C428.45392811 55.75147144 428.45392811 55.75147144 428.46179932 53.88800919 C428.4262236 45.17033388 428.0673691 37.45734909 422.19897461 30.50793457 C415.47845398 25.19470245 409.47277668 24.38405565 400.98620796 24.37930012 C400.27931822 24.37754708 399.57242847 24.37579404 398.84411782 24.37398788 C396.47549611 24.36933607 394.10693601 24.37179127 391.73831177 24.3742218 C390.02291752 24.37235342 388.30752369 24.37005261 386.59213054 24.36735648 C381.87807199 24.36123549 377.16403115 24.36137242 372.44996953 24.36255085 C367.36602711 24.36275478 362.2820904 24.35723688 357.19815063 24.35249329 C347.23802241 24.34418473 337.27790011 24.34143836 327.31776871 24.34088091 C319.22301311 24.34040588 311.12825947 24.3383518 303.03350449 24.33518028 C280.08906588 24.32637345 257.14463194 24.321761 234.20019163 24.32251076 C232.3445477 24.32257069 232.3445477 24.32257069 230.45141602 24.32263184 C229.21281176 24.32267272 227.97420751 24.3227136 226.6980698 24.32275572 C206.61881654 24.32316228 186.53958203 24.31359018 166.4603342 24.29949347 C145.84867809 24.28513701 125.23703114 24.27822287 104.62536991 24.27908725 C93.05121435 24.27941945 81.47707845 24.27666209 69.9029274 24.26590919 C60.04970063 24.25681384 50.19650244 24.25462103 40.3432733 24.26141862 C35.31550895 24.26468859 30.28779945 24.26472328 25.26004028 24.25606537 C20.65720883 24.24822064 16.05447589 24.24961103 11.45164691 24.2583495 C9.78682236 24.25988895 8.12199053 24.25805161 6.45717455 24.25248943 C4.19247198 24.24542433 1.92811451 24.25072675 -0.33657646 24.2590456 C-2.22270505 24.25871955 -2.22270505 24.25871955 -4.14693725 24.25838691 C-10.82125144 24.71419406 -16.58508019 26.10335862 -21.80102539 30.50793457 Z " fill="#558FCF" transform="translate(55.801025390625,35.4920654296875)"/>
<path d="M0 0 C9.68407827 5.81044696 14.24722241 17.53339508 17 28 C20.6620497 45.08956528 16.67814082 63.97594345 8 79 C7.19954627 80.06844988 6.3728682 81.11782419 5.51953125 82.14453125 C3.08114558 85.11594087 1.26512741 87.36103351 0 91 C0.73175535 95.32078842 2.88814426 99.01670519 5.08984375 102.75 C6.61172375 105.33937456 7.54177298 107.09062212 8 110 C21.1476951 109.34261525 31.9505759 103.6259931 40.8125 94.0625 C45.47198424 88.44153488 46.92541065 83.42141389 48.3125 76.375 C49.91126328 69.28660566 49.91126328 69.28660566 52.5625 66.6875 C57.17556842 64.42290278 60.9566108 63.95372153 66 65 C69.11414036 66.70431827 71.38809699 68.77619399 73 72 C74.28846069 88.51764357 69.69380317 100.33033247 59.1953125 113.21484375 C49.70365542 123.50086698 34.02587536 132.99527414 19.89453125 134.5390625 C16.03058025 134.96555433 12.60622485 135.43266193 9 137 C6.15415489 141.42874121 5.09716871 145.89675888 4 151 C3.35656895 153.00759581 2.69766105 155.01059971 2 157 C13.7336647 163.80870292 25.86279926 169.87154062 39.8359375 167.5234375 C45.73718801 165.91078346 50.3164972 163.26420549 55 159.3125 C58.86949551 156.77314357 62.15593692 156.85447188 66.625 157.625 C70.58871069 159.2398451 71.93206665 160.26181279 74 164 C75.13761759 168.2523361 75.31869419 171.79876805 74.1875 176.0625 C66.72723058 186.08057608 54.89256547 191.72074563 42.734375 193.71484375 C24.45860459 195.62074552 7.59973985 191.75156151 -8 182 C-9.53189625 180.70042924 -11.05468781 179.38993839 -12.5625 178.0625 C-14.51030053 176.44797064 -14.51030053 176.44797064 -17 176 C-21.19689698 177.29945764 -24.82172665 179.02551174 -28.64453125 181.16015625 C-31.24884599 182.58813325 -33.1202007 183.52849634 -36 184 C-35.58812987 195.9442337 -30.64130431 206.48652986 -22.26171875 214.94921875 C-15.91113053 220.70752413 -10.0913272 222.83003252 -1.72241211 224.30615234 C1.99867159 225.06073673 4.43825712 226.02018936 6.94921875 228.81640625 C9.86739406 233.34652602 10.08316342 236.77881381 9 242 C7.29568173 245.11414036 5.22380601 247.38809699 2 249 C-12.34557558 250.3143852 -24.16188495 247.0430031 -35.61328125 238.015625 C-36.40089844 237.35046875 -37.18851563 236.6853125 -38 236 C-38.94939453 235.21882813 -38.94939453 235.21882813 -39.91796875 234.421875 C-49.96849497 225.31430433 -59.05209715 209.50573575 -60.5390625 195.89453125 C-60.96555433 192.03058025 -61.43266193 188.60622485 -63 185 C-67.42874121 182.15415489 -71.89675888 181.09716871 -77 180 C-79.00759581 179.35656895 -81.01059971 178.69766105 -83 178 C-90.00039988 190.06402246 -96.30521795 202.94316197 -93.375 217.3125 C-91.41044427 222.58108129 -88.52970013 226.94281707 -85.1875 231.4375 C-83.39593677 235.30350486 -83.21292875 238.82190213 -84 243 C-85.72221273 246.34520333 -88.11389994 248.44918105 -91.3125 250.4375 C-96.66006532 251.55675786 -100.49823305 250.91944915 -105.0625 248.125 C-115.5970479 238.10713292 -119.79540302 223.67394779 -120.25 209.5625 C-120.05638867 195.42887256 -116.79854039 179.01966862 -107.51953125 167.85546875 C-105.08114558 164.88405913 -103.26512741 162.63896649 -102 159 C-102.73175535 154.67921158 -104.88814426 150.98329481 -107.08984375 147.25 C-108.61172375 144.66062544 -109.54177298 142.90937788 -110 140 C-123.1476951 140.65738475 -133.9505759 146.3740069 -142.8125 155.9375 C-147.47198424 161.55846512 -148.92541065 166.57858611 -150.3125 173.625 C-151.91126328 180.71339434 -151.91126328 180.71339434 -154.5625 183.3125 C-159.17556842 185.57709722 -162.9566108 186.04627847 -168 185 C-171.11414036 183.29568173 -173.38809699 181.22380601 -175 178 C-176.3143852 163.65442442 -173.0430031 151.83811505 -164.015625 140.38671875 C-163.35046875 139.59910156 -162.6853125 138.81148437 -162 138 C-161.21882813 137.05060547 -161.21882813 137.05060547 -160.421875 136.08203125 C-147.81244254 122.16707675 -128.964709 115.90493167 -111 113 C-110.74605469 112.20335937 -110.49210937 111.40671875 -110.23046875 110.5859375 C-108.46675792 105.15608619 -106.65665212 100.04763903 -104 95 C-104 94.34 -104 93.68 -104 93 C-116.06402246 85.99960012 -128.94316197 79.69478205 -143.3125 82.625 C-148.49350946 84.55690183 -152.86284228 87.23998776 -157.125 90.75 C-160.91367796 93.27578531 -164.24744658 93.12975059 -168.625 92.375 C-172.58871069 90.7601549 -173.93206665 89.73818721 -176 86 C-177.13761759 81.7476639 -177.31869419 78.20123195 -176.1875 73.9375 C-168.43622449 63.52864432 -156.35830107 58.15007248 -143.76171875 56.28125 C-127.82772415 54.65855182 -108.60347749 57.30698875 -95.37646484 67.21630859 C-94.87453613 67.63348145 -94.37260742 68.0506543 -93.85546875 68.48046875 C-90.88405913 70.91885442 -88.63896649 72.73487259 -85 74 C-80.67921158 73.26824465 -76.98329481 71.11185574 -73.25 68.91015625 C-70.66062544 67.38827625 -68.90937788 66.45822702 -66 66 C-66.65738475 52.8523049 -72.3740069 42.0494241 -81.9375 33.1875 C-87.55846512 28.52801576 -92.57858611 27.07458935 -99.625 25.6875 C-106.71339434 24.08873672 -106.71339434 24.08873672 -109.3125 21.4375 C-111.57709722 16.82443158 -112.04627847 13.0433892 -111 8 C-109.29568173 4.88585964 -107.22380601 2.61190301 -104 1 C-89.65442442 -0.3143852 -77.83811505 2.9569969 -66.38671875 11.984375 C-65.59910156 12.64953125 -64.81148438 13.3146875 -64 14 C-63.36707031 14.52078125 -62.73414063 15.0415625 -62.08203125 15.578125 C-48.16707675 28.18755746 -41.90493167 47.035291 -39 65 C-38.20335937 65.25394531 -37.40671875 65.50789063 -36.5859375 65.76953125 C-31.15608619 67.53324208 -26.04763903 69.34334788 -21 72 C-20.34 72 -19.68 72 -19 72 C-12.19129708 60.2663353 -6.12845938 48.13720074 -8.4765625 34.1640625 C-10.08921654 28.26281199 -12.73579451 23.6835028 -16.6875 19 C-19.22685643 15.13050449 -19.14552812 11.84406308 -18.375 7.375 C-16.82131633 3.56141281 -15.44170258 2.1825431 -12 0 C-7.78434444 -1.40521852 -4.29380636 -1.03465214 0 0 Z M-79 103 C-86.14207432 112.21611933 -86.85183 121.73814361 -86 133 C-84.18842444 142.07003603 -78.02951904 149.10235094 -70.84765625 154.66796875 C-61.54696079 160.75537211 -50.85152967 161.56820097 -40.0859375 159.41796875 C-31.05436132 156.27842084 -23.75371279 149.14689033 -18.9375 141.01953125 C-14.84488451 132.20335537 -14.21760738 120.88770479 -17.4375 111.625 C-21.98331242 102.09967575 -30.03310511 94.78675795 -39.75390625 90.8984375 C-55.25973208 86.60681302 -68.31990921 91.48523071 -79 103 Z " fill="#558FCF" transform="translate(243,99)"/>
<path d="M0 0 C0.71241852 -0.00817749 1.42483704 -0.01635498 2.15884399 -0.02478027 C4.52157754 -0.04963511 6.88425094 -0.0661519 9.24707031 -0.08056641 C10.05415688 -0.08589008 10.86124344 -0.09121376 11.69278717 -0.09669876 C15.96608023 -0.12343289 20.23934406 -0.14280545 24.51269531 -0.15722656 C28.92241625 -0.17386013 33.33138774 -0.2186255 37.74082565 -0.26959801 C41.13467241 -0.30329134 44.52834189 -0.3148063 47.92234039 -0.32045364 C49.54743415 -0.32716221 51.17251639 -0.34237422 52.7974472 -0.36634445 C55.07651865 -0.39804138 57.35357761 -0.39802708 59.6328125 -0.390625 C60.92805847 -0.39871185 62.22330444 -0.40679871 63.55780029 -0.41513062 C68.18145326 0.38409406 69.78191568 1.91077414 73.07519531 5.19287109 C74.55315588 8.14879222 74.23522744 10.81840122 74.26806641 14.11767578 C74.28033264 15.18630356 74.28033264 15.18630356 74.29284668 16.27651978 C74.31770152 18.63925333 74.3342183 21.00192672 74.34863281 23.36474609 C74.35395649 24.17183266 74.35928017 24.97891922 74.36476517 25.81046295 C74.3914993 30.08375601 74.41087185 34.35701984 74.42529297 38.63037109 C74.44192654 43.04009203 74.4866919 47.44906352 74.53766441 51.85850143 C74.57135774 55.25234819 74.5828727 58.64601767 74.58852005 62.04001617 C74.59522862 63.66510993 74.61044063 65.29019218 74.63441086 66.91512299 C74.66610779 69.19419443 74.66609349 71.47125339 74.65869141 73.75048828 C74.66677826 75.04573425 74.67486511 76.34098022 74.68319702 77.67547607 C73.88397234 82.29912904 72.35729227 83.89959146 69.07519531 87.19287109 C66.11927418 88.67083166 63.44966518 88.35290322 60.15039062 88.38574219 C59.43797211 88.39391968 58.72555359 88.40209717 57.99154663 88.41052246 C55.62881308 88.4353773 53.26613969 88.45189408 50.90332031 88.46630859 C49.69269047 88.47429411 49.69269047 88.47429411 48.45760345 88.48244095 C44.1843104 88.50917508 39.91104656 88.52854763 35.63769531 88.54296875 C31.22797437 88.55960232 26.81900289 88.60436768 22.40956497 88.65534019 C19.01571822 88.68903352 15.62204874 88.70054848 12.22805023 88.70619583 C10.60295648 88.7129044 8.97787423 88.72811641 7.35294342 88.75208664 C5.07387197 88.78378357 2.79681302 88.78376927 0.51757812 88.77636719 C-0.77766785 88.78445404 -2.07291382 88.79254089 -3.40740967 88.8008728 C-8.03106264 88.00164812 -9.63152505 86.47496805 -12.92480469 83.19287109 C-14.40276525 80.23694996 -14.08483682 77.56734096 -14.11767578 74.26806641 C-14.12585327 73.55564789 -14.13403076 72.84322937 -14.14245605 72.10922241 C-14.1673109 69.74648886 -14.18382768 67.38381547 -14.19824219 65.02099609 C-14.20356586 64.21390953 -14.20888954 63.40682297 -14.21437454 62.57527924 C-14.24110867 58.30198618 -14.26048123 54.02872234 -14.27490234 49.75537109 C-14.29153591 45.34565015 -14.33630128 40.93667867 -14.38727379 36.52724075 C-14.42096712 33.133394 -14.43248208 29.73972452 -14.43812943 26.34572601 C-14.444838 24.72063226 -14.46005 23.09555001 -14.48402023 21.4706192 C-14.51571716 19.19154776 -14.51570286 16.9144888 -14.50830078 14.63525391 C-14.51638763 13.34000793 -14.52447449 12.04476196 -14.5328064 10.71026611 C-13.73358172 6.08661315 -12.20690164 4.48615073 -8.92480469 1.19287109 C-5.96888356 -0.28508947 -3.29927456 0.03283897 0 0 Z M10.07519531 24.19287109 C10.07519531 37.39287109 10.07519531 50.59287109 10.07519531 64.19287109 C23.27519531 64.19287109 36.47519531 64.19287109 50.07519531 64.19287109 C50.07519531 50.99287109 50.07519531 37.79287109 50.07519531 24.19287109 C36.87519531 24.19287109 23.67519531 24.19287109 10.07519531 24.19287109 Z " fill="#558FCF" transform="translate(369.9248046875,99.80712890625)"/>
</svg>
