<?xml version="1.0" encoding="UTF-8"?>
<svg version="1.1" xmlns="http://www.w3.org/2000/svg" width="512" height="512">
<path d="M0 0 C3.16191527 2.1651238 6.12246705 4.47061301 9 7 C11.96404628 5.60789736 14.52782057 3.96642353 17.1875 2.0625 C27.82483524 -4.95470986 39.88541249 -5.81643025 52.29296875 -3.34375 C58.82194577 -1.20732875 63.87500239 2.49506383 69 7 C71.96404628 5.60789736 74.52782057 3.96642353 77.1875 2.0625 C87.82483524 -4.95470986 99.88541249 -5.81643025 112.29296875 -3.34375 C118.82194577 -1.20732875 123.87500239 2.49506383 129 7 C131.96404628 5.60789736 134.52782057 3.96642353 137.1875 2.0625 C147.82483524 -4.95470986 159.88541249 -5.81643025 172.29296875 -3.34375 C178.82194577 -1.20732875 183.87500239 2.49506383 189 7 C191.96404628 5.60789736 194.52782057 3.96642353 197.1875 2.0625 C207.82483524 -4.95470986 219.88541249 -5.81643025 232.29296875 -3.34375 C238.82194577 -1.20732875 243.87500239 2.49506383 249 7 C251.96404628 5.60789736 254.52782057 3.96642353 257.1875 2.0625 C267.82483524 -4.95470986 279.88541249 -5.81643025 292.29296875 -3.34375 C302.52069952 0.00298278 310.30469475 6.99689687 316 16 C319.76403285 23.82327933 320.57635919 30.97368075 320.50793457 39.56201172 C320.51729451 41.3898158 320.51729451 41.3898158 320.52684355 43.25454521 C320.53995687 46.60644604 320.53534853 49.95743923 320.52289867 53.30928326 C320.51379893 56.93581314 320.52784215 60.56226722 320.53881836 64.18878174 C320.55655596 71.28105315 320.55278493 78.37315473 320.5411678 85.46543264 C320.53211493 91.2321572 320.53091747 96.99883433 320.53526306 102.76556396 C320.53587599 103.58795527 320.53648893 104.41034658 320.53712043 105.25765884 C320.5383994 106.92860493 320.53969626 108.59955102 320.5410108 110.27049708 C320.55240265 125.91968246 320.53932482 141.56877393 320.51780933 157.21794391 C320.49993961 170.63036898 320.50304411 184.04265555 320.52148438 197.45507812 C320.54291577 213.05026846 320.55130415 228.6453766 320.53903532 244.24057961 C320.53776119 245.9051984 320.53650371 247.56981721 320.53526306 249.23443604 C320.53433741 250.46280428 320.53433741 250.46280428 320.53339306 251.71598804 C320.52994696 257.4722796 320.5357525 263.2285188 320.54518127 268.98480225 C320.5564279 276.00484381 320.55330547 283.02470658 320.5320583 290.0447278 C320.5215835 293.62288782 320.51736445 297.20075031 320.53065491 300.77890778 C320.54487187 304.66543427 320.52783687 308.55147915 320.50793457 312.43798828 C320.5213189 314.11792531 320.5213189 314.11792531 320.53497362 315.83180046 C320.42082251 327.35712072 316.99892588 336.62092715 309 345 C299.77286823 353.80850953 290.14955676 356.62574301 277.63525391 356.47070312 C266.68757549 356.0373143 259.17213056 352.18340365 251 345 C246.69736671 347.01528491 242.88202238 349.69569962 238.94921875 352.34375 C229.78276016 357.49153602 217.83715418 357.35124822 207.69921875 355.34765625 C201.17687688 353.1981433 196.1243594 349.50437518 191 345 C186.69736671 347.01528491 182.88202238 349.69569962 178.94921875 352.34375 C169.78276016 357.49153602 157.83715418 357.35124822 147.69921875 355.34765625 C141.17687688 353.1981433 136.1243594 349.50437518 131 345 C126.69736671 347.01528491 122.88202238 349.69569962 118.94921875 352.34375 C109.78276016 357.49153602 97.83715418 357.35124822 87.69921875 355.34765625 C81.17687688 353.1981433 76.1243594 349.50437518 71 345 C66.69736671 347.01528491 62.88202238 349.69569962 58.94921875 352.34375 C49.78276016 357.49153602 37.83715418 357.35124822 27.69921875 355.34765625 C21.17687688 353.1981433 16.1243594 349.50437518 11 345 C6.69736671 347.01528491 2.88202238 349.69569962 -1.05078125 352.34375 C-10.21723984 357.49153602 -22.16284582 357.35124822 -32.30078125 355.34765625 C-42.43445755 352.00798641 -50.44627796 345.03558922 -56 336 C-58.56405815 330.75050817 -60.09267445 326.17231581 -60.03930664 320.31445312 C-60.0307943 319.10166687 -60.0307943 319.10166687 -60.02210999 317.86437988 C-60.01116554 316.94151184 -60.01116554 316.94151184 -60 316 C-60.55266037 316.01110306 -61.10532074 316.02220612 -61.67472839 316.03364563 C-67.43345965 316.14437269 -73.19188796 316.21972184 -78.95141602 316.2746582 C-81.09997849 316.29978285 -83.24845565 316.33388861 -85.39672852 316.37719727 C-88.48735612 316.43793792 -91.57685263 316.46623044 -94.66796875 316.48828125 C-95.62648239 316.51408768 -96.58499603 316.5398941 -97.57255554 316.56648254 C-102.00758615 316.56834241 -104.34289726 316.42925923 -108.1262207 313.95776367 C-110.45597106 310.28024894 -110.5740205 307.39194492 -110.3125 303.1875 C-110.28994141 302.49462891 -110.26738281 301.80175781 -110.24414062 301.08789062 C-110.18562661 299.39098427 -110.0959548 297.69520139 -110 296 C-110.55266037 296.01110306 -111.10532074 296.02220612 -111.67472839 296.03364563 C-117.43345965 296.14437269 -123.19188796 296.21972184 -128.95141602 296.2746582 C-131.09997849 296.29978285 -133.24845565 296.33388861 -135.39672852 296.37719727 C-138.48735612 296.43793792 -141.57685263 296.46623044 -144.66796875 296.48828125 C-145.62648239 296.51408768 -146.58499603 296.5398941 -147.57255554 296.56648254 C-151.85680146 296.56827917 -154.35989441 296.37681403 -158.10424805 294.17260742 C-160.93549115 289.43442272 -160.71626395 285.17687264 -160.6640625 279.75 C-160.66884613 278.65913086 -160.67362976 277.56826172 -160.67855835 276.44433594 C-160.68195613 274.14126135 -160.67276243 271.83813845 -160.65185547 269.53515625 C-160.6250906 266.01192583 -160.65161001 262.49188144 -160.68359375 258.96875 C-160.68028963 256.72915964 -160.67388337 254.48957126 -160.6640625 252.25 C-160.67418365 251.19780273 -160.68430481 250.14560547 -160.69473267 249.06152344 C-160.62242648 244.54481257 -160.45059832 241.7540921 -158.10424805 237.82739258 C-153.60387922 235.17813889 -149.79900035 235.37357404 -144.66796875 235.51171875 C-143.67622147 235.51879349 -142.68447418 235.52586823 -141.66267395 235.53315735 C-138.50350658 235.56108567 -135.34612918 235.6238228 -132.1875 235.6875 C-130.04234335 235.71258482 -127.89715885 235.73539766 -125.75195312 235.75585938 C-120.50069416 235.81090673 -115.25047497 235.8945169 -110 236 C-110.02618408 235.26885986 -110.05236816 234.53771973 -110.0793457 233.78442383 C-110.18350144 230.46066918 -110.24838621 227.13725806 -110.3125 223.8125 C-110.35439453 222.66201172 -110.39628906 221.51152344 -110.43945312 220.32617188 C-110.45556641 219.21435547 -110.47167969 218.10253906 -110.48828125 216.95703125 C-110.51446533 215.93585205 -110.54064941 214.91467285 -110.56762695 213.86254883 C-110 211 -110 211 -105 206 C-90.15 206 -75.3 206 -60 206 C-60 176.3 -60 146.6 -60 116 C-74.85 116 -89.7 116 -105 116 C-110 111 -110 111 -110.6640625 108.5 C-110.65117188 107.675 -110.63828125 106.85 -110.625 106 C-110.63789062 105.175 -110.65078125 104.35 -110.6640625 103.5 C-109.65968278 99.71880576 -108.10809476 98.37720972 -105 96 C-101.54906167 95.31149455 -98.17498483 95.41729802 -94.66796875 95.51171875 C-93.18034782 95.52233086 -93.18034782 95.52233086 -91.66267395 95.53315735 C-88.50350658 95.56108567 -85.34612918 95.6238228 -82.1875 95.6875 C-80.04234335 95.71258482 -77.89715885 95.73539766 -75.75195312 95.75585938 C-70.50006234 95.80665136 -65.25202791 95.90450858 -60 96 C-60 89.4 -60 82.8 -60 76 C-64.78564453 76.08701172 -64.78564453 76.08701172 -69.66796875 76.17578125 C-72.76242589 76.21478946 -75.85685551 76.24514122 -78.95141602 76.2746582 C-81.09997849 76.29978285 -83.24845565 76.33388861 -85.39672852 76.37719727 C-88.48735612 76.43793792 -91.57685263 76.46623044 -94.66796875 76.48828125 C-95.62648239 76.51408768 -96.58499603 76.5398941 -97.57255554 76.56648254 C-102.2288085 76.56843518 -104.3050988 76.53149148 -108.10424805 73.62573242 C-110.15538488 70.78478243 -110.67910293 69.46258768 -110.625 66 C-110.63789062 65.175 -110.65078125 64.35 -110.6640625 63.5 C-109.65968278 59.71880576 -108.10809476 58.37720972 -105 56 C-101.54906167 55.31149455 -98.17498483 55.41729802 -94.66796875 55.51171875 C-93.67622147 55.51879349 -92.68447418 55.52586823 -91.66267395 55.53315735 C-88.50350658 55.56108567 -85.34612918 55.6238228 -82.1875 55.6875 C-80.04234335 55.71258482 -77.89715885 55.73539766 -75.75195312 55.75585938 C-70.50069416 55.81090673 -65.25047497 55.8945169 -60 56 C-60.0314209 54.76866333 -60.0314209 54.76866333 -60.06347656 53.51245117 C-60.1323958 50.41304826 -60.18215621 47.31404085 -60.21972656 44.21411133 C-60.24930134 42.23427092 -60.30017533 40.25478499 -60.3515625 38.27539062 C-60.47865057 25.72544342 -57.76842642 16.18514371 -49 7 C-36.26477234 -5.15744796 -15.77125156 -8.85537911 0 0 Z M-35.5625 23.90234375 C-40.50875537 31.22336377 -40.14614598 38.73474759 -40.13371277 47.2975769 C-40.13597833 48.44045359 -40.13824388 49.58333027 -40.14057809 50.76083958 C-40.14691163 54.59301138 -40.14608914 58.42514776 -40.14526367 62.25732422 C-40.14771213 65.00381606 -40.15162981 67.75030541 -40.15544128 70.49679565 C-40.16374052 77.18429268 -40.16649579 83.8717809 -40.16705366 90.55928265 C-40.16752913 95.9957621 -40.1695854 101.43223866 -40.17275429 106.86871719 C-40.18155856 122.28725243 -40.18617397 137.7057807 -40.18542381 153.12431847 C-40.18538386 153.95518302 -40.1853439 154.78604758 -40.18530273 155.64208984 C-40.18526185 156.47397049 -40.18522097 157.30585113 -40.18517885 158.16294028 C-40.18477235 171.64634049 -40.19434345 185.12971279 -40.2084411 198.61310492 C-40.2228073 212.46276748 -40.22971116 226.31241641 -40.22884732 240.16208661 C-40.22851546 247.93563398 -40.23125803 255.70915207 -40.24202538 263.48269272 C-40.25113353 270.10067805 -40.253303 276.71862082 -40.24651595 283.33660971 C-40.24325244 286.71178497 -40.24427628 290.08681201 -40.2518692 293.46199036 C-40.25957442 297.12421858 -40.25495383 300.78623228 -40.24723816 304.44845581 C-40.25238172 305.51052588 -40.25752529 306.57259596 -40.26282471 307.66684997 C-40.22403868 315.99604616 -39.58901527 323.38142929 -34 330 C-29.71903876 333.91904423 -25.79481555 335.36159929 -20 335.625 C-14.21220918 335.34765315 -10.20303906 334.03764169 -6 330 C0.36197066 322.25430072 0.14770051 314.33586534 0.13371277 304.7024231 C0.1371111 302.98810807 0.1371111 302.98810807 0.14057809 301.23916042 C0.14691163 297.40698862 0.14608914 293.57485224 0.14526367 289.74267578 C0.14771213 286.99618394 0.15162981 284.24969459 0.15544128 281.50320435 C0.16374052 274.81570732 0.16649579 268.1282191 0.16705366 261.44071735 C0.16752913 256.0042379 0.1695854 250.56776134 0.17275429 245.13128281 C0.18155856 229.71274757 0.18617397 214.2942193 0.18542381 198.87568153 C0.18536388 197.6293847 0.18536388 197.6293847 0.18530273 196.35791016 C0.18524141 195.11008919 0.18524141 195.11008919 0.18517885 193.83705972 C0.18477235 180.35365951 0.19434345 166.87028721 0.2084411 153.38689508 C0.2228073 139.53723252 0.22971116 125.68758359 0.22884732 111.83791339 C0.22851546 104.06436602 0.23125803 96.29084793 0.24202538 88.51730728 C0.25113353 81.89932195 0.253303 75.28137918 0.24651595 68.66339029 C0.24325244 65.28821503 0.24427628 61.91318799 0.2518692 58.53800964 C0.25957442 54.87578142 0.25495383 51.21376772 0.24723816 47.55154419 C0.25238172 46.48947412 0.25752529 45.42740404 0.26282471 44.33315003 C0.22403868 36.00395384 -0.41098473 28.61857071 -6 22 C-10.28096124 18.08095577 -14.20518445 16.63840071 -20 16.375 C-26.76542285 16.69919429 -31.24628334 18.64734997 -35.5625 23.90234375 Z M24.4375 23.90234375 C19.49124463 31.22336377 19.85385402 38.73474759 19.86628723 47.2975769 C19.86402167 48.44045359 19.86175612 49.58333027 19.85942191 50.76083958 C19.85308837 54.59301138 19.85391086 58.42514776 19.85473633 62.25732422 C19.85228787 65.00381606 19.84837019 67.75030541 19.84455872 70.49679565 C19.83625948 77.18429268 19.83350421 83.8717809 19.83294634 90.55928265 C19.83247087 95.9957621 19.8304146 101.43223866 19.82724571 106.86871719 C19.81844144 122.28725243 19.81382603 137.7057807 19.81457619 153.12431847 C19.81461614 153.95518302 19.8146561 154.78604758 19.81469727 155.64208984 C19.81473815 156.47397049 19.81477903 157.30585113 19.81482115 158.16294028 C19.81522765 171.64634049 19.80565655 185.12971279 19.7915589 198.61310492 C19.7771927 212.46276748 19.77028884 226.31241641 19.77115268 240.16208661 C19.77148454 247.93563398 19.76874197 255.70915207 19.75797462 263.48269272 C19.74886647 270.10067805 19.746697 276.71862082 19.75348405 283.33660971 C19.75674756 286.71178497 19.75572372 290.08681201 19.7481308 293.46199036 C19.74042558 297.12421858 19.74504617 300.78623228 19.75276184 304.44845581 C19.74761828 305.51052588 19.74247471 306.57259596 19.73717529 307.66684997 C19.77596132 315.99604616 20.41098473 323.38142929 26 330 C30.28096124 333.91904423 34.20518445 335.36159929 40 335.625 C45.78779082 335.34765315 49.79696094 334.03764169 54 330 C60.36197066 322.25430072 60.14770051 314.33586534 60.13371277 304.7024231 C60.1371111 302.98810807 60.1371111 302.98810807 60.14057809 301.23916042 C60.14691163 297.40698862 60.14608914 293.57485224 60.14526367 289.74267578 C60.14771213 286.99618394 60.15162981 284.24969459 60.15544128 281.50320435 C60.16374052 274.81570732 60.16649579 268.1282191 60.16705366 261.44071735 C60.16752913 256.0042379 60.1695854 250.56776134 60.17275429 245.13128281 C60.18155856 229.71274757 60.18617397 214.2942193 60.18542381 198.87568153 C60.18536388 197.6293847 60.18536388 197.6293847 60.18530273 196.35791016 C60.18524141 195.11008919 60.18524141 195.11008919 60.18517885 193.83705972 C60.18477235 180.35365951 60.19434345 166.87028721 60.2084411 153.38689508 C60.2228073 139.53723252 60.22971116 125.68758359 60.22884732 111.83791339 C60.22851546 104.06436602 60.23125803 96.29084793 60.24202538 88.51730728 C60.25113353 81.89932195 60.253303 75.28137918 60.24651595 68.66339029 C60.24325244 65.28821503 60.24427628 61.91318799 60.2518692 58.53800964 C60.25957442 54.87578142 60.25495383 51.21376772 60.24723816 47.55154419 C60.25238172 46.48947412 60.25752529 45.42740404 60.26282471 44.33315003 C60.22403868 36.00395384 59.58901527 28.61857071 54 22 C49.71903876 18.08095577 45.79481555 16.63840071 40 16.375 C33.23457715 16.69919429 28.75371666 18.64734997 24.4375 23.90234375 Z M84.4375 23.90234375 C79.49124463 31.22336377 79.85385402 38.73474759 79.86628723 47.2975769 C79.86402167 48.44045359 79.86175612 49.58333027 79.85942191 50.76083958 C79.85308837 54.59301138 79.85391086 58.42514776 79.85473633 62.25732422 C79.85228787 65.00381606 79.84837019 67.75030541 79.84455872 70.49679565 C79.83625948 77.18429268 79.83350421 83.8717809 79.83294634 90.55928265 C79.83247087 95.9957621 79.8304146 101.43223866 79.82724571 106.86871719 C79.81844144 122.28725243 79.81382603 137.7057807 79.81457619 153.12431847 C79.81461614 153.95518302 79.8146561 154.78604758 79.81469727 155.64208984 C79.81473815 156.47397049 79.81477903 157.30585113 79.81482115 158.16294028 C79.81522765 171.64634049 79.80565655 185.12971279 79.7915589 198.61310492 C79.7771927 212.46276748 79.77028884 226.31241641 79.77115268 240.16208661 C79.77148454 247.93563398 79.76874197 255.70915207 79.75797462 263.48269272 C79.74886647 270.10067805 79.746697 276.71862082 79.75348405 283.33660971 C79.75674756 286.71178497 79.75572372 290.08681201 79.7481308 293.46199036 C79.74042558 297.12421858 79.74504617 300.78623228 79.75276184 304.44845581 C79.74761828 305.51052588 79.74247471 306.57259596 79.73717529 307.66684997 C79.77596132 315.99604616 80.41098473 323.38142929 86 330 C90.28096124 333.91904423 94.20518445 335.36159929 100 335.625 C105.78779082 335.34765315 109.79696094 334.03764169 114 330 C120.36197066 322.25430072 120.14770051 314.33586534 120.13371277 304.7024231 C120.1371111 302.98810807 120.1371111 302.98810807 120.14057809 301.23916042 C120.14691163 297.40698862 120.14608914 293.57485224 120.14526367 289.74267578 C120.14771213 286.99618394 120.15162981 284.24969459 120.15544128 281.50320435 C120.16374052 274.81570732 120.16649579 268.1282191 120.16705366 261.44071735 C120.16752913 256.0042379 120.1695854 250.56776134 120.17275429 245.13128281 C120.18155856 229.71274757 120.18617397 214.2942193 120.18542381 198.87568153 C120.18536388 197.6293847 120.18536388 197.6293847 120.18530273 196.35791016 C120.18524141 195.11008919 120.18524141 195.11008919 120.18517885 193.83705972 C120.18477235 180.35365951 120.19434345 166.87028721 120.2084411 153.38689508 C120.2228073 139.53723252 120.22971116 125.68758359 120.22884732 111.83791339 C120.22851546 104.06436602 120.23125803 96.29084793 120.24202538 88.51730728 C120.25113353 81.89932195 120.253303 75.28137918 120.24651595 68.66339029 C120.24325244 65.28821503 120.24427628 61.91318799 120.2518692 58.53800964 C120.25957442 54.87578142 120.25495383 51.21376772 120.24723816 47.55154419 C120.25238172 46.48947412 120.25752529 45.42740404 120.26282471 44.33315003 C120.22403868 36.00395384 119.58901527 28.61857071 114 22 C109.71903876 18.08095577 105.79481555 16.63840071 100 16.375 C93.23457715 16.69919429 88.75371666 18.64734997 84.4375 23.90234375 Z M144.4375 23.90234375 C139.49124463 31.22336377 139.85385402 38.73474759 139.86628723 47.2975769 C139.86402167 48.44045359 139.86175612 49.58333027 139.85942191 50.76083958 C139.85308837 54.59301138 139.85391086 58.42514776 139.85473633 62.25732422 C139.85228787 65.00381606 139.84837019 67.75030541 139.84455872 70.49679565 C139.83625948 77.18429268 139.83350421 83.8717809 139.83294634 90.55928265 C139.83247087 95.9957621 139.8304146 101.43223866 139.82724571 106.86871719 C139.81844144 122.28725243 139.81382603 137.7057807 139.81457619 153.12431847 C139.81461614 153.95518302 139.8146561 154.78604758 139.81469727 155.64208984 C139.81473815 156.47397049 139.81477903 157.30585113 139.81482115 158.16294028 C139.81522765 171.64634049 139.80565655 185.12971279 139.7915589 198.61310492 C139.7771927 212.46276748 139.77028884 226.31241641 139.77115268 240.16208661 C139.77148454 247.93563398 139.76874197 255.70915207 139.75797462 263.48269272 C139.74886647 270.10067805 139.746697 276.71862082 139.75348405 283.33660971 C139.75674756 286.71178497 139.75572372 290.08681201 139.7481308 293.46199036 C139.74042558 297.12421858 139.74504617 300.78623228 139.75276184 304.44845581 C139.74761828 305.51052588 139.74247471 306.57259596 139.73717529 307.66684997 C139.77596132 315.99604616 140.41098473 323.38142929 146 330 C150.28096124 333.91904423 154.20518445 335.36159929 160 335.625 C165.78779082 335.34765315 169.79696094 334.03764169 174 330 C180.36197066 322.25430072 180.14770051 314.33586534 180.13371277 304.7024231 C180.1371111 302.98810807 180.1371111 302.98810807 180.14057809 301.23916042 C180.14691163 297.40698862 180.14608914 293.57485224 180.14526367 289.74267578 C180.14771213 286.99618394 180.15162981 284.24969459 180.15544128 281.50320435 C180.16374052 274.81570732 180.16649579 268.1282191 180.16705366 261.44071735 C180.16752913 256.0042379 180.1695854 250.56776134 180.17275429 245.13128281 C180.18155856 229.71274757 180.18617397 214.2942193 180.18542381 198.87568153 C180.18536388 197.6293847 180.18536388 197.6293847 180.18530273 196.35791016 C180.18524141 195.11008919 180.18524141 195.11008919 180.18517885 193.83705972 C180.18477235 180.35365951 180.19434345 166.87028721 180.2084411 153.38689508 C180.2228073 139.53723252 180.22971116 125.68758359 180.22884732 111.83791339 C180.22851546 104.06436602 180.23125803 96.29084793 180.24202538 88.51730728 C180.25113353 81.89932195 180.253303 75.28137918 180.24651595 68.66339029 C180.24325244 65.28821503 180.24427628 61.91318799 180.2518692 58.53800964 C180.25957442 54.87578142 180.25495383 51.21376772 180.24723816 47.55154419 C180.25238172 46.48947412 180.25752529 45.42740404 180.26282471 44.33315003 C180.22403868 36.00395384 179.58901527 28.61857071 174 22 C169.71903876 18.08095577 165.79481555 16.63840071 160 16.375 C153.23457715 16.69919429 148.75371666 18.64734997 144.4375 23.90234375 Z M204.4375 23.90234375 C199.49124463 31.22336377 199.85385402 38.73474759 199.86628723 47.2975769 C199.86402167 48.44045359 199.86175612 49.58333027 199.85942191 50.76083958 C199.85308837 54.59301138 199.85391086 58.42514776 199.85473633 62.25732422 C199.85228787 65.00381606 199.84837019 67.75030541 199.84455872 70.49679565 C199.83625948 77.18429268 199.83350421 83.8717809 199.83294634 90.55928265 C199.83247087 95.9957621 199.8304146 101.43223866 199.82724571 106.86871719 C199.81844144 122.28725243 199.81382603 137.7057807 199.81457619 153.12431847 C199.81461614 153.95518302 199.8146561 154.78604758 199.81469727 155.64208984 C199.81473815 156.47397049 199.81477903 157.30585113 199.81482115 158.16294028 C199.81522765 171.64634049 199.80565655 185.12971279 199.7915589 198.61310492 C199.7771927 212.46276748 199.77028884 226.31241641 199.77115268 240.16208661 C199.77148454 247.93563398 199.76874197 255.70915207 199.75797462 263.48269272 C199.74886647 270.10067805 199.746697 276.71862082 199.75348405 283.33660971 C199.75674756 286.71178497 199.75572372 290.08681201 199.7481308 293.46199036 C199.74042558 297.12421858 199.74504617 300.78623228 199.75276184 304.44845581 C199.74761828 305.51052588 199.74247471 306.57259596 199.73717529 307.66684997 C199.77596132 315.99604616 200.41098473 323.38142929 206 330 C210.28096124 333.91904423 214.20518445 335.36159929 220 335.625 C225.78779082 335.34765315 229.79696094 334.03764169 234 330 C240.36197066 322.25430072 240.14770051 314.33586534 240.13371277 304.7024231 C240.1371111 302.98810807 240.1371111 302.98810807 240.14057809 301.23916042 C240.14691163 297.40698862 240.14608914 293.57485224 240.14526367 289.74267578 C240.14771213 286.99618394 240.15162981 284.24969459 240.15544128 281.50320435 C240.16374052 274.81570732 240.16649579 268.1282191 240.16705366 261.44071735 C240.16752913 256.0042379 240.1695854 250.56776134 240.17275429 245.13128281 C240.18155856 229.71274757 240.18617397 214.2942193 240.18542381 198.87568153 C240.18536388 197.6293847 240.18536388 197.6293847 240.18530273 196.35791016 C240.18524141 195.11008919 240.18524141 195.11008919 240.18517885 193.83705972 C240.18477235 180.35365951 240.19434345 166.87028721 240.2084411 153.38689508 C240.2228073 139.53723252 240.22971116 125.68758359 240.22884732 111.83791339 C240.22851546 104.06436602 240.23125803 96.29084793 240.24202538 88.51730728 C240.25113353 81.89932195 240.253303 75.28137918 240.24651595 68.66339029 C240.24325244 65.28821503 240.24427628 61.91318799 240.2518692 58.53800964 C240.25957442 54.87578142 240.25495383 51.21376772 240.24723816 47.55154419 C240.25238172 46.48947412 240.25752529 45.42740404 240.26282471 44.33315003 C240.22403868 36.00395384 239.58901527 28.61857071 234 22 C229.71903876 18.08095577 225.79481555 16.63840071 220 16.375 C213.23457715 16.69919429 208.75371666 18.64734997 204.4375 23.90234375 Z M264.4375 23.90234375 C259.49124463 31.22336377 259.85385402 38.73474759 259.86628723 47.2975769 C259.86402167 48.44045359 259.86175612 49.58333027 259.85942191 50.76083958 C259.85308837 54.59301138 259.85391086 58.42514776 259.85473633 62.25732422 C259.85228787 65.00381606 259.84837019 67.75030541 259.84455872 70.49679565 C259.83625948 77.18429268 259.83350421 83.8717809 259.83294634 90.55928265 C259.83247087 95.9957621 259.8304146 101.43223866 259.82724571 106.86871719 C259.81844144 122.28725243 259.81382603 137.7057807 259.81457619 153.12431847 C259.81461614 153.95518302 259.8146561 154.78604758 259.81469727 155.64208984 C259.81473815 156.47397049 259.81477903 157.30585113 259.81482115 158.16294028 C259.81522765 171.64634049 259.80565655 185.12971279 259.7915589 198.61310492 C259.7771927 212.46276748 259.77028884 226.31241641 259.77115268 240.16208661 C259.77148454 247.93563398 259.76874197 255.70915207 259.75797462 263.48269272 C259.74886647 270.10067805 259.746697 276.71862082 259.75348405 283.33660971 C259.75674756 286.71178497 259.75572372 290.08681201 259.7481308 293.46199036 C259.74042558 297.12421858 259.74504617 300.78623228 259.75276184 304.44845581 C259.74761828 305.51052588 259.74247471 306.57259596 259.73717529 307.66684997 C259.77596132 315.99604616 260.41098473 323.38142929 266 330 C270.28096124 333.91904423 274.20518445 335.36159929 280 335.625 C285.78779082 335.34765315 289.79696094 334.03764169 294 330 C300.36197066 322.25430072 300.14770051 314.33586534 300.13371277 304.7024231 C300.1371111 302.98810807 300.1371111 302.98810807 300.14057809 301.23916042 C300.14691163 297.40698862 300.14608914 293.57485224 300.14526367 289.74267578 C300.14771213 286.99618394 300.15162981 284.24969459 300.15544128 281.50320435 C300.16374052 274.81570732 300.16649579 268.1282191 300.16705366 261.44071735 C300.16752913 256.0042379 300.1695854 250.56776134 300.17275429 245.13128281 C300.18155856 229.71274757 300.18617397 214.2942193 300.18542381 198.87568153 C300.18536388 197.6293847 300.18536388 197.6293847 300.18530273 196.35791016 C300.18524141 195.11008919 300.18524141 195.11008919 300.18517885 193.83705972 C300.18477235 180.35365951 300.19434345 166.87028721 300.2084411 153.38689508 C300.2228073 139.53723252 300.22971116 125.68758359 300.22884732 111.83791339 C300.22851546 104.06436602 300.23125803 96.29084793 300.24202538 88.51730728 C300.25113353 81.89932195 300.253303 75.28137918 300.24651595 68.66339029 C300.24325244 65.28821503 300.24427628 61.91318799 300.2518692 58.53800964 C300.25957442 54.87578142 300.25495383 51.21376772 300.24723816 47.55154419 C300.25238172 46.48947412 300.25752529 45.42740404 300.26282471 44.33315003 C300.22403868 36.00395384 299.58901527 28.61857071 294 22 C289.71903876 18.08095577 285.79481555 16.63840071 280 16.375 C273.23457715 16.69919429 268.75371666 18.64734997 264.4375 23.90234375 Z M-90 226 C-90 249.1 -90 272.2 -90 296 C-80.1 296 -70.2 296 -60 296 C-60 272.9 -60 249.8 -60 226 C-69.9 226 -79.8 226 -90 226 Z M-140 256 C-140 262.6 -140 269.2 -140 276 C-130.1 276 -120.2 276 -110 276 C-110 269.4 -110 262.8 -110 256 C-119.9 256 -129.8 256 -140 256 Z " fill="#558FCF" transform="translate(176,140)"/>
<path d="M0 0 C5.89271566 2.81243247 7.79321025 9.21222908 10 15 C13.64490525 25.63918288 14.63328745 38.44574545 9.66796875 48.76953125 C7.53591466 52.36973398 5.29112832 55.64758151 2.625 58.875 C0.0383702 63.84928807 0.19771379 68.51660579 1 74 C2.12857617 77.19828332 3.45942553 80.22420443 4.875 83.3046875 C6.31282783 86.74948335 6.60119632 89.31767254 6 93 C4.34860695 96.5386994 3.28394771 97.81070153 0 100 C-4.22587747 100.68057203 -7.87496073 100.53695056 -11.75 98.6875 C-19.77915233 89.09712361 -22.53671607 75.21958931 -21.82421875 62.98046875 C-20.74645033 54.49984651 -17.54016471 47.94987636 -11.83984375 41.58984375 C-8.47116778 36.84794955 -9.25146339 31.57107578 -10 26 C-11.15926911 22.59221562 -12.52777963 19.33180554 -13.93359375 16.01953125 C-15.44316861 11.74516727 -15.63191631 8.25398409 -14 4 C-10.28377962 -0.76140736 -5.63600527 -0.95647535 0 0 Z " fill="#558FCF" transform="translate(307,16)"/>
<path d="M0 0 C6.93051822 4.41414246 9.7124153 12.39356153 11.49072266 20.13671875 C13.80419777 32.60206956 13.47821421 42.92842187 6.53125 53.80859375 C5 56 5 56 2.625 58.875 C0.03864368 63.84876215 0.19680675 68.51704443 1 74 C2.13185072 77.17231516 3.46704632 80.17817787 4.87109375 83.23828125 C6.5075672 87.24169555 6.67456848 89.72773293 6 94 C4.20636089 96.8100346 2.98119065 98.50940468 0 100 C-1.98828125 100.23828125 -1.98828125 100.23828125 -4.3125 100.3125 C-5.45138672 100.36857422 -5.45138672 100.36857422 -6.61328125 100.42578125 C-10.00548273 99.82062583 -11.56342196 98.4045178 -14 96 C-15.51171875 93.23046875 -15.51171875 93.23046875 -16.6875 90.1875 C-17.08324219 89.19105469 -17.47898437 88.19460937 -17.88671875 87.16796875 C-21.65095718 76.45639904 -23.46804576 63.35953457 -19.4375 52.375 C-17.80114928 48.99046165 -15.67606214 46.22561465 -13.3125 43.3125 C-10.19510629 39.46436239 -8.82646696 37.11922457 -9 32 C-9.99911732 26.54959132 -11.24961282 21.27854676 -13.75 16.3125 C-15.40324194 11.93140887 -15.38065561 8.46987255 -14 4 C-10.44238963 -0.55818828 -5.46691169 -1.27311642 0 0 Z " fill="#558FCF" transform="translate(400,16)"/>
<path d="M0 0 C6.73988448 4.1937059 9.34896431 13.99099959 11.3125 21.375 C13.47852959 32.98323625 12.56925724 43.76700546 6.2109375 53.83203125 C4.99837428 55.57602649 3.75969396 57.30233678 2.48828125 59.00390625 C-0.40012947 62.87786394 -0.55662801 66.29463791 0 71 C1.14984397 75.06532512 2.57774255 79.02304614 4 83 C5.49711267 87.2191357 6.49117578 90.57228893 4.8125 94.875 C3 98 3 98 0 100 C-4.72825425 100.76132907 -8.70010302 100.80882479 -12.8125 98.25 C-20.69091541 86.54492568 -24.08665042 72.08818617 -21.46484375 58.15625 C-19.74346298 51.91036567 -16.89882541 47.33284264 -12.8125 42.3125 C-9.37599333 37.92799149 -9.39470325 33.34413313 -10 28 C-11.29877325 23.5192323 -12.91245186 19.17509629 -15 15 C-15.61493604 10.03658764 -15.73594779 6.22657965 -13.125 1.875 C-8.70115913 -0.77930452 -5.03113433 -0.98127909 0 0 Z " fill="#558FCF" transform="translate(354,16)"/>
<path d="M0 0 C6.73988448 4.1937059 9.34896431 13.99099959 11.3125 21.375 C13.21578392 31.57512353 12.92653513 41.73070991 8 51 C6.26859469 53.49125786 4.46396008 55.82356684 2.48828125 58.125 C-0.76324458 62.22141049 -0.56371709 67.02297149 0 72 C1.29877325 76.4807677 2.91245186 80.82490371 5 85 C5.61493604 89.96341236 5.73594779 93.77342035 3.125 98.125 C-1.29884087 100.77930452 -4.96886567 100.98127909 -10 100 C-16.73988448 95.8062941 -19.34896431 86.00900041 -21.3125 78.625 C-23.21578392 68.42487647 -22.92653513 58.26929009 -18 49 C-16.26859469 46.50874214 -14.46396008 44.17643316 -12.48828125 41.875 C-9.23675542 37.77858951 -9.43628291 32.97702851 -10 28 C-11.29877325 23.5192323 -12.91245186 19.17509629 -15 15 C-15.61493604 10.03658764 -15.73594779 6.22657965 -13.125 1.875 C-8.70115913 -0.77930452 -5.03113433 -0.98127909 0 0 Z " fill="#558FCF" transform="translate(261,16)"/>
</svg>
