<?xml version="1.0" encoding="UTF-8"?>
<svg version="1.1" xmlns="http://www.w3.org/2000/svg" width="512" height="512">
<path d="M0 0 C1.82565354 -0.00874829 1.82565354 -0.00874829 3.68818897 -0.01767331 C5.04070265 -0.01404003 6.39321583 -0.01021565 7.74572849 -0.00622082 C9.1810498 -0.00924051 10.6163695 -0.01312908 12.05168635 -0.01781338 C16.00077119 -0.02812557 19.94976558 -0.02590341 23.89885795 -0.02163279 C28.15592014 -0.0191714 32.41296022 -0.02817239 36.67001438 -0.03567028 C45.01181734 -0.04843556 53.35358814 -0.05020871 61.69539922 -0.04787002 C68.4739648 -0.04608879 75.2525206 -0.0478323 82.03108501 -0.05209446 C82.99492515 -0.05268965 83.95876529 -0.05328484 84.9518127 -0.05389806 C86.90969391 -0.05510978 88.86757512 -0.05632392 90.82545633 -0.05754044 C109.19650357 -0.06842296 127.56753248 -0.06625008 145.93858076 -0.06015559 C162.75440707 -0.05498544 179.57017546 -0.0662432 196.38599031 -0.08525381 C213.64256595 -0.10461353 230.89911417 -0.11289152 248.15570074 -0.10913056 C257.84793984 -0.10721572 267.54012963 -0.10973355 277.23235989 -0.1238451 C285.48312063 -0.1357361 293.73380173 -0.13718948 301.98456352 -0.12505493 C306.19579166 -0.11915024 310.40687396 -0.11811052 314.61809254 -0.13005733 C318.47148567 -0.14086219 322.32461022 -0.13787764 326.1779905 -0.12379565 C327.57364365 -0.12113376 328.96931748 -0.12356178 330.36495041 -0.13153151 C332.25928372 -0.14160011 334.15369241 -0.13144697 336.04801941 -0.12025452 C337.62763117 -0.12033704 337.62763117 -0.12033704 339.23915428 -0.12042123 C344.17144141 0.52889205 348.05341119 3.34194889 351.10649252 7.25364804 C353.31235623 11.75526261 352.77534026 16.94024728 352.73530674 21.84282398 C352.74451782 23.12454145 352.75372891 24.40625891 352.76321912 25.7268163 C352.78795418 29.27810853 352.78152803 32.82876161 352.76987171 36.38009572 C352.76267479 40.21255454 352.78419488 44.04486866 352.80192661 47.87727833 C352.83187398 55.3829926 352.83449304 62.88847798 352.82691345 70.39423905 C352.82108897 76.49531092 352.82428114 82.59631441 352.83388615 88.69738102 C352.83590156 89.99989208 352.83590156 89.99989208 352.8379577 91.32871649 C352.84070093 93.09275945 352.84345341 94.8568024 352.84621504 96.62084533 C352.87082037 113.16457547 352.86321251 129.70817581 352.84564498 146.25190701 C352.83054454 161.38440181 352.85473629 176.51653249 352.89767739 191.64896439 C352.94144055 207.18916002 352.95931194 222.72918489 352.94890141 238.26944172 C352.94349569 246.99324368 352.94822786 255.71675325 352.97986698 264.44050694 C353.0064963 271.8674539 353.00855225 279.29391393 352.9790059 286.7208582 C352.9645982 290.50944942 352.96137679 294.29716189 352.98865986 298.08570194 C353.01789765 302.19522747 352.99277116 306.30264338 352.96235752 310.41215992 C352.98782646 312.20370339 352.98782646 312.20370339 353.01380992 314.03143966 C352.90635913 321.01359623 351.83780697 324.83526288 346.88037229 329.858307 C343.51169929 332.48077006 340.40918432 332.38171486 336.29970169 332.38869667 C335.08520708 332.39315451 333.87071247 332.39761236 332.61941499 332.40220529 C331.26464855 332.40211599 329.90988211 332.40192613 328.5551157 332.40164661 C327.12137115 332.40494528 325.68762753 332.40867086 324.25388509 332.41278809 C320.30449773 332.42281564 316.35512556 332.42652609 312.40572727 332.4291774 C308.14999518 332.43307814 303.89427515 332.44265655 299.63855076 332.45139027 C289.35715078 332.47115978 279.07574981 332.48122088 268.79433557 332.49011806 C263.95508683 332.49449961 259.11583918 332.49986671 254.2765913 332.50510693 C238.19463389 332.52211865 222.11267716 332.53661396 206.03071213 332.54385567 C201.85666179 332.54576562 197.68261145 332.54768595 193.50856113 332.54964161 C191.95236577 332.55036722 191.95236577 332.55036722 190.36473212 332.55110749 C173.5495069 332.55941206 156.73435272 332.58475642 139.91915854 332.61722229 C122.6637438 332.65026714 105.4083652 332.66830204 88.15291864 332.67149991 C78.46116628 332.67366725 68.76951755 332.6824487 59.07779598 332.70796108 C50.82593333 332.72963283 42.57419949 332.73773587 34.3223116 332.7279943 C30.11091759 332.72343952 25.89978954 332.72540396 21.68843174 332.74475574 C17.83365424 332.76231633 13.97933813 332.76144804 10.12455622 332.74585845 C8.72952261 332.74347153 7.33445764 332.74786195 5.9394721 332.7596871 C-6.91583449 332.86191687 -6.91583449 332.86191687 -11.91306973 328.25447559 C-12.58587978 327.66182911 -13.25868984 327.06918262 -13.95188808 326.45857716 C-14.54622646 325.86012989 -15.14056484 325.26168262 -15.75291348 324.64510059 C-16.42387051 323.97220997 -17.09482754 323.29931934 -17.7861166 322.60603809 C-18.46738613 321.91252247 -19.14865566 321.21900684 -19.85056973 320.50447559 C-20.86667324 319.48740528 -20.86667324 319.48740528 -21.9033041 318.44978809 C-25.19899848 315.12565531 -28.38996823 311.75191056 -31.44822598 308.20760059 C-34.91689471 304.19026317 -38.62511229 300.46876753 -42.41306973 296.75447559 C-46.75887178 292.45495024 -50.9737525 288.1511648 -54.91306973 283.47322559 C-57.94979816 280.10435498 -61.19118667 276.94537901 -64.41306973 273.75447559 C-68.7567141 269.45259703 -72.9735573 265.1513966 -76.91306973 260.47322559 C-79.94979816 257.10435498 -83.19118667 253.94537901 -86.41306973 250.75447559 C-90.7567141 246.45259703 -94.9735573 242.1513966 -98.91306973 237.47322559 C-101.94979816 234.10435498 -105.19118667 230.94537901 -108.41306973 227.75447559 C-112.7567141 223.45259703 -116.9735573 219.1513966 -120.91306973 214.47322559 C-124.583692 210.401129 -128.54343304 206.60607647 -132.43772793 202.74934864 C-136.158684 199.05059894 -139.72098483 195.30481035 -143.09666348 191.28572559 C-146.14286351 187.87922232 -149.44474017 184.71719981 -152.73997402 181.5525713 C-157.56132232 176.84413146 -160.34069561 173.30257226 -160.47556973 166.44197559 C-160.51810879 165.46615528 -160.56064785 164.49033497 -160.60447598 163.48494434 C-158.94612807 155.73661827 -151.98115516 150.08210271 -146.47556973 144.75447559 C-145.13126906 143.43344167 -143.78879105 142.11055018 -142.44822598 140.78572559 C-141.85404873 140.20371387 -141.25987148 139.62170216 -140.64768887 139.02205372 C-138.27893765 136.60829456 -136.09060076 134.0590437 -133.91306973 131.47322559 C-130.24037303 127.3988277 -126.27825385 123.60172526 -122.38181973 119.74275684 C-119.28301525 116.66239763 -116.22977201 113.59930955 -113.41306973 110.25447559 C-109.37505413 105.45933207 -104.83181913 101.1499678 -100.38181973 96.74275684 C-97.28301525 93.66239763 -94.22977201 90.59930955 -91.41306973 87.25447559 C-87.37505413 82.45933207 -82.83181913 78.1499678 -78.38181973 73.74275684 C-75.28301525 70.66239763 -72.22977201 67.59930955 -69.41306973 64.25447559 C-65.37505413 59.45933207 -60.83181913 55.1499678 -56.38181973 50.74275684 C-53.28301525 47.66239763 -50.22977201 44.59930955 -47.41306973 41.25447559 C-43.3770442 36.46169529 -38.83628852 32.15431835 -34.38841152 27.74934864 C-30.66903502 24.05216909 -27.11751727 20.29888246 -23.72556973 16.29744434 C-21.15277316 13.39750339 -18.45002499 10.63654441 -15.72556973 7.87947559 C-14.95757046 7.09214039 -14.95757046 7.09214039 -14.17405605 6.28889942 C-9.48455851 1.58711968 -6.64429602 0.00546971 0 0 Z M-7.57547736 44.35595024 C-9.79378906 47.50453355 -12.55967589 50.05733427 -15.35056973 52.69197559 C-18.43096992 55.71813525 -21.43584165 58.76744949 -24.22556973 62.06697559 C-27.72753789 66.19151587 -31.57172169 69.95018385 -35.41306973 73.75447559 C-41.08807243 79.33991968 -41.08807243 79.33991968 -46.41306973 85.25447559 C-50.45108532 90.04961912 -54.99432032 94.35898339 -59.44431973 98.76619434 C-62.5431242 101.84655356 -65.59636744 104.90964163 -68.41306973 108.25447559 C-72.45108532 113.04961912 -76.99432032 117.35898339 -81.44431973 121.76619434 C-84.5431242 124.84655356 -87.59636744 127.90964163 -90.41306973 131.25447559 C-94.4457783 136.04331702 -98.98240121 140.34738292 -103.4267416 144.74861622 C-107.25416244 148.55309548 -110.93377033 152.41016254 -114.41697598 156.53572559 C-117.08497006 159.60078407 -120.00156035 162.42261237 -122.91306973 165.25447559 C-121.32367547 169.18661861 -118.74964471 171.58467906 -115.72556973 174.50447559 C-112.58299563 177.57420186 -109.49094811 180.63760211 -106.66306973 184.00447559 C-103.13675363 188.14704111 -99.27545367 191.92939135 -95.41306973 195.75447559 C-91.06941373 200.05634558 -86.85258202 204.35755475 -82.91306973 209.03572559 C-79.87634129 212.4045962 -76.63495278 215.56357218 -73.41306973 218.75447559 C-69.06942535 223.05635416 -64.85258215 227.35755458 -60.91306973 232.03572559 C-57.87634129 235.4045962 -54.63495278 238.56357218 -51.41306973 241.75447559 C-47.06942535 246.05635416 -42.85258215 250.35755458 -38.91306973 255.03572559 C-35.87634129 258.4045962 -32.63495278 261.56357218 -29.41306973 264.75447559 C-21.48624046 272.60508535 -21.48624046 272.60508535 -18.41306973 276.25447559 C-16.14640406 278.89265862 -13.81391538 281.40874946 -11.34275723 283.85603809 C-10.67953457 284.51603809 -10.01631191 285.17603809 -9.3329916 285.85603809 C-8.00110777 287.17392888 -6.66659894 288.48917375 -5.32908535 289.80135059 C-4.70453457 290.41752247 -4.07998379 291.03369434 -3.43650723 291.66853809 C-2.87882656 292.2146172 -2.3211459 292.7606963 -1.74656582 293.32332325 C0.08693027 295.25447559 0.08693027 295.25447559 1.91178513 298.33007717 C3.76527573 300.53205296 4.7824706 301.18818209 7.62648261 301.80744147 C11.00493605 302.01432096 14.33811845 302.02453414 17.72274876 301.97600269 C19.02150698 301.98112924 20.3202652 301.98625579 21.65837973 301.99153769 C25.26178386 302.00495644 28.86411831 301.9809534 32.46738613 301.95086932 C36.35349636 301.92496841 40.23954585 301.93372606 44.12571812 301.93828297 C50.85818695 301.94142974 57.590307 301.92259837 64.3226881 301.88885593 C74.05652955 301.84010204 83.79020228 301.82446815 93.5241526 301.81692798 C109.3165771 301.80379485 125.1088157 301.76386158 140.90113926 301.70711231 C156.24227578 301.65204168 171.58336155 301.60963822 186.92457676 301.58406544 C188.35738947 301.58165346 188.35738947 301.58165346 189.81914788 301.57919276 C197.28945977 301.56671629 204.75977277 301.55497472 212.23008621 301.54346538 C248.84920486 301.48685891 285.46785817 301.36615063 322.08693027 301.25447559 C322.08693027 212.15447559 322.08693027 123.05447559 322.08693027 31.25447559 C266.0870991 30.81735818 266.0870991 30.81735818 210.08693027 30.52205372 C202.53093575 30.49268732 194.97494589 30.46238057 187.41896152 30.43050098 C186.47199162 30.42654475 185.52502171 30.42258852 184.54935575 30.4185124 C169.27737083 30.35333936 154.00623635 30.23512125 138.73475508 30.09718365 C123.05242845 29.95672056 107.37054583 29.87355449 91.68761599 29.84314817 C82.01619836 29.82260389 72.3471836 29.75781913 62.67650606 29.63572859 C56.03744805 29.55620085 49.39962505 29.53252549 42.76012574 29.55195493 C38.93304232 29.56152972 35.11014374 29.54727252 31.28381252 29.46639347 C14.27593587 29.12454292 2.33362927 29.1849982 -7.57547736 44.35595024 Z " fill="#558FCF" transform="translate(159.91306972503662,89.7455244064331)"/>
<path d="M0 0 C4.91319828 4.416358 6.82223459 11.53814268 8.66943359 17.71875 C8.89846469 18.46401821 9.12749578 19.20928642 9.36346722 19.97713852 C10.11883552 22.4410912 10.86410571 24.90797574 11.609375 27.375 C12.14858424 29.14099792 12.68843035 30.9068015 13.22886658 32.67242432 C14.67990002 37.41914509 16.12228951 42.16845204 17.56308365 46.91828918 C19.06712903 51.87124142 20.57919504 56.8217433 22.09057617 61.77246094 C24.55926747 69.86208864 27.02357885 77.95303775 29.48486328 86.04492188 C32.82914504 97.03853693 36.18732543 108.02786317 39.55078125 119.015625 C40.55099291 122.2838392 41.5511283 125.55207675 42.55126953 128.8203125 C42.79077332 129.60292702 43.0302771 130.38554153 43.27703857 131.19187164 C44.88709303 136.45320895 46.49655677 141.71472642 48.10498047 146.9765625 C48.31965218 147.67874657 48.53432388 148.38093063 48.75550079 149.10439301 C49.78145377 152.46159743 50.80559376 155.81933525 51.82562256 159.17834473 C53.53121287 164.7931323 55.24632393 170.40343642 57.01708984 175.99804688 C57.44721626 177.37594391 57.44721626 177.37594391 57.8860321 178.78167725 C58.39705295 180.41726152 58.91628576 182.05032073 59.4466095 183.67974854 C61.20106058 189.34530303 62.476342 195.09419099 59.7109375 200.625 C53.73270041 205.74920322 47.06143229 207.33714161 39.3125 207.2109375 C36.79159541 206.83059049 35.24999397 206.22507069 33.0859375 204.875 C28.86152439 197.86716804 27.185254 188.88622612 24.93896484 181.04077148 C24.32951179 178.91508805 23.71020244 176.79244526 23.08984375 174.66992188 C22.69733608 173.31266777 22.305388 171.95525168 21.9140625 170.59765625 C21.5624707 169.37828369 21.21087891 168.15891113 20.84863281 166.90258789 C20.0859375 163.875 20.0859375 163.875 20.0859375 160.875 C-3.0140625 160.875 -26.1140625 160.875 -49.9140625 160.875 C-50.5740625 164.175 -51.2340625 167.475 -51.9140625 170.875 C-53.07335011 175.337428 -54.37145467 179.75484805 -55.69042969 184.17211914 C-56.29221732 186.19812113 -56.87664335 188.22865949 -57.4609375 190.25976562 C-57.84790596 191.56541653 -58.23589096 192.87076668 -58.625 194.17578125 C-58.96837402 195.34278564 -59.31174805 196.50979004 -59.66552734 197.7121582 C-61.21403818 201.63491101 -63.04866286 204.94230018 -66.9140625 206.875 C-74.88992162 207.84428843 -81.31202889 206.55554622 -87.9140625 201.875 C-90.66328204 199.39105603 -90.90530381 197.96137783 -91.28369141 194.22973633 C-91.1622663 186.81698298 -88.44928849 179.80473027 -86.21875 172.80859375 C-85.71710888 171.20225177 -85.21666086 169.59553679 -84.71731567 167.98847961 C-83.64723133 164.55270709 -82.5694312 161.11949245 -81.48535156 157.68811035 C-79.77197569 152.26438843 -78.07570855 146.83541746 -76.3828125 141.40527344 C-74.63646282 135.80564773 -72.8894746 130.20623272 -71.13690186 124.60855103 C-65.54022184 106.72769811 -60.05976466 88.81217126 -54.60312653 70.88817215 C-53.4898743 67.23178996 -52.37566474 63.5756998 -51.26123047 59.91967773 C-51.04862642 59.22208879 -50.83602238 58.52449984 -50.61697578 57.80577183 C-49.58152575 54.40935359 -48.54456714 51.01340792 -47.50442505 47.61842346 C-47.30515978 46.96796838 -47.10589451 46.31751329 -46.9005909 45.64734745 C-46.50225774 44.34711123 -46.10385511 43.04689629 -45.70538139 41.74670315 C-44.47470701 37.72530165 -43.25904672 33.69964845 -42.05271912 29.67087936 C-41.24679207 26.98483822 -40.43300213 24.30121753 -39.61776733 21.61798859 C-39.0570135 19.76252265 -38.50648398 17.9039763 -37.95629883 16.04534912 C-34.08709836 3.35766823 -34.08709836 3.35766823 -29.046875 -0.5859375 C-19.49735776 -4.93338309 -9.36267149 -4.60144947 0 0 Z M-15.9140625 41.875 C-18.99267108 52.37614025 -22.07016272 62.87760713 -25.14626026 73.37948322 C-26.57491206 78.2568096 -28.0039368 83.13402605 -29.43383789 88.01098633 C-30.81581252 92.72453622 -32.19677608 97.43838128 -33.57706261 102.15242577 C-34.10173833 103.9436906 -34.62676773 105.73485189 -35.15217018 107.5259037 C-35.8925269 110.04994812 -36.63158233 112.57437036 -37.37036133 115.09887695 C-37.58399323 115.82608948 -37.79762512 116.553302 -38.01773071 117.30255127 C-39.72459397 123.14287403 -41.31220821 129.00153425 -42.9140625 134.875 C-24.7640625 134.875 -6.6140625 134.875 12.0859375 134.875 C10.81338282 128.5122266 9.50452361 122.41758828 7.6875 116.22827148 C7.45633484 115.42862473 7.22516968 114.62897797 6.98699951 113.80509949 C6.23272723 111.20079153 5.47222903 108.59835778 4.7109375 105.99609375 C4.18035774 104.1743633 3.6499239 102.35259034 3.11962891 100.53077698 C2.01307387 96.7334256 0.90311265 92.93708926 -0.20898438 89.14135742 C-1.63631111 84.26779591 -3.05243718 79.39105633 -4.46578979 74.51342678 C-5.55503277 70.76049481 -6.65138815 67.00966919 -7.74981689 63.25941658 C-8.27543522 61.46073444 -8.79851285 59.66130787 -9.31903076 57.86114311 C-10.04381207 55.35757836 -10.77839715 52.85710087 -11.515625 50.35717773 C-11.72971008 49.6097229 -11.94379517 48.86226807 -12.16436768 48.09216309 C-12.68841729 46.33436868 -13.29352764 44.6010955 -13.9140625 42.875 C-14.5740625 42.545 -15.2340625 42.215 -15.9140625 41.875 Z " fill="#558FCF" transform="translate(270.9140625,154.125)"/>
<path d="M0 0 C3.04864494 2.55791738 5.22541539 5.45083078 7 9 C7.08308638 10.37548156 7.10736016 11.75485796 7.09765625 13.1328125 C7.09443359 13.93847656 7.09121094 14.74414062 7.08789062 15.57421875 C7.07532227 16.83685547 7.07532227 16.83685547 7.0625 18.125 C7.05798828 18.97449219 7.05347656 19.82398438 7.04882812 20.69921875 C7.03702874 22.79950909 7.01909306 24.8997633 7 27 C8.24136719 26.96519531 9.48273438 26.93039063 10.76171875 26.89453125 C12.40363226 26.86638416 14.04556046 26.83908499 15.6875 26.8125 C16.50412109 26.78736328 17.32074219 26.76222656 18.16210938 26.73632812 C22.96467282 26.67799739 26.09990958 26.87696745 30 30 C34.39331285 35.00349519 35.3457706 37.90724554 35.2890625 44.45703125 C34.74301802 49.26074691 31.65200867 52.98312327 28 56 C25.23434618 56.92188461 23.61716298 57.11785222 20.76953125 57.09765625 C19.96708984 57.09443359 19.16464844 57.09121094 18.33789062 57.08789062 C17.50451172 57.07951172 16.67113281 57.07113281 15.8125 57.0625 C14.5450293 57.05573242 14.5450293 57.05573242 13.25195312 57.04882812 C11.16793845 57.03705403 9.08396023 57.0191189 7 57 C7.04640625 58.22976563 7.0928125 59.45953125 7.140625 60.7265625 C7.17816036 62.3593506 7.21455862 63.99216511 7.25 65.625 C7.30027344 66.83736328 7.30027344 66.83736328 7.3515625 68.07421875 C7.4412286 73.58868387 6.64679868 76.6090935 3 81 C-0.29690928 84.38849009 -3.11105802 85.73361759 -7.8828125 86.09375 C-12.36357881 85.89533968 -16.23346478 84.60474858 -19.578125 81.56640625 C-22.79698312 77.85731974 -24.13408136 74.83282037 -24.09765625 69.98828125 C-24.09443359 69.23095703 -24.09121094 68.47363281 -24.08789062 67.69335938 C-24.07951172 66.90767578 -24.07113281 66.12199219 -24.0625 65.3125 C-24.05798828 64.51521484 -24.05347656 63.71792969 -24.04882812 62.89648438 C-24.0370585 60.93095743 -24.01912348 58.96546915 -24 57 C-25.22976563 57.04640625 -26.45953125 57.0928125 -27.7265625 57.140625 C-29.3593506 57.17816036 -30.99216511 57.21455862 -32.625 57.25 C-33.43324219 57.28351563 -34.24148438 57.31703125 -35.07421875 57.3515625 C-40.57923813 57.44107501 -43.62439808 56.6587336 -48 53 C-51.54581036 48.96511235 -52.30360179 45.43338591 -52.21484375 40.05859375 C-51.73807026 35.49023683 -49.77437114 32.69882274 -46.4375 29.6875 C-43.25528488 27.48442799 -41.67508585 26.87552756 -37.8671875 26.90234375 C-37.06152344 26.90556641 -36.25585938 26.90878906 -35.42578125 26.91210938 C-34.58402344 26.92048828 -33.74226563 26.92886719 -32.875 26.9375 C-32.02550781 26.94201172 -31.17601562 26.94652344 -30.30078125 26.95117188 C-28.20049091 26.96297126 -26.1002367 26.98090694 -24 27 C-24.03480469 25.84242188 -24.06960938 24.68484375 -24.10546875 23.4921875 C-24.13362207 21.9531396 -24.16092056 20.41407589 -24.1875 18.875 C-24.21263672 18.11445313 -24.23777344 17.35390625 -24.26367188 16.5703125 C-24.32784874 11.60730157 -23.7238815 8.31389846 -21 4 C-14.71610019 -2.11406468 -8.07032361 -3.25690531 0 0 Z " fill="#558ECE" transform="translate(410,214)"/>
</svg>
