<?xml version="1.0" encoding="UTF-8"?>
<svg version="1.1" xmlns="http://www.w3.org/2000/svg" width="512" height="512">
<path d="M0 0 C1.16783612 -0.00384115 2.33567224 -0.00768229 3.53889734 -0.01163983 C5.48024443 -0.01034011 5.48024443 -0.01034011 7.46081066 -0.00901413 C8.84078228 -0.01159638 10.22075315 -0.01460914 11.60072297 -0.01801753 C15.40608217 -0.02610732 19.21142253 -0.0278782 23.01678932 -0.028615 C27.11573443 -0.03046213 31.21466969 -0.03800773 35.31360912 -0.04475021 C44.28254729 -0.05834813 53.25148099 -0.06436053 62.22042775 -0.06876087 C67.81764811 -0.07152085 73.41486673 -0.07575775 79.01208591 -0.08026505 C94.50038355 -0.09245965 109.98867979 -0.10275856 125.47698212 -0.10614014 C126.46880383 -0.1063597 127.46062555 -0.10657927 128.48250247 -0.10680549 C129.47673655 -0.10702377 130.47097063 -0.10724204 131.49533302 -0.10746694 C133.51012663 -0.10791041 135.52492025 -0.10835697 137.53971386 -0.10880661 C138.53912725 -0.10902804 139.53854065 -0.10924947 140.56823929 -0.10947761 C156.76663713 -0.11342661 172.96499 -0.13088291 189.16337047 -0.15416613 C205.7825521 -0.17786195 222.40171116 -0.19034118 239.02090997 -0.19150805 C248.35659748 -0.19242582 257.69222642 -0.19820349 267.02789783 -0.21632767 C274.97677054 -0.23170481 282.92556657 -0.23686327 290.87445132 -0.22858956 C294.93175129 -0.22467455 298.98889676 -0.22565391 303.04617786 -0.23964691 C306.75901553 -0.25233512 310.4715818 -0.2512334 314.18441882 -0.2390562 C316.1669486 -0.2361576 318.14948286 -0.24807338 320.13197595 -0.26047826 C321.89546499 -0.25059349 321.89546499 -0.25059349 323.69458008 -0.24050903 C324.70924782 -0.24110612 325.72391555 -0.24170321 326.7693308 -0.24231839 C330.61537268 0.27722926 333.45462674 1.71826475 335.83114719 4.82380676 C336.86688233 8.21445608 336.82357152 11.54178922 336.81452465 15.0533638 C336.82031705 15.85715776 336.82610945 16.66095172 336.83207738 17.48910308 C336.84909714 20.18534819 336.85195558 22.88142232 336.85489941 25.57771683 C336.86419622 27.50932104 336.87436452 29.44092123 336.88534069 31.37251663 C336.91268258 36.62003774 336.92780253 41.86753195 336.94076872 47.11510563 C336.95638092 52.597771 336.98317722 58.08038127 337.00879955 63.56300735 C337.05562119 73.94681507 337.09234893 84.3306331 337.12547243 94.71449256 C337.16366989 106.53543435 337.21308627 118.35632084 337.26345658 130.17721605 C337.3668268 154.49524566 337.45607065 178.81331078 337.53605175 203.13142776 C338.05229768 203.3606181 338.56854361 203.58980844 339.10043335 203.82594395 C341.46359049 204.87522793 343.8266044 205.9248341 346.1896162 206.97444534 C347.00168781 207.33496239 347.81375942 207.69547943 348.65043926 208.06692123 C424.15357592 241.60911161 424.15357592 241.60911161 443.53605175 264.13142776 C444.72311913 267.69262992 444.73516246 270.96490775 444.774333 274.67439651 C444.78412685 275.42650909 444.79392071 276.17862167 444.80401134 276.95352554 C445.15882029 311.37794183 439.98112048 345.46878166 422.89982128 375.90608597 C421.73094256 377.99727968 421.73094256 377.99727968 420.53605175 381.13142776 C421.64100366 384.20862565 423.35007266 386.17107756 425.68473339 388.41194534 C426.3220187 389.02971344 426.95930401 389.64748154 427.61590099 390.28396988 C428.30240231 390.94132629 428.98890362 391.59868271 429.696208 392.27595901 C431.14405553 393.68877439 432.59130283 395.10220508 434.03800488 396.51619339 C436.31844481 398.73471425 438.60308529 400.94827844 440.89860058 403.15120316 C443.11561 405.28341024 445.31316747 407.43418114 447.508708 409.58845901 C448.19723354 410.23974274 448.88575909 410.89102646 449.59514904 411.56204605 C452.78480627 414.71695353 454.36894646 416.49823598 455.53776073 420.92708206 C455.53571113 424.77008435 455.13277227 426.2912647 452.53605175 429.13142776 C447.49887819 430.99590384 443.7896746 431.249753 438.508708 430.45174026 C437.22286816 430.2648262 435.93702831 430.07791214 434.61222363 429.88533401 C433.27428272 429.67601972 431.93639265 429.46638031 430.59855175 429.25642776 C429.23351799 429.05325241 427.86828409 428.85141691 426.50284863 428.65095901 C423.17837925 428.15757487 419.85656136 427.65068441 416.53605175 427.13142776 C416.68022533 428.34089066 416.68022533 428.34089066 416.82731152 429.57478714 C417.26088707 433.2592535 417.67983353 436.94524462 418.09855175 440.63142776 C418.25001659 441.89986526 418.40148144 443.16830276 418.55753613 444.47517776 C420.32060457 460.21978896 420.32060457 460.21978896 417.34855175 465.06892776 C414.60605297 466.67659946 412.73482531 467.06991289 409.53605175 467.13142776 C404.06929815 464.46962444 400.16031785 461.16634525 395.946208 456.83455276 C395.35681942 456.24091934 394.76743084 455.64728592 394.160182 455.0356636 C392.29907453 453.15790695 390.44873611 451.26994167 388.59855175 449.38142776 C387.33037182 448.09818324 386.06149797 446.81562411 384.79191113 445.53377151 C381.69854762 442.40752157 378.61479084 439.27207818 375.53605175 436.13142776 C374.44671337 436.74856644 373.35737499 437.36570511 372.23502636 438.00154495 C371.62227352 438.34868546 371.00952068 438.69582596 370.37819958 439.05348587 C367.54142941 440.71343594 364.83170339 442.55713928 362.09855175 444.38142776 C356.9402025 447.75511485 351.67480898 450.75182086 346.16105175 453.50642776 C345.51982372 453.82772659 344.8785957 454.14902542 344.21793652 454.48006058 C342.33786984 455.39863308 340.44485111 456.27427618 338.53605175 457.13142776 C337.87315136 457.43725784 337.21025097 457.74308792 336.52726269 458.05818558 C330.32344765 460.69309115 325.72378635 460.07381859 319.477458 457.63533401 C318.01215698 457.00113159 316.55267851 456.3533481 315.09855175 455.69392776 C314.32229443 455.34555862 313.5460371 454.99718948 312.74625683 454.6382637 C302.69188968 449.98915209 293.06795143 444.21696731 284.53605175 437.13142776 C280.3845313 438.74766382 277.71064922 441.78866972 274.7040205 444.94392776 C273.56448724 446.11362809 272.42449893 447.28288525 271.28409863 448.45174026 C269.50151096 450.29002613 267.72310593 452.13189368 265.9527998 453.9820137 C264.23534585 455.7723525 262.50229568 457.54637058 260.7665205 459.31892776 C259.98645893 460.14711014 259.98645893 460.14711014 259.19063854 460.99202347 C255.62561759 464.60508213 252.68998427 466.26467307 247.53605175 467.13142776 C242.01332448 465.08597322 242.01332448 465.08597322 240.53605175 462.13142776 C239.67333865 450.49483242 241.36542341 438.69293933 242.53605175 427.13142776 C241.62839062 427.26831009 240.72072948 427.40519241 239.78556347 427.54622269 C236.3992434 428.04769933 233.01136046 428.53205612 229.62101269 429.00520706 C228.15747237 429.2129677 226.69486235 429.42739995 225.23331738 429.64876175 C223.12541848 429.96681325 221.01527719 430.26027883 218.90323925 430.54939651 C217.63592968 430.73268509 216.36862011 430.91597366 215.06290722 431.10481644 C210.95666691 431.13579942 208.87730753 430.50554393 205.53605175 428.13142776 C204.87342358 425.51587296 204.87342358 425.51587296 204.53605175 423.13142776 C202.91180892 423.13834121 202.91180892 423.13834121 201.25475311 423.14539433 C174.92394048 423.25632406 148.5931581 423.33852412 122.26216125 423.39048862 C109.52874803 423.41628533 96.79548904 423.45146411 84.0621748 423.50862503 C72.96559809 423.55841481 61.86913307 423.5907081 50.77244776 423.60187024 C44.89517182 423.60839643 39.01821542 423.62376572 33.14104176 423.66007805 C27.61134016 423.69396732 22.08209031 423.70449489 16.55229473 423.69696617 C14.52093522 423.69834387 12.48956089 423.70831818 10.45829105 423.72745514 C7.68753623 423.75228264 4.9184936 423.74637069 2.14770031 423.73270035 C1.34127443 423.74726456 0.53484854 423.76182876 -0.29601449 423.77683431 C-4.10017257 423.72599703 -6.13170524 423.38903912 -9.169204 421.03385282 C-12.01833962 417.43022571 -12.08937835 415.63220463 -12.09036064 411.07738781 C-12.09732825 410.37551864 -12.10429586 409.67364947 -12.1114746 408.95051154 C-12.12875599 406.59245208 -12.11033564 404.23602766 -12.09213734 401.87799454 C-12.09718118 400.17297988 -12.10440875 398.46797052 -12.11363548 396.76297337 C-12.13260772 392.07296509 -12.12029611 387.38347647 -12.10291255 382.69348109 C-12.08956815 377.63752051 -12.10496505 372.58163746 -12.1167345 367.52568436 C-12.13513695 357.61950054 -12.12658156 347.71351364 -12.10864628 337.80733591 C-12.09463524 329.75875204 -12.09072426 321.71022171 -12.09408855 313.66162682 C-12.094566 312.51723496 -12.09504344 311.37284311 -12.09553535 310.19377272 C-12.09656165 307.8691623 -12.09761701 305.5445519 -12.09870111 303.2199415 C-12.10727335 282.65369498 -12.09057574 262.0875437 -12.06087208 241.52132034 C-12.03202967 221.55122757 -12.02495225 201.58127199 -12.04036427 181.61116409 C-12.05711304 159.87910175 -12.06117445 138.14710458 -12.04365391 116.41504055 C-12.04180946 114.09916469 -12.03997473 111.78328882 -12.03814983 109.46741295 C-12.03723774 108.3278732 -12.03632565 107.18833344 -12.03538593 106.01426218 C-12.02977258 97.97197624 -12.0330951 89.92972205 -12.03969479 81.88743782 C-12.04741423 72.09148554 -12.04072545 62.29566848 -12.01551975 52.49974351 C-12.00299284 47.49876262 -11.99691674 42.49799258 -12.00806141 37.49700356 C-12.01806189 32.92320745 -12.00973425 28.34983292 -11.98648023 23.77608836 C-11.98129747 22.11736913 -11.98292469 20.45861247 -11.99187488 18.79990929 C-12.00299653 16.55263735 -11.98971996 14.30680927 -11.97010612 12.05962658 C-11.96891464 10.80925985 -11.96772316 9.55889313 -11.96649557 8.2706365 C-11.37130839 4.55274423 -10.39323037 3.41159798 -7.46394825 1.13142776 C-4.84821808 -0.17643732 -2.9308134 0.00360217 0 0 Z M5.53605175 17.13142776 C5.53605175 145.50142776 5.53605175 273.87142776 5.53605175 406.13142776 C57.32542675 406.81205276 57.32542675 406.81205276 110.16105175 407.50642776 C126.46245556 407.80685989 126.46245556 407.80685989 143.09318066 408.11336136 C152.90699288 408.18697701 152.90699288 408.18697701 162.72095776 408.23118973 C167.06588152 408.25154669 171.4047858 408.33334566 175.74805737 408.45409012 C203.11613588 410.32198006 203.11613588 410.32198006 227.10768116 399.61947358 C231.94408927 394.99757098 235.9739778 389.79148448 239.53605175 384.13142776 C239.22848005 383.44887798 238.92090836 382.7663282 238.6040163 382.06309509 C237.99768266 380.71678701 237.99768266 380.71678701 237.37909985 379.34328079 C236.97871565 378.45448101 236.57833145 377.56568123 236.1658144 376.64994812 C227.70298719 357.78421327 221.01271981 338.54145863 217.53605175 318.13142776 C217.19960644 316.31191605 217.19960644 316.31191605 216.85636425 314.45564651 C215.41001059 305.23266532 215.32928191 296.00876415 215.28605175 286.69392776 C215.2720332 284.75489578 215.2720332 284.75489578 215.25773144 282.77669144 C215.31492625 265.80853172 215.31492625 265.80853172 218.80021191 261.60774612 C220.44880381 260.17780244 222.13894902 259.00034011 223.97355175 257.81892776 C224.63532421 257.3650972 225.29709667 256.91126663 225.97892284 256.44368362 C228.14530292 254.97458989 230.3366612 253.55054355 232.53605175 252.13142776 C233.27130077 251.64770706 234.0065498 251.16398636 234.76407909 250.66560745 C260.68532431 233.63951316 289.99617925 214.97805193 319.53605175 205.13142776 C319.53605175 143.09142776 319.53605175 81.05142776 319.53605175 17.13142776 C215.91605175 17.13142776 112.29605175 17.13142776 5.53605175 17.13142776 Z M314.0633955 225.13924026 C313.39741848 225.45623383 312.73144146 225.77322739 312.04528332 226.09982681 C295.39027838 234.05673536 279.28684838 242.48080911 263.53605175 252.13142776 C261.52438477 253.35026321 259.51266557 254.56901248 257.5008955 255.78767776 C255.57409414 256.9630905 253.64827241 258.140111 251.72355175 259.31892776 C250.83893261 259.85993118 249.95431347 260.4009346 249.04288769 260.95833206 C248.22981152 261.46275833 247.41673534 261.9671846 246.5790205 262.48689651 C245.8676997 262.92670853 245.1563789 263.36652054 244.42350292 263.81966019 C242.56934962 265.10828594 241.07474014 266.48491976 239.53605175 268.13142776 C242.24718666 269.86973579 244.98216012 271.56631387 247.72355175 273.25642776 C248.49247753 273.7501387 249.26140331 274.24384964 250.05362988 274.75252151 C254.39055657 277.57472832 254.39055657 277.57472832 259.336833 277.61580276 C260.42544628 276.88103714 260.42544628 276.88103714 261.53605175 276.13142776 C262.17542675 275.70088089 262.81480175 275.27033401 263.47355175 274.82674026 C264.15417675 274.30853714 264.83480175 273.79033401 265.53605175 273.25642776 C274.06952169 267.14651431 283.37561727 262.22582265 292.53605175 257.13142776 C293.26114941 256.72682327 293.98624706 256.32221878 294.73331738 255.90535355 C303.46004702 251.05976681 312.31476853 246.93401878 321.53605175 243.13142776 C321.53605175 236.20142776 321.53605175 229.27142776 321.53605175 222.13142776 C319.05621269 222.13142776 316.30547533 224.06975082 314.0633955 225.13924026 Z M338.53605175 223.13142776 C338.53605175 229.73142776 338.53605175 236.33142776 338.53605175 243.13142776 C340.37425488 243.99123245 342.212458 244.85103714 344.10636425 245.73689651 C364.10420978 255.15737579 383.37699306 265.45073489 401.53605175 278.13142776 C410.83823202 273.65063296 410.83823202 273.65063296 419.53605175 268.13142776 C401.85543096 253.61748533 361.71738475 223.13142776 338.53605175 223.13142776 Z M322.23917675 260.44002151 C320.68988476 261.18227982 320.68988476 261.18227982 319.10929394 261.93953323 C318.01262402 262.47723343 316.91595409 263.01493362 315.78605175 263.56892776 C314.6558662 264.11951859 313.52568066 264.67010941 312.36124706 265.2373848 C304.31768631 269.18794256 296.3546564 273.18730436 288.69816113 277.84871292 C287.09137682 278.80197001 285.46413029 279.72090729 283.82706738 280.62117386 C272.72071748 286.1663544 272.72071748 286.1663544 264.5633955 295.01912308 C263.56631856 299.0975029 264.19665566 302.94016992 265.07755566 306.95711136 C265.55858478 309.23828568 265.84858318 311.49110939 266.1102705 313.80720901 C269.62951261 342.99674071 282.84157534 371.02484 305.53605175 390.13142776 C316.7698286 399.24413491 316.7698286 399.24413491 330.09073925 403.00642776 C340.17312944 399.39867153 348.66625554 393.25662899 356.53605175 386.13142776 C357.45257519 385.30900589 358.36909863 384.48658401 359.3133955 383.63924026 C378.41905416 365.57863166 391.26623464 338.31424772 393.53605175 312.13142776 C393.65762646 311.03435501 393.65762646 311.03435501 393.78165722 309.91511917 C395.05570598 299.69405563 395.05570598 299.69405563 391.60636425 290.45174026 C388.70166352 288.30553706 385.77161175 286.73415865 382.53605175 285.13142776 C380.858425 284.09384345 379.18112034 283.05560333 377.51456738 282.00032425 C351.06299288 263.38644809 351.06299288 263.38644809 322.23917675 260.44002151 Z M231.53605175 283.13142776 C230.55597875 312.86030889 236.9430401 343.97160504 251.53605175 370.13142776 C252.64157065 369.19552273 253.74540628 368.25762919 254.84855175 367.31892776 C255.46343456 366.79685745 256.07831738 366.27478714 256.711833 365.73689651 C257.31382519 365.20709183 257.91581738 364.67728714 258.53605175 364.13142776 C259.12773144 363.69443558 259.71941113 363.25744339 260.3290205 362.80720901 C261.83207755 361.09240931 261.83207755 361.09240931 261.368083 358.30720901 C260.54318537 355.15865608 259.4917129 352.31461494 258.22355175 349.31892776 C252.86237527 335.69906035 249.46900526 320.27702837 249.51261425 305.62752151 C249.78590842 297.77999437 249.78590842 297.77999437 246.75480175 290.86580276 C244.38880284 289.26146104 242.18365649 288.20951718 239.53605175 287.13142776 C238.09520136 286.42864769 236.65923097 285.71580252 235.227458 284.99470901 C234.52951122 284.64319778 233.83156445 284.29168655 233.11246777 283.92952347 C232.59225048 283.66615189 232.0720332 283.4027803 231.53605175 283.13142776 Z M419.03605175 287.56892776 C418.33351269 287.98980667 417.63097363 288.41068558 416.9071455 288.84431839 C413.53463339 290.7363831 413.53463339 290.7363831 410.53605175 293.13142776 C410.37207433 295.94637343 410.25644504 298.75153639 410.16105175 301.56892776 C409.2374798 322.13198569 404.30449323 341.12353904 396.53605175 360.13142776 C397.98822851 361.63738885 399.44798036 363.13604881 400.91105175 364.63142776 C402.12921581 365.88439651 402.12921581 365.88439651 403.37198925 367.16267776 C405.29501765 369.35574063 405.29501765 369.35574063 407.53605175 369.13142776 C419.0200703 345.02419445 427.85364756 319.63233834 427.59855175 292.63142776 C427.59404003 291.71361526 427.58952831 290.79580276 427.58487988 289.85017776 C427.57321501 287.61052385 427.55684789 285.37101232 427.53605175 283.13142776 C424.81417363 283.13142776 421.41020659 286.13354424 419.03605175 287.56892776 Z M269.16298962 377.38423538 C268.57896877 377.97047684 267.99494793 378.55671829 267.39322948 379.16072464 C266.7326202 379.82140945 266.07201092 380.48209427 265.39138317 381.16279984 C264.67470974 381.88463455 263.95803631 382.60646927 263.2196455 383.35017776 C262.48859097 384.08264725 261.75753643 384.81511673 261.00432873 385.56978226 C258.65839145 387.9213395 256.31594554 390.27634132 253.97355175 392.63142776 C252.3884932 394.22149874 250.80320974 395.81134555 249.21769238 397.40095901 C245.32119384 401.30851304 241.42756008 405.21890435 237.53605175 409.13142776 C241.3885335 410.2267412 244.53720719 410.00420141 248.53605175 409.63142776 C256.01492499 408.93424467 256.01492499 408.93424467 259.53605175 410.13142776 C260.44507114 413.17985642 260.59778542 415.72804413 260.414958 418.89705276 C260.36661816 419.78650589 260.31827831 420.67595901 260.26847363 421.59236526 C260.21239941 422.51275589 260.15632519 423.43314651 260.09855175 424.38142776 C260.04634472 425.31728714 259.99413769 426.25314651 259.94034863 427.21736526 C259.81098323 429.52242141 259.67499655 431.82693522 259.53605175 434.13142776 C264.20479712 430.23166055 268.62732984 426.17928132 272.9071455 421.85799026 C273.47433804 421.28938278 274.04153057 420.7207753 274.62591076 420.13493729 C276.41085088 418.34446541 278.19225431 416.55052292 279.97355175 414.75642776 C281.19402114 413.53093453 282.41472228 412.30567205 283.63566113 411.08064651 C286.60513931 408.10023003 289.57145432 405.11669882 292.53605175 402.13142776 C291.42814184 398.80769804 290.89549541 398.46309844 288.22355175 396.44392776 C283.0859588 392.14703184 279.3885816 386.85697732 275.48600292 381.46663284 C274.9881831 380.77980423 274.49036327 380.09297562 273.977458 379.38533401 C273.53087841 378.75957474 273.08429882 378.13381546 272.62418652 377.48909378 C272.08555981 376.8170491 272.08555981 376.8170491 271.53605175 376.13142776 C270.3493849 376.01909149 270.3493849 376.01909149 269.16298962 377.38423538 Z M387.53605175 376.13142776 C385.79358548 378.10903655 384.09444775 380.10441358 382.41105175 382.13142776 C381.40761075 383.32843252 380.40370493 384.52504777 379.399333 385.72127151 C378.90900585 386.30634476 378.4186787 386.891418 377.91349316 387.49422073 C376.16076564 389.57748743 374.38663347 391.64094505 372.59855175 393.69392776 C372.09452831 394.27271683 371.59050488 394.85150589 371.071208 395.44783401 C369.28616983 397.4054713 367.41373581 399.26289257 365.53605175 401.13142776 C370.21396965 405.83460756 374.89573036 410.53393584 379.5802412 415.23054886 C381.17488946 416.83023987 382.76864097 418.43082531 384.3614912 420.03230667 C386.64521426 422.32809789 388.93209565 424.62070039 391.2196455 426.91267776 C391.93631893 427.63451248 392.65299236 428.3563472 393.39138317 429.10005569 C394.05199245 429.76074051 394.71260174 430.42142532 395.39322948 431.10213089 C395.97725033 431.68837234 396.56127117 432.2746138 397.16298962 432.87862015 C398.3493849 434.24376404 398.3493849 434.24376404 399.53605175 434.13142776 C399.44066113 432.97384964 399.3452705 431.81627151 399.24698925 430.62361526 C399.13437829 429.08459886 399.02243441 427.54553355 398.91105175 426.00642776 C398.81437206 424.86560745 398.81437206 424.86560745 398.71573925 423.70174026 C398.39576836 419.06216229 398.50413565 415.44433356 400.53605175 411.13142776 C403.7108862 409.01487147 404.2030418 408.90213628 407.7665205 409.15486526 C408.56896191 409.20642776 409.37140331 409.25799026 410.19816113 409.31111526 C411.03154003 409.37556839 411.86491894 409.44002151 412.72355175 409.50642776 C413.99102245 409.59150589 413.99102245 409.59150589 415.28409863 409.67830276 C417.36876392 409.819636 419.45252041 409.97426026 421.53605175 410.13142776 C417.57652551 405.39100563 413.45357198 400.900223 409.0790205 396.54158401 C408.49058865 395.95219543 407.90215679 395.36280685 407.29589367 394.75555801 C406.06605694 393.5250467 404.83498031 392.29577342 403.60270214 391.06770706 C401.70755855 389.17798028 399.81788898 387.28289505 397.92862988 385.38728714 C396.7290811 384.18839815 395.52922272 382.98981884 394.3290205 381.79158401 C393.76241207 381.22295135 393.19580364 380.6543187 392.61202526 380.06845474 C390.43347484 377.3678476 390.43347484 377.3678476 387.53605175 376.13142776 Z M303.93448925 414.53767776 C302.92157633 415.56391849 301.91397048 416.59541781 300.91105175 417.63142776 C300.39542675 418.1560762 299.87980175 418.68072464 299.34855175 419.22127151 C298.07320243 420.52023842 296.80403914 421.82527353 295.53605175 423.13142776 C298.87741641 426.84499507 302.58900152 429.19054492 306.84855175 431.69392776 C307.48728222 432.08000198 308.12601269 432.4660762 308.78409863 432.86384964 C312.99222398 435.36655438 316.93930186 437.1613921 321.53605175 439.13142776 C321.53605175 432.53142776 321.53605175 425.93142776 321.53605175 419.13142776 C319.43230175 417.97642776 317.32855175 416.82142776 315.16105175 415.63142776 C314.50056835 415.26597855 313.84008495 414.90052933 313.15958691 414.52400589 C308.29257816 411.56935796 308.29257816 411.56935796 303.93448925 414.53767776 Z M341.1727705 415.31111526 C337.90217299 418.80944326 337.78166287 420.76804876 337.69449902 425.41926956 C337.83031644 429.35000691 338.1140402 433.22000593 338.53605175 437.13142776 C343.88884151 435.64173627 348.1420363 433.14109141 352.78605175 430.19392776 C353.50534863 429.7511348 354.2246455 429.30834183 354.96573925 428.85213089 C355.99827831 428.20341019 355.99827831 428.20341019 357.05167675 427.54158401 C357.67332714 427.15107864 358.29497753 426.76057327 358.93546581 426.35823441 C360.82655375 425.0455248 360.82655375 425.0455248 362.53605175 422.13142776 C360.72652584 420.29507198 358.91364537 418.46226569 357.09855175 416.63142776 C356.58228222 416.10677933 356.06601269 415.58213089 355.53409863 415.04158401 C354.22028388 413.71918224 352.8801167 412.42307208 351.53605175 411.13142776 C347.88937254 411.13142776 344.22716265 413.58330527 341.1727705 415.31111526 Z " fill="#558FCF" transform="translate(30.463948249816895,13.868572235107422)"/>
<path d="M0 0 C1.15798096 -0.00571014 2.31596191 -0.01142029 3.5090332 -0.01730347 C4.77562775 -0.01842133 6.04222229 -0.01953918 7.34719849 -0.02069092 C8.69764338 -0.02532139 10.04808697 -0.03034637 11.39852905 -0.03573608 C15.06386693 -0.04883852 18.7291865 -0.05530063 22.39454412 -0.05974674 C24.68547784 -0.06268048 26.97640659 -0.06678582 29.2673378 -0.07125092 C36.4380964 -0.08491912 43.6088436 -0.09458953 50.77961433 -0.09845281 C59.05204025 -0.1029344 67.32430101 -0.12048977 75.59667671 -0.1494534 C81.9951031 -0.17107706 88.39348304 -0.18115742 94.79194558 -0.18249393 C98.61175715 -0.18354131 102.43141332 -0.18943506 106.25118637 -0.20731354 C109.84469721 -0.22380654 113.43793602 -0.22594393 117.03147125 -0.21717453 C118.97453287 -0.21603859 120.91758551 -0.2297458 122.8605957 -0.243927 C133.67896778 -0.19214967 133.67896778 -0.19214967 138.32034302 3.14044189 C139.69277518 5.88530622 139.47035184 8.10671493 139.49734497 11.17901611 C139.51659782 13.08141556 139.51659782 13.08141556 139.53623962 15.02224731 C139.54440636 16.41320405 139.55185022 17.80416518 139.55862427 19.19512939 C139.56269979 19.89438663 139.56677532 20.59364388 139.57097435 21.31409073 C139.59183222 25.01450556 139.60613565 28.71488333 139.61550903 32.41534424 C139.62657883 36.2377749 139.66098512 40.05962426 139.70068073 43.88184929 C139.72682087 46.82096441 139.73519844 49.75994039 139.73879051 52.69916153 C139.74366255 54.10818538 139.75529428 55.51720276 139.77382851 56.92611313 C139.79816178 58.8982925 139.79484087 60.87075433 139.79031372 62.84307861 C139.79617996 63.96511688 139.8020462 65.08715515 139.80809021 66.24319458 C139.19307002 69.89645109 138.20135026 70.86327478 135.32034302 73.14044189 C132.57480621 73.64659977 132.57480621 73.64659977 129.36148071 73.65510559 C128.14171036 73.66783005 126.92194 73.6805545 125.66520691 73.69366455 C124.31652638 73.68748235 122.96784774 73.68087634 121.61917114 73.67388916 C120.19650884 73.68094769 118.77385404 73.68969243 117.35121155 73.69999695 C113.48960978 73.72250731 109.62841754 73.71954777 105.76677513 73.71067548 C102.54345237 73.70556749 99.3202067 73.7128565 96.09689188 73.72014755 C88.49373551 73.73715139 80.89077982 73.73357547 73.28762817 73.71685791 C65.44168846 73.69992973 57.59630481 73.71577921 49.75042582 73.74808079 C43.01484002 73.77476151 36.27942749 73.78205704 29.54379416 73.77356571 C25.52054089 73.76863274 21.49762236 73.77087186 17.47441101 73.79135323 C13.69192902 73.80968728 9.91024825 73.8037808 6.12780952 73.77915382 C4.73946598 73.77413881 3.35106163 73.77765378 1.96276665 73.79030228 C0.06829912 73.80619753 -1.8263624 73.78828392 -3.72079468 73.76863098 C-4.78119209 73.76804467 -5.84158951 73.76745836 -6.93412018 73.76685429 C-9.67965698 73.14044189 -9.67965698 73.14044189 -12.02033997 70.78376675 C-14.02358505 67.59255767 -14.18613998 65.70950337 -14.19723511 61.96075439 C-14.20984375 60.73598389 -14.22245239 59.51121338 -14.23544312 58.24932861 C-14.22734619 56.934646 -14.21924927 55.61996338 -14.21090698 54.26544189 C-14.21360389 52.89450811 -14.21748798 51.52357619 -14.22250366 50.15264893 C-14.22838952 47.28446171 -14.21986619 44.416774 -14.20114136 41.54864502 C-14.17835119 37.87983438 -14.19147934 34.21219425 -14.21543121 30.54342651 C-14.22991459 27.71400195 -14.22527183 24.88485298 -14.21492004 22.05541992 C-14.21096996 20.04745724 -14.2230766 18.03948366 -14.23544312 16.03155518 C-14.22283447 14.80678467 -14.21022583 13.58201416 -14.19723511 12.32012939 C-14.19405273 11.24489014 -14.19087036 10.16965088 -14.18759155 9.06182861 C-13.54968332 5.39289813 -12.32072197 3.73222406 -9.67965698 1.14044189 C-6.46542938 0.01010899 -3.38558673 0.01000913 0 0 Z M3.32034302 17.14044189 C3.32034302 30.01044189 3.32034302 42.88044189 3.32034302 56.14044189 C42.59034302 56.14044189 81.86034302 56.14044189 122.32034302 56.14044189 C122.32034302 43.27044189 122.32034302 30.40044189 122.32034302 17.14044189 C83.05034302 17.14044189 43.78034302 17.14044189 3.32034302 17.14044189 Z " fill="#568FCF" transform="translate(73.67965698242188,63.85955810546875)"/>
<path d="M0 0 C2.125 0.47265625 2.125 0.47265625 4.625 2.41015625 C6.58269046 6.4071076 6.93299115 10.06605322 7.125 14.47265625 C7.87523437 14.63121094 8.62546875 14.78976563 9.3984375 14.953125 C21.3215079 17.67110453 30.35751599 21.7059464 38.125 31.47265625 C41.12852788 36.56143598 41.88754875 41.658222 41.125 47.47265625 C39.0625 50.47265625 39.0625 50.47265625 36.125 52.47265625 C32.625 53.09765625 32.625 53.09765625 29.125 52.47265625 C25.56672402 49.86325387 24.32126256 48.17184163 23.125 43.91015625 C21.91316277 39.74446576 20.76541528 38.73780353 17.125 36.47265625 C6.77524307 31.48259488 -6.01459717 30.41787617 -17 34.16015625 C-21.36601579 36.03695037 -24.72007746 37.89139283 -27.875 41.47265625 C-28.7918463 44.51640358 -28.7918463 44.51640358 -27.875 47.47265625 C-20.52732567 55.76841759 -5.96165873 55.92388217 4.20117188 57.49023438 C17.08174549 59.57733309 29.31955427 62.06743273 37.8671875 72.62890625 C41.67008344 78.20333757 41.76963389 84.96492366 41.125 91.47265625 C39.37557934 99.64642 34.4566171 105.19464859 27.5625 109.66015625 C21.20279803 113.26527606 13.51632843 116.47265625 6.125 116.47265625 C6.17140625 117.06433594 6.2178125 117.65601563 6.265625 118.265625 C6.4495198 122.29160754 6.45469882 124.83963452 4.5625 128.47265625 C1.37755146 131.08594736 -0.78835878 131.39968051 -4.875 131.47265625 C-8.27308026 130.37057617 -8.82231917 129.55167749 -10.875 126.47265625 C-11.0703125 123.9921875 -11.0703125 123.9921875 -11 121.28515625 C-10.98195313 120.38410156 -10.96390625 119.48304688 -10.9453125 118.5546875 C-10.92210937 117.86761719 -10.89890625 117.18054688 -10.875 116.47265625 C-11.50664062 116.40949219 -12.13828125 116.34632813 -12.7890625 116.28125 C-23.65944819 114.7932289 -34.80423302 110.39072973 -41.609375 101.4375 C-45.39477812 95.56077848 -46.80925788 90.37281803 -45.875 83.47265625 C-44.875 80.97265625 -44.875 80.97265625 -42.875 79.47265625 C-40.15310205 78.57714004 -37.73449341 78.25441703 -34.875 78.47265625 C-31.02762329 80.43909324 -29.74168446 82.452631 -28.4375 86.41015625 C-26.99885502 90.68634961 -24.78949125 93.22481521 -20.875 95.47265625 C-10.01537677 100.4447826 2.37574637 100.62016905 13.58984375 96.5859375 C17.29294465 94.84127357 20.8447038 92.9426722 23.125 89.47265625 C23.53314405 85.91074047 23.53314405 85.91074047 22.125 82.47265625 C14.44654037 76.19028019 3.10700106 75.6214342 -6.39428711 74.04345703 C-35.10327074 69.24826217 -35.10327074 69.24826217 -42.47265625 59.3203125 C-46.37087499 52.62058837 -46.9978354 46.07986609 -45.875 38.47265625 C-43.53052072 30.16147719 -38.18782273 24.81404178 -30.875 20.47265625 C-24.72178669 17.77811186 -18.49518719 15.65261457 -11.875 14.47265625 C-11.83632813 13.58513672 -11.83632813 13.58513672 -11.796875 12.6796875 C-11.51955374 8.81609817 -11.09389343 5.91956366 -9.375 2.41015625 C-6.16076009 -0.08087968 -3.99703301 -0.25638863 0 0 Z " fill="#558FCF" transform="translate(290.875,43.52734375)"/>
<path d="M0 0 C1.41295774 -0.00514059 2.82590907 -0.01242292 4.23884583 -0.02168274 C8.06951656 -0.04018613 11.89949067 -0.02726622 15.73013234 -0.00759244 C19.74013524 0.00880126 23.75009427 -0.00001968 27.76011658 -0.00511169 C34.49286012 -0.00963134 41.22532573 0.00623031 47.95800781 0.03417969 C55.74200183 0.0662442 63.52549495 0.06621053 71.3095246 0.04896492 C78.79910505 0.03310297 86.28850185 0.03983035 93.77807426 0.05690193 C96.96503017 0.06377458 100.15183896 0.06273789 103.3387928 0.05535698 C107.09086039 0.04769728 110.84235762 0.05980906 114.59432793 0.08720589 C115.97137127 0.09409376 117.34846786 0.0941833 118.72550964 0.08699036 C120.60465543 0.07830549 122.48386835 0.096678 124.3629303 0.11643982 C125.41465455 0.11924674 126.4663788 0.12205366 127.54997349 0.12494564 C130.99339364 0.76404855 132.15340746 1.89294295 134.27709961 4.63110352 C135.27709961 8.06860352 135.27709961 8.06860352 135.27709961 11.63110352 C133.51068789 14.43299797 132.24660139 16.14635262 129.27709961 17.63110352 C127.41328185 17.73109447 125.54585743 17.76620071 123.67936707 17.77154541 C122.48903366 17.77725555 121.29870026 17.7829657 120.07229614 17.78884888 C118.75953705 17.78996674 117.44677795 17.79108459 116.09423828 17.79223633 C114.70305754 17.79686372 113.31187806 17.80188828 111.92070007 17.80728149 C108.13548003 17.82041597 104.35027772 17.8268526 100.56503844 17.83129215 C98.20075411 17.83422147 95.83647465 17.83832603 93.47219276 17.84279633 C86.07664232 17.85647463 78.68110298 17.86613939 71.28554076 17.86999822 C62.74537457 17.87447856 54.20536847 17.89202388 45.66525096 17.92099881 C39.06645764 17.94261075 32.46770938 17.95270225 25.86888105 17.95403934 C21.92667162 17.95508781 17.98461261 17.96100439 14.04244041 17.97885895 C10.33323233 17.99533106 6.62428784 17.99749945 2.91505623 17.98871994 C0.90618094 17.98758171 -1.10268557 18.00130613 -3.11151123 18.01547241 C-4.90970055 18.00711868 -4.90970055 18.00711868 -6.74421692 17.99859619 C-7.78416715 18.00006275 -8.82411737 18.00152931 -9.89558125 18.00304031 C-13.17925106 17.57107011 -15.06485446 16.57655813 -17.72290039 14.63110352 C-19.29225633 11.49239164 -19.07491142 9.0925453 -18.72290039 5.63110352 C-14.40558157 -1.34351363 -7.43947338 -0.06844796 0 0 Z " fill="#558FCF" transform="translate(78.722900390625,206.368896484375)"/>
<path d="M0 0 C2.78227332 2.49691195 3.80269892 4.19285922 4.6875 7.8125 C3.01337832 15.57433686 -5.9031699 22.04739533 -11.38208008 27.51147461 C-12.18943604 28.32058289 -12.99679199 29.12969116 -13.82861328 29.96331787 C-16.47309191 32.61216507 -19.12117221 35.25737668 -21.76953125 37.90234375 C-23.61576203 39.74924861 -25.46184439 41.59630186 -27.30778503 43.4434967 C-31.16327563 47.30079871 -35.02085273 51.15600458 -38.87963867 55.01000977 C-43.34130939 59.46621663 -47.79933511 63.92604569 -52.25553018 68.38772768 C-56.55198857 72.68926408 -60.85124485 76.98799246 -65.1517086 81.28552437 C-66.9789649 83.1121123 -68.80547511 84.9394469 -70.63123512 86.76753044 C-73.17338193 89.3122043 -75.71869041 91.85367195 -78.26489258 94.39428711 C-79.02281601 95.15423477 -79.78073944 95.91418243 -80.56163025 96.69715881 C-81.25263824 97.38534698 -81.94364624 98.07353516 -82.65559387 98.78257751 C-83.2567291 99.38333571 -83.85786432 99.98409391 -84.47721577 100.60305691 C-86.83206153 102.76330092 -88.05514499 103.00624283 -91.3125 103.375 C-95 103 -95 103 -97.9375 100.875 C-100 98 -100 98 -100.75 95.1875 C-98.91247288 87.37800976 -90.06778656 80.92357652 -84.52612305 75.39672852 C-83.70901352 74.57786667 -82.89190399 73.75900482 -82.05003357 72.91532898 C-79.37308974 70.23401589 -76.6925432 67.556339 -74.01171875 64.87890625 C-72.14306771 63.00958115 -70.27456511 61.14010766 -68.40620422 59.27049255 C-64.50363527 55.36611206 -60.59897945 51.46382793 -56.69311523 47.56274414 C-52.17691312 43.05200562 -47.66435548 38.53764514 -43.153629 34.02143151 C-38.80484488 29.66756943 -34.45326286 25.31651524 -30.1004734 20.96665764 C-28.2508884 19.11774102 -26.40204955 17.26807768 -24.5539608 15.41766548 C-21.98068104 12.84185874 -19.40423945 10.26925782 -16.8269043 7.69750977 C-15.67599304 6.54356216 -15.67599304 6.54356216 -14.50183105 5.36630249 C-13.45269783 4.321399 -13.45269783 4.321399 -12.38237 3.25538635 C-11.46960564 2.34318754 -11.46960564 2.34318754 -10.5384016 1.41256046 C-7.07897277 -1.76388734 -4.41381456 -1.06540352 0 0 Z " fill="#568FCF" transform="translate(162,302)"/>
<path d="M0 0 C0.98976837 -0.00571014 1.97953674 -0.01142029 2.9992981 -0.01730347 C4.08404419 -0.01842133 5.16879028 -0.01953918 6.28640747 -0.02069092 C7.42973541 -0.02565582 8.57306335 -0.03062073 9.7510376 -0.03573608 C13.54164222 -0.05036782 17.33220501 -0.05716106 21.12283325 -0.06268311 C23.75215659 -0.06843326 26.38147992 -0.07419101 29.01080322 -0.07995605 C33.82178008 -0.08952605 38.63274789 -0.09542383 43.4437331 -0.09845281 C50.52196046 -0.10293391 57.59999475 -0.1204858 64.67816341 -0.1494534 C70.81148643 -0.17368193 76.94472976 -0.18139745 83.0780983 -0.18312836 C85.68643368 -0.18615925 88.29476816 -0.1942024 90.90307236 -0.20731354 C94.54922947 -0.22433478 98.19491444 -0.22250319 101.84109497 -0.21600342 C103.46214142 -0.22982559 103.46214142 -0.22982559 105.11593628 -0.243927 C114.35961267 -0.19221007 114.35961267 -0.19221007 118.19314575 3.14044189 C120.53864249 6.65868701 120.77305978 7.99819884 120.19314575 12.14044189 C118.13562326 15.18042438 116.48044648 16.89135923 112.79885864 17.6037178 C109.69121797 17.79388379 106.61908563 17.81567713 103.50564575 17.78741455 C102.32301147 17.79617615 101.1403772 17.80493774 99.92190552 17.81396484 C96.68608482 17.83217983 93.45128959 17.82794129 90.21548462 17.81206942 C86.82520434 17.7993873 83.43499129 17.81115691 80.04470825 17.81900024 C74.35187528 17.82809019 68.65936691 17.81612652 62.96658325 17.79229736 C56.39014676 17.7650868 49.81448534 17.77390147 43.23806763 17.80142939 C37.58606341 17.82413856 31.93429219 17.82731189 26.28225708 17.81423604 C22.90899963 17.80645125 19.5361062 17.80537252 16.16287231 17.82191849 C12.4015955 17.83460331 8.64181126 17.81527931 4.88064575 17.78741455 C3.76568726 17.79753571 2.65072876 17.80765686 1.50198364 17.81808472 C-6.02708825 17.71463904 -6.02708825 17.71463904 -10.00216675 14.7875061 C-12.23124463 11.51795818 -12.53448178 10.02112208 -11.80685425 6.14044189 C-8.52040467 1.04077876 -5.88743359 0.02034251 0 0 Z " fill="#558FCF" transform="translate(134.80685424804688,246.85955810546875)"/>
<path d="M0 0 C0.97431473 -0.00426498 1.94862946 -0.00852997 2.95246887 -0.01292419 C4.54614288 -0.01224442 4.54614288 -0.01224442 6.17201233 -0.0115509 C7.85796257 -0.01658882 7.85796257 -0.01658882 9.57797241 -0.02172852 C13.29821371 -0.03123761 17.01841002 -0.03318154 20.73866272 -0.03425598 C23.3217165 -0.03746831 25.90477009 -0.04083236 28.48782349 -0.04434204 C33.90404255 -0.05033301 39.32024373 -0.05222474 44.73646545 -0.05158997 C50.9928475 -0.05098908 57.24914336 -0.06154468 63.50550359 -0.07733363 C69.52936926 -0.09199301 75.55318816 -0.09557784 81.57707405 -0.09498024 C84.13795385 -0.09616168 86.69883425 -0.10059259 89.25970268 -0.10831261 C92.83861862 -0.11809229 96.41731167 -0.11524243 99.99623108 -0.10920715 C101.05665619 -0.11482666 102.1170813 -0.12044617 103.2096405 -0.12623596 C104.67534233 -0.11994423 104.67534233 -0.11994423 106.1706543 -0.11352539 C107.43908377 -0.11434254 107.43908377 -0.11434254 108.73313808 -0.1151762 C112.45081529 0.26785819 115.26404329 1.27944659 117.96131897 3.88371277 C119.55993109 6.91266206 119.63253032 8.74773328 119.14881897 12.13371277 C117.85058594 14.78468323 117.85058594 14.78468323 115.14881897 17.13371277 C111.27229148 17.90887728 107.42491606 17.81605745 103.48304749 17.78068542 C102.29080566 17.78944702 101.09856384 17.79820862 99.87019348 17.80723572 C96.60332715 17.82547164 93.33747379 17.82119805 90.07062268 17.80534029 C86.64964004 17.7926721 83.22872458 17.80442419 79.80773926 17.81227112 C74.06185272 17.82136634 68.31628756 17.8093848 62.57044983 17.78556824 C55.93212049 17.75836962 49.29455928 17.76716156 42.65624863 17.79470026 C36.95331018 17.81740981 31.25060265 17.82058218 25.54763359 17.80750692 C22.14306329 17.79972067 18.73885369 17.79864715 15.33430672 17.81518936 C11.53700324 17.82787419 7.74117822 17.80854944 3.94398499 17.78068542 C2.25516457 17.79586716 2.25516457 17.79586716 0.53222656 17.81135559 C-7.06978402 17.70790174 -7.06978402 17.70790174 -11.05322266 14.78077698 C-13.27426106 11.5108285 -13.57810182 10.01062367 -12.85118103 6.13371277 C-9.9803405 1.51986192 -9.9803405 1.51986192 -7.01375484 0.50535107 C-4.6358934 0.09671559 -2.41329691 0.00478479 0 0 Z " fill="#568FCF" transform="translate(135.85118103027344,165.8662872314453)"/>
<path d="M0 0 C5.3038698 6.97877606 7.5770848 13.19945684 7 22 C5.66523355 30.04864168 2.26691918 35.75799435 -4 41 C-10.77019823 45.22141772 -18.17394023 46.16822292 -26 45 C-33.36348746 42.72057521 -38.81524274 38.45150078 -43 32 C-46.49265147 24.97727579 -47.33333329 17.42956337 -44.875 9.9375 C-41.51313519 2.16028278 -37.24870292 -2.65310109 -29.4375 -6.09375 C-19.16076471 -9.91458748 -7.9473531 -7.54612751 0 0 Z M-27.9375 13.75 C-29.57023814 17.20756312 -29.01926859 19.36885564 -28 23 C-25.5036248 26.35227527 -24.15841453 27.80693091 -20 28.5 C-15.89205396 27.81534233 -13.22194725 26.55520559 -10.625 23.25 C-9.67164456 19.81792041 -10.08345344 17.42177384 -11 14 C-16.92060852 7.91937504 -21.59885302 8.02477047 -27.9375 13.75 Z " fill="#558FCF" transform="translate(161,362)"/>
<path d="M0 0 C6.42459785 3.96322595 11.00926391 9.62501256 13.625 16.6875 C15.34261577 24.98930956 14.63082005 32.28406681 9.96875 39.484375 C5.09763876 45.59624099 -0.77122693 49.58796056 -8.58203125 50.75390625 C-17.32402724 51.10179056 -24.91411872 49.10220866 -31.5 43.1875 C-36.93237587 37.1643693 -39.37146616 29.90200035 -39.015625 21.83203125 C-38.00989005 15.34504081 -35.36453534 8.92038158 -30.625 4.3125 C-21.90759512 -1.89400936 -10.19935993 -4.85497363 0 0 Z M-20.625 19.3125 C-21.87911568 22.67424137 -21.87911568 22.67424137 -21.625 26.3125 C-19.39520332 30.57048376 -19.39520332 30.57048376 -15.625 33.3125 C-11.27307662 33.80517057 -9.32517992 33.83002429 -5.75 31.1875 C-3.38170984 27.98334273 -2.625 26.28459416 -2.625 22.3125 C-4.22911848 18.78343933 -5.36659362 17.48477092 -8.625 15.3125 C-14.01944377 14.71311736 -16.99006904 15.14302037 -20.625 19.3125 Z " fill="#558FCF" transform="translate(98.625,301.6875)"/>
<path d="M0 0 C3.08364499 1.85018699 4.63905184 3.06153478 5.9375 6.4375 C6.07853319 12.21986081 2.87859642 15.53835241 -0.9375 19.5625 C-1.93376832 20.62353403 -2.92985698 21.68473678 -3.92578125 22.74609375 C-4.4357666 23.28476074 -4.94575195 23.82342773 -5.47119141 24.37841797 C-7.88256623 26.93612343 -10.25322693 29.53062383 -12.625 32.125 C-13.31227173 32.87438843 -13.31227173 32.87438843 -14.01342773 33.63891602 C-16.85962262 36.74390202 -19.68614327 39.86570407 -22.5 43 C-23.99985122 44.66680055 -25.49986071 46.3334587 -27 48 C-27.44907715 48.50096191 -27.8981543 49.00192383 -28.36083984 49.51806641 C-29.79896191 51.11995689 -31.24274314 52.7165933 -32.6875 54.3125 C-33.55761719 55.27800781 -34.42773438 56.24351562 -35.32421875 57.23828125 C-42.80374528 64.95802615 -42.80374528 64.95802615 -47.5625 65.125 C-53.80993391 63.08038527 -57.11750448 57.72894726 -60.75 52.5 C-61.38591064 51.59012329 -61.38591064 51.59012329 -62.03466797 50.66186523 C-62.91533309 49.40160308 -63.79472064 48.14044723 -64.67285156 46.87841797 C-65.96953776 45.04311561 -67.30171463 43.24020747 -68.6484375 41.44140625 C-69.47399146 40.31512845 -70.29951363 39.18882734 -71.125 38.0625 C-71.87007813 37.06347656 -72.61515625 36.06445312 -73.3828125 35.03515625 C-75.32201892 31.39563115 -75.42299712 29.06952405 -75 25 C-72.87163599 21.7648867 -71.32379153 21.10193437 -67.625 19.9375 C-63.01806087 20.01692998 -61.10143392 21.86961282 -58 25 C-56.08911996 27.28447306 -54.37735026 29.67407215 -52.6875 32.125 C-52.24599609 32.74503906 -51.80449219 33.36507812 -51.34960938 34.00390625 C-49.49496665 36.64528103 -48.02600464 38.92198609 -47 42 C-41.67210917 37.61574106 -36.9787466 32.91134941 -32.41796875 27.73828125 C-29.81509872 24.79060453 -27.16431832 21.89197456 -24.5 19 C-20.26657978 14.40282799 -16.09744079 9.75390924 -11.97265625 5.05859375 C-8.12288731 1.0411121 -5.72482897 -0.81783271 0 0 Z " fill="#558FCF" transform="translate(395,312)"/>
<path d="M0 0 C1.29693535 -0.02398109 1.29693535 -0.02398109 2.62007141 -0.04844666 C3.55650986 -0.05380936 4.4929483 -0.05917206 5.45776367 -0.06469727 C6.41970139 -0.07372574 7.3816391 -0.08275421 8.37272644 -0.09205627 C10.41121294 -0.1065826 12.44974633 -0.1154514 14.48828125 -0.11914062 C17.6032618 -0.13101784 20.71624957 -0.18016384 23.83081055 -0.23071289 C25.81061858 -0.24017904 27.79043879 -0.24741316 29.77026367 -0.25219727 C31.1658123 -0.28149574 31.1658123 -0.28149574 32.58955383 -0.31138611 C37.15289372 -0.2796559 39.17379073 -0.17694872 42.91357422 2.64990234 C45.22385172 5.88060912 45.39297725 7.41382409 44.81323242 11.30639648 C43.93949644 13.92760442 43.3725389 14.96989505 40.99949646 16.39761353 C38.67925195 17.36208929 37.08234376 17.57053927 34.58300781 17.59692383 C33.75857681 17.60968353 32.93414581 17.62244324 32.08473206 17.6355896 C31.20236374 17.63781525 30.31999542 17.64004089 29.41088867 17.64233398 C28.49617294 17.64899078 27.58145721 17.65564758 26.63902283 17.6625061 C24.7066346 17.67262003 22.77421154 17.67732351 20.84179688 17.67700195 C17.88963182 17.68137589 14.93896127 17.7177104 11.98706055 17.75561523 C10.10750836 17.76148355 8.22794908 17.76545284 6.34838867 17.76733398 C5.46804459 17.78170502 4.5877005 17.79607605 3.68067932 17.81088257 C-0.43069712 17.7803136 -2.63754941 17.64048026 -6.22021484 15.46118164 C-8.75306226 12.68589781 -9.18676758 11.04966243 -9.18676758 7.30639648 C-6.97676294 2.67591058 -5.24835801 0.07327 0 0 Z " fill="#558FCF" transform="translate(244.186767578125,206.693603515625)"/>
<path d="M0 0 C1.10784348 -0.0049926 1.10784348 -0.0049926 2.23806763 -0.01008606 C3.79981871 -0.01514537 5.36158058 -0.01749469 6.92333984 -0.01733398 C9.30454476 -0.0195168 11.6852835 -0.03767244 14.06640625 -0.05664062 C15.58593592 -0.05957555 17.10546779 -0.06155968 18.625 -0.0625 C19.68773636 -0.07327827 19.68773636 -0.07327827 20.77194214 -0.08427429 C24.76583227 -0.06595204 27.89448611 0.28910179 31.4453125 2.16796875 C33.82759357 5.02670603 34.45909267 6.49274059 34.3828125 10.23046875 C33.2533249 13.76952991 32.43583735 14.95627501 29.4453125 17.16796875 C26.44799997 17.77472302 23.49556795 17.75234795 20.4453125 17.734375 C19.57261719 17.74057358 18.69992188 17.74677216 17.80078125 17.75315857 C15.95834467 17.76025263 14.11584393 17.75708991 12.2734375 17.74438477 C9.4545301 17.73051411 6.63893974 17.76459827 3.8203125 17.80273438 C2.02864502 17.80368556 0.23697339 17.8018268 -1.5546875 17.796875 C-2.39644531 17.81013321 -3.23820312 17.82339142 -4.10546875 17.83705139 C-9.9343846 17.74429764 -9.9343846 17.74429764 -13.0859375 14.81616211 C-14.89493478 11.5544943 -15.16762086 9.84556891 -14.5546875 6.16796875 C-10.61619435 0.05651387 -6.80258261 0.01062408 0 0 Z " fill="#558FCF" transform="translate(74.5546875,246.83203125)"/>
<path d="M0 0 C2.0826461 -0.00218638 4.16476195 -0.02036316 6.24731445 -0.03930664 C8.22634766 -0.04220703 8.22634766 -0.04220703 10.24536133 -0.04516602 C11.4505542 -0.0492749 12.65574707 -0.05338379 13.89746094 -0.05761719 C18.04511442 0.25163086 20.95308358 1.02433198 23.96801758 3.93530273 C25.5666297 6.96425202 25.63922893 8.79932325 25.15551758 12.18530273 C23.66333008 14.83520508 23.66333008 14.83520508 21.15551758 17.18530273 C18.11169914 17.69298897 15.63511864 17.88794817 12.59301758 17.84936523 C11.35056274 17.85654068 11.35056274 17.85654068 10.08300781 17.86386108 C8.33469744 17.86725806 6.58632338 17.85806955 4.83813477 17.8371582 C2.16384093 17.81038606 -0.50625644 17.83690888 -3.18041992 17.86889648 C-4.88095001 17.86559235 -6.58147748 17.85918602 -8.28198242 17.84936523 C-9.07999268 17.85948639 -9.87800293 17.86960754 -10.70019531 17.8800354 C-14.62206982 17.79735228 -16.44407981 17.56173428 -19.34838867 14.83129883 C-21.19200097 11.57068035 -21.45982179 9.87733893 -20.84448242 6.18530273 C-17.99429952 1.60465164 -17.99429952 1.60465164 -15.12744141 0.55908203 C-10.14274893 -0.25704076 -5.03838667 -0.00059338 0 0 Z " fill="#568FCF" transform="translate(80.844482421875,165.814697265625)"/>
</svg>
