<?xml version="1.0" encoding="UTF-8"?>
<svg version="1.1" xmlns="http://www.w3.org/2000/svg" width="512" height="512">
<path d="M0 0 C4.6122085 2.18473034 6.73800669 4.49323224 9 9 C9.36914349 11.83290577 9.36914349 11.83290577 9.36076355 14.99214172 C9.36694954 16.79466652 9.36694954 16.79466652 9.3732605 18.63360596 C9.36247467 19.94343445 9.35168884 21.25326294 9.34057617 22.6027832 C9.33972953 24.00251751 9.34020577 25.40225316 9.34190369 26.80198669 C9.34276361 30.59507522 9.32513848 34.38787851 9.30418181 38.18090081 C9.28541448 42.14737514 9.28366453 46.11385617 9.28010559 50.08036804 C9.27078528 57.58844958 9.24617172 65.09639991 9.21605712 72.6044237 C9.18251265 81.15333066 9.16602699 89.70224392 9.15097082 98.25120032 C9.11962213 115.83420941 9.06686194 133.41709083 9 151 C9.7383609 150.99111755 10.4767218 150.98223511 11.23745728 150.9730835 C18.21095089 150.89278741 25.18437501 150.83195943 32.15821266 150.79275131 C35.74320901 150.77191577 39.32782194 150.74367349 42.91259766 150.69824219 C46.3750419 150.65463808 49.83711841 150.63083257 53.29981613 150.62049103 C55.25742482 150.60955179 57.21488648 150.57834872 59.17227173 150.54681396 C70.22778271 150.54403235 70.22778271 150.54403235 75 155 C78.12845834 158.45776975 79.31268346 161.23422345 79.625 165.8125 C79.11759256 175.85618261 70.30533681 183.30563953 64.0234375 190.51171875 C59.90026085 195.24703054 55.95274686 200.12229592 52 205 C46.74085699 211.47206248 41.41841501 217.88140345 36.01611328 224.23388672 C32.62778426 228.22943466 29.3469433 232.2997601 26.09375 236.40625 C23.14916916 240.05401433 20.10548467 243.6145398 17.06640625 247.18359375 C13.6551301 251.19963908 10.3534799 255.29092151 7.08203125 259.421875 C4.66915908 262.40967168 2.18203921 265.33056197 -0.3125 268.25 C-4.11744166 272.7063918 -7.78798412 277.24171687 -11.375 281.875 C-15.84984563 287.64753471 -20.55823743 293.17759172 -25.37011719 298.67089844 C-29.02080256 302.84529241 -32.52957184 307.10276941 -35.96484375 311.45703125 C-38.49262468 314.61554447 -41.08093239 317.71888605 -43.6875 320.8125 C-44.13947754 321.35213379 -44.59145508 321.89176758 -45.05712891 322.44775391 C-53.81461725 332.80043661 -53.81461725 332.80043661 -58.609375 333.23828125 C-69.26714553 333.49014399 -69.26714553 333.49014399 -74 329 C-76.71639855 325.21652929 -77.37304955 322.63968159 -77.36076355 318.00785828 C-77.36488754 316.80617508 -77.36901154 315.60449188 -77.3732605 314.36639404 C-77.36247467 313.05656555 -77.35168884 311.74673706 -77.34057617 310.3972168 C-77.33972953 308.99748249 -77.34020577 307.59774684 -77.34190369 306.19801331 C-77.34276361 302.40492478 -77.32513848 298.61212149 -77.30418181 294.81909919 C-77.28541448 290.85262486 -77.28366453 286.88614383 -77.28010559 282.91963196 C-77.27078528 275.41155042 -77.24617172 267.90360009 -77.21605712 260.3955763 C-77.18251265 251.84666934 -77.16602699 243.29775608 -77.15097082 234.74879968 C-77.11962213 217.16579059 -77.06686194 199.58290917 -77 182 C-77.7383609 182.00888245 -78.4767218 182.01776489 -79.23745728 182.0269165 C-86.21095089 182.10721259 -93.18437501 182.16804057 -100.15821266 182.20724869 C-103.74320901 182.22808423 -107.32782194 182.25632651 -110.91259766 182.30175781 C-114.3750419 182.34536192 -117.83711841 182.36916743 -121.29981613 182.37950897 C-123.25742482 182.39044821 -125.21488648 182.42165128 -127.17227173 182.45318604 C-138.22778271 182.45596765 -138.22778271 182.45596765 -143 178 C-146.12845834 174.54223025 -147.31268346 171.76577655 -147.625 167.1875 C-147.11759256 157.14381739 -138.30533681 149.69436047 -132.0234375 142.48828125 C-127.90026085 137.75296946 -123.95274686 132.87770408 -120 128 C-114.74085699 121.52793752 -109.41841501 115.11859655 -104.01611328 108.76611328 C-100.62778426 104.77056534 -97.3469433 100.7002399 -94.09375 96.59375 C-91.14916916 92.94598567 -88.10548467 89.3854602 -85.06640625 85.81640625 C-81.6551301 81.80036092 -78.3534799 77.70907849 -75.08203125 73.578125 C-72.66915908 70.59032832 -70.18203921 67.66943803 -67.6875 64.75 C-63.88255834 60.2936082 -60.21201588 55.75828313 -56.625 51.125 C-52.15015437 45.35246529 -47.44176257 39.82240828 -42.62988281 34.32910156 C-38.97919744 30.15470759 -35.47042816 25.89723059 -32.03515625 21.54296875 C-29.50737532 18.38445553 -26.91906761 15.28111395 -24.3125 12.1875 C-23.63453369 11.37804932 -23.63453369 11.37804932 -22.94287109 10.55224609 C-15.4468307 1.69078667 -11.70347408 -1.10150344 0 0 Z M-22 58 C-23.26267565 59.45066706 -24.48254472 60.93854454 -25.6875 62.4375 C-26.49832031 63.43910156 -27.30914062 64.44070312 -28.14453125 65.47265625 C-28.59779785 66.03355957 -29.05106445 66.59446289 -29.51806641 67.17236328 C-32.28686299 70.58706036 -35.08111509 73.98082331 -37.875 77.375 C-38.47417236 78.10332031 -39.07334473 78.83164063 -39.69067383 79.58203125 C-43.83021608 84.6046684 -48.0191668 89.58233086 -52.23779297 94.53857422 C-55.54715558 98.43692239 -58.74362648 102.41354057 -61.91796875 106.421875 C-64.33084092 109.40967168 -66.81796079 112.33056197 -69.3125 115.25 C-73.59037565 120.26029758 -77.67788235 125.38986609 -81.70947266 130.59936523 C-85.92499488 135.99960757 -90.39905894 141.15984169 -94.93701172 146.29052734 C-97.70354958 148.82373393 -97.70354958 148.82373393 -99 152 C-97.72358643 152.01458252 -96.44717285 152.02916504 -95.13208008 152.04418945 C-90.38879621 152.1022354 -85.64598393 152.17946828 -80.90307617 152.26245117 C-78.85172184 152.29567083 -76.80027675 152.32371197 -74.7487793 152.34643555 C-71.79697051 152.3800357 -68.84599114 152.43235476 -65.89453125 152.48828125 C-64.97976517 152.49467117 -64.06499908 152.5010611 -63.12251282 152.50764465 C-58.32459056 152.61800981 -54.79202278 152.73684695 -51 156 C-46.98272668 160.81821834 -47.5594683 166.07442215 -47.56762695 172.0324707 C-47.55233948 173.70142647 -47.55233948 173.70142647 -47.53674316 175.40409851 C-47.50657336 179.07804372 -47.49734083 182.75172835 -47.48828125 186.42578125 C-47.47143758 188.9745521 -47.45328777 191.52331462 -47.43388367 194.07206726 C-47.3912017 200.09260839 -47.36168393 206.1130746 -47.33856028 212.13371104 C-47.31149172 218.98988303 -47.26758131 225.84591499 -47.22227156 232.70198691 C-47.12947025 246.80124852 -47.05776892 260.90055443 -47 275 C-43.37469487 271.41030021 -39.96211017 267.72241258 -36.6875 263.8125 C-36.20603516 263.24080078 -35.72457031 262.66910156 -35.22851562 262.08007812 C-31.78114106 257.97168899 -28.42405778 253.79758113 -25.09375 249.59375 C-22.14916916 245.94598567 -19.10548467 242.3854602 -16.06640625 238.81640625 C-12.6551301 234.80036092 -9.3534799 230.70907849 -6.08203125 226.578125 C-3.66915908 223.59032832 -1.18203921 220.66943803 1.3125 217.75 C5.59037565 212.73970242 9.67788235 207.61013391 13.70947266 202.40063477 C17.92499488 197.00039243 22.39905894 191.84015831 26.93701172 186.70947266 C29.70354958 184.17626607 29.70354958 184.17626607 31 181 C29.72358643 180.98541748 28.44717285 180.97083496 27.13208008 180.95581055 C22.38879621 180.8977646 17.64598393 180.82053172 12.90307617 180.73754883 C10.85172184 180.70432917 8.80027675 180.67628803 6.7487793 180.65356445 C3.79697051 180.6199643 0.84599114 180.56764524 -2.10546875 180.51171875 C-3.02023483 180.50532883 -3.93500092 180.4989389 -4.87748718 180.49235535 C-9.67540944 180.38199019 -13.20797722 180.26315305 -17 177 C-21.01727332 172.18178166 -20.4405317 166.92557785 -20.43237305 160.9675293 C-20.44766052 159.29857353 -20.44766052 159.29857353 -20.46325684 157.59590149 C-20.49342664 153.92195628 -20.50265917 150.24827165 -20.51171875 146.57421875 C-20.52856242 144.0254479 -20.54671223 141.47668538 -20.56611633 138.92793274 C-20.6087983 132.90739161 -20.63831607 126.8869254 -20.66143972 120.86628896 C-20.68850828 114.01011697 -20.73241869 107.15408501 -20.77772844 100.29801309 C-20.87052975 86.19875148 -20.94223108 72.09944557 -21 58 C-21.33 58 -21.66 58 -22 58 Z " fill="#558FCF" transform="translate(293,90)"/>
<path d="M0 0 C8.10211441 4.12749225 11.02593256 10.80121673 14.29296875 18.82421875 C14.68446609 19.7668306 15.07596344 20.70944244 15.47932434 21.68061829 C16.7230849 24.67979369 17.95552622 27.6834663 19.1875 30.6875 C20.43275755 33.70113372 21.68025801 36.71383254 22.92781067 39.72651672 C23.70207535 41.59877076 24.47449938 43.47178723 25.24491882 45.34562683 C25.59230606 46.19022964 25.9396933 47.03483246 26.29760742 47.9050293 C26.60309006 48.64939743 26.90857269 49.39376556 27.22331238 50.16069031 C27.77187859 51.45977519 28.36935804 52.73871607 29 54 C29.5099099 59.58393133 29.73870063 64.44052088 27.3125 69.5625 C23.11269797 73.98931835 19.37511538 75.65525323 13.33984375 76.1171875 C9.22696482 75.91120024 6.19617163 74.56810297 3 72 C-0.23969884 68.05315877 -2.17131693 63.73645391 -4 59 C-4.26103516 59.50225098 -4.52207031 60.00450195 -4.79101562 60.52197266 C-7.83213751 66.36321685 -10.9022697 72.18857467 -14 78 C-14.3515918 78.66 -14.70318359 79.32 -15.06542969 80 C-23.27866765 95.27109689 -33.53098363 109.03879693 -45 122 C-45.75925781 122.87011719 -46.51851563 123.74023438 -47.30078125 124.63671875 C-56.13549369 134.6326545 -65.46081199 143.81186162 -76 152 C-76.56783203 152.44956055 -77.13566406 152.89912109 -77.72070312 153.36230469 C-115.40976827 183.13061978 -164.48630169 204.24716745 -213.0234375 204.3359375 C-214.32664948 204.3425943 -215.62986145 204.3492511 -216.9725647 204.35610962 C-219.71725779 204.36798183 -222.46182608 204.37180149 -225.20654297 204.37060547 C-227.96787998 204.3704439 -230.7285466 204.38419142 -233.48974609 204.41162109 C-250.6951094 204.57980121 -267.16351294 203.82428069 -284 200 C-285.22605957 199.72816895 -286.45211914 199.45633789 -287.71533203 199.17626953 C-290.62810368 198.47941022 -293.4990366 197.70975839 -296.375 196.875 C-297.39625977 196.58206055 -298.41751953 196.28912109 -299.46972656 195.98730469 C-334.35167889 185.63255821 -366.82230155 167.9163605 -393.609375 143.203125 C-395.20415551 141.73342532 -396.8190649 140.28527458 -398.453125 138.859375 C-429.94416381 111.32947315 -451.74038522 72.94571699 -464.625 33.5625 C-464.96805176 32.52665771 -465.31110352 31.49081543 -465.66455078 30.42358398 C-467.79887468 23.63078398 -469.32141564 17.74401097 -466.875 10.8125 C-464.05299253 6.57948879 -460.92271008 3.64090336 -456 2 C-450.90242182 1.50023743 -447.43522492 2.36064031 -442.89453125 4.44140625 C-437.53419518 8.85124974 -436.03085352 15.71307206 -434.3125 22.125 C-419.55169228 73.85761237 -383.45270144 118.30555528 -337 145 C-335.84105225 145.66878174 -335.84105225 145.66878174 -334.65869141 146.35107422 C-285.67310401 174.22437101 -227.65736395 180.71569118 -173.34814453 166.29589844 C-167.8200489 164.74568609 -162.39531742 162.96060678 -157 161 C-156.31099609 160.75056641 -155.62199219 160.50113281 -154.91210938 160.24414062 C-129.59336827 150.8730747 -107.09870561 136.89970848 -87 119 C-86.48066895 118.54238281 -85.96133789 118.08476562 -85.42626953 117.61328125 C-63.9932812 98.67959282 -43.17718869 72.53156608 -34 45 C-34.83402344 45.37253906 -35.66804688 45.74507813 -36.52734375 46.12890625 C-48.92937689 51.34259028 -48.92937689 51.34259028 -56 49 C-60.8920654 46.5539673 -63.26515642 44.20453074 -65 39 C-65.64923236 34.07865842 -65.56278921 30.24282617 -63.5 25.6875 C-58.34310055 20.14383309 -51.54856534 17.14820078 -44.625 14.3359375 C-43.85623535 14.01718658 -43.0874707 13.69843567 -42.29541016 13.37002563 C-39.86632371 12.36494488 -37.43323995 11.3699764 -35 10.375 C-33.3695312 9.70115072 -31.73932062 9.0266763 -30.109375 8.3515625 C-7.03827261 -1.17522177 -7.03827261 -1.17522177 0 0 Z " fill="#558FCF" transform="translate(483,308)"/>
<path d="M0 0 C1.44566345 0.00081573 1.44566345 0.00081573 2.92053223 0.00164795 C18.81036065 0.04272137 34.04482204 1.02162509 49.625 4.375 C50.64352051 4.58930664 51.66204102 4.80361328 52.71142578 5.02441406 C89.00975944 12.86745706 122.29162726 28.690759 151.625 51.375 C152.553125 52.08914062 153.48125 52.80328125 154.4375 53.5390625 C166.36449181 63.01676135 177.88491418 73.64750696 187.625 85.375 C188.03492188 85.86726074 188.44484375 86.35952148 188.8671875 86.86669922 C209.74632322 112.13941047 225.06609202 140.68428512 235.25 171.8125 C235.59305176 172.84834229 235.93610352 173.88418457 236.28955078 174.95141602 C238.42387468 181.74421602 239.94641564 187.63098903 237.5 194.5625 C234.67799253 198.79551121 231.54771008 201.73409664 226.625 203.375 C221.52742182 203.87476257 218.06022492 203.01435969 213.51953125 200.93359375 C208.15919518 196.52375026 206.65585352 189.66192794 204.9375 183.25 C195.76893115 151.11666235 178.43123658 122.62551961 155.625 98.375 C155.1005127 97.81651367 154.57602539 97.25802734 154.03564453 96.68261719 C140.29414597 82.17228159 124.94355973 70.32725942 107.625 60.375 C106.46605225 59.70621826 106.46605225 59.70621826 105.28369141 59.02392578 C56.63981886 31.34506821 -1.0929918 24.6856037 -55.06835938 38.75024414 C-81.88978519 46.12448974 -107.30891462 58.39210476 -129.375 75.375 C-130.35210937 76.12136719 -131.32921875 76.86773437 -132.3359375 77.63671875 C-154.50445501 95.22200903 -171.91744831 116.0778698 -186 140.5625 C-186.50917969 141.44752197 -187.01835937 142.33254395 -187.54296875 143.24438477 C-189.95678725 147.53557198 -192.04649712 151.60020434 -193.375 156.375 C-192.41400391 155.941875 -192.41400391 155.941875 -191.43359375 155.5 C-185.56483462 152.98106911 -180.67245022 150.92897705 -174.30859375 153.0703125 C-169.48493132 155.18455128 -166.53810212 157.41789097 -164.375 162.375 C-163.61593043 167.68058003 -163.69357925 171.93353303 -166 176.8125 C-170.77442565 181.96385399 -176.62513134 184.53227416 -182.9921875 187.16015625 C-183.80817413 187.50251816 -184.62416077 187.84488007 -185.46487427 188.19761658 C-188.05749537 189.28347856 -190.6537192 190.36042236 -193.25 191.4375 C-194.98590504 192.16416923 -196.72158438 192.89137786 -198.45703125 193.61914062 C-200.13521466 194.32079585 -201.8135938 195.02198315 -203.4921875 195.72265625 C-204.2632785 196.04460464 -205.03436951 196.36655304 -205.8288269 196.69825745 C-223.59071659 204.06357062 -223.59071659 204.06357062 -231.5625 201.25 C-237.64840567 197.19272955 -240.37110987 191.85431885 -243.00390625 185.265625 C-243.32028549 184.4987738 -243.63666473 183.73192261 -243.96263123 182.9418335 C-244.96440263 180.50690351 -245.95111171 178.06619622 -246.9375 175.625 C-247.60253585 174.0022023 -248.26854353 172.37980251 -248.93554688 170.7578125 C-250.20702189 167.66102615 -251.46875461 164.5605878 -252.72119141 161.45605469 C-253.699703 159.03095999 -254.69496202 156.61732434 -255.71240234 154.20800781 C-258.28990727 148.06103171 -259.38713793 143.06987071 -258.375 136.375 C-256.25693186 131.52109386 -253.32745744 129.11245312 -248.58984375 127.00390625 C-243.42801139 125.53820076 -239.03538258 126.69131305 -234.1875 128.6875 C-229.88630298 132.79753271 -227.62105744 137.9111865 -225.375 143.375 C-225.375 144.035 -225.375 144.695 -225.375 145.375 C-224.715 145.375 -224.055 145.375 -223.375 145.375 C-223.00246094 144.116875 -222.62992188 142.85875 -222.24609375 141.5625 C-220.31110373 135.77899217 -217.46612053 130.64994385 -214.4375 125.375 C-213.86338379 124.36969238 -213.28926758 123.36438477 -212.69775391 122.32861328 C-204.55249498 108.27496901 -195.12631635 95.52512604 -184.375 83.375 C-183.61574219 82.50488281 -182.85648437 81.63476562 -182.07421875 80.73828125 C-173.23950631 70.7423455 -163.91418801 61.56313838 -153.375 53.375 C-152.80716797 52.92543945 -152.23933594 52.47587891 -151.65429688 52.01269531 C-108.23928708 17.72180255 -55.13024056 -0.11768282 0 0 Z " fill="#558FCF" transform="translate(258.375,0.625)"/>
</svg>
