<?xml version="1.0" encoding="UTF-8"?>
<svg version="1.1" xmlns="http://www.w3.org/2000/svg" width="512" height="512">
<path d="M0 0 C4.448415 0.62463512 8.11033596 2.34449409 12.0625 4.375 C12.74860352 4.72369141 13.43470703 5.07238281 14.14160156 5.43164062 C27.50425196 12.28275429 40.73373769 19.30578111 53 28 C54.1143842 28.7763276 55.22897751 29.55235508 56.34375 30.328125 C74.49187506 43.04293705 91.48490056 57.10816314 107.09741211 72.83666992 C108.82248477 74.57254731 110.55811991 76.2973509 112.29492188 78.02148438 C118.98877613 84.70743941 125.12604386 91.57472697 131 99 C131.87458793 100.03971679 132.75471343 101.07484964 133.64453125 102.1015625 C165.06581625 138.67480594 185.27114249 183.23772957 183 232 C180.19372347 267.55294784 162.08277798 302.06983148 135.20703125 325.37890625 C118.69108742 339.14814907 96.79528934 351.01601403 75 352 C75.804375 351.0925 76.60875 350.185 77.4375 349.25 C78.63192808 347.83916966 79.81850354 346.42167746 81 345 C81.69996094 344.16210938 82.39992188 343.32421875 83.12109375 342.4609375 C100.69788538 320.34525168 104.79761649 294.80138827 101.67041016 267.078125 C100.83938863 261.60411232 99.54304621 256.31250605 98 251 C97.49146484 249.14375 97.49146484 249.14375 96.97265625 247.25 C90.56439291 226.08676734 79.35643597 206.73138542 65 190 C63.80503906 188.58654297 63.80503906 188.58654297 62.5859375 187.14453125 C55.48694915 178.9613822 46.77498069 169.88749035 37 165 C37.01571045 165.74459473 37.0314209 166.48918945 37.04760742 167.25634766 C37.51859978 192.96020918 34.22687583 211.03032745 19.625 232.375 C4.3292238 254.79450997 -6.04609302 278.00721424 -0.97436523 305.80712891 C2.55925983 322.60776107 11.16875307 338.01905978 23.75 349.7578125 C24.1625 350.16773438 24.575 350.57765625 25 351 C25 351.33 25 351.66 25 352 C-3.30895148 351.08680802 -29.83673432 332.06528805 -48.58984375 312.265625 C-71.90225754 285.60182155 -85.11675029 248.72311405 -83.16845703 213.25439453 C-82.15303611 199.66541367 -79.69273227 186.78744528 -75 174 C-74.33677734 172.13988281 -74.33677734 172.13988281 -73.66015625 170.2421875 C-64.29839056 145.39849906 -47.4030559 124.20410396 -31.41796875 103.30859375 C-19.71313747 87.90733079 -9.03648631 71.50922624 -3 53 C-2.59007812 51.78570312 -2.18015625 50.57140625 -1.7578125 49.3203125 C2.85141944 34.04850603 2.85172763 15.62654004 0 0 Z " fill="#558FCF" transform="translate(206,80)"/>
</svg>
