<?xml version="1.0" encoding="UTF-8"?>
<svg version="1.1" xmlns="http://www.w3.org/2000/svg" width="512" height="512">
<path d="M0 0 C1.6004379 -0.00668677 1.6004379 -0.00668677 3.23320788 -0.01350862 C4.99785993 -0.01323207 4.99785993 -0.01323207 6.79816151 -0.01294994 C8.66789016 -0.01846498 8.66789016 -0.01846498 10.57539111 -0.02409142 C14.04205135 -0.03411438 17.50869427 -0.03782869 20.97536695 -0.04048073 C24.71170595 -0.04438291 28.44803122 -0.05396132 32.18436146 -0.0626936 C41.21103295 -0.08246055 50.23770557 -0.09252455 59.2643933 -0.10142139 C63.51463136 -0.10580395 67.76486817 -0.11117084 72.01510525 -0.11641026 C86.14290801 -0.13342284 100.27070999 -0.14791716 114.39852142 -0.155159 C118.0651668 -0.15706891 121.73181217 -0.15898924 125.39845753 -0.16094494 C126.76545723 -0.16167055 126.76545723 -0.16167055 128.16007308 -0.16241082 C142.92406305 -0.17071165 157.68797202 -0.19604932 172.45192661 -0.22852562 C187.60778817 -0.26159234 202.76360855 -0.27960741 217.91950637 -0.28280324 C226.42978552 -0.2849687 234.93994654 -0.29372269 243.45019054 -0.31926441 C250.69775713 -0.34096615 257.9451769 -0.34902446 265.19277229 -0.33929763 C268.89001051 -0.33475135 272.58694578 -0.33665786 276.28414249 -0.35605907 C280.29480686 -0.37692326 284.3047987 -0.36671064 288.31549549 -0.35352612 C289.48077658 -0.36449536 290.64605767 -0.37546461 291.8466503 -0.38676625 C299.49223217 -0.32601989 304.99479576 0.68964143 310.89308643 5.92670155 C311.36770313 6.52885487 311.84231983 7.13100819 312.33131886 7.75140858 C312.88054005 8.43340321 313.42976124 9.11539783 313.9956255 9.81805897 C314.55370899 10.54114246 315.11179249 11.26422596 315.68678761 12.00922108 C316.28934376 12.76517567 316.89189991 13.52113026 317.51271534 14.29999256 C319.31453882 16.56698724 321.09618554 18.84859788 322.87428761 21.13422108 C323.83692039 22.35759305 324.80039189 23.58030577 325.76491261 24.80218983 C327.09846701 26.49407373 328.42964891 28.18755883 329.75368214 29.88690662 C333.28850626 34.42177358 336.91785313 38.87430874 340.56178761 43.32172108 C355.99577428 62.19858678 355.99577428 62.19858678 356.31178761 69.69672108 C356.37237354 70.68801014 356.43295948 71.6792992 356.49538136 72.70062733 C355.04475818 80.72011019 348.3185117 87.24061004 343.18678761 93.32172108 C341.94333209 94.81285209 340.70115981 96.30505406 339.46022511 97.79828358 C338.85146534 98.53079334 338.24270557 99.26330311 337.61549854 100.01801014 C335.13020634 103.03855316 332.71430775 106.11018721 330.31178761 109.19672108 C324.72185775 116.37095143 319.00926982 123.44571468 313.21852589 130.45892811 C312.06414642 131.89760444 310.98966476 133.39974792 309.93288136 134.91156483 C306.60332735 138.50647229 303.02509856 139.90946982 298.23035729 140.41050136 C294.97319957 140.52444425 291.7285367 140.53871764 288.46939564 140.52190113 C287.21949217 140.52728667 285.9695887 140.53267221 284.68180937 140.53822094 C281.22411287 140.55265221 277.76665521 140.5484382 274.30894578 140.54105413 C270.57538859 140.536319 266.84188282 140.54883533 263.10834217 140.55907154 C255.79865189 140.57625796 248.48904758 140.57709991 241.17934234 140.57185864 C235.23753969 140.56781552 229.29576243 140.56926218 223.35396099 140.5746069 C222.50795866 140.57535532 221.66195634 140.57610374 220.79031758 140.57687484 C219.07161216 140.57840633 217.35290675 140.57994468 215.63420134 140.58148981 C199.52065063 140.5952142 183.40714848 140.58977752 167.29359888 140.5783046 C152.55571981 140.56837158 137.81796627 140.58131416 123.08010656 140.60523879 C107.94218714 140.62962746 92.80432618 140.63923827 77.6663875 140.63258606 C69.16959573 140.62909341 60.67290052 140.63132894 52.17612362 140.64883709 C44.94327653 140.66355614 37.71059399 140.66419841 30.47775013 140.64676618 C26.78859689 140.63825141 23.09973765 140.63611798 19.41059971 140.65141773 C15.40888237 140.6678082 11.40787486 140.65312345 7.40616322 140.63542652 C6.24361061 140.64503153 5.081058 140.65463653 3.88327652 140.6645326 C-2.55076508 140.6059305 -7.84600804 140.07985467 -13.12571239 136.13422108 C-16.66966464 131.68156313 -18.24371631 128.14734444 -18.27288342 122.49940968 C-18.28003872 121.5476334 -18.28719402 120.59585712 -18.29456615 119.61523914 C-18.29725506 118.57260914 -18.29994396 117.52997913 -18.30271435 116.45575428 C-18.30928555 115.3562595 -18.31585674 114.25676472 -18.32262707 113.12395191 C-18.34237138 109.47763472 -18.35402569 105.83135874 -18.36399364 102.18500233 C-18.36806917 100.94002665 -18.3721447 99.69505096 -18.37634373 98.41234875 C-18.39505803 92.50167437 -18.40962197 86.59101309 -18.4179557 80.68031627 C-18.4277179 73.86976842 -18.45401189 67.05954647 -18.49445659 60.24911338 C-18.52833083 54.3411398 -18.54010699 48.43324544 -18.54415989 42.52517223 C-18.54902913 40.01699267 -18.56065262 37.50881668 -18.57919788 35.00070095 C-18.60356374 31.48675775 -18.6026283 27.97366248 -18.5956831 24.45966053 C-18.60849316 23.42715168 -18.62130322 22.39464283 -18.63450146 21.33084583 C-18.59012291 15.1578516 -17.8283406 10.21972462 -14.12571239 5.13422108 C-9.46687797 1.42616919 -5.88664042 0.01139368 0 0 Z " fill="#568FCF" transform="translate(44.125712394714355,345.86577892303467)"/>
<path d="M0 0 C0.90755092 -0.00438225 1.81510185 -0.00876451 2.75015432 -0.01327956 C5.8039227 -0.02667862 8.85766221 -0.03284892 11.91145325 -0.03897095 C14.09593334 -0.04687104 16.28041212 -0.05513993 18.46488953 -0.06375122 C25.64994559 -0.08998198 32.83500752 -0.10527986 40.02009583 -0.11953735 C42.49234331 -0.12489659 44.96459075 -0.1302741 47.43683815 -0.13566971 C57.71981774 -0.15729992 68.00279576 -0.17603707 78.28579235 -0.1872921 C80.95381868 -0.19023141 83.62184497 -0.19318339 86.28987122 -0.19619751 C87.28453937 -0.19731659 87.28453937 -0.19731659 88.29930184 -0.19845827 C99.03792135 -0.21110808 109.77637515 -0.24432677 120.51491722 -0.28599934 C131.54397473 -0.32844788 142.57294311 -0.35158304 153.60208112 -0.35721266 C159.79293762 -0.36086797 165.9835132 -0.37290892 172.17429161 -0.4053154 C177.99953246 -0.43537108 183.82432204 -0.44171648 189.64962387 -0.42993164 C191.78614674 -0.4297107 193.92269039 -0.43803257 196.05914116 -0.45558548 C198.97974881 -0.4782723 201.89871942 -0.46998391 204.81933594 -0.45410156 C205.66166832 -0.46798365 206.5040007 -0.48186574 207.3718583 -0.49616849 C213.45700849 -0.41482592 217.49671115 1.32614519 222.22712708 5.15390015 C224.15491852 7.14031458 225.79494229 9.22395682 227.41462708 11.46640015 C228.3544306 12.71370312 229.29590684 13.95974709 230.23884583 15.2046814 C230.72401672 15.85130737 231.20918762 16.49793335 231.70906067 17.16415405 C234.30013527 20.56030362 237.01809776 23.85167027 239.72712708 27.15390015 C245.19357328 33.85319758 250.57811299 40.61098497 255.88777161 47.43515015 C257.28673565 49.23039384 258.69246216 51.02022377 260.09822083 52.81015015 C261.01653931 53.98696065 261.93452062 55.16403436 262.85212708 56.34140015 C263.49154236 57.15290527 263.49154236 57.15290527 264.14387512 57.98080444 C268.24646895 63.27368307 268.93543268 67.61817118 268.22712708 74.15390015 C265.78657271 81.12691263 260.99469493 86.18018748 256.21540833 91.6734314 C253.31405438 95.01970341 250.56759241 98.46856309 247.85212708 101.96640015 C243.26730733 107.85690762 238.59464649 113.66978922 233.86799622 119.44711304 C230.19135883 123.94446293 226.60220358 128.49834617 223.10603333 133.13827515 C219.56940418 136.93224737 216.23513678 139.34251091 210.99169159 139.65726471 C209.32930607 139.67915878 207.66654354 139.67920662 206.00410461 139.66183472 C204.62456596 139.67119466 204.62456596 139.67119466 203.21715784 139.68074369 C200.14014083 139.69667896 197.06391538 139.68406713 193.9868927 139.67147827 C191.77901752 139.67689914 189.57114596 139.68402159 187.36328125 139.69271851 C181.36953303 139.71095883 175.37606011 139.70388123 169.38230705 139.69120216 C163.11104971 139.68107827 156.839816 139.69046615 150.56855774 139.69674683 C139.36222665 139.70449124 128.15600908 139.69205709 116.94970471 139.67170948 C106.79325609 139.65383891 96.63699036 139.65694317 86.48054504 139.67538452 C74.68035856 139.69680049 62.88026063 139.70475339 51.08005095 139.69293547 C44.83572212 139.68669789 38.59151923 139.68587231 32.34719849 139.69908142 C26.47678392 139.71063204 20.60671488 139.70262817 14.73633766 139.67950439 C12.58125698 139.67421315 10.42614725 139.67573814 8.27107811 139.68455505 C5.33037538 139.69547739 2.39078152 139.68178642 -0.54985046 139.66183472 C-1.40374406 139.6707576 -2.25763766 139.67968049 -3.13740683 139.68887377 C-8.49289768 139.61834049 -11.51125151 138.68589116 -15.77287292 135.15390015 C-19.50755166 131.01547235 -20.89143908 128.05815051 -20.92004395 122.51908875 C-20.92719925 121.56731247 -20.93435455 120.61553619 -20.94172668 119.63491821 C-20.94441559 118.59228821 -20.94710449 117.5496582 -20.94987488 116.47543335 C-20.95644608 115.37593857 -20.96301727 114.27644379 -20.9697876 113.14363098 C-20.98953191 109.49731378 -21.00118622 105.85103781 -21.01115417 102.2046814 C-21.0152297 100.95970572 -21.01930523 99.71473003 -21.02350426 98.43202782 C-21.04221856 92.52135344 -21.0567825 86.61069216 -21.06511623 80.69999534 C-21.07487843 73.88944749 -21.10117242 67.07922554 -21.14161712 60.26879245 C-21.17549136 54.36081887 -21.18726752 48.45292451 -21.19132042 42.5448513 C-21.19618966 40.03667174 -21.20781315 37.52849575 -21.22635841 35.02038002 C-21.25072427 31.50643682 -21.24978883 27.99334155 -21.24284363 24.4793396 C-21.25565369 23.44683075 -21.26846375 22.4143219 -21.28166199 21.3505249 C-21.23684265 15.11621651 -20.38839643 10.33846355 -16.77287292 5.15390015 C-11.48995238 0.12868305 -7.00499278 0.00408535 0 0 Z " fill="#568FCF" transform="translate(46.77287292480469,196.84609985351563)"/>
<path d="M0 0 C16.21336047 15.15094654 26.78161489 35.41969961 30.4375 57.3125 C30.54835938 57.96605469 30.65921875 58.61960937 30.7734375 59.29296875 C34.42971349 85.62803773 27.82506142 112.41824598 12.5625 134.125 C-4.24647459 155.92770879 -26.11196626 170.72852737 -53.5625 175.3125 C-54.21605469 175.42335937 -54.86960937 175.53421875 -55.54296875 175.6484375 C-81.87803773 179.30471349 -108.66824598 172.70006142 -130.375 157.4375 C-152.17770879 140.62852541 -166.97852737 118.76303374 -171.5625 91.3125 C-171.67335938 90.65894531 -171.78421875 90.00539063 -171.8984375 89.33203125 C-175.55471349 62.99696227 -168.95006142 36.20675402 -153.6875 14.5 C-136.87852541 -7.30270879 -115.01303374 -22.10352737 -87.5625 -26.6875 C-86.90894531 -26.79835938 -86.25539063 -26.90921875 -85.58203125 -27.0234375 C-53.65808117 -31.45565571 -24.00194004 -20.75028057 0 0 Z M-61.95605469 12.69165039 C-62.58882324 13.66606079 -62.58882324 13.66606079 -63.234375 14.66015625 C-63.97107422 15.76810547 -63.97107422 15.76810547 -64.72265625 16.8984375 C-65.24730469 17.71570313 -65.77195312 18.53296875 -66.3125 19.375 C-67.47262354 21.12718658 -68.6341439 22.87844893 -69.796875 24.62890625 C-70.40853516 25.55719238 -71.02019531 26.48547852 -71.65039062 27.44189453 C-74.87700766 32.28593987 -78.22450555 37.04485364 -81.5625 41.8125 C-87.06499658 49.70324435 -92.54139522 57.61073765 -97.94970703 65.56640625 C-100.54680807 69.384563 -103.16858027 73.18019682 -105.84765625 76.94140625 C-106.36803467 77.67818604 -106.88841309 78.41496582 -107.42456055 79.17407227 C-108.40843728 80.56470907 -109.4003905 81.94967877 -110.40161133 83.32788086 C-111.53427239 84.93658481 -112.55960658 86.61985288 -113.5625 88.3125 C-113.2325 89.3025 -112.9025 90.2925 -112.5625 91.3125 C-109.58890551 92.79929725 -106.89950821 92.42362605 -103.5859375 92.41015625 C-102.90069 92.4087413 -102.2154425 92.40732635 -101.50942993 92.40586853 C-99.31874239 92.40026675 -97.1281567 92.38771406 -94.9375 92.375 C-93.45312648 92.36998522 -91.96875135 92.36542228 -90.484375 92.36132812 C-86.84371685 92.35029677 -83.20311836 92.33303099 -79.5625 92.3125 C-79.739021 93.33085937 -79.91554199 94.34921875 -80.09741211 95.3984375 C-80.75716432 99.20752248 -81.4144592 103.0170282 -82.07104492 106.82666016 C-82.35456314 108.46967808 -82.63873133 110.11258399 -82.92358398 111.75537109 C-83.33491749 114.12828274 -83.74384561 116.5015988 -84.15234375 118.875 C-84.27842514 119.59929199 -84.40450653 120.32358398 -84.53440857 121.06982422 C-84.89087553 123.14872891 -85.22969187 125.22968786 -85.5625 127.3125 C-85.68795197 128.04968262 -85.81340393 128.78686523 -85.94265747 129.54638672 C-86.23605733 131.45710258 -86.40884778 133.38550504 -86.5625 135.3125 C-85.9025 135.9725 -85.2425 136.6325 -84.5625 137.3125 C-80.70957625 137.78144923 -80.70957625 137.78144923 -79.16894531 135.93334961 C-78.74709961 135.28374268 -78.32525391 134.63413574 -77.890625 133.96484375 C-77.39949219 133.22621094 -76.90835938 132.48757812 -76.40234375 131.7265625 C-75.87769531 130.90929687 -75.35304688 130.09203125 -74.8125 129.25 C-73.65237646 127.49781342 -72.4908561 125.74655107 -71.328125 123.99609375 C-70.71646484 123.06780762 -70.10480469 122.13952148 -69.47460938 121.18310547 C-66.24799449 116.33906336 -62.90060068 111.58006866 -59.5625 106.8125 C-54.02763224 98.87870438 -48.53290488 90.91946921 -43.1027832 82.91357422 C-40.63991413 79.29461689 -38.14482449 75.71416078 -35.53515625 72.19921875 C-35.06384277 71.56056885 -34.5925293 70.92191895 -34.10693359 70.26391602 C-33.23368337 69.08853191 -32.35059903 67.92035785 -31.45556641 66.76147461 C-29.03611939 63.50218174 -28.058858 61.38673823 -28.5625 57.3125 C-31.53609449 55.82570275 -34.22549179 56.20137395 -37.5390625 56.21484375 C-38.22431 56.2162587 -38.9095575 56.21767365 -39.61557007 56.21913147 C-41.80625761 56.22473325 -43.9968433 56.23728594 -46.1875 56.25 C-47.67187352 56.25501478 -49.15624865 56.25957772 -50.640625 56.26367188 C-54.28128315 56.27470323 -57.92188164 56.29196901 -61.5625 56.3125 C-61.385979 55.29414062 -61.20945801 54.27578125 -61.02758789 53.2265625 C-60.36783568 49.41747752 -59.7105408 45.6079718 -59.05395508 41.79833984 C-58.77043686 40.15532192 -58.48626867 38.51241601 -58.20141602 36.86962891 C-57.79008251 34.49671726 -57.38115439 32.1234012 -56.97265625 29.75 C-56.78353416 28.66356201 -56.78353416 28.66356201 -56.59059143 27.55517578 C-56.23412447 25.47627109 -55.89530813 23.39531214 -55.5625 21.3125 C-55.37432205 20.20672607 -55.37432205 20.20672607 -55.18234253 19.07861328 C-54.88894267 17.16789742 -54.71615222 15.23949496 -54.5625 13.3125 C-55.2225 12.6525 -55.8825 11.9925 -56.5625 11.3125 C-60.41542375 10.84355077 -60.41542375 10.84355077 -61.95605469 12.69165039 Z " fill="#558FCF" transform="translate(454.5625,53.6875)"/>
<path d="M0 0 C1.75798416 -0.0129007 1.75798416 -0.0129007 3.55148315 -0.02606201 C5.48246353 -0.03245193 5.48246353 -0.03245193 7.45245361 -0.03897095 C8.82083341 -0.04687397 10.18921113 -0.05514305 11.55758667 -0.06375122 C16.05279557 -0.08994852 20.54801368 -0.10527671 25.04327393 -0.11953735 C26.59182999 -0.12489801 28.140386 -0.13027552 29.68894196 -0.13566971 C36.13138904 -0.15729521 42.57383364 -0.17603122 49.01630783 -0.1872921 C58.24347085 -0.2035275 67.47021255 -0.23669868 76.69721675 -0.29369295 C83.18820345 -0.33241763 89.67907757 -0.35192776 96.17017674 -0.35721266 C100.04549449 -0.36086275 103.92036262 -0.3728467 107.79555511 -0.4053154 C111.44335203 -0.43544109 115.09042836 -0.44169246 118.73832321 -0.42993164 C120.70868434 -0.42960652 122.67900129 -0.45404236 124.64920044 -0.47930908 C131.94607653 -0.42801141 135.98967092 0.08639316 141.37139893 5.15390015 C143.20569201 7.23585001 144.85979184 9.24619673 146.49639893 11.46640015 C147.44545161 12.71361244 148.39603626 13.95966013 149.34796143 15.2046814 C149.8394165 15.85130737 150.33087158 16.49793335 150.83721924 17.16415405 C153.44730675 20.54929301 156.16268307 23.84756735 158.87139893 27.15390015 C164.79585136 34.4173453 170.63220244 41.74321981 176.37139893 49.15390015 C176.80532959 49.71158081 177.23926025 50.26926147 177.68634033 50.84384155 C178.94249276 52.46280897 180.18967997 54.08825077 181.43389893 55.71640015 C182.14675049 56.64581421 182.85960205 57.57522827 183.59405518 58.5328064 C186.89225053 63.39673844 187.96976726 67.26994485 187.37139893 73.15390015 C185.04200362 79.39541004 181.09952996 84.27774108 176.80889893 89.27890015 C175.54717891 90.77910704 174.28677768 92.28042399 173.02764893 93.7828064 C172.4063208 94.52160034 171.78499268 95.26039429 171.14483643 96.02157593 C168.63609499 99.03800595 166.21569224 102.11843205 163.80889893 105.21640015 C158.2286548 112.3718888 152.53852388 119.43460269 146.77520752 126.44345093 C145.57772554 127.90250462 144.38958976 129.36922068 143.20343018 130.8374939 C142.61948486 131.54003296 142.03553955 132.24257202 141.43389893 132.96640015 C140.73973877 133.81138062 140.73973877 133.81138062 140.03155518 134.6734314 C133.83497712 140.19932101 127.05363184 139.58019114 119.20928955 139.54208374 C117.86839878 139.54615256 116.52751136 139.55149618 115.18663025 139.55801392 C111.55644908 139.57165661 107.92652452 139.56640161 104.29633904 139.55687666 C100.49147746 139.5492642 96.68663737 139.55633007 92.8817749 139.56103516 C86.49302235 139.5664881 80.10437394 139.55931325 73.71563721 139.54501343 C66.33674285 139.52868774 58.95809719 139.53397658 51.57920885 139.55049264 C45.23592521 139.5641207 38.8927163 139.56602074 32.54942274 139.55817664 C28.76431675 139.55350735 24.97932754 139.55285469 21.19422913 139.5627861 C17.63512889 139.57147278 14.07634831 139.56540319 10.51728249 139.54810333 C8.5933488 139.54226532 6.66938798 139.55113954 4.74546814 139.56048584 C-5.87809328 139.48249533 -5.87809328 139.48249533 -10.62860107 136.15390015 C-14.84403112 131.70427954 -16.87408936 127.4011563 -16.88929749 121.26512146 C-16.89638229 120.30770554 -16.9034671 119.35028961 -16.9107666 118.36386108 C-16.90705048 116.80598877 -16.90705048 116.80598877 -16.90325928 115.21664429 C-16.90837021 114.11364487 -16.91348114 113.01064545 -16.91874695 111.8742218 C-16.932644 108.22911143 -16.93168611 104.5841901 -16.92938232 100.9390564 C-16.93326905 98.40466746 -16.93760367 95.87027917 -16.94236755 93.33589172 C-16.94982992 88.02398295 -16.94967661 82.71214353 -16.9442749 77.40023804 C-16.9382349 71.26820165 -16.95054919 65.1363947 -16.97184497 59.00439745 C-16.99160872 53.09532627 -16.99463195 47.18632597 -16.99110985 41.27721977 C-16.99162334 38.76740416 -16.99686629 36.2575849 -17.00692177 33.74778938 C-17.0192564 30.23852986 -17.01251189 26.72980154 -17.00091553 23.22055054 C-17.00855927 22.18399323 -17.016203 21.14743591 -17.02407837 20.07946777 C-16.97271709 13.04828167 -15.91847742 8.73001104 -11.12860107 3.34140015 C-7.45288848 0.12515163 -4.71635298 0.02575171 0 0 Z " fill="#568ECF" transform="translate(42.62860107421875,47.846099853515625)"/>
</svg>
