<?xml version="1.0" encoding="UTF-8"?>
<svg version="1.1" xmlns="http://www.w3.org/2000/svg" width="512" height="512">
<path d="M0 0 C2.81248601 1.38547944 4.69613939 3.38126275 6.91383755 5.58966875 C7.41207065 6.08181075 7.91030375 6.57395275 8.42363483 7.08100814 C10.09292184 8.73363253 11.75128001 10.39680383 13.40985501 12.06017351 C14.6035642 13.24654447 15.79789525 14.43229001 16.99280179 15.61745501 C20.23726108 18.83966841 23.47198347 22.07149141 26.70438993 25.30579066 C29.40090117 28.00242141 32.10173657 30.69470084 34.80247432 33.38709754 C41.17069707 39.73607662 47.53070019 46.09320968 53.88592923 52.45519304 C60.45061424 59.02652604 67.02993315 65.58294485 73.61644453 72.13239461 C79.26534562 77.75065576 84.90459326 83.37847992 90.53624469 89.01403159 C93.90243656 92.38229616 97.2723384 95.74663251 100.65174687 99.10164118 C103.82703724 102.25476019 106.99016193 105.41958686 110.14416897 108.5939908 C111.30609586 109.75934435 112.47233935 110.92041159 113.64307606 112.07691431 C115.23583553 113.65163156 116.81254083 115.24082389 118.38600552 116.83478594 C119.27402765 117.72209556 120.16204978 118.60940517 121.07698166 119.52360296 C122.83246243 121.90270281 122.83246243 121.90270281 122.73516524 123.73446691 C121.4535883 126.81273486 119.49917291 128.61493416 117.14469826 130.97357702 C116.65004931 131.47318549 116.15540037 131.97279395 115.64576206 132.48754206 C113.97614464 134.1701766 112.29598324 135.84187281 110.61571133 137.51386309 C109.40849777 138.72596262 108.2019366 139.93871222 106.99597496 141.15205735 C103.67207039 144.49242128 100.33880008 147.82330164 97.00393701 151.15272033 C93.4122595 154.74173508 89.82918435 158.33932023 86.24496853 161.93578386 C79.21912181 168.98271734 72.18500544 176.02134 65.14771792 183.0568466 C59.43083942 188.77241932 53.71651665 194.49053488 48.00401127 200.21047831 C46.36080807 201.85578061 44.71760411 203.50108217 43.07439941 205.14638299 C42.25663569 205.96519024 41.43887196 206.78399749 40.59632752 207.62761708 C25.11957852 223.12328088 9.63285062 238.60894209 -5.85676619 254.09174147 C-20.04272766 268.27212409 -34.21543397 282.46567165 -48.38204644 296.66538218 C-62.91363727 311.23066123 -77.45443888 325.78668621 -92.00519806 340.33281678 C-100.1801812 348.50555061 -108.35134034 356.68202501 -116.51277721 364.86828852 C-123.45927854 371.83573991 -130.4143315 378.79451048 -137.38079409 385.7420058 C-140.937956 389.28997176 -144.4908928 392.84192152 -148.03317821 396.40474558 C-151.27144135 399.66157722 -154.52086919 402.90680284 -157.77986386 406.14288541 C-158.96125964 407.32005955 -160.1383842 408.50153785 -161.31091992 409.68753741 C-162.89684343 411.29043494 -164.49714647 412.87737898 -166.10224998 414.4610343 C-166.99025348 415.34931018 -167.87825698 416.23758607 -168.79316968 417.1527794 C-171.16753757 418.90270281 -171.16753757 418.90270281 -173.33507514 418.80540562 C-176.14756115 417.41992618 -178.03121453 415.42414287 -180.24891269 413.21573687 C-180.74714579 412.72359487 -181.24537889 412.23145287 -181.75870997 411.72439748 C-183.42799698 410.07177309 -185.08635515 408.40860179 -186.74493015 406.74523211 C-187.93863934 405.55886115 -189.13297039 404.37311561 -190.32787693 403.18795061 C-193.57233622 399.96573721 -196.80705861 396.7339142 -200.03946507 393.49961495 C-202.73597631 390.8029842 -205.43681171 388.11070477 -208.13754946 385.41830808 C-214.50577221 379.069329 -220.86577533 372.71219594 -227.22100437 366.35021257 C-233.78568938 359.77887957 -240.36500829 353.22246077 -246.95151967 346.673011 C-252.60042076 341.05474986 -258.2396684 335.4269257 -263.87131983 329.79137403 C-267.2375117 326.42310945 -270.60741354 323.05877311 -273.98682201 319.70376444 C-277.16211238 316.55064543 -280.32523707 313.38581876 -283.47924411 310.21141481 C-284.641171 309.04606126 -285.80741449 307.88499402 -286.9781512 306.72849131 C-288.57091067 305.15377405 -290.14761597 303.56458173 -291.72108066 301.97061968 C-292.60910279 301.08331006 -293.49712492 300.19600044 -294.4120568 299.28180265 C-296.16753757 296.90270281 -296.16753757 296.90270281 -296.07024038 295.07093871 C-294.78866344 291.99267076 -292.83424805 290.19047145 -290.4797734 287.83182859 C-289.98512445 287.33222013 -289.49047551 286.83261167 -288.9808372 286.31786355 C-287.31121978 284.63522902 -285.63105838 282.96353281 -283.95078647 281.29154253 C-282.74357291 280.07944299 -281.53701174 278.86669339 -280.3310501 277.65334827 C-277.00714553 274.31298433 -273.67387522 270.98210397 -270.33901215 267.65268528 C-266.74733464 264.06367054 -263.16425949 260.46608539 -259.58004367 256.86962175 C-252.55419695 249.82268828 -245.52008058 242.78406562 -238.48279306 235.74855902 C-232.76591456 230.03298629 -227.05159179 224.31487073 -221.33908641 218.59492731 C-219.69588321 216.949625 -218.05267925 215.30432345 -216.40947455 213.65902263 C-215.59171083 212.84021538 -214.7739471 212.02140813 -213.93140266 211.17778853 C-198.45465366 195.68212474 -182.96792576 180.19646352 -167.47830895 164.71366415 C-153.29234748 150.53328153 -139.11964117 136.33973397 -124.9530287 122.14002343 C-110.42143787 107.57474439 -95.88063626 93.01871941 -81.32987708 78.47258884 C-73.15489394 70.299855 -64.9837348 62.12338061 -56.82229793 53.9371171 C-49.8757966 46.96966571 -42.92074364 40.01089514 -35.95428105 33.06339981 C-32.39711914 29.51543386 -28.84418234 25.9634841 -25.30189693 22.40066004 C-22.06363379 19.1438284 -18.81420595 15.89860278 -15.55521128 12.66252021 C-14.3738155 11.48534607 -13.19669094 10.30386777 -12.02415522 9.11786821 C-10.43823171 7.51497068 -8.83792867 5.92802664 -7.23282516 4.34437132 C-6.34482166 3.45609544 -5.45681816 2.56781955 -4.54190546 1.65262622 C-2.16753757 -0.09729719 -2.16753757 -0.09729719 0 0 Z " fill="#568ECF" transform="translate(334.1675375699997,55.09729719161987)"/>
<path d="M0 0 C8.79723113 5.7319821 16.088921 12.62935959 23.45703125 20.0234375 C24.61485017 21.1766807 25.77303537 22.32955627 26.93156433 23.48208618 C29.34083852 25.88249502 31.74445479 28.28839513 34.14428711 30.69824219 C37.19959629 33.76506584 40.27052969 36.81569053 43.34611988 39.86215782 C45.73573619 42.23331965 48.11585606 44.61384227 50.49341393 46.99708939 C51.62130675 48.12513411 52.75224764 49.25014073 53.88645363 50.37183762 C61.71550675 58.12658454 68.36421424 65.90421573 72.3125 76.375 C72.77076172 77.56222656 72.77076172 77.56222656 73.23828125 78.7734375 C77.44941961 91.08291886 76.40136786 107.31311181 71 119 C64.19583664 132.29400396 52.53567221 142.64773408 42 153 C38.20752833 151.42727345 35.8081212 149.05461108 32.925354 146.16586304 C32.42782647 145.67004435 31.93029893 145.17422567 31.41769481 144.66338217 C29.75316647 143.00214591 28.09588342 141.33386648 26.43847656 139.66552734 C25.2462131 138.47269971 24.05350901 137.28031236 22.86039734 136.08833313 C19.6227726 132.85128266 16.39135519 129.60809883 13.16100407 126.36379194 C9.78398563 122.97427858 6.40130988 119.59042088 3.01922607 116.20596313 C-3.38432149 109.79619717 -9.78275334 103.3813496 -16.17937016 96.96466792 C-23.46195784 89.65973247 -30.75021929 82.36046917 -38.03896666 75.06168056 C-53.03230674 60.04743031 -68.01849505 45.02605898 -83 30 C-80.50654989 24.76059149 -76.58148382 21.25247296 -72.5 17.1875 C-71.73429687 16.40568359 -70.96859375 15.62386719 -70.1796875 14.81835938 C-63.23823133 7.87109931 -55.86960268 1.71874635 -46.625 -1.875 C-45.64789063 -2.26429687 -44.67078125 -2.65359375 -43.6640625 -3.0546875 C-30.58529035 -7.69554213 -12.14370056 -6.89360005 0 0 Z " fill="#558FCF" transform="translate(437,5)"/>
<path d="M0 0 C3.61517406 1.53040335 5.93007919 3.67867049 8.69500732 6.44104004 C9.15169934 6.89461207 9.60839135 7.3481841 10.07892251 7.81550074 C11.60525484 9.33386698 13.12435195 10.85926837 14.64355469 12.38476562 C15.73731262 13.47581316 16.8314955 14.56643483 17.92607117 15.65666199 C20.89531267 18.61678523 23.85819242 21.58320063 26.81970501 24.551054 C29.91703426 27.65344356 33.01923647 30.75095416 36.1206665 33.84924316 C41.32607395 39.05101215 46.52725 44.25698413 51.72607422 49.46533203 C57.74357937 55.49373291 63.76827125 61.51487942 69.79672503 67.53233004 C74.96817163 72.69471398 80.13572713 77.86096862 85.30002332 83.03050566 C88.38645163 86.12005784 91.47422917 89.20822894 94.56551361 92.29292297 C97.46907365 95.19072462 100.36773363 98.09333867 103.2626133 100.99981117 C104.3283809 102.06823296 105.39587203 103.13493856 106.46516228 104.19983482 C107.91902261 105.64826859 109.36617951 107.10342184 110.81292725 108.55895996 C111.62628414 109.37307091 112.43964104 110.18718185 113.27764511 111.02596283 C115 113 115 113 115 115 C100.36342206 117.75234929 85.72435614 120.49114835 71.08229542 123.21417999 C64.28258412 124.47906511 57.48372822 125.74824121 50.68676758 127.02783203 C44.12052377 128.26397541 37.55208113 129.48774137 30.98215294 130.70417786 C28.48294167 131.16896463 25.98448155 131.63781036 23.48682594 132.11088562 C19.97337869 132.77562362 16.4574746 133.42553805 12.94067383 134.07226562 C11.41180542 134.36681389 11.41180542 134.36681389 9.85205078 134.66731262 C-7.94796573 137.88629181 -7.94796573 137.88629181 -15.625 134.3125 C-18.84182144 131.18033175 -20.7996678 128.6172722 -21.36074066 124.08775806 C-21.23491595 116.56563035 -20.494655 109.44231377 -19.07226562 102.05932617 C-18.86744064 100.94552078 -18.66261566 99.83171539 -18.45158386 98.68415833 C-17.78078225 95.05162479 -17.09368982 91.42238685 -16.40625 87.79296875 C-15.93440959 85.25582926 -15.46360051 82.71849777 -14.99377441 80.1809845 C-13.88674473 74.21573465 -12.76943521 68.25249766 -11.6469655 62.29013664 C-10.36806555 55.4936224 -9.10256131 48.69463518 -7.83808994 41.89542425 C-5.24012642 27.92751362 -2.62563566 13.962734 0 0 Z " fill="#558FCE" transform="translate(21,376)"/>
</svg>
