<?xml version="1.0" encoding="UTF-8"?>
<svg version="1.1" xmlns="http://www.w3.org/2000/svg" width="512" height="512">
<path d="M0 0 C2.4958908 1.74656015 4.13931611 3.62531446 5.73046875 6.2109375 C5.73046875 7.2009375 5.73046875 8.1909375 5.73046875 9.2109375 C6.6740625 8.88609375 6.6740625 8.88609375 7.63671875 8.5546875 C13.19107224 6.74784962 17.89292608 5.4057592 23.73046875 6.2109375 C26.72144179 8.75326458 27.57249432 10.3684072 28.29296875 14.2109375 C27.73046875 17.2109375 27.73046875 17.2109375 22.73046875 22.2109375 C18.11046875 23.5309375 13.49046875 24.8509375 8.73046875 26.2109375 C8.73046875 128.5109375 8.73046875 230.8109375 8.73046875 336.2109375 C30.42442596 344.34609654 30.42442596 344.34609654 52.73046875 348.2109375 C52.73046875 237.9909375 52.73046875 127.7709375 52.73046875 14.2109375 C50.09046875 13.8809375 47.45046875 13.5509375 44.73046875 13.2109375 C41.74173583 10.5957962 40.86904187 9.05969784 40.23046875 5.1484375 C40.84079737 1.56275683 41.92060414 0.44230057 44.73046875 -1.7890625 C48.78211803 -3.81488714 53.72108459 -3.43656983 57.9609375 -2.0703125 C62.99329425 0.27119683 66.21040838 3.17081677 68.73046875 8.2109375 C74.26791061 7.09733041 79.63130996 5.68198587 85.0390625 4.046875 C85.69524567 3.84902405 86.35142883 3.6511731 87.02749634 3.44732666 C89.7627881 2.62158287 92.49737138 1.79438039 95.22583008 0.94628906 C114.7919438 -5.11572684 114.7919438 -5.11572684 122.54296875 -1.1640625 C126.80895588 2.01451614 130.00801711 5.04358259 131.73046875 10.2109375 C131.81912051 12.12812598 131.84808632 14.04829663 131.84399414 15.9675293 C131.84391861 17.14852707 131.84384308 18.32952484 131.84376526 19.54631042 C131.83860397 20.82137955 131.83344269 22.09644867 131.828125 23.41015625 C131.82600258 25.36813896 131.82600258 25.36813896 131.82383728 27.36567688 C131.82002255 30.83283406 131.81020119 34.29994924 131.7991333 37.76708984 C131.78889673 41.30630932 131.78433485 44.8455356 131.77929688 48.38476562 C131.76857798 55.32684015 131.75151409 62.26888681 131.73046875 69.2109375 C132.67728516 68.59025391 133.62410156 67.96957031 134.59960938 67.33007812 C135.86185085 66.50891731 137.12422785 65.68796479 138.38671875 64.8671875 C139.31919434 64.25472168 139.31919434 64.25472168 140.27050781 63.62988281 C151.64429194 56.25632723 163.38794725 53.47441537 176.89453125 55.7421875 C184.47537251 57.50785179 190.61048819 60.14942685 197.0859375 64.3984375 C197.99980225 64.99664307 197.99980225 64.99664307 198.93212891 65.60693359 C200.14315694 66.40676502 201.34770011 67.21653239 202.54443359 68.03759766 C209.95298509 72.98714057 217.29775832 74.12989613 226 72.88671875 C232.64552656 71.33278965 237.6072783 67.76453115 243.10717773 63.91674805 C249.55236082 59.47600461 256.15065901 57.04054675 263.73046875 55.2109375 C262.74304688 54.60765625 261.755625 54.004375 260.73828125 53.3828125 C259.44368844 52.57603727 258.1494352 51.76871695 256.85546875 50.9609375 C256.20449219 50.56519531 255.55351562 50.16945312 254.8828125 49.76171875 C248.78590506 45.92758108 248.78590506 45.92758108 247.73046875 42.2109375 C247.85961288 38.53032975 247.95187484 36.139261 250.35546875 33.2734375 C253.73936884 31.75958746 256.02984883 31.857423 259.73046875 32.2109375 C262.57600469 33.50419569 265.05300507 35.23004962 267.60546875 37.0234375 C269.0920061 38.02929909 270.57899975 39.0344866 272.06640625 40.0390625 C272.82791992 40.56048828 273.58943359 41.08191406 274.37402344 41.61914062 C276.7530603 43.22619827 279.15903599 44.7804468 281.58203125 46.3203125 C282.75016357 47.06317505 282.75016357 47.06317505 283.94189453 47.82104492 C285.44691382 48.77617184 286.95306855 49.72951237 288.46044922 50.6809082 C293.61925644 53.98851288 293.61925644 53.98851288 294.73046875 56.2109375 C295.80608044 64.12564682 292.58037031 68.60551381 288.23046875 75.0234375 C287.59206055 75.9937793 286.95365234 76.96412109 286.29589844 77.96386719 C275.16417511 94.77723114 275.16417511 94.77723114 270.73046875 99.2109375 C267.19424264 99.53836584 264.62351433 99.61045789 261.35546875 98.1484375 C258.84430755 95.15436068 258.78811482 93.11549777 258.73046875 89.2109375 C260.1673481 85.81451027 262.12714223 82.83591116 264.16796875 79.7734375 C264.69712891 78.94650391 265.22628906 78.11957031 265.77148438 77.26757812 C267.0743759 75.23694539 268.39387813 73.21948228 269.73046875 71.2109375 C261.90843355 73.34133149 261.90843355 73.34133149 254.73046875 77.0234375 C253.90804688 77.54164063 253.085625 78.05984375 252.23828125 78.59375 C251.41070312 79.12742187 250.583125 79.66109375 249.73046875 80.2109375 C236.29062319 88.66701054 223.61994492 92.61238217 207.66796875 89.0859375 C199.64494079 86.85499108 192.89064047 82.75071485 186.10546875 78.0234375 C178.85531226 73.11702609 171.47396296 71.07678893 162.73046875 72.2109375 C154.5128366 74.04796406 148.25671156 78.30231275 141.578125 83.1875 C135.91579694 87.2109375 135.91579694 87.2109375 131.73046875 87.2109375 C131.73046875 106.6809375 131.73046875 126.1509375 131.73046875 146.2109375 C136.35046875 143.2409375 140.97046875 140.2709375 145.73046875 137.2109375 C159.07474461 131.14535757 171.73588047 130.59954022 185.73046875 135.2109375 C189.83901338 136.76935098 193.42460672 138.99597356 197.0859375 141.3984375 C197.99980225 141.99664307 197.99980225 141.99664307 198.93212891 142.60693359 C200.14315694 143.40676502 201.34770011 144.21653239 202.54443359 145.03759766 C209.95298509 149.98714057 217.29775832 151.12989613 226 149.88671875 C232.64552656 148.33278965 237.6072783 144.76453115 243.10717773 140.91674805 C249.55236082 136.47600461 256.15065901 134.04054675 263.73046875 132.2109375 C262.74304688 131.60765625 261.755625 131.004375 260.73828125 130.3828125 C259.44368844 129.57603727 258.1494352 128.76871695 256.85546875 127.9609375 C256.20449219 127.56519531 255.55351562 127.16945312 254.8828125 126.76171875 C248.78590506 122.92758108 248.78590506 122.92758108 247.73046875 119.2109375 C247.85961288 115.53032975 247.95187484 113.139261 250.35546875 110.2734375 C253.73936884 108.75958746 256.02984883 108.857423 259.73046875 109.2109375 C262.57600469 110.50419569 265.05300507 112.23004962 267.60546875 114.0234375 C269.0920061 115.02929909 270.57899975 116.0344866 272.06640625 117.0390625 C272.82791992 117.56048828 273.58943359 118.08191406 274.37402344 118.61914062 C276.7530603 120.22619827 279.15903599 121.7804468 281.58203125 123.3203125 C282.36078613 123.8155542 283.13954102 124.3107959 283.94189453 124.82104492 C285.44691382 125.77617184 286.95306855 126.72951237 288.46044922 127.6809082 C293.61925644 130.98851288 293.61925644 130.98851288 294.73046875 133.2109375 C295.82019779 141.15425168 292.53600639 145.65115865 288.16796875 152.0859375 C287.2543457 153.48005859 287.2543457 153.48005859 286.32226562 154.90234375 C284.48471646 157.69075168 282.61538599 160.45436241 280.73046875 163.2109375 C280.09641113 164.14067383 279.46235352 165.07041016 278.80908203 166.02832031 C273.16204496 174.21436984 273.16204496 174.21436984 270.73046875 176.2109375 C267.15053743 176.60147546 264.66283921 176.6280506 261.35546875 175.1484375 C258.84430755 172.15436068 258.78811482 170.11549777 258.73046875 166.2109375 C260.1673481 162.81451027 262.12714223 159.83591116 264.16796875 156.7734375 C264.69712891 155.94650391 265.22628906 155.11957031 265.77148438 154.26757812 C267.0743759 152.23694539 268.39387813 150.21948228 269.73046875 148.2109375 C261.90843355 150.34133149 261.90843355 150.34133149 254.73046875 154.0234375 C253.90804688 154.54164063 253.085625 155.05984375 252.23828125 155.59375 C251.41070312 156.12742188 250.583125 156.66109375 249.73046875 157.2109375 C236.29062319 165.66701054 223.61994492 169.61238217 207.66796875 166.0859375 C199.64494079 163.85499108 192.89064047 159.75071485 186.10546875 155.0234375 C178.85531226 150.11702609 171.47396296 148.07678893 162.73046875 149.2109375 C154.5128366 151.04796406 148.25671156 155.30231275 141.578125 160.1875 C135.91579694 164.2109375 135.91579694 164.2109375 131.73046875 164.2109375 C131.73046875 183.6809375 131.73046875 203.1509375 131.73046875 223.2109375 C136.35046875 220.2409375 140.97046875 217.2709375 145.73046875 214.2109375 C159.07474461 208.14535757 171.73588047 207.59954022 185.73046875 212.2109375 C189.83901338 213.76935098 193.42460672 215.99597356 197.0859375 218.3984375 C197.99980225 218.99664307 197.99980225 218.99664307 198.93212891 219.60693359 C200.14315694 220.40676502 201.34770011 221.21653239 202.54443359 222.03759766 C209.45486667 226.65435507 216.50605112 228.13149087 224.73046875 227.2109375 C232.6041274 225.52801809 238.55646375 221.42021501 245.00878906 216.86816406 C250.9175849 212.81892775 256.72026602 210.79503053 263.73046875 209.2109375 C262.74304688 208.60765625 261.755625 208.004375 260.73828125 207.3828125 C259.44368844 206.57603727 258.1494352 205.76871695 256.85546875 204.9609375 C256.20449219 204.56519531 255.55351562 204.16945313 254.8828125 203.76171875 C248.78590506 199.92758108 248.78590506 199.92758108 247.73046875 196.2109375 C247.85961288 192.53032975 247.95187484 190.139261 250.35546875 187.2734375 C253.74353561 185.75772338 256.02426747 185.85384914 259.73046875 186.2109375 C262.61729466 187.52516628 265.13727383 189.26991725 267.73046875 191.0859375 C268.46088379 191.57900391 269.19129883 192.07207031 269.94384766 192.58007812 C271.45930902 193.60411804 272.97052763 194.63446348 274.47753906 195.67089844 C276.65760443 197.16112951 278.85611066 198.61757858 281.06640625 200.0625 C282.41286304 200.94515598 283.75922167 201.82796171 285.10546875 202.7109375 C285.729375 203.11940918 286.35328125 203.52788086 286.99609375 203.94873047 C288.59213821 205.00965669 290.16293827 206.10831763 291.73046875 207.2109375 C292.36210937 207.63375 292.99375 208.0565625 293.64453125 208.4921875 C295.64523202 211.65876425 295.49541472 214.69466536 294.73046875 218.2109375 C292.89367671 222.07701088 290.56864564 225.54937803 288.16796875 229.0859375 C287.2543457 230.48005859 287.2543457 230.48005859 286.32226562 231.90234375 C284.48471646 234.69075168 282.61538599 237.45436241 280.73046875 240.2109375 C280.09641113 241.14067383 279.46235352 242.07041016 278.80908203 243.02832031 C273.16204496 251.21436984 273.16204496 251.21436984 270.73046875 253.2109375 C267.15053743 253.60147546 264.66283921 253.6280506 261.35546875 252.1484375 C258.84430755 249.15436068 258.78811482 247.11549777 258.73046875 243.2109375 C260.1673481 239.81451027 262.12714223 236.83591116 264.16796875 233.7734375 C264.69712891 232.94650391 265.22628906 232.11957031 265.77148438 231.26757812 C267.0743759 229.23694539 268.39387813 227.21948228 269.73046875 225.2109375 C261.90843355 227.34133149 261.90843355 227.34133149 254.73046875 231.0234375 C253.90804688 231.54164063 253.085625 232.05984375 252.23828125 232.59375 C251.41070312 233.12742187 250.583125 233.66109375 249.73046875 234.2109375 C236.29062319 242.66701054 223.61994492 246.61238217 207.66796875 243.0859375 C199.64494079 240.85499108 192.89064047 236.75071485 186.10546875 232.0234375 C178.85531226 227.11702609 171.47396296 225.07678893 162.73046875 226.2109375 C154.5128366 228.04796406 148.25671156 232.30231275 141.578125 237.1875 C135.91579694 241.2109375 135.91579694 241.2109375 131.73046875 241.2109375 C131.75141602 241.76555664 131.77236328 242.32017578 131.79394531 242.89160156 C131.87730423 245.41452773 131.92918743 247.93716399 131.98046875 250.4609375 C132.03074219 251.76998047 132.03074219 251.76998047 132.08203125 253.10546875 C132.18049456 259.55481579 132.18049456 259.55481579 129.96484375 262.78515625 C127.64550894 264.26515137 126.45455137 264.77875797 123.73046875 264.7734375 C122.74046875 264.80630859 122.74046875 264.80630859 121.73046875 264.83984375 C118.4611894 263.81180864 117.52241873 262.104077 115.73046875 259.2109375 C115.13742692 255.91162689 115.18383345 252.65353302 115.21148682 249.30851746 C115.20023494 247.80140378 115.20023494 247.80140378 115.18875575 246.26384336 C115.168438 242.89337861 115.17658956 239.52358394 115.18457031 236.15307617 C115.17583756 233.73856947 115.16535283 231.32406855 115.15324402 228.90957642 C115.13111247 223.70945047 115.1211834 218.50945288 115.1223526 213.30928612 C115.12402197 205.7907606 115.10368594 198.27242096 115.0779973 190.75394503 C115.03691506 178.55545483 115.01360309 166.35699807 115.00146484 154.15844727 C114.98963638 142.30945624 114.96943973 130.46052816 114.93798828 118.61157227 C114.93508413 117.51582182 114.93508413 117.51582182 114.93212131 116.397935 C114.92235672 112.73319033 114.91242762 109.06844614 114.90241671 105.40370214 C114.81959312 75.00614218 114.76590439 44.6085918 114.73046875 14.2109375 C99.8233489 17.19236147 85.31506833 21.92134939 70.73046875 26.2109375 C70.73046875 128.5109375 70.73046875 230.8109375 70.73046875 336.2109375 C92.42442596 344.34609654 92.42442596 344.34609654 114.73046875 348.2109375 C114.74259903 347.00277374 114.74259903 347.00277374 114.75497437 345.77020264 C114.83293155 338.17777513 114.92022551 330.5855395 115.01799583 322.99334335 C115.06793094 319.09016216 115.11426112 315.18700766 115.15234375 311.28369141 C115.18923192 307.51641414 115.23560127 303.74936174 115.28853226 299.98227692 C115.30705748 298.54542233 115.32217238 297.10851957 115.33381271 295.67159271 C115.3507064 293.65824427 115.38087558 291.64502049 115.41162109 289.63183594 C115.42494476 288.48600037 115.43826843 287.34016479 115.45199585 286.15960693 C115.72404883 283.27891615 116.174444 281.62010528 117.73046875 279.2109375 C120.40679901 277.1293473 121.84800543 277.21506159 125.29296875 277.3359375 C128.73046875 278.2109375 128.73046875 278.2109375 130.43359375 279.6875 C132.41351333 283.53999413 132.04777395 287.20066417 131.91796875 291.4609375 C131.90443359 292.30140625 131.89089844 293.141875 131.87695312 294.0078125 C131.84170339 296.07579688 131.78789895 298.14345021 131.73046875 300.2109375 C132.62507812 299.60765625 133.5196875 299.004375 134.44140625 298.3828125 C147.92389705 289.41942516 160.29626002 283.95531727 176.89453125 286.7421875 C184.47537251 288.50785179 190.61048819 291.14942685 197.0859375 295.3984375 C197.99980225 295.99664307 197.99980225 295.99664307 198.93212891 296.60693359 C200.14315694 297.40676502 201.34770011 298.21653239 202.54443359 299.03759766 C209.45486667 303.65435507 216.50605112 305.13149087 224.73046875 304.2109375 C232.6041274 302.52801809 238.55646375 298.42021501 245.00878906 293.86816406 C250.9175849 289.81892775 256.72026602 287.79503053 263.73046875 286.2109375 C262.24933594 285.30601562 262.24933594 285.30601562 260.73828125 284.3828125 C259.44368844 283.57603727 258.1494352 282.76871695 256.85546875 281.9609375 C256.20449219 281.56519531 255.55351562 281.16945313 254.8828125 280.76171875 C248.78590506 276.92758108 248.78590506 276.92758108 247.73046875 273.2109375 C247.85961288 269.53032975 247.95187484 267.139261 250.35546875 264.2734375 C253.74353561 262.75772338 256.02426747 262.85384914 259.73046875 263.2109375 C262.61729466 264.52516628 265.13727383 266.26991725 267.73046875 268.0859375 C268.46088379 268.57900391 269.19129883 269.07207031 269.94384766 269.58007812 C271.45930902 270.60411804 272.97052763 271.63446348 274.47753906 272.67089844 C276.65760443 274.16112951 278.85611066 275.61757858 281.06640625 277.0625 C282.41286304 277.94515598 283.75922167 278.82796171 285.10546875 279.7109375 C285.729375 280.11940918 286.35328125 280.52788086 286.99609375 280.94873047 C288.59213821 282.00965669 290.16293827 283.10831763 291.73046875 284.2109375 C292.36210937 284.63375 292.99375 285.0565625 293.64453125 285.4921875 C295.64523202 288.65876425 295.49541472 291.69466536 294.73046875 295.2109375 C292.89367671 299.07701088 290.56864564 302.54937803 288.16796875 306.0859375 C287.55888672 307.01535156 286.94980469 307.94476563 286.32226562 308.90234375 C284.48471646 311.69075168 282.61538599 314.45436241 280.73046875 317.2109375 C280.09641113 318.14067383 279.46235352 319.07041016 278.80908203 320.02832031 C273.16204496 328.21436984 273.16204496 328.21436984 270.73046875 330.2109375 C267.15053743 330.60147546 264.66283921 330.6280506 261.35546875 329.1484375 C258.84430755 326.15436068 258.78811482 324.11549777 258.73046875 320.2109375 C260.1673481 316.81451027 262.12714223 313.83591116 264.16796875 310.7734375 C264.69712891 309.94650391 265.22628906 309.11957031 265.77148438 308.26757812 C267.0743759 306.23694539 268.39387813 304.21948228 269.73046875 302.2109375 C261.90843355 304.34133149 261.90843355 304.34133149 254.73046875 308.0234375 C253.90804688 308.54164063 253.085625 309.05984375 252.23828125 309.59375 C251.41070312 310.12742187 250.583125 310.66109375 249.73046875 311.2109375 C236.29062319 319.66701054 223.61994492 323.61238217 207.66796875 320.0859375 C199.64494079 317.85499108 192.89064047 313.75071485 186.10546875 309.0234375 C178.85531226 304.11702609 171.47396296 302.07678893 162.73046875 303.2109375 C154.5128366 305.04796406 148.25671156 309.30231275 141.578125 314.1875 C135.91579694 318.2109375 135.91579694 318.2109375 131.73046875 318.2109375 C131.75403442 319.70874756 131.75403442 319.70874756 131.77807617 321.23681641 C131.83259494 324.96036637 131.86689809 328.6838814 131.89526367 332.40771484 C131.91030051 334.01584822 131.93073547 335.62394094 131.95678711 337.23193359 C131.99339697 339.55055814 132.01024597 341.86863799 132.0234375 344.1875 C132.03892136 344.90024078 132.05440521 345.61298157 132.07035828 346.34732056 C132.07220961 351.90520001 130.80358796 355.96348781 127.01171875 360.07421875 C126.42390625 360.55246094 125.83609375 361.03070313 125.23046875 361.5234375 C124.64265625 362.01457031 124.05484375 362.50570313 123.44921875 363.01171875 C119.26013631 365.93455581 114.61444332 365.57374496 109.73046875 365.2109375 C106.63144602 364.61670353 103.65633796 363.73934162 100.64453125 362.8046875 C99.82093109 362.56053101 98.99733093 362.31637451 98.14877319 362.06481934 C95.54740999 361.29165225 92.95137482 360.50221331 90.35546875 359.7109375 C87.73737343 358.92257479 85.11829643 358.13771642 82.49789429 357.35705566 C80.87479549 356.87251038 79.25316057 356.38302767 77.63320923 355.88806152 C74.5675699 354.96512417 71.95108783 354.2109375 68.73046875 354.2109375 C68.13234375 355.1184375 67.53421875 356.0259375 66.91796875 356.9609375 C63.97202056 361.33777481 60.7098884 363.55113095 55.73046875 365.2109375 C49.24950404 365.62287827 43.94850465 364.43677525 37.76171875 362.5859375 C36.38034729 362.18640869 36.38034729 362.18640869 34.97106934 361.77880859 C32.05452767 360.93280211 29.14255603 360.07213698 26.23046875 359.2109375 C24.24377404 358.63183575 22.25679727 358.05370067 20.26953125 357.4765625 C15.41984277 356.06584921 10.57419531 354.64198086 5.73046875 353.2109375 C5.59898437 353.81808594 5.4675 354.42523438 5.33203125 355.05078125 C4.0892114 359.51363435 1.48460454 361.78211519 -2.45703125 364.0234375 C-12.86957538 367.26668895 -22.52318989 363.48879712 -32.5625 360.5390625 C-34.23898588 360.05465147 -35.91569175 359.57100119 -37.59260559 359.08807373 C-41.0938941 358.07683138 -44.59258214 357.05716166 -48.08959961 356.03125 C-52.56052853 354.7202556 -57.03699082 353.42946811 -61.51554394 352.14479446 C-64.97426476 351.15044961 -68.42998644 350.145998 -71.88488197 349.13845062 C-73.53416099 348.65866689 -75.18431048 348.18186455 -76.83534813 347.70816803 C-79.14488531 347.04377732 -81.45007438 346.36598077 -83.75463867 345.68457031 C-84.42958374 345.49323517 -85.10452881 345.30190002 -85.79992676 345.10476685 C-93.12287147 342.90563515 -97.80439603 339.20697622 -102.26953125 333.2109375 C-103.52405024 329.44738053 -103.36636239 325.95225461 -103.33984375 322.03515625 C-103.3484292 320.38605716 -103.35890557 318.73696703 -103.37109375 317.08789062 C-103.38777611 314.4935387 -103.39455822 311.90119002 -103.36914062 309.30688477 C-103.34811112 306.79839887 -103.37145952 304.29347341 -103.40234375 301.78515625 C-103.38495148 301.01620529 -103.3675592 300.24725433 -103.34963989 299.45500183 C-103.42472996 296.08178405 -103.56235507 294.02097278 -105.8321228 291.42106628 C-107.69043173 289.80169118 -107.69043173 289.80169118 -109.61999512 288.43295288 C-113.36263402 285.66031747 -114.75275803 280.97657933 -116.01953125 276.6484375 C-116.80394951 269.00035946 -115.59332404 263.13729279 -112.26953125 256.2109375 C-110.16731699 253.74980861 -108.15722579 251.91181024 -105.64024353 249.92454529 C-103.71528045 247.51803608 -103.89762147 245.85145411 -103.90063477 242.79321289 C-103.89375137 241.68518814 -103.88686798 240.57716339 -103.879776 239.43556213 C-103.8859343 238.23866257 -103.89209259 237.041763 -103.8984375 235.80859375 C-103.88105679 233.28450384 -103.86347239 230.76041533 -103.84570312 228.23632812 C-103.8356179 224.24872862 -103.83203644 220.26129356 -103.83374023 216.27368164 C-103.83017878 212.43087711 -103.80286579 208.58877399 -103.7734375 204.74609375 C-103.78162003 203.55121841 -103.78980255 202.35634308 -103.79823303 201.1252594 C-103.78819748 200.01408249 -103.77816193 198.90290558 -103.76782227 197.75805664 C-103.76798843 196.78115372 -103.7681546 195.80425079 -103.76832581 194.79774475 C-103.12976714 191.48610441 -101.85940562 190.29968346 -99.26953125 188.2109375 C-97.26953125 187.64453125 -97.26953125 187.64453125 -95.26953125 187.6484375 C-94.60953125 187.62652344 -93.94953125 187.60460937 -93.26953125 187.58203125 C-89.91650355 188.63640129 -89.06458888 190.18471952 -87.26953125 193.2109375 C-86.70777832 197.16715356 -86.80482717 201.08545778 -86.87890625 205.07421875 C-86.88456604 206.22133835 -86.89022583 207.36845795 -86.89605713 208.55033875 C-86.91841928 212.20846563 -86.96861798 215.86560744 -87.01953125 219.5234375 C-87.03959634 222.00584521 -87.05784709 224.4882683 -87.07421875 226.97070312 C-87.11828366 233.05111645 -87.18519531 239.13095659 -87.26953125 245.2109375 C-86.00189941 245.354104 -84.73426758 245.49727051 -83.42822266 245.64477539 C-77.93593835 246.26507469 -74.32566005 248.48408853 -70.26953125 252.2109375 C-64.8044237 259.3681704 -62.42102812 266.15479834 -63.26953125 275.2109375 C-64.60801369 282.74659365 -68.43780286 288.31854791 -74.26953125 293.2109375 C-78.48414996 295.53022472 -82.42760027 297.2109375 -87.26953125 297.2109375 C-86.77453125 311.5659375 -86.77453125 311.5659375 -86.26953125 326.2109375 C-60.85693595 334.6818026 -34.99454408 341.74238539 -9.26953125 349.2109375 C-9.26953125 238.3309375 -9.26953125 127.4509375 -9.26953125 13.2109375 C-48.64201523 22.49107959 -48.64201523 22.49107959 -86.26953125 36.2109375 C-86.73704913 38.56692985 -86.73704913 38.56692985 -86.89453125 41.2734375 C-86.96929687 42.19253906 -87.0440625 43.11164063 -87.12109375 44.05859375 C-87.17007813 44.76886719 -87.2190625 45.47914062 -87.26953125 46.2109375 C-86.68945312 46.30890625 -86.109375 46.406875 -85.51171875 46.5078125 C-77.76162954 47.99132793 -72.59219412 51.08674137 -67.59375 57.2265625 C-63.82468184 62.87460564 -62.32928517 69.5004141 -63.26953125 76.2109375 C-65.26695187 85.1451367 -69.22184223 91.31242559 -76.9140625 96.265625 C-80.30679155 97.62721775 -83.63867003 97.7954166 -87.26953125 98.2109375 C-87.2606488 99.08932785 -87.25176636 99.9677182 -87.24261475 100.87272644 C-87.16242075 109.15630413 -87.10154242 117.43975119 -87.06228256 125.72362804 C-87.04141993 129.9823432 -87.01312694 134.24073723 -86.96777344 138.49926758 C-86.92426774 142.6100867 -86.90038418 146.7205972 -86.89002228 150.8316288 C-86.88263932 152.39892751 -86.86822189 153.96620959 -86.84661102 155.53337669 C-86.81751273 157.73119798 -86.81357771 159.92774907 -86.81542969 162.12573242 C-86.80654724 163.37593674 -86.79766479 164.62614105 -86.78851318 165.91423035 C-87.35647934 169.80684526 -88.51449481 171.45608152 -91.26953125 174.2109375 C-93.26953125 174.83984375 -93.26953125 174.83984375 -95.26953125 174.7734375 C-95.92953125 174.77472656 -96.58953125 174.77601563 -97.26953125 174.77734375 C-100.23169128 173.93845077 -101.36980184 172.62443366 -103.26953125 170.2109375 C-103.73468018 166.9364624 -103.73468018 166.9364624 -103.68847656 162.99902344 C-103.6859639 162.27977188 -103.68345123 161.56052032 -103.68086243 160.81947327 C-103.6734608 159.26053359 -103.65721272 157.7016163 -103.63312531 156.14284515 C-103.59728917 153.66998259 -103.5897209 151.19850927 -103.590271 148.72540283 C-103.58765061 141.69590502 -103.54135745 134.66718497 -103.45849609 127.63818359 C-103.40974187 123.33437893 -103.40013447 119.03188754 -103.41408539 114.72785187 C-103.41148513 113.09321036 -103.39393116 111.45851802 -103.36075592 109.82421112 C-102.94741552 100.74779949 -102.94741552 100.74779949 -106.05004883 92.48194885 C-108.02545661 90.52208682 -110.06376727 88.89667224 -112.26953125 87.2109375 C-116.44833275 79.78962256 -117.20089287 72.55369186 -115.26953125 64.3359375 C-113.42343773 58.52118882 -109.81899274 54.20982721 -105.26953125 50.2109375 C-104.60953125 50.2109375 -103.94953125 50.2109375 -103.26953125 50.2109375 C-103.30433594 48.98117188 -103.33914062 47.75140625 -103.375 46.484375 C-103.4031517 44.85157623 -103.43045038 43.2187626 -103.45703125 41.5859375 C-103.48216797 40.77769531 -103.50730469 39.96945313 -103.53320312 39.13671875 C-103.60497918 33.2510823 -102.92448783 29.20367128 -98.87060547 24.6340332 C-94.19217994 20.14990824 -89.22984493 18.48557654 -83.08203125 16.7734375 C-82.01992432 16.46341797 -80.95781738 16.15339844 -79.86352539 15.83398438 C-77.28820228 15.08497568 -74.71135914 14.34403484 -72.13183594 13.60986328 C-67.33192604 12.2372789 -62.54754803 10.813981 -57.76271057 9.38987732 C-53.09436267 8.00240033 -48.42245694 6.62716843 -43.74984741 5.25411987 C-41.39633707 4.56112865 -39.04380643 3.86480108 -36.69229126 3.16506958 C-33.33471049 2.1683392 -29.97277721 1.18781717 -26.609375 0.2109375 C-25.09647385 -0.24316246 -25.09647385 -0.24316246 -23.55300903 -0.70643616 C-15.28143982 -3.08056282 -7.79184787 -4.38583054 0 0 Z M-98.26953125 66.2109375 C-100.29110663 68.87574141 -100.26953125 70.2405081 -100.26953125 73.6484375 C-99.24489791 77.29869376 -98.17340501 79.08743149 -95.08203125 81.32421875 C-91.53951113 83.0573051 -89.1831199 82.83214205 -85.26953125 82.2109375 C-81.62768144 79.65389402 -80.49160923 77.98821041 -79.26953125 73.7109375 C-79.26953125 68.88320637 -80.74680311 66.78804879 -84.01953125 63.3984375 C-89.62100267 60.44210536 -94.04937148 61.87020173 -98.26953125 66.2109375 Z M-97.51953125 263.8984375 C-99.92990527 267.0835746 -100.26953125 269.23071569 -100.26953125 273.2109375 C-98.65725663 276.37577286 -97.26350319 278.48202475 -94.39453125 280.5859375 C-91.41436679 281.46245646 -89.37114499 281.64516342 -86.26953125 281.2109375 C-82.31588996 278.74923632 -80.59275117 277.256649 -79.20703125 272.7734375 C-79.28048005 268.58685595 -79.80460346 266.60021321 -82.26953125 263.2109375 C-88.23818984 259.61893934 -91.9052366 259.68771651 -97.51953125 263.8984375 Z " fill="#558FCF" transform="translate(217.26953125,74.7890625)"/>
<path d="M0 0 C6.11964979 4.63570038 9.54300115 10.63497945 10.61328125 18.22265625 C10.96853317 27.05594735 9.45991927 33.97539131 3.48828125 40.65625 C-3.50936385 47.11682979 -9.97172916 48.45592064 -19.35546875 48.2265625 C-26.26332701 47.41974924 -31.56199785 44.55968299 -36.3046875 39.50390625 C-41.84884509 32.18498999 -42.74651075 24.86610802 -41.8671875 15.81640625 C-40.49119877 9.06259489 -36.66605364 3.52988206 -31.0625 -0.47265625 C-21.46193621 -6.20003121 -9.40723739 -5.96316512 0 0 Z M-23.8671875 14.81640625 C-26.19545125 18.03162762 -26.26429931 20.9247105 -25.8671875 24.81640625 C-24.19956428 28.31047394 -23.12712728 29.64311306 -19.8671875 31.81640625 C-14.04770413 32.39711152 -14.04770413 32.39711152 -8.9296875 29.94140625 C-5.77023392 26.68621165 -5.53297507 24.39227387 -5.57421875 19.85546875 C-6.02973717 16.68506058 -7.62034407 14.99716605 -9.8671875 12.81640625 C-14.79922447 10.35038777 -19.71782921 11.49691961 -23.8671875 14.81640625 Z " fill="#558FCF" transform="translate(76.8671875,273.18359375)"/>
<path d="M0 0 C6.04326528 4.20352585 9.26606048 9.91974696 11 17 C11.96426566 24.86753121 11.06836516 31.57603436 6.5234375 38.12890625 C2.02386066 43.70714876 -2.72226776 46.74798081 -9.5625 48.75 C-18.28031572 49.64413495 -25.37702496 47.81398481 -32.875 43.25 C-39.81712867 35.89951082 -41.5658304 28.84780175 -41.3359375 18.875 C-40.7781293 12.44074722 -38.72174207 7.78091037 -34.203125 3.1640625 C-23.73967439 -5.415967 -11.87720014 -5.9740544 0 0 Z M-23 15 C-25.68333228 19.02499843 -25.79639219 22.27142136 -25 27 C-22.48165527 30.66304688 -20.79716189 31.75360451 -16.5625 33.0625 C-12.11930066 32.98454913 -10.33854529 31.87270176 -7 29 C-4.65034645 25.79592697 -4.45438467 22.89725235 -5 19 C-7.01065256 15.66985669 -8.26268827 13.63047603 -11.9375 12.296875 C-16.49542111 11.50269178 -19.32417829 11.97285271 -23 15 Z " fill="#558FCF" transform="translate(41,136)"/>
<path d="M0 0 C6.53052346 3.83668253 11.61036666 8.7672386 13.875 16.1015625 C15.47584136 23.50545377 15.21478663 30.22821322 11.875 37.1015625 C7.71546298 43.16799055 2.32436446 48.68449317 -5.125 50.1015625 C-14.09995192 50.89280511 -21.75515494 50.70698794 -29.125 45.1015625 C-34.92146055 39.32971537 -38.1673937 32.38359584 -38.5625 24.2265625 C-38.29352594 16.93064126 -35.88747328 10.62548684 -30.9375 5.2265625 C-22.41273356 -2.41321759 -10.6852012 -4.76381887 0 0 Z M-21.125 19.1015625 C-22.57427703 23.11743627 -22.5761629 26.06388782 -20.875 29.9765625 C-18.18149456 33.24724768 -16.54625991 34.0532212 -12.3125 34.5390625 C-9.13649907 34.4511658 -7.23382018 33.8893779 -4.6875 31.9765625 C-1.81670154 28.75566667 -1.03754133 27.3870372 -1.125 23.1015625 C-2.64137748 19.0312861 -4.17372864 16.07719818 -8.125 14.1015625 C-14.16387106 13.20691493 -17.11836288 14.52254865 -21.125 19.1015625 Z " fill="#558FCF" transform="translate(78.125,194.8984375)"/>
<path d="M0 0 C5.05821156 4.13853673 8.93067564 9.79202692 11 16 C11.89304715 25.75031804 10.16336841 32.16190713 4.875 40.25 C-1.04375673 45.91141948 -6.78873479 48.30333999 -15 48.625 C-23.85472759 48.25965836 -29.99628958 45.50915627 -36 39 C-41.19025144 32.81162328 -41.60554927 26.66536534 -41.375 18.8046875 C-40.6747831 11.70040351 -37.86637621 6.43254415 -32.6875 1.5625 C-22.99491631 -5.77973614 -10.38437131 -6.53037784 0 0 Z M-24 16 C-25.60086627 19.20173254 -25.49917089 22.52577059 -25 26 C-23.20636089 28.8100346 -21.98119065 30.50940468 -19 32 C-13.01477198 32.67984933 -13.01477198 32.67984933 -8.0625 29.625 C-5.09327264 25.84598336 -4.44313172 23.82619179 -5 19 C-6.81310142 16.07062346 -8.87295899 13.56352051 -12 12 C-17.50023842 11.48110958 -20.06804501 12.06804501 -24 16 Z " fill="#558FCF" transform="translate(41,339)"/>
<path d="M0 0 C2.60518375 1.09548522 3.47981817 2.33834125 4.8671875 4.78515625 C5.81217342 10.06920252 5.7444877 14.42932867 2.8046875 18.97265625 C-0.88374588 21.24849812 -2.86977987 21.48274341 -7.1328125 20.78515625 C-9.9389263 18.64285432 -11.00228977 17.4395702 -11.69921875 13.9453125 C-11.68882877 5.7060582 -11.68882877 5.7060582 -9.1328125 1.47265625 C-5.63238855 -0.49633222 -3.87175766 -0.53481477 0 0 Z " fill="#5490CF" transform="translate(86.1328125,139.21484375)"/>
<path d="M0 0 C2.875 1.8125 2.875 1.8125 5 5 C6.00709788 10.41721198 5.96584744 14.55122884 2.875 19.1875 C-0.54984225 21.34663968 -2.03371841 21.82630866 -6 21 C-8.875 19.1875 -8.875 19.1875 -11 16 C-12.00709788 10.58278802 -11.96584744 6.44877116 -8.875 1.8125 C-5.45015775 -0.34663968 -3.96628159 -0.82630866 0 0 Z " fill="#558FCF" transform="translate(86,347)"/>
<path d="M0 0 C4.51785714 1.25496032 4.51785714 1.25496032 6.375 3.9375 C8.01848093 8.8679428 8.18764925 13.20138569 6 17.875 C4.375 19.9375 4.375 19.9375 2.375 20.9375 C-3.84294719 21.51323585 -3.84294719 21.51323585 -6.81640625 19.32421875 C-9.16632247 16.2231414 -9.1919276 14.29836833 -9.1875 10.4375 C-9.20941406 9.3134375 -9.23132813 8.189375 -9.25390625 7.03125 C-8.625 3.9375 -8.625 3.9375 -6.31640625 1.52734375 C-3.625 -0.0625 -3.625 -0.0625 0 0 Z " fill="#5590CF" transform="translate(150.625,266.0625)"/>
<path d="M0 0 C2.73344762 2.91996523 3.43137796 4.96429459 3.4375 8.9375 C3.31281546 12.31395733 2.9904221 14.01995396 1.5 17.125 C-1.52538174 19.39403631 -3.31086045 19.5592009 -7 19.56640625 C-9.94759066 18.73163936 -11.15606542 17.42218599 -13 15 C-13.53125 12.125 -13.53125 12.125 -13.5 9 C-13.5103125 7.96875 -13.520625 6.9375 -13.53125 5.875 C-12.87853203 2.34264391 -11.79644461 1.18852187 -9 -1 C-5.15941827 -2.28019391 -3.6601592 -1.60131965 0 0 Z " fill="#568ECF" transform="translate(24,231)"/>
<path d="M0 0 C2.66015625 1.6171875 2.66015625 1.6171875 5 4 C5.62890625 7.09375 5.62890625 7.09375 5.5625 10.5 C5.56378906 11.6240625 5.56507812 12.748125 5.56640625 13.90625 C4.89327487 17.58294002 3.97046032 18.78942488 1 21 C-2.5 21.5 -2.5 21.5 -6 21 C-8.90717073 18.78136971 -9.83981643 17.48055071 -11 14 C-11.25042829 9.49229079 -11.17776243 6.01166764 -9 2 C-5.48746854 -0.34168764 -4.13530644 -0.49623677 0 0 Z " fill="#568FCF" transform="translate(94,248)"/>
<path d="M0 0 C1.34283649 2.68567297 1.24287519 4.87746853 1.3125 7.875 C1.34988281 8.92429688 1.38726562 9.97359375 1.42578125 11.0546875 C1 14 1 14 -0.76953125 16.34765625 C-3.74487713 18.55180915 -5.49437575 18.65519702 -9.09375 18.43359375 C-11 18 -11 18 -13.5 16.125 C-15.62535054 11.69718637 -15.7924821 7.82621601 -15 3 C-13.31331833 0.04830708 -12.13481558 -1.37389485 -9.1875 -3 C-5.68314874 -3 -3.07726522 -1.56766342 0 0 Z " fill="#568FCF" transform="translate(159,215)"/>
</svg>
