<?xml version="1.0" encoding="UTF-8"?>
<svg version="1.1" xmlns="http://www.w3.org/2000/svg" width="512" height="512">
<path d="M0 0 C5.36712086 4.01967912 8.7636593 8.29739443 10.5 14.875 C10.67439865 17.73811638 10.75364555 20.49899888 10.72705078 23.35888672 C10.72734283 24.18881638 10.72763489 25.01874603 10.72793579 25.87382507 C10.72654902 28.60088776 10.71101871 31.32767289 10.6953125 34.0546875 C10.69158005 35.95183157 10.68873417 37.84897758 10.68673706 39.74612427 C10.67911891 44.72739022 10.65948604 49.70853863 10.6373291 54.6897583 C10.61322447 60.67283703 10.60408104 66.65595516 10.59242249 72.6390686 C10.57306059 81.71779403 10.53472531 90.79626179 10.5 99.875 C31.62 99.875 52.74 99.875 74.5 99.875 C74.45359375 93.6875 74.4071875 87.5 74.359375 81.125 C74.33892808 77.19659772 74.31967171 73.26826139 74.3046875 69.33984375 C74.28080973 63.10939852 74.25261326 56.87918925 74.19824219 50.64892578 C74.15466517 45.62387512 74.13083773 40.59907763 74.12049103 35.57385254 C74.11312093 33.66015642 74.09872885 31.74647359 74.07707977 29.83288574 C74.04788801 27.14480032 74.04405055 24.4577506 74.04589844 21.76953125 C74.03151733 20.98477921 74.01713623 20.20002716 74.00231934 19.39149475 C74.05039638 12.89488598 75.9099384 7.49488956 80.53515625 2.81640625 C81.20417969 2.36136719 81.87320313 1.90632812 82.5625 1.4375 C83.56990234 0.72787109 83.56990234 0.72787109 84.59765625 0.00390625 C90.03628595 -3.22353519 96.40070378 -2.73351447 102.5 -2.125 C108.81935397 -0.15365634 112.42979242 3.30525453 115.625 9.0078125 C117.6813505 13.39591758 117.63501054 17.36893124 117.61352539 22.11010742 C117.61367142 22.94935257 117.61381744 23.78859772 117.6139679 24.65327454 C117.61327087 27.42903217 117.60548829 30.20472282 117.59765625 32.98046875 C117.59579132 34.90432193 117.59436777 36.82817559 117.59336853 38.75202942 C117.58954924 43.81714182 117.57972394 48.88222558 117.56866455 53.94732666 C117.55843781 59.11527112 117.5538682 64.28322021 117.54882812 69.45117188 C117.53810117 79.59246253 117.5205091 89.7337244 117.5 99.875 C128.72 99.875 139.94 99.875 151.5 99.875 C151.438125 96.41 151.37625 92.945 151.3125 89.375 C151.22780566 71.9635612 155.07447215 57.02040432 162.1171875 41.21484375 C165.95034982 32.60453137 168.40044495 24.33823825 169.98046875 15.05078125 C171.15887158 8.31273433 172.6852141 3.85851021 178.52510071 -0.25671387 C183.065054 -2.7466099 187.32855843 -2.68811841 192.41088867 -2.64257812 C193.38084274 -2.6495874 194.35079681 -2.65659668 195.35014343 -2.66381836 C198.5397141 -2.6813504 201.72838989 -2.66979505 204.91796875 -2.65625 C207.14040802 -2.65894562 209.36284613 -2.66282863 211.58528137 -2.66784668 C216.23462188 -2.67373469 220.88365435 -2.66519851 225.53295898 -2.64648438 C231.49522655 -2.62365567 237.45677542 -2.63684756 243.41901684 -2.66077423 C248.00435317 -2.67521686 252.58951857 -2.6706339 257.17486 -2.66026306 C259.37372231 -2.65759361 261.5726001 -2.66087318 263.77144432 -2.67018127 C266.84048083 -2.68032569 269.90834583 -2.66487644 272.97729492 -2.64257812 C274.34183807 -2.65472351 274.34183807 -2.65472351 275.73394775 -2.66711426 C281.85015115 -2.58467324 281.85015115 -2.58467324 285.06391907 -0.31140137 C287.18079514 2.9114955 287.03801889 5.10886778 286.5 8.875 C285.0479126 11.05963135 285.0479126 11.05963135 282.5 12.875 C279.41496921 13.4776069 276.36889277 13.43875518 273.23339844 13.42089844 C272.29647156 13.43123611 271.35954468 13.44157379 270.39422607 13.45222473 C267.29910145 13.48170919 264.20462917 13.48315312 261.109375 13.484375 C258.96273548 13.49935281 256.8161075 13.5160791 254.66949463 13.53448486 C249.02078733 13.57821525 243.3722355 13.59817018 237.72338867 13.61322021 C231.95872788 13.63277071 226.19423549 13.67474305 220.4296875 13.71484375 C209.11984354 13.79020758 197.81003715 13.84046175 186.5 13.875 C186.43796387 14.69266846 186.37592773 15.51033691 186.31201172 16.3527832 C186.22709473 17.42874756 186.14217773 18.50471191 186.0546875 19.61328125 C185.97202637 20.67844971 185.88936523 21.74361816 185.80419922 22.84106445 C184.73436067 33.51111557 180.39369531 43.39674404 175.875 53 C166.80505273 72.50695369 165.10899598 95.36411719 172.56640625 115.796875 C173.81765869 118.85273905 175.14613105 121.86318458 176.5 124.875 C187.18177037 148.82732766 192.13153922 177.5582589 182.5 202.875 C180.23099445 208.42861798 177.83925008 213.92851164 175.44482422 219.42895508 C167.58747349 237.67333368 164.85607384 259.66697847 171.5 278.875 C173.22725115 283.20405984 175.07726206 287.47668599 176.9375 291.75 C187.14138045 315.30215408 192.31394231 343.46435599 182.55517578 368.27734375 C180.69026774 372.80628598 178.72298653 377.28559363 176.7265625 381.7578125 C172.11676575 392.16966178 168.5869929 402.48818117 168.359375 413.9765625 C168.34003906 414.87890625 168.32070313 415.78125 168.30078125 416.7109375 C168.26678885 418.57790455 168.24868719 420.44522532 168.24609375 422.3125 C168.11980253 426.95204055 168.01660996 429.19416966 165.140625 432.984375 C162.5 434.875 162.5 434.875 159.5 435.5 C155.28270899 434.62139771 154.06104844 433.3540792 151.5 429.875 C150.88494336 426.08127673 151.02943149 422.39279386 151.1875 418.5625 C151.3421875 413.2721875 151.3421875 413.2721875 151.5 407.875 C140.28 407.875 129.06 407.875 117.5 407.875 C117.52094727 410.43830078 117.54189453 413.00160156 117.56347656 415.64257812 C117.62986651 424.12815958 117.67398328 432.61375274 117.70724869 441.09952545 C117.72809011 446.24259726 117.75634483 451.38540212 117.80175781 456.52832031 C117.8453384 461.49501659 117.86916301 466.46145669 117.87950897 471.42832947 C117.88687844 473.31969737 117.90126928 475.21105185 117.92292023 477.10231018 C117.95211682 479.75926604 117.95594926 482.4151742 117.95410156 485.07226562 C117.96848267 485.84766693 117.98286377 486.62306824 117.99768066 487.42196655 C117.94562399 494.37668144 115.58606358 499.40466155 111.125 504.6875 C105.13680332 509.6776639 100.3759121 510.43340194 92.69140625 510.21484375 C87.14523853 509.62424817 83.5014691 508.05642575 79.71875 503.93359375 C75.19651864 498.14215123 74.35378997 493.84569614 74.38647461 486.5480957 C74.38632858 485.69909698 74.38618256 484.85009827 74.3860321 483.97537231 C74.38672917 481.16714937 74.39451194 478.35899262 74.40234375 475.55078125 C74.40420866 473.60450781 74.40563222 471.65823391 74.40663147 469.71195984 C74.41045088 464.58766383 74.42027627 459.46339614 74.43133545 454.33911133 C74.44335973 448.19172501 74.44795456 442.04432922 74.45378876 435.89693451 C74.46348831 426.55626998 74.48264891 417.21566758 74.5 407.875 C53.38 407.875 32.26 407.875 10.5 407.875 C10.53480469 413.918125 10.56960937 419.96125 10.60546875 426.1875 C10.62080432 430.0247493 10.6352467 433.8619606 10.64648438 437.69921875 C10.66439097 443.78474818 10.68553412 449.87014169 10.72631836 455.95556641 C10.75900646 460.86389655 10.77687296 465.77208085 10.78463173 470.68051147 C10.79015829 472.54953302 10.80095026 474.41854694 10.81719017 476.2875061 C10.8390902 478.91319794 10.8419617 481.53829347 10.84057617 484.1640625 C10.851362 484.93011307 10.86214783 485.69616364 10.8732605 486.48542786 C10.83823007 492.65399138 9.70254544 498.27898135 5.59765625 503.1171875 C4.92605469 503.65601563 4.25445312 504.19484375 3.5625 504.75 C2.89347656 505.30429687 2.22445312 505.85859375 1.53515625 506.4296875 C-4.52049535 510.73024622 -10.21557344 510.57207431 -17.5 509.875 C-23.38288177 508.22629428 -27.13097282 504.97666972 -30.5 499.875 C-33.03998722 493.98777046 -33.93290295 488.6006698 -33.84057617 482.23413086 C-33.84123329 481.01783997 -33.84123329 481.01783997 -33.84190369 479.77697754 C-33.83983507 477.13101019 -33.81659659 474.48569863 -33.79296875 471.83984375 C-33.78736592 469.99182989 -33.78309907 468.14381155 -33.78010559 466.29579163 C-33.76871092 461.45752423 -33.73929062 456.61953169 -33.70599365 451.78137207 C-33.6751762 446.83410356 -33.66157541 441.88679018 -33.64648438 436.93945312 C-33.61441529 427.25118205 -33.56328474 417.56311398 -33.5 407.875 C-34.66982422 407.89594727 -35.83964844 407.91689453 -37.04492188 407.93847656 C-41.4132854 408.01124856 -45.78159605 408.05693422 -50.15039062 408.09472656 C-52.03589916 408.11475767 -53.92134623 408.14199073 -55.80664062 408.17675781 C-58.52749862 408.22565272 -61.24753056 408.24805382 -63.96875 408.265625 C-65.21924133 408.29659271 -65.21924133 408.29659271 -66.49499512 408.32818604 C-73.74959898 408.330925 -78.78971979 406.16368107 -84.3125 401.5 C-89.3026639 395.51180332 -90.05840194 390.7509121 -89.83984375 383.06640625 C-89.24924817 377.52023853 -87.68142575 373.8764691 -83.55859375 370.09375 C-79.28547027 366.75709372 -75.9261671 364.74445795 -70.39575195 364.76147461 C-69.57512772 364.76155014 -68.75450348 364.76162567 -67.90901184 364.76170349 C-66.5870002 364.76944542 -66.5870002 364.76944542 -65.23828125 364.77734375 C-63.87959175 364.77946617 -63.87959175 364.77946617 -62.49345398 364.78163147 C-59.59976909 364.78722999 -56.70616151 364.79978219 -53.8125 364.8125 C-51.85091258 364.81751519 -49.88932394 364.82207807 -47.92773438 364.82617188 C-43.11845979 364.83719893 -38.309243 364.85446253 -33.5 364.875 C-33.52356567 363.59653198 -33.52356567 363.59653198 -33.54760742 362.29223633 C-33.59888962 359.11468774 -33.63642482 355.93735087 -33.66479492 352.75952148 C-33.67983432 351.38705483 -33.70027133 350.01463586 -33.72631836 348.64233398 C-33.76291221 346.66411344 -33.77816698 344.68553486 -33.79296875 342.70703125 C-33.8086792 341.51827393 -33.82438965 340.3295166 -33.84057617 339.10473633 C-33.46668746 335.55909204 -32.62877583 333.70441835 -30.5 330.875 C-27.40826248 329.32913124 -24.90570448 329.58140479 -21.5 329.875 C-19.29785156 331.44628906 -19.29785156 331.44628906 -17.5 333.875 C-17.04589844 337.17480469 -17.04589844 337.17480469 -17.109375 341.046875 C-17.11503479 341.7292926 -17.12069458 342.41171021 -17.12652588 343.11480713 C-17.14884364 345.28559762 -17.19902492 347.45471206 -17.25 349.625 C-17.27007124 351.1002365 -17.28832093 352.57549899 -17.3046875 354.05078125 C-17.3486912 357.65939501 -17.41768417 361.26703381 -17.5 364.875 C-13.54 364.875 -9.58 364.875 -5.5 364.875 C-5.5 335.505 -5.5 306.135 -5.5 275.875 C-9.46 275.875 -13.42 275.875 -17.5 275.875 C-17.47381592 276.79313477 -17.44763184 277.71126953 -17.4206543 278.65722656 C-17.33531627 282.0716118 -17.27269926 285.48486061 -17.2253418 288.89990234 C-17.20023263 290.37632146 -17.16613745 291.85261668 -17.12280273 293.32861328 C-17.061982 295.4537614 -17.03375791 297.57726394 -17.01171875 299.703125 C-16.97244263 301.6197998 -16.97244263 301.6197998 -16.93237305 303.57519531 C-17.5 306.875 -17.5 306.875 -19.80395508 309.32714844 C-22.5 310.875 -22.5 310.875 -26.125 310.8125 C-29.34839166 309.91711343 -30.59276958 309.52393115 -32.5 306.875 C-33.93509221 304.00481559 -33.61158506 301.53956277 -33.59765625 298.3359375 C-33.59443359 297.03398437 -33.59121094 295.73203125 -33.58789062 294.390625 C-33.57953466 293.01041601 -33.57106971 291.63020768 -33.5625 290.25 C-33.55748501 288.86198074 -33.5529221 287.47395978 -33.54882812 286.0859375 C-33.53700976 282.68224868 -33.52053434 279.27864561 -33.5 275.875 C-34.60923828 275.89071045 -35.71847656 275.9064209 -36.86132812 275.92260742 C-41.00611002 275.97721427 -45.15086058 276.01146118 -49.29589844 276.03979492 C-51.08436443 276.05481184 -52.87279403 276.07523158 -54.66113281 276.10131836 C-57.24293031 276.13801615 -59.82423779 276.15479745 -62.40625 276.16796875 C-63.59112 276.19119453 -63.59112 276.19119453 -64.79992676 276.21488953 C-71.65141141 276.21693179 -78.02705188 274.73066951 -83.3125 270.0625 C-83.85519531 269.60230469 -84.39789063 269.14210938 -84.95703125 268.66796875 C-89.82859759 263.00708533 -90.08042981 257.46944956 -89.9140625 250.29296875 C-89.15385047 244.01763361 -86.13832851 240.21001342 -81.625 236 C-68.30954176 226.9454884 -46.41596036 231.875 -33.5 231.875 C-33.5 202.505 -33.5 173.135 -33.5 142.875 C-47.03 142.875 -60.56 142.875 -74.5 142.875 C-83.52189781 138.36405109 -83.52189781 138.36405109 -85.9375 134.8125 C-86.64712891 133.80509766 -86.64712891 133.80509766 -87.37109375 132.77734375 C-90.59429949 127.34585172 -89.91366015 120.97460699 -89.5 114.875 C-87.45155517 108.83747839 -83.48108399 104.78327678 -77.91992188 101.75097656 C-73.22696625 99.47305773 -69.11271398 99.35698763 -63.96875 99.484375 C-62.65396667 99.49286469 -62.65396667 99.49286469 -61.31262207 99.50152588 C-58.54116812 99.52373364 -55.77105635 99.5738984 -53 99.625 C-51.10939381 99.64508526 -49.21876714 99.66333246 -47.328125 99.6796875 C-42.71824094 99.72354693 -38.1093472 99.79246348 -33.5 99.875 C-33.50666183 98.85515518 -33.51332367 97.83531036 -33.52018738 96.78456116 C-33.58114396 87.14832445 -33.62604231 77.51212715 -33.65543652 67.875741 C-33.67105666 62.92220553 -33.69222797 57.96882638 -33.72631836 53.01538086 C-33.75904236 48.23023897 -33.77688045 43.44524695 -33.78463173 38.66000175 C-33.7901519 36.83925456 -33.80093123 35.01851507 -33.81719017 33.19783211 C-33.83913814 30.63700095 -33.84195974 28.07678002 -33.84057617 25.51586914 C-33.851362 24.77211533 -33.86214783 24.02836151 -33.8732605 23.2620697 C-33.82715698 15.31639013 -31.68135327 8.12266 -26.14453125 2.31640625 C-19.32585505 -3.66005816 -7.82642306 -4.60377827 0 0 Z M-16.16621399 15.40350342 C-18.02518419 18.8481628 -17.89526081 22.04184727 -17.84057617 25.85644531 C-17.84101425 26.6568222 -17.84145233 27.4571991 -17.84190369 28.28182983 C-17.83981672 30.92251128 -17.8164903 33.56255472 -17.79296875 36.203125 C-17.78737246 38.0358648 -17.78310252 39.86860909 -17.78010559 41.70135498 C-17.76865939 46.52161075 -17.73919411 51.34159469 -17.70599365 56.16174316 C-17.67528795 61.0817497 -17.66159918 66.00180023 -17.64648438 70.921875 C-17.61432423 80.573036 -17.56313055 90.22399538 -17.5 99.875 C-13.54 99.875 -9.58 99.875 -5.5 99.875 C-5.4305554 89.10499767 -5.37721693 78.33504841 -5.34456348 67.56486797 C-5.32889316 62.56407971 -5.30762996 57.56344438 -5.27368164 52.56274414 C-5.24113691 47.73872686 -5.22315729 42.91485687 -5.21536827 38.0907383 C-5.20981596 36.24828586 -5.19897392 34.40584167 -5.18280983 32.56345177 C-5.16110035 29.98702816 -5.15803033 27.41121683 -5.15942383 24.8347168 C-5.148638 24.06939133 -5.13785217 23.30406586 -5.1267395 22.51554871 C-5.13857953 18.47625985 -5.13857953 18.47625985 -6.83378601 14.90486145 C-10.0430774 12.9212474 -13.35018409 12.82021499 -16.16621399 15.40350342 Z M90.5 15.875 C89.071983 19.65967704 89.36693929 23.68633228 89.38647461 27.67285156 C89.38632858 28.45372131 89.38618256 29.23459106 89.3860321 30.03912354 C89.38672758 32.61465249 89.39450288 35.19010871 89.40234375 37.765625 C89.40420923 39.55352743 89.40563252 41.34143037 89.40663147 43.1293335 C89.41044643 47.83110978 89.42026802 52.53285508 89.43133545 57.23461914 C89.44157151 62.03401266 89.4461338 66.8334112 89.45117188 71.6328125 C89.46189119 81.0468886 89.47895537 90.46094172 89.5 99.875 C93.46 99.875 97.42 99.875 101.5 99.875 C101.5694446 89.10499767 101.62278307 78.33504841 101.65543652 67.56486797 C101.67110684 62.56407971 101.69237004 57.56344438 101.72631836 52.56274414 C101.75886309 47.73872686 101.77684271 42.91485687 101.78463173 38.0907383 C101.79018404 36.24828586 101.80102608 34.40584167 101.81719017 32.56345177 C101.83889965 29.98702816 101.84196967 27.41121683 101.84057617 24.8347168 C101.851362 24.06939133 101.86214783 23.30406586 101.8732605 22.51554871 C101.8591624 18.47467878 101.8591624 18.47467878 100.17012024 14.89704895 C96.67415468 12.75765333 93.32964844 13.04535156 90.5 15.875 Z M-72.22413558 117.20666522 C-74.1639803 119.74322816 -73.82870743 121.78515013 -73.5 124.875 C-70.81342208 127.56157792 -68.73972327 127.12824165 -65.0874939 127.16508484 C-64.1861673 127.16410294 -63.2848407 127.16312103 -62.35620117 127.16210938 C-61.40809067 127.16894241 -60.45998016 127.17577545 -59.48313904 127.18281555 C-57.41950551 127.19642909 -55.35583799 127.20546592 -53.29216576 127.21052551 C-50.026632 127.21879135 -46.76138105 127.23927593 -43.4959259 127.26306152 C-36.55982574 127.31137738 -29.62369733 127.34424373 -22.6875 127.375 C-14.6616928 127.41064683 -6.63602278 127.45258221 1.38965416 127.51094055 C4.60751021 127.531019 7.82526145 127.53933188 11.04316711 127.54724121 C13.01812114 127.56021513 14.99307167 127.57373566 16.96801758 127.58789062 C18.31089844 127.58641777 18.31089844 127.58641777 19.6809082 127.58491516 C24.00921643 127.62813275 27.6264807 127.69465217 31.5 129.875 C33.02491998 132.92483996 32.73562548 135.5173369 32.5 138.875 C29.5 141.875 29.5 141.875 10.5 142.875 C10.5 172.245 10.5 201.615 10.5 231.875 C31.62 231.875 52.74 231.875 74.5 231.875 C74.5 202.505 74.5 173.135 74.5 142.875 C68.56 142.545 62.62 142.215 56.5 141.875 C53.5 136.875 53.5 136.875 53.6875 133.6875 C54.5 130.875 54.5 130.875 56.5 128.875 C59.26106459 127.96308249 61.80643026 127.74276281 64.70147705 127.71678162 C65.94660568 127.70209839 65.94660568 127.70209839 67.21688843 127.68711853 C68.1188797 127.68136307 69.02087097 127.6756076 69.95019531 127.66967773 C70.90662933 127.65977814 71.86306335 127.64987854 72.84848022 127.63967896 C76.00833668 127.6081035 79.16820816 127.58332208 82.328125 127.55859375 C84.51959625 127.53802082 86.71106356 127.51702425 88.90252686 127.49562073 C94.6695639 127.44043515 100.43663655 127.39101033 106.20373535 127.34277344 C112.08898079 127.2925328 117.97417454 127.2368601 123.859375 127.18164062 C135.40620584 127.07410201 146.95308157 126.97264745 158.5 126.875 C157.51 123.245 156.52 119.615 155.5 115.875 C126.76001955 115.80660204 98.02004868 115.75349158 69.2800029 115.72180401 C65.88906105 115.71805177 62.49811935 115.71416881 59.10717773 115.71020508 C58.43208573 115.70941815 57.75699372 115.70863122 57.06144438 115.70782044 C46.12208326 115.69475689 35.1827693 115.67109785 24.24343618 115.64354161 C13.02353295 115.61551377 1.80365334 115.59905395 -9.41628665 115.59273452 C-15.72041529 115.58881509 -22.02443686 115.57956963 -28.32853127 115.55780983 C-34.25704448 115.5375114 -40.18540607 115.53115272 -46.11395073 115.53567696 C-48.29448901 115.53484877 -50.47503214 115.52884379 -52.65554047 115.51738358 C-55.6236833 115.50254348 -58.59124733 115.50601534 -61.55940247 115.51423645 C-62.43001826 115.50549793 -63.30063405 115.4967594 -64.19763213 115.48775607 C-68.49269027 115.3908088 -68.49269027 115.3908088 -72.22413558 117.20666522 Z M-17.5 142.875 C-17.5 172.245 -17.5 201.615 -17.5 231.875 C-13.54 231.875 -9.58 231.875 -5.5 231.875 C-5.5 202.505 -5.5 173.135 -5.5 142.875 C-9.46 142.875 -13.42 142.875 -17.5 142.875 Z M89.5 142.875 C89.5 172.245 89.5 201.615 89.5 231.875 C93.46 231.875 97.42 231.875 101.5 231.875 C101.5 202.505 101.5 173.135 101.5 142.875 C97.54 142.875 93.58 142.875 89.5 142.875 Z M117.5 142.875 C117.5 172.245 117.5 201.615 117.5 231.875 C129.38 231.875 141.26 231.875 153.5 231.875 C154.510625 229.07 155.52125 226.265 156.5625 223.375 C158.89172103 216.96065811 161.41306199 210.70513209 164.25 204.5 C169.30222446 193.09989549 170.76913529 183.38141743 170.9375 171 C170.97121704 169.40502686 170.97121704 169.40502686 171.00561523 167.77783203 C170.97798703 158.47067082 169.05661533 152.46230749 166.5 142.875 C150.33 142.875 134.16 142.875 117.5 142.875 Z M-73.5 250.875 C-74.16666667 253.875 -74.16666667 253.875 -73.5 256.875 C-70.97997328 259.71607159 -69.37834074 259.88638791 -65.55636978 260.24414349 C-63.91394834 260.25675661 -62.27135001 260.25268313 -60.62896729 260.23576355 C-59.72308451 260.23832682 -58.81720174 260.2408901 -57.88386798 260.24353105 C-54.84199515 260.24848078 -51.80061633 260.23195625 -48.75878906 260.21557617 C-46.58088696 260.21473016 -44.402984 260.21520454 -42.2250824 260.21690369 C-36.30601192 260.21776606 -30.38712302 260.20010097 -24.46809483 260.17918181 C-18.28478981 260.16045545 -12.10148085 260.15866776 -5.91815186 260.15510559 C5.79381556 260.14577325 17.50569919 260.12114333 29.21762967 260.09105712 C42.54998491 260.05730982 55.88234048 260.04103642 69.21472883 260.02597082 C96.64319905 259.99459485 124.07159483 259.9418112 151.5 259.875 C151.5 255.915 151.5 251.955 151.5 247.875 C122.75427945 247.80498003 94.00857164 247.75204623 65.26278305 247.71956348 C51.9162056 247.70408163 38.56968742 247.68296692 25.22314453 247.64868164 C13.59297503 247.61881966 1.96284385 247.59943459 -9.66736293 247.59273452 C-15.8278838 247.58881684 -21.98829502 247.57958235 -28.14878082 247.55780983 C-33.94351161 247.53749529 -39.73808725 247.53115602 -45.53285027 247.53567696 C-47.66297943 247.5348495 -49.79311361 247.52885404 -51.92321205 247.51738358 C-54.82532297 247.50251833 -57.72684349 247.50602464 -60.62896729 247.51423645 C-61.47721549 247.50549793 -62.3254637 247.4967594 -63.1994164 247.48775607 C-69.01757441 247.5300102 -69.01757441 247.5300102 -73.5 250.875 Z M10.5 275.875 C10.5 305.245 10.5 334.615 10.5 364.875 C31.62 364.875 52.74 364.875 74.5 364.875 C74.5 335.505 74.5 306.135 74.5 275.875 C53.38 275.875 32.26 275.875 10.5 275.875 Z M89.5 275.875 C89.5 305.245 89.5 334.615 89.5 364.875 C93.46 364.875 97.42 364.875 101.5 364.875 C101.5 335.505 101.5 306.135 101.5 275.875 C97.54 275.875 93.58 275.875 89.5 275.875 Z M117.5 275.875 C117.5 305.245 117.5 334.615 117.5 364.875 C133.67 364.875 149.84 364.875 166.5 364.875 C169.23423822 354.62160666 171.18157698 347.11360375 171 336.9375 C170.98573975 335.81069824 170.97147949 334.68389648 170.95678711 333.52294922 C170.60082509 319.39196712 166.91768736 307.88627505 160.84985352 295.22509766 C157.77537404 288.79477042 155.80880626 282.80141878 153.5 275.875 C141.62 275.875 129.74 275.875 117.5 275.875 Z M-73.5 382.875 C-73.99634387 386.98581085 -73.99634387 386.98581085 -72.22413558 390.54333478 C-69.16561048 392.90563827 -65.27208847 392.27302843 -61.55940247 392.23576355 C-60.1712333 392.23960846 -60.1712333 392.23960846 -58.75502032 392.24353105 C-55.64094868 392.24848902 -52.52735736 392.23194273 -49.41333008 392.21557617 C-47.18631502 392.21473034 -44.95929912 392.21520419 -42.73228455 392.21690369 C-36.67473134 392.21776676 -30.61735524 392.20009049 -24.5598433 392.17918181 C-18.23372682 392.16046696 -11.90760657 392.15866868 -5.58146667 392.15510559 C5.04036903 392.14683148 15.66213455 392.12807473 26.28393555 392.10131836 C37.22501296 392.07378636 48.16607268 392.05254859 59.10717773 392.03979492 C60.11858698 392.03861267 60.11858698 392.03861267 61.15042873 392.03740653 C64.53301682 392.03349145 67.91560504 392.02970032 71.29819334 392.02597082 C99.36550757 391.99486457 127.43274974 391.94179694 155.5 391.875 C156.49 388.245 157.48 384.615 158.5 380.875 C129.2334114 380.82941082 99.96682531 380.79399927 70.70020849 380.77286934 C67.24789284 380.77036782 63.79557726 380.76777918 60.34326172 380.76513672 C59.31228655 380.76434979 59.31228655 380.76434979 58.26048361 380.76354696 C47.11999873 380.75483564 35.97953442 380.73906169 24.83906175 380.72069441 C13.41462639 380.70201554 1.99020774 380.69103733 -9.43424332 380.68682301 C-15.85400863 380.68420897 -22.27372724 380.67803838 -28.69347763 380.66353989 C-34.72948679 380.65001781 -40.76542977 380.64576641 -46.80145264 380.64878464 C-49.02272017 380.64823206 -51.24398981 380.64422276 -53.46524429 380.63658905 C-56.48617942 380.62671184 -59.50686114 380.62900453 -62.52780151 380.63449097 C-63.41689394 380.62866528 -64.30598636 380.6228396 -65.22202098 380.61683738 C-69.84060348 380.42204689 -69.84060348 380.42204689 -73.5 382.875 Z M-17.5 407.875 C-17.56948443 418.49734717 -17.62280338 429.11964035 -17.65543652 439.74216843 C-17.67109812 444.67454806 -17.69234548 449.6067723 -17.72631836 454.5390625 C-17.75889408 459.29824605 -17.77684929 464.05728004 -17.78463173 468.81656647 C-17.79017845 470.63307296 -17.80100975 472.4495712 -17.81719017 474.2660141 C-17.8389408 476.80870812 -17.84196794 479.35078273 -17.84057617 481.89355469 C-17.851362 482.64593414 -17.86214783 483.3983136 -17.8732605 484.17349243 C-17.85457071 487.32528841 -17.67615135 489.54859273 -16.16621399 492.34649658 C-14.50055739 494.16219246 -14.50055739 494.16219246 -11.5 494.3125 C-8.60676567 494.09355056 -8.60676567 494.09355056 -6.83378601 492.84513855 C-4.74293286 489.7567343 -5.10868201 486.51574911 -5.15942383 482.9152832 C-5.15898575 482.10529877 -5.15854767 481.29531433 -5.15809631 480.46078491 C-5.16018716 477.78220556 -5.18353186 475.10425132 -5.20703125 472.42578125 C-5.21262616 470.56919191 -5.21689675 468.71259815 -5.21989441 466.85600281 C-5.23135146 461.96833071 -5.26082606 457.08092585 -5.29400635 452.19335938 C-5.32468868 447.20641699 -5.33839582 442.21943144 -5.35351562 437.23242188 C-5.38569492 427.44649714 -5.43690169 417.66077079 -5.5 407.875 C-9.46 407.875 -13.42 407.875 -17.5 407.875 Z M89.5 407.875 C89.45364798 418.2193318 89.41811618 428.56363887 89.39637566 438.9080534 C89.38594101 443.71144468 89.37178756 448.51476487 89.34912109 453.31811523 C89.32738145 457.95410167 89.31542897 462.59001976 89.31024551 467.22605324 C89.30655178 468.99427173 89.29933887 470.76248651 89.28853989 472.53067589 C89.27401008 475.00840702 89.27202268 477.48585613 89.27294922 479.96362305 C89.26575867 480.69370575 89.25856812 481.42378845 89.25115967 482.17599487 C89.26810144 486.3662919 89.36120176 490.73620176 92.5 493.875 C96.51647651 494.27100994 96.51647651 494.27100994 100.17402649 492.8568573 C102.24825824 489.7566209 101.89135358 486.51827432 101.84057617 482.9152832 C101.84101425 482.10529877 101.84145233 481.29531433 101.84190369 480.46078491 C101.83981284 477.78220556 101.81646814 475.10425132 101.79296875 472.42578125 C101.78737384 470.56919191 101.78310325 468.71259815 101.78010559 466.85600281 C101.76864854 461.96833071 101.73917394 457.08092585 101.70599365 452.19335938 C101.67531132 447.20641699 101.66160418 442.21943144 101.64648438 437.23242188 C101.61430508 427.44649714 101.56309831 417.66077079 101.5 407.875 C97.54 407.875 93.58 407.875 89.5 407.875 Z " fill="#568FCF" transform="translate(89.5,2.125)"/>
<path d="M0 0 C0.98581055 -0.00700928 1.97162109 -0.01401855 2.98730469 -0.02124023 C6.24849561 -0.03885545 9.50881965 -0.02718275 12.77001953 -0.01367188 C15.03679572 -0.0163662 17.30357079 -0.02024811 19.57034302 -0.02526855 C24.32337436 -0.03116876 29.07610514 -0.02258514 33.82910156 -0.00390625 C39.91792739 0.01885724 46.00604696 0.00577949 52.09484673 -0.01819611 C56.77720442 -0.03266193 61.45939519 -0.02804395 66.14175797 -0.01768494 C68.3864157 -0.01501849 70.63108863 -0.01828449 72.87572861 -0.02760315 C76.01651782 -0.03777835 79.15617029 -0.02225183 82.296875 0 C83.22279449 -0.00809692 84.14871399 -0.01619385 85.10269165 -0.02453613 C90.66188825 0.04831506 93.87659553 0.79555762 98.27783203 4.51757812 C102.80276878 9.65399281 103.42479909 12.70556944 103.41205311 19.39942551 C103.41440534 20.22723872 103.41675757 21.05505194 103.41918108 21.9079504 C103.4258955 24.71198227 103.42541212 27.51596807 103.42500305 30.32000732 C103.42830016 32.33861018 103.43202539 34.35721238 103.43614453 36.37581372 C103.44619007 41.9464835 103.44988541 47.5171425 103.45253384 53.08782005 C103.45642932 59.08659704 103.46600814 65.08536544 103.4747467 71.08413696 C103.49359672 84.89705392 103.50377019 98.70997153 103.51220738 112.52289768 C103.51641157 119.34599507 103.52163386 126.16909156 103.52689191 132.9921882 C103.54478324 156.339846 103.5597802 179.68750406 103.5672121 203.03516769 C103.56768686 204.50137971 103.56816275 205.96759173 103.56863977 207.43380375 C103.56887614 208.16092665 103.56911252 208.88804954 103.56935606 209.63720646 C103.57055728 213.32128869 103.57177272 217.00537091 103.57299805 220.68945312 C103.5732382 221.42057572 103.57347835 222.15169831 103.57372577 222.90497613 C103.58162063 246.61558192 103.60505573 270.32613772 103.63755399 294.03672167 C103.67183534 319.09389619 103.69156166 344.15104144 103.69485635 369.20823979 C103.6952739 371.95782933 103.69575346 374.70741885 103.69627953 377.45700836 C103.69640272 378.13405456 103.69652591 378.81110076 103.69665283 379.5086635 C103.69898696 390.41433746 103.71465874 401.31995346 103.73512137 412.22560674 C103.75535587 423.18335036 103.76053395 434.14103367 103.75135074 445.09879395 C103.74679118 451.037704 103.74878821 456.97642545 103.76811218 462.91530991 C103.78563855 468.34849393 103.78483216 473.7813503 103.76921489 479.21453729 C103.76682274 481.1836196 103.77124481 483.15272397 103.78304354 485.12177238 C103.79805911 487.79237254 103.78856205 490.46179614 103.77281666 493.13236618 C103.78303887 493.90216167 103.79326107 494.67195716 103.80379304 495.46507978 C103.73703121 500.63065413 102.52247424 503.53167167 99.27783203 507.51757812 C93.8518642 512.2975974 90.46646471 512.66623082 83.39070129 512.66474915 C82.45879791 512.66842583 81.52689453 512.67210252 80.56675166 512.67589062 C77.42462258 512.68695845 74.28252654 512.69077655 71.14038086 512.69458008 C68.89531346 512.70084241 66.6502471 512.70748901 64.40518188 512.7144928 C58.29139253 512.7319245 52.17761102 512.74246057 46.06380296 512.75069833 C42.24618979 512.75584411 38.42857908 512.76192004 34.61096764 512.76820946 C24.04150717 512.78508276 13.47204886 512.79971732 2.9025774 512.8069582 C0.1590913 512.80886811 -2.58439479 512.81078844 -5.32788086 512.81274414 C-6.00976447 512.81322788 -6.69164807 512.81371162 -7.39419482 512.81421002 C-18.43745107 512.82250827 -29.48059892 512.8478408 -40.52380785 512.88032482 C-51.86132571 512.91340262 -63.19876911 512.93107493 -74.53634244 512.93460244 C-80.90207451 512.93695565 -87.26763534 512.94595139 -93.63332176 512.97106361 C-99.62265499 512.99430865 -105.6117038 512.99859177 -111.6010704 512.98830223 C-113.79928215 512.98780589 -115.99750772 512.99415523 -118.1956768 513.00785828 C-121.19749959 513.02552384 -124.19829586 513.01849683 -127.20011902 513.00532532 C-128.50402856 513.02177919 -128.50402856 513.02177919 -129.83427972 513.03856546 C-135.61602485 512.97734576 -138.96543225 511.84862122 -143.72216797 508.51757812 C-147.86421307 503.76886985 -148.6441836 499.09880591 -149.59716797 493.08007812 C-150.99670335 485.10652476 -153.13887657 478.20643192 -156.55029297 470.87695312 C-157.99706759 466.72953255 -158.03774936 463.88998121 -157.72216797 459.51757812 C-156.15966797 457.01757812 -156.15966797 457.01757812 -153.72216797 455.51757812 C-150.22216797 455.01757812 -150.22216797 455.01757812 -146.72216797 455.51757812 C-138.73372764 462.20487098 -135.75463459 474.70395254 -133.72216797 484.51757812 C-133.39216797 488.47757812 -133.06216797 492.43757813 -132.72216797 496.51757812 C-60.45216797 496.51757812 11.81783203 496.51757812 86.27783203 496.51757812 C87.81538601 493.44247018 87.41409662 490.21730351 87.40367317 486.84320068 C87.40585333 485.63513913 87.40585333 485.63513913 87.40807754 484.40267229 C87.41175804 481.67500522 87.40824167 478.94739332 87.40481567 476.21972656 C87.40596668 474.25602057 87.40755407 472.29231479 87.40954292 470.32860947 C87.41373902 464.90983447 87.41164429 459.49107695 87.4085567 454.07230186 C87.40630396 448.23720554 87.40978158 442.40211232 87.41253662 436.5670166 C87.41699466 425.1271122 87.4160177 413.68721435 87.41312398 402.24730968 C87.41087008 392.95389438 87.41055737 383.66048092 87.4116478 374.36706543 C87.41172418 373.70759209 87.41180057 373.04811875 87.41187927 372.36866137 C87.41219059 369.69187956 87.41250899 367.01509776 87.41283903 364.33831595 C87.41590044 339.21011975 87.41312076 314.08192713 87.40774213 288.95373148 C87.40299626 266.61173053 87.40342088 244.26973528 87.40820312 221.92773438 C87.4135537 196.84652239 87.41568335 171.76531358 87.41259086 146.6841011 C87.41227013 144.01209768 87.41195729 141.34009425 87.4116478 138.66809082 C87.41149352 137.35324573 87.41133925 136.03840065 87.4111803 134.68371177 C87.4103151 125.39619607 87.41177808 116.10868238 87.41412735 106.82116699 C87.41692539 95.51035337 87.416187 84.19954669 87.41084661 72.88873386 C87.40820965 67.11240824 87.40720444 61.33609422 87.41049576 55.55976868 C87.41345883 50.27986235 87.41186572 44.99997845 87.40651821 39.72007418 C87.40539407 37.80221088 87.40598513 35.88434571 87.40839399 33.96648359 C87.41140123 31.37494667 87.40835005 28.78348827 87.40367317 26.19195557 C87.40601434 25.43411286 87.4083555 24.67627015 87.41076761 23.89546251 C87.46315677 20.08006758 87.46315677 20.08006758 86.27783203 16.51757812 C85.08401917 16.5139325 83.8902063 16.51028687 82.66021729 16.50653076 C71.41816476 16.46961441 60.176387 16.41187853 48.93454361 16.33367538 C43.15475567 16.29414006 37.37512148 16.26198125 31.59521484 16.24658203 C26.01887769 16.23145542 20.44296303 16.19708083 14.86681366 16.1492691 C12.73776671 16.13441405 10.60865946 16.12653476 8.47956085 16.12569427 C5.50072505 16.1233353 2.52306705 16.09634161 -0.45556641 16.06347656 C-1.3388562 16.06850693 -2.222146 16.07353729 -3.13220215 16.07872009 C-9.07733949 15.97701359 -9.07733949 15.97701359 -12.27008057 13.70220947 C-14.40951443 10.48348153 -14.26125639 8.2911971 -13.72216797 4.51757812 C-10.298897 -0.73991561 -5.68210444 -0.04947221 0 0 Z " fill="#558FCF" transform="translate(408.72216796875,-0.517578125)"/>
<path d="M0 0 C5.78389988 5.62563396 7.73212212 11.8075642 7.8828125 19.71484375 C7.9094145 25.89685251 7.20165149 30.45359137 3.5703125 35.52734375 C3.0134375 36.41421875 2.4565625 37.30109375 1.8828125 38.21484375 C-3.58781987 43.68547612 -10.36744186 46.60196481 -18.0546875 46.83984375 C-25.49380066 46.73028391 -31.79752222 44.38905712 -37.3046875 39.33984375 C-43.42682291 32.49405167 -45.13817982 25.79787323 -44.80859375 16.67578125 C-43.8148394 8.4183997 -39.85576395 2.66820491 -33.4296875 -2.47265625 C-22.60156375 -8.9695305 -9.91343485 -7.58493038 0 0 Z M-27.2421875 14.27734375 C-29.00067479 17.60921441 -28.94231237 19.81081348 -28.4296875 23.52734375 C-26.63944965 26.49781248 -24.57963922 28.95236789 -21.4296875 30.52734375 C-16.77559849 30.94104055 -14.17729274 30.33804768 -10.4296875 27.52734375 C-7.95804695 23.81988293 -7.65117616 20.82537513 -8.4296875 16.52734375 C-9.77727422 13.72388208 -10.97638913 12.6674551 -13.4296875 10.52734375 C-19.63456089 8.64372147 -22.72265545 9.91365763 -27.2421875 14.27734375 Z " fill="#558FCF" transform="translate(446.4296875,400.47265625)"/>
<path d="M0 0 C5.25270679 3.84037678 9.71819611 9.06525446 11.12109375 15.55078125 C12.11204671 24.57946379 11.5816991 32.08199359 6.12109375 39.55078125 C1.3614144 44.87574318 -3.96125952 48.12079563 -11.08203125 48.90234375 C-20.05640794 49.27141985 -26.91060267 47.99166407 -33.71875 41.90625 C-40.17932979 34.9086049 -41.51842064 28.44623959 -41.2890625 19.0625 C-40.47878497 12.12498094 -37.61906311 6.83585271 -32.50390625 2.11328125 C-22.84679172 -5.15529322 -10.64648407 -6.20607856 0 0 Z M-23.87890625 16.55078125 C-25.47977252 19.75251379 -25.37807714 23.07655184 -24.87890625 26.55078125 C-23.08526714 29.36081585 -21.8600969 31.06018593 -18.87890625 32.55078125 C-13.06544678 33.08443638 -13.06544678 33.08443638 -7.94140625 30.67578125 C-4.78195267 27.42058665 -4.54469382 25.12664887 -4.5859375 20.58984375 C-5.04145592 17.41943558 -6.63206282 15.73154105 -8.87890625 13.55078125 C-14.59762733 10.69142071 -19.65660712 12.20053366 -23.87890625 16.55078125 Z " fill="#558FCF" transform="translate(329.87890625,60.44921875)"/>
<path d="M0 0 C2.562964 2.23225897 2.93752331 3.58051369 3.4375 6.9375 C2.88008526 10.83940315 1.97118368 12.40973731 -1 15 C-4.4375 15.625 -4.4375 15.625 -8 15 C-11.4272611 12.52070473 -12.81303325 11.14517131 -13.5 6.9375 C-12.95255192 3.72124253 -12.2924309 2.2924309 -10 0 C-6.20519658 -1.26493447 -3.87641726 -0.89988258 0 0 Z " fill="#5590CF" transform="translate(369,48)"/>
<path d="M0 0 C2.94427735 2.06895165 3.84332955 3.50909927 4.9375 6.9375 C5.01221891 10.59872681 4.21363944 12.1304674 2 15 C-0.85324437 16.42662219 -2.83454549 16.31033868 -6 16 C-8.875 14.5 -8.875 14.5 -11 12 C-11.71730941 9.1770404 -11.71730941 6.8229596 -11 4 C-7.74010218 0.16482609 -4.95707565 -0.84375756 0 0 Z " fill="#558FCF" transform="translate(413,306)"/>
<path d="M0 0 C2.81972931 2.36493426 2.97850831 3.8280665 3.4375 7.5 C3 11 3 11 1.5 13.4375 C-1.53037069 15.33148168 -3.55830934 15.64334247 -7.08984375 15.4453125 C-9 15 -9 15 -11.5625 12.9375 C-13.43625505 9.10852228 -13.12962701 7.06665724 -12 3 C-8.52941144 -1.52685464 -5.36496865 -1.22358934 0 0 Z " fill="#568ECF" transform="translate(469,199)"/>
<path d="M0 0 C1.9375 1.0625 1.9375 1.0625 3 3 C4.14050533 7.10581917 4.49830673 9.08311561 2.4375 12.875 C-0.51902195 15.45248068 -2.08967888 16 -6 16 C-10.56521739 13.86956522 -10.56521739 13.86956522 -12 11 C-12.35173852 7.20122401 -12.52701444 4.85639847 -10.5 1.5625 C-6.75107996 -0.78057502 -4.38964238 -0.48773804 0 0 Z " fill="#558FCF" transform="translate(414,343)"/>
<path d="M0 0 C1.91015625 0.4453125 1.91015625 0.4453125 4.47265625 2.5078125 C6.3464113 6.33679022 6.03978326 8.37865526 4.91015625 12.4453125 C3.34113991 14.79883701 2.23678215 15.32172432 -0.40234375 16.3203125 C-4.01741189 16.4884552 -6.04247407 15.31528935 -9.08984375 13.4453125 C-10.63571251 10.35357498 -10.38343896 7.85101698 -10.08984375 4.4453125 C-7.53315462 0.29069266 -4.61630624 -0.25885829 0 0 Z " fill="#558FCE" transform="translate(326.08984375,450.5546875)"/>
<path d="M0 0 C2.72235378 1.934304 3.75092091 3.30613681 4.875 6.4375 C5.0272951 9.55954946 4.54137619 11.28424195 3 14 C0.3402643 16.16719206 -1.08837596 15.99534863 -4.5625 15.8125 C-8 15 -8 15 -9.9375 13.9375 C-11.69366901 10.73507415 -11.62026592 7.50309274 -11 4 C-8.16250305 -0.53999512 -5.10870514 -0.72981502 0 0 Z " fill="#568ECF" transform="translate(300,420)"/>
<path d="M0 0 C1.9375 1.6875 1.9375 1.6875 3 4 C2.88081199 7.39685818 2.58128695 9.94000615 0.9375 12.9375 C-2.26492585 14.69366901 -5.49690726 14.62026592 -9 14 C-11.5 12.4375 -11.5 12.4375 -13 10 C-13.5 6.5 -13.5 6.5 -13 3 C-9.06555639 -2.15547783 -5.80211266 -2.53842429 0 0 Z " fill="#558FCF" transform="translate(382,326)"/>
<path d="M0 0 C2.48038907 3.7205836 2.46337203 5.59796571 2 10 C0.5 12.4375 0.5 12.4375 -2 14 C-5.51870564 14.62303037 -8.75771003 14.72132966 -11.9375 12.875 C-13.46849826 10.17323836 -13.8757742 8.10564495 -14 5 C-12.69055533 1.79913525 -11.6241763 0.38800149 -8.6875 -1.4375 C-5.16091188 -2.1756231 -3.23699295 -1.51059671 0 0 Z " fill="#558ECF" transform="translate(313,131)"/>
<path d="M0 0 C1.875 1.0625 1.875 1.0625 3 3 C3.75471698 9.79245283 3.75471698 9.79245283 1.4375 13.5 C-1.94888329 15.58392818 -4.09385318 15.55802097 -8 15 C-10.4375 13.5 -10.4375 13.5 -12 11 C-12.63282293 7.4259887 -12.7960262 4.1750863 -10.6875 1.0625 C-6.89137087 -1.32765538 -4.22097926 -1.05524482 0 0 Z " fill="#568ECF" transform="translate(390,80)"/>
</svg>
