<?xml version="1.0" encoding="UTF-8"?>
<svg version="1.1" xmlns="http://www.w3.org/2000/svg" width="512" height="512">
<path d="M0 0 C3.12578143 1.6720747 5.39281175 3.7856235 7 7 C7.2863278 12.91937425 7.31384619 18.83998057 7.35009766 24.765625 C7.36664046 26.74816643 7.39390835 28.73064862 7.43212891 30.71289062 C7.48701364 33.57453281 7.50879047 36.4347767 7.5234375 39.296875 C7.54610687 40.17833191 7.56877625 41.05978882 7.59213257 41.96795654 C7.57760892 46.217792 7.37210522 49.11530734 4.68969727 52.52392578 C1.38589233 55.56533357 -1.06567683 56.21805582 -5.4375 57.125 C-11.42036061 58.39281103 -16.33734706 59.87047093 -20.42578125 64.67578125 C-23.00390347 69.43451786 -24.68336928 73.75119523 -23.5234375 79.265625 C-21.74395597 85.17115711 -19.55974291 89.40727108 -14.1875 92.75 C-7.8489764 95.23569553 -3.3684717 95.32023932 2.921875 92.9453125 C8.31098977 90.49387308 10.88960811 87.46783354 13 82 C13.44860902 79.81475117 13.88498435 77.6269732 14.3125 75.4375 C15.91494287 68.27556147 15.91494287 68.27556147 18.5625 65.6875 C23.17556842 63.42290278 26.9566108 62.95372153 32 64 C35.11414036 65.70431827 37.38809699 67.77619399 39 71 C39.96080912 82.43520363 38.65698402 92.59640628 31.5625 101.875 C30.38974206 103.26259506 29.20301429 104.63855302 28 106 C27.01829813 107.18540501 26.03879623 108.37263897 25.0625 109.5625 C24.381875 110.366875 23.70125 111.17125 23 112 C23.97924438 112.3242395 23.97924438 112.3242395 24.97827148 112.6550293 C29.09997928 114.48960054 32.635374 116.97171774 36.34765625 119.51953125 C37.17538544 120.08154739 38.00311462 120.64356354 38.85592651 121.22261047 C40.65166266 122.44216588 42.44604546 123.66371587 44.23922729 124.88702393 C49.081708 128.18960278 53.9351146 131.47602562 58.7890625 134.76171875 C59.79430466 135.44242432 60.79954681 136.12312988 61.83525085 136.82446289 C74.169871 145.16330565 86.61650405 153.33158294 99.07250977 161.48754883 C99.90728348 162.03738937 100.74205719 162.58722992 101.60212708 163.1537323 C103.31667492 164.27419846 105.04056097 165.38049128 106.772995 166.47309875 C111.79929018 169.68669744 116.32056643 173.08681243 120.79003906 177.04443359 C141.55779653 194.79907842 163.28982849 193.34191278 189.53839111 192.47674561 C198.37623832 192.2072468 207.21836113 192.12013067 216.0593605 192.0132637 C219.12426127 191.96186697 222.18561029 191.86925853 225.24923706 191.7684021 C227.11910804 191.72575782 228.98899079 191.68362546 230.85888672 191.64208984 C231.70034744 191.60361435 232.54180817 191.56513885 233.4087677 191.52549744 C237.60119793 191.46041189 240.18312604 191.71241435 243.50881958 194.39736938 C246.80219297 197.8380814 247.12506863 199.26397888 247.13701439 203.88331223 C247.1446262 205.4408129 247.1446262 205.4408129 247.15239179 207.02977824 C247.15288955 208.17936243 247.15338731 209.32894662 247.15390015 210.5133667 C247.1582824 211.72774076 247.16266465 212.94211482 247.1671797 214.19328809 C247.17826195 217.57486632 247.18479761 220.95639817 247.18936086 224.3379879 C247.19531045 227.98091954 247.20692188 231.62383405 247.21765137 235.26675415 C247.24218995 244.06987415 247.25680455 252.87299984 247.26971143 261.67614353 C247.27342227 264.16167511 247.27739559 266.64720614 247.2814641 269.13273716 C247.30669924 284.56065757 247.32875691 299.98857885 247.34119225 315.41651535 C247.34412204 318.9912186 247.34708369 322.56592182 247.35009766 326.140625 C247.35084371 327.02912334 247.35158976 327.91762167 247.35235842 328.8330442 C247.36501513 343.22987845 247.39824156 357.62658929 247.43989949 372.02336583 C247.48229888 386.79724108 247.50588496 401.57105312 247.51111281 416.34498906 C247.51452918 424.64286533 247.52631079 432.94054872 247.55921555 441.23836517 C247.58718986 448.30450919 247.598227 455.37042082 247.58702008 462.43661591 C247.58182662 466.04253334 247.58476376 469.64796391 247.60948563 473.25381088 C247.63605899 477.16230566 247.62394092 481.07013361 247.60800171 484.97869873 C247.6218838 486.11936003 247.63576588 487.26002134 247.65006864 488.43524814 C247.56383733 496.98962392 247.56383733 496.98962392 244.58699989 500.68883133 C240.45634088 504.37907102 237.43897489 504.14519391 232.11815262 504.13701439 C231.2903394 504.13966622 230.46252619 504.14231804 229.60962772 504.14505023 C226.80559755 504.15277582 224.00161093 504.15330364 221.1975708 504.15390015 C219.1789678 504.15791262 217.16036561 504.16235048 215.1417644 504.1671797 C209.5710962 504.17917497 204.00043667 504.18480047 198.42975807 504.18936086 C192.43097995 504.19530574 186.43221226 504.20691829 180.43344116 504.21765137 C166.62052639 504.24103945 152.80760843 504.25558604 138.99468044 504.26788078 C134.21681536 504.27213408 129.43895068 504.27669977 124.66108608 504.2814641 C99.26819768 504.30672222 73.87530864 504.32877492 48.48241043 504.34119225 C42.5976486 504.34411368 36.71288679 504.34708117 30.828125 504.35009766 C30.09700241 504.35046857 29.36587981 504.35083947 28.61260199 504.35122162 C4.9019838 504.36338012 -18.80856021 504.39432854 -42.51914355 504.43601918 C-66.88589033 504.47878556 -91.25259793 504.50543053 -115.61938327 504.51066696 C-119.05939897 504.51140743 -122.49941461 504.51231812 -125.93943024 504.51332474 C-126.95499953 504.51361066 -126.95499953 504.51361066 -127.99108538 504.51390236 C-138.89677541 504.51741896 -149.80237268 504.53773071 -160.70802862 504.56412137 C-171.66577892 504.59023869 -182.62343663 504.59758996 -193.58121583 504.58702008 C-199.52016718 504.58181815 -205.45882297 504.58481984 -211.39773178 504.60948563 C-216.83097478 504.63186358 -222.26370793 504.63132763 -227.69695917 504.61228175 C-229.66604447 504.60946562 -231.63516351 504.61516901 -233.60419425 504.63009469 C-236.27501856 504.64910767 -238.94400735 504.63747578 -241.61478806 504.61803246 C-242.38458354 504.63088168 -243.15437903 504.6437309 -243.94750166 504.65696949 C-249.73855869 504.56393079 -252.09369905 502.98008771 -256 499 C-257.2376488 496.52470239 -257.12985153 494.8865074 -257.13701439 492.11668777 C-257.14208893 491.07835399 -257.14716347 490.0400202 -257.15239179 488.97022176 C-257.15288955 487.82063757 -257.15338731 486.67105338 -257.15390015 485.4866333 C-257.1582824 484.27225924 -257.16266465 483.05788518 -257.1671797 481.80671191 C-257.17826195 478.42513368 -257.18479761 475.04360183 -257.18936086 471.6620121 C-257.19531045 468.01908046 -257.20692188 464.37616595 -257.21765137 460.73324585 C-257.24218995 451.93012585 -257.25680455 443.12700016 -257.26971143 434.32385647 C-257.27342227 431.83832489 -257.27739559 429.35279386 -257.2814641 426.86726284 C-257.30669924 411.43934243 -257.32875691 396.01142115 -257.34119225 380.58348465 C-257.34412204 377.0087814 -257.34708369 373.43407818 -257.35009766 369.859375 C-257.35084371 368.97087666 -257.35158976 368.08237833 -257.35235842 367.1669558 C-257.36501513 352.77012155 -257.39824156 338.37341071 -257.43989949 323.97663417 C-257.48229888 309.20275892 -257.50588496 294.42894688 -257.51111281 279.65501094 C-257.51452918 271.35713467 -257.52631079 263.05945128 -257.55921555 254.76163483 C-257.58718986 247.69549081 -257.598227 240.62957918 -257.58702008 233.56338409 C-257.58182662 229.95746666 -257.58476376 226.35203609 -257.60948563 222.74618912 C-257.63605899 218.83769434 -257.62394092 214.92986639 -257.60800171 211.02130127 C-257.6218838 209.88063997 -257.63576588 208.73997866 -257.65006864 207.56475186 C-257.56383733 199.01037608 -257.56383733 199.01037608 -254.58699989 195.31116867 C-250.25372805 191.43991914 -247.10190398 191.9899787 -241.55102539 192.25488281 C-239.72832339 192.32949454 -237.90555489 192.4024943 -236.08273315 192.47412109 C-235.10960049 192.51269226 -234.13646782 192.55126343 -233.13384628 192.59100342 C-171.66785246 196.79957847 -171.66785246 196.79957847 -118.96484375 170.265625 C-118.24712296 169.58131409 -117.52940216 168.89700317 -116.78993225 168.19195557 C-108.71130461 160.49905612 -99.51902372 154.75570693 -90.11654663 148.81930542 C-85.48566447 145.8802327 -80.91204114 142.85541025 -76.3359375 139.83203125 C-75.46343857 139.25771866 -74.59093964 138.68340607 -73.69200134 138.09169006 C-67.90224329 134.27598349 -62.1466316 130.41276006 -56.4140625 126.51171875 C-55.67627563 126.00971954 -54.93848877 125.50772034 -54.17834473 124.99050903 C-50.76575853 122.66543605 -47.35860457 120.33280526 -43.95800781 117.99023438 C-42.78190948 117.18488351 -41.60580324 116.37954419 -40.4296875 115.57421875 C-39.42147949 114.87901123 -38.41327148 114.18380371 -37.37451172 113.4675293 C-35 112 -35 112 -33 112 C-33.43570313 111.52691406 -33.87140625 111.05382812 -34.3203125 110.56640625 C-43.73093311 100.1169509 -49.61186481 90.61064527 -49.5 76.25 C-49.49033203 74.94119873 -49.49033203 74.94119873 -49.48046875 73.60595703 C-49.13833261 61.41285538 -44.66723679 51.60673251 -36 43 C-30.36397268 38.26000246 -24.88944097 35.44487577 -18 33 C-17.99589111 32.24380371 -17.99178223 31.48760742 -17.98754883 30.70849609 C-17.95453795 27.26321716 -17.88388303 23.81968877 -17.8125 20.375 C-17.80379883 18.59029297 -17.80379883 18.59029297 -17.79492188 16.76953125 C-17.54626695 6.87859088 -17.54626695 6.87859088 -14.57421875 3.2265625 C-10.04363033 -0.69215586 -5.84179344 -0.82303981 0 0 Z M-5 123 C-29.30836498 138.9433589 -53.54314137 154.9873384 -77.62036133 171.27807617 C-78.46571945 171.85004227 -79.31107758 172.42200836 -80.18205261 173.01130676 C-81.81802775 174.11863737 -83.45363026 175.22651874 -85.08882141 176.33500671 C-88.89825908 178.91485661 -92.71595902 181.48027105 -96.55615234 184.01416016 C-97.26297653 184.48118851 -97.96980072 184.94821686 -98.69804382 185.42939758 C-100.01989587 186.30099604 -101.34370185 187.16964084 -102.66975403 188.03483582 C-104.13024286 188.99781616 -105.56808346 189.99502548 -107 191 C-107 191.33 -107 191.66 -107 192 C-39.68 192 27.64 192 97 192 C94.24857642 189.24857642 92.30931991 187.3760937 89.18920898 185.34399414 C88.44582275 184.85624008 87.70243652 184.36848602 86.93652344 183.86595154 C86.13118164 183.34428909 85.32583984 182.82262665 84.49609375 182.28515625 C83.64120361 181.72542618 82.78631348 181.16569611 81.90551758 180.58900452 C80.05391856 179.37698558 78.20099212 178.16699266 76.34689331 176.95880127 C71.38037594 173.72169573 66.42429096 170.46871937 61.46875 167.21484375 C60.44486679 166.54279907 59.42098358 165.87075439 58.36607361 165.17834473 C45.50639883 156.72361123 32.76541017 148.09330715 20.02709961 139.45727539 C11.75587114 133.8537043 3.4889344 128.27115071 -5 123 Z M-233 216 C-233 303.12 -233 390.24 -233 480 C-219.8 480 -206.6 480 -193 480 C-192.9906543 473.45260986 -192.98130859 466.90521973 -192.97167969 460.15942383 C-192.93796524 438.5659585 -192.88264952 416.97258886 -192.81609726 395.37920094 C-192.77626352 382.28266503 -192.74389304 369.18618959 -192.72900391 356.08959961 C-192.71600988 344.67652846 -192.68910277 333.26359011 -192.64538693 321.85059375 C-192.62272159 315.80574506 -192.60709236 309.76106049 -192.60811615 303.71616554 C-192.60885976 298.02884175 -192.5910293 292.34188143 -192.55883217 286.65465164 C-192.55029966 284.56528187 -192.54860583 282.47587149 -192.55419731 280.38649178 C-192.56080825 277.53704384 -192.54298628 274.68876222 -192.51898193 271.83943176 C-192.52674235 271.00966019 -192.53450277 270.17988862 -192.54249835 269.32497245 C-192.48311847 265.35241531 -192.2832392 263.44398605 -190.09256363 260.01003551 C-186.8371041 256.88296727 -184.97086581 256.87152953 -180.55412292 256.85282898 C-178.81910774 256.84209602 -178.81910774 256.84209602 -177.04904175 256.83114624 C-175.77368561 256.82845734 -174.49832947 256.82576843 -173.18432617 256.82299805 C-171.83255335 256.81673408 -170.48078226 256.81008733 -169.12901306 256.80308533 C-165.45123311 256.78566968 -161.77346617 256.77512206 -158.0956552 256.7668798 C-155.7983749 256.76173087 -153.50109863 256.75565509 -151.20382118 256.74936867 C-144.01757679 256.73031507 -136.83134269 256.71608425 -129.64507788 256.7077567 C-121.34710327 256.69798239 -113.04939527 256.67165875 -104.75151461 256.63125581 C-98.3395573 256.6011059 -91.92767645 256.58628891 -85.51564962 256.58297569 C-81.6851652 256.58062391 -77.85496556 256.57164742 -74.02455711 256.54651451 C-70.42034937 256.52324808 -66.81661419 256.51899442 -63.21235085 256.52927589 C-61.26070744 256.53000797 -59.30908811 256.51090661 -57.35754395 256.49121094 C-55.60983955 256.50162666 -55.60983955 256.50162666 -53.826828 256.51225281 C-52.31114872 256.50867028 -52.31114872 256.50867028 -50.76484966 256.50501537 C-47.24504975 257.13515699 -45.5624375 258.55856386 -43 261 C-41.36522485 264.2695503 -41.84597108 267.88475254 -41.84178162 271.47866821 C-41.83685196 272.36435989 -41.8319223 273.25005157 -41.82684326 274.1625824 C-41.81139471 277.15737708 -41.80308684 280.1521505 -41.79467773 283.14697266 C-41.78496761 285.3198891 -41.77482244 287.49280363 -41.76427555 289.66571617 C-41.73715571 295.50204159 -41.7160163 301.33837458 -41.69608307 307.17472839 C-41.67650434 312.64474097 -41.65157575 318.11472395 -41.6270752 323.5847168 C-41.55848648 339.59812232 -41.49852421 355.61156386 -41.4375 371.625 C-41.293125 407.38875 -41.14875 443.1525 -41 480 C46.12 480 133.24 480 223 480 C223 392.88 223 305.76 223 216 C72.52 216 -77.96 216 -233 216 Z M-169 280 C-169 309.04 -169 338.08 -169 368 C-160.75 368.33 -152.5 368.66 -144 369 C-139 373 -139 373 -138 375 C-137.46881748 379.91996928 -137.24894447 383.77327597 -139.875 388.0625 C-148.18852633 395.64247989 -153.834974 391.39339896 -169 392 C-169 421.04 -169 450.08 -169 480 C-134.68 480 -100.36 480 -65 480 C-65 414 -65 348 -65 280 C-99.32 280 -133.64 280 -169 280 Z " fill="#558FCF" transform="translate(261,4)"/>
<path d="M0 0 C1.03751903 -0.00657338 1.03751903 -0.00657338 2.09599805 -0.01327956 C4.42510573 -0.02668648 6.75417556 -0.03285065 9.08331299 -0.03897095 C10.74873018 -0.04687045 12.41414566 -0.0551393 14.07955933 -0.06375122 C19.55898398 -0.08998972 25.03841634 -0.10528103 30.5178833 -0.11953735 C32.40294652 -0.12489635 34.2880097 -0.13027386 36.17307281 -0.13566971 C44.01375542 -0.15730143 51.85443594 -0.17603855 59.69514084 -0.1872921 C70.93776946 -0.20353349 82.18005256 -0.23671247 93.42255092 -0.29369295 C101.3241059 -0.33237705 109.22556842 -0.35192299 117.12721562 -0.35721266 C121.84811786 -0.36086833 126.56865175 -0.37291225 131.2894516 -0.4053154 C135.73170619 -0.43536905 140.17336904 -0.44171766 144.61570358 -0.42993164 C146.24511545 -0.42971068 147.87455456 -0.43803486 149.50387192 -0.45558548 C151.73132044 -0.47827066 153.956622 -0.46998822 156.18408203 -0.45410156 C157.42959209 -0.45741171 158.67510216 -0.46072186 159.95835495 -0.46413231 C164.46924059 0.35881899 166.11040062 1.95279035 169.3460083 5.15390015 C170.64862213 7.75912781 170.48377428 9.67439482 170.49990845 12.5930481 C170.50850891 13.74827972 170.51710938 14.90351135 170.52597046 16.09375 C170.53236038 18.00442764 170.53236038 18.00442764 170.53887939 19.95370483 C170.54677994 21.3038555 170.55504886 22.65400406 170.56365967 24.00415039 C170.58988774 28.44467144 170.60518915 32.88520195 170.6194458 37.32577515 C170.62480536 38.85423031 170.63018287 40.38268541 170.63557816 41.91114044 C170.657209 48.26948097 170.67594536 54.62781896 170.68720055 60.98618698 C170.70343702 70.09883267 170.73660462 79.21105177 170.79360139 88.32353663 C170.83230855 94.73041183 170.85183419 101.13717298 170.85712111 107.54416203 C170.86077388 111.37083951 170.87278608 115.19706209 170.90522385 119.02361298 C170.93531836 122.6254328 170.94161204 126.22652286 170.92984009 129.82844162 C170.92951445 131.7763426 170.95397175 133.72419863 170.97921753 135.67193604 C170.91110227 145.22382308 170.91110227 145.22382308 167.93453979 148.92373657 C163.95531844 152.35205666 161.90138976 152.28446577 156.6920166 152.30780029 C155.65449757 152.31437367 155.65449757 152.31437367 154.59601855 152.32107985 C152.26691087 152.33448678 149.93784105 152.34065094 147.60870361 152.34677124 C145.94328642 152.35467074 144.27787094 152.3629396 142.61245728 152.37155151 C137.13303262 152.39779001 131.65360026 152.41308132 126.1741333 152.42733765 C124.28907008 152.43269664 122.40400691 152.43807415 120.51894379 152.44347 C112.67826119 152.46510172 104.83758066 152.48383884 96.99687576 152.49509239 C85.75424715 152.51133378 74.51196404 152.54451276 63.26946568 152.60149324 C55.3679107 152.64017734 47.46644818 152.65972329 39.56480098 152.66501296 C34.84389874 152.66866863 30.12336485 152.68071254 25.402565 152.71311569 C20.96031041 152.74316934 16.51864756 152.74951795 12.07631302 152.73773193 C10.44690115 152.73751097 8.81746205 152.74583515 7.18814468 152.76338577 C4.96069616 152.78607095 2.73539461 152.77778851 0.50793457 152.76190186 C-0.73757549 152.765212 -1.98308556 152.76852215 -3.26633835 152.7719326 C-7.77722399 151.9489813 -9.41838401 150.35500995 -12.6539917 147.15390015 C-13.95660553 144.54867248 -13.79175768 142.63340548 -13.80789185 139.7147522 C-13.81649231 138.55952057 -13.82509277 137.40428894 -13.83395386 136.21405029 C-13.83821381 134.9402652 -13.84247375 133.6664801 -13.84686279 132.35409546 C-13.85476334 131.00394479 -13.86303226 129.65379623 -13.87164307 128.3036499 C-13.89787114 123.86312885 -13.91317255 119.42259834 -13.9274292 114.98202515 C-13.93278876 113.45356999 -13.93816627 111.92511489 -13.94356155 110.39665985 C-13.9651924 104.03831932 -13.98392876 97.67998133 -13.99518394 91.32161331 C-14.01142042 82.20896762 -14.04458802 73.09674852 -14.10158479 63.98426366 C-14.14029195 57.57738846 -14.15981759 51.17062731 -14.16510451 44.76363826 C-14.16875728 40.93696078 -14.18076948 37.1107382 -14.21320724 33.28418732 C-14.24330176 29.68236749 -14.24959544 26.08127744 -14.23782349 22.47935867 C-14.23749785 20.53145769 -14.26195515 18.58360166 -14.28720093 16.63586426 C-14.21908567 7.08397721 -14.21908567 7.08397721 -11.24252319 3.38406372 C-7.26330184 -0.04425636 -5.20937316 0.02333452 0 0 Z M10.3460083 24.15390015 C10.3460083 58.47390015 10.3460083 92.79390015 10.3460083 128.15390015 C28.8260083 128.15390015 47.3060083 128.15390015 66.3460083 128.15390015 C66.3460083 93.83390015 66.3460083 59.51390015 66.3460083 24.15390015 C47.8660083 24.15390015 29.3860083 24.15390015 10.3460083 24.15390015 Z M90.3460083 24.15390015 C90.3460083 58.47390015 90.3460083 92.79390015 90.3460083 128.15390015 C108.8260083 128.15390015 127.3060083 128.15390015 146.3460083 128.15390015 C146.3460083 93.83390015 146.3460083 59.51390015 146.3460083 24.15390015 C127.8660083 24.15390015 109.3860083 24.15390015 90.3460083 24.15390015 Z " fill="#558FCF" transform="translate(273.65399169921875,259.8460998535156)"/>
</svg>
