<?xml version="1.0" encoding="UTF-8"?>
<svg version="1.1" xmlns="http://www.w3.org/2000/svg" width="512" height="512">
<path d="M0 0 C0.92121271 -0.00297112 1.84242543 -0.00594224 2.79155368 -0.0090034 C5.89145565 -0.01770432 8.99131907 -0.01919982 12.0912323 -0.02069092 C14.30851321 -0.02531809 16.52579333 -0.03034261 18.74307251 -0.03573608 C24.77616287 -0.04887142 30.80924209 -0.0553072 36.84234452 -0.05974674 C40.609535 -0.06267551 44.37672242 -0.06677993 48.14391136 -0.07125092 C58.57444638 -0.0833609 69.00497923 -0.09374269 79.43552113 -0.09712601 C80.10308653 -0.09734557 80.77065194 -0.09756514 81.4584466 -0.09779136 C82.46218839 -0.09811878 82.46218839 -0.09811878 83.48620778 -0.09845281 C84.8421795 -0.09889627 86.19815121 -0.09934284 87.55412292 -0.09979248 C88.56303578 -0.10012463 88.56303578 -0.10012463 89.59233072 -0.10046348 C100.4906811 -0.10441139 111.38896462 -0.12186529 122.28728918 -0.145152 C133.47679484 -0.16886787 144.66627611 -0.18106999 155.85580939 -0.18249393 C162.1381835 -0.18354325 168.4204633 -0.18947823 174.7028141 -0.20731354 C180.61168802 -0.22376194 186.52039643 -0.22596539 192.42928505 -0.21717453 C194.59888654 -0.21640244 196.76849681 -0.22076946 198.93807602 -0.23063278 C201.89845019 -0.24330268 204.85823375 -0.23750229 207.81860352 -0.22705078 C209.10834988 -0.23913539 209.10834988 -0.23913539 210.42415172 -0.25146413 C216.08026156 -0.2047178 220.44185742 0.65929586 224.74430847 4.67559814 C228.98631676 10.22283975 229.25666576 13.58176485 229.27677917 20.45196533 C229.28335037 21.41797668 229.28992157 22.38398804 229.29669189 23.37927246 C229.31645274 26.58612134 229.32809402 29.79292331 229.33805847 32.99981689 C229.342134 34.09375008 229.34620953 35.18768326 229.35040855 36.31476593 C229.37128169 42.10528882 229.38557774 47.89578793 229.39494324 53.68634033 C229.40600713 59.66977307 229.44040355 65.65283386 229.48011494 71.6361351 C229.50625295 76.23438207 229.51463262 80.83254007 229.51822472 85.4308548 C229.52309834 87.636462 229.5347343 89.84206503 229.55326271 92.04759979 C229.57759251 95.1358134 229.57670005 98.22306036 229.56974792 101.31134033 C229.58896301 102.67688049 229.58896301 102.67688049 229.60856628 104.07000732 C229.5633149 109.5882479 228.81929793 112.78751247 225.09977722 117.14044189 C219.08421378 121.68280613 214.63985645 122.28919359 207.28894043 122.28761292 C205.92148871 122.29312795 205.92148871 122.29312795 204.52641171 122.29875439 C201.45882023 122.3098044 198.3912626 122.31363731 195.32365417 122.31744385 C193.12932222 122.32370751 190.93499134 122.33035422 188.74066162 122.33735657 C182.76942186 122.35477537 176.79819011 122.36532077 170.82693124 122.3735621 C167.09724745 122.37871046 163.36756616 122.38478627 159.63788414 122.39107323 C148.64077365 122.40903458 137.64366775 122.42341293 126.64654518 122.43124963 C124.63429244 122.43268811 122.62203971 122.43413948 120.60978699 122.43560791 C119.61063291 122.43633352 119.61063291 122.43633352 118.59129389 122.43707379 C107.80420334 122.44537164 97.01722378 122.47070456 86.23018167 122.50318859 C75.15140801 122.53627867 64.07268053 122.55393987 52.99385613 122.55746621 C46.77509956 122.5598181 40.55651839 122.56879684 34.33780861 122.59392738 C28.48634741 122.61719145 22.63517731 122.62144786 16.78368187 122.611166 C14.63749092 122.61067013 12.49128572 122.61700565 10.34513855 122.63072205 C7.41158773 122.64841988 4.47908395 122.6413448 1.54553223 122.62818909 C0.6993089 122.63915833 -0.14691443 122.65012758 -1.01878089 122.66142923 C-6.7467095 122.5995545 -11.11480348 121.36027587 -15.90022278 118.14044189 C-20.89783976 112.75839283 -21.05634411 108.96117469 -21.07722473 101.82891846 C-21.08379593 100.8629071 -21.09036713 99.89689575 -21.09713745 98.90161133 C-21.1168983 95.69476245 -21.12853958 92.48796048 -21.13850403 89.28106689 C-21.14257956 88.18713371 -21.14665508 87.09320053 -21.15085411 85.96611786 C-21.17172725 80.17559497 -21.1860233 74.38509586 -21.19538879 68.59454346 C-21.20645268 62.61111072 -21.24084911 56.62804993 -21.28056049 50.64474869 C-21.30669851 46.04650172 -21.31507817 41.44834372 -21.31867027 36.85002899 C-21.3235439 34.64442179 -21.33517986 32.43881876 -21.35370827 30.233284 C-21.37803807 27.14507039 -21.37714561 24.05782343 -21.37019348 20.96954346 C-21.38300354 20.05918335 -21.3958136 19.14882324 -21.40901184 18.21087646 C-21.36366737 12.6812845 -20.5919153 9.52416649 -16.90022278 5.14044189 C-11.42624077 0.20050691 -7.13384875 -0.00713351 0 0 Z M-4.90022278 16.14044189 C-4.90022278 45.84044189 -4.90022278 75.54044189 -4.90022278 106.14044189 C67.03977722 106.14044189 138.97977722 106.14044189 213.09977722 106.14044189 C213.09977722 76.44044189 213.09977722 46.74044189 213.09977722 16.14044189 C141.15977722 16.14044189 69.21977722 16.14044189 -4.90022278 16.14044189 Z " fill="#558FCF" transform="translate(20.900222778320313,129.85955810546875)"/>
<path d="M0 0 C0.88884201 -0.00226556 1.77768402 -0.00453111 2.69346064 -0.00686532 C5.67193029 -0.01319559 8.65035432 -0.01237658 11.62882996 -0.0115509 C13.76434386 -0.01454301 15.89985722 -0.01794566 18.03536987 -0.02172852 C23.8370817 -0.03056769 29.63877878 -0.0329066 35.44049668 -0.0335443 C40.28389984 -0.03449375 45.12729956 -0.03817249 49.9707014 -0.0417164 C61.39841269 -0.04986072 72.8261161 -0.05230066 84.25382996 -0.05158997 C96.04113482 -0.05098923 107.82839391 -0.06154029 119.61568719 -0.07733363 C129.73642594 -0.09041068 139.85714973 -0.09577379 149.97789687 -0.09513456 C156.02218496 -0.09487961 162.06643238 -0.09772901 168.11071205 -0.10831261 C173.79634299 -0.11799627 179.4818944 -0.11807087 185.16752815 -0.11079597 C187.25243496 -0.10975046 189.33734672 -0.11211106 191.42224503 -0.11815643 C194.27223127 -0.12588396 197.1219434 -0.12122642 199.97192383 -0.11352539 C201.20419393 -0.12124074 201.20419393 -0.12124074 202.46135837 -0.12911195 C208.73134452 -0.09177259 214.55091754 0.50005598 219.98893738 3.88371277 C225.2827157 9.3287419 225.61676681 14.59415557 225.58049011 21.79167175 C225.58735336 22.74690735 225.59421661 23.70214294 225.60128784 24.68632507 C225.61954313 27.83430474 225.61572007 30.98178543 225.61003113 34.12980652 C225.61459351 36.32406781 225.61989926 38.51832767 225.62591553 40.71258545 C225.63484414 45.30817983 225.63242623 49.90360041 225.6224823 54.49919128 C225.61099286 60.38157881 225.63120545 66.26336603 225.66039944 72.14567471 C225.67876591 76.67621659 225.67846805 81.20661474 225.67276192 85.73718452 C225.67260876 87.90566411 225.67864849 90.07415347 225.69105339 92.24259758 C225.70596967 95.27756537 225.69528106 98.31142557 225.67814636 101.34635925 C225.69264832 102.68305412 225.69264832 102.68305412 225.70744324 104.04675293 C225.63831253 109.90916407 224.78123088 113.43204375 221.17643738 118.13371277 C215.5945846 122.08221178 211.46474435 122.71140495 204.72599792 122.64164734 C203.79390597 122.6478873 202.86181402 122.65412726 201.90147686 122.66055632 C198.78844346 122.67646923 195.67619489 122.66388847 192.56315613 122.65129089 C190.32719975 122.65671275 188.09124695 122.66383576 185.8553009 122.67253113 C179.789234 122.69075964 173.72343935 122.68369871 167.65736771 122.67101479 C161.30784117 122.66088479 154.95833788 122.67028047 148.60881042 122.67655945 C137.26318169 122.68430185 125.91769113 122.67187448 114.57209003 122.6515221 C104.29203252 122.63365185 94.01215569 122.6367562 83.73210144 122.65519714 C71.78466577 122.67661919 59.83733981 122.68456279 47.88987827 122.67274809 C41.56896184 122.66651331 35.24816979 122.66567727 28.92726135 122.67889404 C22.98460379 122.69045203 17.04228733 122.68242726 11.0996666 122.65931702 C8.91920411 122.65402972 6.73871291 122.65554401 4.55826187 122.66436768 C1.5807465 122.67530558 -1.39567727 122.66158008 -4.37312317 122.64164734 C-5.66608039 122.65503167 -5.66608039 122.65503167 -6.98515797 122.66868639 C-12.7385886 122.59402679 -16.10222835 121.47366028 -20.82356262 118.13371277 C-25.0387875 112.6318634 -25.40293875 108.15159193 -25.34114075 101.36222839 C-25.34815002 100.40684677 -25.3551593 99.45146515 -25.36238098 98.46713257 C-25.3799158 95.32444269 -25.36835394 92.18266103 -25.35481262 89.03996277 C-25.35750882 86.84713062 -25.36139231 84.65429963 -25.3664093 82.46147156 C-25.37229825 77.87179654 -25.36376056 73.28243348 -25.345047 68.6927948 C-25.32225815 62.8182568 -25.33538442 56.94444986 -25.35933685 51.06993866 C-25.37381093 46.54367086 -25.36918138 42.01757556 -25.35882568 37.49130249 C-25.35616287 35.32562167 -25.35941245 33.15992505 -25.3687439 30.9942627 C-25.37893572 27.96415393 -25.36337088 24.9352188 -25.34114075 21.90519714 C-25.34923767 21.01563828 -25.35733459 20.12607941 -25.36567688 19.20956421 C-25.28646347 13.36294266 -24.17643539 9.95205089 -20.82356262 5.13371277 C-14.83171835 -0.09407082 -7.53087163 -0.01408143 0 0 Z M-8.82356262 17.13371277 C-8.82356262 46.50371277 -8.82356262 75.87371277 -8.82356262 106.13371277 C-4.15898271 107.06662875 0.09667636 107.27645335 4.81259155 107.26742554 C5.68116565 107.26969109 6.54973974 107.27195665 7.44463426 107.27429086 C10.35419089 107.28061961 13.2637008 107.27980223 16.17326355 107.27897644 C18.25940003 107.28196851 20.34553595 107.28537115 22.43167114 107.28915405 C28.0966209 107.29799036 33.76155555 107.30033193 39.42651153 107.30096984 C44.15118454 107.30191891 48.87585402 107.30559693 53.60052568 107.30914193 C64.74033335 107.31728402 75.88013293 107.31972628 87.01994324 107.3190155 C98.52789358 107.3184138 110.03579718 107.32898463 121.54373568 107.34475917 C131.41470123 107.35780976 141.28565145 107.36320049 151.15662557 107.36256009 C157.05652307 107.3623045 162.95637899 107.3651895 168.85626793 107.37573814 C174.3990659 107.38537821 179.94178215 107.38552663 185.4845829 107.37822151 C187.52363325 107.37717076 189.56268859 107.37956735 191.60173035 107.38558197 C194.37499618 107.39323554 197.14797502 107.38870165 199.92123413 107.38095093 C200.73687889 107.38609449 201.55252365 107.39123805 202.39288491 107.39653748 C206.75146401 107.54031116 206.75146401 107.54031116 210.17643738 105.13371277 C210.37503185 102.37343573 210.4491454 99.71348008 210.43522644 96.95207214 C210.43873108 96.10643204 210.44223572 95.26079193 210.44584656 94.38952637 C210.45467183 91.58542244 210.44881194 88.78156941 210.44206238 85.97746277 C210.4434088 84.03455049 210.44534914 82.09163854 210.44786072 80.14872742 C210.45081306 76.0732147 210.4465108 71.99778954 210.43717957 67.92228699 C210.42578498 62.68962892 210.43234386 57.45717599 210.44432449 52.22452545 C210.45154012 48.21147608 210.44925653 44.19847562 210.44406891 40.1854248 C210.44273159 38.25564551 210.444383 36.32586182 210.44902802 34.39608765 C210.45408837 31.70238935 210.44639 29.0090266 210.43522644 26.31535339 C210.44129913 25.11058098 210.44129913 25.11058098 210.44749451 23.88146973 C210.58037259 19.54184383 210.58037259 19.54184383 208.17643738 16.13371277 C205.36241462 15.93806699 202.64692656 15.86891921 199.83184814 15.88647461 C198.95837579 15.88406019 198.08490343 15.88164578 197.18496221 15.8791582 C194.24072104 15.87349578 191.2966944 15.88220348 188.35246277 15.89079285 C186.24868714 15.88972059 184.14491181 15.88778274 182.0411377 15.88504028 C176.31393564 15.88017953 170.58681111 15.88786317 164.85961843 15.89799333 C158.87655677 15.906755 152.89349767 15.90501674 146.91043091 15.90463257 C136.86017046 15.90557015 126.80994015 15.91426626 116.75968933 15.92790222 C105.12856921 15.94362445 93.49748212 15.94890052 81.86635214 15.94816667 C70.69427726 15.94755689 59.52221317 15.95265802 48.35014153 15.96095848 C43.588235 15.96449533 38.82633229 15.96632231 34.06442451 15.96685219 C28.45929818 15.9678547 22.85419971 15.97394385 17.24908257 15.98401833 C15.18788193 15.98694616 13.12667809 15.98816812 11.06547546 15.98759079 C8.25962382 15.98710217 5.45385095 15.99273537 2.64801025 16 C1.41417 15.9976771 1.41417 15.9976771 0.15540367 15.99530727 C-3.09823131 16.00929202 -5.71448945 16.09735504 -8.82356262 17.13371277 Z " fill="#568FCF" transform="translate(286.8235626220703,389.8662872314453)"/>
<path d="M0 0 C0.93209195 -0.00623996 1.8641839 -0.01247993 2.82452106 -0.01890898 C5.93755447 -0.03482189 9.04980304 -0.02224113 12.1628418 -0.00964355 C14.39879817 -0.01506541 16.63475098 -0.02218843 18.87069702 -0.03088379 C24.93676393 -0.0491123 31.00255858 -0.04205137 37.06863022 -0.02936745 C43.41815675 -0.01923745 49.76766005 -0.02863314 56.1171875 -0.03491211 C67.46281624 -0.04265451 78.80830679 -0.03022714 90.1539079 -0.00987476 C100.43396541 0.00799549 110.71384223 0.00489114 120.99389648 -0.0135498 C132.94133215 -0.03497185 144.88865811 -0.04291545 156.83611965 -0.03110075 C163.15703609 -0.02486597 169.47782814 -0.02402993 175.79873657 -0.0372467 C181.74139413 -0.0488047 187.6837106 -0.04077992 193.62633133 -0.01766968 C195.80679381 -0.01238239 197.98728502 -0.01389667 200.16773605 -0.02272034 C203.14525142 -0.03365824 206.12167519 -0.01993274 209.09912109 0 C209.96109258 -0.00892289 210.82306406 -0.01784577 211.71115589 -0.02703905 C217.46458653 0.04762055 220.82822628 1.16798705 225.54956055 4.50793457 C229.76478542 10.00978394 230.12893667 14.49005541 230.06713867 21.27941895 C230.07414795 22.23480057 230.08115723 23.19018219 230.08837891 24.17451477 C230.10591372 27.31720465 230.09435187 30.45898631 230.08081055 33.60168457 C230.08350675 35.79451672 230.08739024 37.98734771 230.09240723 40.18017578 C230.09829618 44.7698508 230.08975848 49.35921386 230.07104492 53.94885254 C230.04825607 59.82339054 230.06138234 65.69719748 230.08533478 71.57170868 C230.09980886 76.09797647 230.09517931 80.62407178 230.08482361 85.15034485 C230.08216079 87.31602567 230.08541037 89.48172229 230.09474182 91.64738464 C230.10493364 94.67749341 230.08936881 97.70642854 230.06713867 100.7364502 C230.0752356 101.62600906 230.08333252 102.51556793 230.0916748 103.43208313 C230.01246139 109.27870468 228.90243332 112.68959645 225.54956055 117.50793457 C219.56113768 122.73273304 212.25988462 122.65625799 204.73272705 122.64837646 C203.8445906 122.65134759 202.95645416 122.65431871 202.04140449 122.65737987 C199.06527247 122.66605173 196.08918075 122.66757384 193.11303711 122.66906738 C190.97914545 122.67369661 188.84525462 122.67872141 186.71136475 122.68411255 C180.91372108 122.69722812 175.11608899 122.70367983 169.31843281 122.70812321 C165.69560147 122.71105519 162.07277329 122.71516023 158.44994354 122.71962738 C147.11287966 122.73329986 135.77582301 122.74296784 124.43875146 122.74682927 C111.35550877 122.75131006 98.27237055 122.76886004 85.18915963 122.79782987 C75.07350076 122.81945062 64.95787128 122.82953376 54.84218955 122.83087039 C48.80175748 122.8319181 42.76142366 122.83781878 36.72101593 122.85569 C31.03781756 122.87217747 25.35479122 122.8743228 19.67157745 122.86555099 C17.58869974 122.864781 15.50581275 122.86911838 13.42295837 122.87900925 C10.5732113 122.89174549 7.72407198 122.88584272 4.87432861 122.87542725 C4.05572806 122.88348365 3.2371275 122.89154006 2.39372087 122.89984059 C-4.60118057 122.84030256 -10.91916623 121.60835278 -16.38793945 117.07043457 C-19.25071863 113.51364832 -20.69639702 110.9098711 -20.71786499 106.31559753 C-20.72639496 105.48721375 -20.73492493 104.65882996 -20.74371338 103.80534363 C-20.74280701 102.90499893 -20.74190063 102.00465424 -20.7409668 101.07702637 C-20.75104263 99.64461105 -20.75104263 99.64461105 -20.76132202 98.18325806 C-20.78032862 95.02450362 -20.78422771 91.8659614 -20.78637695 88.70715332 C-20.7928035 86.51003431 -20.79953175 84.31291616 -20.80654907 82.11579895 C-20.81852884 77.50829078 -20.82222922 72.90085761 -20.82104492 68.29333496 C-20.8208418 62.39522348 -20.84813373 56.49759423 -20.88258934 50.59959698 C-20.90485083 46.06048889 -20.90888267 41.52149694 -20.90782547 36.98233986 C-20.91018295 34.80826978 -20.91901469 32.63419656 -20.9344902 30.46018028 C-20.9541325 27.41545455 -20.9483184 24.37176963 -20.9362793 21.32702637 C-20.94751831 20.43275436 -20.95875732 19.53848236 -20.97033691 18.61711121 C-20.91144758 12.7426001 -20.06528607 9.21779415 -16.45043945 4.50793457 C-10.86841062 0.55961719 -6.73883595 -0.06975854 0 0 Z M-4.45043945 16.50793457 C-4.47356173 28.09481859 -4.49135395 39.68169716 -4.50225163 51.26859951 C-4.50748071 56.64827219 -4.5145788 62.02792915 -4.52587891 67.40759277 C-4.5367069 72.594683 -4.5427161 77.78175806 -4.5453167 82.96885872 C-4.54717111 84.95249737 -4.55079202 86.93613515 -4.55616951 88.91976738 C-4.56337878 91.68802593 -4.56443044 94.45622095 -4.56396484 97.2244873 C-4.56756012 98.05310776 -4.5711554 98.88172821 -4.57485962 99.73545837 C-4.92162125 103.42296085 -4.92162125 103.42296085 -3.45043945 106.50793457 C-0.67111155 106.6080471 2.08343931 106.64232821 4.86328125 106.63491821 C6.1865755 106.6372582 6.1865755 106.6372582 7.53660297 106.63964546 C10.51619918 106.64365939 13.49574514 106.6404643 16.4753418 106.6373291 C18.60191884 106.63868297 20.72849566 106.64046282 22.85507202 106.64263916 C28.64828944 106.64721523 34.44148913 106.64542322 40.23470688 106.64226007 C46.28277384 106.63973737 52.33083923 106.64207376 58.37890625 106.64364624 C68.53768182 106.6454682 78.69645014 106.64306094 88.85522461 106.63830566 C100.61871453 106.632863 112.38218712 106.63462563 124.14567661 106.64013207 C134.22546061 106.64466245 144.30523938 106.64531412 154.38502407 106.6426934 C160.41404441 106.64113021 166.44305659 106.64093799 172.47207642 106.64422989 C178.13873739 106.64710752 183.80537592 106.6451349 189.47203445 106.63933563 C191.55826403 106.63800745 193.64449549 106.63840312 195.73072433 106.6405983 C198.56578881 106.64330754 201.40078011 106.63993146 204.23583984 106.63491821 C205.07268971 106.63714893 205.90953959 106.63937966 206.77174854 106.64167798 C210.46237846 106.98176537 210.46237846 106.98176537 213.54956055 105.50793457 C213.65006268 102.74392049 213.6857213 100.00486231 213.67895508 97.24035645 C213.6807074 96.37374893 213.68245972 95.50714142 213.68426514 94.61427307 C213.68868479 91.73505684 213.68574527 88.85590148 213.68237305 85.97668457 C213.68304605 83.9851073 213.68401605 81.99353011 213.68527222 80.00195312 C213.68674934 75.82213562 213.68459416 71.64233945 213.67993164 67.46252441 C213.67423435 62.09190931 213.67751327 56.72134417 213.6835041 51.3507309 C213.68710932 47.23650737 213.68597132 43.12229578 213.68337631 39.0080719 C213.68270693 37.02722671 213.68353585 35.04638045 213.68585587 33.0655365 C213.68838174 30.30216581 213.68454273 27.53887723 213.67895508 24.7755127 C213.68199142 23.53493858 213.68199142 23.53493858 213.68508911 22.26930237 C214.02274803 18.58736732 214.02274803 18.58736732 212.54956055 15.50793457 C209.81479181 15.40784471 207.10520667 15.37353817 204.36991882 15.38095093 C203.50209001 15.37939094 202.63426119 15.37783095 201.74013454 15.37622368 C198.8089986 15.37220974 195.87791374 15.37540488 192.94677734 15.37854004 C190.85462412 15.37718614 188.76247113 15.37540628 186.6703186 15.37322998 C180.96987191 15.36865342 175.26944322 15.37044634 169.56899619 15.37360907 C163.61442245 15.37613252 157.65985029 15.37379508 151.70527649 15.3722229 C141.70032473 15.37040074 131.69538033 15.37280829 121.69042969 15.37756348 C110.11445165 15.38300173 98.53849123 15.3812468 86.96251363 15.37573707 C77.03809543 15.37120195 67.11368254 15.37055749 57.18926364 15.37317574 C51.25572185 15.37473689 45.32218834 15.37493679 39.38864708 15.37163925 C33.8081581 15.36875493 28.22769187 15.37074664 22.64720535 15.37653351 C20.5960996 15.37785827 18.54499195 15.37747178 16.49388695 15.37527084 C13.699283 15.37254814 10.90475244 15.37595436 8.1101532 15.38095093 C7.2937147 15.37872021 6.4772762 15.37648948 5.63609713 15.37419116 C2.10202476 15.38649042 -1.05006357 15.55792737 -4.45043945 16.50793457 Z " fill="#568FCF" transform="translate(151.450439453125,-0.5079345703125)"/>
<path d="M0 0 C0.92121271 -0.00297112 1.84242543 -0.00594224 2.79155368 -0.0090034 C5.89145565 -0.01770432 8.99131907 -0.01919982 12.0912323 -0.02069092 C14.30851321 -0.02531809 16.52579333 -0.03034261 18.74307251 -0.03573608 C24.77616287 -0.04887142 30.80924209 -0.0553072 36.84234452 -0.05974674 C40.609535 -0.06267551 44.37672242 -0.06677993 48.14391136 -0.07125092 C58.57444638 -0.0833609 69.00497923 -0.09374269 79.43552113 -0.09712601 C80.10308653 -0.09734557 80.77065194 -0.09756514 81.4584466 -0.09779136 C82.46218839 -0.09811878 82.46218839 -0.09811878 83.48620778 -0.09845281 C84.8421795 -0.09889627 86.19815121 -0.09934284 87.55412292 -0.09979248 C88.56303578 -0.10012463 88.56303578 -0.10012463 89.59233072 -0.10046348 C100.4906811 -0.10441139 111.38896462 -0.12186529 122.28728918 -0.145152 C133.47679484 -0.16886787 144.66627611 -0.18106999 155.85580939 -0.18249393 C162.1381835 -0.18354325 168.4204633 -0.18947823 174.7028141 -0.20731354 C180.61168802 -0.22376194 186.52039643 -0.22596539 192.42928505 -0.21717453 C194.59888654 -0.21640244 196.76849681 -0.22076946 198.93807602 -0.23063278 C201.89845019 -0.24330268 204.85823375 -0.23750229 207.81860352 -0.22705078 C209.10834988 -0.23913539 209.10834988 -0.23913539 210.42415172 -0.25146413 C216.08026156 -0.2047178 220.44185742 0.65929586 224.74430847 4.67559814 C228.98631676 10.22283975 229.25666576 13.58176485 229.27677917 20.45196533 C229.28335037 21.41797668 229.28992157 22.38398804 229.29669189 23.37927246 C229.31645274 26.58612134 229.32809402 29.79292331 229.33805847 32.99981689 C229.342134 34.09375008 229.34620953 35.18768326 229.35040855 36.31476593 C229.37128169 42.10528882 229.38557774 47.89578793 229.39494324 53.68634033 C229.40600713 59.66977307 229.44040355 65.65283386 229.48011494 71.6361351 C229.50625295 76.23438207 229.51463262 80.83254007 229.51822472 85.4308548 C229.52309834 87.636462 229.5347343 89.84206503 229.55326271 92.04759979 C229.57759251 95.1358134 229.57670005 98.22306036 229.56974792 101.31134033 C229.58896301 102.67688049 229.58896301 102.67688049 229.60856628 104.07000732 C229.5633149 109.5882479 228.81929793 112.78751247 225.09977722 117.14044189 C219.08421378 121.68280613 214.63985645 122.28919359 207.28894043 122.28761292 C205.92148871 122.29312795 205.92148871 122.29312795 204.52641171 122.29875439 C201.45882023 122.3098044 198.3912626 122.31363731 195.32365417 122.31744385 C193.12932222 122.32370751 190.93499134 122.33035422 188.74066162 122.33735657 C182.76942186 122.35477537 176.79819011 122.36532077 170.82693124 122.3735621 C167.09724745 122.37871046 163.36756616 122.38478627 159.63788414 122.39107323 C148.64077365 122.40903458 137.64366775 122.42341293 126.64654518 122.43124963 C124.63429244 122.43268811 122.62203971 122.43413948 120.60978699 122.43560791 C119.61063291 122.43633352 119.61063291 122.43633352 118.59129389 122.43707379 C107.80420334 122.44537164 97.01722378 122.47070456 86.23018167 122.50318859 C75.15140801 122.53627867 64.07268053 122.55393987 52.99385613 122.55746621 C46.77509956 122.5598181 40.55651839 122.56879684 34.33780861 122.59392738 C28.48634741 122.61719145 22.63517731 122.62144786 16.78368187 122.611166 C14.63749092 122.61067013 12.49128572 122.61700565 10.34513855 122.63072205 C7.41158773 122.64841988 4.47908395 122.6413448 1.54553223 122.62818909 C0.6993089 122.63915833 -0.14691443 122.65012758 -1.01878089 122.66142923 C-6.75273484 122.59948941 -11.10414194 121.34977208 -15.90022278 118.14044189 C-19.5291982 114.32536517 -21.01627867 111.30030763 -21.0473938 106.06163025 C-21.0545491 105.23317596 -21.06170441 104.40472168 -21.06907654 103.55116272 C-21.07176544 102.6456517 -21.07445435 101.74014069 -21.07722473 100.80718994 C-21.08379593 99.85078613 -21.09036713 98.89438232 -21.09713745 97.90899658 C-21.11686832 94.74005049 -21.128532 91.57115176 -21.13850403 88.40216064 C-21.14257956 87.3201771 -21.14665508 86.23819355 -21.15085411 85.12342262 C-21.17171296 79.39773372 -21.18601606 73.67206878 -21.19538879 67.9463501 C-21.20645877 62.0313256 -21.24086629 56.11667672 -21.28056049 50.20178509 C-21.30669728 45.6541524 -21.31507799 41.10660966 -21.31867027 36.55890846 C-21.32354303 34.37842074 -21.33517654 32.19793722 -21.35370827 30.01752281 C-21.37803888 26.96533742 -21.37714567 23.91413 -21.37019348 20.86187744 C-21.38300354 19.96243912 -21.3958136 19.06300079 -21.40901184 18.13630676 C-21.36336633 12.63481395 -20.56582237 9.50475843 -16.90022278 5.14044189 C-11.42624077 0.20050691 -7.13384875 -0.00713351 0 0 Z M-4.90022278 16.14044189 C-4.90022278 45.84044189 -4.90022278 75.54044189 -4.90022278 106.14044189 C67.03977722 106.14044189 138.97977722 106.14044189 213.09977722 106.14044189 C214.70103229 102.93793176 214.23801864 99.46009971 214.22917175 95.94293213 C214.23092407 95.09568573 214.23267639 94.24843933 214.23448181 93.3755188 C214.23889387 90.56667043 214.23596486 87.75788469 214.23258972 84.94903564 C214.23326288 83.00372811 214.23423301 81.05842065 214.23548889 79.1131134 C214.23696494 75.03342896 214.23481405 70.95376638 214.23014832 66.87408447 C214.22444731 61.63241304 214.22773298 56.39079276 214.23372078 51.14912319 C214.23732568 47.13183707 214.2361882 43.11456317 214.23359299 39.09727669 C214.23292372 37.16387997 214.23375215 35.23048216 214.23607254 33.29708672 C214.23859831 30.60088004 214.23475973 27.9047575 214.22917175 25.20855713 C214.2322081 23.9983918 214.2322081 23.9983918 214.23530579 22.76377869 C214.56064331 19.15458276 214.56064331 19.15458276 213.09977722 16.14044189 C210.29292371 16.04253571 207.51067786 16.01051386 204.70339966 16.02018738 C203.81233082 16.01933295 202.92126198 16.01847853 202.00319105 16.01759821 C198.99361845 16.01594067 195.98410062 16.02146924 192.97453308 16.0269165 C190.82662965 16.02719834 188.67872613 16.02704071 186.53082275 16.026474 C180.67982053 16.02618589 174.82883862 16.03208469 168.97784114 16.03904796 C162.87058409 16.04527937 156.76332663 16.04588512 150.65606689 16.04707336 C139.08215757 16.05018731 127.50825764 16.05840155 115.93435246 16.06842285 C102.76166699 16.07958203 89.58898109 16.08509395 76.41629207 16.09011829 C49.31078071 16.10058411 22.20528223 16.11893038 -4.90022278 16.14044189 Z " fill="#568FCE" transform="translate(282.9002227783203,129.85955810546875)"/>
<path d="M0 0 C0.88899087 -0.00297112 1.77798174 -0.00594224 2.69391173 -0.0090034 C5.6669377 -0.01766142 8.63992325 -0.01919619 11.61296082 -0.02069092 C13.74699997 -0.02532108 15.88103831 -0.03034601 18.01507568 -0.03573608 C23.80852804 -0.04884152 29.60196881 -0.05530123 35.39543366 -0.05974674 C39.01609277 -0.06267999 42.63674872 -0.06678524 46.25740623 -0.07125092 C57.58912733 -0.08491991 68.92084121 -0.09458994 80.25256997 -0.09845281 C93.32731257 -0.10293459 106.40195068 -0.12049065 119.4766615 -0.1494534 C129.58809428 -0.17107367 139.69949767 -0.18115725 149.81095332 -0.18249393 C155.84801706 -0.18354154 161.88498249 -0.18944052 167.92202187 -0.20731354 C173.60112964 -0.22380046 179.28006527 -0.22594661 184.95918846 -0.21717453 C187.04045447 -0.21640454 189.12172976 -0.22074183 191.20297241 -0.23063278 C194.0504766 -0.24336907 196.89737257 -0.23746628 199.74487305 -0.22705078 C200.9717507 -0.23913539 200.9717507 -0.23913539 202.22341377 -0.25146413 C209.21640559 -0.1918949 215.53329236 1.04139582 221.00041199 5.57794189 C223.86319116 9.13472814 225.30886955 11.73850536 225.33033752 16.33277893 C225.34313248 17.57535461 225.34313248 17.57535461 225.35618591 18.84303284 C225.35482635 20.19354988 225.35482635 20.19354988 225.35343933 21.5713501 C225.36015656 22.52629364 225.36687378 23.48123718 225.37379456 24.46511841 C225.39280116 27.62387285 225.39670024 30.78241507 225.39884949 33.94122314 C225.40527603 36.13834216 225.41200429 38.33546031 225.41902161 40.53257751 C225.43100137 45.14008569 225.43470175 49.74751885 225.43351746 54.3550415 C225.43331434 60.25315298 225.46060626 66.15078224 225.49506187 72.04877949 C225.51732336 76.58788757 225.5213552 81.12687952 225.520298 85.66603661 C225.52265548 87.84010669 225.53148722 90.0141799 225.54696274 92.18819618 C225.56660503 95.23292192 225.56079093 98.27660684 225.54875183 101.3213501 C225.55999084 102.2156221 225.57122986 103.1098941 225.58280945 104.03126526 C225.52392012 109.90577637 224.6777586 113.43058232 221.06291199 118.14044189 C214.55748578 123.83054281 206.25451144 122.69611064 198.07756042 122.64215088 C196.44594355 122.64593692 194.81432989 122.65143932 193.182724 122.65852356 C188.76558515 122.67245385 184.34883683 122.66132754 179.93171978 122.64481235 C175.30733638 122.63094187 170.68297519 122.63742384 166.05857849 122.64094543 C158.2979148 122.64364489 150.53740601 122.63019098 142.77677917 122.60699463 C133.79992299 122.58034905 124.82332515 122.57865064 115.84644294 122.59038299 C107.20999068 122.60115206 98.57363201 122.594983 89.93718719 122.58082771 C86.26099184 122.5750641 82.58486489 122.57515343 78.90866852 122.57989311 C74.58460666 122.5846566 70.26082879 122.57458758 65.93682098 122.55293846 C64.34810341 122.54736319 62.75935859 122.54691207 61.17063904 122.55189133 C59.00629961 122.55782532 56.84283415 122.54537703 54.67857361 122.52812195 C53.46628963 122.52569205 52.25400566 122.52326216 51.00498581 122.52075863 C48.06291199 122.14044189 48.06291199 122.14044189 46.20021439 120.76464939 C44.63026699 118.52257171 44.25784967 116.86956945 44.06291199 114.14044189 C44.99907449 111.04390438 45.76714521 109.43620867 48.06291199 107.14044189 C51.00843143 106.73037052 51.00843143 106.73037052 54.74383545 106.52253723 C55.41368928 106.48489464 56.0835431 106.44725206 56.77369553 106.40846878 C63.90319781 106.03943383 71.03029126 106.00734589 78.1681366 106.0269165 C79.60875446 106.02719955 81.04937246 106.02703835 82.48999023 106.026474 C86.34849611 106.02619061 90.20697001 106.03201225 94.06546855 106.03904796 C98.11731342 106.04535874 102.16915927 106.04589134 106.2210083 106.04707336 C113.87036466 106.05016414 121.51970648 106.05834672 129.16905648 106.06842285 C139.52215866 106.08176042 149.8752649 106.08710213 160.22837353 106.09292507 C176.50656387 106.10228846 192.78472357 106.12222231 209.06291199 106.14044189 C209.06291199 76.77044189 209.06291199 47.40044189 209.06291199 17.14044189 C137.45291199 17.14044189 65.84291199 17.14044189 -7.93708801 17.14044189 C-7.93708801 46.51044189 -7.93708801 75.88044189 -7.93708801 106.14044189 C6.91291199 106.63544189 6.91291199 106.63544189 22.06291199 107.14044189 C25.06291199 110.14044189 25.06291199 110.14044189 25.46134949 112.29669189 C25.45361511 113.07012939 25.44588074 113.84356689 25.43791199 114.64044189 C25.44951355 115.80059814 25.44951355 115.80059814 25.46134949 116.98419189 C24.93967315 119.80738149 24.41786087 120.47621966 22.06291199 122.14044189 C19.34478587 122.45119754 16.8604072 122.58467958 14.14103699 122.57403564 C13.36282593 122.5792775 12.58461487 122.58451935 11.78282166 122.58992004 C10.1353118 122.59634226 8.48775611 122.59500062 6.84025574 122.58648682 C4.33550245 122.57801827 1.83306247 122.60666413 -0.67146301 122.63848877 C-2.275629 122.64010211 -3.87979899 122.6395207 -5.48396301 122.63653564 C-6.22587891 122.64776962 -6.9677948 122.6590036 -7.73219299 122.670578 C-13.02380013 122.60071475 -16.80942571 121.52031904 -20.93708801 118.14044189 C-24.97102921 112.48719745 -25.51692256 108.20868514 -25.45466614 101.36895752 C-25.46167542 100.4135759 -25.46868469 99.45819427 -25.47590637 98.47386169 C-25.49344119 95.33117182 -25.48187933 92.18939016 -25.46833801 89.04669189 C-25.47103421 86.85385974 -25.4749177 84.66102876 -25.47993469 82.46820068 C-25.48582364 77.87852566 -25.47728595 73.28916261 -25.45857239 68.69952393 C-25.43578354 62.82498592 -25.44890981 56.95117898 -25.47286224 51.07666779 C-25.48733632 46.55039999 -25.48270677 42.02430469 -25.47235107 37.49803162 C-25.46968826 35.3323508 -25.47293784 33.16665417 -25.48226929 31.00099182 C-25.49246111 27.97088306 -25.47689627 24.94194793 -25.45466614 21.91192627 C-25.46276306 21.0223674 -25.47085999 20.13280853 -25.47920227 19.21629333 C-25.39992676 13.36508795 -24.33182556 9.94278649 -20.93708801 5.14044189 C-14.5104801 -0.16849508 -7.93872991 -0.00834184 0 0 Z " fill="#5590CF" transform="translate(24.937088012695313,389.85955810546875)"/>
<path d="M0 0 C0.97353875 -0.00339833 0.97353875 -0.00339833 1.96674496 -0.00686532 C4.14541491 -0.01320452 6.32402264 -0.01237602 8.50270081 -0.0115509 C10.0631366 -0.01454242 11.62357166 -0.01794494 13.18400574 -0.02172852 C17.42570087 -0.03057292 21.66737585 -0.0329068 25.90907931 -0.0335443 C29.44796241 -0.03449312 32.9868408 -0.03817106 36.52572209 -0.0417164 C44.87335674 -0.04986245 53.2209806 -0.05230048 61.56861877 -0.05158997 C70.18518468 -0.05098896 78.80168803 -0.06154499 87.4182381 -0.07733363 C94.81193348 -0.09039974 102.20560839 -0.09577426 109.59931523 -0.09513456 C114.01707314 -0.09487932 118.43477546 -0.09774484 122.8525219 -0.10831261 C127.00655564 -0.1179781 131.16048044 -0.11808346 135.31451797 -0.11079597 C136.83993374 -0.10974824 138.36535623 -0.11212422 139.89076042 -0.11815643 C141.97157338 -0.1258527 144.05200792 -0.12124755 146.1328125 -0.11352539 C147.29774955 -0.11407016 148.4626866 -0.11461493 149.66292477 -0.1151762 C152.56965444 0.12865914 154.2070604 0.55794285 156.62989807 2.13371277 C158.71148827 4.81004303 158.62577398 6.25124944 158.50489807 9.69621277 C157.62989807 13.13371277 157.62989807 13.13371277 155.97779465 14.8260088 C152.89316669 16.54404879 150.71498266 16.50292623 147.18855286 16.49447632 C146.54401744 16.49703959 145.89948202 16.49960287 145.23541522 16.50224382 C143.07791719 16.50718123 140.92112057 16.49069048 138.76368713 16.47428894 C137.21631893 16.47344265 135.66894953 16.47391784 134.12158203 16.47561646 C129.92143419 16.47647778 125.72154297 16.45882991 121.52145481 16.43789458 C117.13189556 16.4191506 112.74233053 16.41737914 108.35273743 16.41381836 C100.04068633 16.40449119 91.72875349 16.37986832 83.41675448 16.34976989 C72.18457687 16.30997946 60.95236695 16.29377643 49.72013664 16.27626324 C32.02330186 16.2480477 14.32671664 16.18828268 -3.37010193 16.13371277 C-3.37010193 45.83371277 -3.37010193 75.53371277 -3.37010193 106.13371277 C68.56989807 106.13371277 140.50989807 106.13371277 214.62989807 106.13371277 C214.62989807 76.43371277 214.62989807 46.73371277 214.62989807 16.13371277 C203.73989807 16.13371277 192.84989807 16.13371277 181.62989807 16.13371277 C177.62989807 12.13371277 177.62989807 12.13371277 177.06739807 8.69621277 C177.78658027 4.14139215 179.02934913 2.95521817 182.62989807 0.13371277 C185.45982362 -0.35511834 187.67415137 -0.54749002 190.49317932 -0.49519348 C191.61939949 -0.49881142 191.61939949 -0.49881142 192.76837158 -0.50250244 C194.35272005 -0.50152588 195.93710344 -0.48817736 197.52125549 -0.46321106 C199.92520985 -0.42903161 202.32545586 -0.44252535 204.72950745 -0.46199036 C219.07181232 -0.44853945 219.07181232 -0.44853945 225.62989807 4.13371277 C230.62751506 9.51576183 230.78601941 13.31297997 230.80690002 20.44523621 C230.81347122 21.41124756 230.82004242 22.37725891 230.82681274 23.37254333 C230.84657359 26.57939221 230.85821487 29.78619419 230.86817932 32.99308777 C230.87225485 34.08702095 230.87633038 35.18095413 230.8805294 36.3080368 C230.90140254 42.0985597 230.91569859 47.88905881 230.92506409 53.67961121 C230.93612798 59.66304394 230.9705244 65.64610473 231.01023579 71.62940598 C231.0363738 76.22765294 231.04475347 80.82581095 231.04834557 85.42412567 C231.05321919 87.62973287 231.06485515 89.8353359 231.08338356 92.04087067 C231.10771336 95.12908428 231.1068209 98.21633123 231.09986877 101.30461121 C231.11908386 102.67015137 231.11908386 102.67015137 231.13868713 104.0632782 C231.09334266 109.59287016 230.3215906 112.74998817 226.62989807 117.13371277 C221.15591606 122.07364775 216.86352405 122.28128818 209.72967529 122.27415466 C208.80846258 122.27712579 207.88724987 122.28009691 206.93812162 122.28315806 C203.83821964 122.29185898 200.73835622 122.29335449 197.63844299 122.29484558 C195.42116208 122.29947275 193.20388196 122.30449727 190.98660278 122.30989075 C184.95351242 122.32302608 178.9204332 122.32946186 172.88733077 122.33390141 C169.12014029 122.33683017 165.35295287 122.34093459 161.58576393 122.34540558 C151.15522892 122.35751556 140.72469606 122.36789735 130.29415417 122.37128067 C129.62658876 122.37150024 128.95902335 122.3717198 128.27122869 122.37194602 C127.6020675 122.3721643 126.93290631 122.37238258 126.24346751 122.37260747 C124.88749579 122.37305094 123.53152408 122.3734975 122.17555237 122.37394714 C121.5029438 122.37416857 120.83033523 122.37439 120.13734458 122.37461814 C109.23899419 122.37856605 98.34071067 122.39601996 87.44238611 122.41930667 C76.25288045 122.44302254 65.06339918 122.45522466 53.8738659 122.45664859 C47.59149179 122.45769791 41.30921199 122.46363289 35.02686119 122.4814682 C29.11798727 122.4979166 23.20927887 122.50012005 17.30039024 122.49132919 C15.13078875 122.4905571 12.96117848 122.49492412 10.79159927 122.50478745 C7.8312251 122.51745734 4.87144155 122.51165695 1.91107178 122.50120544 C0.62132542 122.51329005 0.62132542 122.51329005 -0.69447643 122.52561879 C-6.35058627 122.47887247 -10.71218213 121.6148588 -15.01463318 117.59855652 C-19.25664146 112.05131492 -19.52699047 108.69238981 -19.54710388 101.82218933 C-19.55367508 100.85617798 -19.56024628 99.89016663 -19.5670166 98.8948822 C-19.58677745 95.68803333 -19.59841873 92.48123135 -19.60838318 89.27433777 C-19.61245871 88.18040459 -19.61653423 87.08647141 -19.62073326 85.95938873 C-19.6416064 80.16886584 -19.65590245 74.37836673 -19.66526794 68.58781433 C-19.67633183 62.60438159 -19.71072826 56.62132081 -19.75043964 50.63801956 C-19.77657766 46.0397726 -19.78495732 41.44161459 -19.78854942 36.84329987 C-19.79342305 34.63769266 -19.80505901 32.43208963 -19.82358742 30.22655487 C-19.84791722 27.13834126 -19.84702476 24.05109431 -19.84007263 20.96281433 C-19.85288269 20.05245422 -19.86569275 19.14209412 -19.87889099 18.20414734 C-19.83363961 12.68590676 -19.08962263 9.48664219 -15.37010193 5.13371277 C-10.10196459 1.15573151 -6.52604273 0.00939121 0 0 Z " fill="#558FCF" transform="translate(150.37010192871094,259.8662872314453)"/>
<path d="M0 0 C1.35663506 -0.0098568 1.35663506 -0.0098568 2.74067688 -0.01991272 C5.73768191 -0.03964342 8.7346368 -0.05130879 11.73168945 -0.0612793 C13.26817611 -0.06739259 13.26817611 -0.06739259 14.8357029 -0.07362938 C20.25895613 -0.09449069 25.68218407 -0.10879129 31.10546875 -0.11816406 C36.69969965 -0.12921925 42.29353178 -0.16360894 47.88762188 -0.20333576 C52.19514186 -0.22951779 56.50256713 -0.2378574 60.81015968 -0.24144554 C62.87177023 -0.24630859 64.93337663 -0.25791449 66.99490929 -0.27648354 C69.88624757 -0.30090489 72.7765583 -0.29990419 75.66796875 -0.29296875 C76.93620987 -0.31218384 76.93620987 -0.31218384 78.23007202 -0.33178711 C83.9799293 -0.28172901 88.35522107 0.94102602 93.1574707 4.17700195 C98.15508769 9.55905101 98.31359204 13.35626916 98.33447266 20.48852539 C98.34104385 21.45453674 98.34761505 22.4205481 98.35438538 23.41583252 C98.37414622 26.6226814 98.38578751 29.82948337 98.39575195 33.03637695 C98.39982748 34.13031013 98.40390301 35.22424332 98.40810204 36.35132599 C98.42897518 42.14184888 98.44327122 47.93234799 98.45263672 53.72290039 C98.46370061 59.70633313 98.49809704 65.68939391 98.53780842 71.67269516 C98.56394643 76.27094213 98.5723261 80.86910013 98.5759182 85.46741486 C98.58079182 87.67302206 98.59242779 89.87862509 98.61095619 92.08415985 C98.63528599 95.17237346 98.63439354 98.25962041 98.62744141 101.34790039 C98.64025146 102.2582605 98.65306152 103.16862061 98.66625977 104.10656738 C98.6209153 109.63615935 97.84916323 112.79327735 94.1574707 117.17700195 C88.64568874 122.15104909 84.2829229 122.32898342 77.09960938 122.33813477 C76.17246628 122.34309967 75.24532318 122.34806458 74.29008484 122.35317993 C71.21852886 122.36780186 68.14702454 122.37460373 65.07543945 122.38012695 C62.94175719 122.38587851 60.80807493 122.39163624 58.6743927 122.3973999 C54.19796508 122.40791007 49.72155542 122.41375259 45.24511719 122.41723633 C39.51176063 122.42272017 33.77864167 122.44674592 28.04535961 122.47520828 C23.63669646 122.49384088 19.22809045 122.49904061 14.81939125 122.5005722 C12.70590224 122.503598 10.59241422 122.51162403 8.47896385 122.52475739 C5.52029778 122.54183013 2.56221111 122.53993448 -0.39648438 122.53344727 C-1.26787048 122.54266205 -2.13925659 122.55187683 -3.03704834 122.56137085 C-8.74775406 122.52218776 -13.13948316 121.70027305 -17.48706055 117.6418457 C-21.72906883 112.0946041 -21.99941783 108.73567899 -22.01953125 101.86547852 C-22.02610245 100.89946716 -22.03267365 99.93345581 -22.03944397 98.93817139 C-22.05920482 95.73132251 -22.0708461 92.52452053 -22.08081055 89.31762695 C-22.08488607 88.22369377 -22.0889616 87.12976059 -22.09316063 86.00267792 C-22.11403377 80.21215502 -22.12832982 74.42165592 -22.13769531 68.63110352 C-22.1487592 62.64767078 -22.18315563 56.66460999 -22.22286701 50.68130875 C-22.24900503 46.08306178 -22.25738469 41.48490378 -22.26097679 36.88658905 C-22.26585042 34.68098185 -22.27748638 32.47537882 -22.29601479 30.26984406 C-22.32034459 27.18163045 -22.31945213 24.09438349 -22.3125 21.00610352 C-22.32531006 20.09574341 -22.33812012 19.1853833 -22.35131836 18.24743652 C-22.30606698 12.72919595 -21.56205 9.52993138 -17.8425293 5.17700195 C-11.82576153 0.63372833 -7.35426705 0.02311193 0 0 Z M-5.8425293 16.17700195 C-5.8425293 45.87700195 -5.8425293 75.57700195 -5.8425293 106.17700195 C23.1974707 106.17700195 52.2374707 106.17700195 82.1574707 106.17700195 C82.1574707 76.47700195 82.1574707 46.77700195 82.1574707 16.17700195 C53.1174707 16.17700195 24.0774707 16.17700195 -5.8425293 16.17700195 Z " fill="#5490CF" transform="translate(21.842529296875,259.822998046875)"/>
<path d="M0 0 C1.35663506 -0.0098568 1.35663506 -0.0098568 2.74067688 -0.01991272 C5.73768191 -0.03964342 8.7346368 -0.05130879 11.73168945 -0.0612793 C13.26817611 -0.06739259 13.26817611 -0.06739259 14.8357029 -0.07362938 C20.25895613 -0.09449069 25.68218407 -0.10879129 31.10546875 -0.11816406 C36.69969965 -0.12921925 42.29353178 -0.16360894 47.88762188 -0.20333576 C52.19514186 -0.22951779 56.50256713 -0.2378574 60.81015968 -0.24144554 C62.87177023 -0.24630859 64.93337663 -0.25791449 66.99490929 -0.27648354 C69.88624757 -0.30090489 72.7765583 -0.29990419 75.66796875 -0.29296875 C76.93620987 -0.31218384 76.93620987 -0.31218384 78.23007202 -0.33178711 C83.9799293 -0.28172901 88.35522107 0.94102602 93.1574707 4.17700195 C98.15508769 9.55905101 98.31359204 13.35626916 98.33447266 20.48852539 C98.34104385 21.45453674 98.34761505 22.4205481 98.35438538 23.41583252 C98.37414622 26.6226814 98.38578751 29.82948337 98.39575195 33.03637695 C98.39982748 34.13031013 98.40390301 35.22424332 98.40810204 36.35132599 C98.42897518 42.14184888 98.44327122 47.93234799 98.45263672 53.72290039 C98.46370061 59.70633313 98.49809704 65.68939391 98.53780842 71.67269516 C98.56394643 76.27094213 98.5723261 80.86910013 98.5759182 85.46741486 C98.58079182 87.67302206 98.59242779 89.87862509 98.61095619 92.08415985 C98.63528599 95.17237346 98.63439354 98.25962041 98.62744141 101.34790039 C98.64025146 102.2582605 98.65306152 103.16862061 98.66625977 104.10656738 C98.6209153 109.63615935 97.84916323 112.79327735 94.1574707 117.17700195 C88.64568874 122.15104909 84.2829229 122.32898342 77.09960938 122.33813477 C76.17246628 122.34309967 75.24532318 122.34806458 74.29008484 122.35317993 C71.21852886 122.36780186 68.14702454 122.37460373 65.07543945 122.38012695 C62.94175719 122.38587851 60.80807493 122.39163624 58.6743927 122.3973999 C54.19796508 122.40791007 49.72155542 122.41375259 45.24511719 122.41723633 C39.51176063 122.42272017 33.77864167 122.44674592 28.04535961 122.47520828 C23.63669646 122.49384088 19.22809045 122.49904061 14.81939125 122.5005722 C12.70590224 122.503598 10.59241422 122.51162403 8.47896385 122.52475739 C5.52029778 122.54183013 2.56221111 122.53993448 -0.39648438 122.53344727 C-1.26787048 122.54266205 -2.13925659 122.55187683 -3.03704834 122.56137085 C-8.74775406 122.52218776 -13.13948316 121.70027305 -17.48706055 117.6418457 C-21.72906883 112.0946041 -21.99941783 108.73567899 -22.01953125 101.86547852 C-22.02610245 100.89946716 -22.03267365 99.93345581 -22.03944397 98.93817139 C-22.05920482 95.73132251 -22.0708461 92.52452053 -22.08081055 89.31762695 C-22.08488607 88.22369377 -22.0889616 87.12976059 -22.09316063 86.00267792 C-22.11403377 80.21215502 -22.12832982 74.42165592 -22.13769531 68.63110352 C-22.1487592 62.64767078 -22.18315563 56.66460999 -22.22286701 50.68130875 C-22.24900503 46.08306178 -22.25738469 41.48490378 -22.26097679 36.88658905 C-22.26585042 34.68098185 -22.27748638 32.47537882 -22.29601479 30.26984406 C-22.32034459 27.18163045 -22.31945213 24.09438349 -22.3125 21.00610352 C-22.32531006 20.09574341 -22.33812012 19.1853833 -22.35131836 18.24743652 C-22.30606698 12.72919595 -21.56205 9.52993138 -17.8425293 5.17700195 C-11.82576153 0.63372833 -7.35426705 0.02311193 0 0 Z M-5.8425293 16.17700195 C-5.8425293 45.87700195 -5.8425293 75.57700195 -5.8425293 106.17700195 C8.6568457 106.19762695 23.1562207 106.21825195 38.0949707 106.23950195 C42.68008545 106.24860596 47.2652002 106.25770996 51.98925781 106.26708984 C56.08472405 106.27043343 56.08472405 106.27043343 60.18019104 106.27244568 C62.01014956 106.27398538 63.84010705 106.27751083 65.6700592 106.28257751 C68.43533095 106.28985381 71.20054049 106.29090941 73.96582031 106.29052734 C75.19704699 106.29592451 75.19704699 106.29592451 76.45314693 106.3014307 C80.10470046 106.64223576 80.10470046 106.64223576 83.1574707 105.17700195 C83.25794063 102.47927224 83.29363518 99.80711543 83.28686523 97.10888672 C83.28861755 96.26339264 83.29036987 95.41789856 83.29217529 94.54678345 C83.29659529 91.73730447 83.29365504 88.92788788 83.2902832 86.1184082 C83.29095626 84.17406706 83.29192631 82.22972599 83.29318237 80.28538513 C83.2946596 76.20392051 83.29250424 72.12247772 83.2878418 68.04101562 C83.28214827 62.80053497 83.28542098 57.56010557 83.29141426 52.31962681 C83.29502243 48.30229809 83.29388004 44.28498159 83.29128647 40.26765251 C83.29061771 38.33508231 83.29144383 36.40251101 83.29376602 34.46994209 C83.29629631 31.77143531 83.29244641 29.07301225 83.28686523 26.37451172 C83.28990158 25.16738274 83.28990158 25.16738274 83.29299927 23.93586731 C83.36859164 19.92625965 83.36859164 19.92625965 82.1574707 16.17700195 C53.1174707 16.17700195 24.0774707 16.17700195 -5.8425293 16.17700195 Z " fill="#568FCF" transform="translate(413.842529296875,259.822998046875)"/>
<path d="M0 0 C0.94562805 -0.00700928 1.8912561 -0.01401855 2.86553955 -0.02124023 C5.97576701 -0.0387733 9.08507659 -0.02721386 12.1953125 -0.01367188 C14.36572442 -0.01636813 16.53613517 -0.02025166 18.70654297 -0.02526855 C23.24914075 -0.03115727 27.79142331 -0.0226206 32.33398438 -0.00390625 C38.14799085 0.0188826 43.96125865 0.00575621 49.77523804 -0.01819611 C54.25518326 -0.03267084 58.73495423 -0.02804034 63.21490479 -0.01768494 C65.35825692 -0.0150223 67.50162503 -0.01827106 69.6449585 -0.02760315 C72.64393849 -0.03779608 75.64173298 -0.02222868 78.640625 0 C79.96093719 -0.01214539 79.96093719 -0.01214539 81.30792236 -0.02453613 C87.13772944 0.05525592 90.64122918 0.93925261 95.3203125 4.51757812 C99.53553738 10.01942749 99.89968863 14.49969896 99.83789062 21.2890625 C99.8448999 22.24444412 99.85190918 23.19982574 99.85913086 24.18415833 C99.87666567 27.3268482 99.86510382 30.46862986 99.8515625 33.61132812 C99.8542587 35.80416028 99.85814219 37.99699126 99.86315918 40.18981934 C99.86904813 44.77949436 99.86051044 49.36885741 99.84179688 53.95849609 C99.81900803 59.83303409 99.83213429 65.70684103 99.85608673 71.58135223 C99.87056081 76.10762003 99.86593126 80.63371533 99.85557556 85.1599884 C99.85291274 87.32566922 99.85616233 89.49136585 99.86549377 91.6570282 C99.87568559 94.68713696 99.86012076 97.71607209 99.83789062 100.74609375 C99.84598755 101.63565262 99.85408447 102.52521149 99.86242676 103.44172668 C99.78321335 109.28834823 98.67318527 112.69924001 95.3203125 117.51757812 C89.42458591 122.66150065 82.23814013 122.66822043 74.81738281 122.67871094 C73.55050125 122.68615829 73.55050125 122.68615829 72.25802612 122.6937561 C69.4714882 122.70832777 66.68500722 122.7151717 63.8984375 122.72070312 C61.95416259 122.72645907 60.00988769 122.73221675 58.06561279 122.73797607 C53.99035377 122.74847212 49.91511438 122.7543238 45.83984375 122.7578125 C40.63370097 122.76329158 35.42782045 122.78731307 30.2217598 122.81578445 C26.20500952 122.8344659 22.18832171 122.83961938 18.17153168 122.84114838 C16.25310585 122.84416344 14.33468083 122.852153 12.41629791 122.86533356 C9.72427271 122.88250809 7.032879 122.88048608 4.34082031 122.87402344 C3.55816803 122.88323822 2.77551575 122.892453 1.96914673 122.90194702 C-4.94712081 122.85028638 -11.21715587 121.56095544 -16.6171875 117.08007812 C-19.47996667 113.52329188 -20.92564506 110.91951465 -20.94711304 106.32524109 C-20.95564301 105.4968573 -20.96417297 104.66847351 -20.97296143 103.81498718 C-20.97205505 102.91464249 -20.97114868 102.01429779 -20.97021484 101.08666992 C-20.98029068 99.65425461 -20.98029068 99.65425461 -20.99057007 98.19290161 C-21.00957667 95.03414717 -21.01347576 91.87560495 -21.015625 88.71679688 C-21.02205155 86.51967786 -21.0287798 84.32255971 -21.03579712 82.1254425 C-21.04777689 77.51793433 -21.05147727 72.91050117 -21.05029297 68.30297852 C-21.05008985 62.40486704 -21.07738177 56.50723778 -21.11183739 50.60924053 C-21.13409887 46.07013245 -21.13813072 41.5311405 -21.13707352 36.99198341 C-21.13943099 34.81791333 -21.14826273 32.64384012 -21.16373825 30.46982384 C-21.18338054 27.4250981 -21.17756645 24.38141318 -21.16552734 21.33666992 C-21.17676636 20.44239792 -21.18800537 19.54812592 -21.19958496 18.62675476 C-21.14069563 12.75224365 -20.29453411 9.2274377 -16.6796875 4.51757812 C-11.19896715 0.32620128 -6.76024483 -0.06218664 0 0 Z M-4.6796875 16.51757812 C-4.78018964 19.2815922 -4.81584825 22.02065038 -4.80908203 24.78515625 C-4.81083435 25.65176376 -4.81258667 26.51837128 -4.81439209 27.41123962 C-4.81881175 30.29045586 -4.81587222 33.16961121 -4.8125 36.04882812 C-4.81317301 38.04040539 -4.814143 40.03198258 -4.81539917 42.02355957 C-4.8168763 46.20337707 -4.81472111 50.38317325 -4.81005859 54.56298828 C-4.8043613 59.93360339 -4.80764023 65.30416853 -4.81363106 70.6747818 C-4.81723627 74.78900533 -4.81609827 78.90321692 -4.81350327 83.0174408 C-4.81283389 84.99828599 -4.8136628 86.97913225 -4.81598282 88.9599762 C-4.81850869 91.72334688 -4.81466968 94.48663547 -4.80908203 97.25 C-4.81110626 98.07704941 -4.81313049 98.90409882 -4.81521606 99.75621033 C-5.15287499 103.43814538 -5.15287499 103.43814538 -3.6796875 106.51757812 C-1.0125664 106.62334949 1.62879485 106.66435796 4.29663086 106.6628418 C5.13237137 106.66620041 5.96811188 106.66955902 6.82917786 106.67301941 C9.60618556 106.68255879 12.38313316 106.68447401 15.16015625 106.68554688 C17.08207729 106.68875736 19.00399807 106.69212127 20.92591858 106.69563293 C24.9603024 106.70163167 28.99466477 106.70347207 33.02905273 106.70288086 C38.20903798 106.70277919 43.3888863 106.71643308 48.56883907 106.73365307 C52.53984717 106.74474933 56.51082193 106.7468008 60.48184395 106.74627113 C62.3920902 106.74745478 64.30233721 106.75189791 66.21256828 106.7596035 C68.88001074 106.76935576 71.54715274 106.76654435 74.21459961 106.76049805 C75.01000153 106.76611755 75.80540344 106.77173706 76.62490845 106.77752686 C80.93688815 106.91526254 80.93688815 106.91526254 84.3203125 104.51757812 C84.51890697 101.75730108 84.59302053 99.09734544 84.57910156 96.3359375 C84.5826062 95.49029739 84.58611084 94.64465729 84.58972168 93.77339172 C84.59854695 90.96928779 84.59268706 88.16543476 84.5859375 85.36132812 C84.58728392 83.41841585 84.58922426 81.4755039 84.59173584 79.53259277 C84.59468818 75.45708006 84.59038592 71.3816549 84.58105469 67.30615234 C84.5696601 62.07349427 84.57621899 56.84104135 84.58819962 51.60839081 C84.59541524 47.59534144 84.59313166 43.58234097 84.58794403 39.56929016 C84.58660671 37.63951086 84.58825812 35.70972717 84.59290314 33.779953 C84.5979635 31.08625471 84.59026512 28.39289196 84.57910156 25.69921875 C84.58315002 24.89603714 84.58719849 24.09285553 84.59136963 23.26533508 C84.72424771 18.92570919 84.72424771 18.92570919 82.3203125 15.51757812 C79.58476251 15.32426699 76.95085744 15.25532657 74.21459961 15.2746582 C73.37710678 15.27275986 72.53961395 15.27086151 71.67674255 15.26890564 C68.90028613 15.26519193 66.12408954 15.27590966 63.34765625 15.28710938 C61.4247694 15.28830085 59.50188196 15.28875441 57.57899475 15.28849792 C53.54635991 15.29006377 49.51381372 15.29836175 45.48120117 15.31176758 C40.30005731 15.32876895 35.11901086 15.33258166 29.93784237 15.3318224 C25.9668738 15.33209369 21.99592673 15.33756823 18.02496529 15.34482384 C16.11389898 15.34801619 14.20283023 15.34997923 12.2917614 15.35071754 C9.62667524 15.35287449 6.96169454 15.36160429 4.29663086 15.37231445 C3.49920471 15.37186127 2.70177856 15.37140808 1.88018799 15.37094116 C-1.69586695 15.05948192 -1.69586695 15.05948192 -4.6796875 16.51757812 Z " fill="#568FCF" transform="translate(412.6796875,-0.517578125)"/>
<path d="M0 0 C0.94562805 -0.00700928 1.8912561 -0.01401855 2.86553955 -0.02124023 C5.97576701 -0.0387733 9.08507659 -0.02721386 12.1953125 -0.01367188 C14.36572442 -0.01636813 16.53613517 -0.02025166 18.70654297 -0.02526855 C23.24914075 -0.03115727 27.79142331 -0.0226206 32.33398438 -0.00390625 C38.14799085 0.0188826 43.96125865 0.00575621 49.77523804 -0.01819611 C54.25518326 -0.03267084 58.73495423 -0.02804034 63.21490479 -0.01768494 C65.35825692 -0.0150223 67.50162503 -0.01827106 69.6449585 -0.02760315 C72.64393849 -0.03779608 75.64173298 -0.02222868 78.640625 0 C79.96093719 -0.01214539 79.96093719 -0.01214539 81.30792236 -0.02453613 C87.13772944 0.05525592 90.64122918 0.93925261 95.3203125 4.51757812 C99.53553738 10.01942749 99.89968863 14.49969896 99.83789062 21.2890625 C99.8448999 22.24444412 99.85190918 23.19982574 99.85913086 24.18415833 C99.87666567 27.3268482 99.86510382 30.46862986 99.8515625 33.61132812 C99.8542587 35.80416028 99.85814219 37.99699126 99.86315918 40.18981934 C99.86904813 44.77949436 99.86051044 49.36885741 99.84179688 53.95849609 C99.81900803 59.83303409 99.83213429 65.70684103 99.85608673 71.58135223 C99.87056081 76.10762003 99.86593126 80.63371533 99.85557556 85.1599884 C99.85291274 87.32566922 99.85616233 89.49136585 99.86549377 91.6570282 C99.87568559 94.68713696 99.86012076 97.71607209 99.83789062 100.74609375 C99.84598755 101.63565262 99.85408447 102.52521149 99.86242676 103.44172668 C99.78321335 109.28834823 98.67318527 112.69924001 95.3203125 117.51757812 C89.41643256 122.66861431 82.23114078 122.66709135 74.80151367 122.6628418 C73.53222267 122.66787971 73.53222267 122.66787971 72.23728943 122.67301941 C69.44593834 122.68250112 66.65464743 122.68447119 63.86328125 122.68554688 C61.91661047 122.68876161 59.96993993 122.69212585 58.02326965 122.69563293 C53.94381144 122.70161741 49.8643744 122.70347356 45.78491211 122.70288086 C40.5697613 122.70277933 35.35474692 122.71642531 30.13962841 122.73365307 C26.1186308 122.74479825 22.0976659 122.74679928 18.07665443 122.74627113 C16.1546208 122.74744769 14.23258622 122.75185118 12.31056786 122.7596035 C9.61604775 122.76945335 6.92182023 122.76650561 4.22729492 122.76049805 C3.44104736 122.76611755 2.6547998 122.77173706 1.84472656 122.77752686 C-4.35308899 122.74259529 -10.12108512 122.10959739 -15.4921875 118.76757812 C-20.28563355 113.83717647 -21.14663282 108.8629347 -21.1484375 102.19726562 C-21.15605103 101.41618439 -21.16366455 100.63510315 -21.17150879 99.83035278 C-21.18226366 98.18820377 -21.18518175 96.54598661 -21.18066406 94.90380859 C-21.17968743 92.39240374 -21.22144375 89.8840146 -21.265625 87.37304688 C-21.27082953 85.7727928 -21.27352023 84.17252816 -21.2734375 82.57226562 C-21.28983276 81.82427704 -21.30622803 81.07628845 -21.32312012 80.30563354 C-21.27270444 76.50727056 -20.98066789 74.84419146 -18.36914062 72.01025391 C-14.70106876 69.97443406 -12.66191758 70.4114031 -8.6796875 71.51757812 C-5.63301197 73.65025099 -5.63554531 74.69414687 -4.6796875 78.51757812 C-4.3496875 87.42757812 -4.0196875 96.33757812 -3.6796875 105.51757812 C24.7003125 105.51757812 53.0803125 105.51757812 82.3203125 105.51757812 C82.3203125 76.14757812 82.3203125 46.77757812 82.3203125 16.51757812 C68.1509375 16.49695312 53.9815625 16.47632813 39.3828125 16.45507812 C34.90211182 16.44597412 30.42141113 16.43687012 25.80493164 16.42749023 C21.80260506 16.42414664 21.80260506 16.42414664 17.80027771 16.4221344 C16.0119858 16.42059474 14.22369495 16.41706936 12.43540955 16.41200256 C9.73304428 16.40472598 7.03074267 16.40367068 4.32836914 16.40405273 C3.12524755 16.39865557 3.12524755 16.39865557 1.89782047 16.39314938 C-1.68693091 16.06366413 -1.68693091 16.06366413 -4.6796875 17.51757812 C-4.78952308 19.68876858 -4.83561404 21.86323319 -4.85546875 24.03710938 C-4.87867418 25.38282802 -4.90279182 26.72853118 -4.92773438 28.07421875 C-4.96281198 30.20070632 -4.99216568 32.32662789 -5.00561523 34.45336914 C-5.02112149 36.50281889 -5.06135027 38.55060165 -5.10546875 40.59960938 C-5.12005127 41.8291333 -5.13463379 43.05865723 -5.1496582 44.32543945 C-5.77385962 48.0847363 -6.63500903 49.28744735 -9.6796875 51.51757812 C-13.49489492 52.06260776 -15.66014472 52.23132641 -18.86523438 49.98754883 C-21.35847053 46.59356738 -21.25500701 43.55208565 -21.2109375 39.49804688 C-21.2147644 38.72125076 -21.21859131 37.94445465 -21.22253418 37.14411926 C-21.22525191 35.50256045 -21.21790029 33.86095824 -21.20117188 32.21948242 C-21.17984445 29.72344715 -21.20093022 27.23031842 -21.2265625 24.734375 C-21.2239175 23.13475933 -21.21878895 21.53514546 -21.2109375 19.93554688 C-21.21903442 19.19676804 -21.22713135 18.4579892 -21.23547363 17.69682312 C-21.1414762 12.42384492 -20.04504365 8.632591 -16.6796875 4.51757812 C-11.0494797 0.50720889 -6.80910576 -0.06263611 0 0 Z " fill="#558FCF" transform="translate(20.6796875,-0.517578125)"/>
</svg>
