<?xml version="1.0" encoding="UTF-8"?>
<svg version="1.1" xmlns="http://www.w3.org/2000/svg" width="512" height="512">
<path d="M0 0 C1.43504379 -0.0131424 1.43504379 -0.0131424 2.89907837 -0.02655029 C6.05761235 -0.04853409 9.21474309 -0.03399343 12.37329102 -0.01708984 C14.57137826 -0.02045853 16.76946369 -0.02531159 18.96754456 -0.03158569 C23.57343284 -0.03895591 28.1788361 -0.02824728 32.78466797 -0.00488281 C38.68416479 0.0235877 44.58252346 0.00721202 50.48197842 -0.02274513 C55.02110847 -0.04082805 59.55996951 -0.03505509 64.09910774 -0.02210617 C66.27398883 -0.01877407 68.44889445 -0.02285231 70.62374687 -0.03450394 C73.66648741 -0.04722662 76.70739567 -0.02781379 79.75 0 C81.09444435 -0.01518173 81.09444435 -0.01518173 82.46604919 -0.03067017 C86.76022086 0.04192257 89.57575743 0.31236734 92.98280334 3.06240845 C96.6415447 6.91127302 96.56604787 8.77674338 96.57391834 14.00390434 C96.57627057 14.66685613 96.5786228 15.32980792 96.58104631 16.01284915 C96.58775504 18.2560493 96.58727753 20.49919177 96.58686829 22.74240112 C96.59016574 24.35819911 96.59389105 25.97399627 96.59800977 27.58979237 C96.60805121 32.04696939 96.61174999 36.50413295 96.61439908 40.96131968 C96.61829572 45.76168439 96.62787439 50.56203837 96.63661194 55.36239624 C96.65639314 66.96271737 96.66644406 78.56303939 96.67533973 90.16337317 C96.67971939 95.62102261 96.68508698 101.07867107 96.6903286 106.53631973 C96.70734153 124.66932664 96.72183733 142.80233294 96.72907734 160.9353466 C96.73098735 165.64309566 96.73290767 170.35084471 96.73486328 175.05859375 C96.73534702 176.2287345 96.73583076 177.39887524 96.73632916 178.6044748 C96.74463553 197.57446415 96.76998239 216.54439057 96.80244396 235.51435243 C96.83547185 254.97324987 96.85352217 274.43211529 96.85672158 293.89104092 C96.8588905 304.82352736 96.86769497 315.755922 96.89318275 326.6883812 C96.91483139 335.99580196 96.92296902 345.30310862 96.91321597 354.6105517 C96.90865444 359.3624256 96.91066451 364.1140638 96.92997742 368.86590576 C96.94749014 373.21219721 96.94670908 377.55807894 96.93108013 381.90437402 C96.92868585 383.48042297 96.93312089 385.05649943 96.94490878 386.63250612 C96.95989977 388.7682951 96.95044674 390.90260805 96.93468189 393.03835869 C96.9356587 394.22655862 96.93663551 395.41475855 96.93764192 396.63896453 C96.33408242 400.28497594 95.37775619 401.46470141 92.43969727 403.64697266 C89.00219727 404.20947266 89.00219727 404.20947266 85.43969727 403.64697266 C82.24082463 401.11707223 80.6355615 399.61741115 79.81870478 395.57017297 C79.82060339 394.40860848 79.82250199 393.24704399 79.82445812 392.05028057 C79.81580429 391.07165606 79.81580429 391.07165606 79.80697563 390.07326135 C79.79372253 387.88337849 79.81618066 385.69532782 79.83842468 383.50553894 C79.8362445 381.92142075 79.83186697 380.3373043 79.82547885 378.75319749 C79.81428519 374.39746098 79.83431656 370.04233782 79.85936916 365.68667948 C79.88093596 360.99074538 79.87365641 356.29484664 79.86985779 351.59887695 C79.86723441 343.46192906 79.88293876 335.32518144 79.91104698 327.18828392 C79.95166035 315.42369101 79.96470199 303.65919505 79.97098694 291.89453963 C79.98193352 272.807812 80.01521759 253.72119114 80.0625 234.63452148 C80.10838617 216.09220922 80.14378271 197.54992593 80.16503906 179.00756836 C80.16635268 177.86486267 80.1676663 176.72215698 80.16901972 175.54482385 C80.17554485 169.81227791 80.1818634 164.07973177 80.18807924 158.34718549 C80.23992358 110.78035306 80.33210491 63.21371807 80.43969727 15.64697266 C53.70969727 15.64697266 26.97969727 15.64697266 -0.56030273 15.64697266 C-0.44152317 41.51095776 -0.44152317 41.51095776 -0.29003906 67.37475586 C-0.27648926 72.37585449 -0.27648926 72.37585449 -0.27397156 74.71672058 C-0.26936328 76.35244697 -0.25880885 77.98816313 -0.24357605 79.62382507 C-0.22165965 82.10087808 -0.21858319 84.57730812 -0.21972656 87.05444336 C-0.20893224 87.78374967 -0.19813791 88.51305597 -0.18701649 89.26446247 C-0.2173027 94.15613498 -0.2173027 94.15613498 -1.90190125 96.56681824 C-4.46858622 98.23855825 -6.51537623 98.5251756 -9.56030273 98.64697266 C-12.31030273 97.52197266 -12.31030273 97.52197266 -14.56030273 95.64697266 C-16.56030273 90.64697266 -16.56030273 90.64697266 -16.56030273 67.64697266 C-57.48030273 67.64697266 -98.40030273 67.64697266 -140.56030273 67.64697266 C-140.56030273 94.04697266 -140.56030273 120.44697266 -140.56030273 147.64697266 C-136.60030273 147.64697266 -132.64030273 147.64697266 -128.56030273 147.64697266 C-128.58125 146.64843262 -128.60219727 145.64989258 -128.6237793 144.62109375 C-128.69646974 140.89760823 -128.74220694 137.17418476 -128.7800293 133.45019531 C-128.800079 131.84201491 -128.82732637 130.23390682 -128.86206055 128.62597656 C-128.91087537 126.30727246 -128.93333702 123.9895364 -128.95092773 121.67041016 C-128.97157288 120.95766937 -128.99221802 120.24492859 -129.01348877 119.5105896 C-129.01576078 114.39500894 -127.86341067 111.52456479 -124.56030273 107.64697266 C-120.96918533 105.08368375 -118.50771171 104.27002498 -114.11499023 104.25878906 C-113.05038574 104.24933258 -111.98578125 104.2398761 -110.88891602 104.23013306 C-109.17937744 104.2392421 -109.17937744 104.2392421 -107.43530273 104.24853516 C-106.25564941 104.24566498 -105.07599609 104.2427948 -103.8605957 104.23983765 C-101.36921712 104.2377983 -98.87782247 104.24331903 -96.38647461 104.25585938 C-92.57426125 104.27191387 -88.76310814 104.25600523 -84.95092773 104.23681641 C-82.5290504 104.23879886 -80.10717372 104.24264258 -77.68530273 104.24853516 C-76.54561035 104.24246246 -75.40591797 104.23638977 -74.23168945 104.23013306 C-73.16708496 104.23958954 -72.10248047 104.24904602 -71.00561523 104.25878906 C-70.07249512 104.26117584 -69.139375 104.26356262 -68.17797852 104.26602173 C-63.8055992 104.90233504 -60.3678148 107.27795818 -57.56030273 110.64697266 C-56.34952573 114.27930368 -56.43586109 117.59819253 -56.46264648 121.37744141 C-56.46406143 122.12786209 -56.46547638 122.87828278 -56.4669342 123.65144348 C-56.47252714 126.04582726 -56.48507829 128.44011719 -56.49780273 130.83447266 C-56.50281865 132.45882026 -56.5073814 134.08316934 -56.51147461 135.70751953 C-56.52249425 139.68737335 -56.539754 143.66715709 -56.56030273 147.64697266 C-55.60768555 147.60056641 -54.65506836 147.55416016 -53.67358398 147.50634766 C-51.79219727 147.45220703 -51.79219727 147.45220703 -49.87280273 147.39697266 C-48.63143555 147.35056641 -47.39006836 147.30416016 -46.11108398 147.25634766 C-41.99063403 147.70964248 -40.45242381 148.74948586 -37.56030273 151.64697266 C-35.17793649 156.41170514 -36.24804814 163.60755864 -36.21020508 168.90405273 C-36.1936545 170.6024344 -36.16637589 172.30074667 -36.12817383 173.9987793 C-36.07330615 176.45088729 -36.0515176 178.90136412 -36.03686523 181.35400391 C-36.01419586 182.10937943 -35.99152649 182.86475494 -35.96817017 183.64302063 C-35.98431436 187.68702637 -36.38011978 189.4257726 -38.96801758 192.6027832 C-43.47784252 196.15908045 -47.13586913 195.78269618 -52.69165039 195.76049805 C-53.63803879 195.76064407 -54.58442719 195.7607901 -55.55949402 195.76094055 C-58.69780748 195.76024207 -61.8360621 195.75245268 -64.97436523 195.74462891 C-67.14627042 195.7427645 -69.31817603 195.7413407 -71.49008179 195.74034119 C-77.2144486 195.73651782 -82.93879016 195.72668905 -88.66314697 195.71563721 C-95.52719602 195.7036236 -102.39125351 195.69901999 -109.25531006 195.6931839 C-119.6903252 195.68347722 -130.12528489 195.66431938 -140.56030273 195.64697266 C-140.56030273 223.03697266 -140.56030273 250.42697266 -140.56030273 278.64697266 C-136.60030273 278.64697266 -132.64030273 278.64697266 -128.56030273 278.64697266 C-128.58125 277.64843262 -128.60219727 276.64989258 -128.6237793 275.62109375 C-128.69646974 271.89760823 -128.74220694 268.17418476 -128.7800293 264.45019531 C-128.800079 262.84201491 -128.82732637 261.23390682 -128.86206055 259.62597656 C-128.91087537 257.30727246 -128.93333702 254.9895364 -128.95092773 252.67041016 C-128.97157288 251.95766937 -128.99221802 251.24492859 -129.01348877 250.5105896 C-129.01575565 245.40656655 -127.78708694 242.56063214 -124.56030273 238.64697266 C-121.16791055 236.38537787 -119.95620435 236.3865381 -115.97485352 236.35644531 C-114.83001495 236.34368561 -113.68517639 236.3309259 -112.50564575 236.31777954 C-111.26813568 236.31555389 -110.03062561 236.31332825 -108.75561523 236.31103516 C-106.84871414 236.30104996 -106.84871414 236.30104996 -104.90328979 236.29086304 C-102.21150737 236.28072811 -99.52012871 236.27518209 -96.82836914 236.27636719 C-93.38600728 236.27657026 -89.94447207 236.24928147 -86.50230598 236.21482277 C-83.21177354 236.18718011 -79.92124803 236.18840377 -76.63061523 236.18603516 C-74.78042282 236.16447861 -74.78042282 236.16447861 -72.89285278 236.14248657 C-71.7417099 236.14863983 -70.59056702 236.15479309 -69.40454102 236.16113281 C-67.88922287 236.15685776 -67.88922287 236.15685776 -66.34329224 236.15249634 C-62.23516464 236.88242069 -59.70846862 239.09222756 -57.26000977 242.40771484 C-56.21817254 245.74188478 -56.31565466 249.01929681 -56.36499023 252.47509766 C-56.36782013 253.22410339 -56.37065002 253.97310913 -56.37356567 254.74481201 C-56.38473013 257.12903041 -56.40982743 259.51286845 -56.43530273 261.89697266 C-56.44533738 263.51675888 -56.45446239 265.13655102 -56.46264648 266.75634766 C-56.48465719 270.72003511 -56.51916098 274.68343947 -56.56030273 278.64697266 C-55.67987305 278.61216797 -54.79944336 278.57736328 -53.89233398 278.54150391 C-52.73088867 278.51443359 -51.56944336 278.48736328 -50.37280273 278.45947266 C-49.22424805 278.42466797 -48.07569336 278.38986328 -46.89233398 278.35400391 C-43.2274104 278.67624221 -41.46365559 279.43464872 -38.56030273 281.64697266 C-36.07486126 285.37513486 -36.23707794 288.31931469 -36.22436523 292.63916016 C-36.21438004 293.81359177 -36.21438004 293.81359177 -36.20419312 295.01174927 C-36.19407247 296.6676397 -36.18937591 298.32357086 -36.18969727 299.97949219 C-36.18533024 302.50605975 -36.14902466 305.03087115 -36.11108398 307.55712891 C-36.10521432 309.16780003 -36.10124593 310.77847943 -36.09936523 312.38916016 C-36.0849942 313.14139862 -36.07062317 313.89363708 -36.05581665 314.66867065 C-36.08791283 318.37570028 -36.43636719 320.45469615 -38.46411133 323.60058594 C-42.47100162 327.51227408 -46.4747867 326.78149066 -51.78344727 326.76049805 C-52.73958923 326.76064407 -53.6957312 326.7607901 -54.68084717 326.76094055 C-57.85162601 326.76024205 -61.02234662 326.75245256 -64.19311523 326.74462891 C-66.38744067 326.7427645 -68.58176653 326.74134071 -70.77609253 326.74034119 C-76.55964298 326.73651776 -82.34316843 326.72668894 -88.12670898 326.71563721 C-95.06167586 326.70362377 -101.99665107 326.69902002 -108.93162537 326.6931839 C-119.47453522 326.68347711 -130.0173902 326.66431931 -140.56030273 326.64697266 C-140.56030273 354.03697266 -140.56030273 381.42697266 -140.56030273 409.64697266 C-136.60030273 409.64697266 -132.64030273 409.64697266 -128.56030273 409.64697266 C-128.57601318 408.67872559 -128.59172363 407.71047852 -128.60791016 406.71289062 C-128.66244258 403.10115971 -128.69673692 399.4894648 -128.72509766 395.87744141 C-128.74013143 394.31780872 -128.76056408 392.75821794 -128.78662109 391.19873047 C-128.82324484 388.9496015 -128.84008294 386.70103419 -128.85327148 384.45166016 C-128.86875534 383.76079315 -128.8842392 383.06992615 -128.90019226 382.35812378 C-128.90178913 377.7052745 -128.14066041 374.5296227 -125.56030273 370.64697266 C-121.93964799 368.01556157 -119.39390682 367.2678001 -114.94726562 367.24291992 C-113.29513817 367.22389366 -113.29513817 367.22389366 -111.6096344 367.20448303 C-110.42933151 367.20741867 -109.24902863 367.21035431 -108.03295898 367.21337891 C-106.81128525 367.20813705 -105.58961151 367.2028952 -104.33091736 367.19749451 C-101.74959065 367.1910764 -99.16823469 367.19240852 -96.58691406 367.20092773 C-92.64066396 367.20943416 -88.69586288 367.18067578 -84.74975586 367.14892578 C-82.23999067 367.14731357 -79.73022292 367.14789167 -77.22045898 367.15087891 C-76.04218033 367.13964493 -74.86390167 367.12841095 -73.6499176 367.11683655 C-67.37910651 367.1700936 -63.21202297 367.22396971 -58.56030273 371.64697266 C-55.84863752 375.15047132 -56.30440326 379.2311725 -56.36499023 383.47509766 C-56.36782013 384.22410339 -56.37065002 384.97310913 -56.37356567 385.74481201 C-56.38473013 388.12903041 -56.40982743 390.51286845 -56.43530273 392.89697266 C-56.44533738 394.51675888 -56.45446239 396.13655102 -56.46264648 397.75634766 C-56.48465719 401.72003511 -56.51916098 405.68343947 -56.56030273 409.64697266 C-55.75206055 409.61216797 -54.94381836 409.57736328 -54.11108398 409.54150391 C-53.04245117 409.51443359 -51.97381836 409.48736328 -50.87280273 409.45947266 C-49.81706055 409.42466797 -48.76131836 409.38986328 -47.67358398 409.35400391 C-43.30130722 409.76544777 -40.91138642 411.36063148 -37.77709961 414.34472656 C-36.03010835 417.65012936 -36.09256595 420.8302308 -36.09155273 424.48291016 C-36.08393921 425.2398819 -36.07632568 425.99685364 -36.06848145 426.77676392 C-36.05769589 428.37539378 -36.05482109 429.97409401 -36.05932617 431.57275391 C-36.06029699 434.0075563 -36.01869772 436.43918887 -35.97436523 438.87353516 C-35.96915645 440.43082029 -35.96647007 441.98811631 -35.96655273 443.54541016 C-35.95015747 444.2674765 -35.93376221 444.98954285 -35.91687012 445.73348999 C-35.9691605 449.59601786 -36.54204555 452.10412495 -38.90991211 455.09082031 C-42.13498611 458.20122238 -44.25442489 458.77286269 -48.56559753 458.76722717 C-49.78342171 458.76928917 -49.78342171 458.76928917 -51.02584839 458.77139282 C-52.35617599 458.76599991 -52.35617599 458.76599991 -53.71337891 458.76049805 C-55.11855019 458.76071709 -55.11855019 458.76071709 -56.55210876 458.76094055 C-59.65251979 458.76024316 -62.75287094 458.75245883 -65.85327148 458.74462891 C-68.00132718 458.74276411 -70.1493833 458.7413405 -72.29743958 458.74034119 C-77.95438814 458.73652086 -83.61131108 458.72669467 -89.26824951 458.71563721 C-95.03942518 458.7054127 -100.81060499 458.70084133 -106.58178711 458.69580078 C-117.90797206 458.685072 -129.23413126 458.66747908 -140.56030273 458.64697266 C-140.56030273 471.51697266 -140.56030273 484.38697266 -140.56030273 497.64697266 C-99.64030273 497.64697266 -58.72030273 497.64697266 -16.56030273 497.64697266 C-16.57077637 486.22241455 -16.58125 474.79785645 -16.59204102 463.02709961 C-16.62412256 426.49720361 -16.64637975 389.96730756 -16.66243339 353.43740113 C-16.66493489 347.76580319 -16.66752352 342.0942053 -16.67016602 336.42260742 C-16.67069064 335.29346659 -16.67121526 334.16432576 -16.67175578 333.00096854 C-16.68046482 314.70406984 -16.69623753 296.40718367 -16.71460833 278.11029241 C-16.7332935 259.34415312 -16.74441653 240.5780204 -16.74847972 221.81187218 C-16.75122766 210.22672546 -16.75991523 198.64161416 -16.77613567 187.05647834 C-16.78668549 179.11841442 -16.78990791 171.18036889 -16.78730549 163.24229846 C-16.78602107 158.65847657 -16.78802743 154.0747167 -16.79871368 149.49090576 C-16.80841998 145.29693595 -16.80895475 141.10307007 -16.80210052 136.90909555 C-16.80125292 135.38949908 -16.80381217 133.86989622 -16.8100691 132.35031239 C-16.81806662 130.28860626 -16.81378651 128.22727794 -16.80639839 126.16557789 C-16.80715783 125.01920221 -16.80791727 123.87282653 -16.80869973 122.6917122 C-16.55337402 119.56204356 -16.02450795 117.41717145 -14.56030273 114.64697266 C-10.83971913 112.16658359 -8.96233703 112.18360063 -4.56030273 112.64697266 C-1.65145455 114.79790807 -0.67181669 115.98708909 -0.06350875 119.58674979 C-0.06502763 120.74261848 -0.06654651 121.89848716 -0.06811142 123.08938217 C-0.06349604 123.73726792 -0.05888067 124.38515367 -0.05412543 125.05267233 C-0.04350153 127.23293343 -0.06150971 129.41202295 -0.07928467 131.59222412 C-0.07754099 133.1672281 -0.07403982 134.74223095 -0.068928 136.3172276 C-0.05996418 140.65233776 -0.0760108 144.98705425 -0.09604025 149.32211423 C-0.1132807 153.99420759 -0.10747097 158.66627795 -0.10443115 163.33839417 C-0.10233163 171.43549631 -0.11490374 179.53246973 -0.13738251 187.62953949 C-0.16986204 199.33658614 -0.18030538 211.04357041 -0.18533447 222.75065723 C-0.19409348 241.74363752 -0.2207255 260.73654917 -0.25854492 279.72949219 C-0.29524933 298.18163713 -0.32356878 316.63376344 -0.34057617 335.0859375 C-0.34162707 336.22293192 -0.34267796 337.35992634 -0.3437607 338.53137514 C-0.34898077 344.23522363 -0.35403562 349.93907226 -0.35900831 355.64292097 C-0.40048923 402.97766582 -0.47423726 450.31228375 -0.56030273 497.64697266 C26.16969727 497.64697266 52.89969727 497.64697266 80.43969727 497.64697266 C80.36053983 473.47358822 80.36053983 473.47358822 80.25952148 449.30029297 C80.25048828 444.62109375 80.25048828 444.62109375 80.24880981 442.42938232 C80.24574205 440.90121292 80.23871492 439.37304831 80.22854614 437.84490967 C80.21390072 435.52786876 80.21188546 433.21112325 80.21264648 430.89404297 C80.20820526 429.58832336 80.20376404 428.28260376 80.19918823 426.93731689 C80.42464872 423.85284813 80.74056585 422.18348187 82.43969727 419.64697266 C85.11602752 417.56538246 86.55723394 417.65109675 90.00219727 417.77197266 C93.43969727 418.64697266 93.43969727 418.64697266 95.133255 420.24298096 C96.89445151 423.48376848 96.83662644 426.39283194 96.78027344 429.98583984 C96.78063504 430.72973591 96.78099665 431.47363197 96.78136921 432.24007034 C96.77913482 434.64160579 96.75631199 437.04243762 96.73266602 439.44384766 C96.72825367 440.92903304 96.72519405 442.41422308 96.72351074 443.89941406 C96.70779939 449.39867153 96.66591559 454.89782905 96.62719727 460.39697266 C96.56532227 472.68947266 96.50344727 484.98197266 96.43969727 497.64697266 C137.35969727 497.64697266 178.27969727 497.64697266 220.43969727 497.64697266 C220.43969727 484.77697266 220.43969727 471.90697266 220.43969727 458.64697266 C217.59328613 458.66268311 214.746875 458.67839355 211.81420898 458.69458008 C202.40656835 458.74430353 192.99892188 458.77743271 183.59118462 458.80240917 C177.88762329 458.81806076 172.18419669 458.83929005 166.48071289 458.87329102 C160.97587892 458.90590214 155.47117449 458.92382949 149.96625137 458.93160439 C147.86671027 458.93714471 145.7671762 458.9479636 143.66769028 458.96416283 C140.72548893 458.98596013 137.78382191 458.98893858 134.84155273 458.98754883 C133.54142998 459.00372757 133.54142998 459.00372757 132.21504211 459.02023315 C127.21932197 458.99472238 123.7492645 458.45973029 119.43969727 455.64697266 C116.48899576 451.27660135 116.05558911 447.69568719 116.04125977 442.49072266 C116.03838959 441.82536499 116.03551941 441.16000732 116.03256226 440.4744873 C116.03053243 439.07608177 116.03598623 437.67764714 116.04858398 436.27929688 C116.06465546 434.15250485 116.04870078 432.02761263 116.02954102 429.90087891 C116.03152364 428.53498934 116.03536773 427.16910095 116.04125977 425.80322266 C116.04464355 424.57410156 116.04802734 423.34498047 116.05151367 422.07861328 C116.60550244 417.18121322 117.85594003 413.95172603 121.70141602 410.78369141 C125.06564045 409.38713034 127.62183373 409.34946164 131.25219727 409.45947266 C132.41364258 409.48654297 133.57508789 409.51361328 134.77172852 409.54150391 C136.09237305 409.59371094 136.09237305 409.59371094 137.43969727 409.64697266 C137.41351318 408.61813965 137.3873291 407.58930664 137.36035156 406.52929688 C137.26951174 402.69407088 137.2123269 398.85893899 137.16503906 395.02294922 C137.13997127 393.36621076 137.10590736 391.70958207 137.0625 390.05322266 C137.00150083 387.66492582 136.973412 385.27809672 136.95141602 382.88916016 C136.92560959 382.15454559 136.89980316 381.41993103 136.87321472 380.66305542 C136.8710855 376.71490474 137.3940421 374.22207978 139.84521484 371.19433594 C143.39940103 367.70469835 144.95472654 367.51709073 149.80395508 367.45410156 C151.48645355 367.43000717 151.48645355 367.43000717 153.20294189 367.40542603 C158.33994746 367.36102795 163.47686378 367.31946352 168.61401367 367.296875 C171.32431923 367.28355215 174.03386889 367.25573255 176.74389648 367.21484375 C180.64768382 367.15594701 184.55110585 367.1382018 188.45532227 367.12353516 C189.66488586 367.10086578 190.87444946 367.07819641 192.1206665 367.05484009 C201.50010649 367.07840736 201.50010649 367.07840736 205.1887207 370.0546875 C208.79158376 374.20384151 208.57348132 377.21189173 208.53735352 382.49853516 C208.53523109 383.65958267 208.53523109 383.65958267 208.5330658 384.84408569 C208.5274613 387.32008707 208.5149081 389.79599854 208.50219727 392.27197266 C208.49718284 393.94905469 208.49261984 395.62613813 208.48852539 397.30322266 C208.47749041 401.41784072 208.46022281 405.53239143 208.43969727 409.64697266 C212.39969727 409.64697266 216.35969727 409.64697266 220.43969727 409.64697266 C220.43969727 382.25697266 220.43969727 354.86697266 220.43969727 326.64697266 C213.50711914 326.70498047 206.57454102 326.76298828 199.43188477 326.82275391 C195.03863219 326.84830317 190.64547127 326.87237288 186.25219727 326.89111328 C179.27967291 326.92099696 172.307477 326.95634032 165.33520508 327.02416992 C159.71363858 327.07851665 154.09242433 327.10839917 148.47061539 327.12135887 C146.32638123 327.13059386 144.18216624 327.1486278 142.03808212 327.17562294 C139.03334726 327.21194784 136.03006577 327.21691646 133.02514648 327.21459961 C132.1396965 327.23257599 131.25424652 327.25055237 130.34196472 327.26907349 C126.0586099 327.23336251 123.29300233 326.97291606 119.89450073 324.22969055 C114.81085706 318.88114935 116.219437 311.90328797 116.19946289 304.85742188 C116.1897609 302.785561 116.15871241 300.71469469 116.12719727 298.64306641 C116.12204102 297.32693359 116.11688477 296.01080078 116.11157227 294.65478516 C116.10222656 293.4548291 116.09288086 292.25487305 116.08325195 291.01855469 C116.57380511 286.37845941 117.99309771 283.20108974 121.17407227 279.78369141 C124.4118971 278.15919653 127.09373957 278.35958494 130.68969727 278.45947266 C131.95297852 278.48654297 133.21625977 278.51361328 134.51782227 278.54150391 C135.96415039 278.59371094 135.96415039 278.59371094 137.43969727 278.64697266 C137.41351318 277.61813965 137.3873291 276.58930664 137.36035156 275.52929688 C137.26951174 271.69407088 137.2123269 267.85893899 137.16503906 264.02294922 C137.13997127 262.36621076 137.10590736 260.70958207 137.0625 259.05322266 C137.00150083 256.66492582 136.973412 254.27809672 136.95141602 251.88916016 C136.92560959 251.15454559 136.89980316 250.41993103 136.87321472 249.66305542 C136.8710855 245.71490474 137.3940421 243.22207978 139.84521484 240.19433594 C143.43022119 236.67443792 145.0150059 236.51639866 149.91162109 236.45410156 C151.05653519 236.43803864 152.20144928 236.42197571 153.38105774 236.40542603 C158.61941777 236.36106318 163.85769014 236.31947165 169.09619141 236.296875 C171.86182769 236.28353997 174.62672534 236.25569712 177.39208984 236.21484375 C181.37278259 236.1560379 185.35311622 236.13821384 189.33422852 236.12353516 C190.57082718 236.10086578 191.80742584 236.07819641 193.08149719 236.05484009 C202.62558485 236.07840358 202.62558485 236.07840358 205.69628906 239.1171875 C206.27161377 239.9520166 206.84693848 240.7868457 207.43969727 241.64697266 C207.76969727 241.97697266 208.09969727 242.30697266 208.43969727 242.64697266 C208.52824887 245.31323296 208.554944 247.9534438 208.53735352 250.61962891 C208.53523109 251.81609291 208.53523109 251.81609291 208.5330658 253.03672791 C208.52745043 255.59434701 208.51489538 258.15187983 208.50219727 260.70947266 C208.49718424 262.4392891 208.49262099 264.16910692 208.48852539 265.89892578 C208.47747601 270.14830819 208.46020113 274.39762577 208.43969727 278.64697266 C212.39969727 278.64697266 216.35969727 278.64697266 220.43969727 278.64697266 C220.43969727 251.25697266 220.43969727 223.86697266 220.43969727 195.64697266 C213.49551758 195.69337891 206.55133789 195.73978516 199.39672852 195.78759766 C194.99892712 195.80803446 190.60118422 195.82729013 186.20336914 195.84228516 C179.22204437 195.86620177 172.24092933 195.89450309 165.25976562 195.94873047 C159.63173308 195.99217387 154.00392542 196.01610689 148.37573814 196.02648163 C146.22790677 196.03387565 144.08008777 196.04831432 141.93235207 196.06989288 C138.92517061 196.09890631 135.91891987 196.10292945 132.91162109 196.10107422 C132.02257584 196.11545532 131.13353058 196.12983643 130.21754456 196.14465332 C126.10714574 196.11719232 123.98819542 195.99005467 120.42869568 193.76361084 C116.40092078 189.477362 116.18485198 185.50062099 116.17407227 179.77197266 C116.17149414 178.45712891 116.16891602 177.14228516 116.16625977 175.78759766 C116.17044922 175.10761719 116.17463867 174.42763672 116.17895508 173.72705078 C116.18966518 171.65318549 116.17903697 169.58018628 116.16625977 167.50634766 C116.17012695 165.53408203 116.17012695 165.53408203 116.17407227 163.52197266 C116.17632812 162.32314453 116.17858398 161.12431641 116.1809082 159.88916016 C116.55103482 155.25210219 117.39979479 152.74870717 120.60766602 149.35009766 C124.21966974 147.17791335 126.57036165 147.24064235 130.75219727 147.39697266 C132.00645508 147.43306641 133.26071289 147.46916016 134.55297852 147.50634766 C135.5055957 147.55275391 136.45821289 147.59916016 137.43969727 147.64697266 C137.41875 146.61813965 137.39780273 145.58930664 137.3762207 144.52929688 C137.30354733 140.69399053 137.25779906 136.85874444 137.2199707 133.02294922 C137.19991718 131.36626941 137.17266697 129.70965984 137.13793945 128.05322266 C137.08914215 125.66502508 137.06666663 123.27776718 137.04907227 120.88916016 C137.02842712 120.15454559 137.00778198 119.41993103 136.98651123 118.66305542 C136.98428542 113.50400396 138.04029384 110.52443986 141.43969727 106.64697266 C144.97567655 104.89238174 147.85325635 104.39213144 151.77734375 104.37231445 C152.8186998 104.36278244 153.86005585 104.35325043 154.93296814 104.34342957 C156.60499046 104.34479668 156.60499046 104.34479668 158.31079102 104.34619141 C159.46587662 104.34190628 160.62096222 104.33762115 161.81105042 104.33320618 C164.25114283 104.32746929 166.69125235 104.32695788 169.13134766 104.33129883 C172.86007926 104.33445815 176.58801687 104.31099264 180.31665039 104.28564453 C182.68969627 104.28337139 185.06274427 104.28266811 187.43579102 104.28369141 C188.54844833 104.27448166 189.66110565 104.26527191 190.80747986 104.25578308 C197.46597523 104.29549016 202.15710235 104.69285305 207.29638672 109.31787109 C208.99494323 112.77809511 208.80873387 116.14547004 208.73266602 119.91259766 C208.72842117 120.70599548 208.72417633 121.49939331 208.71980286 122.3168335 C208.70304767 124.84389586 208.66540233 127.37015249 208.62719727 129.89697266 C208.6121463 131.61310695 208.59845861 133.32925378 208.58618164 135.04541016 C208.55315462 139.24624011 208.50139492 143.4464699 208.43969727 147.64697266 C212.39969727 147.64697266 216.35969727 147.64697266 220.43969727 147.64697266 C220.43969727 121.24697266 220.43969727 94.84697266 220.43969727 67.64697266 C209.24805664 67.71658203 209.24805664 67.71658203 197.83032227 67.78759766 C193.10895422 67.8080312 188.38764055 67.82728665 183.66625977 67.84228516 C176.16907456 67.86621427 168.67208439 67.89454915 161.17504883 67.94873047 C155.13205577 67.99213102 149.08927181 68.01609785 143.04613495 68.02648163 C140.73838762 68.03388335 138.43065199 68.04833683 136.12299347 68.06989288 C132.89530025 68.09884915 129.66847563 68.10293182 126.44067383 68.10107422 C125.48257812 68.11545532 124.52448242 68.12983643 123.53735352 68.14465332 C117.09296405 68.10441182 117.09296405 68.10441182 113.84979248 65.83343506 C111.7403495 62.56257951 111.83874414 60.4530091 112.43969727 56.64697266 C114.46629627 53.7564596 116.07294319 51.93450969 119.62009811 51.18826103 C122.39226162 51.00121838 125.12371821 50.98306412 127.90209961 51.01586914 C128.95472488 51.00871384 130.00735016 51.00155853 131.09187317 50.9941864 C134.57023573 50.9772834 138.04731222 50.99671546 141.52563477 51.01806641 C143.94552721 51.01723774 146.36541959 51.01477845 148.78530884 51.01075745 C153.85777728 51.00789816 158.9298045 51.02261205 164.00219727 51.05004883 C170.49782687 51.08409461 176.99266554 51.07812629 183.48833275 51.05938625 C188.48642542 51.04880559 193.48433479 51.05776457 198.48241043 51.07277107 C200.87695394 51.07794791 203.27151664 51.07747715 205.66605759 51.07122612 C209.01729051 51.06576279 212.36740089 51.08618815 215.71850586 51.11352539 C217.19781837 51.10373657 217.19781837 51.10373657 218.70701599 51.09375 C224.79846927 51.17804265 228.52978036 51.93835289 233.43969727 55.64697266 C236.99839972 59.76126808 236.85083099 63.99676495 236.78027344 69.20092773 C236.78071152 70.05021851 236.7811496 70.89950928 236.78160095 71.77453613 C236.77951667 74.57209537 236.75620272 77.3690498 236.73266602 80.16650391 C236.72706878 82.1099159 236.72279928 84.05333213 236.71980286 85.99674988 C236.70836417 91.10468287 236.67890529 96.2123588 236.64569092 101.32019043 C236.61496905 106.53520226 236.60129299 111.75025574 236.58618164 116.96533203 C236.55403474 127.19265834 236.5028501 137.4197941 236.43969727 147.64697266 C237.7907959 147.60564209 237.7907959 147.60564209 239.16918945 147.56347656 C240.34642578 147.5420459 241.52366211 147.52061523 242.73657227 147.49853516 C243.90542969 147.47098145 245.07428711 147.44342773 246.27856445 147.41503906 C249.43410975 147.6465627 250.52617797 147.81428351 252.68969727 150.02197266 C255.47945398 154.20660772 255.61368641 157.18366892 255.64282227 162.10400391 C255.64852234 162.84398117 255.65422241 163.58395844 255.66009521 164.34635925 C255.66954745 165.91407847 255.67608009 167.48181757 255.67993164 169.04956055 C255.68961759 171.43980972 255.72062922 173.82919171 255.75219727 176.21923828 C255.7587295 177.74332172 255.7639791 179.26741131 255.76782227 180.79150391 C255.78016907 181.50313187 255.79251587 182.21475983 255.80523682 182.94795227 C255.78560021 187.35719488 255.23731083 190.19497659 252.43969727 193.64697266 C248.43969727 195.64697266 248.43969727 195.64697266 236.43969727 195.64697266 C236.43969727 223.03697266 236.43969727 250.42697266 236.43969727 278.64697266 C240.39969727 278.64697266 244.35969727 278.64697266 248.43969727 278.64697266 C251.71876085 280.75891191 253.70083665 282.16925142 255.43969727 285.64697266 C255.57481508 288.13015858 255.65229111 290.58401572 255.67797852 293.06884766 C255.68605026 293.80645325 255.69412201 294.54405884 255.70243835 295.30401611 C255.71627777 296.86752982 255.72700058 298.43107372 255.73486328 299.99462891 C255.75203242 302.37412711 255.79591113 304.75221958 255.84008789 307.13134766 C255.8502191 308.65217079 255.85873386 310.17300573 255.86547852 311.69384766 C255.8829866 312.40031433 255.90049469 313.10678101 255.91853333 313.83465576 C255.89655363 318.89687086 254.62426024 321.75361749 251.43969727 325.64697266 C246.95763425 327.88800416 241.45079606 326.64697266 236.43969727 326.64697266 C236.43969727 354.03697266 236.43969727 381.42697266 236.43969727 409.64697266 C240.06969727 409.64697266 243.69969727 409.64697266 247.43969727 409.64697266 C251.24053724 411.23065598 253.3611603 413.11494371 255.43969727 416.64697266 C255.74409563 419.34977265 255.88416682 421.81637178 255.87329102 424.51806641 C255.87853287 425.27740982 255.88377472 426.03675323 255.88917542 426.81910706 C255.89558643 428.42195414 255.89427049 430.02484833 255.88574219 431.62768555 C255.87723674 434.07312292 255.90599461 436.51621934 255.93774414 438.96142578 C255.93935651 440.52197196 255.93877793 442.08252225 255.93579102 443.64306641 C255.94702499 444.37029404 255.95825897 445.09752167 255.96983337 445.8467865 C255.92145548 449.39192787 255.53979782 451.48537098 253.65869141 454.5222168 C250.72010541 457.33600422 248.74562339 458.5557767 244.64282227 458.84228516 C243.66829102 458.81908203 242.69375977 458.79587891 241.68969727 458.77197266 C240.70485352 458.75392578 239.72000977 458.73587891 238.70532227 458.71728516 C237.95766602 458.69408203 237.21000977 458.67087891 236.43969727 458.64697266 C236.44969002 459.47596321 236.44969002 459.47596321 236.45988464 460.32170105 C236.52632209 466.08053767 236.57153269 471.83926517 236.60449219 477.59838867 C236.61956641 479.74687117 236.64002916 481.89532295 236.66601562 484.04370117 C236.7024584 487.13419174 236.71943745 490.22427496 236.73266602 493.31494141 C236.74814987 494.27345505 236.76363373 495.23196869 236.77958679 496.2195282 C236.7817275 504.7273974 236.7817275 504.7273974 233.43969727 508.64697266 C229.59295615 512.30611209 227.25220265 513.14731984 221.96908665 513.15033722 C220.65307486 513.16076821 219.33706308 513.1711992 217.98117214 513.18194628 C216.52224101 513.17329818 215.06331209 513.16427156 213.60438538 513.15490723 C212.05341536 513.15951566 210.5024497 513.16586819 208.9514932 513.1738162 C204.68726328 513.19054093 200.42339065 513.18224898 196.1591593 513.16987133 C191.56124595 513.1608359 186.96339484 513.17478312 182.36549377 513.18579102 C173.35703332 513.20359738 164.34870602 513.19972671 155.34024031 513.18814045 C148.01965161 513.17911417 140.69910028 513.17787864 133.37850761 513.18223572 C131.81681856 513.18315512 131.81681856 513.18315512 130.22358022 513.18409309 C128.10867027 513.18537197 125.99376033 513.18666882 123.87885039 513.18798345 C104.03700751 513.1993956 84.1952385 513.18626589 64.35340773 513.16478199 C47.32297049 513.14691307 30.2926423 513.1500122 13.26220703 513.16845703 C-6.50612435 513.18985706 -26.27439095 513.19829413 -46.0427323 513.18600798 C-48.15025396 513.18473376 -50.25777563 513.18347628 -52.36529732 513.18223572 C-53.40228357 513.18161862 -54.43926982 513.18100151 -55.50767989 513.18036571 C-62.82016296 513.17691002 -70.13260499 513.18274595 -77.44508171 513.19215393 C-86.35567417 513.20336577 -95.26612567 513.20035113 -104.17670196 513.17903095 C-108.72428232 513.16850916 -113.27162755 513.16441787 -117.81920624 513.17762756 C-121.98108669 513.18953414 -126.14251372 513.18301778 -130.30435295 513.16171736 C-131.81102519 513.15724387 -133.31773562 513.15953433 -134.82438337 513.16922051 C-136.87084619 513.18136932 -138.91741612 513.16652562 -140.96385098 513.15033722 C-142.10106104 513.14968781 -143.23827111 513.1490384 -144.40994209 513.14836931 C-148.32262499 512.52564501 -150.48609918 511.10689193 -153.56030273 508.64697266 C-156.91074047 503.01797293 -156.96348466 497.99490455 -156.85327148 491.55712891 C-156.84902664 490.61260361 -156.8447818 489.66807831 -156.84040833 488.69493103 C-156.82371207 485.69947942 -156.78607679 482.70471845 -156.74780273 479.70947266 C-156.73274419 477.66976888 -156.71905784 475.63005448 -156.70678711 473.59033203 C-156.67383821 468.60894905 -156.62211878 463.62807766 -156.56030273 458.64697266 C-157.24157227 458.66219971 -157.9228418 458.67742676 -158.62475586 458.69311523 C-159.52129883 458.7049585 -160.4178418 458.71680176 -161.34155273 458.72900391 C-162.22907227 458.74423096 -163.1165918 458.75945801 -164.03100586 458.77514648 C-167.46843478 458.60095245 -169.7271972 457.55931889 -172.56030273 455.64697266 C-175.07528598 451.87449779 -174.90123975 448.81196182 -174.93139648 444.43603516 C-174.94042496 443.6308847 -174.94945343 442.82573425 -174.95875549 441.9961853 C-174.97325754 440.29323036 -174.98214463 438.59021971 -174.98583984 436.88720703 C-174.9977297 434.28793924 -175.04690518 431.69105137 -175.09741211 429.09228516 C-175.10687753 427.43604672 -175.114112 425.77979373 -175.11889648 424.12353516 C-175.1384288 423.34942291 -175.15796112 422.57531067 -175.17808533 421.77774048 C-175.14451255 417.74138588 -174.74718853 415.88320874 -172.21289062 412.6796875 C-166.74122475 408.48667415 -164.43272903 409.64697266 -156.56030273 409.64697266 C-156.56030273 382.25697266 -156.56030273 354.86697266 -156.56030273 326.64697266 C-160.52030273 326.64697266 -164.48030273 326.64697266 -168.56030273 326.64697266 C-171.6339606 324.83893862 -172.99050005 323.78657802 -174.56030273 320.64697266 C-174.69566376 318.00677926 -174.77295574 315.39421201 -174.79858398 312.75244141 C-174.80665573 311.96807205 -174.81472748 311.1837027 -174.82304382 310.37556458 C-174.83688335 308.71369639 -174.8476061 307.05179979 -174.85546875 305.38989258 C-174.87266627 302.8545913 -174.91654928 300.32059951 -174.96069336 297.78564453 C-174.97082189 296.17041974 -174.97933749 294.55518387 -174.98608398 292.93994141 C-175.00359207 292.18456589 -175.02110016 291.42919037 -175.03913879 290.65092468 C-175.02406804 286.9732709 -174.68107148 284.84107159 -172.72119141 281.69116211 C-167.75229239 276.99060946 -164.14103672 278.64697266 -156.56030273 278.64697266 C-156.56030273 251.25697266 -156.56030273 223.86697266 -156.56030273 195.64697266 C-160.52030273 195.64697266 -164.48030273 195.64697266 -168.56030273 195.64697266 C-171.6339606 193.83893862 -172.99050005 192.78657802 -174.56030273 189.64697266 C-174.69566376 187.00677926 -174.77295574 184.39421201 -174.79858398 181.75244141 C-174.80665573 180.96807205 -174.81472748 180.1837027 -174.82304382 179.37556458 C-174.83688335 177.71369639 -174.8476061 176.05179979 -174.85546875 174.38989258 C-174.87266627 171.8545913 -174.91654928 169.32059951 -174.96069336 166.78564453 C-174.97082189 165.17041974 -174.97933749 163.55518387 -174.98608398 161.93994141 C-175.00359207 161.18456589 -175.02110016 160.42919037 -175.03913879 159.65092468 C-175.02389607 155.93130725 -174.69088298 153.84994287 -172.65869141 150.69116211 C-169.23093931 147.35194532 -167.12349506 147.53459827 -162.43530273 147.58447266 C-161.33959961 147.59349609 -160.24389648 147.60251953 -159.11499023 147.61181641 C-157.85041992 147.62921875 -157.85041992 147.62921875 -156.56030273 147.64697266 C-156.56696457 146.61015854 -156.5736264 145.57334442 -156.58049011 144.50511169 C-156.64137727 134.72108979 -156.68631189 124.93710646 -156.71573925 115.15293789 C-156.73137689 110.12311833 -156.75258048 105.09345205 -156.78662109 100.0637207 C-156.81928229 95.20726584 -156.83717006 90.35095818 -156.84493446 85.49440193 C-156.85046583 83.64409125 -156.86126727 81.79378838 -156.8774929 79.94354057 C-156.89935711 77.34638099 -156.90226592 74.74982511 -156.90087891 72.15258789 C-156.91166473 71.39229279 -156.92245056 70.63199768 -156.93356323 69.84866333 C-156.9041128 64.73259427 -155.94623928 61.19543628 -153.56030273 56.64697266 C-149.29429254 52.59426297 -146.08848064 51.52109493 -140.30220032 51.52671814 C-139.21265045 51.52534348 -138.12310059 51.52396881 -137.00053406 51.52255249 C-135.20734489 51.5279454 -135.20734489 51.5279454 -133.37792969 51.53344727 C-132.11928101 51.53330124 -130.86063232 51.53315521 -129.56384277 51.53300476 C-126.11163694 51.53271755 -122.65946577 51.53860195 -119.207268 51.54557872 C-115.59978425 51.55182495 -111.99229973 51.55241706 -108.3848114 51.55360413 C-101.55316354 51.55671369 -94.72153167 51.56492204 -87.88989085 51.57495362 C-80.1124624 51.58612638 -72.33503319 51.59162814 -64.55759871 51.59664905 C-48.55849079 51.60710495 -32.55939882 51.62469715 -16.56030273 51.64697266 C-16.57077637 50.4666748 -16.58125 49.28637695 -16.59204102 48.0703125 C-16.62834235 43.67581231 -16.65124006 39.28132529 -16.67016602 34.88671875 C-16.68020052 32.98760751 -16.69383117 31.08851162 -16.71118164 29.18945312 C-16.73554225 26.45390015 -16.7468115 23.71855212 -16.75561523 20.98291016 C-16.76593781 20.1389267 -16.77626038 19.29494324 -16.78689575 18.42538452 C-16.78804684 12.3265331 -16.17692308 7.90712404 -12.53282166 2.81240845 C-8.3469176 -0.23696035 -5.06004028 -0.05701022 0 0 Z M-112.56030273 120.64697266 C-112.56030273 129.55697266 -112.56030273 138.46697266 -112.56030273 147.64697266 C-99.36030273 147.64697266 -86.16030273 147.64697266 -72.56030273 147.64697266 C-72.56030273 138.73697266 -72.56030273 129.82697266 -72.56030273 120.64697266 C-85.76030273 120.64697266 -98.96030273 120.64697266 -112.56030273 120.64697266 Z M153.43969727 120.64697266 C153.43969727 129.55697266 153.43969727 138.46697266 153.43969727 147.64697266 C166.30969727 147.64697266 179.17969727 147.64697266 192.43969727 147.64697266 C192.43969727 138.73697266 192.43969727 129.82697266 192.43969727 120.64697266 C179.56969727 120.64697266 166.69969727 120.64697266 153.43969727 120.64697266 Z M-159.56030273 163.64697266 C-159.56030273 168.92697266 -159.56030273 174.20697266 -159.56030273 179.64697266 C-124.25030273 179.64697266 -88.94030273 179.64697266 -52.56030273 179.64697266 C-52.56030273 174.36697266 -52.56030273 169.08697266 -52.56030273 163.64697266 C-87.87030273 163.64697266 -123.18030273 163.64697266 -159.56030273 163.64697266 Z M132.43969727 163.64697266 C132.43969727 168.92697266 132.43969727 174.20697266 132.43969727 179.64697266 C167.74969727 179.64697266 203.05969727 179.64697266 239.43969727 179.64697266 C239.43969727 174.36697266 239.43969727 169.08697266 239.43969727 163.64697266 C204.12969727 163.64697266 168.81969727 163.64697266 132.43969727 163.64697266 Z M-112.56030273 251.64697266 C-112.56030273 260.55697266 -112.56030273 269.46697266 -112.56030273 278.64697266 C-99.36030273 278.64697266 -86.16030273 278.64697266 -72.56030273 278.64697266 C-72.56030273 269.73697266 -72.56030273 260.82697266 -72.56030273 251.64697266 C-85.76030273 251.64697266 -98.96030273 251.64697266 -112.56030273 251.64697266 Z M153.43969727 251.64697266 C153.43969727 260.55697266 153.43969727 269.46697266 153.43969727 278.64697266 C166.30969727 278.64697266 179.17969727 278.64697266 192.43969727 278.64697266 C192.43969727 269.73697266 192.43969727 260.82697266 192.43969727 251.64697266 C179.56969727 251.64697266 166.69969727 251.64697266 153.43969727 251.64697266 Z M-159.56030273 294.64697266 C-159.56030273 300.25697266 -159.56030273 305.86697266 -159.56030273 311.64697266 C-124.25030273 311.64697266 -88.94030273 311.64697266 -52.56030273 311.64697266 C-52.56030273 306.03697266 -52.56030273 300.42697266 -52.56030273 294.64697266 C-87.87030273 294.64697266 -123.18030273 294.64697266 -159.56030273 294.64697266 Z M132.43969727 294.64697266 C132.43969727 300.25697266 132.43969727 305.86697266 132.43969727 311.64697266 C167.74969727 311.64697266 203.05969727 311.64697266 239.43969727 311.64697266 C239.43969727 306.03697266 239.43969727 300.42697266 239.43969727 294.64697266 C204.12969727 294.64697266 168.81969727 294.64697266 132.43969727 294.64697266 Z M-112.56030273 383.64697266 C-112.56030273 392.22697266 -112.56030273 400.80697266 -112.56030273 409.64697266 C-99.36030273 409.64697266 -86.16030273 409.64697266 -72.56030273 409.64697266 C-72.56030273 401.06697266 -72.56030273 392.48697266 -72.56030273 383.64697266 C-85.76030273 383.64697266 -98.96030273 383.64697266 -112.56030273 383.64697266 Z M153.43969727 383.64697266 C153.43969727 392.22697266 153.43969727 400.80697266 153.43969727 409.64697266 C166.30969727 409.64697266 179.17969727 409.64697266 192.43969727 409.64697266 C192.43969727 401.06697266 192.43969727 392.48697266 192.43969727 383.64697266 C179.56969727 383.64697266 166.69969727 383.64697266 153.43969727 383.64697266 Z M-159.56030273 425.64697266 C-159.56030273 431.25697266 -159.56030273 436.86697266 -159.56030273 442.64697266 C-124.25030273 442.64697266 -88.94030273 442.64697266 -52.56030273 442.64697266 C-52.56030273 437.03697266 -52.56030273 431.42697266 -52.56030273 425.64697266 C-87.87030273 425.64697266 -123.18030273 425.64697266 -159.56030273 425.64697266 Z M132.43969727 425.64697266 C132.43969727 431.25697266 132.43969727 436.86697266 132.43969727 442.64697266 C167.74969727 442.64697266 203.05969727 442.64697266 239.43969727 442.64697266 C239.43969727 437.03697266 239.43969727 431.42697266 239.43969727 425.64697266 C204.12969727 425.64697266 168.81969727 425.64697266 132.43969727 425.64697266 Z " fill="#558ECE" transform="translate(174.560302734375,-0.64697265625)"/>
<path d="M0 0 C0.80763794 -0.01253311 1.61527588 -0.02506622 2.4473877 -0.03797913 C3.31101929 -0.02472092 4.17465088 -0.01146271 5.06445312 0.00219727 C5.95934448 -0.00021469 6.85423584 -0.00262665 7.77624512 -0.00511169 C9.66581662 -0.00413342 11.55541685 0.00925559 13.44482422 0.03417969 C16.335952 0.0684878 19.22402298 0.05483917 22.11523438 0.03540039 C23.95248696 0.042299 25.78973166 0.05197152 27.62695312 0.06469727 C28.49058472 0.0597374 29.35421631 0.05477753 30.24401855 0.04966736 C31.05165649 0.06550369 31.85929443 0.08134003 32.69140625 0.09765625 C33.75252625 0.10695412 33.75252625 0.10695412 34.83508301 0.11643982 C37.84422448 0.88669764 39.00203381 2.15595435 40.84570312 4.63110352 C41.36036682 7.66674805 41.36036682 7.66674805 41.37915039 11.26391602 C41.39207375 12.25001862 41.39207375 12.25001862 41.40525818 13.25604248 C41.42791036 15.42313313 41.42118237 17.5889299 41.41210938 19.75610352 C41.4173451 21.26538477 41.42362139 22.77466273 41.43089294 24.28393555 C41.44129545 27.44473688 41.43673792 30.60508797 41.42211914 33.76586914 C41.40492409 37.81494805 41.42843406 41.86260887 41.46360874 45.91152954 C41.48557629 49.02743925 41.48414315 52.14300921 41.47584343 55.25897217 C41.47502367 56.75170447 41.48189198 58.24446166 41.49661446 59.73712158 C41.51405265 61.82506331 41.49953114 63.91045172 41.47680664 65.99829102 C41.47584488 67.18535645 41.47488312 68.37242187 41.47389221 69.59545898 C40.84570312 72.63110352 40.84570312 72.63110352 38.55578613 75.01528931 C35.96768886 76.55837279 34.79032101 77.12978386 31.85327148 77.11694336 C30.73202126 77.12617325 30.73202126 77.12617325 29.58811951 77.1355896 C28.79527054 77.12121857 28.00242157 77.10684753 27.18554688 77.09204102 C26.3586586 77.09112457 25.53177032 77.09020813 24.67982483 77.08926392 C22.93745153 77.08323946 21.19508802 77.06752815 19.45288086 77.04272461 C16.78851105 77.00617633 14.12553207 77.00170578 11.4609375 77.00219727 C9.76496196 76.99236668 8.06899582 76.98070994 6.37304688 76.96704102 C5.57817368 76.96481537 4.78330048 76.96258972 3.96434021 76.96029663 C-3.29835391 76.83579864 -3.29835391 76.83579864 -6.15429688 74.63110352 C-8.35911597 71.20470009 -8.41771199 68.31091733 -8.44482422 64.28955078 C-8.45758392 63.00464249 -8.47034363 61.71973419 -8.48348999 60.39588928 C-8.48654739 58.99643098 -8.48877529 57.59697065 -8.49023438 56.19750977 C-8.49666386 54.75788745 -8.50339234 53.31826644 -8.51040649 51.87864685 C-8.52237083 48.86340302 -8.52608813 45.8482737 -8.52490234 42.83300781 C-8.52469905 38.97482004 -8.55201505 35.11736798 -8.58644676 31.25935459 C-8.60871416 28.2867243 -8.61273997 25.31427123 -8.61168289 22.34156609 C-8.61403857 20.91942748 -8.62286036 19.49728396 -8.63834763 18.07522774 C-8.65800303 16.08426568 -8.6496482 14.09308714 -8.64013672 12.10205078 C-8.64298676 10.97050064 -8.64583679 9.8389505 -8.64877319 8.67311096 C-7.82346364 3.5958247 -5.39275966 0.00733171 0 0 Z M7.84570312 16.63110352 C7.84570312 31.15110352 7.84570312 45.67110352 7.84570312 60.63110352 C13.45570313 60.63110352 19.06570312 60.63110352 24.84570312 60.63110352 C24.84570312 46.11110352 24.84570312 31.59110352 24.84570312 16.63110352 C19.23570312 16.63110352 13.62570313 16.63110352 7.84570312 16.63110352 Z " fill="#568FCE" transform="translate(198.154296875,81.368896484375)"/>
<path d="M0 0 C0.82593155 -0.0066568 1.6518631 -0.0133136 2.50282288 -0.02017212 C4.24689512 -0.03028149 5.99100591 -0.03498967 7.73510742 -0.03466797 C10.39762283 -0.03904191 13.05848076 -0.07537959 15.72070312 -0.11328125 C17.4179631 -0.11914972 19.11523092 -0.12311891 20.8125 -0.125 C22.00177345 -0.14655655 22.00177345 -0.14655655 23.21507263 -0.16854858 C23.96257278 -0.16239532 24.71007294 -0.15624207 25.48022461 -0.14990234 C26.13212265 -0.15275238 26.78402069 -0.15560242 27.45567322 -0.15853882 C30.61388431 0.61571687 32.2337414 2.00485345 34.47265625 4.3359375 C35.10084534 7.37158203 35.10084534 7.37158203 35.10375977 10.96875 C35.11091507 11.62615173 35.11807037 12.28355347 35.1254425 12.96087646 C35.14231558 15.12827612 35.12293946 17.29360292 35.1015625 19.4609375 C35.10239135 20.97021658 35.10485134 22.47949558 35.10887146 23.98876953 C35.11172846 27.14969094 35.09703928 30.30990337 35.06958008 33.47070312 C35.03549625 37.51965889 35.04151574 41.56734708 35.06024265 45.61636353 C35.07081828 48.73228494 35.06186996 51.84791209 35.04685783 54.96380615 C35.04167961 56.45651373 35.0421535 57.94925209 35.04840279 59.44195557 C35.0538623 61.52968263 35.0334615 63.61560384 35.00610352 65.703125 C34.99990494 66.89019043 34.99370636 68.07725586 34.98731995 69.30029297 C34.36519 72.96980646 33.45490839 74.16090795 30.47265625 76.3359375 C28.50672913 76.8506012 28.50672913 76.8506012 26.42602539 76.86938477 C25.64163589 76.8852211 24.8572464 76.90105743 24.04908752 76.91737366 C22.79115639 76.90993385 22.79115639 76.90993385 21.5078125 76.90234375 C20.63748886 76.90854233 19.76716522 76.91474091 18.87046814 76.92112732 C17.03222775 76.92822207 15.19392307 76.92505744 13.35571289 76.91235352 C10.54778307 76.8984998 7.7431946 76.9325457 4.93554688 76.97070312 C3.1471346 76.97165449 1.35871817 76.96979458 -0.4296875 76.96484375 C-1.26628403 76.97810196 -2.10288055 76.99136017 -2.96482849 77.00502014 C-4.14614098 76.98622047 -4.14614098 76.98622047 -5.35131836 76.96704102 C-6.03874619 76.96607925 -6.72617401 76.96511749 -7.43443298 76.96412659 C-10.81806996 75.94852484 -12.36053494 74.06293007 -14.52734375 71.3359375 C-15.14207458 68.29393005 -15.14207458 68.29393005 -15.12670898 64.86499023 C-15.13278671 63.57692978 -15.13886444 62.28886932 -15.14512634 60.96177673 C-15.12622242 59.56435016 -15.10647243 58.16693481 -15.0859375 56.76953125 C-15.08168407 55.32894824 -15.07935845 53.88835837 -15.07887268 52.44776917 C-15.0727173 49.43401859 -15.05006654 46.42101421 -15.0144043 43.4074707 C-14.96909156 39.54825123 -14.95437555 35.68970596 -14.95066738 31.83024502 C-14.94623499 28.85762408 -14.93092518 25.88514401 -14.91179085 22.9125843 C-14.9029246 21.48965676 -14.89618687 20.06671428 -14.89163017 18.6437664 C-14.88256862 16.65493471 -14.8584845 14.66618864 -14.83374023 12.67749023 C-14.82310043 11.54673569 -14.81246063 10.41598114 -14.80149841 9.2509613 C-14.53228722 6.38850026 -14.0688623 4.7337367 -12.52734375 2.3359375 C-8.88736374 -0.47400873 -4.3935971 0.01230208 0 0 Z M1.47265625 16.3359375 C1.47265625 30.8559375 1.47265625 45.3759375 1.47265625 60.3359375 C7.08265625 60.3359375 12.69265625 60.3359375 18.47265625 60.3359375 C18.47265625 45.8159375 18.47265625 31.2959375 18.47265625 16.3359375 C12.86265625 16.3359375 7.25265625 16.3359375 1.47265625 16.3359375 Z " fill="#568FCE" transform="translate(204.52734375,356.6640625)"/>
<path d="M0 0 C1.24632957 -0.01395813 1.24632957 -0.01395813 2.51783752 -0.02819824 C3.40647995 -0.01180298 4.29512238 0.00459229 5.21069336 0.02148438 C6.58988197 0.02142395 6.58988197 0.02142395 7.99693298 0.0213623 C9.93780362 0.0267172 11.87867373 0.04429868 13.81933594 0.07324219 C16.79355928 0.11513609 19.76552132 0.11430779 22.73999023 0.10742188 C24.62607371 0.11791307 26.5121455 0.1308508 28.39819336 0.14648438 C29.73419334 0.1467865 29.73419334 0.1467865 31.09718323 0.14709473 C31.92491745 0.16300659 32.75265167 0.17891846 33.60546875 0.1953125 C34.33286758 0.20373169 35.06026642 0.21215088 35.80970764 0.2208252 C38.42733597 0.75621951 39.2453756 1.38924063 40.73803711 3.61523438 C41.11898804 6.57531738 41.11898804 6.57531738 41.1262207 10.2421875 C41.13147766 10.91080307 41.13673462 11.57941864 41.14215088 12.26829529 C41.15535236 14.47792945 41.14661292 16.68684292 41.13647461 18.89648438 C41.13849532 20.43200824 41.14140673 21.96753118 41.14517212 23.50305176 C41.14959565 26.72104022 41.1431637 29.93877886 41.12915039 33.15673828 C41.11205822 37.28297053 41.12189929 41.40861741 41.13986778 45.53482819 C41.15070499 48.70555029 41.14725963 51.87613347 41.13948441 55.04685974 C41.13748221 56.5683143 41.13994237 58.08978145 41.14692307 59.61122131 C41.15453683 61.73724816 41.14293593 63.86232521 41.1262207 65.98828125 C41.12383392 67.19834839 41.12144714 68.40841553 41.11898804 69.65515137 C40.73803711 72.61523438 40.73803711 72.61523438 39.47206116 74.50317383 C37.35863206 75.8585536 36.10820109 76.00618868 33.60546875 76.03515625 C32.36386742 76.05902405 32.36386742 76.05902405 31.09718323 76.08337402 C29.76118324 76.08367615 29.76118324 76.08367615 28.39819336 76.08398438 C27.47969101 76.0915979 26.56118866 76.09921143 25.61485291 76.10705566 C23.67229938 76.11786097 21.72968774 76.12070802 19.78710938 76.11621094 C16.81468799 76.115239 13.84485096 76.15684603 10.87280273 76.20117188 C8.98543833 76.20637914 7.09806495 76.20906706 5.21069336 76.20898438 C4.32205093 76.22537964 3.43340851 76.2417749 2.51783752 76.25866699 C1.68695114 76.24936157 0.85606476 76.24005615 0 76.23046875 C-0.72819443 76.23252319 -1.45638885 76.23457764 -2.20664978 76.23669434 C-5.45541896 75.254372 -6.5131484 73.4523831 -8.26196289 70.61523438 C-8.76989746 67.57995605 -8.76989746 67.57995605 -8.77954102 64.16015625 C-8.79214966 62.87532349 -8.8047583 61.59049072 -8.81774902 60.26672363 C-8.81058897 58.87247161 -8.80238493 57.47822461 -8.79321289 56.08398438 C-8.79590954 54.64578998 -8.7997934 53.20759736 -8.80480957 51.76940918 C-8.81069664 48.75999538 -8.80216799 45.75105754 -8.78344727 42.74169922 C-8.76065725 38.89130517 -8.77378471 35.04202644 -8.79773712 31.19167328 C-8.81221707 28.22328341 -8.80757925 25.25515637 -8.79722595 22.28675842 C-8.79456469 20.86743537 -8.7978073 19.44808817 -8.80714417 18.02879333 C-8.81734388 16.04263793 -8.79903137 14.05639846 -8.77954102 12.0703125 C-8.77635864 10.94177856 -8.77317627 9.81324463 -8.76989746 8.6505127 C-7.90689045 3.4934184 -5.45420776 -0.01538787 0 0 Z M7.73803711 15.61523438 C7.73803711 30.46523437 7.73803711 45.31523437 7.73803711 60.61523438 C13.34803711 60.61523438 18.95803711 60.61523438 24.73803711 60.61523438 C24.73803711 45.76523437 24.73803711 30.91523438 24.73803711 15.61523438 C19.12803711 15.61523438 13.51803711 15.61523438 7.73803711 15.61523438 Z " fill="#568FCF" transform="translate(198.261962890625,219.384765625)"/>
</svg>
