<?xml version="1.0" encoding="UTF-8"?>
<svg version="1.1" xmlns="http://www.w3.org/2000/svg" width="512" height="512">
<path d="M0 0 C1.55487373 -0.01564648 1.55487373 -0.01564648 3.14115906 -0.03160906 C4.27849991 -0.02268617 5.41584076 -0.01376328 6.58764648 -0.00457001 C8.40163689 -0.01392995 8.40163689 -0.01392995 10.25227356 -0.02347898 C13.61069497 -0.0366909 16.96822396 -0.03191306 20.32659149 -0.01953411 C23.94765828 -0.01049813 27.56864608 -0.02444609 31.18969727 -0.0354538 C38.28392102 -0.05325923 45.37797568 -0.04939009 52.47220612 -0.03780323 C58.2367746 -0.02877711 64.00129562 -0.02754134 69.76586914 -0.0318985 C70.99558425 -0.0328179 70.99558425 -0.0328179 72.2501421 -0.03375587 C73.91546505 -0.03503474 75.58078799 -0.0363316 77.24611092 -0.03764623 C92.869301 -0.04905796 108.49239727 -0.03592906 124.11557198 -0.01444477 C137.52688339 0.00342676 150.93805632 0.00032282 164.34936523 -0.01811981 C179.91587098 -0.03951609 195.48229447 -0.04795927 211.04881287 -0.03567076 C212.70807901 -0.03439653 214.36734516 -0.03313905 216.02661133 -0.0318985 C216.84304517 -0.0312814 217.65947901 -0.03066429 218.50065327 -0.03002849 C224.25965153 -0.02657186 230.0185977 -0.03241067 235.77758789 -0.04181671 C242.7939737 -0.0530243 249.81018047 -0.05002293 256.82654572 -0.02869374 C260.40784054 -0.01816643 263.98883664 -0.01408969 267.57012939 -0.02729034 C271.44853395 -0.04137015 275.32644715 -0.02458196 279.20483398 -0.00457001 C280.91084526 -0.01795434 280.91084526 -0.01795434 282.65132141 -0.03160906 C283.6879039 -0.02117807 284.72448639 -0.01074708 285.79248047 0 C286.68797104 0.00064941 287.58346161 0.00129882 288.50608826 0.00196791 C291.7451251 0.68144028 292.92357329 1.87989427 294.89624023 4.50336456 C295.39303422 6.82117486 295.39303422 6.82117486 295.38843155 9.43088913 C295.39639574 10.42813767 295.40435994 11.4253862 295.41256547 12.45285439 C295.4009141 13.54623235 295.38926274 14.6396103 295.3772583 15.76612091 C295.380676 16.92926748 295.3840937 18.09241405 295.38761497 19.29080749 C295.39306958 22.52005572 295.3805501 25.74866364 295.36050272 28.97783613 C295.34324404 32.45973416 295.34907329 35.94160182 295.35211182 39.42353058 C295.35421019 45.45640148 295.34165019 51.48909947 295.31916046 57.52192688 C295.28666527 66.24437432 295.276236 74.96673806 295.27120849 83.68923947 C295.26245194 97.84054473 295.23582659 111.9917578 295.19799805 126.143013 C295.16128728 139.89040414 295.13297095 153.63777025 295.1159668 167.3852005 C295.1149159 168.23245635 295.11386501 169.0797122 295.11278227 169.95264247 C295.10756216 174.20303601 295.10250732 178.45342973 295.09753466 182.70382357 C295.05606139 217.97040295 294.98560316 253.23687526 294.89624023 288.50336456 C295.83949158 288.49448212 296.78274292 288.48559967 297.75457764 288.47644806 C306.64181484 288.39537765 315.52897708 288.33540669 324.41650009 288.29611588 C328.98574987 288.27523691 333.55470126 288.24691385 338.1237793 288.20160675 C342.53284896 288.15815968 346.94163154 288.13422978 351.35089874 288.12385559 C353.0334551 288.11646214 354.71599566 288.1020244 356.39842987 288.08044434 C358.75449124 288.05142453 361.10936496 288.04740782 363.46557617 288.049263 C364.1618512 288.0348819 364.85812622 288.02050079 365.57550049 288.0056839 C368.96158807 288.03455161 370.62769629 288.29306051 373.32891083 290.4084549 C375.05436593 292.71471711 375.4007195 293.72722471 375.41381836 296.56586456 C375.43273132 297.74729034 375.43273132 297.74729034 375.45202637 298.95258331 C375.43988098 300.21522003 375.43988098 300.21522003 375.42749023 301.50336456 C375.43131714 302.37605988 375.43514404 303.24875519 375.43908691 304.14789581 C375.44180514 305.99035548 375.43445018 307.8328538 375.41772461 309.67523956 C375.39631271 312.4938239 375.41752825 315.30985941 375.44311523 318.12836456 C375.44047194 319.92003685 375.43534693 321.71170755 375.42749023 323.50336456 C375.43558716 324.34512238 375.44368408 325.18688019 375.45202637 326.05414581 C375.4331134 327.23557159 375.4331134 327.23557159 375.41381836 328.44086456 C375.41063599 329.130513 375.40745361 329.82016144 375.4041748 330.53070831 C374.64698564 333.47139011 373.24726729 334.61732962 370.89624023 336.50336456 C367.88061523 336.89398956 367.88061523 336.89398956 364.64624023 336.75336456 C363.56858398 336.71727081 362.49092773 336.68117706 361.38061523 336.64398956 C360.56077148 336.59758331 359.74092773 336.55117706 358.89624023 336.50336456 C358.89992741 337.1387402 358.90361458 337.77411583 358.90741348 338.42874527 C358.99573249 353.88542717 359.06193409 369.34202137 359.10348892 384.79889297 C359.12411844 392.27371784 359.15224625 399.74837433 359.19799805 407.22309113 C359.23785418 413.73770327 359.26367022 420.25219347 359.27259421 426.76692414 C359.27781114 430.2168196 359.29008017 433.6663662 359.31916046 437.1161499 C359.35135287 440.96631685 359.35220043 444.81614183 359.3503418 448.6664505 C359.3647229 449.81156097 359.379104 450.95667145 359.3939209 452.13648224 C359.38842224 453.185336 359.38292358 454.23418976 359.3772583 455.31482697 C359.38094547 456.22555843 359.38463264 457.1362899 359.38843155 458.07461929 C358.72111856 461.36751217 357.5045917 462.41767128 354.89624023 464.50336456 C352.09571838 465.00476122 352.09571838 465.00476122 348.79296875 465.00672913 C347.53344894 465.01716012 346.27392914 465.0275911 344.97624207 465.03833818 C343.57587457 465.02968967 342.17550938 465.02066303 340.77514648 465.01129913 C339.28961068 465.01590651 337.80407942 465.02225832 336.31855774 465.03020811 C332.23062748 465.04694729 328.14306945 465.03863444 324.05513763 465.02626324 C319.64879296 465.01723374 315.24251347 465.03117201 310.83618164 465.04218292 C302.20190562 465.05999525 293.56776846 465.05611611 284.93348694 465.04453236 C277.9179673 465.03550896 270.90248666 465.03426929 263.88696289 465.03862762 C262.8895297 465.03924056 261.8920965 465.03985349 260.86443806 465.04048499 C258.83834711 465.04176386 256.81225617 465.04306071 254.78616524 465.04437536 C235.77513375 465.05578911 216.76417933 465.042655 197.75316048 465.02117389 C181.43102345 465.0033022 165.10900021 465.00640608 148.78686523 465.02484894 C129.84515 465.04624163 110.90350236 465.0546904 91.96177673 465.04239988 C89.94302369 465.04112565 87.92427064 465.03986817 85.90551758 465.03862762 C84.91218068 465.03801052 83.91884378 465.03739342 82.89540577 465.03675762 C75.88606459 465.03329991 68.87676619 465.03914212 61.86743164 465.04854584 C53.32858912 465.05974942 44.78989372 465.05676041 36.25106812 465.03542286 C31.89208882 465.02489028 27.53335507 465.02082801 23.17437744 465.03401947 C19.18711075 465.04590378 15.20031814 465.03944694 11.21309471 465.01810926 C9.7676662 465.01362628 8.32219796 465.01594734 6.87679482 465.02561241 C4.9177277 465.0377114 2.95854901 465.02295332 0.99951172 465.00672913 C-0.63534935 465.00575501 -0.63534935 465.00575501 -2.30323792 465.00476122 C-5.79091648 464.38033818 -6.97649778 463.2901958 -9.10375977 460.50336456 C-9.55786133 457.4789505 -9.55786133 457.4789505 -9.49438477 453.98773956 C-9.48149414 452.73734894 -9.46860352 451.48695831 -9.45532227 450.19867706 C-9.42180664 448.89672394 -9.38829102 447.59477081 -9.35375977 446.25336456 C-9.33571289 444.93594269 -9.31766602 443.61852081 -9.29907227 442.26117706 C-9.25192247 439.00784149 -9.1861202 435.75596831 -9.10375977 432.50336456 C-9.68383789 432.45438019 -10.26391602 432.40539581 -10.86157227 432.35492706 C-11.64274414 432.28016144 -12.42391602 432.20539581 -13.22875977 432.12836456 C-13.99446289 432.05875519 -14.76016602 431.98914581 -15.54907227 431.91742706 C-18.53924079 431.43278201 -21.25474845 430.51909903 -24.10375977 429.50336456 C-24.11310547 430.42149933 -24.12245117 431.33963409 -24.13208008 432.28559113 C-24.17615908 435.70041734 -24.23779709 439.11399565 -24.3112793 442.52826691 C-24.33946065 444.00438652 -24.36068942 445.48065625 -24.37475586 446.95697784 C-24.39622674 449.08259513 -24.44289019 451.20641335 -24.49438477 453.33148956 C-24.51533203 454.60927277 -24.5362793 455.88705597 -24.55786133 457.20355988 C-25.1871147 461.00722201 -26.07388009 462.20224397 -29.10375977 464.50336456 C-31.10375977 465.03461456 -31.10375977 465.03461456 -33.10375977 465.00336456 C-34.09375977 465.01883331 -34.09375977 465.01883331 -35.10375977 465.03461456 C-38.08095832 464.2437962 -39.19767861 462.90956094 -41.10375977 460.50336456 C-41.6496582 457.20355988 -41.6496582 457.20355988 -41.71313477 453.33148956 C-41.72967102 452.64907196 -41.74620728 451.96665436 -41.76324463 451.26355743 C-41.81165815 449.09340103 -41.83307841 446.92394485 -41.85375977 444.75336456 C-41.88192538 443.27806904 -41.91185366 441.80280605 -41.94360352 440.32758331 C-42.01741201 436.71966258 -42.0670287 433.11187484 -42.10375977 429.50336456 C-42.64468262 429.71485138 -43.18560547 429.9263382 -43.74291992 430.1442337 C-49.43962066 432.22715487 -54.42999912 433.01884122 -60.47875977 432.94086456 C-61.72375244 432.9295047 -61.72375244 432.9295047 -62.99389648 432.91791534 C-73.60465844 432.63405001 -81.7841525 429.00404628 -90.10375977 422.50336456 C-90.71993164 422.02512238 -91.33610352 421.54688019 -91.97094727 421.05414581 C-98.66679793 415.14691756 -104.49219034 404.49550103 -105.28076172 395.47968292 C-105.74963464 379.13264352 -103.27007424 367.22900623 -91.91625977 354.81586456 C-87.62292341 350.67724304 -82.4106264 348.12321012 -77.10375977 345.50336456 C-77.26231445 344.82273956 -77.42086914 344.14211456 -77.58422852 343.44086456 C-79.83865655 330.69402337 -78.03132648 318.01789942 -70.85375977 307.12836456 C-63.89945494 298.0421904 -54.51038679 290.91872945 -43.10375977 288.50336456 C-39.961671 288.21253268 -36.82031547 288.18026376 -33.66625977 288.12836456 C-32.83932617 288.09098175 -32.01239258 288.05359894 -31.16040039 288.01508331 C-25.64256645 287.93909172 -21.39486527 288.9779665 -16.25976562 291.03607941 C-15.10286728 291.4954187 -13.94596893 291.954758 -12.75401306 292.42801666 C-11.87942947 292.78288147 -11.00484589 293.13774628 -10.10375977 293.50336456 C-10.10286413 292.58837004 -10.10286413 292.58837004 -10.10195041 291.65489078 C-10.06607653 255.5221885 -10.00946853 219.38957421 -9.92583881 183.25694977 C-9.91582105 178.92095686 -9.90597697 174.58496358 -9.89624023 170.24897003 C-9.89332817 168.95411239 -9.89332817 168.95411239 -9.89035729 167.63309601 C-9.85931439 153.64547213 -9.84235025 139.65786468 -9.83056554 125.67021284 C-9.81816583 111.32350914 -9.79069118 96.97689179 -9.7491467 82.63024259 C-9.72397741 73.77360878 -9.71064498 64.9171181 -9.71233019 56.06044802 C-9.71235989 49.99166449 -9.6977809 43.92302704 -9.67159548 37.85430041 C-9.65691022 34.35000248 -9.64877984 30.8460041 -9.65795708 27.34168053 C-9.66772882 23.54623885 -9.64679628 19.75132663 -9.6227417 15.95594025 C-9.63050212 14.84310755 -9.63826253 13.73027486 -9.64625812 12.58371997 C-9.63481053 11.56905445 -9.62336294 10.55438894 -9.61156845 9.50897598 C-9.61004957 8.63258146 -9.60853069 7.75618694 -9.60696578 6.85323501 C-8.47392286 1.56215344 -5.05862334 0.00366851 0 0 Z M6.89624023 16.50336456 C6.80884255 69.09515424 6.80884255 69.09515424 6.74975586 121.68695831 C6.74388226 128.77663951 6.73782082 135.86632051 6.73144531 142.95600128 C6.73065407 143.84457498 6.72986282 144.73314868 6.7290476 145.64864886 C6.71600034 159.99323452 6.69234925 174.3377841 6.66478185 188.68234837 C6.6367254 203.4041863 6.62006347 218.12600535 6.61397475 232.84786892 C6.60985881 241.93174998 6.59685975 251.01552909 6.57249083 260.09937876 C6.5566307 266.32885768 6.55184051 272.5582839 6.5557361 278.78778154 C6.55765722 282.38166544 6.55471607 285.97537119 6.53862381 289.5692234 C6.5212929 293.46823461 6.52728227 297.36701437 6.53547668 301.26605988 C6.52673816 302.39836879 6.51799964 303.5306777 6.50899631 304.697299 C6.54509678 311.04628773 7.2991276 315.70176531 9.89624023 321.50336456 C10.96418561 325.5296414 11.03020421 329.34407912 11.02124023 333.50336456 C11.02381836 334.69961456 11.02639648 335.89586456 11.02905273 337.12836456 C10.91381961 340.0566415 10.57447586 342.66123432 9.89624023 345.50336456 C11.18208008 346.24779816 11.18208008 346.24779816 12.49389648 347.00727081 C24.8211195 354.26515321 33.30552015 362.31240206 37.46777344 376.44379425 C40.14460047 389.3108671 37.95996817 402.07672609 31.20874023 413.19086456 C24.76471646 422.19000001 16.83427227 426.93415443 6.89624023 431.50336456 C6.89624023 437.11336456 6.89624023 442.72336456 6.89624023 448.50336456 C33.29624023 448.50336456 59.69624023 448.50336456 86.89624023 448.50336456 C86.93362305 441.89691925 86.97100586 435.29047394 87.00952148 428.48383331 C87.03978853 424.30477048 87.07092808 420.12575089 87.10522461 415.94672394 C87.15960791 409.30994555 87.21071527 402.67325273 87.24267578 396.03632355 C87.26863762 390.68697499 87.30898928 385.33791276 87.3594265 379.98874092 C87.3761435 377.94538998 87.38762757 375.90198947 87.39385414 373.85857964 C87.40344277 371.00183034 87.43143877 368.14582159 87.46386719 365.28925323 C87.46171455 364.01503006 87.46171455 364.01503006 87.45951843 362.715065 C87.55202009 356.97360955 87.55202009 356.97360955 89.15310955 354.78633404 C91.32763831 353.18584932 92.50114781 353.12640657 95.18505859 353.12241364 C96.05991913 353.11395416 96.93477966 353.10549469 97.83615112 353.09677887 C99.27161789 353.10588791 99.27161789 353.10588791 100.73608398 353.11518097 C102.25106979 353.10729553 102.25106979 353.10729553 103.79666138 353.09925079 C107.14251063 353.08602333 110.48788596 353.0947988 113.83374023 353.10492706 C116.15397229 353.10290712 118.47420372 353.09999636 120.79443359 353.09622955 C125.66013628 353.09180247 130.5256739 353.09824976 135.39135742 353.11225128 C141.63621662 353.1293432 147.88068905 353.1195041 154.12553406 353.10153389 C158.91755094 353.09070653 163.70947574 353.09413761 168.50149536 353.10191727 C170.80445399 353.10392217 173.10742092 353.10144988 175.41036987 353.09447861 C178.62593818 353.08688152 181.84087533 353.09844432 185.05639648 353.11518097 C186.01337433 353.10910828 186.97035217 353.10303558 187.95632935 353.09677887 C188.83118988 353.10523834 189.70605042 353.11369781 190.60742188 353.12241364 C191.74782677 353.12411025 191.74782677 353.12411025 192.91127014 353.12584114 C195.48336083 353.61502961 196.35981609 354.40442944 197.89624023 356.50336456 C198.20620776 359.49899763 198.33367858 362.29091417 198.32861328 365.28925323 C198.33880493 366.18701981 198.34899658 367.08478638 198.35949707 368.009758 C198.38971702 370.98034584 198.39890676 373.95061171 198.40795898 376.92133331 C198.42479899 378.97971933 198.44294831 381.03809503 198.46235657 383.09645844 C198.50993628 388.51662723 198.53969409 393.93675418 198.5657959 399.35706329 C198.60079363 405.85914125 198.65782894 412.36105839 198.71118927 418.86300659 C198.78979655 428.74310585 198.84033179 438.62299326 198.89624023 448.50336456 C225.29624023 448.50336456 251.69624023 448.50336456 278.89624023 448.50336456 C278.89624023 305.94336456 278.89624023 163.38336456 278.89624023 16.50336456 C189.13624023 16.50336456 99.37624023 16.50336456 6.89624023 16.50336456 Z M294.89624023 304.50336456 C294.89624023 309.78336456 294.89624023 315.06336456 294.89624023 320.50336456 C316.01624023 320.50336456 337.13624023 320.50336456 358.89624023 320.50336456 C358.89624023 315.22336456 358.89624023 309.94336456 358.89624023 304.50336456 C337.77624023 304.50336456 316.65624023 304.50336456 294.89624023 304.50336456 Z M-56.47485352 317.18305206 C-60.89047256 323.47292668 -62.17168598 329.88174379 -61.10375977 337.50336456 C-60.18926868 340.37747942 -59.11984578 343.15039191 -58.00610352 345.95258331 C-56.76538352 349.45990002 -56.56760997 351.82690884 -57.10375977 355.50336456 C-59.57151668 359.04405927 -63.35293174 359.63700708 -67.29125977 360.75336456 C-75.88476551 363.43742271 -81.38384342 367.14118346 -86.10375977 375.00336456 C-89.40692448 382.37369128 -89.48702937 390.73171894 -87.25219727 398.44086456 C-83.94154613 405.82789567 -78.65748986 410.59958058 -71.60375977 414.37836456 C-62.53481138 417.29338369 -54.91456412 416.64398951 -46.20092773 412.62592316 C-44.10373448 411.41770534 -42.65516225 410.36808048 -41.10375977 408.50336456 C-40.19357089 405.11673588 -40.25866342 401.86689882 -40.35375977 398.37836456 C-40.37162509 396.58417511 -40.37735926 394.78981273 -40.36938477 392.99555206 C-40.38775391 392.20519562 -40.40612305 391.41483917 -40.42504883 390.60053253 C-40.02124148 387.96473839 -39.18365553 387.11613827 -37.10375977 385.50336456 C-35.16625977 385.10492706 -35.16625977 385.10492706 -33.10375977 385.12836456 C-32.08282227 385.116763 -32.08282227 385.116763 -31.04125977 385.10492706 C-28.49909467 385.62771101 -27.70916064 386.483413 -26.10375977 388.50336456 C-25.7824707 390.60053253 -25.7824707 390.60053253 -25.83813477 392.99555206 C-25.83233398 394.30072784 -25.83233398 394.30072784 -25.82641602 395.63227081 C-25.84456962 397.45541143 -25.87829627 399.27846685 -25.92797852 401.10102081 C-25.96108401 406.01195344 -25.96108401 406.01195344 -23.69848633 410.18231964 C-17.02892569 415.1698719 -8.63109339 417.19497213 -0.41625977 416.06586456 C7.9825071 414.06903959 13.92339078 409.43391764 18.74780273 402.37055206 C22.57745661 396.14410801 23.57830053 389.19415738 22.33374023 382.00336456 C20.34115854 374.44211085 15.7065048 368.23906355 9.32202148 363.78852081 C4.24100653 361.09664654 -2.285618 358.50336456 -8.10375977 358.50336456 C-9.92843854 353.02932825 -9.43372129 348.93197164 -7.10375977 343.75336456 C-4.02918124 336.50614376 -4.05360725 329.75001454 -6.60375977 322.31586456 C-9.97136766 314.88349486 -15.83779111 309.07967892 -23.49047852 306.13227081 C-37.08212847 302.86133562 -47.75426408 306.50693651 -56.47485352 317.18305206 Z M294.89624023 336.50336456 C294.89624023 373.46336456 294.89624023 410.42336456 294.89624023 448.50336456 C310.73624023 448.50336456 326.57624023 448.50336456 342.89624023 448.50336456 C342.89624023 411.54336456 342.89624023 374.58336456 342.89624023 336.50336456 C327.05624023 336.50336456 311.21624023 336.50336456 294.89624023 336.50336456 Z M102.89624023 368.50336456 C102.89624023 394.90336456 102.89624023 421.30336456 102.89624023 448.50336456 C129.29624023 448.50336456 155.69624023 448.50336456 182.89624023 448.50336456 C182.89624023 422.10336456 182.89624023 395.70336456 182.89624023 368.50336456 C156.49624023 368.50336456 130.09624023 368.50336456 102.89624023 368.50336456 Z " fill="#558FCF" transform="translate(121.103759765625,23.49663543701172)"/>
<path d="M0 0 C1.18142578 -0.01891296 1.18142578 -0.01891296 2.38671875 -0.03820801 C3.22847656 -0.03011108 4.07023437 -0.02201416 4.9375 -0.01367188 C5.81019531 -0.01749878 6.68289063 -0.02132568 7.58203125 -0.02526855 C9.42449092 -0.02798678 11.26698924 -0.02063182 13.109375 -0.00390625 C15.92795934 0.01750565 18.74399485 -0.00370989 21.5625 -0.02929688 C23.35417229 -0.02665358 25.14584299 -0.02152857 26.9375 -0.01367188 C27.77925781 -0.0217688 28.62101562 -0.02986572 29.48828125 -0.03820801 C30.27589844 -0.02559937 31.06351562 -0.01299072 31.875 0 C32.90947266 0.00477356 32.90947266 0.00477356 33.96484375 0.00964355 C36.90886907 0.76769364 38.10322175 2.1315937 39.9375 4.51757812 C40.44543457 7.09765625 40.44543457 7.09765625 40.45507812 10.04882812 C40.46768677 11.15677734 40.48029541 12.26472656 40.49328613 13.40625 C40.48518921 14.59798828 40.47709229 15.78972656 40.46875 17.01757812 C40.4725769 18.24541016 40.47640381 19.47324219 40.48034668 20.73828125 C40.48306842 23.33399272 40.47568911 25.92973149 40.45898438 28.52539062 C40.43758075 32.50257412 40.45877963 36.47795094 40.484375 40.45507812 C40.48173177 42.97591545 40.47660691 45.49675166 40.46875 48.01757812 C40.47684692 49.20931641 40.48494385 50.40105469 40.49328613 51.62890625 C40.48067749 52.73685547 40.46806885 53.84480469 40.45507812 54.98632812 C40.45030457 56.4471582 40.45030457 56.4471582 40.44543457 57.9375 C39.78603494 61.28695218 38.63188172 62.47195627 35.9375 64.51757812 C33.96484375 65.0255127 33.96484375 65.0255127 31.875 65.03515625 C30.69357422 65.05406921 30.69357422 65.05406921 29.48828125 65.07336426 C28.64652344 65.06526733 27.80476563 65.05717041 26.9375 65.04882812 C26.06480469 65.05265503 25.19210937 65.05648193 24.29296875 65.0604248 C22.45050908 65.06314303 20.60801076 65.05578807 18.765625 65.0390625 C15.94704066 65.0176506 13.13100515 65.03886614 10.3125 65.06445312 C8.52082771 65.06180983 6.72915701 65.05668482 4.9375 65.04882812 C3.67486328 65.06097351 3.67486328 65.06097351 2.38671875 65.07336426 C1.20529297 65.05445129 1.20529297 65.05445129 0 65.03515625 C-0.68964844 65.03197388 -1.37929688 65.0287915 -2.08984375 65.0255127 C-5.03386907 64.26746261 -6.22822175 62.90356255 -8.0625 60.51757812 C-8.57043457 57.9375 -8.57043457 57.9375 -8.58007812 54.98632812 C-8.59268677 53.87837891 -8.60529541 52.77042969 -8.61828613 51.62890625 C-8.61018921 50.43716797 -8.60209229 49.24542969 -8.59375 48.01757812 C-8.5975769 46.78974609 -8.60140381 45.56191406 -8.60534668 44.296875 C-8.60806842 41.70116353 -8.60068911 39.10542476 -8.58398438 36.50976562 C-8.56258075 32.53258213 -8.58377963 28.55720531 -8.609375 24.58007812 C-8.60673177 22.0592408 -8.60160691 19.53840459 -8.59375 17.01757812 C-8.60184692 15.82583984 -8.60994385 14.63410156 -8.61828613 13.40625 C-8.60567749 12.29830078 -8.59306885 11.19035156 -8.58007812 10.04882812 C-8.57689575 9.07494141 -8.57371338 8.10105469 -8.57043457 7.09765625 C-7.63926889 2.36775532 -4.76089892 0.0219691 0 0 Z M7.9375 16.51757812 C7.9375 27.07757813 7.9375 37.63757813 7.9375 48.51757812 C13.2175 48.51757812 18.4975 48.51757812 23.9375 48.51757812 C23.9375 37.95757812 23.9375 27.39757812 23.9375 16.51757812 C18.6575 16.51757812 13.3775 16.51757812 7.9375 16.51757812 Z " fill="#558ECF" transform="translate(344.0625,295.482421875)"/>
<path d="M0 0 C1.18142578 -0.01891296 1.18142578 -0.01891296 2.38671875 -0.03820801 C3.22847656 -0.03011108 4.07023437 -0.02201416 4.9375 -0.01367188 C5.81019531 -0.01749878 6.68289063 -0.02132568 7.58203125 -0.02526855 C9.42449092 -0.02798678 11.26698924 -0.02063182 13.109375 -0.00390625 C15.92795934 0.01750565 18.74399485 -0.00370989 21.5625 -0.02929688 C23.35417229 -0.02665358 25.14584299 -0.02152857 26.9375 -0.01367188 C27.77925781 -0.0217688 28.62101562 -0.02986572 29.48828125 -0.03820801 C30.27589844 -0.02559937 31.06351562 -0.01299072 31.875 0 C32.90947266 0.00477356 32.90947266 0.00477356 33.96484375 0.00964355 C36.90886907 0.76769364 38.10322175 2.1315937 39.9375 4.51757812 C40.44543457 7.09765625 40.44543457 7.09765625 40.45507812 10.04882812 C40.46768677 11.15677734 40.48029541 12.26472656 40.49328613 13.40625 C40.48518921 14.59798828 40.47709229 15.78972656 40.46875 17.01757812 C40.4725769 18.24541016 40.47640381 19.47324219 40.48034668 20.73828125 C40.48306842 23.33399272 40.47568911 25.92973149 40.45898438 28.52539062 C40.43758075 32.50257412 40.45877963 36.47795094 40.484375 40.45507812 C40.48173177 42.97591545 40.47660691 45.49675166 40.46875 48.01757812 C40.47684692 49.20931641 40.48494385 50.40105469 40.49328613 51.62890625 C40.48067749 52.73685547 40.46806885 53.84480469 40.45507812 54.98632812 C40.45030457 56.4471582 40.45030457 56.4471582 40.44543457 57.9375 C39.78603494 61.28695218 38.63188172 62.47195627 35.9375 64.51757812 C33.96484375 65.0255127 33.96484375 65.0255127 31.875 65.03515625 C30.69357422 65.05406921 30.69357422 65.05406921 29.48828125 65.07336426 C28.64652344 65.06526733 27.80476563 65.05717041 26.9375 65.04882812 C26.06480469 65.05265503 25.19210937 65.05648193 24.29296875 65.0604248 C22.45050908 65.06314303 20.60801076 65.05578807 18.765625 65.0390625 C15.94704066 65.0176506 13.13100515 65.03886614 10.3125 65.06445312 C8.52082771 65.06180983 6.72915701 65.05668482 4.9375 65.04882812 C3.67486328 65.06097351 3.67486328 65.06097351 2.38671875 65.07336426 C1.20529297 65.05445129 1.20529297 65.05445129 0 65.03515625 C-0.68964844 65.03197388 -1.37929688 65.0287915 -2.08984375 65.0255127 C-5.03386907 64.26746261 -6.22822175 62.90356255 -8.0625 60.51757812 C-8.57043457 57.9375 -8.57043457 57.9375 -8.58007812 54.98632812 C-8.59268677 53.87837891 -8.60529541 52.77042969 -8.61828613 51.62890625 C-8.61018921 50.43716797 -8.60209229 49.24542969 -8.59375 48.01757812 C-8.5975769 46.78974609 -8.60140381 45.56191406 -8.60534668 44.296875 C-8.60806842 41.70116353 -8.60068911 39.10542476 -8.58398438 36.50976562 C-8.56258075 32.53258213 -8.58377963 28.55720531 -8.609375 24.58007812 C-8.60673177 22.0592408 -8.60160691 19.53840459 -8.59375 17.01757812 C-8.60184692 15.82583984 -8.60994385 14.63410156 -8.61828613 13.40625 C-8.60567749 12.29830078 -8.59306885 11.19035156 -8.58007812 10.04882812 C-8.57689575 9.07494141 -8.57371338 8.10105469 -8.57043457 7.09765625 C-7.63926889 2.36775532 -4.76089892 0.0219691 0 0 Z M7.9375 16.51757812 C7.9375 27.07757813 7.9375 37.63757813 7.9375 48.51757812 C13.2175 48.51757812 18.4975 48.51757812 23.9375 48.51757812 C23.9375 37.95757812 23.9375 27.39757812 23.9375 16.51757812 C18.6575 16.51757812 13.3775 16.51757812 7.9375 16.51757812 Z " fill="#558ECF" transform="translate(280.0625,295.482421875)"/>
<path d="M0 0 C1.18142578 -0.01891296 1.18142578 -0.01891296 2.38671875 -0.03820801 C3.22847656 -0.03011108 4.07023438 -0.02201416 4.9375 -0.01367188 C5.81019531 -0.01749878 6.68289062 -0.02132568 7.58203125 -0.02526855 C9.42449092 -0.02798678 11.26698924 -0.02063182 13.109375 -0.00390625 C15.92795934 0.01750565 18.74399485 -0.00370989 21.5625 -0.02929688 C23.35417229 -0.02665358 25.14584299 -0.02152857 26.9375 -0.01367188 C27.77925781 -0.0217688 28.62101562 -0.02986572 29.48828125 -0.03820801 C30.27589844 -0.02559937 31.06351563 -0.01299072 31.875 0 C32.90947266 0.00477356 32.90947266 0.00477356 33.96484375 0.00964355 C36.90886907 0.76769364 38.10322175 2.1315937 39.9375 4.51757812 C40.44543457 7.09765625 40.44543457 7.09765625 40.45507812 10.04882812 C40.46768677 11.15677734 40.48029541 12.26472656 40.49328613 13.40625 C40.48518921 14.59798828 40.47709229 15.78972656 40.46875 17.01757812 C40.4725769 18.24541016 40.47640381 19.47324219 40.48034668 20.73828125 C40.48306842 23.33399272 40.47568911 25.92973149 40.45898438 28.52539062 C40.43758075 32.50257412 40.45877963 36.47795094 40.484375 40.45507812 C40.48173177 42.97591545 40.47660691 45.49675166 40.46875 48.01757812 C40.47684692 49.20931641 40.48494385 50.40105469 40.49328613 51.62890625 C40.48067749 52.73685547 40.46806885 53.84480469 40.45507812 54.98632812 C40.45030457 56.4471582 40.45030457 56.4471582 40.44543457 57.9375 C39.78603494 61.28695218 38.63188172 62.47195627 35.9375 64.51757812 C33.96484375 65.0255127 33.96484375 65.0255127 31.875 65.03515625 C30.69357422 65.05406921 30.69357422 65.05406921 29.48828125 65.07336426 C28.64652344 65.06526733 27.80476563 65.05717041 26.9375 65.04882812 C26.06480469 65.05265503 25.19210938 65.05648193 24.29296875 65.0604248 C22.45050908 65.06314303 20.60801076 65.05578807 18.765625 65.0390625 C15.94704066 65.0176506 13.13100515 65.03886614 10.3125 65.06445312 C8.52082771 65.06180983 6.72915701 65.05668482 4.9375 65.04882812 C3.67486328 65.06097351 3.67486328 65.06097351 2.38671875 65.07336426 C1.20529297 65.05445129 1.20529297 65.05445129 0 65.03515625 C-0.68964844 65.03197388 -1.37929687 65.0287915 -2.08984375 65.0255127 C-5.03386907 64.26746261 -6.22822175 62.90356255 -8.0625 60.51757812 C-8.57043457 57.9375 -8.57043457 57.9375 -8.58007812 54.98632812 C-8.59268677 53.87837891 -8.60529541 52.77042969 -8.61828613 51.62890625 C-8.61018921 50.43716797 -8.60209229 49.24542969 -8.59375 48.01757812 C-8.5975769 46.78974609 -8.60140381 45.56191406 -8.60534668 44.296875 C-8.60806842 41.70116353 -8.60068911 39.10542476 -8.58398438 36.50976562 C-8.56258075 32.53258213 -8.58377963 28.55720531 -8.609375 24.58007812 C-8.60673177 22.0592408 -8.60160691 19.53840459 -8.59375 17.01757812 C-8.60184692 15.82583984 -8.60994385 14.63410156 -8.61828613 13.40625 C-8.60567749 12.29830078 -8.59306885 11.19035156 -8.58007812 10.04882812 C-8.57689575 9.07494141 -8.57371338 8.10105469 -8.57043457 7.09765625 C-7.63926889 2.36775532 -4.76089892 0.0219691 0 0 Z M7.9375 16.51757812 C7.9375 27.07757813 7.9375 37.63757813 7.9375 48.51757812 C13.2175 48.51757812 18.4975 48.51757812 23.9375 48.51757812 C23.9375 37.95757812 23.9375 27.39757812 23.9375 16.51757812 C18.6575 16.51757812 13.3775 16.51757812 7.9375 16.51757812 Z " fill="#558ECF" transform="translate(216.0625,295.482421875)"/>
<path d="M0 0 C1.18142578 -0.01891296 1.18142578 -0.01891296 2.38671875 -0.03820801 C3.22847656 -0.03011108 4.07023438 -0.02201416 4.9375 -0.01367188 C5.81019531 -0.01749878 6.68289062 -0.02132568 7.58203125 -0.02526855 C9.42449092 -0.02798678 11.26698924 -0.02063182 13.109375 -0.00390625 C15.92795934 0.01750565 18.74399485 -0.00370989 21.5625 -0.02929688 C23.35417229 -0.02665358 25.14584299 -0.02152857 26.9375 -0.01367188 C27.77925781 -0.0217688 28.62101562 -0.02986572 29.48828125 -0.03820801 C30.27589844 -0.02559937 31.06351563 -0.01299072 31.875 0 C32.90947266 0.00477356 32.90947266 0.00477356 33.96484375 0.00964355 C36.90886907 0.76769364 38.10322175 2.1315937 39.9375 4.51757812 C40.44543457 7.09765625 40.44543457 7.09765625 40.45507812 10.04882812 C40.46768677 11.15677734 40.48029541 12.26472656 40.49328613 13.40625 C40.48518921 14.59798828 40.47709229 15.78972656 40.46875 17.01757812 C40.4725769 18.24541016 40.47640381 19.47324219 40.48034668 20.73828125 C40.48306842 23.33399272 40.47568911 25.92973149 40.45898438 28.52539062 C40.43758075 32.50257412 40.45877963 36.47795094 40.484375 40.45507812 C40.48173177 42.97591545 40.47660691 45.49675166 40.46875 48.01757812 C40.47684692 49.20931641 40.48494385 50.40105469 40.49328613 51.62890625 C40.48067749 52.73685547 40.46806885 53.84480469 40.45507812 54.98632812 C40.45030457 56.4471582 40.45030457 56.4471582 40.44543457 57.9375 C39.78603494 61.28695218 38.63188172 62.47195627 35.9375 64.51757812 C33.96484375 65.0255127 33.96484375 65.0255127 31.875 65.03515625 C30.69357422 65.05406921 30.69357422 65.05406921 29.48828125 65.07336426 C28.64652344 65.06526733 27.80476563 65.05717041 26.9375 65.04882812 C26.06480469 65.05265503 25.19210938 65.05648193 24.29296875 65.0604248 C22.45050908 65.06314303 20.60801076 65.05578807 18.765625 65.0390625 C15.94704066 65.0176506 13.13100515 65.03886614 10.3125 65.06445312 C8.52082771 65.06180983 6.72915701 65.05668482 4.9375 65.04882812 C3.67486328 65.06097351 3.67486328 65.06097351 2.38671875 65.07336426 C1.20529297 65.05445129 1.20529297 65.05445129 0 65.03515625 C-0.68964844 65.03197388 -1.37929687 65.0287915 -2.08984375 65.0255127 C-5.03386907 64.26746261 -6.22822175 62.90356255 -8.0625 60.51757812 C-8.57043457 57.9375 -8.57043457 57.9375 -8.58007812 54.98632812 C-8.59268677 53.87837891 -8.60529541 52.77042969 -8.61828613 51.62890625 C-8.61018921 50.43716797 -8.60209229 49.24542969 -8.59375 48.01757812 C-8.5975769 46.78974609 -8.60140381 45.56191406 -8.60534668 44.296875 C-8.60806842 41.70116353 -8.60068911 39.10542476 -8.58398438 36.50976562 C-8.56258075 32.53258213 -8.58377963 28.55720531 -8.609375 24.58007812 C-8.60673177 22.0592408 -8.60160691 19.53840459 -8.59375 17.01757812 C-8.60184692 15.82583984 -8.60994385 14.63410156 -8.61828613 13.40625 C-8.60567749 12.29830078 -8.59306885 11.19035156 -8.58007812 10.04882812 C-8.57689575 9.07494141 -8.57371338 8.10105469 -8.57043457 7.09765625 C-7.63926889 2.36775532 -4.76089892 0.0219691 0 0 Z M7.9375 16.51757812 C7.9375 27.07757813 7.9375 37.63757813 7.9375 48.51757812 C13.2175 48.51757812 18.4975 48.51757812 23.9375 48.51757812 C23.9375 37.95757812 23.9375 27.39757812 23.9375 16.51757812 C18.6575 16.51757812 13.3775 16.51757812 7.9375 16.51757812 Z " fill="#558ECF" transform="translate(152.0625,295.482421875)"/>
<path d="M0 0 C1.18142578 -0.01891296 1.18142578 -0.01891296 2.38671875 -0.03820801 C3.22847656 -0.03011108 4.07023437 -0.02201416 4.9375 -0.01367188 C5.81019531 -0.01749878 6.68289063 -0.02132568 7.58203125 -0.02526855 C9.42449092 -0.02798678 11.26698924 -0.02063182 13.109375 -0.00390625 C15.92795934 0.01750565 18.74399485 -0.00370989 21.5625 -0.02929688 C23.35417229 -0.02665358 25.14584299 -0.02152857 26.9375 -0.01367188 C27.77925781 -0.0217688 28.62101562 -0.02986572 29.48828125 -0.03820801 C30.27589844 -0.02559937 31.06351562 -0.01299072 31.875 0 C32.90947266 0.00477356 32.90947266 0.00477356 33.96484375 0.00964355 C36.90886907 0.76769364 38.10322175 2.1315937 39.9375 4.51757812 C40.44543457 7.09765625 40.44543457 7.09765625 40.45507812 10.04882812 C40.46768677 11.15677734 40.48029541 12.26472656 40.49328613 13.40625 C40.48518921 14.59798828 40.47709229 15.78972656 40.46875 17.01757812 C40.4725769 18.24541016 40.47640381 19.47324219 40.48034668 20.73828125 C40.48306842 23.33399272 40.47568911 25.92973149 40.45898438 28.52539062 C40.43758075 32.50257412 40.45877963 36.47795094 40.484375 40.45507812 C40.48173177 42.97591545 40.47660691 45.49675166 40.46875 48.01757812 C40.47684692 49.20931641 40.48494385 50.40105469 40.49328613 51.62890625 C40.48067749 52.73685547 40.46806885 53.84480469 40.45507812 54.98632812 C40.45030457 56.4471582 40.45030457 56.4471582 40.44543457 57.9375 C39.78603494 61.28695218 38.63188172 62.47195627 35.9375 64.51757812 C33.96484375 65.0255127 33.96484375 65.0255127 31.875 65.03515625 C30.69357422 65.05406921 30.69357422 65.05406921 29.48828125 65.07336426 C28.64652344 65.06526733 27.80476563 65.05717041 26.9375 65.04882812 C26.06480469 65.05265503 25.19210937 65.05648193 24.29296875 65.0604248 C22.45050908 65.06314303 20.60801076 65.05578807 18.765625 65.0390625 C15.94704066 65.0176506 13.13100515 65.03886614 10.3125 65.06445312 C8.52082771 65.06180983 6.72915701 65.05668482 4.9375 65.04882812 C3.67486328 65.06097351 3.67486328 65.06097351 2.38671875 65.07336426 C1.20529297 65.05445129 1.20529297 65.05445129 0 65.03515625 C-0.68964844 65.03197388 -1.37929688 65.0287915 -2.08984375 65.0255127 C-5.03386907 64.26746261 -6.22822175 62.90356255 -8.0625 60.51757812 C-8.57043457 57.9375 -8.57043457 57.9375 -8.58007812 54.98632812 C-8.59268677 53.87837891 -8.60529541 52.77042969 -8.61828613 51.62890625 C-8.61018921 50.43716797 -8.60209229 49.24542969 -8.59375 48.01757812 C-8.5975769 46.78974609 -8.60140381 45.56191406 -8.60534668 44.296875 C-8.60806842 41.70116353 -8.60068911 39.10542476 -8.58398438 36.50976562 C-8.56258075 32.53258213 -8.58377963 28.55720531 -8.609375 24.58007812 C-8.60673177 22.0592408 -8.60160691 19.53840459 -8.59375 17.01757812 C-8.60184692 15.82583984 -8.60994385 14.63410156 -8.61828613 13.40625 C-8.60567749 12.29830078 -8.59306885 11.19035156 -8.58007812 10.04882812 C-8.57689575 9.07494141 -8.57371338 8.10105469 -8.57043457 7.09765625 C-7.63926889 2.36775532 -4.76089892 0.0219691 0 0 Z M7.9375 16.51757812 C7.9375 27.07757813 7.9375 37.63757813 7.9375 48.51757812 C13.2175 48.51757812 18.4975 48.51757812 23.9375 48.51757812 C23.9375 37.95757812 23.9375 27.39757812 23.9375 16.51757812 C18.6575 16.51757812 13.3775 16.51757812 7.9375 16.51757812 Z " fill="#558ECF" transform="translate(344.0625,215.482421875)"/>
<path d="M0 0 C1.18142578 -0.01891296 1.18142578 -0.01891296 2.38671875 -0.03820801 C3.22847656 -0.03011108 4.07023437 -0.02201416 4.9375 -0.01367188 C5.81019531 -0.01749878 6.68289063 -0.02132568 7.58203125 -0.02526855 C9.42449092 -0.02798678 11.26698924 -0.02063182 13.109375 -0.00390625 C15.92795934 0.01750565 18.74399485 -0.00370989 21.5625 -0.02929688 C23.35417229 -0.02665358 25.14584299 -0.02152857 26.9375 -0.01367188 C27.77925781 -0.0217688 28.62101562 -0.02986572 29.48828125 -0.03820801 C30.27589844 -0.02559937 31.06351562 -0.01299072 31.875 0 C32.90947266 0.00477356 32.90947266 0.00477356 33.96484375 0.00964355 C36.90886907 0.76769364 38.10322175 2.1315937 39.9375 4.51757812 C40.44543457 7.09765625 40.44543457 7.09765625 40.45507812 10.04882812 C40.46768677 11.15677734 40.48029541 12.26472656 40.49328613 13.40625 C40.48518921 14.59798828 40.47709229 15.78972656 40.46875 17.01757812 C40.4725769 18.24541016 40.47640381 19.47324219 40.48034668 20.73828125 C40.48306842 23.33399272 40.47568911 25.92973149 40.45898438 28.52539062 C40.43758075 32.50257412 40.45877963 36.47795094 40.484375 40.45507812 C40.48173177 42.97591545 40.47660691 45.49675166 40.46875 48.01757812 C40.47684692 49.20931641 40.48494385 50.40105469 40.49328613 51.62890625 C40.48067749 52.73685547 40.46806885 53.84480469 40.45507812 54.98632812 C40.45030457 56.4471582 40.45030457 56.4471582 40.44543457 57.9375 C39.78603494 61.28695218 38.63188172 62.47195627 35.9375 64.51757812 C33.96484375 65.0255127 33.96484375 65.0255127 31.875 65.03515625 C30.69357422 65.05406921 30.69357422 65.05406921 29.48828125 65.07336426 C28.64652344 65.06526733 27.80476563 65.05717041 26.9375 65.04882812 C26.06480469 65.05265503 25.19210937 65.05648193 24.29296875 65.0604248 C22.45050908 65.06314303 20.60801076 65.05578807 18.765625 65.0390625 C15.94704066 65.0176506 13.13100515 65.03886614 10.3125 65.06445312 C8.52082771 65.06180983 6.72915701 65.05668482 4.9375 65.04882812 C3.67486328 65.06097351 3.67486328 65.06097351 2.38671875 65.07336426 C1.20529297 65.05445129 1.20529297 65.05445129 0 65.03515625 C-0.68964844 65.03197388 -1.37929688 65.0287915 -2.08984375 65.0255127 C-5.03386907 64.26746261 -6.22822175 62.90356255 -8.0625 60.51757812 C-8.57043457 57.9375 -8.57043457 57.9375 -8.58007812 54.98632812 C-8.59268677 53.87837891 -8.60529541 52.77042969 -8.61828613 51.62890625 C-8.61018921 50.43716797 -8.60209229 49.24542969 -8.59375 48.01757812 C-8.5975769 46.78974609 -8.60140381 45.56191406 -8.60534668 44.296875 C-8.60806842 41.70116353 -8.60068911 39.10542476 -8.58398438 36.50976562 C-8.56258075 32.53258213 -8.58377963 28.55720531 -8.609375 24.58007812 C-8.60673177 22.0592408 -8.60160691 19.53840459 -8.59375 17.01757812 C-8.60184692 15.82583984 -8.60994385 14.63410156 -8.61828613 13.40625 C-8.60567749 12.29830078 -8.59306885 11.19035156 -8.58007812 10.04882812 C-8.57689575 9.07494141 -8.57371338 8.10105469 -8.57043457 7.09765625 C-7.63926889 2.36775532 -4.76089892 0.0219691 0 0 Z M7.9375 16.51757812 C7.9375 27.07757813 7.9375 37.63757813 7.9375 48.51757812 C13.2175 48.51757812 18.4975 48.51757812 23.9375 48.51757812 C23.9375 37.95757812 23.9375 27.39757812 23.9375 16.51757812 C18.6575 16.51757812 13.3775 16.51757812 7.9375 16.51757812 Z " fill="#558ECF" transform="translate(280.0625,215.482421875)"/>
<path d="M0 0 C1.18142578 -0.01891296 1.18142578 -0.01891296 2.38671875 -0.03820801 C3.22847656 -0.03011108 4.07023438 -0.02201416 4.9375 -0.01367188 C5.81019531 -0.01749878 6.68289062 -0.02132568 7.58203125 -0.02526855 C9.42449092 -0.02798678 11.26698924 -0.02063182 13.109375 -0.00390625 C15.92795934 0.01750565 18.74399485 -0.00370989 21.5625 -0.02929688 C23.35417229 -0.02665358 25.14584299 -0.02152857 26.9375 -0.01367188 C27.77925781 -0.0217688 28.62101562 -0.02986572 29.48828125 -0.03820801 C30.27589844 -0.02559937 31.06351563 -0.01299072 31.875 0 C32.90947266 0.00477356 32.90947266 0.00477356 33.96484375 0.00964355 C36.90886907 0.76769364 38.10322175 2.1315937 39.9375 4.51757812 C40.44543457 7.09765625 40.44543457 7.09765625 40.45507812 10.04882812 C40.46768677 11.15677734 40.48029541 12.26472656 40.49328613 13.40625 C40.48518921 14.59798828 40.47709229 15.78972656 40.46875 17.01757812 C40.4725769 18.24541016 40.47640381 19.47324219 40.48034668 20.73828125 C40.48306842 23.33399272 40.47568911 25.92973149 40.45898438 28.52539062 C40.43758075 32.50257412 40.45877963 36.47795094 40.484375 40.45507812 C40.48173177 42.97591545 40.47660691 45.49675166 40.46875 48.01757812 C40.47684692 49.20931641 40.48494385 50.40105469 40.49328613 51.62890625 C40.48067749 52.73685547 40.46806885 53.84480469 40.45507812 54.98632812 C40.45030457 56.4471582 40.45030457 56.4471582 40.44543457 57.9375 C39.78603494 61.28695218 38.63188172 62.47195627 35.9375 64.51757812 C33.96484375 65.0255127 33.96484375 65.0255127 31.875 65.03515625 C30.69357422 65.05406921 30.69357422 65.05406921 29.48828125 65.07336426 C28.64652344 65.06526733 27.80476563 65.05717041 26.9375 65.04882812 C26.06480469 65.05265503 25.19210938 65.05648193 24.29296875 65.0604248 C22.45050908 65.06314303 20.60801076 65.05578807 18.765625 65.0390625 C15.94704066 65.0176506 13.13100515 65.03886614 10.3125 65.06445312 C8.52082771 65.06180983 6.72915701 65.05668482 4.9375 65.04882812 C3.67486328 65.06097351 3.67486328 65.06097351 2.38671875 65.07336426 C1.20529297 65.05445129 1.20529297 65.05445129 0 65.03515625 C-0.68964844 65.03197388 -1.37929687 65.0287915 -2.08984375 65.0255127 C-5.03386907 64.26746261 -6.22822175 62.90356255 -8.0625 60.51757812 C-8.57043457 57.9375 -8.57043457 57.9375 -8.58007812 54.98632812 C-8.59268677 53.87837891 -8.60529541 52.77042969 -8.61828613 51.62890625 C-8.61018921 50.43716797 -8.60209229 49.24542969 -8.59375 48.01757812 C-8.5975769 46.78974609 -8.60140381 45.56191406 -8.60534668 44.296875 C-8.60806842 41.70116353 -8.60068911 39.10542476 -8.58398438 36.50976562 C-8.56258075 32.53258213 -8.58377963 28.55720531 -8.609375 24.58007812 C-8.60673177 22.0592408 -8.60160691 19.53840459 -8.59375 17.01757812 C-8.60184692 15.82583984 -8.60994385 14.63410156 -8.61828613 13.40625 C-8.60567749 12.29830078 -8.59306885 11.19035156 -8.58007812 10.04882812 C-8.57689575 9.07494141 -8.57371338 8.10105469 -8.57043457 7.09765625 C-7.63926889 2.36775532 -4.76089892 0.0219691 0 0 Z M7.9375 16.51757812 C7.9375 27.07757813 7.9375 37.63757813 7.9375 48.51757812 C13.2175 48.51757812 18.4975 48.51757812 23.9375 48.51757812 C23.9375 37.95757812 23.9375 27.39757812 23.9375 16.51757812 C18.6575 16.51757812 13.3775 16.51757812 7.9375 16.51757812 Z " fill="#558ECF" transform="translate(216.0625,215.482421875)"/>
<path d="M0 0 C1.18142578 -0.01891296 1.18142578 -0.01891296 2.38671875 -0.03820801 C3.22847656 -0.03011108 4.07023438 -0.02201416 4.9375 -0.01367188 C5.81019531 -0.01749878 6.68289062 -0.02132568 7.58203125 -0.02526855 C9.42449092 -0.02798678 11.26698924 -0.02063182 13.109375 -0.00390625 C15.92795934 0.01750565 18.74399485 -0.00370989 21.5625 -0.02929688 C23.35417229 -0.02665358 25.14584299 -0.02152857 26.9375 -0.01367188 C27.77925781 -0.0217688 28.62101562 -0.02986572 29.48828125 -0.03820801 C30.27589844 -0.02559937 31.06351563 -0.01299072 31.875 0 C32.90947266 0.00477356 32.90947266 0.00477356 33.96484375 0.00964355 C36.90886907 0.76769364 38.10322175 2.1315937 39.9375 4.51757812 C40.44543457 7.09765625 40.44543457 7.09765625 40.45507812 10.04882812 C40.46768677 11.15677734 40.48029541 12.26472656 40.49328613 13.40625 C40.48518921 14.59798828 40.47709229 15.78972656 40.46875 17.01757812 C40.4725769 18.24541016 40.47640381 19.47324219 40.48034668 20.73828125 C40.48306842 23.33399272 40.47568911 25.92973149 40.45898438 28.52539062 C40.43758075 32.50257412 40.45877963 36.47795094 40.484375 40.45507812 C40.48173177 42.97591545 40.47660691 45.49675166 40.46875 48.01757812 C40.47684692 49.20931641 40.48494385 50.40105469 40.49328613 51.62890625 C40.48067749 52.73685547 40.46806885 53.84480469 40.45507812 54.98632812 C40.45030457 56.4471582 40.45030457 56.4471582 40.44543457 57.9375 C39.78603494 61.28695218 38.63188172 62.47195627 35.9375 64.51757812 C33.96484375 65.0255127 33.96484375 65.0255127 31.875 65.03515625 C30.69357422 65.05406921 30.69357422 65.05406921 29.48828125 65.07336426 C28.64652344 65.06526733 27.80476563 65.05717041 26.9375 65.04882812 C26.06480469 65.05265503 25.19210938 65.05648193 24.29296875 65.0604248 C22.45050908 65.06314303 20.60801076 65.05578807 18.765625 65.0390625 C15.94704066 65.0176506 13.13100515 65.03886614 10.3125 65.06445312 C8.52082771 65.06180983 6.72915701 65.05668482 4.9375 65.04882812 C3.67486328 65.06097351 3.67486328 65.06097351 2.38671875 65.07336426 C1.20529297 65.05445129 1.20529297 65.05445129 0 65.03515625 C-0.68964844 65.03197388 -1.37929687 65.0287915 -2.08984375 65.0255127 C-5.03386907 64.26746261 -6.22822175 62.90356255 -8.0625 60.51757812 C-8.57043457 57.9375 -8.57043457 57.9375 -8.58007812 54.98632812 C-8.59268677 53.87837891 -8.60529541 52.77042969 -8.61828613 51.62890625 C-8.61018921 50.43716797 -8.60209229 49.24542969 -8.59375 48.01757812 C-8.5975769 46.78974609 -8.60140381 45.56191406 -8.60534668 44.296875 C-8.60806842 41.70116353 -8.60068911 39.10542476 -8.58398438 36.50976562 C-8.56258075 32.53258213 -8.58377963 28.55720531 -8.609375 24.58007812 C-8.60673177 22.0592408 -8.60160691 19.53840459 -8.59375 17.01757812 C-8.60184692 15.82583984 -8.60994385 14.63410156 -8.61828613 13.40625 C-8.60567749 12.29830078 -8.59306885 11.19035156 -8.58007812 10.04882812 C-8.57689575 9.07494141 -8.57371338 8.10105469 -8.57043457 7.09765625 C-7.63926889 2.36775532 -4.76089892 0.0219691 0 0 Z M7.9375 16.51757812 C7.9375 27.07757813 7.9375 37.63757813 7.9375 48.51757812 C13.2175 48.51757812 18.4975 48.51757812 23.9375 48.51757812 C23.9375 37.95757812 23.9375 27.39757812 23.9375 16.51757812 C18.6575 16.51757812 13.3775 16.51757812 7.9375 16.51757812 Z " fill="#558ECF" transform="translate(152.0625,215.482421875)"/>
<path d="M0 0 C1.18142578 -0.01891296 1.18142578 -0.01891296 2.38671875 -0.03820801 C3.22847656 -0.03011108 4.07023437 -0.02201416 4.9375 -0.01367188 C5.81019531 -0.01749878 6.68289063 -0.02132568 7.58203125 -0.02526855 C9.42449092 -0.02798678 11.26698924 -0.02063182 13.109375 -0.00390625 C15.92795934 0.01750565 18.74399485 -0.00370989 21.5625 -0.02929688 C23.35417229 -0.02665358 25.14584299 -0.02152857 26.9375 -0.01367188 C27.77925781 -0.0217688 28.62101562 -0.02986572 29.48828125 -0.03820801 C30.27589844 -0.02559937 31.06351562 -0.01299072 31.875 0 C32.90947266 0.00477356 32.90947266 0.00477356 33.96484375 0.00964355 C36.90886907 0.76769364 38.10322175 2.1315937 39.9375 4.51757812 C40.44543457 7.09765625 40.44543457 7.09765625 40.45507812 10.04882812 C40.46768677 11.15677734 40.48029541 12.26472656 40.49328613 13.40625 C40.48518921 14.59798828 40.47709229 15.78972656 40.46875 17.01757812 C40.4725769 18.24541016 40.47640381 19.47324219 40.48034668 20.73828125 C40.48306842 23.33399272 40.47568911 25.92973149 40.45898438 28.52539062 C40.43758075 32.50257412 40.45877963 36.47795094 40.484375 40.45507812 C40.48173177 42.97591545 40.47660691 45.49675166 40.46875 48.01757812 C40.47684692 49.20931641 40.48494385 50.40105469 40.49328613 51.62890625 C40.48067749 52.73685547 40.46806885 53.84480469 40.45507812 54.98632812 C40.45030457 56.4471582 40.45030457 56.4471582 40.44543457 57.9375 C39.78603494 61.28695218 38.63188172 62.47195627 35.9375 64.51757812 C33.96484375 65.0255127 33.96484375 65.0255127 31.875 65.03515625 C30.69357422 65.05406921 30.69357422 65.05406921 29.48828125 65.07336426 C28.64652344 65.06526733 27.80476563 65.05717041 26.9375 65.04882812 C26.06480469 65.05265503 25.19210937 65.05648193 24.29296875 65.0604248 C22.45050908 65.06314303 20.60801076 65.05578807 18.765625 65.0390625 C15.94704066 65.0176506 13.13100515 65.03886614 10.3125 65.06445312 C8.52082771 65.06180983 6.72915701 65.05668482 4.9375 65.04882812 C3.67486328 65.06097351 3.67486328 65.06097351 2.38671875 65.07336426 C1.20529297 65.05445129 1.20529297 65.05445129 0 65.03515625 C-0.68964844 65.03197388 -1.37929688 65.0287915 -2.08984375 65.0255127 C-5.03386907 64.26746261 -6.22822175 62.90356255 -8.0625 60.51757812 C-8.57043457 57.9375 -8.57043457 57.9375 -8.58007812 54.98632812 C-8.59268677 53.87837891 -8.60529541 52.77042969 -8.61828613 51.62890625 C-8.61018921 50.43716797 -8.60209229 49.24542969 -8.59375 48.01757812 C-8.5975769 46.78974609 -8.60140381 45.56191406 -8.60534668 44.296875 C-8.60806842 41.70116353 -8.60068911 39.10542476 -8.58398438 36.50976562 C-8.56258075 32.53258213 -8.58377963 28.55720531 -8.609375 24.58007812 C-8.60673177 22.0592408 -8.60160691 19.53840459 -8.59375 17.01757812 C-8.60184692 15.82583984 -8.60994385 14.63410156 -8.61828613 13.40625 C-8.60567749 12.29830078 -8.59306885 11.19035156 -8.58007812 10.04882812 C-8.57689575 9.07494141 -8.57371338 8.10105469 -8.57043457 7.09765625 C-7.63926889 2.36775532 -4.76089892 0.0219691 0 0 Z M7.9375 16.51757812 C7.9375 27.07757813 7.9375 37.63757813 7.9375 48.51757812 C13.2175 48.51757812 18.4975 48.51757812 23.9375 48.51757812 C23.9375 37.95757812 23.9375 27.39757812 23.9375 16.51757812 C18.6575 16.51757812 13.3775 16.51757812 7.9375 16.51757812 Z " fill="#558ECF" transform="translate(344.0625,135.482421875)"/>
<path d="M0 0 C1.18142578 -0.01891296 1.18142578 -0.01891296 2.38671875 -0.03820801 C3.22847656 -0.03011108 4.07023437 -0.02201416 4.9375 -0.01367188 C5.81019531 -0.01749878 6.68289063 -0.02132568 7.58203125 -0.02526855 C9.42449092 -0.02798678 11.26698924 -0.02063182 13.109375 -0.00390625 C15.92795934 0.01750565 18.74399485 -0.00370989 21.5625 -0.02929688 C23.35417229 -0.02665358 25.14584299 -0.02152857 26.9375 -0.01367188 C27.77925781 -0.0217688 28.62101562 -0.02986572 29.48828125 -0.03820801 C30.27589844 -0.02559937 31.06351562 -0.01299072 31.875 0 C32.90947266 0.00477356 32.90947266 0.00477356 33.96484375 0.00964355 C36.90886907 0.76769364 38.10322175 2.1315937 39.9375 4.51757812 C40.44543457 7.09765625 40.44543457 7.09765625 40.45507812 10.04882812 C40.46768677 11.15677734 40.48029541 12.26472656 40.49328613 13.40625 C40.48518921 14.59798828 40.47709229 15.78972656 40.46875 17.01757812 C40.4725769 18.24541016 40.47640381 19.47324219 40.48034668 20.73828125 C40.48306842 23.33399272 40.47568911 25.92973149 40.45898438 28.52539062 C40.43758075 32.50257412 40.45877963 36.47795094 40.484375 40.45507812 C40.48173177 42.97591545 40.47660691 45.49675166 40.46875 48.01757812 C40.47684692 49.20931641 40.48494385 50.40105469 40.49328613 51.62890625 C40.48067749 52.73685547 40.46806885 53.84480469 40.45507812 54.98632812 C40.45030457 56.4471582 40.45030457 56.4471582 40.44543457 57.9375 C39.78603494 61.28695218 38.63188172 62.47195627 35.9375 64.51757812 C33.96484375 65.0255127 33.96484375 65.0255127 31.875 65.03515625 C30.69357422 65.05406921 30.69357422 65.05406921 29.48828125 65.07336426 C28.64652344 65.06526733 27.80476563 65.05717041 26.9375 65.04882812 C26.06480469 65.05265503 25.19210937 65.05648193 24.29296875 65.0604248 C22.45050908 65.06314303 20.60801076 65.05578807 18.765625 65.0390625 C15.94704066 65.0176506 13.13100515 65.03886614 10.3125 65.06445312 C8.52082771 65.06180983 6.72915701 65.05668482 4.9375 65.04882812 C3.67486328 65.06097351 3.67486328 65.06097351 2.38671875 65.07336426 C1.20529297 65.05445129 1.20529297 65.05445129 0 65.03515625 C-0.68964844 65.03197388 -1.37929688 65.0287915 -2.08984375 65.0255127 C-5.03386907 64.26746261 -6.22822175 62.90356255 -8.0625 60.51757812 C-8.57043457 57.9375 -8.57043457 57.9375 -8.58007812 54.98632812 C-8.59268677 53.87837891 -8.60529541 52.77042969 -8.61828613 51.62890625 C-8.61018921 50.43716797 -8.60209229 49.24542969 -8.59375 48.01757812 C-8.5975769 46.78974609 -8.60140381 45.56191406 -8.60534668 44.296875 C-8.60806842 41.70116353 -8.60068911 39.10542476 -8.58398438 36.50976562 C-8.56258075 32.53258213 -8.58377963 28.55720531 -8.609375 24.58007812 C-8.60673177 22.0592408 -8.60160691 19.53840459 -8.59375 17.01757812 C-8.60184692 15.82583984 -8.60994385 14.63410156 -8.61828613 13.40625 C-8.60567749 12.29830078 -8.59306885 11.19035156 -8.58007812 10.04882812 C-8.57689575 9.07494141 -8.57371338 8.10105469 -8.57043457 7.09765625 C-7.63926889 2.36775532 -4.76089892 0.0219691 0 0 Z M7.9375 16.51757812 C7.9375 27.07757813 7.9375 37.63757813 7.9375 48.51757812 C13.2175 48.51757812 18.4975 48.51757812 23.9375 48.51757812 C23.9375 37.95757812 23.9375 27.39757812 23.9375 16.51757812 C18.6575 16.51757812 13.3775 16.51757812 7.9375 16.51757812 Z " fill="#558ECF" transform="translate(280.0625,135.482421875)"/>
<path d="M0 0 C1.18142578 -0.01891296 1.18142578 -0.01891296 2.38671875 -0.03820801 C3.22847656 -0.03011108 4.07023438 -0.02201416 4.9375 -0.01367188 C5.81019531 -0.01749878 6.68289062 -0.02132568 7.58203125 -0.02526855 C9.42449092 -0.02798678 11.26698924 -0.02063182 13.109375 -0.00390625 C15.92795934 0.01750565 18.74399485 -0.00370989 21.5625 -0.02929688 C23.35417229 -0.02665358 25.14584299 -0.02152857 26.9375 -0.01367188 C27.77925781 -0.0217688 28.62101562 -0.02986572 29.48828125 -0.03820801 C30.27589844 -0.02559937 31.06351563 -0.01299072 31.875 0 C32.90947266 0.00477356 32.90947266 0.00477356 33.96484375 0.00964355 C36.90886907 0.76769364 38.10322175 2.1315937 39.9375 4.51757812 C40.44543457 7.09765625 40.44543457 7.09765625 40.45507812 10.04882812 C40.46768677 11.15677734 40.48029541 12.26472656 40.49328613 13.40625 C40.48518921 14.59798828 40.47709229 15.78972656 40.46875 17.01757812 C40.4725769 18.24541016 40.47640381 19.47324219 40.48034668 20.73828125 C40.48306842 23.33399272 40.47568911 25.92973149 40.45898438 28.52539062 C40.43758075 32.50257412 40.45877963 36.47795094 40.484375 40.45507812 C40.48173177 42.97591545 40.47660691 45.49675166 40.46875 48.01757812 C40.47684692 49.20931641 40.48494385 50.40105469 40.49328613 51.62890625 C40.48067749 52.73685547 40.46806885 53.84480469 40.45507812 54.98632812 C40.45030457 56.4471582 40.45030457 56.4471582 40.44543457 57.9375 C39.78603494 61.28695218 38.63188172 62.47195627 35.9375 64.51757812 C33.96484375 65.0255127 33.96484375 65.0255127 31.875 65.03515625 C30.69357422 65.05406921 30.69357422 65.05406921 29.48828125 65.07336426 C28.64652344 65.06526733 27.80476563 65.05717041 26.9375 65.04882812 C26.06480469 65.05265503 25.19210938 65.05648193 24.29296875 65.0604248 C22.45050908 65.06314303 20.60801076 65.05578807 18.765625 65.0390625 C15.94704066 65.0176506 13.13100515 65.03886614 10.3125 65.06445312 C8.52082771 65.06180983 6.72915701 65.05668482 4.9375 65.04882812 C3.67486328 65.06097351 3.67486328 65.06097351 2.38671875 65.07336426 C1.20529297 65.05445129 1.20529297 65.05445129 0 65.03515625 C-0.68964844 65.03197388 -1.37929687 65.0287915 -2.08984375 65.0255127 C-5.03386907 64.26746261 -6.22822175 62.90356255 -8.0625 60.51757812 C-8.57043457 57.9375 -8.57043457 57.9375 -8.58007812 54.98632812 C-8.59268677 53.87837891 -8.60529541 52.77042969 -8.61828613 51.62890625 C-8.61018921 50.43716797 -8.60209229 49.24542969 -8.59375 48.01757812 C-8.5975769 46.78974609 -8.60140381 45.56191406 -8.60534668 44.296875 C-8.60806842 41.70116353 -8.60068911 39.10542476 -8.58398438 36.50976562 C-8.56258075 32.53258213 -8.58377963 28.55720531 -8.609375 24.58007812 C-8.60673177 22.0592408 -8.60160691 19.53840459 -8.59375 17.01757812 C-8.60184692 15.82583984 -8.60994385 14.63410156 -8.61828613 13.40625 C-8.60567749 12.29830078 -8.59306885 11.19035156 -8.58007812 10.04882812 C-8.57689575 9.07494141 -8.57371338 8.10105469 -8.57043457 7.09765625 C-7.63926889 2.36775532 -4.76089892 0.0219691 0 0 Z M7.9375 16.51757812 C7.9375 27.07757813 7.9375 37.63757813 7.9375 48.51757812 C13.2175 48.51757812 18.4975 48.51757812 23.9375 48.51757812 C23.9375 37.95757812 23.9375 27.39757812 23.9375 16.51757812 C18.6575 16.51757812 13.3775 16.51757812 7.9375 16.51757812 Z " fill="#558ECF" transform="translate(216.0625,135.482421875)"/>
<path d="M0 0 C1.18142578 -0.01891296 1.18142578 -0.01891296 2.38671875 -0.03820801 C3.22847656 -0.03011108 4.07023438 -0.02201416 4.9375 -0.01367188 C5.81019531 -0.01749878 6.68289062 -0.02132568 7.58203125 -0.02526855 C9.42449092 -0.02798678 11.26698924 -0.02063182 13.109375 -0.00390625 C15.92795934 0.01750565 18.74399485 -0.00370989 21.5625 -0.02929688 C23.35417229 -0.02665358 25.14584299 -0.02152857 26.9375 -0.01367188 C27.77925781 -0.0217688 28.62101562 -0.02986572 29.48828125 -0.03820801 C30.27589844 -0.02559937 31.06351563 -0.01299072 31.875 0 C32.90947266 0.00477356 32.90947266 0.00477356 33.96484375 0.00964355 C36.90886907 0.76769364 38.10322175 2.1315937 39.9375 4.51757812 C40.44543457 7.09765625 40.44543457 7.09765625 40.45507812 10.04882812 C40.46768677 11.15677734 40.48029541 12.26472656 40.49328613 13.40625 C40.48518921 14.59798828 40.47709229 15.78972656 40.46875 17.01757812 C40.4725769 18.24541016 40.47640381 19.47324219 40.48034668 20.73828125 C40.48306842 23.33399272 40.47568911 25.92973149 40.45898438 28.52539062 C40.43758075 32.50257412 40.45877963 36.47795094 40.484375 40.45507812 C40.48173177 42.97591545 40.47660691 45.49675166 40.46875 48.01757812 C40.47684692 49.20931641 40.48494385 50.40105469 40.49328613 51.62890625 C40.48067749 52.73685547 40.46806885 53.84480469 40.45507812 54.98632812 C40.45030457 56.4471582 40.45030457 56.4471582 40.44543457 57.9375 C39.78603494 61.28695218 38.63188172 62.47195627 35.9375 64.51757812 C33.96484375 65.0255127 33.96484375 65.0255127 31.875 65.03515625 C30.69357422 65.05406921 30.69357422 65.05406921 29.48828125 65.07336426 C28.64652344 65.06526733 27.80476563 65.05717041 26.9375 65.04882812 C26.06480469 65.05265503 25.19210938 65.05648193 24.29296875 65.0604248 C22.45050908 65.06314303 20.60801076 65.05578807 18.765625 65.0390625 C15.94704066 65.0176506 13.13100515 65.03886614 10.3125 65.06445312 C8.52082771 65.06180983 6.72915701 65.05668482 4.9375 65.04882812 C3.67486328 65.06097351 3.67486328 65.06097351 2.38671875 65.07336426 C1.20529297 65.05445129 1.20529297 65.05445129 0 65.03515625 C-0.68964844 65.03197388 -1.37929687 65.0287915 -2.08984375 65.0255127 C-5.03386907 64.26746261 -6.22822175 62.90356255 -8.0625 60.51757812 C-8.57043457 57.9375 -8.57043457 57.9375 -8.58007812 54.98632812 C-8.59268677 53.87837891 -8.60529541 52.77042969 -8.61828613 51.62890625 C-8.61018921 50.43716797 -8.60209229 49.24542969 -8.59375 48.01757812 C-8.5975769 46.78974609 -8.60140381 45.56191406 -8.60534668 44.296875 C-8.60806842 41.70116353 -8.60068911 39.10542476 -8.58398438 36.50976562 C-8.56258075 32.53258213 -8.58377963 28.55720531 -8.609375 24.58007812 C-8.60673177 22.0592408 -8.60160691 19.53840459 -8.59375 17.01757812 C-8.60184692 15.82583984 -8.60994385 14.63410156 -8.61828613 13.40625 C-8.60567749 12.29830078 -8.59306885 11.19035156 -8.58007812 10.04882812 C-8.57689575 9.07494141 -8.57371338 8.10105469 -8.57043457 7.09765625 C-7.63926889 2.36775532 -4.76089892 0.0219691 0 0 Z M7.9375 16.51757812 C7.9375 27.07757813 7.9375 37.63757813 7.9375 48.51757812 C13.2175 48.51757812 18.4975 48.51757812 23.9375 48.51757812 C23.9375 37.95757812 23.9375 27.39757812 23.9375 16.51757812 C18.6575 16.51757812 13.3775 16.51757812 7.9375 16.51757812 Z " fill="#558ECF" transform="translate(152.0625,135.482421875)"/>
<path d="M0 0 C1.18142578 -0.01891296 1.18142578 -0.01891296 2.38671875 -0.03820801 C3.22847656 -0.03011108 4.07023437 -0.02201416 4.9375 -0.01367188 C5.81019531 -0.01749878 6.68289063 -0.02132568 7.58203125 -0.02526855 C9.42449092 -0.02798678 11.26698924 -0.02063182 13.109375 -0.00390625 C15.92795934 0.01750565 18.74399485 -0.00370989 21.5625 -0.02929688 C23.35417229 -0.02665358 25.14584299 -0.02152857 26.9375 -0.01367188 C27.77925781 -0.0217688 28.62101562 -0.02986572 29.48828125 -0.03820801 C30.27589844 -0.02559937 31.06351562 -0.01299072 31.875 0 C32.90947266 0.00477356 32.90947266 0.00477356 33.96484375 0.00964355 C36.90886907 0.76769364 38.10322175 2.1315937 39.9375 4.51757812 C40.44543457 7.09765625 40.44543457 7.09765625 40.45507812 10.04882812 C40.46768677 11.15677734 40.48029541 12.26472656 40.49328613 13.40625 C40.48518921 14.59798828 40.47709229 15.78972656 40.46875 17.01757812 C40.4725769 18.24541016 40.47640381 19.47324219 40.48034668 20.73828125 C40.48306842 23.33399272 40.47568911 25.92973149 40.45898438 28.52539062 C40.43758075 32.50257412 40.45877963 36.47795094 40.484375 40.45507812 C40.48173177 42.97591545 40.47660691 45.49675166 40.46875 48.01757812 C40.47684692 49.20931641 40.48494385 50.40105469 40.49328613 51.62890625 C40.48067749 52.73685547 40.46806885 53.84480469 40.45507812 54.98632812 C40.45030457 56.4471582 40.45030457 56.4471582 40.44543457 57.9375 C39.78603494 61.28695218 38.63188172 62.47195627 35.9375 64.51757812 C33.96484375 65.0255127 33.96484375 65.0255127 31.875 65.03515625 C30.69357422 65.05406921 30.69357422 65.05406921 29.48828125 65.07336426 C28.64652344 65.06526733 27.80476563 65.05717041 26.9375 65.04882812 C26.06480469 65.05265503 25.19210937 65.05648193 24.29296875 65.0604248 C22.45050908 65.06314303 20.60801076 65.05578807 18.765625 65.0390625 C15.94704066 65.0176506 13.13100515 65.03886614 10.3125 65.06445312 C8.52082771 65.06180983 6.72915701 65.05668482 4.9375 65.04882812 C3.67486328 65.06097351 3.67486328 65.06097351 2.38671875 65.07336426 C1.20529297 65.05445129 1.20529297 65.05445129 0 65.03515625 C-0.68964844 65.03197388 -1.37929688 65.0287915 -2.08984375 65.0255127 C-5.03386907 64.26746261 -6.22822175 62.90356255 -8.0625 60.51757812 C-8.57043457 57.9375 -8.57043457 57.9375 -8.58007812 54.98632812 C-8.59268677 53.87837891 -8.60529541 52.77042969 -8.61828613 51.62890625 C-8.61018921 50.43716797 -8.60209229 49.24542969 -8.59375 48.01757812 C-8.5975769 46.78974609 -8.60140381 45.56191406 -8.60534668 44.296875 C-8.60806842 41.70116353 -8.60068911 39.10542476 -8.58398438 36.50976562 C-8.56258075 32.53258213 -8.58377963 28.55720531 -8.609375 24.58007812 C-8.60673177 22.0592408 -8.60160691 19.53840459 -8.59375 17.01757812 C-8.60184692 15.82583984 -8.60994385 14.63410156 -8.61828613 13.40625 C-8.60567749 12.29830078 -8.59306885 11.19035156 -8.58007812 10.04882812 C-8.57689575 9.07494141 -8.57371338 8.10105469 -8.57043457 7.09765625 C-7.63926889 2.36775532 -4.76089892 0.0219691 0 0 Z M7.9375 16.51757812 C7.9375 27.07757813 7.9375 37.63757813 7.9375 48.51757812 C13.2175 48.51757812 18.4975 48.51757812 23.9375 48.51757812 C23.9375 37.95757812 23.9375 27.39757812 23.9375 16.51757812 C18.6575 16.51757812 13.3775 16.51757812 7.9375 16.51757812 Z " fill="#558ECF" transform="translate(344.0625,55.482421875)"/>
<path d="M0 0 C1.18142578 -0.01891296 1.18142578 -0.01891296 2.38671875 -0.03820801 C3.22847656 -0.03011108 4.07023437 -0.02201416 4.9375 -0.01367188 C5.81019531 -0.01749878 6.68289063 -0.02132568 7.58203125 -0.02526855 C9.42449092 -0.02798678 11.26698924 -0.02063182 13.109375 -0.00390625 C15.92795934 0.01750565 18.74399485 -0.00370989 21.5625 -0.02929688 C23.35417229 -0.02665358 25.14584299 -0.02152857 26.9375 -0.01367188 C27.77925781 -0.0217688 28.62101562 -0.02986572 29.48828125 -0.03820801 C30.27589844 -0.02559937 31.06351562 -0.01299072 31.875 0 C32.90947266 0.00477356 32.90947266 0.00477356 33.96484375 0.00964355 C36.90886907 0.76769364 38.10322175 2.1315937 39.9375 4.51757812 C40.44543457 7.09765625 40.44543457 7.09765625 40.45507812 10.04882812 C40.46768677 11.15677734 40.48029541 12.26472656 40.49328613 13.40625 C40.48518921 14.59798828 40.47709229 15.78972656 40.46875 17.01757812 C40.4725769 18.24541016 40.47640381 19.47324219 40.48034668 20.73828125 C40.48306842 23.33399272 40.47568911 25.92973149 40.45898438 28.52539062 C40.43758075 32.50257412 40.45877963 36.47795094 40.484375 40.45507812 C40.48173177 42.97591545 40.47660691 45.49675166 40.46875 48.01757812 C40.47684692 49.20931641 40.48494385 50.40105469 40.49328613 51.62890625 C40.48067749 52.73685547 40.46806885 53.84480469 40.45507812 54.98632812 C40.45030457 56.4471582 40.45030457 56.4471582 40.44543457 57.9375 C39.78603494 61.28695218 38.63188172 62.47195627 35.9375 64.51757812 C33.96484375 65.0255127 33.96484375 65.0255127 31.875 65.03515625 C30.69357422 65.05406921 30.69357422 65.05406921 29.48828125 65.07336426 C28.64652344 65.06526733 27.80476563 65.05717041 26.9375 65.04882812 C26.06480469 65.05265503 25.19210937 65.05648193 24.29296875 65.0604248 C22.45050908 65.06314303 20.60801076 65.05578807 18.765625 65.0390625 C15.94704066 65.0176506 13.13100515 65.03886614 10.3125 65.06445312 C8.52082771 65.06180983 6.72915701 65.05668482 4.9375 65.04882812 C3.67486328 65.06097351 3.67486328 65.06097351 2.38671875 65.07336426 C1.20529297 65.05445129 1.20529297 65.05445129 0 65.03515625 C-0.68964844 65.03197388 -1.37929688 65.0287915 -2.08984375 65.0255127 C-5.03386907 64.26746261 -6.22822175 62.90356255 -8.0625 60.51757812 C-8.57043457 57.9375 -8.57043457 57.9375 -8.58007812 54.98632812 C-8.59268677 53.87837891 -8.60529541 52.77042969 -8.61828613 51.62890625 C-8.61018921 50.43716797 -8.60209229 49.24542969 -8.59375 48.01757812 C-8.5975769 46.78974609 -8.60140381 45.56191406 -8.60534668 44.296875 C-8.60806842 41.70116353 -8.60068911 39.10542476 -8.58398438 36.50976562 C-8.56258075 32.53258213 -8.58377963 28.55720531 -8.609375 24.58007812 C-8.60673177 22.0592408 -8.60160691 19.53840459 -8.59375 17.01757812 C-8.60184692 15.82583984 -8.60994385 14.63410156 -8.61828613 13.40625 C-8.60567749 12.29830078 -8.59306885 11.19035156 -8.58007812 10.04882812 C-8.57689575 9.07494141 -8.57371338 8.10105469 -8.57043457 7.09765625 C-7.63926889 2.36775532 -4.76089892 0.0219691 0 0 Z M7.9375 16.51757812 C7.9375 27.07757813 7.9375 37.63757813 7.9375 48.51757812 C13.2175 48.51757812 18.4975 48.51757812 23.9375 48.51757812 C23.9375 37.95757812 23.9375 27.39757812 23.9375 16.51757812 C18.6575 16.51757812 13.3775 16.51757812 7.9375 16.51757812 Z " fill="#558ECF" transform="translate(280.0625,55.482421875)"/>
<path d="M0 0 C1.18142578 -0.01891296 1.18142578 -0.01891296 2.38671875 -0.03820801 C3.22847656 -0.03011108 4.07023438 -0.02201416 4.9375 -0.01367188 C5.81019531 -0.01749878 6.68289062 -0.02132568 7.58203125 -0.02526855 C9.42449092 -0.02798678 11.26698924 -0.02063182 13.109375 -0.00390625 C15.92795934 0.01750565 18.74399485 -0.00370989 21.5625 -0.02929688 C23.35417229 -0.02665358 25.14584299 -0.02152857 26.9375 -0.01367188 C27.77925781 -0.0217688 28.62101562 -0.02986572 29.48828125 -0.03820801 C30.27589844 -0.02559937 31.06351563 -0.01299072 31.875 0 C32.90947266 0.00477356 32.90947266 0.00477356 33.96484375 0.00964355 C36.90886907 0.76769364 38.10322175 2.1315937 39.9375 4.51757812 C40.44543457 7.09765625 40.44543457 7.09765625 40.45507812 10.04882812 C40.46768677 11.15677734 40.48029541 12.26472656 40.49328613 13.40625 C40.48518921 14.59798828 40.47709229 15.78972656 40.46875 17.01757812 C40.4725769 18.24541016 40.47640381 19.47324219 40.48034668 20.73828125 C40.48306842 23.33399272 40.47568911 25.92973149 40.45898438 28.52539062 C40.43758075 32.50257412 40.45877963 36.47795094 40.484375 40.45507812 C40.48173177 42.97591545 40.47660691 45.49675166 40.46875 48.01757812 C40.47684692 49.20931641 40.48494385 50.40105469 40.49328613 51.62890625 C40.48067749 52.73685547 40.46806885 53.84480469 40.45507812 54.98632812 C40.45030457 56.4471582 40.45030457 56.4471582 40.44543457 57.9375 C39.78603494 61.28695218 38.63188172 62.47195627 35.9375 64.51757812 C33.96484375 65.0255127 33.96484375 65.0255127 31.875 65.03515625 C30.69357422 65.05406921 30.69357422 65.05406921 29.48828125 65.07336426 C28.64652344 65.06526733 27.80476563 65.05717041 26.9375 65.04882812 C26.06480469 65.05265503 25.19210938 65.05648193 24.29296875 65.0604248 C22.45050908 65.06314303 20.60801076 65.05578807 18.765625 65.0390625 C15.94704066 65.0176506 13.13100515 65.03886614 10.3125 65.06445312 C8.52082771 65.06180983 6.72915701 65.05668482 4.9375 65.04882812 C3.67486328 65.06097351 3.67486328 65.06097351 2.38671875 65.07336426 C1.20529297 65.05445129 1.20529297 65.05445129 0 65.03515625 C-0.68964844 65.03197388 -1.37929687 65.0287915 -2.08984375 65.0255127 C-5.03386907 64.26746261 -6.22822175 62.90356255 -8.0625 60.51757812 C-8.57043457 57.9375 -8.57043457 57.9375 -8.58007812 54.98632812 C-8.59268677 53.87837891 -8.60529541 52.77042969 -8.61828613 51.62890625 C-8.61018921 50.43716797 -8.60209229 49.24542969 -8.59375 48.01757812 C-8.5975769 46.78974609 -8.60140381 45.56191406 -8.60534668 44.296875 C-8.60806842 41.70116353 -8.60068911 39.10542476 -8.58398438 36.50976562 C-8.56258075 32.53258213 -8.58377963 28.55720531 -8.609375 24.58007812 C-8.60673177 22.0592408 -8.60160691 19.53840459 -8.59375 17.01757812 C-8.60184692 15.82583984 -8.60994385 14.63410156 -8.61828613 13.40625 C-8.60567749 12.29830078 -8.59306885 11.19035156 -8.58007812 10.04882812 C-8.57689575 9.07494141 -8.57371338 8.10105469 -8.57043457 7.09765625 C-7.63926889 2.36775532 -4.76089892 0.0219691 0 0 Z M7.9375 16.51757812 C7.9375 27.07757813 7.9375 37.63757813 7.9375 48.51757812 C13.2175 48.51757812 18.4975 48.51757812 23.9375 48.51757812 C23.9375 37.95757812 23.9375 27.39757812 23.9375 16.51757812 C18.6575 16.51757812 13.3775 16.51757812 7.9375 16.51757812 Z " fill="#558ECF" transform="translate(216.0625,55.482421875)"/>
<path d="M0 0 C1.18142578 -0.01891296 1.18142578 -0.01891296 2.38671875 -0.03820801 C3.22847656 -0.03011108 4.07023438 -0.02201416 4.9375 -0.01367188 C5.81019531 -0.01749878 6.68289062 -0.02132568 7.58203125 -0.02526855 C9.42449092 -0.02798678 11.26698924 -0.02063182 13.109375 -0.00390625 C15.92795934 0.01750565 18.74399485 -0.00370989 21.5625 -0.02929688 C23.35417229 -0.02665358 25.14584299 -0.02152857 26.9375 -0.01367188 C27.77925781 -0.0217688 28.62101562 -0.02986572 29.48828125 -0.03820801 C30.27589844 -0.02559937 31.06351563 -0.01299072 31.875 0 C32.90947266 0.00477356 32.90947266 0.00477356 33.96484375 0.00964355 C36.90886907 0.76769364 38.10322175 2.1315937 39.9375 4.51757812 C40.44543457 7.09765625 40.44543457 7.09765625 40.45507812 10.04882812 C40.46768677 11.15677734 40.48029541 12.26472656 40.49328613 13.40625 C40.48518921 14.59798828 40.47709229 15.78972656 40.46875 17.01757812 C40.4725769 18.24541016 40.47640381 19.47324219 40.48034668 20.73828125 C40.48306842 23.33399272 40.47568911 25.92973149 40.45898438 28.52539062 C40.43758075 32.50257412 40.45877963 36.47795094 40.484375 40.45507812 C40.48173177 42.97591545 40.47660691 45.49675166 40.46875 48.01757812 C40.47684692 49.20931641 40.48494385 50.40105469 40.49328613 51.62890625 C40.48067749 52.73685547 40.46806885 53.84480469 40.45507812 54.98632812 C40.45030457 56.4471582 40.45030457 56.4471582 40.44543457 57.9375 C39.78603494 61.28695218 38.63188172 62.47195627 35.9375 64.51757812 C33.96484375 65.0255127 33.96484375 65.0255127 31.875 65.03515625 C30.69357422 65.05406921 30.69357422 65.05406921 29.48828125 65.07336426 C28.64652344 65.06526733 27.80476563 65.05717041 26.9375 65.04882812 C26.06480469 65.05265503 25.19210938 65.05648193 24.29296875 65.0604248 C22.45050908 65.06314303 20.60801076 65.05578807 18.765625 65.0390625 C15.94704066 65.0176506 13.13100515 65.03886614 10.3125 65.06445312 C8.52082771 65.06180983 6.72915701 65.05668482 4.9375 65.04882812 C3.67486328 65.06097351 3.67486328 65.06097351 2.38671875 65.07336426 C1.20529297 65.05445129 1.20529297 65.05445129 0 65.03515625 C-0.68964844 65.03197388 -1.37929687 65.0287915 -2.08984375 65.0255127 C-5.03386907 64.26746261 -6.22822175 62.90356255 -8.0625 60.51757812 C-8.57043457 57.9375 -8.57043457 57.9375 -8.58007812 54.98632812 C-8.59268677 53.87837891 -8.60529541 52.77042969 -8.61828613 51.62890625 C-8.61018921 50.43716797 -8.60209229 49.24542969 -8.59375 48.01757812 C-8.5975769 46.78974609 -8.60140381 45.56191406 -8.60534668 44.296875 C-8.60806842 41.70116353 -8.60068911 39.10542476 -8.58398438 36.50976562 C-8.56258075 32.53258213 -8.58377963 28.55720531 -8.609375 24.58007812 C-8.60673177 22.0592408 -8.60160691 19.53840459 -8.59375 17.01757812 C-8.60184692 15.82583984 -8.60994385 14.63410156 -8.61828613 13.40625 C-8.60567749 12.29830078 -8.59306885 11.19035156 -8.58007812 10.04882812 C-8.57689575 9.07494141 -8.57371338 8.10105469 -8.57043457 7.09765625 C-7.63926889 2.36775532 -4.76089892 0.0219691 0 0 Z M7.9375 16.51757812 C7.9375 27.07757813 7.9375 37.63757813 7.9375 48.51757812 C13.2175 48.51757812 18.4975 48.51757812 23.9375 48.51757812 C23.9375 37.95757812 23.9375 27.39757812 23.9375 16.51757812 C18.6575 16.51757812 13.3775 16.51757812 7.9375 16.51757812 Z " fill="#558ECF" transform="translate(152.0625,55.482421875)"/>
</svg>
