<?xml version="1.0" encoding="UTF-8"?>
<svg version="1.1" xmlns="http://www.w3.org/2000/svg" width="512" height="512">
<path d="M0 0 C0.9357486 0.31107193 1.87149719 0.62214386 2.83560181 0.94264221 C4.85574528 1.61604751 6.87364756 2.29620676 8.88946533 2.98245239 C12.14380488 4.09017481 15.40365008 5.18006794 18.66552734 6.26538086 C22.08292896 7.40246243 25.50000094 8.54041867 28.91537476 9.68357849 C39.15031415 13.10769873 49.42190742 16.40904301 59.70739746 19.6776123 C83.37070765 27.20028262 106.99041433 34.85684328 130.60950661 42.51683331 C134.39067895 43.74309724 138.1718885 44.9692464 141.953125 46.1953125 C143.07712267 46.55978454 143.07712267 46.55978454 144.22382736 46.93161964 C155.43250401 50.56583353 166.64452542 54.18956908 177.859375 57.8046875 C178.57265709 58.03463409 179.28593918 58.26458069 180.02083588 58.50149536 C186.17838632 60.48646791 192.33608355 62.47098396 198.49450684 64.45324707 C199.12885021 64.65744011 199.76319359 64.86163315 200.41675949 65.07201385 C202.27399276 65.66984066 204.13122853 66.26765966 205.98846436 66.86547852 C209.38412989 67.96037517 212.77814848 69.06024338 216.171875 70.16113281 C219.75893141 71.32408792 223.35045217 72.46747727 226.953125 73.58105469 C228.01086121 73.91470535 228.01086121 73.91470535 229.08996582 74.25509644 C230.84333556 74.80793768 232.60018694 75.34970701 234.35742188 75.89013672 C237.62300918 77.30542104 239.09682792 78.05430313 241.0625 81.0625 C241.65530135 84.64568483 241.62261777 88.18751175 241.59375 91.8125 C241.5975769 92.86276367 241.60140381 93.91302734 241.60534668 94.99511719 C241.60806696 97.21420247 241.60069777 99.43331974 241.58398438 101.65234375 C241.56257745 105.05020595 241.58378325 108.44595361 241.609375 111.84375 C241.60673175 114.00000467 241.60160682 116.15625802 241.59375 118.3125 C241.60184692 119.32924805 241.60994385 120.34599609 241.61828613 121.39355469 C241.52476768 128.42327417 241.52476768 128.42327417 239.15429688 131.70117188 C236.89898136 133.16891689 235.73211743 133.60421277 233.0625 133.5625 C232.0725 133.57796875 232.0725 133.57796875 231.0625 133.59375 C228.01906073 132.78533644 226.96588253 131.57848791 225.0625 129.0625 C224.71359914 126.03344023 224.59495244 123.37946713 224.671875 120.359375 C224.67753479 119.52158508 224.68319458 118.68379517 224.68902588 117.82061768 C224.71137671 115.15065834 224.76156902 112.48205213 224.8125 109.8125 C224.83256675 108.00001941 224.85081722 106.18751774 224.8671875 104.375 C224.91123706 99.93698041 224.98025434 95.49996944 225.0625 91.0625 C223.87100342 90.8257959 222.67950684 90.5890918 221.4519043 90.34521484 C214.77593705 88.85647309 208.32531707 86.6676117 201.83203125 84.5390625 C200.42400313 84.08097302 199.01584746 83.62327545 197.60757446 83.16593933 C194.60047159 82.18856062 191.5942077 81.20865913 188.58859253 80.22671509 C183.80726603 78.66472024 179.02405807 77.10854596 174.24047852 75.5534668 C169.31658547 73.9525632 164.39275792 72.35146245 159.4695282 70.7485199 C144.1553127 65.76279451 128.82923167 60.81432947 113.5 55.875 C110.97662563 55.06149867 108.45326952 54.24794069 105.92993164 53.43432617 C100.88353439 51.80723454 95.83706358 50.18037143 90.79052734 48.55371094 C85.49386055 46.84639237 80.19731468 45.13869916 74.90087891 43.43066406 C74.21835588 43.2105664 73.53583284 42.99046873 72.8326273 42.76370144 C69.38592562 41.65217131 65.93930916 40.54037798 62.49284363 39.42811584 C56.46107568 37.48169223 50.42898465 35.53633747 44.39415264 33.59943104 C32.89212047 29.90770415 21.39730691 26.2072842 9.96875 22.29296875 C7.62481624 21.4990665 5.28042153 20.70654037 2.93591309 19.91433716 C0.90794738 19.22017132 -1.10968271 18.50087637 -3.12792969 17.77905273 C-4.30774414 17.38016846 -5.48755859 16.98128418 -6.703125 16.5703125 C-8.16927246 16.05428467 -8.16927246 16.05428467 -9.66503906 15.52783203 C-17.94333413 14.35068861 -26.43311472 18.03465438 -34.1875 20.6328125 C-35.25669678 20.98553726 -36.32589355 21.33826202 -37.42749023 21.70167542 C-39.7290038 22.46144743 -42.02968041 23.22375864 -44.32958984 23.9883728 C-49.91274282 25.8439929 -55.50123893 27.68335529 -61.08959961 29.52322197 C-63.00714352 30.15469621 -64.92447485 30.78681299 -66.84179688 31.41896057 C-78.51814869 35.26615488 -90.22329869 39.01994882 -101.9375 42.75 C-120.8590185 48.78078828 -139.75767159 54.88006587 -158.64807129 61.00744629 C-171.36493662 65.13225635 -184.08352706 69.25174989 -196.80222321 73.37091064 C-198.91218787 74.05430172 -201.02210614 74.73783586 -203.13201904 75.42138672 C-210.82086127 77.91202586 -218.51121383 80.39789811 -226.20394897 82.87649536 C-228.51062574 83.62043797 -230.81680641 84.36592068 -233.12246704 85.11300659 C-236.26263336 86.13021508 -239.40448877 87.14201776 -242.546875 88.15234375 C-243.92425087 88.60051453 -243.92425087 88.60051453 -245.32945251 89.05773926 C-246.16400467 89.32477661 -246.99855682 89.59181396 -247.85839844 89.86694336 C-248.93948883 90.21588905 -248.93948883 90.21588905 -250.04241943 90.57188416 C-251.9375 91.0625 -251.9375 91.0625 -254.9375 91.0625 C-254.9375 98.3225 -254.9375 105.5825 -254.9375 113.0625 C-250.17699219 111.50015625 -250.17699219 111.50015625 -245.3203125 109.90625 C-223.27786139 102.67861072 -201.22557084 95.48561993 -179.125 88.4375 C-161.07215985 82.67942113 -143.03674132 76.86936464 -125.0118351 71.02455807 C-120.47432696 69.55331295 -115.93626786 68.08378504 -111.39766884 66.61590862 C-107.62039605 65.39425093 -103.84334667 64.1719036 -100.06640625 62.94921875 C-99.31769886 62.70685045 -98.56899147 62.46448215 -97.79759598 62.21476936 C-87.98566555 59.03718784 -78.18295328 55.83280791 -68.38833618 52.6022644 C-63.3524161 50.94157198 -58.31336262 49.29048809 -53.27343941 47.64198875 C-49.2363616 46.32059391 -45.2037289 44.98666106 -41.17405605 43.64286518 C-38.11337537 42.62645088 -35.04643981 41.62922719 -31.98046875 40.62890625 C-30.90143784 40.26448929 -29.82240692 39.90007233 -28.7106781 39.52461243 C-18.21241773 36.13875444 -10.35696077 36.40297352 0 40 C0.9357486 40.31107193 1.87149719 40.62214386 2.83560181 40.94264221 C4.85574528 41.61604751 6.87364756 42.29620676 8.88946533 42.98245239 C12.14380488 44.09017481 15.40365008 45.18006794 18.66552734 46.26538086 C22.08292896 47.40246243 25.50000094 48.54041867 28.91537476 49.68357849 C39.1511369 53.10797399 49.42355661 56.40959063 59.70986938 59.67843628 C75.20000457 64.60261993 90.67431563 69.57544172 106.13671875 74.5859375 C106.87767981 74.8260191 107.61864086 75.06610069 108.38205528 75.31345749 C115.99384913 77.78008491 123.60481928 80.24923368 131.21438122 82.72273827 C134.97859518 83.94617799 138.74310492 85.16870509 142.5078125 86.390625 C143.61704291 86.75066053 143.61704291 86.75066053 144.74868202 87.11796951 C154.58773834 90.30959885 164.43905279 93.45931475 174.3063221 96.5626049 C177.44031373 97.54895828 180.57292729 98.53967389 183.70581055 99.52954102 C188.29177389 100.97828701 192.88224907 102.41131367 197.47583008 103.83569336 C199.50882519 104.47707174 201.5416336 105.11904235 203.57421875 105.76171875 C204.48730804 106.03985413 205.40039734 106.3179895 206.34115601 106.60455322 C210.8161248 108.03494899 214.13760623 109.15982765 217.0625 113.0625 C217.9688734 116.7165408 217.49116158 120.07909991 216 123.5 C213.08907411 125.84752088 210.78067318 125.83386999 207.0625 126.0625 C203.9559466 125.49749141 201.0296689 124.51668762 198.04296875 123.50390625 C197.14594742 123.2131572 196.24892609 122.92240814 195.32472229 122.62284851 C192.29515211 121.63726132 189.27287777 120.63090942 186.25 119.625 C184.05744485 118.90771475 181.86439478 118.19194091 179.67089844 117.47753906 C174.80798687 115.89151377 169.94786035 114.29721539 165.08935547 112.69775391 C156.55885519 109.89104871 148.01642561 107.1214712 139.47265625 104.35546875 C137.94182666 103.85976696 136.41099883 103.36405973 134.88017273 102.86834717 C132.55088513 102.11409645 130.22159047 101.3598676 127.89226437 100.60573578 C122.35793857 98.81373657 116.82457208 97.01879822 111.29174805 95.22216797 C110.50504636 94.96671204 109.71834467 94.7112561 108.90780354 94.44805908 C107.31986488 93.93242147 105.73192625 93.41678375 104.14398766 92.90114594 C91.3441923 88.74513133 78.54163124 84.59781151 65.734375 80.46484375 C65.04706802 80.24298904 64.35976105 80.02113434 63.65162659 79.79255676 C56.3868433 77.44770546 49.12070864 75.1071715 41.8515625 72.77587891 C31.21307526 69.36107733 20.58621546 65.9287699 10.015625 62.30859375 C7.66009944 61.51081134 5.30410789 60.71442037 2.94799805 59.91836548 C0.9150025 59.22258106 -1.10764199 58.50168685 -3.13085938 57.77807617 C-4.89913086 57.18023315 -4.89913086 57.18023315 -6.703125 56.5703125 C-7.68055664 56.22629395 -8.65798828 55.88227539 -9.66503906 55.52783203 C-17.94333413 54.35068861 -26.43311472 58.03465438 -34.1875 60.6328125 C-35.25669678 60.98553726 -36.32589355 61.33826202 -37.42749023 61.70167542 C-39.7290038 62.46144743 -42.02968041 63.22375864 -44.32958984 63.9883728 C-49.91274282 65.8439929 -55.50123893 67.68335529 -61.08959961 69.52322197 C-63.00714352 70.15469621 -64.92447485 70.78681299 -66.84179688 71.41896057 C-78.51814869 75.26615488 -90.22329869 79.01994882 -101.9375 82.75 C-120.8590185 88.78078828 -139.75767159 94.88006587 -158.64807129 101.00744629 C-171.36493662 105.13225635 -184.08352706 109.25174989 -196.80222321 113.37091064 C-198.91218787 114.05430172 -201.02210614 114.73783586 -203.13201904 115.42138672 C-210.82086127 117.91202586 -218.51121383 120.39789811 -226.20394897 122.87649536 C-228.51062574 123.62043797 -230.81680641 124.36592068 -233.12246704 125.11300659 C-236.26263336 126.13021508 -239.40448877 127.14201776 -242.546875 128.15234375 C-243.46512558 128.45112427 -244.38337616 128.74990479 -245.32945251 129.05773926 C-246.16400467 129.32477661 -246.99855682 129.59181396 -247.85839844 129.86694336 C-248.93948883 130.21588905 -248.93948883 130.21588905 -250.04241943 130.57188416 C-251.9375 131.0625 -251.9375 131.0625 -254.9375 131.0625 C-254.9375 224.1225 -254.9375 317.1825 -254.9375 413.0625 C-244.3775 413.0625 -233.8175 413.0625 -222.9375 413.0625 C-222.94638245 410.51565491 -222.95526489 407.96880981 -222.9644165 405.3447876 C-223.04606489 381.38817401 -223.10564108 357.43157872 -223.14474869 333.47485733 C-223.16538981 321.15733606 -223.19354007 308.83991676 -223.23925781 296.52246094 C-223.27907806 285.78883223 -223.30492153 275.05527735 -223.31385398 264.32157683 C-223.31907686 258.63608776 -223.33138483 252.95080997 -223.36042023 247.26538849 C-223.38751321 241.9171218 -223.39595735 236.56915399 -223.38993073 231.2208252 C-223.3910337 229.25516894 -223.39902383 227.28950298 -223.4143219 225.32390594 C-223.43415415 222.64494928 -223.42946411 219.96712862 -223.41851807 217.28814697 C-223.43016943 216.50604489 -223.4418208 215.7239428 -223.45382524 214.91814065 C-223.41447444 211.36767847 -223.22466264 209.43634646 -221.03072739 206.58014297 C-218.72930644 204.91155438 -217.68064586 204.55786849 -214.875 204.54492188 C-214.08738281 204.53231323 -213.29976562 204.51970459 -212.48828125 204.50671387 C-211.64652344 204.51481079 -210.80476563 204.52290771 -209.9375 204.53125 C-209.06480469 204.5274231 -208.19210938 204.52359619 -207.29296875 204.51965332 C-205.45050908 204.5169351 -203.60801076 204.52429006 -201.765625 204.54101562 C-198.94704066 204.56242752 -196.13100515 204.54121199 -193.3125 204.515625 C-191.52082771 204.51826829 -189.72915701 204.52339331 -187.9375 204.53125 C-187.09574219 204.52315308 -186.25398438 204.51505615 -185.38671875 204.50671387 C-179.55034382 204.60014601 -179.55034382 204.60014601 -176.40820312 206.97070312 C-174.81605305 209.2352353 -174.394703 210.3234917 -174.4375 213.0625 C-174.42203125 214.0525 -174.42203125 214.0525 -174.40625 215.0625 C-175.19147231 218.01863104 -176.56255125 219.16234561 -178.9375 221.0625 C-181.96191406 221.51660156 -181.96191406 221.51660156 -185.453125 221.453125 C-187.32871094 221.43378906 -187.32871094 221.43378906 -189.2421875 221.4140625 C-191.19511719 221.36378906 -191.19511719 221.36378906 -193.1875 221.3125 C-194.50492187 221.29445313 -195.82234375 221.27640625 -197.1796875 221.2578125 C-200.43302308 221.21066271 -203.68489625 221.14486044 -206.9375 221.0625 C-206.93381283 222.11017422 -206.93012566 223.15784843 -206.92632675 224.23727036 C-206.8375999 249.70819386 -206.77183094 275.17909736 -206.73025131 300.65014267 C-206.70961019 312.96766394 -206.68145993 325.28508324 -206.63574219 337.60253906 C-206.59592194 348.33616777 -206.57007847 359.06972265 -206.56114602 369.80342317 C-206.55592314 375.48891224 -206.54361517 381.17419003 -206.51457977 386.85961151 C-206.48748679 392.2078782 -206.47904265 397.55584601 -206.48506927 402.9041748 C-206.4839663 404.86983106 -206.47597617 406.83549702 -206.4606781 408.80109406 C-206.44084585 411.48005072 -206.44553589 414.15787138 -206.45648193 416.83685303 C-206.43900488 418.01000616 -206.43900488 418.01000616 -206.42117476 419.20685935 C-206.46023424 422.73103754 -206.65757569 424.69067378 -208.80630875 427.54485703 C-211.52425933 429.48033729 -213.14691668 429.56922336 -216.46875 429.58007812 C-217.57669922 429.59268677 -218.68464844 429.60529541 -219.82617188 429.61828613 C-221.01791016 429.61018921 -222.20964844 429.60209229 -223.4375 429.59375 C-225.27924805 429.59949036 -225.27924805 429.59949036 -227.15820312 429.60534668 C-229.75391459 429.60806842 -232.34965336 429.60068911 -234.9453125 429.58398438 C-238.92249599 429.56258075 -242.89787282 429.58377963 -246.875 429.609375 C-249.39583733 429.60673177 -251.91667353 429.60160691 -254.4375 429.59375 C-255.62923828 429.60184692 -256.82097656 429.60994385 -258.04882812 429.61828613 C-259.71075195 429.59937317 -259.71075195 429.59937317 -261.40625 429.58007812 C-262.38013672 429.57689575 -263.35402344 429.57371338 -264.35742188 429.57043457 C-267.75207515 428.9021363 -268.78831577 427.74476793 -270.9375 425.0625 C-271.43889666 422.36457062 -271.43889666 422.36457062 -271.44086456 419.20910645 C-271.45129555 418.00532097 -271.46172654 416.80153549 -271.47247362 415.56127167 C-271.4638252 414.22378808 -271.45479857 412.88630689 -271.44543457 411.54882812 C-271.45004219 410.12928883 -271.45639418 408.70975431 -271.46434355 407.2902298 C-271.48107936 403.3847189 -271.47277145 399.47959774 -271.46039867 395.57408524 C-271.45136778 391.36406022 -271.46530813 387.15410337 -271.47631836 382.9440918 C-271.4941292 374.69482918 -271.49025221 366.44571193 -271.4786678 358.19644356 C-271.46964381 351.4936618 -271.46840498 344.79092085 -271.47276306 338.08813477 C-271.47337599 337.13510735 -271.47398893 336.18207994 -271.47462043 335.2001729 C-271.4758993 333.26427395 -271.47719615 331.32837501 -271.4785108 329.39247608 C-271.48992411 311.22840517 -271.47679112 293.06441493 -271.45530933 274.90035725 C-271.43743767 259.30592692 -271.44054157 243.71161568 -271.45898438 228.1171875 C-271.48037784 210.01927478 -271.4888254 191.92143281 -271.47653532 173.82350922 C-271.47526109 171.8946279 -271.47400361 169.96574657 -271.47276306 168.03686523 C-271.47214596 167.0877541 -271.47152886 166.13864297 -271.47089306 165.16077089 C-271.46743558 158.46401557 -271.47327705 151.76730503 -271.48268127 145.07055664 C-271.49388572 136.91232871 -271.49089405 128.75425477 -271.4695583 120.59604454 C-271.45902685 116.43148699 -271.45496148 112.26718642 -271.46815491 108.10263062 C-271.48004164 104.29299652 -271.47357848 100.48385852 -271.4522447 96.67426968 C-271.44776273 95.29344392 -271.45008056 93.91257657 -271.45974785 92.53177738 C-271.47185212 90.65984466 -271.45708488 88.78779514 -271.44086456 86.91589355 C-271.44021515 85.87459038 -271.43956574 84.8332872 -271.43889666 83.76042938 C-270.80535929 80.35147352 -269.61083787 79.2017416 -266.9375 77.0625 C-264.24755859 75.85253906 -264.24755859 75.85253906 -261.0859375 74.828125 C-259.87083496 74.42819336 -258.65573242 74.02826172 -257.40380859 73.61621094 C-256.04012045 73.18138529 -254.67634736 72.74682601 -253.3125 72.3125 C-251.84295573 71.83459875 -250.37372767 71.35572426 -248.90478516 70.87597656 C-244.79758851 69.53905124 -240.68507668 68.21925627 -236.57080078 66.90429688 C-233.92290737 66.05783512 -231.27580629 65.20893751 -228.62890625 64.359375 C-220.75869757 61.83414794 -212.88689165 59.31397111 -205.01220703 56.80273438 C-186.38599771 50.86110823 -167.78475099 44.84400625 -149.1875 38.8125 C-143.11985533 36.84485572 -137.05214248 34.87742177 -130.984375 32.91015625 C-130.23300892 32.66653917 -129.48164284 32.4229221 -128.70750809 32.17192268 C-112.28922848 26.84893413 -95.86438018 21.54637912 -79.4375 16.25 C-78.20825806 15.85365356 -76.97901611 15.45730713 -75.71252441 15.0489502 C-74.51994019 14.66444702 -73.32735596 14.27994385 -72.09863281 13.88378906 C-70.33607147 13.31517654 -70.33607147 13.31517654 -68.53790283 12.7350769 C-66.22110711 11.98876084 -63.90369339 11.24436022 -61.58563232 10.50198364 C-55.96053125 8.69790155 -50.34491061 6.87128984 -44.74758148 4.98295498 C-41.94238112 4.03815936 -39.13351078 3.10455608 -36.32429504 2.17177773 C-34.98358576 1.72324622 -33.64462608 1.26944347 -32.30766296 0.80986595 C-20.28748894 -3.31935472 -11.99445559 -4.16573697 0 0 Z " fill="#558FCF" transform="translate(270.9375,42.9375)"/>
<path d="M0 0 C0.99 -0.01546875 0.99 -0.01546875 2 -0.03125 C5.14987031 0.8054343 6.0761906 1.8166538 8 4.5 C8.61987176 8.18639673 8.53889549 11.85361766 8.50793457 15.58398438 C8.51729451 17.29996952 8.51729451 17.29996952 8.52684355 19.05062103 C8.54005184 22.22651016 8.53527972 25.40178936 8.52289867 28.57766342 C8.5138606 32.00241113 8.52781168 35.42707542 8.53881836 38.85180664 C8.55662157 45.56101802 8.55275566 52.27005059 8.5411678 58.97926903 C8.5321408 64.4310999 8.53090628 69.8828806 8.53526306 75.3347168 C8.53587599 76.11012109 8.53648893 76.88552539 8.53712043 77.68442678 C8.53839931 79.25955774 8.53969616 80.83468868 8.5410108 82.4098196 C8.55242187 97.1860498 8.53929465 111.9621808 8.51780933 126.73839474 C8.49993785 139.42200035 8.50304181 152.10545953 8.52148438 164.7890625 C8.54288181 179.51176617 8.55132318 194.23438286 8.53903532 208.95709991 C8.5377611 210.52649433 8.53650362 212.09588876 8.53526306 213.6652832 C8.53433741 214.82359532 8.53433741 214.82359532 8.53339306 216.00530767 C8.52993676 221.45172046 8.53577449 226.89807816 8.54518127 232.34448242 C8.55639015 238.9802549 8.55338481 245.61583808 8.5320583 252.25158882 C8.52153269 255.63846381 8.51745129 259.02502297 8.53065491 262.41189575 C8.54152929 266.08025424 8.52794354 269.74771489 8.50793457 273.41601562 C8.5213189 275.02864414 8.5213189 275.02864414 8.53497362 276.67385101 C8.45883068 283.83373437 8.45883068 283.83373437 6.16747284 287.16100311 C3.0503595 289.08665818 0.64970306 289.00834636 -3 289.01757812 C-3.69641602 289.0245874 -4.39283203 289.03159668 -5.11035156 289.03881836 C-7.40730932 289.05639196 -9.70303021 289.04477919 -12 289.03125 C-13.59896073 289.03394513 -15.19791987 289.03782773 -16.796875 289.04284668 C-20.14599226 289.04874082 -23.49468243 289.04018192 -26.84375 289.02148438 C-31.13478591 288.99869435 -35.42482111 289.01181796 -39.71582031 289.03577423 C-43.01700366 289.0502348 -46.31795011 289.04562515 -49.61914062 289.03526306 C-51.20117308 289.03259646 -52.78322711 289.03586322 -54.36523438 289.04518127 C-56.57740163 289.05535179 -58.787953 289.0398419 -61 289.01757812 C-62.258125 289.01439575 -63.51625 289.01121338 -64.8125 289.00793457 C-68.7364593 288.38264372 -69.65711818 287.67660398 -72 284.5 C-72.38427074 281.62835314 -72.52376356 279.14365928 -72.48101807 276.27435303 C-72.48443577 275.43789065 -72.48785347 274.60142827 -72.49137473 273.73961854 C-72.49797136 270.93251072 -72.47594836 268.12635588 -72.45410156 265.31933594 C-72.45297347 263.3089195 -72.4536062 261.29850141 -72.45587158 259.28808594 C-72.45702114 253.82554327 -72.43347249 248.36335059 -72.40557575 242.9008894 C-72.38060251 237.19405571 -72.37822331 231.48721437 -72.37347412 225.78033447 C-72.36103237 214.97143692 -72.32819444 204.16270084 -72.28807616 193.35387444 C-72.24339584 181.04932272 -72.22138081 168.74476336 -72.20129442 156.44015074 C-72.15946293 131.12667758 -72.08908749 105.81334783 -72 80.5 C-73.02608293 80.50227832 -73.02608293 80.50227832 -74.07289481 80.50460267 C-114.58950549 80.59405869 -155.10610473 80.66271773 -195.62279426 80.70426132 C-200.48453227 80.70926432 -205.34627009 80.71444159 -210.20800781 80.71972656 C-211.17591776 80.7207758 -212.1438277 80.72182505 -213.14106825 80.72290608 C-228.82619023 80.74032507 -244.51125375 80.77187097 -260.19634101 80.80861118 C-276.28321321 80.84597907 -292.37005472 80.86822705 -308.45696855 80.87635398 C-318.38847005 80.88185039 -328.31980632 80.89922821 -338.25125697 80.93166587 C-345.05585874 80.95276253 -351.86037472 80.95921108 -358.66500685 80.95400551 C-362.5946329 80.95143614 -366.52396963 80.95545445 -370.45354462 80.9768219 C-374.04866318 80.99622856 -377.64329673 80.99730892 -381.23843721 80.98359558 C-383.16018267 80.98109422 -385.08192209 80.99839912 -387.00358558 81.01632524 C-388.14016994 81.00836104 -389.2767543 81.00039685 -390.44778061 80.99219131 C-391.92185493 80.99446964 -391.92185493 80.99446964 -393.42570853 80.99679399 C-396.72900115 80.35931531 -397.91856461 79.08513138 -400 76.5 C-400.53125 74.5 -400.53125 74.5 -400.5 72.5 C-400.51546875 71.51 -400.51546875 71.51 -400.53125 70.5 C-399.75397862 67.57380186 -398.32334102 66.40524312 -396 64.5 C-393.35336685 63.99860334 -393.35336685 63.99860334 -390.27154541 63.99663544 C-389.0956271 63.98620445 -387.91970879 63.97577346 -386.70815659 63.96502638 C-385.4151778 63.97394927 -384.12219902 63.98287215 -382.79003906 63.99206543 C-381.40349802 63.98745767 -380.01696186 63.98110559 -378.63043594 63.97315645 C-374.81613452 63.95642245 -371.00223222 63.96472771 -367.18792915 63.97710133 C-363.07606393 63.98613297 -358.96426846 63.9721915 -354.85241699 63.96118164 C-346.79566101 63.94337159 -338.73905386 63.94724743 -330.68229198 63.9588322 C-324.13587914 63.9678565 -317.58950809 63.96909488 -311.04309082 63.96473694 C-310.11226629 63.96412401 -309.18144177 63.96351107 -308.22241044 63.96287957 C-306.33160749 63.9616007 -304.44080455 63.96030385 -302.55000162 63.9589892 C-284.80941095 63.94757613 -267.06890288 63.96070851 -249.32832575 63.98219067 C-234.0977487 64.00006231 -218.86729359 63.99695841 -203.63671875 63.97851562 C-185.96070726 63.95712175 -168.28476821 63.94867483 -150.60874557 63.96096468 C-148.72480012 63.96223891 -146.84085466 63.96349639 -144.95690918 63.96473694 C-144.02991093 63.96535404 -143.10291268 63.96597114 -142.14782357 63.96660694 C-135.60736115 63.9700643 -129.06694458 63.96422321 -122.52648926 63.95481873 C-114.55856853 63.94361382 -106.59080547 63.94660692 -98.62290287 63.9679417 C-94.55555605 63.97847254 -90.48847234 63.98253958 -86.42112732 63.96934509 C-82.70030924 63.95745707 -78.97999904 63.96392361 -75.25922728 63.9852553 C-73.27009888 63.99186558 -71.28093543 63.97875316 -69.29184341 63.96502638 C-68.1159251 63.97545737 -66.94000679 63.98588836 -65.72845459 63.99663544 C-64.71145351 63.99728485 -63.69445244 63.99793426 -62.64663315 63.99860334 C-59.25506723 64.64112526 -58.07009351 65.77933866 -56 68.5 C-55.61572926 71.37164686 -55.47623644 73.85634072 -55.51898193 76.72564697 C-55.51556423 77.56210935 -55.51214653 78.39857173 -55.50862527 79.26038146 C-55.50202864 82.06748928 -55.52405164 84.87364412 -55.54589844 87.68066406 C-55.54702653 89.6910805 -55.5463938 91.70149859 -55.54412842 93.71191406 C-55.54297886 99.17445673 -55.56652751 104.63664941 -55.59442425 110.0991106 C-55.61939749 115.80594429 -55.62177669 121.51278563 -55.62652588 127.21966553 C-55.63896763 138.02856308 -55.67180556 148.83729916 -55.71192384 159.64612556 C-55.75660416 171.95067728 -55.77861919 184.25523664 -55.79870558 196.55984926 C-55.8405371 221.87334303 -55.91390456 247.18661541 -56 272.5 C-40.16 272.5 -24.32 272.5 -8 272.5 C-8.00888245 269.15135803 -8.01776489 265.80271606 -8.0269165 262.3526001 C-8.10647305 231.66155637 -8.16620856 200.97053561 -8.20426132 170.27941288 C-8.20926429 166.2588662 -8.21444156 162.23831976 -8.21972656 158.21777344 C-8.2207758 157.41733792 -8.22182505 156.6169024 -8.22290608 155.79221126 C-8.2403225 142.82302387 -8.27186697 129.85390723 -8.30861118 116.88476184 C-8.34598624 103.58224096 -8.36822857 90.2797572 -8.37635398 76.97718596 C-8.38184891 68.76539938 -8.39921862 60.55381276 -8.43166587 52.34208772 C-8.4527714 46.71486996 -8.45920907 41.08775594 -8.45400551 35.46050146 C-8.45143748 32.21132156 -8.45760874 28.96256664 -8.4768219 25.71343231 C-8.49662047 22.19378358 -8.49197549 18.6750018 -8.48101807 15.15533447 C-8.49266943 14.1242117 -8.5043208 13.09308892 -8.51632524 12.03072 C-8.45797725 5.1329143 -8.45797725 5.1329143 -6.09493637 1.86724472 C-3.83744059 0.3939068 -2.67401013 -0.04178141 0 0 Z " fill="#558ECF" transform="translate(504,183.5)"/>
<path d="M0 0 C1.32396412 -0.00935994 1.32396412 -0.00935994 2.67467499 -0.01890898 C5.63820449 -0.03488939 8.60091723 -0.02221496 11.56445312 -0.00964355 C13.68660971 -0.01506242 15.80876253 -0.02218375 17.9309082 -0.03088379 C23.69944448 -0.04914793 29.46769519 -0.04203675 35.23623657 -0.02936745 C41.26687401 -0.01925584 47.29748663 -0.02862801 53.328125 -0.03491211 C63.45642497 -0.04219387 73.58460835 -0.03258689 83.71289062 -0.0135498 C95.43046156 0.00821986 107.14775411 0.00116887 118.8653183 -0.02085543 C128.9172072 -0.03899431 138.96901219 -0.04157513 149.02091217 -0.03110075 C155.02822942 -0.02485753 161.03541572 -0.024053 167.04272461 -0.0372467 C172.68986066 -0.04878253 178.33663703 -0.04082075 183.98373413 -0.01766968 C186.05902509 -0.01237048 188.1343462 -0.01391694 190.20962524 -0.02272034 C193.03729732 -0.0336115 195.86380863 -0.01999008 198.69140625 0 C199.51747124 -0.00892289 200.34353622 -0.01784577 201.19463348 -0.02703905 C204.82024781 0.02285962 206.91565459 0.18409349 209.85485077 2.39740753 C211.63090074 4.91167494 211.85158006 6.24650385 211.86328125 9.30480957 C211.87588989 10.25259277 211.88849854 11.20037598 211.90148926 12.17687988 C211.89339233 13.19362793 211.88529541 14.21037598 211.87695312 15.25793457 C211.88078003 16.30819824 211.88460693 17.35846191 211.8885498 18.44055176 C211.89127008 20.65963704 211.88390089 22.87875432 211.8671875 25.09777832 C211.84578058 28.49564052 211.86698638 31.89138818 211.89257812 35.28918457 C211.88993487 37.44543924 211.88480994 39.60169259 211.87695312 41.75793457 C211.88505005 42.77468262 211.89314697 43.79143066 211.90148926 44.83898926 C211.88257629 46.26066406 211.88257629 46.26066406 211.86328125 47.71105957 C211.86009888 48.54282715 211.8569165 49.37459473 211.8536377 50.23156738 C211.12635478 53.49096941 210.01825879 54.49540985 207.34570312 56.50793457 C204.33853774 56.90065775 201.69819313 57.04834748 198.69140625 57.01586914 C197.8087635 57.0221091 196.92612076 57.02834907 196.01673126 57.03477812 C193.05320176 57.05075853 190.09048902 57.0380841 187.12695312 57.0255127 C185.00479654 57.03093156 182.88264372 57.03805289 180.76049805 57.04675293 C174.99196177 57.06501707 169.22371106 57.05790589 163.45516968 57.04523659 C157.42453224 57.03512498 151.39391962 57.04449715 145.36328125 57.05078125 C135.23498128 57.05806301 125.1067979 57.04845603 114.97851562 57.02941895 C103.26094469 57.00764928 91.54365214 57.01470027 79.82608795 57.03672457 C69.77419905 57.05486346 59.72239406 57.05744427 49.67049408 57.04696989 C43.66317683 57.04072667 37.65599053 57.03992214 31.64868164 57.05311584 C26.00154559 57.06465167 20.35476922 57.05668989 14.70767212 57.03353882 C12.63238116 57.02823962 10.55706005 57.02978609 8.48178101 57.03858948 C5.65410893 57.04948065 2.82759762 57.03585923 0 57.01586914 C-0.82606499 57.02479203 -1.65212997 57.03371491 -2.50322723 57.04290819 C-6.12884156 56.99300952 -8.22424834 56.83177565 -11.16344452 54.61846161 C-12.93949449 52.1041942 -13.16017381 50.76936529 -13.171875 47.71105957 C-13.19078796 46.28938477 -13.19078796 46.28938477 -13.21008301 44.83898926 C-13.20198608 43.82224121 -13.19388916 42.80549316 -13.18554688 41.75793457 C-13.18937378 40.7076709 -13.19320068 39.65740723 -13.19714355 38.57531738 C-13.19986383 36.3562321 -13.19249464 34.13711483 -13.17578125 31.91809082 C-13.15437433 28.52022862 -13.17558013 25.12448096 -13.20117188 21.72668457 C-13.19852862 19.5704299 -13.19340369 17.41417655 -13.18554688 15.25793457 C-13.1936438 14.24118652 -13.20174072 13.22443848 -13.21008301 12.17687988 C-13.19747437 11.22909668 -13.18486572 10.28131348 -13.171875 9.30480957 C-13.16869263 8.47304199 -13.16551025 7.64127441 -13.16223145 6.78430176 C-11.61973386 -0.12857854 -6.00322788 -0.06484493 0 0 Z M3.34570312 16.50793457 C3.34570312 24.42793457 3.34570312 32.34793457 3.34570312 40.50793457 C66.70570313 40.50793457 130.06570313 40.50793457 195.34570312 40.50793457 C195.34570312 32.58793457 195.34570312 24.66793457 195.34570312 16.50793457 C131.98570312 16.50793457 68.62570313 16.50793457 3.34570312 16.50793457 Z " fill="#558ECF" transform="translate(156.654296875,159.4920654296875)"/>
<path d="M0 0 C1.16793594 -0.0127597 2.33587189 -0.02551941 3.53919983 -0.03866577 C5.41749733 -0.04200424 5.41749733 -0.04200424 7.33374023 -0.04541016 C8.62674545 -0.05206696 9.91975067 -0.05872375 11.25193787 -0.06558228 C13.98293399 -0.07752829 16.71380383 -0.0812656 19.44482422 -0.08007812 C22.94102792 -0.07987444 26.43642324 -0.10723762 29.93243504 -0.14162254 C33.27454945 -0.16921676 36.61651332 -0.16803953 39.95874023 -0.17041016 C41.84007408 -0.19196671 41.84007408 -0.19196671 43.75941467 -0.21395874 C44.92419846 -0.20780548 46.08898224 -0.20165222 47.2890625 -0.1953125 C48.82531029 -0.19958755 48.82531029 -0.19958755 50.39259338 -0.20394897 C53.78134765 0.41961214 54.95921177 1.63272627 57.07983398 4.29052734 C57.61108398 6.29052734 57.61108398 6.29052734 57.57983398 8.29052734 C57.59530273 9.28052734 57.59530273 9.28052734 57.61108398 10.29052734 C56.77353445 13.443655 55.80508199 14.44649725 53.07983398 16.29052734 C49.65014672 16.78004831 46.28514323 16.66635093 42.82983398 16.54052734 C41.89397461 16.52248047 40.95811523 16.50443359 39.99389648 16.48583984 C37.68816383 16.43878408 35.38452454 16.37306447 33.07983398 16.29052734 C33.10078125 16.87543945 33.12172852 17.46035156 33.14331055 18.06298828 C33.22663514 20.721992 33.27854295 23.3807209 33.32983398 26.04052734 C33.36334961 26.96091797 33.39686523 27.88130859 33.43139648 28.82958984 C33.52988656 35.62540539 33.52988656 35.62540539 31.31420898 38.89990234 C28.98380701 40.35029238 27.79698264 40.83298279 25.07983398 40.79052734 C24.41983398 40.80083984 23.75983398 40.81115234 23.07983398 40.82177734 C19.92670633 39.98422781 18.92386407 39.01577535 17.07983398 36.29052734 C16.59031302 32.86084008 16.7040104 29.49583659 16.82983398 26.04052734 C16.84788086 25.10466797 16.86592773 24.16880859 16.88452148 23.20458984 C16.93157725 20.89885719 16.99729686 18.5952179 17.07983398 16.29052734 C14.51647145 16.40499007 11.95469954 16.53172235 9.39233398 16.66552734 C8.31048828 16.71193359 8.31048828 16.71193359 7.20678711 16.75927734 C1.39445142 17.07166261 1.39445142 17.07166261 -3.92016602 19.29052734 C-5.58140091 22.67681037 -6.17173375 25.43399088 -6.17895508 29.18505859 C-6.1852594 30.12953857 -6.19156372 31.07401855 -6.19805908 32.04711914 C-6.19401062 33.05556885 -6.18996216 34.06401855 -6.18579102 35.10302734 C-6.18770447 36.14950439 -6.18961792 37.19598145 -6.19158936 38.27416992 C-6.1929482 40.48307537 -6.18927277 42.69198888 -6.1809082 44.90087891 C-6.17020464 48.27834035 -6.18081389 51.6552699 -6.19360352 55.03271484 C-6.19228187 57.18115352 -6.18971937 59.32959186 -6.18579102 61.47802734 C-6.18983948 62.48647705 -6.19388794 63.49492676 -6.19805908 64.53393555 C-6.19175476 65.47841553 -6.18545044 66.42289551 -6.17895508 67.39599609 C-6.17736389 68.22252686 -6.17577271 69.04905762 -6.1741333 69.90063477 C-5.86948181 72.76747777 -5.33156204 74.76557779 -3.92016602 77.29052734 C-0.50037393 79.22238078 2.47612336 79.54047323 6.35742188 79.54589844 C7.89910789 79.55633682 7.89910789 79.55633682 9.47193909 79.56698608 C10.57102097 79.56598907 11.67010284 79.56499207 12.80249023 79.56396484 C15.13778156 79.58424503 17.47306799 79.60509564 19.80834961 79.62646484 C23.48425443 79.64911155 27.15996599 79.66555531 30.8359375 79.67138672 C34.38764187 79.68088389 37.93847927 79.71461825 41.48999023 79.75146484 C42.59109634 79.74641937 43.69220245 79.7413739 44.82667542 79.73617554 C45.85131393 79.74943878 46.87595245 79.76270203 47.93164062 79.77636719 C48.83145157 79.77921722 49.73126251 79.78206726 50.65834045 79.78500366 C53.84160305 80.44955825 55.05000068 81.80831092 57.07983398 84.29052734 C57.61108398 86.29052734 57.61108398 86.29052734 57.57983398 88.29052734 C57.59530273 89.28052734 57.59530273 89.28052734 57.61108398 90.29052734 C56.77353445 93.443655 55.80508199 94.44649725 53.07983398 96.29052734 C49.65014672 96.78004831 46.28514323 96.66635093 42.82983398 96.54052734 C41.89397461 96.52248047 40.95811523 96.50443359 39.99389648 96.48583984 C37.68816383 96.43878408 35.38452454 96.37306447 33.07983398 96.29052734 C33.10078125 96.87543945 33.12172852 97.46035156 33.14331055 98.06298828 C33.22663514 100.721992 33.27854295 103.3807209 33.32983398 106.04052734 C33.36334961 106.96091797 33.39686523 107.88130859 33.43139648 108.82958984 C33.52988656 115.62540539 33.52988656 115.62540539 31.31420898 118.89990234 C28.98380701 120.35029238 27.79698264 120.83298279 25.07983398 120.79052734 C24.08983398 120.80599609 24.08983398 120.80599609 23.07983398 120.82177734 C19.92670633 119.98422781 18.92386407 119.01577535 17.07983398 116.29052734 C16.59031302 112.86084008 16.7040104 109.49583659 16.82983398 106.04052734 C16.84788086 105.10466797 16.86592773 104.16880859 16.88452148 103.20458984 C16.93157725 100.89885719 16.99729686 98.5952179 17.07983398 96.29052734 C14.51647145 96.40499007 11.95469954 96.53172235 9.39233398 96.66552734 C8.67110352 96.69646484 7.94987305 96.72740234 7.20678711 96.75927734 C1.39445142 97.07166261 1.39445142 97.07166261 -3.92016602 99.29052734 C-5.58140091 102.67681037 -6.17173375 105.43399088 -6.17895508 109.18505859 C-6.1852594 110.12953857 -6.19156372 111.07401855 -6.19805908 112.04711914 C-6.19401062 113.05556885 -6.18996216 114.06401855 -6.18579102 115.10302734 C-6.18770447 116.14950439 -6.18961792 117.19598145 -6.19158936 118.27416992 C-6.1929482 120.48307537 -6.18927277 122.69198888 -6.1809082 124.90087891 C-6.17020464 128.27834035 -6.18081389 131.6552699 -6.19360352 135.03271484 C-6.19228187 137.18115352 -6.18971937 139.32959186 -6.18579102 141.47802734 C-6.18983948 142.48647705 -6.19388794 143.49492676 -6.19805908 144.53393555 C-6.19175476 145.47841553 -6.18545044 146.42289551 -6.17895508 147.39599609 C-6.17736389 148.22252686 -6.17577271 149.04905762 -6.1741333 149.90063477 C-5.86948181 152.76747777 -5.33156204 154.76557779 -3.92016602 157.29052734 C-0.50037393 159.22238078 2.47612336 159.54047323 6.35742188 159.54589844 C7.38521255 159.55285736 8.41300323 159.55981628 9.47193909 159.56698608 C10.57102097 159.56598907 11.67010284 159.56499207 12.80249023 159.56396484 C15.13778156 159.58424503 17.47306799 159.60509564 19.80834961 159.62646484 C23.48425443 159.64911155 27.15996599 159.66555531 30.8359375 159.67138672 C34.38764187 159.68088389 37.93847927 159.71461825 41.48999023 159.75146484 C42.59109634 159.74641937 43.69220245 159.7413739 44.82667542 159.73617554 C45.85131393 159.74943878 46.87595245 159.76270203 47.93164062 159.77636719 C49.28135704 159.78064224 49.28135704 159.78064224 50.65834045 159.78500366 C53.84160305 160.44955825 55.05000068 161.80831092 57.07983398 164.29052734 C57.61108398 166.29052734 57.61108398 166.29052734 57.57983398 168.29052734 C57.59530273 169.28052734 57.59530273 169.28052734 57.61108398 170.29052734 C56.83373832 173.21700513 55.40343916 174.38493328 53.07983398 176.29052734 C50.41278076 176.79846191 50.41278076 176.79846191 47.33666992 176.80810547 C45.60401886 176.82701843 45.60401886 176.82701843 43.83636475 176.84631348 C42.59155334 176.83821655 41.34674194 176.83011963 40.06420898 176.82177734 C38.77927551 176.82560425 37.49434204 176.82943115 36.17047119 176.83337402 C33.45012169 176.83926692 30.73029802 176.83071967 28.01000977 176.81201172 C24.54209973 176.78931186 21.07543422 176.80228726 17.60757065 176.82630157 C14.28052063 176.84434162 10.95379423 176.83165694 7.62670898 176.82177734 C6.38999451 176.82987427 5.15328003 176.83797119 3.87908936 176.84631348 C-4.26490221 176.75837663 -9.86529732 175.84383563 -16.16235352 170.32568359 C-16.9705957 169.34921875 -16.9705957 169.34921875 -17.79516602 168.35302734 C-18.34946289 167.70462891 -18.90375977 167.05623047 -19.47485352 166.38818359 C-22.43978098 162.08503212 -23.17365539 158.33835717 -23.21069336 153.15844727 C-23.22345306 151.94335983 -23.23621277 150.7282724 -23.24935913 149.47636414 C-23.25158478 148.17109268 -23.25381042 146.86582123 -23.25610352 145.52099609 C-23.26253766 144.1572506 -23.26926648 142.79350646 -23.27627563 141.42976379 C-23.28822964 138.57431848 -23.29195849 135.71899395 -23.29077148 132.86352539 C-23.29056859 129.22199624 -23.31784772 125.58125006 -23.3523159 121.93990612 C-23.37466326 119.12328097 -23.37860663 116.30684179 -23.37755203 113.4901371 C-23.38103001 111.50054254 -23.4026456 109.51100604 -23.4246521 107.52153015 C-23.38784401 100.19645001 -22.6331306 95.59843849 -18.92016602 89.29052734 C-19.41170684 86.56155568 -19.41170684 86.56155568 -20.92016602 84.29052734 C-22.733709 80.44992025 -23.18041328 77.39323833 -23.21069336 73.15844727 C-23.22345306 71.94335983 -23.23621277 70.7282724 -23.24935913 69.47636414 C-23.25158478 68.17109268 -23.25381042 66.86582123 -23.25610352 65.52099609 C-23.26253766 64.1572506 -23.26926648 62.79350646 -23.27627563 61.42976379 C-23.28822964 58.57431848 -23.29195849 55.71899395 -23.29077148 52.86352539 C-23.29056859 49.22199624 -23.31784772 45.58125006 -23.3523159 41.93990612 C-23.37466326 39.12328097 -23.37860663 36.30684179 -23.37755203 33.4901371 C-23.38103001 31.50054254 -23.4026456 29.51100604 -23.4246521 27.52153015 C-23.38271395 19.17552963 -22.61044729 13.50170319 -16.95532227 7.04833984 C-16.3043457 6.50951172 -15.65336914 5.97068359 -14.98266602 5.41552734 C-14.33426758 4.86123047 -13.68586914 4.30693359 -13.01782227 3.73583984 C-8.79058537 0.82321852 -5.09026968 0.03786112 0 0 Z " fill="#558FCE" transform="translate(366.920166015625,295.70947265625)"/>
<path d="M0 0 C1.15510071 -0.01260864 2.31020142 -0.02521729 3.50030518 -0.03820801 C5.36752228 -0.02606262 5.36752228 -0.02606262 7.27246094 -0.01367188 C8.55739441 -0.01749878 9.84232788 -0.02132568 11.16619873 -0.02526855 C13.88654823 -0.03116145 16.6063719 -0.0226142 19.32666016 -0.00390625 C22.79457019 0.01879361 26.2612357 0.00581821 29.72909927 -0.01819611 C33.05614929 -0.03623616 36.38287569 -0.02355147 39.70996094 -0.01367188 C41.56503265 -0.02581726 41.56503265 -0.02581726 43.45758057 -0.03820801 C51.60157214 0.04972884 57.20196724 0.96426984 63.49902344 6.48242188 C64.03785156 7.13339844 64.57667969 7.784375 65.13183594 8.45507812 C65.68613281 9.10347656 66.24042969 9.751875 66.81152344 10.41992188 C69.7764509 14.72307335 70.51032531 18.4697483 70.54736328 23.6496582 C70.56012299 24.86474564 70.57288269 26.07983307 70.58602905 27.33174133 C70.5882547 28.63701279 70.59048035 29.94228424 70.59277344 31.28710938 C70.59920758 32.65085487 70.6059364 34.01459901 70.61294556 35.37834167 C70.62489956 38.23378699 70.62862841 41.08911152 70.62744141 43.94458008 C70.62723851 47.58610923 70.65451765 51.22685541 70.68898582 54.86819935 C70.71133318 57.6848245 70.71527655 60.50126368 70.71422195 63.31796837 C70.71769994 65.30756292 70.73931552 67.29709943 70.76132202 69.28657532 C70.72451394 76.61165546 69.96980052 81.20966698 66.25683594 87.51757812 C66.74837676 90.24654979 66.74837676 90.24654979 68.25683594 92.51757812 C70.07037893 96.35818522 70.5170832 99.41486713 70.54736328 103.6496582 C70.56012299 104.86474564 70.57288269 106.07983307 70.58602905 107.33174133 C70.5882547 108.63701279 70.59048035 109.94228424 70.59277344 111.28710938 C70.59920758 112.65085487 70.6059364 114.01459901 70.61294556 115.37834167 C70.62489956 118.23378699 70.62862841 121.08911152 70.62744141 123.94458008 C70.62723851 127.58610923 70.65451765 131.22685541 70.68898582 134.86819935 C70.71133318 137.6848245 70.71527655 140.50126368 70.71422195 143.31796837 C70.71769994 145.30756292 70.73931552 147.29709943 70.76132202 149.28657532 C70.71938387 157.63257584 69.94711721 163.30640228 64.29199219 169.75976562 C63.64101562 170.29859375 62.99003906 170.83742188 62.31933594 171.39257812 C61.34673828 172.22402344 61.34673828 172.22402344 60.35449219 173.07226562 C56.12725529 175.98488695 52.4269396 176.77024435 47.33666992 176.80810547 C46.16873398 176.82086517 45.00079803 176.83362488 43.79747009 176.84677124 C42.54527176 176.84899689 41.29307343 176.85122253 40.00292969 176.85351562 C38.06342186 176.86350082 38.06342186 176.86350082 36.08473206 176.87368774 C33.35373593 176.88563376 30.62286609 176.88937107 27.8918457 176.88818359 C24.395642 176.88797991 20.90024668 176.91534309 17.40423489 176.94972801 C14.06212047 176.97732223 10.7201566 176.976145 7.37792969 176.97851562 C6.12370712 176.99288666 4.86948456 177.00725769 3.57725525 177.02206421 C2.41247147 177.01591095 1.24768768 177.00975769 0.04760742 177.00341797 C-1.48864037 177.00769302 -1.48864037 177.00769302 -3.05592346 177.01205444 C-6.44467773 176.38849333 -7.62254185 175.17537919 -9.74316406 172.51757812 C-10.27441406 170.51757812 -10.27441406 170.51757812 -10.24316406 168.51757812 C-10.25863281 167.52757812 -10.25863281 167.52757812 -10.27441406 166.51757812 C-9.50236418 163.61103738 -8.03278189 162.42559552 -5.74316406 160.51757812 C-3.32167053 160.01205444 -3.32167053 160.01205444 -0.5949707 160.00341797 C0.42966782 159.99015472 1.45430634 159.97689148 2.50999451 159.96322632 C4.16165367 159.97079453 4.16165367 159.97079453 5.84667969 159.97851562 C6.98335587 159.96672272 8.12003204 159.95492981 9.29115295 159.94277954 C12.9256861 159.90745422 16.55964501 159.89834404 20.19433594 159.89257812 C23.82528361 159.87623441 27.45597384 159.85417764 31.08680725 159.82095337 C33.34604774 159.80133363 35.60540609 159.79198737 37.86473083 159.79403687 C38.89252151 159.78707794 39.92031219 159.78011902 40.97924805 159.77294922 C42.33015785 159.77106094 42.33015785 159.77106094 43.70835876 159.76913452 C46.65269203 159.47850376 48.67307372 158.97715513 51.25683594 157.51757812 C53.10288538 154.21504531 53.50841923 151.36603484 53.515625 147.62304688 C53.52192932 146.67856689 53.52823364 145.73408691 53.534729 144.76098633 C53.53068054 143.75253662 53.52663208 142.74408691 53.52246094 141.70507812 C53.52437439 140.65860107 53.52628784 139.61212402 53.52825928 138.53393555 C53.52961812 136.3250301 53.5259427 134.11611659 53.51757812 131.90722656 C53.50687456 128.52976512 53.51748381 125.15283557 53.53027344 121.77539062 C53.52895179 119.62695195 53.52638929 117.47851361 53.52246094 115.33007812 C53.5265094 114.32162842 53.53055786 113.31317871 53.534729 112.27416992 C53.52842468 111.32968994 53.52212036 110.38520996 53.515625 109.41210938 C53.51403381 108.58557861 53.51244263 107.75904785 53.51080322 106.9074707 C53.21571679 104.13063718 52.4847839 102.02064337 51.25683594 99.51757812 C47.16074291 97.04016379 42.61017381 97.0927213 37.94433594 96.89257812 C37.20376953 96.85390625 36.46320313 96.81523437 35.70019531 96.77539062 C33.88612285 96.68176108 32.07151478 96.59860961 30.25683594 96.51757812 C30.2777832 97.10249023 30.29873047 97.68740234 30.3203125 98.29003906 C30.40363709 100.94904278 30.4555449 103.60777168 30.50683594 106.26757812 C30.54035156 107.18796875 30.57386719 108.10835938 30.60839844 109.05664062 C30.70688852 115.85245617 30.70688852 115.85245617 28.49121094 119.12695312 C26.16080896 120.57734316 24.9739846 121.06003357 22.25683594 121.01757812 C21.59683594 121.02789062 20.93683594 121.03820312 20.25683594 121.04882812 C17.10370829 120.21127859 16.10086603 119.24282613 14.25683594 116.51757812 C13.76731497 113.08789086 13.88101235 109.72288737 14.00683594 106.26757812 C14.02488281 105.33171875 14.04292969 104.39585937 14.06152344 103.43164062 C14.10857921 101.12590797 14.17429881 98.82226868 14.25683594 96.51757812 C13.37946777 96.54899902 13.37946777 96.54899902 12.484375 96.58105469 C9.82537128 96.66437928 7.16664239 96.71628709 4.50683594 96.76757812 C3.58644531 96.80109375 2.66605469 96.83460938 1.71777344 96.86914062 C-5.07804211 96.96763071 -5.07804211 96.96763071 -8.35253906 94.75195312 C-9.8029291 92.42155115 -10.28561951 91.23472679 -10.24316406 88.51757812 C-10.25863281 87.52757812 -10.25863281 87.52757812 -10.27441406 86.51757812 C-9.50236418 83.61103738 -8.03278189 82.42559552 -5.74316406 80.51757812 C-3.32167053 80.01205444 -3.32167053 80.01205444 -0.5949707 80.00341797 C0.42966782 79.99015472 1.45430634 79.97689148 2.50999451 79.96322632 C4.16165367 79.97079453 4.16165367 79.97079453 5.84667969 79.97851562 C6.98335587 79.96672272 8.12003204 79.95492981 9.29115295 79.94277954 C12.9256861 79.90745422 16.55964501 79.89834404 20.19433594 79.89257812 C23.82528361 79.87623441 27.45597384 79.85417764 31.08680725 79.82095337 C33.34604774 79.80133363 35.60540609 79.79198737 37.86473083 79.79403687 C38.89252151 79.78707794 39.92031219 79.78011902 40.97924805 79.77294922 C42.33015785 79.77106094 42.33015785 79.77106094 43.70835876 79.76913452 C46.65269203 79.47850376 48.67307372 78.97715513 51.25683594 77.51757812 C53.10288538 74.21504531 53.50841923 71.36603484 53.515625 67.62304688 C53.52192932 66.67856689 53.52823364 65.73408691 53.534729 64.76098633 C53.53068054 63.75253662 53.52663208 62.74408691 53.52246094 61.70507812 C53.52437439 60.65860107 53.52628784 59.61212402 53.52825928 58.53393555 C53.52961812 56.3250301 53.5259427 54.11611659 53.51757812 51.90722656 C53.50687456 48.52976512 53.51748381 45.15283557 53.53027344 41.77539062 C53.52895179 39.62695195 53.52638929 37.47851361 53.52246094 35.33007812 C53.5265094 34.32162842 53.53055786 33.31317871 53.534729 32.27416992 C53.52842468 31.32968994 53.52212036 30.38520996 53.515625 29.41210938 C53.51403381 28.58557861 53.51244263 27.75904785 53.51080322 26.9074707 C53.21571679 24.13063718 52.4847839 22.02064337 51.25683594 19.51757812 C47.16074291 17.04016379 42.61017381 17.0927213 37.94433594 16.89257812 C37.20376953 16.85390625 36.46320313 16.81523437 35.70019531 16.77539062 C33.88612285 16.68176108 32.07151478 16.59860961 30.25683594 16.51757812 C30.2777832 17.10249023 30.29873047 17.68740234 30.3203125 18.29003906 C30.40363709 20.94904278 30.4555449 23.60777168 30.50683594 26.26757812 C30.54035156 27.18796875 30.57386719 28.10835938 30.60839844 29.05664062 C30.70688852 35.85245617 30.70688852 35.85245617 28.49121094 39.12695312 C26.16080896 40.57734316 24.9739846 41.06003357 22.25683594 41.01757812 C21.26683594 41.03304687 21.26683594 41.03304687 20.25683594 41.04882812 C17.10370829 40.21127859 16.10086603 39.24282613 14.25683594 36.51757812 C13.76731497 33.08789086 13.88101235 29.72288737 14.00683594 26.26757812 C14.02488281 25.33171875 14.04292969 24.39585937 14.06152344 23.43164062 C14.10857921 21.12590797 14.17429881 18.82226868 14.25683594 16.51757812 C13.67192383 16.53852539 13.08701172 16.55947266 12.484375 16.58105469 C9.82537128 16.66437928 7.16664239 16.71628709 4.50683594 16.76757812 C3.12625 16.81785156 3.12625 16.81785156 1.71777344 16.86914062 C-5.07804211 16.96763071 -5.07804211 16.96763071 -8.35253906 14.75195312 C-9.8029291 12.42155115 -10.28561951 11.23472679 -10.24316406 8.51757812 C-10.25863281 7.52757812 -10.25863281 7.52757812 -10.27441406 6.51757812 C-8.85669008 1.18026431 -5.0396904 0.01579934 0 0 Z " fill="#558FCE" transform="translate(81.7431640625,295.482421875)"/>
<path d="M0 0 C1.16793594 -0.0127597 2.33587189 -0.02551941 3.53919983 -0.03866577 C5.41749733 -0.04200424 5.41749733 -0.04200424 7.33374023 -0.04541016 C8.62674545 -0.05206696 9.91975067 -0.05872375 11.25193787 -0.06558228 C13.98293399 -0.07752829 16.71380383 -0.0812656 19.44482422 -0.08007812 C22.94102792 -0.07987444 26.43642324 -0.10723762 29.93243504 -0.14162254 C33.27454945 -0.16921676 36.61651332 -0.16803953 39.95874023 -0.17041016 C41.84007408 -0.19196671 41.84007408 -0.19196671 43.75941467 -0.21395874 C44.92419846 -0.20780548 46.08898224 -0.20165222 47.2890625 -0.1953125 C48.82531029 -0.19958755 48.82531029 -0.19958755 50.39259338 -0.20394897 C53.78134765 0.41961214 54.95921177 1.63272627 57.07983398 4.29052734 C57.61108398 6.29052734 57.61108398 6.29052734 57.57983398 8.29052734 C57.59530273 9.28052734 57.59530273 9.28052734 57.61108398 10.29052734 C56.77353445 13.443655 55.80508199 14.44649725 53.07983398 16.29052734 C49.65014672 16.78004831 46.28514323 16.66635093 42.82983398 16.54052734 C41.89397461 16.52248047 40.95811523 16.50443359 39.99389648 16.48583984 C37.68816383 16.43878408 35.38452454 16.37306447 33.07983398 16.29052734 C33.10078125 16.87543945 33.12172852 17.46035156 33.14331055 18.06298828 C33.22663514 20.721992 33.27854295 23.3807209 33.32983398 26.04052734 C33.36334961 26.96091797 33.39686523 27.88130859 33.43139648 28.82958984 C33.52988656 35.62540539 33.52988656 35.62540539 31.31420898 38.89990234 C28.98380701 40.35029238 27.79698264 40.83298279 25.07983398 40.79052734 C24.41983398 40.80083984 23.75983398 40.81115234 23.07983398 40.82177734 C19.92670633 39.98422781 18.92386407 39.01577535 17.07983398 36.29052734 C16.59031302 32.86084008 16.7040104 29.49583659 16.82983398 26.04052734 C16.84788086 25.10466797 16.86592773 24.16880859 16.88452148 23.20458984 C16.93157725 20.89885719 16.99729686 18.5952179 17.07983398 16.29052734 C14.51647145 16.40499007 11.95469954 16.53172235 9.39233398 16.66552734 C8.31048828 16.71193359 8.31048828 16.71193359 7.20678711 16.75927734 C1.39445142 17.07166261 1.39445142 17.07166261 -3.92016602 19.29052734 C-5.58140091 22.67681037 -6.17173375 25.43399088 -6.17895508 29.18505859 C-6.1852594 30.12953857 -6.19156372 31.07401855 -6.19805908 32.04711914 C-6.19401062 33.05556885 -6.18996216 34.06401855 -6.18579102 35.10302734 C-6.18770447 36.14950439 -6.18961792 37.19598145 -6.19158936 38.27416992 C-6.1929482 40.48307537 -6.18927277 42.69198888 -6.1809082 44.90087891 C-6.17020464 48.27834035 -6.18081389 51.6552699 -6.19360352 55.03271484 C-6.19228187 57.18115352 -6.18971937 59.32959186 -6.18579102 61.47802734 C-6.18983948 62.48647705 -6.19388794 63.49492676 -6.19805908 64.53393555 C-6.19175476 65.47841553 -6.18545044 66.42289551 -6.17895508 67.39599609 C-6.17736389 68.22252686 -6.17577271 69.04905762 -6.1741333 69.90063477 C-5.86948181 72.76747777 -5.33156204 74.76557779 -3.92016602 77.29052734 C-0.50037393 79.22238078 2.47612336 79.54047323 6.35742188 79.54589844 C7.89910789 79.55633682 7.89910789 79.55633682 9.47193909 79.56698608 C10.57102097 79.56598907 11.67010284 79.56499207 12.80249023 79.56396484 C15.13778156 79.58424503 17.47306799 79.60509564 19.80834961 79.62646484 C23.48425443 79.64911155 27.15996599 79.66555531 30.8359375 79.67138672 C34.38764187 79.68088389 37.93847927 79.71461825 41.48999023 79.75146484 C42.59109634 79.74641937 43.69220245 79.7413739 44.82667542 79.73617554 C45.85131393 79.74943878 46.87595245 79.76270203 47.93164062 79.77636719 C48.83145157 79.77921722 49.73126251 79.78206726 50.65834045 79.78500366 C53.84160305 80.44955825 55.05000068 81.80831092 57.07983398 84.29052734 C57.61108398 86.29052734 57.61108398 86.29052734 57.57983398 88.29052734 C57.59530273 89.28052734 57.59530273 89.28052734 57.61108398 90.29052734 C56.83373832 93.21700513 55.40343916 94.38493328 53.07983398 96.29052734 C50.41278076 96.79846191 50.41278076 96.79846191 47.33666992 96.80810547 C45.60401886 96.82701843 45.60401886 96.82701843 43.83636475 96.84631348 C41.96914764 96.83416809 41.96914764 96.83416809 40.06420898 96.82177734 C38.77927551 96.82560425 37.49434204 96.82943115 36.17047119 96.83337402 C33.45012169 96.83926692 30.73029802 96.83071967 28.01000977 96.81201172 C24.54209973 96.78931186 21.07543422 96.80228726 17.60757065 96.82630157 C14.28052063 96.84434162 10.95379423 96.83165694 7.62670898 96.82177734 C6.38999451 96.82987427 5.15328003 96.83797119 3.87908936 96.84631348 C-4.26490221 96.75837663 -9.86529732 95.84383563 -16.16235352 90.32568359 C-16.70118164 89.67470703 -17.24000977 89.02373047 -17.79516602 88.35302734 C-18.34946289 87.70462891 -18.90375977 87.05623047 -19.47485352 86.38818359 C-22.43978098 82.08503212 -23.17365539 78.33835717 -23.21069336 73.15844727 C-23.22345306 71.94335983 -23.23621277 70.7282724 -23.24935913 69.47636414 C-23.25158478 68.17109268 -23.25381042 66.86582123 -23.25610352 65.52099609 C-23.26253766 64.1572506 -23.26926648 62.79350646 -23.27627563 61.42976379 C-23.28822964 58.57431848 -23.29195849 55.71899395 -23.29077148 52.86352539 C-23.29056859 49.22199624 -23.31784772 45.58125006 -23.3523159 41.93990612 C-23.37466326 39.12328097 -23.37860663 36.30684179 -23.37755203 33.4901371 C-23.38103001 31.50054254 -23.4026456 29.51100604 -23.4246521 27.52153015 C-23.38271395 19.17552963 -22.61044729 13.50170319 -16.95532227 7.04833984 C-16.3043457 6.50951172 -15.65336914 5.97068359 -14.98266602 5.41552734 C-14.33426758 4.86123047 -13.68586914 4.30693359 -13.01782227 3.73583984 C-8.79058537 0.82321852 -5.09026968 0.03786112 0 0 Z " fill="#568FCE" transform="translate(278.920166015625,375.70947265625)"/>
<path d="M0 0 C1.15510071 -0.01260864 2.31020142 -0.02521729 3.50030518 -0.03820801 C5.36752228 -0.02606262 5.36752228 -0.02606262 7.27246094 -0.01367188 C8.55739441 -0.01749878 9.84232788 -0.02132568 11.16619873 -0.02526855 C13.88654823 -0.03116145 16.6063719 -0.0226142 19.32666016 -0.00390625 C22.79457019 0.01879361 26.2612357 0.00581821 29.72909927 -0.01819611 C33.05614929 -0.03623616 36.38287569 -0.02355147 39.70996094 -0.01367188 C41.56503265 -0.02581726 41.56503265 -0.02581726 43.45758057 -0.03820801 C51.60157214 0.04972884 57.20196724 0.96426984 63.49902344 6.48242188 C64.03785156 7.13339844 64.57667969 7.784375 65.13183594 8.45507812 C65.68613281 9.10347656 66.24042969 9.751875 66.81152344 10.41992188 C69.7764509 14.72307335 70.51032531 18.4697483 70.54736328 23.6496582 C70.56012299 24.86474564 70.57288269 26.07983307 70.58602905 27.33174133 C70.5882547 28.63701279 70.59048035 29.94228424 70.59277344 31.28710938 C70.59920758 32.65085487 70.6059364 34.01459901 70.61294556 35.37834167 C70.62489956 38.23378699 70.62862841 41.08911152 70.62744141 43.94458008 C70.62723851 47.58610923 70.65451765 51.22685541 70.68898582 54.86819935 C70.71133318 57.6848245 70.71527655 60.50126368 70.71422195 63.31796837 C70.71769994 65.30756292 70.73931552 67.29709943 70.76132202 69.28657532 C70.71938387 77.63257584 69.94711721 83.30640228 64.29199219 89.75976562 C63.64101562 90.29859375 62.99003906 90.83742188 62.31933594 91.39257812 C61.6709375 91.946875 61.02253906 92.50117188 60.35449219 93.07226562 C56.12725529 95.98488695 52.4269396 96.77024435 47.33666992 96.80810547 C46.16873398 96.82086517 45.00079803 96.83362488 43.79747009 96.84677124 C41.91917259 96.85010971 41.91917259 96.85010971 40.00292969 96.85351562 C38.06342186 96.86350082 38.06342186 96.86350082 36.08473206 96.87368774 C33.35373593 96.88563376 30.62286609 96.88937107 27.8918457 96.88818359 C24.395642 96.88797991 20.90024668 96.91534309 17.40423489 96.94972801 C14.06212047 96.97732223 10.7201566 96.976145 7.37792969 96.97851562 C6.12370712 96.99288666 4.86948456 97.00725769 3.57725525 97.02206421 C2.41247147 97.01591095 1.24768768 97.00975769 0.04760742 97.00341797 C-1.48864037 97.00769302 -1.48864037 97.00769302 -3.05592346 97.01205444 C-6.44467773 96.38849333 -7.62254185 95.17537919 -9.74316406 92.51757812 C-10.27441406 90.51757812 -10.27441406 90.51757812 -10.24316406 88.51757812 C-10.25863281 87.52757812 -10.25863281 87.52757812 -10.27441406 86.51757812 C-9.50236418 83.61103738 -8.03278189 82.42559552 -5.74316406 80.51757812 C-3.32167053 80.01205444 -3.32167053 80.01205444 -0.5949707 80.00341797 C0.42966782 79.99015472 1.45430634 79.97689148 2.50999451 79.96322632 C4.16165367 79.97079453 4.16165367 79.97079453 5.84667969 79.97851562 C6.98335587 79.96672272 8.12003204 79.95492981 9.29115295 79.94277954 C12.9256861 79.90745422 16.55964501 79.89834404 20.19433594 79.89257812 C23.82528361 79.87623441 27.45597384 79.85417764 31.08680725 79.82095337 C33.34604774 79.80133363 35.60540609 79.79198737 37.86473083 79.79403687 C38.89252151 79.78707794 39.92031219 79.78011902 40.97924805 79.77294922 C42.33015785 79.77106094 42.33015785 79.77106094 43.70835876 79.76913452 C46.65269203 79.47850376 48.67307372 78.97715513 51.25683594 77.51757812 C53.10288538 74.21504531 53.50841923 71.36603484 53.515625 67.62304688 C53.52192932 66.67856689 53.52823364 65.73408691 53.534729 64.76098633 C53.53068054 63.75253662 53.52663208 62.74408691 53.52246094 61.70507812 C53.52437439 60.65860107 53.52628784 59.61212402 53.52825928 58.53393555 C53.52961812 56.3250301 53.5259427 54.11611659 53.51757812 51.90722656 C53.50687456 48.52976512 53.51748381 45.15283557 53.53027344 41.77539062 C53.52895179 39.62695195 53.52638929 37.47851361 53.52246094 35.33007812 C53.5265094 34.32162842 53.53055786 33.31317871 53.534729 32.27416992 C53.52842468 31.32968994 53.52212036 30.38520996 53.515625 29.41210938 C53.51403381 28.58557861 53.51244263 27.75904785 53.51080322 26.9074707 C53.21571679 24.13063718 52.4847839 22.02064337 51.25683594 19.51757812 C47.16074291 17.04016379 42.61017381 17.0927213 37.94433594 16.89257812 C37.20376953 16.85390625 36.46320313 16.81523437 35.70019531 16.77539062 C33.88612285 16.68176108 32.07151478 16.59860961 30.25683594 16.51757812 C30.2777832 17.10249023 30.29873047 17.68740234 30.3203125 18.29003906 C30.40363709 20.94904278 30.4555449 23.60777168 30.50683594 26.26757812 C30.54035156 27.18796875 30.57386719 28.10835938 30.60839844 29.05664062 C30.70688852 35.85245617 30.70688852 35.85245617 28.49121094 39.12695312 C26.16080896 40.57734316 24.9739846 41.06003357 22.25683594 41.01757812 C21.26683594 41.03304687 21.26683594 41.03304687 20.25683594 41.04882812 C17.10370829 40.21127859 16.10086603 39.24282613 14.25683594 36.51757812 C13.76731497 33.08789086 13.88101235 29.72288737 14.00683594 26.26757812 C14.02488281 25.33171875 14.04292969 24.39585937 14.06152344 23.43164062 C14.10857921 21.12590797 14.17429881 18.82226868 14.25683594 16.51757812 C13.67192383 16.53852539 13.08701172 16.55947266 12.484375 16.58105469 C9.82537128 16.66437928 7.16664239 16.71628709 4.50683594 16.76757812 C3.12625 16.81785156 3.12625 16.81785156 1.71777344 16.86914062 C-5.07804211 16.96763071 -5.07804211 16.96763071 -8.35253906 14.75195312 C-9.8029291 12.42155115 -10.28561951 11.23472679 -10.24316406 8.51757812 C-10.25863281 7.52757812 -10.25863281 7.52757812 -10.27441406 6.51757812 C-8.85669008 1.18026431 -5.0396904 0.01579934 0 0 Z " fill="#558FCE" transform="translate(169.7431640625,375.482421875)"/>
</svg>
